%TF.GenerationSoftware,KiCad,Pcbnew,(5.1.10-1-10_14)*%
%TF.CreationDate,2023-03-15T03:50:06+08:00*%
%TF.ProjectId,GB_MemoryBackup_Mainboard,47425f4d-656d-46f7-9279-4261636b7570,1.0*%
%TF.SameCoordinates,Original*%
%TF.FileFunction,Copper,L1,Top*%
%TF.FilePolarity,Positive*%
%FSLAX46Y46*%
G04 Gerber Fmt 4.6, Leading zero omitted, Abs format (unit mm)*
G04 Created by KiCad (PCBNEW (5.1.10-1-10_14)) date 2023-03-15 03:50:06*
%MOMM*%
%LPD*%
G01*
G04 APERTURE LIST*
%TA.AperFunction,ComponentPad*%
%ADD10C,1.600000*%
%TD*%
%TA.AperFunction,ConnectorPad*%
%ADD11R,1.300000X6.000000*%
%TD*%
%TA.AperFunction,ConnectorPad*%
%ADD12R,1.000000X5.500000*%
%TD*%
%TA.AperFunction,SMDPad,CuDef*%
%ADD13R,0.760000X2.300000*%
%TD*%
%TA.AperFunction,SMDPad,CuDef*%
%ADD14R,2.300000X0.760000*%
%TD*%
%TA.AperFunction,ComponentPad*%
%ADD15O,3.000000X2.000000*%
%TD*%
%TA.AperFunction,ComponentPad*%
%ADD16O,2.500000X1.600000*%
%TD*%
%TA.AperFunction,ComponentPad*%
%ADD17R,2.500000X1.600000*%
%TD*%
%TA.AperFunction,ComponentPad*%
%ADD18R,1.700000X1.700000*%
%TD*%
%TA.AperFunction,ComponentPad*%
%ADD19O,1.700000X1.700000*%
%TD*%
%TA.AperFunction,SMDPad,CuDef*%
%ADD20R,5.500000X3.500000*%
%TD*%
%TA.AperFunction,SMDPad,CuDef*%
%ADD21R,1.000000X5.000000*%
%TD*%
%TA.AperFunction,ViaPad*%
%ADD22C,0.800000*%
%TD*%
%TA.AperFunction,Conductor*%
%ADD23C,0.500000*%
%TD*%
%TA.AperFunction,Conductor*%
%ADD24C,0.400000*%
%TD*%
%TA.AperFunction,Conductor*%
%ADD25C,0.250000*%
%TD*%
%TA.AperFunction,Conductor*%
%ADD26C,0.254000*%
%TD*%
%TA.AperFunction,Conductor*%
%ADD27C,0.100000*%
%TD*%
G04 APERTURE END LIST*
D10*
%TO.P,SW2,3*%
%TO.N,N/C*%
X63160000Y-85090000D03*
%TO.P,SW2,1*%
%TO.N,/~SW_2*%
X65110000Y-83541000D03*
%TO.P,SW2,2*%
%TO.N,GND*%
X65110000Y-86639000D03*
%TD*%
D11*
%TO.P,J1,32*%
%TO.N,GND*%
X113000000Y-151500000D03*
D12*
%TO.P,J1,31*%
%TO.N,/AAudioIn*%
X111350000Y-151250000D03*
%TO.P,J1,30*%
%TO.N,/~ARST*%
X109850000Y-151250000D03*
%TO.P,J1,29*%
%TO.N,/AD7*%
X108350000Y-151250000D03*
%TO.P,J1,28*%
%TO.N,/AD6*%
X106850000Y-151250000D03*
%TO.P,J1,27*%
%TO.N,/AD5*%
X105350000Y-151250000D03*
%TO.P,J1,26*%
%TO.N,/AD4*%
X103850000Y-151250000D03*
%TO.P,J1,25*%
%TO.N,/AD3*%
X102350000Y-151250000D03*
%TO.P,J1,24*%
%TO.N,/AD2*%
X100850000Y-151250000D03*
%TO.P,J1,23*%
%TO.N,/AD1*%
X99350000Y-151250000D03*
%TO.P,J1,22*%
%TO.N,/AD0*%
X97850000Y-151250000D03*
%TO.P,J1,21*%
%TO.N,/AA15*%
X96350000Y-151250000D03*
%TO.P,J1,20*%
%TO.N,/AA14*%
X94850000Y-151250000D03*
%TO.P,J1,19*%
%TO.N,/AA13*%
X93350000Y-151250000D03*
%TO.P,J1,18*%
%TO.N,/AA12*%
X91850000Y-151250000D03*
%TO.P,J1,17*%
%TO.N,/AA11*%
X90350000Y-151250000D03*
%TO.P,J1,16*%
%TO.N,/AA10*%
X88850000Y-151250000D03*
%TO.P,J1,15*%
%TO.N,/AA9*%
X87350000Y-151250000D03*
%TO.P,J1,14*%
%TO.N,/AA8*%
X85850000Y-151250000D03*
%TO.P,J1,13*%
%TO.N,/AA7*%
X84350000Y-151250000D03*
%TO.P,J1,12*%
%TO.N,/AA6*%
X82850000Y-151250000D03*
%TO.P,J1,11*%
%TO.N,/AA5*%
X81350000Y-151250000D03*
%TO.P,J1,10*%
%TO.N,/AA4*%
X79850000Y-151250000D03*
%TO.P,J1,9*%
%TO.N,/AA3*%
X78350000Y-151250000D03*
%TO.P,J1,8*%
%TO.N,/AA2*%
X76850000Y-151250000D03*
%TO.P,J1,7*%
%TO.N,/AA1*%
X75350000Y-151250000D03*
%TO.P,J1,6*%
%TO.N,/AA0*%
X73850000Y-151250000D03*
%TO.P,J1,5*%
%TO.N,/~ASRAM_CS*%
X72350000Y-151250000D03*
%TO.P,J1,4*%
%TO.N,/~ARD*%
X70850000Y-151250000D03*
%TO.P,J1,3*%
%TO.N,/~AWR*%
X69350000Y-151250000D03*
%TO.P,J1,2*%
%TO.N,/ACLK*%
X67850000Y-151250000D03*
D11*
%TO.P,J1,1*%
%TO.N,+5V*%
X66200000Y-151500000D03*
%TD*%
%TO.P,U2,32*%
%TO.N,+5V*%
%TA.AperFunction,SMDPad,CuDef*%
G36*
G01*
X97757000Y-79685000D02*
X95667000Y-79685000D01*
G75*
G02*
X95512000Y-79530000I0J155000D01*
G01*
X95512000Y-79220000D01*
G75*
G02*
X95667000Y-79065000I155000J0D01*
G01*
X97757000Y-79065000D01*
G75*
G02*
X97912000Y-79220000I0J-155000D01*
G01*
X97912000Y-79530000D01*
G75*
G02*
X97757000Y-79685000I-155000J0D01*
G01*
G37*
%TD.AperFunction*%
%TO.P,U2,31*%
%TO.N,/~AWR*%
%TA.AperFunction,SMDPad,CuDef*%
G36*
G01*
X97757000Y-78415000D02*
X95667000Y-78415000D01*
G75*
G02*
X95512000Y-78260000I0J155000D01*
G01*
X95512000Y-77950000D01*
G75*
G02*
X95667000Y-77795000I155000J0D01*
G01*
X97757000Y-77795000D01*
G75*
G02*
X97912000Y-77950000I0J-155000D01*
G01*
X97912000Y-78260000D01*
G75*
G02*
X97757000Y-78415000I-155000J0D01*
G01*
G37*
%TD.AperFunction*%
%TO.P,U2,30*%
%TO.N,/F040_A17*%
%TA.AperFunction,SMDPad,CuDef*%
G36*
G01*
X97757000Y-77145000D02*
X95667000Y-77145000D01*
G75*
G02*
X95512000Y-76990000I0J155000D01*
G01*
X95512000Y-76680000D01*
G75*
G02*
X95667000Y-76525000I155000J0D01*
G01*
X97757000Y-76525000D01*
G75*
G02*
X97912000Y-76680000I0J-155000D01*
G01*
X97912000Y-76990000D01*
G75*
G02*
X97757000Y-77145000I-155000J0D01*
G01*
G37*
%TD.AperFunction*%
%TO.P,U2,29*%
%TO.N,/F040_A14*%
%TA.AperFunction,SMDPad,CuDef*%
G36*
G01*
X98580000Y-76342000D02*
X98270000Y-76342000D01*
G75*
G02*
X98115000Y-76187000I0J155000D01*
G01*
X98115000Y-74097000D01*
G75*
G02*
X98270000Y-73942000I155000J0D01*
G01*
X98580000Y-73942000D01*
G75*
G02*
X98735000Y-74097000I0J-155000D01*
G01*
X98735000Y-76187000D01*
G75*
G02*
X98580000Y-76342000I-155000J0D01*
G01*
G37*
%TD.AperFunction*%
%TO.P,U2,28*%
%TO.N,/AA13*%
%TA.AperFunction,SMDPad,CuDef*%
G36*
G01*
X99850000Y-76342000D02*
X99540000Y-76342000D01*
G75*
G02*
X99385000Y-76187000I0J155000D01*
G01*
X99385000Y-74097000D01*
G75*
G02*
X99540000Y-73942000I155000J0D01*
G01*
X99850000Y-73942000D01*
G75*
G02*
X100005000Y-74097000I0J-155000D01*
G01*
X100005000Y-76187000D01*
G75*
G02*
X99850000Y-76342000I-155000J0D01*
G01*
G37*
%TD.AperFunction*%
%TO.P,U2,27*%
%TO.N,/AA8*%
%TA.AperFunction,SMDPad,CuDef*%
G36*
G01*
X101120000Y-76342000D02*
X100810000Y-76342000D01*
G75*
G02*
X100655000Y-76187000I0J155000D01*
G01*
X100655000Y-74097000D01*
G75*
G02*
X100810000Y-73942000I155000J0D01*
G01*
X101120000Y-73942000D01*
G75*
G02*
X101275000Y-74097000I0J-155000D01*
G01*
X101275000Y-76187000D01*
G75*
G02*
X101120000Y-76342000I-155000J0D01*
G01*
G37*
%TD.AperFunction*%
%TO.P,U2,26*%
%TO.N,/AA9*%
%TA.AperFunction,SMDPad,CuDef*%
G36*
G01*
X102390000Y-76342000D02*
X102080000Y-76342000D01*
G75*
G02*
X101925000Y-76187000I0J155000D01*
G01*
X101925000Y-74097000D01*
G75*
G02*
X102080000Y-73942000I155000J0D01*
G01*
X102390000Y-73942000D01*
G75*
G02*
X102545000Y-74097000I0J-155000D01*
G01*
X102545000Y-76187000D01*
G75*
G02*
X102390000Y-76342000I-155000J0D01*
G01*
G37*
%TD.AperFunction*%
%TO.P,U2,25*%
%TO.N,/AA11*%
%TA.AperFunction,SMDPad,CuDef*%
G36*
G01*
X103660000Y-76342000D02*
X103350000Y-76342000D01*
G75*
G02*
X103195000Y-76187000I0J155000D01*
G01*
X103195000Y-74097000D01*
G75*
G02*
X103350000Y-73942000I155000J0D01*
G01*
X103660000Y-73942000D01*
G75*
G02*
X103815000Y-74097000I0J-155000D01*
G01*
X103815000Y-76187000D01*
G75*
G02*
X103660000Y-76342000I-155000J0D01*
G01*
G37*
%TD.AperFunction*%
%TO.P,U2,24*%
%TO.N,/~ARD*%
%TA.AperFunction,SMDPad,CuDef*%
G36*
G01*
X104930000Y-76342000D02*
X104620000Y-76342000D01*
G75*
G02*
X104465000Y-76187000I0J155000D01*
G01*
X104465000Y-74097000D01*
G75*
G02*
X104620000Y-73942000I155000J0D01*
G01*
X104930000Y-73942000D01*
G75*
G02*
X105085000Y-74097000I0J-155000D01*
G01*
X105085000Y-76187000D01*
G75*
G02*
X104930000Y-76342000I-155000J0D01*
G01*
G37*
%TD.AperFunction*%
%TO.P,U2,23*%
%TO.N,/AA10*%
%TA.AperFunction,SMDPad,CuDef*%
G36*
G01*
X106200000Y-76342000D02*
X105890000Y-76342000D01*
G75*
G02*
X105735000Y-76187000I0J155000D01*
G01*
X105735000Y-74097000D01*
G75*
G02*
X105890000Y-73942000I155000J0D01*
G01*
X106200000Y-73942000D01*
G75*
G02*
X106355000Y-74097000I0J-155000D01*
G01*
X106355000Y-76187000D01*
G75*
G02*
X106200000Y-76342000I-155000J0D01*
G01*
G37*
%TD.AperFunction*%
%TO.P,U2,22*%
%TO.N,/~F_CE_040*%
%TA.AperFunction,SMDPad,CuDef*%
G36*
G01*
X107470000Y-76342000D02*
X107160000Y-76342000D01*
G75*
G02*
X107005000Y-76187000I0J155000D01*
G01*
X107005000Y-74097000D01*
G75*
G02*
X107160000Y-73942000I155000J0D01*
G01*
X107470000Y-73942000D01*
G75*
G02*
X107625000Y-74097000I0J-155000D01*
G01*
X107625000Y-76187000D01*
G75*
G02*
X107470000Y-76342000I-155000J0D01*
G01*
G37*
%TD.AperFunction*%
%TO.P,U2,21*%
%TO.N,/AD7*%
%TA.AperFunction,SMDPad,CuDef*%
G36*
G01*
X108740000Y-76342000D02*
X108430000Y-76342000D01*
G75*
G02*
X108275000Y-76187000I0J155000D01*
G01*
X108275000Y-74097000D01*
G75*
G02*
X108430000Y-73942000I155000J0D01*
G01*
X108740000Y-73942000D01*
G75*
G02*
X108895000Y-74097000I0J-155000D01*
G01*
X108895000Y-76187000D01*
G75*
G02*
X108740000Y-76342000I-155000J0D01*
G01*
G37*
%TD.AperFunction*%
%TO.P,U2,20*%
%TO.N,/AD6*%
%TA.AperFunction,SMDPad,CuDef*%
G36*
G01*
X111343000Y-77145000D02*
X109253000Y-77145000D01*
G75*
G02*
X109098000Y-76990000I0J155000D01*
G01*
X109098000Y-76680000D01*
G75*
G02*
X109253000Y-76525000I155000J0D01*
G01*
X111343000Y-76525000D01*
G75*
G02*
X111498000Y-76680000I0J-155000D01*
G01*
X111498000Y-76990000D01*
G75*
G02*
X111343000Y-77145000I-155000J0D01*
G01*
G37*
%TD.AperFunction*%
%TO.P,U2,19*%
%TO.N,/AD5*%
%TA.AperFunction,SMDPad,CuDef*%
G36*
G01*
X111343000Y-78415000D02*
X109253000Y-78415000D01*
G75*
G02*
X109098000Y-78260000I0J155000D01*
G01*
X109098000Y-77950000D01*
G75*
G02*
X109253000Y-77795000I155000J0D01*
G01*
X111343000Y-77795000D01*
G75*
G02*
X111498000Y-77950000I0J-155000D01*
G01*
X111498000Y-78260000D01*
G75*
G02*
X111343000Y-78415000I-155000J0D01*
G01*
G37*
%TD.AperFunction*%
%TO.P,U2,18*%
%TO.N,/AD4*%
%TA.AperFunction,SMDPad,CuDef*%
G36*
G01*
X111343000Y-79685000D02*
X109253000Y-79685000D01*
G75*
G02*
X109098000Y-79530000I0J155000D01*
G01*
X109098000Y-79220000D01*
G75*
G02*
X109253000Y-79065000I155000J0D01*
G01*
X111343000Y-79065000D01*
G75*
G02*
X111498000Y-79220000I0J-155000D01*
G01*
X111498000Y-79530000D01*
G75*
G02*
X111343000Y-79685000I-155000J0D01*
G01*
G37*
%TD.AperFunction*%
%TO.P,U2,17*%
%TO.N,/AD3*%
%TA.AperFunction,SMDPad,CuDef*%
G36*
G01*
X111343000Y-80955000D02*
X109253000Y-80955000D01*
G75*
G02*
X109098000Y-80800000I0J155000D01*
G01*
X109098000Y-80490000D01*
G75*
G02*
X109253000Y-80335000I155000J0D01*
G01*
X111343000Y-80335000D01*
G75*
G02*
X111498000Y-80490000I0J-155000D01*
G01*
X111498000Y-80800000D01*
G75*
G02*
X111343000Y-80955000I-155000J0D01*
G01*
G37*
%TD.AperFunction*%
%TO.P,U2,16*%
%TO.N,GND*%
%TA.AperFunction,SMDPad,CuDef*%
G36*
G01*
X111343000Y-82225000D02*
X109253000Y-82225000D01*
G75*
G02*
X109098000Y-82070000I0J155000D01*
G01*
X109098000Y-81760000D01*
G75*
G02*
X109253000Y-81605000I155000J0D01*
G01*
X111343000Y-81605000D01*
G75*
G02*
X111498000Y-81760000I0J-155000D01*
G01*
X111498000Y-82070000D01*
G75*
G02*
X111343000Y-82225000I-155000J0D01*
G01*
G37*
%TD.AperFunction*%
%TO.P,U2,15*%
%TO.N,/AD2*%
%TA.AperFunction,SMDPad,CuDef*%
G36*
G01*
X111343000Y-83495000D02*
X109253000Y-83495000D01*
G75*
G02*
X109098000Y-83340000I0J155000D01*
G01*
X109098000Y-83030000D01*
G75*
G02*
X109253000Y-82875000I155000J0D01*
G01*
X111343000Y-82875000D01*
G75*
G02*
X111498000Y-83030000I0J-155000D01*
G01*
X111498000Y-83340000D01*
G75*
G02*
X111343000Y-83495000I-155000J0D01*
G01*
G37*
%TD.AperFunction*%
%TO.P,U2,14*%
%TO.N,/AD1*%
%TA.AperFunction,SMDPad,CuDef*%
G36*
G01*
X111343000Y-84765000D02*
X109253000Y-84765000D01*
G75*
G02*
X109098000Y-84610000I0J155000D01*
G01*
X109098000Y-84300000D01*
G75*
G02*
X109253000Y-84145000I155000J0D01*
G01*
X111343000Y-84145000D01*
G75*
G02*
X111498000Y-84300000I0J-155000D01*
G01*
X111498000Y-84610000D01*
G75*
G02*
X111343000Y-84765000I-155000J0D01*
G01*
G37*
%TD.AperFunction*%
%TO.P,U2,13*%
%TO.N,/AD0*%
%TA.AperFunction,SMDPad,CuDef*%
G36*
G01*
X108740000Y-87348000D02*
X108430000Y-87348000D01*
G75*
G02*
X108275000Y-87193000I0J155000D01*
G01*
X108275000Y-85103000D01*
G75*
G02*
X108430000Y-84948000I155000J0D01*
G01*
X108740000Y-84948000D01*
G75*
G02*
X108895000Y-85103000I0J-155000D01*
G01*
X108895000Y-87193000D01*
G75*
G02*
X108740000Y-87348000I-155000J0D01*
G01*
G37*
%TD.AperFunction*%
%TO.P,U2,12*%
%TO.N,/AA0*%
%TA.AperFunction,SMDPad,CuDef*%
G36*
G01*
X107470000Y-87348000D02*
X107160000Y-87348000D01*
G75*
G02*
X107005000Y-87193000I0J155000D01*
G01*
X107005000Y-85103000D01*
G75*
G02*
X107160000Y-84948000I155000J0D01*
G01*
X107470000Y-84948000D01*
G75*
G02*
X107625000Y-85103000I0J-155000D01*
G01*
X107625000Y-87193000D01*
G75*
G02*
X107470000Y-87348000I-155000J0D01*
G01*
G37*
%TD.AperFunction*%
%TO.P,U2,11*%
%TO.N,/AA1*%
%TA.AperFunction,SMDPad,CuDef*%
G36*
G01*
X106200000Y-87348000D02*
X105890000Y-87348000D01*
G75*
G02*
X105735000Y-87193000I0J155000D01*
G01*
X105735000Y-85103000D01*
G75*
G02*
X105890000Y-84948000I155000J0D01*
G01*
X106200000Y-84948000D01*
G75*
G02*
X106355000Y-85103000I0J-155000D01*
G01*
X106355000Y-87193000D01*
G75*
G02*
X106200000Y-87348000I-155000J0D01*
G01*
G37*
%TD.AperFunction*%
%TO.P,U2,10*%
%TO.N,/AA2*%
%TA.AperFunction,SMDPad,CuDef*%
G36*
G01*
X104930000Y-87348000D02*
X104620000Y-87348000D01*
G75*
G02*
X104465000Y-87193000I0J155000D01*
G01*
X104465000Y-85103000D01*
G75*
G02*
X104620000Y-84948000I155000J0D01*
G01*
X104930000Y-84948000D01*
G75*
G02*
X105085000Y-85103000I0J-155000D01*
G01*
X105085000Y-87193000D01*
G75*
G02*
X104930000Y-87348000I-155000J0D01*
G01*
G37*
%TD.AperFunction*%
%TO.P,U2,9*%
%TO.N,/AA3*%
%TA.AperFunction,SMDPad,CuDef*%
G36*
G01*
X103660000Y-87348000D02*
X103350000Y-87348000D01*
G75*
G02*
X103195000Y-87193000I0J155000D01*
G01*
X103195000Y-85103000D01*
G75*
G02*
X103350000Y-84948000I155000J0D01*
G01*
X103660000Y-84948000D01*
G75*
G02*
X103815000Y-85103000I0J-155000D01*
G01*
X103815000Y-87193000D01*
G75*
G02*
X103660000Y-87348000I-155000J0D01*
G01*
G37*
%TD.AperFunction*%
%TO.P,U2,8*%
%TO.N,/AA4*%
%TA.AperFunction,SMDPad,CuDef*%
G36*
G01*
X102390000Y-87348000D02*
X102080000Y-87348000D01*
G75*
G02*
X101925000Y-87193000I0J155000D01*
G01*
X101925000Y-85103000D01*
G75*
G02*
X102080000Y-84948000I155000J0D01*
G01*
X102390000Y-84948000D01*
G75*
G02*
X102545000Y-85103000I0J-155000D01*
G01*
X102545000Y-87193000D01*
G75*
G02*
X102390000Y-87348000I-155000J0D01*
G01*
G37*
%TD.AperFunction*%
%TO.P,U2,7*%
%TO.N,/AA5*%
%TA.AperFunction,SMDPad,CuDef*%
G36*
G01*
X101120000Y-87348000D02*
X100810000Y-87348000D01*
G75*
G02*
X100655000Y-87193000I0J155000D01*
G01*
X100655000Y-85103000D01*
G75*
G02*
X100810000Y-84948000I155000J0D01*
G01*
X101120000Y-84948000D01*
G75*
G02*
X101275000Y-85103000I0J-155000D01*
G01*
X101275000Y-87193000D01*
G75*
G02*
X101120000Y-87348000I-155000J0D01*
G01*
G37*
%TD.AperFunction*%
%TO.P,U2,6*%
%TO.N,/AA6*%
%TA.AperFunction,SMDPad,CuDef*%
G36*
G01*
X99850000Y-87348000D02*
X99540000Y-87348000D01*
G75*
G02*
X99385000Y-87193000I0J155000D01*
G01*
X99385000Y-85103000D01*
G75*
G02*
X99540000Y-84948000I155000J0D01*
G01*
X99850000Y-84948000D01*
G75*
G02*
X100005000Y-85103000I0J-155000D01*
G01*
X100005000Y-87193000D01*
G75*
G02*
X99850000Y-87348000I-155000J0D01*
G01*
G37*
%TD.AperFunction*%
%TO.P,U2,5*%
%TO.N,/AA7*%
%TA.AperFunction,SMDPad,CuDef*%
G36*
G01*
X98580000Y-87348000D02*
X98270000Y-87348000D01*
G75*
G02*
X98115000Y-87193000I0J155000D01*
G01*
X98115000Y-85103000D01*
G75*
G02*
X98270000Y-84948000I155000J0D01*
G01*
X98580000Y-84948000D01*
G75*
G02*
X98735000Y-85103000I0J-155000D01*
G01*
X98735000Y-87193000D01*
G75*
G02*
X98580000Y-87348000I-155000J0D01*
G01*
G37*
%TD.AperFunction*%
%TO.P,U2,4*%
%TO.N,/AA12*%
%TA.AperFunction,SMDPad,CuDef*%
G36*
G01*
X97757000Y-84765000D02*
X95667000Y-84765000D01*
G75*
G02*
X95512000Y-84610000I0J155000D01*
G01*
X95512000Y-84300000D01*
G75*
G02*
X95667000Y-84145000I155000J0D01*
G01*
X97757000Y-84145000D01*
G75*
G02*
X97912000Y-84300000I0J-155000D01*
G01*
X97912000Y-84610000D01*
G75*
G02*
X97757000Y-84765000I-155000J0D01*
G01*
G37*
%TD.AperFunction*%
%TO.P,U2,3*%
%TO.N,/F040_A15*%
%TA.AperFunction,SMDPad,CuDef*%
G36*
G01*
X97757000Y-83495000D02*
X95667000Y-83495000D01*
G75*
G02*
X95512000Y-83340000I0J155000D01*
G01*
X95512000Y-83030000D01*
G75*
G02*
X95667000Y-82875000I155000J0D01*
G01*
X97757000Y-82875000D01*
G75*
G02*
X97912000Y-83030000I0J-155000D01*
G01*
X97912000Y-83340000D01*
G75*
G02*
X97757000Y-83495000I-155000J0D01*
G01*
G37*
%TD.AperFunction*%
%TO.P,U2,2*%
%TO.N,/F040_A16*%
%TA.AperFunction,SMDPad,CuDef*%
G36*
G01*
X97757000Y-82225000D02*
X95667000Y-82225000D01*
G75*
G02*
X95512000Y-82070000I0J155000D01*
G01*
X95512000Y-81760000D01*
G75*
G02*
X95667000Y-81605000I155000J0D01*
G01*
X97757000Y-81605000D01*
G75*
G02*
X97912000Y-81760000I0J-155000D01*
G01*
X97912000Y-82070000D01*
G75*
G02*
X97757000Y-82225000I-155000J0D01*
G01*
G37*
%TD.AperFunction*%
%TO.P,U2,1*%
%TO.N,/F040_A18*%
%TA.AperFunction,SMDPad,CuDef*%
G36*
G01*
X97757000Y-80955000D02*
X95667000Y-80955000D01*
G75*
G02*
X95512000Y-80800000I0J155000D01*
G01*
X95512000Y-80490000D01*
G75*
G02*
X95667000Y-80335000I155000J0D01*
G01*
X97757000Y-80335000D01*
G75*
G02*
X97912000Y-80490000I0J-155000D01*
G01*
X97912000Y-80800000D01*
G75*
G02*
X97757000Y-80955000I-155000J0D01*
G01*
G37*
%TD.AperFunction*%
%TD*%
%TO.P,U1,32*%
%TO.N,+5V*%
%TA.AperFunction,SMDPad,CuDef*%
G36*
G01*
X97757000Y-107625000D02*
X95667000Y-107625000D01*
G75*
G02*
X95512000Y-107470000I0J155000D01*
G01*
X95512000Y-107160000D01*
G75*
G02*
X95667000Y-107005000I155000J0D01*
G01*
X97757000Y-107005000D01*
G75*
G02*
X97912000Y-107160000I0J-155000D01*
G01*
X97912000Y-107470000D01*
G75*
G02*
X97757000Y-107625000I-155000J0D01*
G01*
G37*
%TD.AperFunction*%
%TO.P,U1,31*%
%TO.N,/~AWR*%
%TA.AperFunction,SMDPad,CuDef*%
G36*
G01*
X97757000Y-106355000D02*
X95667000Y-106355000D01*
G75*
G02*
X95512000Y-106200000I0J155000D01*
G01*
X95512000Y-105890000D01*
G75*
G02*
X95667000Y-105735000I155000J0D01*
G01*
X97757000Y-105735000D01*
G75*
G02*
X97912000Y-105890000I0J-155000D01*
G01*
X97912000Y-106200000D01*
G75*
G02*
X97757000Y-106355000I-155000J0D01*
G01*
G37*
%TD.AperFunction*%
%TO.P,U1,30*%
%TO.N,GND*%
%TA.AperFunction,SMDPad,CuDef*%
G36*
G01*
X97757000Y-105085000D02*
X95667000Y-105085000D01*
G75*
G02*
X95512000Y-104930000I0J155000D01*
G01*
X95512000Y-104620000D01*
G75*
G02*
X95667000Y-104465000I155000J0D01*
G01*
X97757000Y-104465000D01*
G75*
G02*
X97912000Y-104620000I0J-155000D01*
G01*
X97912000Y-104930000D01*
G75*
G02*
X97757000Y-105085000I-155000J0D01*
G01*
G37*
%TD.AperFunction*%
%TO.P,U1,29*%
%TO.N,/F010_A14*%
%TA.AperFunction,SMDPad,CuDef*%
G36*
G01*
X98580000Y-104282000D02*
X98270000Y-104282000D01*
G75*
G02*
X98115000Y-104127000I0J155000D01*
G01*
X98115000Y-102037000D01*
G75*
G02*
X98270000Y-101882000I155000J0D01*
G01*
X98580000Y-101882000D01*
G75*
G02*
X98735000Y-102037000I0J-155000D01*
G01*
X98735000Y-104127000D01*
G75*
G02*
X98580000Y-104282000I-155000J0D01*
G01*
G37*
%TD.AperFunction*%
%TO.P,U1,28*%
%TO.N,/AA13*%
%TA.AperFunction,SMDPad,CuDef*%
G36*
G01*
X99850000Y-104282000D02*
X99540000Y-104282000D01*
G75*
G02*
X99385000Y-104127000I0J155000D01*
G01*
X99385000Y-102037000D01*
G75*
G02*
X99540000Y-101882000I155000J0D01*
G01*
X99850000Y-101882000D01*
G75*
G02*
X100005000Y-102037000I0J-155000D01*
G01*
X100005000Y-104127000D01*
G75*
G02*
X99850000Y-104282000I-155000J0D01*
G01*
G37*
%TD.AperFunction*%
%TO.P,U1,27*%
%TO.N,/AA8*%
%TA.AperFunction,SMDPad,CuDef*%
G36*
G01*
X101120000Y-104282000D02*
X100810000Y-104282000D01*
G75*
G02*
X100655000Y-104127000I0J155000D01*
G01*
X100655000Y-102037000D01*
G75*
G02*
X100810000Y-101882000I155000J0D01*
G01*
X101120000Y-101882000D01*
G75*
G02*
X101275000Y-102037000I0J-155000D01*
G01*
X101275000Y-104127000D01*
G75*
G02*
X101120000Y-104282000I-155000J0D01*
G01*
G37*
%TD.AperFunction*%
%TO.P,U1,26*%
%TO.N,/AA9*%
%TA.AperFunction,SMDPad,CuDef*%
G36*
G01*
X102390000Y-104282000D02*
X102080000Y-104282000D01*
G75*
G02*
X101925000Y-104127000I0J155000D01*
G01*
X101925000Y-102037000D01*
G75*
G02*
X102080000Y-101882000I155000J0D01*
G01*
X102390000Y-101882000D01*
G75*
G02*
X102545000Y-102037000I0J-155000D01*
G01*
X102545000Y-104127000D01*
G75*
G02*
X102390000Y-104282000I-155000J0D01*
G01*
G37*
%TD.AperFunction*%
%TO.P,U1,25*%
%TO.N,/AA11*%
%TA.AperFunction,SMDPad,CuDef*%
G36*
G01*
X103660000Y-104282000D02*
X103350000Y-104282000D01*
G75*
G02*
X103195000Y-104127000I0J155000D01*
G01*
X103195000Y-102037000D01*
G75*
G02*
X103350000Y-101882000I155000J0D01*
G01*
X103660000Y-101882000D01*
G75*
G02*
X103815000Y-102037000I0J-155000D01*
G01*
X103815000Y-104127000D01*
G75*
G02*
X103660000Y-104282000I-155000J0D01*
G01*
G37*
%TD.AperFunction*%
%TO.P,U1,24*%
%TO.N,/~ARD*%
%TA.AperFunction,SMDPad,CuDef*%
G36*
G01*
X104930000Y-104282000D02*
X104620000Y-104282000D01*
G75*
G02*
X104465000Y-104127000I0J155000D01*
G01*
X104465000Y-102037000D01*
G75*
G02*
X104620000Y-101882000I155000J0D01*
G01*
X104930000Y-101882000D01*
G75*
G02*
X105085000Y-102037000I0J-155000D01*
G01*
X105085000Y-104127000D01*
G75*
G02*
X104930000Y-104282000I-155000J0D01*
G01*
G37*
%TD.AperFunction*%
%TO.P,U1,23*%
%TO.N,/AA10*%
%TA.AperFunction,SMDPad,CuDef*%
G36*
G01*
X106200000Y-104282000D02*
X105890000Y-104282000D01*
G75*
G02*
X105735000Y-104127000I0J155000D01*
G01*
X105735000Y-102037000D01*
G75*
G02*
X105890000Y-101882000I155000J0D01*
G01*
X106200000Y-101882000D01*
G75*
G02*
X106355000Y-102037000I0J-155000D01*
G01*
X106355000Y-104127000D01*
G75*
G02*
X106200000Y-104282000I-155000J0D01*
G01*
G37*
%TD.AperFunction*%
%TO.P,U1,22*%
%TO.N,/~F_CE_010*%
%TA.AperFunction,SMDPad,CuDef*%
G36*
G01*
X107470000Y-104282000D02*
X107160000Y-104282000D01*
G75*
G02*
X107005000Y-104127000I0J155000D01*
G01*
X107005000Y-102037000D01*
G75*
G02*
X107160000Y-101882000I155000J0D01*
G01*
X107470000Y-101882000D01*
G75*
G02*
X107625000Y-102037000I0J-155000D01*
G01*
X107625000Y-104127000D01*
G75*
G02*
X107470000Y-104282000I-155000J0D01*
G01*
G37*
%TD.AperFunction*%
%TO.P,U1,21*%
%TO.N,/AD7*%
%TA.AperFunction,SMDPad,CuDef*%
G36*
G01*
X108740000Y-104282000D02*
X108430000Y-104282000D01*
G75*
G02*
X108275000Y-104127000I0J155000D01*
G01*
X108275000Y-102037000D01*
G75*
G02*
X108430000Y-101882000I155000J0D01*
G01*
X108740000Y-101882000D01*
G75*
G02*
X108895000Y-102037000I0J-155000D01*
G01*
X108895000Y-104127000D01*
G75*
G02*
X108740000Y-104282000I-155000J0D01*
G01*
G37*
%TD.AperFunction*%
%TO.P,U1,20*%
%TO.N,/AD6*%
%TA.AperFunction,SMDPad,CuDef*%
G36*
G01*
X111343000Y-105085000D02*
X109253000Y-105085000D01*
G75*
G02*
X109098000Y-104930000I0J155000D01*
G01*
X109098000Y-104620000D01*
G75*
G02*
X109253000Y-104465000I155000J0D01*
G01*
X111343000Y-104465000D01*
G75*
G02*
X111498000Y-104620000I0J-155000D01*
G01*
X111498000Y-104930000D01*
G75*
G02*
X111343000Y-105085000I-155000J0D01*
G01*
G37*
%TD.AperFunction*%
%TO.P,U1,19*%
%TO.N,/AD5*%
%TA.AperFunction,SMDPad,CuDef*%
G36*
G01*
X111343000Y-106355000D02*
X109253000Y-106355000D01*
G75*
G02*
X109098000Y-106200000I0J155000D01*
G01*
X109098000Y-105890000D01*
G75*
G02*
X109253000Y-105735000I155000J0D01*
G01*
X111343000Y-105735000D01*
G75*
G02*
X111498000Y-105890000I0J-155000D01*
G01*
X111498000Y-106200000D01*
G75*
G02*
X111343000Y-106355000I-155000J0D01*
G01*
G37*
%TD.AperFunction*%
%TO.P,U1,18*%
%TO.N,/AD4*%
%TA.AperFunction,SMDPad,CuDef*%
G36*
G01*
X111343000Y-107625000D02*
X109253000Y-107625000D01*
G75*
G02*
X109098000Y-107470000I0J155000D01*
G01*
X109098000Y-107160000D01*
G75*
G02*
X109253000Y-107005000I155000J0D01*
G01*
X111343000Y-107005000D01*
G75*
G02*
X111498000Y-107160000I0J-155000D01*
G01*
X111498000Y-107470000D01*
G75*
G02*
X111343000Y-107625000I-155000J0D01*
G01*
G37*
%TD.AperFunction*%
%TO.P,U1,17*%
%TO.N,/AD3*%
%TA.AperFunction,SMDPad,CuDef*%
G36*
G01*
X111343000Y-108895000D02*
X109253000Y-108895000D01*
G75*
G02*
X109098000Y-108740000I0J155000D01*
G01*
X109098000Y-108430000D01*
G75*
G02*
X109253000Y-108275000I155000J0D01*
G01*
X111343000Y-108275000D01*
G75*
G02*
X111498000Y-108430000I0J-155000D01*
G01*
X111498000Y-108740000D01*
G75*
G02*
X111343000Y-108895000I-155000J0D01*
G01*
G37*
%TD.AperFunction*%
%TO.P,U1,16*%
%TO.N,GND*%
%TA.AperFunction,SMDPad,CuDef*%
G36*
G01*
X111343000Y-110165000D02*
X109253000Y-110165000D01*
G75*
G02*
X109098000Y-110010000I0J155000D01*
G01*
X109098000Y-109700000D01*
G75*
G02*
X109253000Y-109545000I155000J0D01*
G01*
X111343000Y-109545000D01*
G75*
G02*
X111498000Y-109700000I0J-155000D01*
G01*
X111498000Y-110010000D01*
G75*
G02*
X111343000Y-110165000I-155000J0D01*
G01*
G37*
%TD.AperFunction*%
%TO.P,U1,15*%
%TO.N,/AD2*%
%TA.AperFunction,SMDPad,CuDef*%
G36*
G01*
X111343000Y-111435000D02*
X109253000Y-111435000D01*
G75*
G02*
X109098000Y-111280000I0J155000D01*
G01*
X109098000Y-110970000D01*
G75*
G02*
X109253000Y-110815000I155000J0D01*
G01*
X111343000Y-110815000D01*
G75*
G02*
X111498000Y-110970000I0J-155000D01*
G01*
X111498000Y-111280000D01*
G75*
G02*
X111343000Y-111435000I-155000J0D01*
G01*
G37*
%TD.AperFunction*%
%TO.P,U1,14*%
%TO.N,/AD1*%
%TA.AperFunction,SMDPad,CuDef*%
G36*
G01*
X111343000Y-112705000D02*
X109253000Y-112705000D01*
G75*
G02*
X109098000Y-112550000I0J155000D01*
G01*
X109098000Y-112240000D01*
G75*
G02*
X109253000Y-112085000I155000J0D01*
G01*
X111343000Y-112085000D01*
G75*
G02*
X111498000Y-112240000I0J-155000D01*
G01*
X111498000Y-112550000D01*
G75*
G02*
X111343000Y-112705000I-155000J0D01*
G01*
G37*
%TD.AperFunction*%
%TO.P,U1,13*%
%TO.N,/AD0*%
%TA.AperFunction,SMDPad,CuDef*%
G36*
G01*
X108740000Y-115288000D02*
X108430000Y-115288000D01*
G75*
G02*
X108275000Y-115133000I0J155000D01*
G01*
X108275000Y-113043000D01*
G75*
G02*
X108430000Y-112888000I155000J0D01*
G01*
X108740000Y-112888000D01*
G75*
G02*
X108895000Y-113043000I0J-155000D01*
G01*
X108895000Y-115133000D01*
G75*
G02*
X108740000Y-115288000I-155000J0D01*
G01*
G37*
%TD.AperFunction*%
%TO.P,U1,12*%
%TO.N,/AA0*%
%TA.AperFunction,SMDPad,CuDef*%
G36*
G01*
X107470000Y-115288000D02*
X107160000Y-115288000D01*
G75*
G02*
X107005000Y-115133000I0J155000D01*
G01*
X107005000Y-113043000D01*
G75*
G02*
X107160000Y-112888000I155000J0D01*
G01*
X107470000Y-112888000D01*
G75*
G02*
X107625000Y-113043000I0J-155000D01*
G01*
X107625000Y-115133000D01*
G75*
G02*
X107470000Y-115288000I-155000J0D01*
G01*
G37*
%TD.AperFunction*%
%TO.P,U1,11*%
%TO.N,/AA1*%
%TA.AperFunction,SMDPad,CuDef*%
G36*
G01*
X106200000Y-115288000D02*
X105890000Y-115288000D01*
G75*
G02*
X105735000Y-115133000I0J155000D01*
G01*
X105735000Y-113043000D01*
G75*
G02*
X105890000Y-112888000I155000J0D01*
G01*
X106200000Y-112888000D01*
G75*
G02*
X106355000Y-113043000I0J-155000D01*
G01*
X106355000Y-115133000D01*
G75*
G02*
X106200000Y-115288000I-155000J0D01*
G01*
G37*
%TD.AperFunction*%
%TO.P,U1,10*%
%TO.N,/AA2*%
%TA.AperFunction,SMDPad,CuDef*%
G36*
G01*
X104930000Y-115288000D02*
X104620000Y-115288000D01*
G75*
G02*
X104465000Y-115133000I0J155000D01*
G01*
X104465000Y-113043000D01*
G75*
G02*
X104620000Y-112888000I155000J0D01*
G01*
X104930000Y-112888000D01*
G75*
G02*
X105085000Y-113043000I0J-155000D01*
G01*
X105085000Y-115133000D01*
G75*
G02*
X104930000Y-115288000I-155000J0D01*
G01*
G37*
%TD.AperFunction*%
%TO.P,U1,9*%
%TO.N,/AA3*%
%TA.AperFunction,SMDPad,CuDef*%
G36*
G01*
X103660000Y-115288000D02*
X103350000Y-115288000D01*
G75*
G02*
X103195000Y-115133000I0J155000D01*
G01*
X103195000Y-113043000D01*
G75*
G02*
X103350000Y-112888000I155000J0D01*
G01*
X103660000Y-112888000D01*
G75*
G02*
X103815000Y-113043000I0J-155000D01*
G01*
X103815000Y-115133000D01*
G75*
G02*
X103660000Y-115288000I-155000J0D01*
G01*
G37*
%TD.AperFunction*%
%TO.P,U1,8*%
%TO.N,/AA4*%
%TA.AperFunction,SMDPad,CuDef*%
G36*
G01*
X102390000Y-115288000D02*
X102080000Y-115288000D01*
G75*
G02*
X101925000Y-115133000I0J155000D01*
G01*
X101925000Y-113043000D01*
G75*
G02*
X102080000Y-112888000I155000J0D01*
G01*
X102390000Y-112888000D01*
G75*
G02*
X102545000Y-113043000I0J-155000D01*
G01*
X102545000Y-115133000D01*
G75*
G02*
X102390000Y-115288000I-155000J0D01*
G01*
G37*
%TD.AperFunction*%
%TO.P,U1,7*%
%TO.N,/AA5*%
%TA.AperFunction,SMDPad,CuDef*%
G36*
G01*
X101120000Y-115288000D02*
X100810000Y-115288000D01*
G75*
G02*
X100655000Y-115133000I0J155000D01*
G01*
X100655000Y-113043000D01*
G75*
G02*
X100810000Y-112888000I155000J0D01*
G01*
X101120000Y-112888000D01*
G75*
G02*
X101275000Y-113043000I0J-155000D01*
G01*
X101275000Y-115133000D01*
G75*
G02*
X101120000Y-115288000I-155000J0D01*
G01*
G37*
%TD.AperFunction*%
%TO.P,U1,6*%
%TO.N,/AA6*%
%TA.AperFunction,SMDPad,CuDef*%
G36*
G01*
X99850000Y-115288000D02*
X99540000Y-115288000D01*
G75*
G02*
X99385000Y-115133000I0J155000D01*
G01*
X99385000Y-113043000D01*
G75*
G02*
X99540000Y-112888000I155000J0D01*
G01*
X99850000Y-112888000D01*
G75*
G02*
X100005000Y-113043000I0J-155000D01*
G01*
X100005000Y-115133000D01*
G75*
G02*
X99850000Y-115288000I-155000J0D01*
G01*
G37*
%TD.AperFunction*%
%TO.P,U1,5*%
%TO.N,/AA7*%
%TA.AperFunction,SMDPad,CuDef*%
G36*
G01*
X98580000Y-115288000D02*
X98270000Y-115288000D01*
G75*
G02*
X98115000Y-115133000I0J155000D01*
G01*
X98115000Y-113043000D01*
G75*
G02*
X98270000Y-112888000I155000J0D01*
G01*
X98580000Y-112888000D01*
G75*
G02*
X98735000Y-113043000I0J-155000D01*
G01*
X98735000Y-115133000D01*
G75*
G02*
X98580000Y-115288000I-155000J0D01*
G01*
G37*
%TD.AperFunction*%
%TO.P,U1,4*%
%TO.N,/AA12*%
%TA.AperFunction,SMDPad,CuDef*%
G36*
G01*
X97757000Y-112705000D02*
X95667000Y-112705000D01*
G75*
G02*
X95512000Y-112550000I0J155000D01*
G01*
X95512000Y-112240000D01*
G75*
G02*
X95667000Y-112085000I155000J0D01*
G01*
X97757000Y-112085000D01*
G75*
G02*
X97912000Y-112240000I0J-155000D01*
G01*
X97912000Y-112550000D01*
G75*
G02*
X97757000Y-112705000I-155000J0D01*
G01*
G37*
%TD.AperFunction*%
%TO.P,U1,3*%
%TO.N,GND*%
%TA.AperFunction,SMDPad,CuDef*%
G36*
G01*
X97757000Y-111435000D02*
X95667000Y-111435000D01*
G75*
G02*
X95512000Y-111280000I0J155000D01*
G01*
X95512000Y-110970000D01*
G75*
G02*
X95667000Y-110815000I155000J0D01*
G01*
X97757000Y-110815000D01*
G75*
G02*
X97912000Y-110970000I0J-155000D01*
G01*
X97912000Y-111280000D01*
G75*
G02*
X97757000Y-111435000I-155000J0D01*
G01*
G37*
%TD.AperFunction*%
%TO.P,U1,2*%
%TA.AperFunction,SMDPad,CuDef*%
G36*
G01*
X97757000Y-110165000D02*
X95667000Y-110165000D01*
G75*
G02*
X95512000Y-110010000I0J155000D01*
G01*
X95512000Y-109700000D01*
G75*
G02*
X95667000Y-109545000I155000J0D01*
G01*
X97757000Y-109545000D01*
G75*
G02*
X97912000Y-109700000I0J-155000D01*
G01*
X97912000Y-110010000D01*
G75*
G02*
X97757000Y-110165000I-155000J0D01*
G01*
G37*
%TD.AperFunction*%
%TO.P,U1,1*%
%TA.AperFunction,SMDPad,CuDef*%
G36*
G01*
X97757000Y-108895000D02*
X95667000Y-108895000D01*
G75*
G02*
X95512000Y-108740000I0J155000D01*
G01*
X95512000Y-108430000D01*
G75*
G02*
X95667000Y-108275000I155000J0D01*
G01*
X97757000Y-108275000D01*
G75*
G02*
X97912000Y-108430000I0J-155000D01*
G01*
X97912000Y-108740000D01*
G75*
G02*
X97757000Y-108895000I-155000J0D01*
G01*
G37*
%TD.AperFunction*%
%TD*%
D13*
%TO.P,U3,39*%
%TO.N,/~F_CE_040*%
X71120000Y-97260000D03*
%TO.P,U3,38*%
%TO.N,/TDO*%
X72390000Y-97260000D03*
%TO.P,U3,37*%
%TO.N,/F040_A18*%
X73660000Y-97260000D03*
%TO.P,U3,36*%
%TO.N,/F040_A17*%
X74930000Y-97260000D03*
%TO.P,U3,35*%
%TO.N,+5V*%
X76200000Y-97260000D03*
%TO.P,U3,34*%
%TO.N,/F040_A16*%
X77470000Y-97260000D03*
%TO.P,U3,33*%
%TO.N,/F040_A15*%
X78740000Y-97260000D03*
%TO.P,U3,32*%
%TO.N,/TCK*%
X80010000Y-97260000D03*
%TO.P,U3,31*%
%TO.N,/F040_A14*%
X81280000Y-97260000D03*
%TO.P,U3,30*%
%TO.N,GND*%
X82550000Y-97260000D03*
%TO.P,U3,29*%
%TO.N,/AD7*%
X83820000Y-97260000D03*
D14*
%TO.P,U3,28*%
%TO.N,/AD6*%
X85620000Y-99060000D03*
%TO.P,U3,27*%
%TO.N,/AD5*%
X85620000Y-100330000D03*
%TO.P,U3,26*%
%TO.N,/AD4*%
X85620000Y-101600000D03*
%TO.P,U3,25*%
%TO.N,/AD3*%
X85620000Y-102870000D03*
%TO.P,U3,24*%
%TO.N,/AD2*%
X85620000Y-104140000D03*
%TO.P,U3,23*%
%TO.N,+5V*%
X85620000Y-105410000D03*
%TO.P,U3,22*%
%TO.N,GND*%
X85620000Y-106680000D03*
%TO.P,U3,21*%
%TO.N,/AD1*%
X85620000Y-107950000D03*
%TO.P,U3,20*%
%TO.N,/AD0*%
X85620000Y-109220000D03*
%TO.P,U3,19*%
%TO.N,/AA15*%
X85620000Y-110490000D03*
%TO.P,U3,18*%
%TO.N,/AA14*%
X85620000Y-111760000D03*
D13*
%TO.P,U3,17*%
%TO.N,/AA13*%
X83820000Y-113560000D03*
%TO.P,U3,16*%
%TO.N,/AA12*%
X82550000Y-113560000D03*
%TO.P,U3,15*%
%TO.N,+5V*%
X81280000Y-113560000D03*
%TO.P,U3,14*%
%TO.N,/AA11*%
X80010000Y-113560000D03*
%TO.P,U3,13*%
%TO.N,/TMS*%
X78740000Y-113560000D03*
%TO.P,U3,12*%
%TO.N,/AA10*%
X77470000Y-113560000D03*
%TO.P,U3,11*%
%TO.N,/AA9*%
X76200000Y-113560000D03*
%TO.P,U3,10*%
%TO.N,GND*%
X74930000Y-113560000D03*
%TO.P,U3,9*%
%TO.N,/AA8*%
X73660000Y-113560000D03*
%TO.P,U3,8*%
%TO.N,/AA7*%
X72390000Y-113560000D03*
%TO.P,U3,7*%
%TO.N,/TDI*%
X71120000Y-113560000D03*
D14*
%TO.P,U3,40*%
%TO.N,/~F_CE_010*%
X69320000Y-99060000D03*
%TO.P,U3,41*%
%TO.N,/F010_A14*%
X69320000Y-100330000D03*
%TO.P,U3,42*%
%TO.N,GND*%
X69320000Y-101600000D03*
%TO.P,U3,43*%
%TO.N,/~SW_1*%
X69320000Y-102870000D03*
%TO.P,U3,44*%
%TO.N,/~SW_2*%
X69320000Y-104140000D03*
%TO.P,U3,6*%
%TO.N,/~ARD_T*%
X69320000Y-111760000D03*
%TO.P,U3,5*%
%TO.N,/~AWR_T*%
X69320000Y-110490000D03*
%TO.P,U3,4*%
%TO.N,/AA15_T*%
X69320000Y-109220000D03*
%TO.P,U3,3*%
%TO.N,+5V*%
X69320000Y-107950000D03*
%TO.P,U3,2*%
%TO.N,/~ARD*%
X69320000Y-106680000D03*
%TO.P,U3,1*%
%TO.N,/~AWR*%
X69320000Y-105410000D03*
%TD*%
D15*
%TO.P,SW1,4*%
%TO.N,N/C*%
X64135000Y-72050000D03*
%TO.P,SW1,5*%
X64135000Y-80350000D03*
D16*
%TO.P,SW1,3*%
X64135000Y-74200000D03*
%TO.P,SW1,2*%
%TO.N,/~SW_1*%
X64135000Y-76200000D03*
D17*
%TO.P,SW1,1*%
%TO.N,GND*%
X64135000Y-78200000D03*
%TD*%
%TO.P,R13,2*%
%TO.N,/TCK*%
%TA.AperFunction,SMDPad,CuDef*%
G36*
G01*
X75330000Y-137610001D02*
X75330000Y-136709999D01*
G75*
G02*
X75579999Y-136460000I249999J0D01*
G01*
X76105001Y-136460000D01*
G75*
G02*
X76355000Y-136709999I0J-249999D01*
G01*
X76355000Y-137610001D01*
G75*
G02*
X76105001Y-137860000I-249999J0D01*
G01*
X75579999Y-137860000D01*
G75*
G02*
X75330000Y-137610001I0J249999D01*
G01*
G37*
%TD.AperFunction*%
%TO.P,R13,1*%
%TO.N,GND*%
%TA.AperFunction,SMDPad,CuDef*%
G36*
G01*
X73505000Y-137610001D02*
X73505000Y-136709999D01*
G75*
G02*
X73754999Y-136460000I249999J0D01*
G01*
X74280001Y-136460000D01*
G75*
G02*
X74530000Y-136709999I0J-249999D01*
G01*
X74530000Y-137610001D01*
G75*
G02*
X74280001Y-137860000I-249999J0D01*
G01*
X73754999Y-137860000D01*
G75*
G02*
X73505000Y-137610001I0J249999D01*
G01*
G37*
%TD.AperFunction*%
%TD*%
%TO.P,R12,2*%
%TO.N,+5V*%
%TA.AperFunction,SMDPad,CuDef*%
G36*
G01*
X75330000Y-127450001D02*
X75330000Y-126549999D01*
G75*
G02*
X75579999Y-126300000I249999J0D01*
G01*
X76105001Y-126300000D01*
G75*
G02*
X76355000Y-126549999I0J-249999D01*
G01*
X76355000Y-127450001D01*
G75*
G02*
X76105001Y-127700000I-249999J0D01*
G01*
X75579999Y-127700000D01*
G75*
G02*
X75330000Y-127450001I0J249999D01*
G01*
G37*
%TD.AperFunction*%
%TO.P,R12,1*%
%TO.N,/TDI*%
%TA.AperFunction,SMDPad,CuDef*%
G36*
G01*
X73505000Y-127450001D02*
X73505000Y-126549999D01*
G75*
G02*
X73754999Y-126300000I249999J0D01*
G01*
X74280001Y-126300000D01*
G75*
G02*
X74530000Y-126549999I0J-249999D01*
G01*
X74530000Y-127450001D01*
G75*
G02*
X74280001Y-127700000I-249999J0D01*
G01*
X73754999Y-127700000D01*
G75*
G02*
X73505000Y-127450001I0J249999D01*
G01*
G37*
%TD.AperFunction*%
%TD*%
%TO.P,R11,2*%
%TO.N,+5V*%
%TA.AperFunction,SMDPad,CuDef*%
G36*
G01*
X75330000Y-132530001D02*
X75330000Y-131629999D01*
G75*
G02*
X75579999Y-131380000I249999J0D01*
G01*
X76105001Y-131380000D01*
G75*
G02*
X76355000Y-131629999I0J-249999D01*
G01*
X76355000Y-132530001D01*
G75*
G02*
X76105001Y-132780000I-249999J0D01*
G01*
X75579999Y-132780000D01*
G75*
G02*
X75330000Y-132530001I0J249999D01*
G01*
G37*
%TD.AperFunction*%
%TO.P,R11,1*%
%TO.N,/TMS*%
%TA.AperFunction,SMDPad,CuDef*%
G36*
G01*
X73505000Y-132530001D02*
X73505000Y-131629999D01*
G75*
G02*
X73754999Y-131380000I249999J0D01*
G01*
X74280001Y-131380000D01*
G75*
G02*
X74530000Y-131629999I0J-249999D01*
G01*
X74530000Y-132530001D01*
G75*
G02*
X74280001Y-132780000I-249999J0D01*
G01*
X73754999Y-132780000D01*
G75*
G02*
X73505000Y-132530001I0J249999D01*
G01*
G37*
%TD.AperFunction*%
%TD*%
%TO.P,R2,2*%
%TO.N,/~SW_2*%
%TA.AperFunction,SMDPad,CuDef*%
G36*
G01*
X70034999Y-85490000D02*
X70935001Y-85490000D01*
G75*
G02*
X71185000Y-85739999I0J-249999D01*
G01*
X71185000Y-86265001D01*
G75*
G02*
X70935001Y-86515000I-249999J0D01*
G01*
X70034999Y-86515000D01*
G75*
G02*
X69785000Y-86265001I0J249999D01*
G01*
X69785000Y-85739999D01*
G75*
G02*
X70034999Y-85490000I249999J0D01*
G01*
G37*
%TD.AperFunction*%
%TO.P,R2,1*%
%TO.N,+5V*%
%TA.AperFunction,SMDPad,CuDef*%
G36*
G01*
X70034999Y-83665000D02*
X70935001Y-83665000D01*
G75*
G02*
X71185000Y-83914999I0J-249999D01*
G01*
X71185000Y-84440001D01*
G75*
G02*
X70935001Y-84690000I-249999J0D01*
G01*
X70034999Y-84690000D01*
G75*
G02*
X69785000Y-84440001I0J249999D01*
G01*
X69785000Y-83914999D01*
G75*
G02*
X70034999Y-83665000I249999J0D01*
G01*
G37*
%TD.AperFunction*%
%TD*%
%TO.P,R1,2*%
%TO.N,/~SW_1*%
%TA.AperFunction,SMDPad,CuDef*%
G36*
G01*
X70034999Y-76600000D02*
X70935001Y-76600000D01*
G75*
G02*
X71185000Y-76849999I0J-249999D01*
G01*
X71185000Y-77375001D01*
G75*
G02*
X70935001Y-77625000I-249999J0D01*
G01*
X70034999Y-77625000D01*
G75*
G02*
X69785000Y-77375001I0J249999D01*
G01*
X69785000Y-76849999D01*
G75*
G02*
X70034999Y-76600000I249999J0D01*
G01*
G37*
%TD.AperFunction*%
%TO.P,R1,1*%
%TO.N,+5V*%
%TA.AperFunction,SMDPad,CuDef*%
G36*
G01*
X70034999Y-74775000D02*
X70935001Y-74775000D01*
G75*
G02*
X71185000Y-75024999I0J-249999D01*
G01*
X71185000Y-75550001D01*
G75*
G02*
X70935001Y-75800000I-249999J0D01*
G01*
X70034999Y-75800000D01*
G75*
G02*
X69785000Y-75550001I0J249999D01*
G01*
X69785000Y-75024999D01*
G75*
G02*
X70034999Y-74775000I249999J0D01*
G01*
G37*
%TD.AperFunction*%
%TD*%
D18*
%TO.P,J3,1*%
%TO.N,/TCK*%
X69850000Y-137160000D03*
D19*
%TO.P,J3,2*%
%TO.N,GND*%
X67310000Y-137160000D03*
%TO.P,J3,3*%
%TO.N,/TDO*%
X69850000Y-134620000D03*
%TO.P,J3,4*%
%TO.N,+5V*%
X67310000Y-134620000D03*
%TO.P,J3,5*%
%TO.N,/TMS*%
X69850000Y-132080000D03*
%TO.P,J3,6*%
%TO.N,N/C*%
X67310000Y-132080000D03*
%TO.P,J3,7*%
X69850000Y-129540000D03*
%TO.P,J3,8*%
X67310000Y-129540000D03*
%TO.P,J3,9*%
%TO.N,/TDI*%
X69850000Y-127000000D03*
%TO.P,J3,10*%
%TO.N,GND*%
X67310000Y-127000000D03*
%TD*%
D20*
%TO.P,J2,SHIELD_4*%
%TO.N,N/C*%
X102600000Y-42590000D03*
%TO.P,J2,SHIELD_3*%
X76600000Y-42590000D03*
D21*
%TO.P,J2,32*%
%TO.N,GND*%
X112850000Y-63840000D03*
%TO.P,J2,31*%
%TO.N,/AAudioIn*%
X111350000Y-63840000D03*
%TO.P,J2,30*%
%TO.N,/~ARST*%
X109850000Y-63840000D03*
%TO.P,J2,29*%
%TO.N,/AD7*%
X108350000Y-63840000D03*
%TO.P,J2,28*%
%TO.N,/AD6*%
X106850000Y-63840000D03*
%TO.P,J2,27*%
%TO.N,/AD5*%
X105350000Y-63840000D03*
%TO.P,J2,26*%
%TO.N,/AD4*%
X103850000Y-63840000D03*
%TO.P,J2,25*%
%TO.N,/AD3*%
X102350000Y-63840000D03*
%TO.P,J2,24*%
%TO.N,/AD2*%
X100850000Y-63840000D03*
%TO.P,J2,23*%
%TO.N,/AD1*%
X99350000Y-63840000D03*
%TO.P,J2,22*%
%TO.N,/AD0*%
X97850000Y-63840000D03*
%TO.P,J2,21*%
%TO.N,/AA15_T*%
X96350000Y-63840000D03*
%TO.P,J2,20*%
%TO.N,/AA14*%
X94850000Y-63840000D03*
%TO.P,J2,19*%
%TO.N,/AA13*%
X93350000Y-63840000D03*
%TO.P,J2,18*%
%TO.N,/AA12*%
X91850000Y-63840000D03*
%TO.P,J2,17*%
%TO.N,/AA11*%
X90350000Y-63840000D03*
%TO.P,J2,16*%
%TO.N,/AA10*%
X88850000Y-63840000D03*
%TO.P,J2,15*%
%TO.N,/AA9*%
X87350000Y-63840000D03*
%TO.P,J2,14*%
%TO.N,/AA8*%
X85850000Y-63840000D03*
%TO.P,J2,13*%
%TO.N,/AA7*%
X84350000Y-63840000D03*
%TO.P,J2,12*%
%TO.N,/AA6*%
X82850000Y-63840000D03*
%TO.P,J2,11*%
%TO.N,/AA5*%
X81350000Y-63840000D03*
%TO.P,J2,10*%
%TO.N,/AA4*%
X79850000Y-63840000D03*
%TO.P,J2,9*%
%TO.N,/AA3*%
X78350000Y-63840000D03*
%TO.P,J2,8*%
%TO.N,/AA2*%
X76850000Y-63840000D03*
%TO.P,J2,7*%
%TO.N,/AA1*%
X75350000Y-63840000D03*
%TO.P,J2,6*%
%TO.N,/AA0*%
X73850000Y-63840000D03*
%TO.P,J2,5*%
%TO.N,/~ASRAM_CS*%
X72350000Y-63840000D03*
%TO.P,J2,4*%
%TO.N,/~ARD_T*%
X70850000Y-63840000D03*
%TO.P,J2,3*%
%TO.N,/~AWR_T*%
X69350000Y-63840000D03*
%TO.P,J2,2*%
%TO.N,/ACLK*%
X67850000Y-63840000D03*
%TO.P,J2,1*%
%TO.N,+5V*%
X66350000Y-63840000D03*
%TD*%
%TO.P,C3,2*%
%TO.N,+5V*%
%TA.AperFunction,SMDPad,CuDef*%
G36*
G01*
X77920000Y-121125000D02*
X77920000Y-120175000D01*
G75*
G02*
X78170000Y-119925000I250000J0D01*
G01*
X78670000Y-119925000D01*
G75*
G02*
X78920000Y-120175000I0J-250000D01*
G01*
X78920000Y-121125000D01*
G75*
G02*
X78670000Y-121375000I-250000J0D01*
G01*
X78170000Y-121375000D01*
G75*
G02*
X77920000Y-121125000I0J250000D01*
G01*
G37*
%TD.AperFunction*%
%TO.P,C3,1*%
%TO.N,GND*%
%TA.AperFunction,SMDPad,CuDef*%
G36*
G01*
X76020000Y-121125000D02*
X76020000Y-120175000D01*
G75*
G02*
X76270000Y-119925000I250000J0D01*
G01*
X76770000Y-119925000D01*
G75*
G02*
X77020000Y-120175000I0J-250000D01*
G01*
X77020000Y-121125000D01*
G75*
G02*
X76770000Y-121375000I-250000J0D01*
G01*
X76270000Y-121375000D01*
G75*
G02*
X76020000Y-121125000I0J250000D01*
G01*
G37*
%TD.AperFunction*%
%TD*%
%TO.P,C2,2*%
%TO.N,+5V*%
%TA.AperFunction,SMDPad,CuDef*%
G36*
G01*
X94165000Y-92235000D02*
X94165000Y-93185000D01*
G75*
G02*
X93915000Y-93435000I-250000J0D01*
G01*
X93415000Y-93435000D01*
G75*
G02*
X93165000Y-93185000I0J250000D01*
G01*
X93165000Y-92235000D01*
G75*
G02*
X93415000Y-91985000I250000J0D01*
G01*
X93915000Y-91985000D01*
G75*
G02*
X94165000Y-92235000I0J-250000D01*
G01*
G37*
%TD.AperFunction*%
%TO.P,C2,1*%
%TO.N,GND*%
%TA.AperFunction,SMDPad,CuDef*%
G36*
G01*
X96065000Y-92235000D02*
X96065000Y-93185000D01*
G75*
G02*
X95815000Y-93435000I-250000J0D01*
G01*
X95315000Y-93435000D01*
G75*
G02*
X95065000Y-93185000I0J250000D01*
G01*
X95065000Y-92235000D01*
G75*
G02*
X95315000Y-91985000I250000J0D01*
G01*
X95815000Y-91985000D01*
G75*
G02*
X96065000Y-92235000I0J-250000D01*
G01*
G37*
%TD.AperFunction*%
%TD*%
%TO.P,C1,2*%
%TO.N,+5V*%
%TA.AperFunction,SMDPad,CuDef*%
G36*
G01*
X94165000Y-120175000D02*
X94165000Y-121125000D01*
G75*
G02*
X93915000Y-121375000I-250000J0D01*
G01*
X93415000Y-121375000D01*
G75*
G02*
X93165000Y-121125000I0J250000D01*
G01*
X93165000Y-120175000D01*
G75*
G02*
X93415000Y-119925000I250000J0D01*
G01*
X93915000Y-119925000D01*
G75*
G02*
X94165000Y-120175000I0J-250000D01*
G01*
G37*
%TD.AperFunction*%
%TO.P,C1,1*%
%TO.N,GND*%
%TA.AperFunction,SMDPad,CuDef*%
G36*
G01*
X96065000Y-120175000D02*
X96065000Y-121125000D01*
G75*
G02*
X95815000Y-121375000I-250000J0D01*
G01*
X95315000Y-121375000D01*
G75*
G02*
X95065000Y-121125000I0J250000D01*
G01*
X95065000Y-120175000D01*
G75*
G02*
X95315000Y-119925000I250000J0D01*
G01*
X95815000Y-119925000D01*
G75*
G02*
X96065000Y-120175000I0J-250000D01*
G01*
G37*
%TD.AperFunction*%
%TD*%
D22*
%TO.N,+5V*%
X74447900Y-104553200D03*
X67608200Y-124639100D03*
X83262200Y-99828400D03*
X80459500Y-115791200D03*
X77907800Y-119136500D03*
X98744300Y-81582700D03*
X65970400Y-145653000D03*
X65959900Y-142348500D03*
X76200000Y-99084600D03*
X92268200Y-92710000D03*
X66350000Y-68980000D03*
X70485000Y-73115000D03*
%TO.N,GND*%
X113000000Y-146292700D03*
X74902400Y-138611900D03*
%TO.N,/AAudioIn*%
X115474700Y-101327700D03*
X111350000Y-71125800D03*
%TO.N,/AD7*%
X104095600Y-92656800D03*
X86477600Y-92982500D03*
X103836300Y-80814500D03*
%TO.N,/AD6*%
X110298000Y-73336400D03*
X107692500Y-70981600D03*
X87377600Y-98777500D03*
X104654100Y-104907700D03*
X103483300Y-82703800D03*
%TO.N,/AD5*%
X107964900Y-105427400D03*
X106163600Y-68654200D03*
X107127500Y-81538100D03*
%TO.N,/AD4*%
X108198100Y-80501400D03*
X105196400Y-69509300D03*
X100799800Y-122429100D03*
X108349500Y-106964000D03*
%TO.N,/AD3*%
X105970200Y-71114500D03*
X100022200Y-123911900D03*
X108469700Y-108408100D03*
X108646500Y-83834100D03*
%TO.N,/AD2*%
X112164900Y-112807200D03*
X108028400Y-73117700D03*
X112181100Y-82251200D03*
X99952853Y-126752853D03*
%TO.N,/AD1*%
X107028200Y-73314600D03*
X99104800Y-127337700D03*
X110532500Y-113321000D03*
X110264000Y-85368000D03*
%TO.N,/AD0*%
X100666800Y-68564900D03*
X97088600Y-127695100D03*
X109517300Y-113348700D03*
X109533500Y-86413000D03*
%TO.N,/AA14*%
X77516600Y-108927900D03*
X94897100Y-72033900D03*
%TO.N,/AA13*%
X88726800Y-123057500D03*
X101024600Y-84316500D03*
X99722600Y-105548800D03*
%TO.N,/AA12*%
X82845800Y-116422800D03*
X97485200Y-85672500D03*
X95371100Y-113317500D03*
%TO.N,/AA11*%
X90981200Y-127817000D03*
X92011200Y-68580800D03*
X106270400Y-98026300D03*
X103213800Y-72142100D03*
%TO.N,/AA10*%
X105892400Y-100174300D03*
X90094300Y-128359600D03*
X91335100Y-70079100D03*
X104879900Y-76959400D03*
%TO.N,/AA9*%
X104066700Y-98296400D03*
X100962800Y-73285500D03*
X75775000Y-110625300D03*
X88970700Y-70079000D03*
%TO.N,/AA8*%
X105579900Y-97302300D03*
X73660000Y-111190000D03*
X87239900Y-68564900D03*
X100576400Y-70944800D03*
%TO.N,/AA7*%
X83852000Y-128176500D03*
X98842600Y-84315200D03*
X96371300Y-113359500D03*
%TO.N,/AA6*%
X99933600Y-84334900D03*
X83878900Y-129176700D03*
X98988800Y-110950300D03*
%TO.N,/AA5*%
X99547900Y-88768100D03*
X82832200Y-131127500D03*
X100354000Y-112424000D03*
%TO.N,/AA4*%
X101071100Y-88181300D03*
X79850000Y-134746400D03*
X101511900Y-111540300D03*
%TO.N,/AA3*%
X101373300Y-89389300D03*
X78633500Y-136599500D03*
X102252400Y-112214300D03*
%TO.N,/AA2*%
X77335000Y-138886900D03*
X101557100Y-90418500D03*
X103154400Y-111701800D03*
%TO.N,/AA1*%
X103577900Y-89233700D03*
X75948800Y-142112400D03*
X104657800Y-111293100D03*
%TO.N,/AA0*%
X107399000Y-88897300D03*
X75151600Y-143257400D03*
X107131400Y-111467400D03*
%TO.N,/~ASRAM_CS*%
X71878000Y-140756500D03*
X65776700Y-125056000D03*
%TO.N,/~ARD*%
X75955700Y-140348000D03*
X104174000Y-101246800D03*
X102377600Y-84188300D03*
%TO.N,/~AWR*%
X75349400Y-103199800D03*
X94789800Y-104169300D03*
X100299500Y-83076600D03*
%TO.N,/AA15_T*%
X73398200Y-106600500D03*
X95477800Y-71200200D03*
%TO.N,/~ARD_T*%
X69320000Y-112747500D03*
X70170000Y-70784900D03*
%TO.N,/~AWR_T*%
X71105800Y-109970800D03*
X69767500Y-69351300D03*
%TO.N,/TCK*%
X80010000Y-103652400D03*
X75842500Y-135800300D03*
%TO.N,/TDO*%
X78084100Y-103803500D03*
%TO.N,/TMS*%
X78823200Y-117076700D03*
X73872300Y-130576600D03*
%TO.N,/TDI*%
X74017500Y-124983400D03*
X70955200Y-124983400D03*
%TO.N,/~SW_1*%
X68693800Y-76855000D03*
%TO.N,/~SW_2*%
X69177600Y-85783100D03*
%TO.N,/F010_A14*%
X96260800Y-101642700D03*
X75632600Y-101221700D03*
%TO.N,/~F_CE_010*%
X96260800Y-100018400D03*
X76437100Y-100607200D03*
%TO.N,/F040_A17*%
X94908600Y-77784200D03*
X75589700Y-92846600D03*
%TO.N,/F040_A14*%
X97506200Y-75142000D03*
X81863300Y-88318700D03*
%TO.N,/~F_CE_040*%
X104101600Y-79008500D03*
X74864500Y-94267700D03*
%TO.N,/F040_A15*%
X94906100Y-83031100D03*
X78967000Y-95509700D03*
%TO.N,/F040_A16*%
X94881600Y-81922500D03*
X77745100Y-95509800D03*
%TO.N,/F040_A18*%
X94890000Y-80227800D03*
X74354400Y-95172200D03*
%TD*%
D23*
%TO.N,+5V*%
X70485000Y-75287500D02*
X71747900Y-76550400D01*
X71747900Y-76550400D02*
X71747900Y-83610200D01*
X71747900Y-83610200D02*
X71180600Y-84177500D01*
X71180600Y-84177500D02*
X70485000Y-84177500D01*
X76200000Y-95609900D02*
X76489900Y-95320000D01*
X76489900Y-95320000D02*
X76489900Y-89486800D01*
X76489900Y-89486800D02*
X71180600Y-84177500D01*
X76200000Y-97260000D02*
X76200000Y-95609900D01*
X76200000Y-98085000D02*
X76200000Y-97260000D01*
X74447900Y-104553200D02*
X74159500Y-104553200D01*
X74159500Y-104553200D02*
X70970100Y-107742600D01*
X70970100Y-107742600D02*
X70970100Y-107950000D01*
X69320000Y-107950000D02*
X70970100Y-107950000D01*
X65959900Y-134620000D02*
X65959900Y-142348500D01*
X66200000Y-147999900D02*
X65970400Y-147770300D01*
X65970400Y-147770300D02*
X65970400Y-145653000D01*
X66350000Y-63840000D02*
X66350000Y-66840100D01*
X67608200Y-124639100D02*
X65959900Y-126287400D01*
X65959900Y-126287400D02*
X65959900Y-134620000D01*
X76200000Y-98085000D02*
X76200000Y-98910100D01*
X85620000Y-105410000D02*
X83969900Y-105410000D01*
X83262200Y-99828400D02*
X83262200Y-104702300D01*
X83262200Y-104702300D02*
X83969900Y-105410000D01*
X93665000Y-92710000D02*
X93665000Y-105137300D01*
X93665000Y-105137300D02*
X95842700Y-107315000D01*
X95842700Y-107315000D02*
X96712000Y-107315000D01*
X93665000Y-120650000D02*
X93665000Y-109492700D01*
X93665000Y-109492700D02*
X95842700Y-107315000D01*
X92268200Y-92710000D02*
X93665000Y-92710000D01*
X76200000Y-98910100D02*
X76200000Y-99084600D01*
X81280000Y-113560000D02*
X81280000Y-115210100D01*
X80459500Y-115791200D02*
X81040600Y-115210100D01*
X81040600Y-115210100D02*
X81280000Y-115210100D01*
X78420000Y-120650000D02*
X78420000Y-124422500D01*
X78420000Y-124422500D02*
X75842500Y-127000000D01*
X77907800Y-119136500D02*
X78420000Y-119648700D01*
X78420000Y-119648700D02*
X78420000Y-120650000D01*
X98744300Y-81582700D02*
X98744300Y-80434900D01*
X98744300Y-80434900D02*
X97684400Y-79375000D01*
X97684400Y-79375000D02*
X96712000Y-79375000D01*
X66200000Y-151500000D02*
X66200000Y-147999900D01*
X67310000Y-134620000D02*
X65959900Y-134620000D01*
X75842500Y-127000000D02*
X75842500Y-132080000D01*
X66350000Y-66840100D02*
X66350000Y-68980000D01*
X70485000Y-75287500D02*
X70485000Y-73115000D01*
%TO.N,GND*%
X98438800Y-107756600D02*
X98438800Y-105599500D01*
X98438800Y-105599500D02*
X97614300Y-104775000D01*
X97614300Y-104775000D02*
X96712000Y-104775000D01*
X96712000Y-108585000D02*
X97610400Y-108585000D01*
X97610400Y-108585000D02*
X98438800Y-107756600D01*
X98438800Y-107756600D02*
X100537200Y-109855000D01*
X100537200Y-109855000D02*
X110298000Y-109855000D01*
X96712000Y-108585000D02*
X96712000Y-109855000D01*
X95565000Y-92710000D02*
X96004900Y-92710000D01*
X96004900Y-92710000D02*
X96045900Y-92669000D01*
X96045900Y-92669000D02*
X102434900Y-92669000D01*
X102434900Y-92669000D02*
X102636300Y-92467600D01*
X102636300Y-92467600D02*
X102648100Y-92467600D01*
X102648100Y-92467600D02*
X104049400Y-91066300D01*
X104049400Y-91066300D02*
X104187500Y-91066300D01*
X104187500Y-91066300D02*
X104201000Y-91052800D01*
X104201000Y-91052800D02*
X104495600Y-91052800D01*
X104495600Y-91052800D02*
X105367700Y-90180700D01*
X105367700Y-90180700D02*
X107117300Y-90180700D01*
X107117300Y-90180700D02*
X107500600Y-89797400D01*
X107500600Y-89797400D02*
X107771900Y-89797400D01*
X107771900Y-89797400D02*
X108299100Y-89270200D01*
X108299100Y-89270200D02*
X108299100Y-88998900D01*
X108299100Y-88998900D02*
X110574000Y-86724000D01*
X110574000Y-86724000D02*
X110574000Y-86367700D01*
X110574000Y-86367700D02*
X113081300Y-83860400D01*
X113081300Y-83860400D02*
X113081300Y-81843900D01*
X113081300Y-81843900D02*
X112194900Y-80957400D01*
X82550000Y-97260000D02*
X82550000Y-95609900D01*
X95508000Y-92767000D02*
X94210300Y-91469300D01*
X94210300Y-91469300D02*
X86690600Y-91469300D01*
X86690600Y-91469300D02*
X82550000Y-95609900D01*
X95508000Y-92767000D02*
X95565000Y-92710000D01*
X96712000Y-104775000D02*
X95360700Y-103423700D01*
X95360700Y-103423700D02*
X95360700Y-92914300D01*
X95360700Y-92914300D02*
X95508000Y-92767000D01*
X76308200Y-104986000D02*
X74874900Y-106419300D01*
X74874900Y-106419300D02*
X74874900Y-111854800D01*
X74874900Y-111854800D02*
X74930000Y-111909900D01*
X76308200Y-104986000D02*
X82275900Y-104986000D01*
X74930000Y-113560000D02*
X74930000Y-111909900D01*
X70970100Y-101600000D02*
X71519700Y-102149600D01*
X71519700Y-102149600D02*
X75599300Y-102149600D01*
X75599300Y-102149600D02*
X76308200Y-102858500D01*
X76308200Y-102858500D02*
X76308200Y-104986000D01*
X69320000Y-101600000D02*
X70970100Y-101600000D01*
X82275900Y-104986000D02*
X83969900Y-106680000D01*
X82550000Y-98910100D02*
X82275900Y-99184200D01*
X82275900Y-99184200D02*
X82275900Y-104986000D01*
X76520000Y-120650000D02*
X74930000Y-119060000D01*
X74930000Y-119060000D02*
X74930000Y-113560000D01*
X85620000Y-106680000D02*
X83969900Y-106680000D01*
X82550000Y-97260000D02*
X82550000Y-98910100D01*
X112194900Y-80957400D02*
X112562700Y-80589600D01*
X112562700Y-80589600D02*
X112562700Y-71973300D01*
X112562700Y-71973300D02*
X112850000Y-71686000D01*
X112850000Y-71686000D02*
X112850000Y-66840100D01*
X96712000Y-111125000D02*
X95849200Y-111125000D01*
X95849200Y-111125000D02*
X94445300Y-112528900D01*
X94445300Y-112528900D02*
X94445300Y-119530300D01*
X94445300Y-119530300D02*
X95565000Y-120650000D01*
X110298000Y-81915000D02*
X111237300Y-81915000D01*
X111237300Y-81915000D02*
X112194900Y-80957400D01*
X113000000Y-151500000D02*
X113000000Y-146292700D01*
X74017500Y-137160000D02*
X74902400Y-138044900D01*
X74902400Y-138044900D02*
X74902400Y-138611900D01*
X64135000Y-78200000D02*
X65885100Y-78200000D01*
X65110000Y-86639000D02*
X66414600Y-85334400D01*
X66414600Y-85334400D02*
X66414600Y-78729500D01*
X66414600Y-78729500D02*
X65885100Y-78200000D01*
X112850000Y-63840000D02*
X112850000Y-66840100D01*
X96712000Y-109855000D02*
X96712000Y-111125000D01*
X74017500Y-137160000D02*
X72946700Y-136089200D01*
X72946700Y-136089200D02*
X72946700Y-124223300D01*
X72946700Y-124223300D02*
X76520000Y-120650000D01*
D24*
%TO.N,/AAudioIn*%
X111350000Y-63840000D02*
X111350000Y-66860100D01*
X111350000Y-71125800D02*
X111350000Y-66860100D01*
X111350000Y-151250000D02*
X111350000Y-146418300D01*
X111350000Y-146418300D02*
X115474700Y-142293600D01*
X115474700Y-142293600D02*
X115474700Y-101327700D01*
D25*
%TO.N,/~ARST*%
X109850000Y-63840000D02*
X109850000Y-61014900D01*
X109850000Y-61014900D02*
X109970100Y-60894800D01*
X109970100Y-60894800D02*
X113435900Y-60894800D01*
X113435900Y-60894800D02*
X113739900Y-61198800D01*
X113739900Y-61198800D02*
X113739900Y-88985100D01*
X113739900Y-88985100D02*
X112037700Y-90687300D01*
X112037700Y-90687300D02*
X112037700Y-97907800D01*
X112037700Y-97907800D02*
X114317500Y-100187600D01*
X114317500Y-100187600D02*
X114317500Y-139890100D01*
X114317500Y-139890100D02*
X109850000Y-144357600D01*
X109850000Y-144357600D02*
X109850000Y-151250000D01*
%TO.N,/AD7*%
X108585000Y-103082000D02*
X110546200Y-103082000D01*
X110546200Y-103082000D02*
X113826800Y-106362600D01*
X113826800Y-106362600D02*
X113826800Y-114550900D01*
X113826800Y-114550900D02*
X108350000Y-120027700D01*
X108350000Y-120027700D02*
X108350000Y-151250000D01*
X108350000Y-63840000D02*
X108350000Y-66665100D01*
X108350000Y-66665100D02*
X108803700Y-67118800D01*
X108803700Y-67118800D02*
X108803700Y-74923300D01*
X108803700Y-74923300D02*
X108585000Y-75142000D01*
X104095600Y-92656800D02*
X108585000Y-97146200D01*
X108585000Y-97146200D02*
X108585000Y-103082000D01*
X83820000Y-95784900D02*
X86477600Y-93127300D01*
X86477600Y-93127300D02*
X86477600Y-92982500D01*
X108585000Y-75142000D02*
X108585000Y-76065800D01*
X108585000Y-76065800D02*
X103836300Y-80814500D01*
X83820000Y-97260000D02*
X83820000Y-95784900D01*
%TO.N,/AD6*%
X106850000Y-63840000D02*
X106850000Y-66665100D01*
X106850000Y-66665100D02*
X107692500Y-67507600D01*
X107692500Y-67507600D02*
X107692500Y-70981600D01*
X110298000Y-73336400D02*
X110298000Y-76835000D01*
X110298000Y-76835000D02*
X109352100Y-76835000D01*
X109352100Y-76835000D02*
X103483300Y-82703800D01*
X87377600Y-98777500D02*
X87095100Y-99060000D01*
X110298000Y-104775000D02*
X110222900Y-104699900D01*
X110222900Y-104699900D02*
X104861900Y-104699900D01*
X104861900Y-104699900D02*
X104654100Y-104907700D01*
X85620000Y-99060000D02*
X87095100Y-99060000D01*
X106850000Y-151250000D02*
X106850000Y-120868000D01*
X106850000Y-120868000D02*
X113370300Y-114347700D01*
X113370300Y-114347700D02*
X113370300Y-107228700D01*
X113370300Y-107228700D02*
X110916600Y-104775000D01*
X110916600Y-104775000D02*
X110298000Y-104775000D01*
%TO.N,/AD5*%
X110298000Y-106045000D02*
X108582500Y-106045000D01*
X108582500Y-106045000D02*
X107964900Y-105427400D01*
X105000100Y-121589700D02*
X112916100Y-113673700D01*
X112916100Y-113673700D02*
X112916100Y-108013000D01*
X112916100Y-108013000D02*
X110948100Y-106045000D01*
X110948100Y-106045000D02*
X110298000Y-106045000D01*
X110298000Y-78105000D02*
X109569100Y-78105000D01*
X109569100Y-78105000D02*
X107127500Y-80546600D01*
X107127500Y-80546600D02*
X107127500Y-81538100D01*
X105000100Y-121589700D02*
X100613800Y-121589700D01*
X100613800Y-121589700D02*
X100434000Y-121769500D01*
X100434000Y-121769500D02*
X93116800Y-121769500D01*
X93116800Y-121769500D02*
X92763500Y-121416200D01*
X92763500Y-121416200D02*
X92763500Y-105998400D01*
X92763500Y-105998400D02*
X87095100Y-100330000D01*
X105350000Y-148174900D02*
X105350000Y-121939600D01*
X105350000Y-121939600D02*
X105000100Y-121589700D01*
X85620000Y-100330000D02*
X87095100Y-100330000D01*
X105350000Y-151250000D02*
X105350000Y-148174900D01*
X105350000Y-66665100D02*
X106163600Y-67478700D01*
X106163600Y-67478700D02*
X106163600Y-68654200D01*
X105350000Y-63840000D02*
X105350000Y-66665100D01*
%TO.N,/AD4*%
X108198100Y-80501400D02*
X109324500Y-79375000D01*
X109324500Y-79375000D02*
X110298000Y-79375000D01*
X105196400Y-69509300D02*
X103850000Y-68162900D01*
X103850000Y-68162900D02*
X103850000Y-63840000D01*
X87095100Y-101600000D02*
X92288100Y-106793000D01*
X92288100Y-106793000D02*
X92288100Y-121577400D01*
X92288100Y-121577400D02*
X93139800Y-122429100D01*
X93139800Y-122429100D02*
X100799800Y-122429100D01*
X100799800Y-122429100D02*
X103850000Y-125479300D01*
X103850000Y-125479300D02*
X103850000Y-151250000D01*
X108349500Y-106964000D02*
X109947000Y-106964000D01*
X109947000Y-106964000D02*
X110298000Y-107315000D01*
X85620000Y-101600000D02*
X87095100Y-101600000D01*
%TO.N,/AD3*%
X108646500Y-83834100D02*
X108646500Y-81568600D01*
X108646500Y-81568600D02*
X109570100Y-80645000D01*
X109570100Y-80645000D02*
X110298000Y-80645000D01*
X102350000Y-63840000D02*
X102350000Y-67688300D01*
X102350000Y-67688300D02*
X105776200Y-71114500D01*
X105776200Y-71114500D02*
X105970200Y-71114500D01*
X102350000Y-148174900D02*
X102350000Y-126239700D01*
X102350000Y-126239700D02*
X100022200Y-123911900D01*
X87095100Y-102870000D02*
X91838000Y-107612900D01*
X91838000Y-107612900D02*
X91838000Y-121763900D01*
X91838000Y-121763900D02*
X93137600Y-123063500D01*
X93137600Y-123063500D02*
X99173800Y-123063500D01*
X99173800Y-123063500D02*
X100022200Y-123911900D01*
X108469700Y-108408100D02*
X110121100Y-108408100D01*
X110121100Y-108408100D02*
X110298000Y-108585000D01*
X102350000Y-151250000D02*
X102350000Y-148174900D01*
X85620000Y-102870000D02*
X87095100Y-102870000D01*
%TO.N,/AD2*%
X108028400Y-73117700D02*
X106750300Y-71839600D01*
X106750300Y-71839600D02*
X105662800Y-71839600D01*
X105662800Y-71839600D02*
X100850000Y-67026800D01*
X100850000Y-67026800D02*
X100850000Y-66665100D01*
X110298000Y-111125000D02*
X110969700Y-111125000D01*
X110969700Y-111125000D02*
X112164900Y-112320200D01*
X112164900Y-112320200D02*
X112164900Y-112807200D01*
X100850000Y-63840000D02*
X100850000Y-66665100D01*
X112181100Y-82251200D02*
X111247300Y-83185000D01*
X111247300Y-83185000D02*
X110298000Y-83185000D01*
X100850000Y-128036700D02*
X100850000Y-151250000D01*
X100850000Y-127650000D02*
X100850000Y-128036700D01*
X99952853Y-126752853D02*
X100850000Y-127650000D01*
X87095100Y-104140000D02*
X85620000Y-104140000D01*
X91387900Y-121950400D02*
X91387900Y-108432800D01*
X99952853Y-126752853D02*
X96713600Y-123513600D01*
X92951100Y-123513600D02*
X91387900Y-121950400D01*
X91387900Y-108432800D02*
X87095100Y-104140000D01*
X96713600Y-123513600D02*
X92951100Y-123513600D01*
%TO.N,/AD1*%
X99350000Y-66665100D02*
X99851700Y-66665100D01*
X99851700Y-66665100D02*
X106501200Y-73314600D01*
X106501200Y-73314600D02*
X107028200Y-73314600D01*
X87095100Y-107950000D02*
X90937800Y-111792700D01*
X90937800Y-111792700D02*
X90937800Y-122136900D01*
X90937800Y-122136900D02*
X92764600Y-123963700D01*
X92764600Y-123963700D02*
X95730800Y-123963700D01*
X95730800Y-123963700D02*
X99104800Y-127337700D01*
X99350000Y-63840000D02*
X99350000Y-66665100D01*
X110298000Y-112395000D02*
X110532500Y-112629500D01*
X110532500Y-112629500D02*
X110532500Y-113321000D01*
X99350000Y-151250000D02*
X99350000Y-127582900D01*
X99350000Y-127582900D02*
X99104800Y-127337700D01*
X85620000Y-107950000D02*
X87095100Y-107950000D01*
X110298000Y-84455000D02*
X110298000Y-85334000D01*
X110298000Y-85334000D02*
X110264000Y-85368000D01*
%TO.N,/AD0*%
X108585000Y-86148000D02*
X108850000Y-86413000D01*
X108850000Y-86413000D02*
X109533500Y-86413000D01*
X87095100Y-109220000D02*
X90487700Y-112612600D01*
X90487700Y-112612600D02*
X90487700Y-122323400D01*
X90487700Y-122323400D02*
X95859400Y-127695100D01*
X95859400Y-127695100D02*
X97088600Y-127695100D01*
X97850000Y-63840000D02*
X97850000Y-66665100D01*
X97850000Y-66665100D02*
X99749800Y-68564900D01*
X99749800Y-68564900D02*
X100666800Y-68564900D01*
X97850000Y-148174900D02*
X97850000Y-128456500D01*
X97850000Y-128456500D02*
X97088600Y-127695100D01*
X109517300Y-113348700D02*
X109324300Y-113348700D01*
X109324300Y-113348700D02*
X108585000Y-114088000D01*
X85620000Y-109220000D02*
X87095100Y-109220000D01*
X97850000Y-151250000D02*
X97850000Y-148174900D01*
%TO.N,/AA15*%
X85620000Y-110490000D02*
X87095100Y-110490000D01*
X87095100Y-110490000D02*
X89942200Y-113337100D01*
X89942200Y-113337100D02*
X89942200Y-122687300D01*
X89942200Y-122687300D02*
X96350000Y-129095100D01*
X96350000Y-129095100D02*
X96350000Y-151250000D01*
%TO.N,/AA14*%
X94850000Y-151250000D02*
X94850000Y-148174900D01*
X84960000Y-111760000D02*
X89492000Y-116292000D01*
X89492000Y-116292000D02*
X89492000Y-123180900D01*
X89492000Y-123180900D02*
X94849900Y-128538800D01*
X94849900Y-128538800D02*
X94849900Y-148174900D01*
X94849900Y-148174900D02*
X94850000Y-148174900D01*
X94850000Y-66665100D02*
X94738500Y-66776600D01*
X94738500Y-66776600D02*
X94738500Y-71875300D01*
X94738500Y-71875300D02*
X94897100Y-72033900D01*
X94850000Y-63840000D02*
X94850000Y-66665100D01*
X77516600Y-108927900D02*
X80348700Y-111760000D01*
X80348700Y-111760000D02*
X84960000Y-111760000D01*
X85620000Y-111760000D02*
X84960000Y-111760000D01*
%TO.N,/AA13*%
X88726800Y-123057500D02*
X93350000Y-127680700D01*
X93350000Y-127680700D02*
X93350000Y-151250000D01*
X83820000Y-113560000D02*
X83820000Y-118150700D01*
X83820000Y-118150700D02*
X88726800Y-123057500D01*
X99695000Y-103082000D02*
X99695000Y-105521200D01*
X99695000Y-105521200D02*
X99722600Y-105548800D01*
X93350000Y-66665100D02*
X93350000Y-71512200D01*
X93350000Y-71512200D02*
X94966500Y-73128700D01*
X94966500Y-73128700D02*
X98371200Y-73128700D01*
X98371200Y-73128700D02*
X99695000Y-74452500D01*
X99695000Y-74452500D02*
X99695000Y-75142000D01*
X99695000Y-75142000D02*
X99695000Y-78626100D01*
X99695000Y-78626100D02*
X101024600Y-79955700D01*
X101024600Y-79955700D02*
X101024600Y-84316500D01*
X93350000Y-63840000D02*
X93350000Y-66665100D01*
%TO.N,/AA12*%
X91850000Y-148174900D02*
X91850000Y-127660400D01*
X91850000Y-127660400D02*
X82845800Y-118656200D01*
X82845800Y-118656200D02*
X82845800Y-116422800D01*
X96712000Y-84455000D02*
X95304400Y-84455000D01*
X95304400Y-84455000D02*
X92736300Y-81886900D01*
X92736300Y-81886900D02*
X92736300Y-67551400D01*
X92736300Y-67551400D02*
X91850000Y-66665100D01*
X91850000Y-151250000D02*
X91850000Y-148174900D01*
X82550000Y-113560000D02*
X82550000Y-116127000D01*
X82550000Y-116127000D02*
X82845800Y-116422800D01*
X96712000Y-84455000D02*
X96712000Y-84899300D01*
X96712000Y-84899300D02*
X97485200Y-85672500D01*
X91850000Y-63840000D02*
X91850000Y-66665100D01*
X95371100Y-113317500D02*
X96293600Y-112395000D01*
X96293600Y-112395000D02*
X96712000Y-112395000D01*
%TO.N,/AA11*%
X90847000Y-127817000D02*
X90847000Y-147677900D01*
X90847000Y-147677900D02*
X90350000Y-148174900D01*
X80010000Y-115035100D02*
X79672000Y-115373100D01*
X79672000Y-115373100D02*
X79672000Y-116642000D01*
X79672000Y-116642000D02*
X90847000Y-127817000D01*
X90981200Y-127817000D02*
X90847000Y-127817000D01*
X90350000Y-151250000D02*
X90350000Y-148174900D01*
X80010000Y-113560000D02*
X80010000Y-115035100D01*
X103505000Y-103082000D02*
X103394000Y-102971000D01*
X103394000Y-102971000D02*
X103394000Y-100902700D01*
X103394000Y-100902700D02*
X106270400Y-98026300D01*
X90350000Y-63840000D02*
X90350000Y-66919600D01*
X90350000Y-66919600D02*
X92011200Y-68580800D01*
X103505000Y-75142000D02*
X103505000Y-72433300D01*
X103505000Y-72433300D02*
X103213800Y-72142100D01*
%TO.N,/AA10*%
X88850000Y-128359600D02*
X88850000Y-128183700D01*
X88850000Y-128183700D02*
X77470000Y-116803700D01*
X77470000Y-116803700D02*
X77470000Y-113560000D01*
X88850000Y-151250000D02*
X88850000Y-128359600D01*
X88850000Y-128359600D02*
X90094300Y-128359600D01*
X106045000Y-103082000D02*
X106045000Y-100326900D01*
X106045000Y-100326900D02*
X105892400Y-100174300D01*
X88850000Y-66665100D02*
X88850000Y-67594000D01*
X88850000Y-67594000D02*
X91335100Y-70079100D01*
X106045000Y-75142000D02*
X106045000Y-75794300D01*
X106045000Y-75794300D02*
X104879900Y-76959400D01*
X88850000Y-63840000D02*
X88850000Y-66665100D01*
%TO.N,/AA9*%
X102235000Y-103082000D02*
X102235000Y-100128100D01*
X102235000Y-100128100D02*
X104066700Y-98296400D01*
X76200000Y-113560000D02*
X76200000Y-116170300D01*
X76200000Y-116170300D02*
X87350000Y-127320300D01*
X87350000Y-127320300D02*
X87350000Y-151250000D01*
X75775000Y-110625300D02*
X76200000Y-111050300D01*
X76200000Y-111050300D02*
X76200000Y-113560000D01*
X87350000Y-66665100D02*
X87965100Y-67280200D01*
X87965100Y-67280200D02*
X87965100Y-69073400D01*
X87965100Y-69073400D02*
X88970700Y-70079000D01*
X102235000Y-75142000D02*
X102235000Y-74473000D01*
X102235000Y-74473000D02*
X101047500Y-73285500D01*
X101047500Y-73285500D02*
X100962800Y-73285500D01*
X87350000Y-63840000D02*
X87350000Y-66665100D01*
%TO.N,/AA8*%
X85850000Y-148174900D02*
X85849900Y-148174900D01*
X85849900Y-148174900D02*
X85849900Y-129089900D01*
X85849900Y-129089900D02*
X84187400Y-127427400D01*
X84187400Y-127427400D02*
X83575700Y-127427400D01*
X83575700Y-127427400D02*
X76848300Y-134154800D01*
X76848300Y-134154800D02*
X76848300Y-137711700D01*
X76848300Y-137711700D02*
X76159800Y-138400200D01*
X76159800Y-138400200D02*
X76159800Y-138450800D01*
X76159800Y-138450800D02*
X75223500Y-139387100D01*
X75223500Y-139387100D02*
X74505600Y-139387100D01*
X74505600Y-139387100D02*
X72314800Y-137196300D01*
X72314800Y-137196300D02*
X72314800Y-121772900D01*
X72314800Y-121772900D02*
X73660000Y-120427700D01*
X73660000Y-120427700D02*
X73660000Y-113560000D01*
X100965000Y-103082000D02*
X100965000Y-100352700D01*
X100965000Y-100352700D02*
X104015400Y-97302300D01*
X104015400Y-97302300D02*
X105579900Y-97302300D01*
X73660000Y-111190000D02*
X73660000Y-113560000D01*
X100576400Y-70944800D02*
X100237700Y-71283500D01*
X100237700Y-71283500D02*
X100237700Y-73585800D01*
X100237700Y-73585800D02*
X100965000Y-74313100D01*
X100965000Y-74313100D02*
X100965000Y-75142000D01*
X85850000Y-63840000D02*
X85850000Y-67175000D01*
X85850000Y-67175000D02*
X87239900Y-68564900D01*
X85850000Y-151250000D02*
X85850000Y-148174900D01*
%TO.N,/AA7*%
X83852000Y-128402700D02*
X83568500Y-128402700D01*
X83568500Y-128402700D02*
X77896500Y-134074700D01*
X77896500Y-134074700D02*
X77896500Y-137300000D01*
X77896500Y-137300000D02*
X76609900Y-138586600D01*
X76609900Y-138586600D02*
X76609900Y-138637400D01*
X76609900Y-138637400D02*
X75403500Y-139843800D01*
X75403500Y-139843800D02*
X74315700Y-139843800D01*
X74315700Y-139843800D02*
X71825200Y-137353300D01*
X71825200Y-137353300D02*
X71825200Y-115599900D01*
X71825200Y-115599900D02*
X72390000Y-115035100D01*
X84350000Y-148174900D02*
X84604000Y-147920900D01*
X84604000Y-147920900D02*
X84604000Y-128827400D01*
X84604000Y-128827400D02*
X84179300Y-128402700D01*
X84179300Y-128402700D02*
X83852000Y-128402700D01*
X83852000Y-128402700D02*
X83852000Y-128176500D01*
X98425000Y-86148000D02*
X98425000Y-84732800D01*
X98425000Y-84732800D02*
X98842600Y-84315200D01*
X84350000Y-66665100D02*
X84350000Y-74137200D01*
X84350000Y-74137200D02*
X96610400Y-86397600D01*
X96610400Y-86397600D02*
X98175400Y-86397600D01*
X98175400Y-86397600D02*
X98425000Y-86148000D01*
X72390000Y-113560000D02*
X72390000Y-115035100D01*
X98425000Y-114088000D02*
X97099800Y-114088000D01*
X97099800Y-114088000D02*
X96371300Y-113359500D01*
X84350000Y-151250000D02*
X84350000Y-148174900D01*
X84350000Y-63840000D02*
X84350000Y-66665100D01*
%TO.N,/AA6*%
X99695000Y-86148000D02*
X99695000Y-84573500D01*
X99695000Y-84573500D02*
X99933600Y-84334900D01*
X82850000Y-66665100D02*
X82850000Y-73311600D01*
X82850000Y-73311600D02*
X97235300Y-87696900D01*
X97235300Y-87696900D02*
X98815800Y-87696900D01*
X98815800Y-87696900D02*
X99695000Y-86817700D01*
X99695000Y-86817700D02*
X99695000Y-86148000D01*
X83878900Y-129176700D02*
X83878900Y-146282700D01*
X83878900Y-146282700D02*
X82850000Y-147311600D01*
X82850000Y-147311600D02*
X82850000Y-151250000D01*
X99695000Y-114088000D02*
X99452900Y-113845900D01*
X99452900Y-113845900D02*
X99452900Y-111414400D01*
X99452900Y-111414400D02*
X98988800Y-110950300D01*
X82850000Y-63840000D02*
X82850000Y-66665100D01*
%TO.N,/AA5*%
X99547900Y-88147000D02*
X99547900Y-88768100D01*
X100965000Y-86148000D02*
X100965000Y-86826500D01*
X100965000Y-86826500D02*
X99644500Y-88147000D01*
X99644500Y-88147000D02*
X99547900Y-88147000D01*
X99547900Y-88147000D02*
X97048800Y-88147000D01*
X97048800Y-88147000D02*
X81350000Y-72448200D01*
X81350000Y-72448200D02*
X81350000Y-66665100D01*
X100965000Y-114088000D02*
X100354000Y-113477000D01*
X100354000Y-113477000D02*
X100354000Y-112424000D01*
X81350000Y-148174900D02*
X82832200Y-146692700D01*
X82832200Y-146692700D02*
X82832200Y-131127500D01*
X81350000Y-63840000D02*
X81350000Y-66665100D01*
X81350000Y-151250000D02*
X81350000Y-148174900D01*
%TO.N,/AA4*%
X102235000Y-114088000D02*
X102235000Y-113461100D01*
X102235000Y-113461100D02*
X101511900Y-112738000D01*
X101511900Y-112738000D02*
X101511900Y-111540300D01*
X102235000Y-86148000D02*
X102235000Y-87017400D01*
X102235000Y-87017400D02*
X101071100Y-88181300D01*
X79850000Y-66665100D02*
X79850000Y-71592900D01*
X79850000Y-71592900D02*
X97750300Y-89493200D01*
X97750300Y-89493200D02*
X99848300Y-89493200D01*
X99848300Y-89493200D02*
X101071100Y-88270400D01*
X101071100Y-88270400D02*
X101071100Y-88181300D01*
X79850000Y-63840000D02*
X79850000Y-66665100D01*
X79850000Y-151250000D02*
X79850000Y-134746400D01*
%TO.N,/AA3*%
X103505000Y-114088000D02*
X103505000Y-113466900D01*
X103505000Y-113466900D02*
X102252400Y-112214300D01*
X78350000Y-66665100D02*
X78350000Y-70809000D01*
X78350000Y-70809000D02*
X97484300Y-89943300D01*
X97484300Y-89943300D02*
X100819300Y-89943300D01*
X100819300Y-89943300D02*
X101373300Y-89389300D01*
X78350000Y-63840000D02*
X78350000Y-66665100D01*
X101373300Y-89389300D02*
X103505000Y-87257600D01*
X103505000Y-87257600D02*
X103505000Y-86148000D01*
X78350000Y-148174900D02*
X78350000Y-136883000D01*
X78350000Y-136883000D02*
X78633500Y-136599500D01*
X78350000Y-151250000D02*
X78350000Y-148174900D01*
%TO.N,/AA2*%
X104775000Y-86148000D02*
X104775000Y-87011200D01*
X104775000Y-87011200D02*
X102852800Y-88933400D01*
X102852800Y-88933400D02*
X102852800Y-88935800D01*
X102852800Y-88935800D02*
X101463600Y-90325000D01*
X101463600Y-90325000D02*
X101395200Y-90393400D01*
X101395200Y-90393400D02*
X97297800Y-90393400D01*
X97297800Y-90393400D02*
X76850000Y-69945600D01*
X76850000Y-69945600D02*
X76850000Y-63840000D01*
X104775000Y-114088000D02*
X104775000Y-113322400D01*
X104775000Y-113322400D02*
X103154400Y-111701800D01*
X101463600Y-90325000D02*
X101557100Y-90418500D01*
X76850000Y-151250000D02*
X76850000Y-148174900D01*
X77335000Y-138886900D02*
X77335000Y-147689900D01*
X77335000Y-147689900D02*
X76850000Y-148174900D01*
%TO.N,/AA1*%
X75350000Y-63840000D02*
X75350000Y-66665100D01*
X103577900Y-89233700D02*
X103577900Y-89496600D01*
X103577900Y-89496600D02*
X101890900Y-91183600D01*
X101890900Y-91183600D02*
X97441700Y-91183600D01*
X97441700Y-91183600D02*
X75350000Y-69091900D01*
X75350000Y-69091900D02*
X75350000Y-66665100D01*
X106045000Y-86148000D02*
X106045000Y-86766600D01*
X106045000Y-86766600D02*
X103577900Y-89233700D01*
X106045000Y-114088000D02*
X106045000Y-112680300D01*
X106045000Y-112680300D02*
X104657800Y-111293100D01*
X75350000Y-148174900D02*
X75948800Y-147576100D01*
X75948800Y-147576100D02*
X75948800Y-142112400D01*
X75350000Y-151250000D02*
X75350000Y-148174900D01*
%TO.N,/AA0*%
X73850000Y-63840000D02*
X73850000Y-68308100D01*
X73850000Y-68308100D02*
X97175600Y-91633700D01*
X97175600Y-91633700D02*
X102496600Y-91633700D01*
X102496600Y-91633700D02*
X106316000Y-87814300D01*
X106316000Y-87814300D02*
X107315000Y-86815300D01*
X107315000Y-86815300D02*
X107315000Y-86148000D01*
X107399000Y-88897300D02*
X106316000Y-87814300D01*
X73850000Y-151250000D02*
X73850000Y-148174900D01*
X73850000Y-148174900D02*
X75151600Y-146873300D01*
X75151600Y-146873300D02*
X75151600Y-143257400D01*
X107315000Y-114088000D02*
X107315000Y-111651000D01*
X107315000Y-111651000D02*
X107131400Y-111467400D01*
%TO.N,/~ASRAM_CS*%
X72350000Y-63840000D02*
X72350000Y-69665100D01*
X72350000Y-69665100D02*
X68452500Y-73562600D01*
X68452500Y-73562600D02*
X68452500Y-76070900D01*
X68452500Y-76070900D02*
X67968700Y-76554700D01*
X67968700Y-76554700D02*
X67968700Y-95075900D01*
X67968700Y-95075900D02*
X65776700Y-97267900D01*
X65776700Y-97267900D02*
X65776700Y-125056000D01*
X72350000Y-151250000D02*
X72350000Y-148174900D01*
X71878000Y-140756500D02*
X71878000Y-147702900D01*
X71878000Y-147702900D02*
X72350000Y-148174900D01*
%TO.N,/~ARD*%
X104775000Y-75142000D02*
X104775000Y-75852200D01*
X104775000Y-75852200D02*
X102377600Y-78249600D01*
X102377600Y-78249600D02*
X102377600Y-84188300D01*
X71040900Y-140031400D02*
X71040900Y-147984000D01*
X71040900Y-147984000D02*
X70850000Y-148174900D01*
X75955700Y-140348000D02*
X72495000Y-140348000D01*
X72495000Y-140348000D02*
X72178400Y-140031400D01*
X72178400Y-140031400D02*
X71040900Y-140031400D01*
X70850000Y-151250000D02*
X70850000Y-148174900D01*
X104775000Y-103082000D02*
X104775000Y-101847800D01*
X104775000Y-101847800D02*
X104174000Y-101246800D01*
X67779800Y-112793000D02*
X70220600Y-115233800D01*
X71040900Y-126142102D02*
X71040900Y-140031400D01*
X70220600Y-125321802D02*
X71040900Y-126142102D01*
X67779800Y-106745100D02*
X67779800Y-112793000D01*
X67844900Y-106680000D02*
X67779800Y-106745100D01*
X70220600Y-115233800D02*
X70220600Y-125321802D01*
X69320000Y-106680000D02*
X67844900Y-106680000D01*
%TO.N,/~AWR*%
X67844900Y-105410000D02*
X67329700Y-105925200D01*
X67329700Y-105925200D02*
X67329700Y-122301000D01*
X67329700Y-122301000D02*
X68545200Y-123516500D01*
X68545200Y-123516500D02*
X68545200Y-142903700D01*
X68545200Y-142903700D02*
X69350000Y-143708500D01*
X69350000Y-143708500D02*
X69350000Y-151250000D01*
X69320000Y-105410000D02*
X67844900Y-105410000D01*
X75349400Y-103199800D02*
X73797600Y-103199800D01*
X73797600Y-103199800D02*
X71587400Y-105410000D01*
X71587400Y-105410000D02*
X69320000Y-105410000D01*
X96712000Y-106045000D02*
X95993000Y-106045000D01*
X95993000Y-106045000D02*
X94789800Y-104841800D01*
X94789800Y-104841800D02*
X94789800Y-104169300D01*
X96712000Y-78105000D02*
X97414300Y-78105000D01*
X97414300Y-78105000D02*
X100299500Y-80990200D01*
X100299500Y-80990200D02*
X100299500Y-83076600D01*
D23*
%TO.N,/ACLK*%
X67850000Y-66910100D02*
X67573800Y-67186300D01*
X67573800Y-67186300D02*
X67573800Y-75966500D01*
X67573800Y-75966500D02*
X67273600Y-76266700D01*
X67273600Y-76266700D02*
X67273600Y-93528100D01*
X67273600Y-93528100D02*
X64806600Y-95995100D01*
X64806600Y-95995100D02*
X64806600Y-142995500D01*
X64806600Y-142995500D02*
X67850000Y-146038900D01*
X67850000Y-146038900D02*
X67850000Y-151250000D01*
X67850000Y-63840000D02*
X67850000Y-66910100D01*
D25*
%TO.N,/AA15_T*%
X96350000Y-63840000D02*
X96350000Y-70328000D01*
X96350000Y-70328000D02*
X95477800Y-71200200D01*
X73398200Y-106600500D02*
X70795100Y-109203600D01*
X70795100Y-109203600D02*
X70795100Y-109220000D01*
X69320000Y-109220000D02*
X70795100Y-109220000D01*
%TO.N,/~ARD_T*%
X70850000Y-63840000D02*
X70850000Y-70104900D01*
X70850000Y-70104900D02*
X70170000Y-70784900D01*
X69320000Y-111760000D02*
X69320000Y-112747500D01*
%TO.N,/~AWR_T*%
X69350000Y-63840000D02*
X69350000Y-66665100D01*
X70795100Y-110490000D02*
X71105800Y-110179300D01*
X71105800Y-110179300D02*
X71105800Y-109970800D01*
X69320000Y-110490000D02*
X70795100Y-110490000D01*
X69350000Y-66665100D02*
X69767500Y-67082600D01*
X69767500Y-67082600D02*
X69767500Y-69351300D01*
%TO.N,/TCK*%
X80010000Y-103652400D02*
X80010000Y-97260000D01*
X75842500Y-135800300D02*
X75842500Y-137160000D01*
%TO.N,/TDO*%
X72390000Y-97260000D02*
X72390000Y-98735100D01*
X78084100Y-103803500D02*
X78084100Y-101198500D01*
X78084100Y-101198500D02*
X76763300Y-99877700D01*
X76763300Y-99877700D02*
X73532600Y-99877700D01*
X73532600Y-99877700D02*
X72390000Y-98735100D01*
%TO.N,/TMS*%
X78740000Y-115035100D02*
X78823200Y-115118300D01*
X78823200Y-115118300D02*
X78823200Y-117076700D01*
X78740000Y-113560000D02*
X78740000Y-115035100D01*
X74017500Y-132080000D02*
X74017500Y-130721800D01*
X74017500Y-130721800D02*
X73872300Y-130576600D01*
%TO.N,/TDI*%
X71120000Y-115035100D02*
X70955200Y-115199900D01*
X70955200Y-115199900D02*
X70955200Y-124983400D01*
X74017500Y-127000000D02*
X74017500Y-124983400D01*
X71120000Y-113560000D02*
X71120000Y-115035100D01*
%TO.N,/~SW_1*%
X69718200Y-77879300D02*
X69384700Y-78212800D01*
X69384700Y-78212800D02*
X69384700Y-84685600D01*
X69384700Y-84685600D02*
X69814100Y-85115000D01*
X69814100Y-85115000D02*
X71208400Y-85115000D01*
X71208400Y-85115000D02*
X71519800Y-85426400D01*
X71519800Y-85426400D02*
X71519800Y-94508300D01*
X71519800Y-94508300D02*
X67794800Y-98233300D01*
X67794800Y-98233300D02*
X67794800Y-102819900D01*
X67794800Y-102819900D02*
X67844900Y-102870000D01*
X70485000Y-77112500D02*
X69718200Y-77879300D01*
X68693800Y-76855000D02*
X69718200Y-77879300D01*
X69320000Y-102870000D02*
X67844900Y-102870000D01*
%TO.N,/~SW_2*%
X69941000Y-86546500D02*
X69941000Y-95373600D01*
X69941000Y-95373600D02*
X67332400Y-97982200D01*
X67332400Y-97982200D02*
X67332400Y-103627500D01*
X67332400Y-103627500D02*
X67844900Y-104140000D01*
X70485000Y-86002500D02*
X69941000Y-86546500D01*
X69941000Y-86546500D02*
X69177600Y-85783100D01*
X69320000Y-104140000D02*
X67844900Y-104140000D01*
%TO.N,/F010_A14*%
X70795100Y-100330000D02*
X71686800Y-101221700D01*
X71686800Y-101221700D02*
X75632600Y-101221700D01*
X98425000Y-103082000D02*
X96985700Y-101642700D01*
X96985700Y-101642700D02*
X96260800Y-101642700D01*
X69320000Y-100330000D02*
X70795100Y-100330000D01*
%TO.N,/~F_CE_010*%
X96260800Y-100018400D02*
X99718000Y-96561200D01*
X99718000Y-96561200D02*
X105864600Y-96561200D01*
X105864600Y-96561200D02*
X107315000Y-98011600D01*
X107315000Y-98011600D02*
X107315000Y-103082000D01*
X70795100Y-99060000D02*
X72231500Y-100496400D01*
X72231500Y-100496400D02*
X76326300Y-100496400D01*
X76326300Y-100496400D02*
X76437100Y-100607200D01*
X69320000Y-99060000D02*
X70795100Y-99060000D01*
%TO.N,/F040_A17*%
X74930000Y-97260000D02*
X74930000Y-95784900D01*
X74930000Y-95784900D02*
X75589700Y-95125200D01*
X75589700Y-95125200D02*
X75589700Y-92846600D01*
X96712000Y-76835000D02*
X95857800Y-76835000D01*
X95857800Y-76835000D02*
X94908600Y-77784200D01*
%TO.N,/F040_A14*%
X98425000Y-75142000D02*
X97506200Y-75142000D01*
X81280000Y-95784900D02*
X81863300Y-95201600D01*
X81863300Y-95201600D02*
X81863300Y-88318700D01*
X81280000Y-97260000D02*
X81280000Y-95784900D01*
%TO.N,/~F_CE_040*%
X107315000Y-75142000D02*
X107315000Y-75795100D01*
X107315000Y-75795100D02*
X104101600Y-79008500D01*
X71120000Y-95784900D02*
X72637200Y-94267700D01*
X72637200Y-94267700D02*
X74864500Y-94267700D01*
X71120000Y-97260000D02*
X71120000Y-95784900D01*
%TO.N,/F040_A15*%
X78740000Y-95784900D02*
X78740000Y-95736700D01*
X78740000Y-95736700D02*
X78967000Y-95509700D01*
X96712000Y-83185000D02*
X96558100Y-83031100D01*
X96558100Y-83031100D02*
X94906100Y-83031100D01*
X78740000Y-97260000D02*
X78740000Y-95784900D01*
%TO.N,/F040_A16*%
X77470000Y-95784900D02*
X77745100Y-95509800D01*
X94881600Y-81922500D02*
X96704500Y-81922500D01*
X96704500Y-81922500D02*
X96712000Y-81915000D01*
X77470000Y-97260000D02*
X77470000Y-95784900D01*
%TO.N,/F040_A18*%
X73660000Y-95784900D02*
X74272700Y-95172200D01*
X74272700Y-95172200D02*
X74354400Y-95172200D01*
X94890000Y-80227800D02*
X96294800Y-80227800D01*
X96294800Y-80227800D02*
X96712000Y-80645000D01*
X73660000Y-97260000D02*
X73660000Y-95784900D01*
%TD*%
D26*
%TO.N,+5V*%
X62045363Y-86004759D02*
X62245241Y-86204637D01*
X62480273Y-86361680D01*
X62741426Y-86469853D01*
X63018665Y-86525000D01*
X63301335Y-86525000D01*
X63578574Y-86469853D01*
X63689687Y-86423828D01*
X63675000Y-86497665D01*
X63675000Y-86780335D01*
X63730147Y-87057574D01*
X63838320Y-87318727D01*
X63995363Y-87553759D01*
X64195241Y-87753637D01*
X64430273Y-87910680D01*
X64691426Y-88018853D01*
X64968665Y-88074000D01*
X65251335Y-88074000D01*
X65528574Y-88018853D01*
X65789727Y-87910680D01*
X66024759Y-87753637D01*
X66224637Y-87553759D01*
X66381680Y-87318727D01*
X66388601Y-87302019D01*
X66388601Y-93161520D01*
X64211556Y-95338566D01*
X64177783Y-95366283D01*
X64067189Y-95501042D01*
X63985011Y-95654788D01*
X63934405Y-95821611D01*
X63921600Y-95951624D01*
X63921600Y-95951631D01*
X63917319Y-95995100D01*
X63921600Y-96038569D01*
X63921601Y-142952021D01*
X63917319Y-142995500D01*
X63934405Y-143168990D01*
X63985012Y-143335813D01*
X64067190Y-143489559D01*
X64150068Y-143590546D01*
X64150071Y-143590549D01*
X64177784Y-143624317D01*
X64211551Y-143652029D01*
X66965000Y-146405479D01*
X66965000Y-147828000D01*
X65535000Y-147828000D01*
X65535000Y-147533646D01*
X65538314Y-147500000D01*
X65532000Y-147435894D01*
X65532000Y-147320000D01*
X65529560Y-147295224D01*
X65522333Y-147271399D01*
X65510597Y-147249443D01*
X65494803Y-147230197D01*
X65475557Y-147214403D01*
X65473458Y-147213281D01*
X65422312Y-147117593D01*
X65336711Y-147013289D01*
X65232407Y-146927688D01*
X65113406Y-146864081D01*
X64984283Y-146824912D01*
X64883647Y-146815000D01*
X64850000Y-146811686D01*
X64816353Y-146815000D01*
X62035000Y-146815000D01*
X62035000Y-85989250D01*
X62045363Y-86004759D01*
%TA.AperFunction,Conductor*%
D27*
G36*
X62045363Y-86004759D02*
G01*
X62245241Y-86204637D01*
X62480273Y-86361680D01*
X62741426Y-86469853D01*
X63018665Y-86525000D01*
X63301335Y-86525000D01*
X63578574Y-86469853D01*
X63689687Y-86423828D01*
X63675000Y-86497665D01*
X63675000Y-86780335D01*
X63730147Y-87057574D01*
X63838320Y-87318727D01*
X63995363Y-87553759D01*
X64195241Y-87753637D01*
X64430273Y-87910680D01*
X64691426Y-88018853D01*
X64968665Y-88074000D01*
X65251335Y-88074000D01*
X65528574Y-88018853D01*
X65789727Y-87910680D01*
X66024759Y-87753637D01*
X66224637Y-87553759D01*
X66381680Y-87318727D01*
X66388601Y-87302019D01*
X66388601Y-93161520D01*
X64211556Y-95338566D01*
X64177783Y-95366283D01*
X64067189Y-95501042D01*
X63985011Y-95654788D01*
X63934405Y-95821611D01*
X63921600Y-95951624D01*
X63921600Y-95951631D01*
X63917319Y-95995100D01*
X63921600Y-96038569D01*
X63921601Y-142952021D01*
X63917319Y-142995500D01*
X63934405Y-143168990D01*
X63985012Y-143335813D01*
X64067190Y-143489559D01*
X64150068Y-143590546D01*
X64150071Y-143590549D01*
X64177784Y-143624317D01*
X64211551Y-143652029D01*
X66965000Y-146405479D01*
X66965000Y-147828000D01*
X65535000Y-147828000D01*
X65535000Y-147533646D01*
X65538314Y-147500000D01*
X65532000Y-147435894D01*
X65532000Y-147320000D01*
X65529560Y-147295224D01*
X65522333Y-147271399D01*
X65510597Y-147249443D01*
X65494803Y-147230197D01*
X65475557Y-147214403D01*
X65473458Y-147213281D01*
X65422312Y-147117593D01*
X65336711Y-147013289D01*
X65232407Y-146927688D01*
X65113406Y-146864081D01*
X64984283Y-146824912D01*
X64883647Y-146815000D01*
X64850000Y-146811686D01*
X64816353Y-146815000D01*
X62035000Y-146815000D01*
X62035000Y-85989250D01*
X62045363Y-86004759D01*
G37*
%TD.AperFunction*%
D26*
X66156525Y-126053368D02*
X65994010Y-126296589D01*
X65882068Y-126566842D01*
X65825000Y-126853740D01*
X65825000Y-127146260D01*
X65882068Y-127433158D01*
X65994010Y-127703411D01*
X66156525Y-127946632D01*
X66363368Y-128153475D01*
X66537760Y-128270000D01*
X66363368Y-128386525D01*
X66156525Y-128593368D01*
X65994010Y-128836589D01*
X65882068Y-129106842D01*
X65825000Y-129393740D01*
X65825000Y-129686260D01*
X65882068Y-129973158D01*
X65994010Y-130243411D01*
X66156525Y-130486632D01*
X66363368Y-130693475D01*
X66537760Y-130810000D01*
X66363368Y-130926525D01*
X66156525Y-131133368D01*
X65994010Y-131376589D01*
X65882068Y-131646842D01*
X65825000Y-131933740D01*
X65825000Y-132226260D01*
X65882068Y-132513158D01*
X65994010Y-132783411D01*
X66156525Y-133026632D01*
X66363368Y-133233475D01*
X66545534Y-133355195D01*
X66428645Y-133424822D01*
X66212412Y-133619731D01*
X66038359Y-133853080D01*
X65913175Y-134115901D01*
X65868524Y-134263110D01*
X65989845Y-134493000D01*
X67183000Y-134493000D01*
X67183000Y-134473000D01*
X67437000Y-134473000D01*
X67437000Y-134493000D01*
X67457000Y-134493000D01*
X67457000Y-134747000D01*
X67437000Y-134747000D01*
X67437000Y-134767000D01*
X67183000Y-134767000D01*
X67183000Y-134747000D01*
X65989845Y-134747000D01*
X65868524Y-134976890D01*
X65913175Y-135124099D01*
X66038359Y-135386920D01*
X66212412Y-135620269D01*
X66428645Y-135815178D01*
X66545534Y-135884805D01*
X66363368Y-136006525D01*
X66156525Y-136213368D01*
X65994010Y-136456589D01*
X65882068Y-136726842D01*
X65825000Y-137013740D01*
X65825000Y-137306260D01*
X65882068Y-137593158D01*
X65994010Y-137863411D01*
X66156525Y-138106632D01*
X66363368Y-138313475D01*
X66606589Y-138475990D01*
X66876842Y-138587932D01*
X67163740Y-138645000D01*
X67456260Y-138645000D01*
X67743158Y-138587932D01*
X67785201Y-138570517D01*
X67785201Y-142866367D01*
X67781524Y-142903700D01*
X67796198Y-143052685D01*
X67839654Y-143195946D01*
X67910226Y-143327976D01*
X67981401Y-143414702D01*
X68005200Y-143443701D01*
X68034198Y-143467499D01*
X68590000Y-144023302D01*
X68590000Y-145545943D01*
X68589411Y-145544841D01*
X68506532Y-145443853D01*
X68506530Y-145443851D01*
X68478817Y-145410083D01*
X68445050Y-145382371D01*
X65691600Y-142628922D01*
X65691600Y-126091000D01*
X65878639Y-126091000D01*
X66078598Y-126051226D01*
X66215285Y-125994608D01*
X66156525Y-126053368D01*
%TA.AperFunction,Conductor*%
D27*
G36*
X66156525Y-126053368D02*
G01*
X65994010Y-126296589D01*
X65882068Y-126566842D01*
X65825000Y-126853740D01*
X65825000Y-127146260D01*
X65882068Y-127433158D01*
X65994010Y-127703411D01*
X66156525Y-127946632D01*
X66363368Y-128153475D01*
X66537760Y-128270000D01*
X66363368Y-128386525D01*
X66156525Y-128593368D01*
X65994010Y-128836589D01*
X65882068Y-129106842D01*
X65825000Y-129393740D01*
X65825000Y-129686260D01*
X65882068Y-129973158D01*
X65994010Y-130243411D01*
X66156525Y-130486632D01*
X66363368Y-130693475D01*
X66537760Y-130810000D01*
X66363368Y-130926525D01*
X66156525Y-131133368D01*
X65994010Y-131376589D01*
X65882068Y-131646842D01*
X65825000Y-131933740D01*
X65825000Y-132226260D01*
X65882068Y-132513158D01*
X65994010Y-132783411D01*
X66156525Y-133026632D01*
X66363368Y-133233475D01*
X66545534Y-133355195D01*
X66428645Y-133424822D01*
X66212412Y-133619731D01*
X66038359Y-133853080D01*
X65913175Y-134115901D01*
X65868524Y-134263110D01*
X65989845Y-134493000D01*
X67183000Y-134493000D01*
X67183000Y-134473000D01*
X67437000Y-134473000D01*
X67437000Y-134493000D01*
X67457000Y-134493000D01*
X67457000Y-134747000D01*
X67437000Y-134747000D01*
X67437000Y-134767000D01*
X67183000Y-134767000D01*
X67183000Y-134747000D01*
X65989845Y-134747000D01*
X65868524Y-134976890D01*
X65913175Y-135124099D01*
X66038359Y-135386920D01*
X66212412Y-135620269D01*
X66428645Y-135815178D01*
X66545534Y-135884805D01*
X66363368Y-136006525D01*
X66156525Y-136213368D01*
X65994010Y-136456589D01*
X65882068Y-136726842D01*
X65825000Y-137013740D01*
X65825000Y-137306260D01*
X65882068Y-137593158D01*
X65994010Y-137863411D01*
X66156525Y-138106632D01*
X66363368Y-138313475D01*
X66606589Y-138475990D01*
X66876842Y-138587932D01*
X67163740Y-138645000D01*
X67456260Y-138645000D01*
X67743158Y-138587932D01*
X67785201Y-138570517D01*
X67785201Y-142866367D01*
X67781524Y-142903700D01*
X67796198Y-143052685D01*
X67839654Y-143195946D01*
X67910226Y-143327976D01*
X67981401Y-143414702D01*
X68005200Y-143443701D01*
X68034198Y-143467499D01*
X68590000Y-144023302D01*
X68590000Y-145545943D01*
X68589411Y-145544841D01*
X68506532Y-145443853D01*
X68506530Y-145443851D01*
X68478817Y-145410083D01*
X68445050Y-145382371D01*
X65691600Y-142628922D01*
X65691600Y-126091000D01*
X65878639Y-126091000D01*
X66078598Y-126051226D01*
X66215285Y-125994608D01*
X66156525Y-126053368D01*
G37*
%TD.AperFunction*%
D26*
X86590000Y-127635102D02*
X86590000Y-128911564D01*
X86555446Y-128797653D01*
X86551391Y-128790067D01*
X86484874Y-128665623D01*
X86413699Y-128578897D01*
X86389901Y-128549899D01*
X86360903Y-128526101D01*
X84751204Y-126916403D01*
X84727401Y-126887399D01*
X84611676Y-126792426D01*
X84479647Y-126721854D01*
X84336386Y-126678397D01*
X84224733Y-126667400D01*
X84224722Y-126667400D01*
X84187400Y-126663724D01*
X84150078Y-126667400D01*
X83613022Y-126667400D01*
X83575699Y-126663724D01*
X83538376Y-126667400D01*
X83538367Y-126667400D01*
X83426714Y-126678397D01*
X83283453Y-126721854D01*
X83151424Y-126792426D01*
X83035699Y-126887399D01*
X83011901Y-126916397D01*
X76962086Y-132966213D01*
X76980812Y-132904482D01*
X76993072Y-132780000D01*
X76990000Y-132365750D01*
X76831250Y-132207000D01*
X75969500Y-132207000D01*
X75969500Y-133256250D01*
X76128250Y-133415000D01*
X76355000Y-133418072D01*
X76479482Y-133405812D01*
X76541213Y-133387086D01*
X76337303Y-133590996D01*
X76308299Y-133614799D01*
X76279063Y-133650424D01*
X76213326Y-133730524D01*
X76185569Y-133782454D01*
X76142754Y-133862554D01*
X76099297Y-134005815D01*
X76088300Y-134117468D01*
X76088300Y-134117478D01*
X76084624Y-134154800D01*
X76088300Y-134192123D01*
X76088300Y-134793916D01*
X75944439Y-134765300D01*
X75740561Y-134765300D01*
X75540602Y-134805074D01*
X75352244Y-134883095D01*
X75182726Y-134996363D01*
X75038563Y-135140526D01*
X74925295Y-135310044D01*
X74847274Y-135498402D01*
X74807500Y-135698361D01*
X74807500Y-135902239D01*
X74830642Y-136018583D01*
X74773387Y-135971595D01*
X74619851Y-135889528D01*
X74453255Y-135838992D01*
X74280001Y-135821928D01*
X73931006Y-135821928D01*
X73831700Y-135722622D01*
X73831700Y-133418072D01*
X74280001Y-133418072D01*
X74453255Y-133401008D01*
X74619851Y-133350472D01*
X74773387Y-133268405D01*
X74854637Y-133201724D01*
X74878815Y-133231185D01*
X74975506Y-133310537D01*
X75085820Y-133369502D01*
X75205518Y-133405812D01*
X75330000Y-133418072D01*
X75556750Y-133415000D01*
X75715500Y-133256250D01*
X75715500Y-132207000D01*
X75695500Y-132207000D01*
X75695500Y-131953000D01*
X75715500Y-131953000D01*
X75715500Y-130903750D01*
X75969500Y-130903750D01*
X75969500Y-131953000D01*
X76831250Y-131953000D01*
X76990000Y-131794250D01*
X76993072Y-131380000D01*
X76980812Y-131255518D01*
X76944502Y-131135820D01*
X76885537Y-131025506D01*
X76806185Y-130928815D01*
X76709494Y-130849463D01*
X76599180Y-130790498D01*
X76479482Y-130754188D01*
X76355000Y-130741928D01*
X76128250Y-130745000D01*
X75969500Y-130903750D01*
X75715500Y-130903750D01*
X75556750Y-130745000D01*
X75330000Y-130741928D01*
X75205518Y-130754188D01*
X75085820Y-130790498D01*
X74975506Y-130849463D01*
X74878815Y-130928815D01*
X74854637Y-130958276D01*
X74839594Y-130945930D01*
X74867526Y-130878498D01*
X74907300Y-130678539D01*
X74907300Y-130474661D01*
X74867526Y-130274702D01*
X74789505Y-130086344D01*
X74676237Y-129916826D01*
X74532074Y-129772663D01*
X74362556Y-129659395D01*
X74174198Y-129581374D01*
X73974239Y-129541600D01*
X73831700Y-129541600D01*
X73831700Y-128338072D01*
X74280001Y-128338072D01*
X74453255Y-128321008D01*
X74619851Y-128270472D01*
X74773387Y-128188405D01*
X74854637Y-128121724D01*
X74878815Y-128151185D01*
X74975506Y-128230537D01*
X75085820Y-128289502D01*
X75205518Y-128325812D01*
X75330000Y-128338072D01*
X75556750Y-128335000D01*
X75715500Y-128176250D01*
X75715500Y-127127000D01*
X75969500Y-127127000D01*
X75969500Y-128176250D01*
X76128250Y-128335000D01*
X76355000Y-128338072D01*
X76479482Y-128325812D01*
X76599180Y-128289502D01*
X76709494Y-128230537D01*
X76806185Y-128151185D01*
X76885537Y-128054494D01*
X76944502Y-127944180D01*
X76980812Y-127824482D01*
X76993072Y-127700000D01*
X76990000Y-127285750D01*
X76831250Y-127127000D01*
X75969500Y-127127000D01*
X75715500Y-127127000D01*
X75695500Y-127127000D01*
X75695500Y-126873000D01*
X75715500Y-126873000D01*
X75715500Y-125823750D01*
X75969500Y-125823750D01*
X75969500Y-126873000D01*
X76831250Y-126873000D01*
X76990000Y-126714250D01*
X76993072Y-126300000D01*
X76980812Y-126175518D01*
X76944502Y-126055820D01*
X76885537Y-125945506D01*
X76806185Y-125848815D01*
X76709494Y-125769463D01*
X76599180Y-125710498D01*
X76479482Y-125674188D01*
X76355000Y-125661928D01*
X76128250Y-125665000D01*
X75969500Y-125823750D01*
X75715500Y-125823750D01*
X75556750Y-125665000D01*
X75330000Y-125661928D01*
X75205518Y-125674188D01*
X75085820Y-125710498D01*
X74975506Y-125769463D01*
X74878815Y-125848815D01*
X74854637Y-125878276D01*
X74777500Y-125814970D01*
X74777500Y-125687111D01*
X74821437Y-125643174D01*
X74934705Y-125473656D01*
X75012726Y-125285298D01*
X75052500Y-125085339D01*
X75052500Y-124881461D01*
X75012726Y-124681502D01*
X74934705Y-124493144D01*
X74821437Y-124323626D01*
X74677274Y-124179463D01*
X74507756Y-124066195D01*
X74400012Y-124021566D01*
X76408507Y-122013072D01*
X76770000Y-122013072D01*
X76943254Y-121996008D01*
X77109850Y-121945472D01*
X77263386Y-121863405D01*
X77397962Y-121752962D01*
X77403342Y-121746406D01*
X77468815Y-121826185D01*
X77565506Y-121905537D01*
X77675820Y-121964502D01*
X77795518Y-122000812D01*
X77920000Y-122013072D01*
X78134250Y-122010000D01*
X78293000Y-121851250D01*
X78293000Y-120777000D01*
X78547000Y-120777000D01*
X78547000Y-121851250D01*
X78705750Y-122010000D01*
X78920000Y-122013072D01*
X79044482Y-122000812D01*
X79164180Y-121964502D01*
X79274494Y-121905537D01*
X79371185Y-121826185D01*
X79450537Y-121729494D01*
X79509502Y-121619180D01*
X79545812Y-121499482D01*
X79558072Y-121375000D01*
X79555000Y-120935750D01*
X79396250Y-120777000D01*
X78547000Y-120777000D01*
X78293000Y-120777000D01*
X78273000Y-120777000D01*
X78273000Y-120523000D01*
X78293000Y-120523000D01*
X78293000Y-120503000D01*
X78547000Y-120503000D01*
X78547000Y-120523000D01*
X79396250Y-120523000D01*
X79437074Y-120482176D01*
X86590000Y-127635102D01*
%TA.AperFunction,Conductor*%
D27*
G36*
X86590000Y-127635102D02*
G01*
X86590000Y-128911564D01*
X86555446Y-128797653D01*
X86551391Y-128790067D01*
X86484874Y-128665623D01*
X86413699Y-128578897D01*
X86389901Y-128549899D01*
X86360903Y-128526101D01*
X84751204Y-126916403D01*
X84727401Y-126887399D01*
X84611676Y-126792426D01*
X84479647Y-126721854D01*
X84336386Y-126678397D01*
X84224733Y-126667400D01*
X84224722Y-126667400D01*
X84187400Y-126663724D01*
X84150078Y-126667400D01*
X83613022Y-126667400D01*
X83575699Y-126663724D01*
X83538376Y-126667400D01*
X83538367Y-126667400D01*
X83426714Y-126678397D01*
X83283453Y-126721854D01*
X83151424Y-126792426D01*
X83035699Y-126887399D01*
X83011901Y-126916397D01*
X76962086Y-132966213D01*
X76980812Y-132904482D01*
X76993072Y-132780000D01*
X76990000Y-132365750D01*
X76831250Y-132207000D01*
X75969500Y-132207000D01*
X75969500Y-133256250D01*
X76128250Y-133415000D01*
X76355000Y-133418072D01*
X76479482Y-133405812D01*
X76541213Y-133387086D01*
X76337303Y-133590996D01*
X76308299Y-133614799D01*
X76279063Y-133650424D01*
X76213326Y-133730524D01*
X76185569Y-133782454D01*
X76142754Y-133862554D01*
X76099297Y-134005815D01*
X76088300Y-134117468D01*
X76088300Y-134117478D01*
X76084624Y-134154800D01*
X76088300Y-134192123D01*
X76088300Y-134793916D01*
X75944439Y-134765300D01*
X75740561Y-134765300D01*
X75540602Y-134805074D01*
X75352244Y-134883095D01*
X75182726Y-134996363D01*
X75038563Y-135140526D01*
X74925295Y-135310044D01*
X74847274Y-135498402D01*
X74807500Y-135698361D01*
X74807500Y-135902239D01*
X74830642Y-136018583D01*
X74773387Y-135971595D01*
X74619851Y-135889528D01*
X74453255Y-135838992D01*
X74280001Y-135821928D01*
X73931006Y-135821928D01*
X73831700Y-135722622D01*
X73831700Y-133418072D01*
X74280001Y-133418072D01*
X74453255Y-133401008D01*
X74619851Y-133350472D01*
X74773387Y-133268405D01*
X74854637Y-133201724D01*
X74878815Y-133231185D01*
X74975506Y-133310537D01*
X75085820Y-133369502D01*
X75205518Y-133405812D01*
X75330000Y-133418072D01*
X75556750Y-133415000D01*
X75715500Y-133256250D01*
X75715500Y-132207000D01*
X75695500Y-132207000D01*
X75695500Y-131953000D01*
X75715500Y-131953000D01*
X75715500Y-130903750D01*
X75969500Y-130903750D01*
X75969500Y-131953000D01*
X76831250Y-131953000D01*
X76990000Y-131794250D01*
X76993072Y-131380000D01*
X76980812Y-131255518D01*
X76944502Y-131135820D01*
X76885537Y-131025506D01*
X76806185Y-130928815D01*
X76709494Y-130849463D01*
X76599180Y-130790498D01*
X76479482Y-130754188D01*
X76355000Y-130741928D01*
X76128250Y-130745000D01*
X75969500Y-130903750D01*
X75715500Y-130903750D01*
X75556750Y-130745000D01*
X75330000Y-130741928D01*
X75205518Y-130754188D01*
X75085820Y-130790498D01*
X74975506Y-130849463D01*
X74878815Y-130928815D01*
X74854637Y-130958276D01*
X74839594Y-130945930D01*
X74867526Y-130878498D01*
X74907300Y-130678539D01*
X74907300Y-130474661D01*
X74867526Y-130274702D01*
X74789505Y-130086344D01*
X74676237Y-129916826D01*
X74532074Y-129772663D01*
X74362556Y-129659395D01*
X74174198Y-129581374D01*
X73974239Y-129541600D01*
X73831700Y-129541600D01*
X73831700Y-128338072D01*
X74280001Y-128338072D01*
X74453255Y-128321008D01*
X74619851Y-128270472D01*
X74773387Y-128188405D01*
X74854637Y-128121724D01*
X74878815Y-128151185D01*
X74975506Y-128230537D01*
X75085820Y-128289502D01*
X75205518Y-128325812D01*
X75330000Y-128338072D01*
X75556750Y-128335000D01*
X75715500Y-128176250D01*
X75715500Y-127127000D01*
X75969500Y-127127000D01*
X75969500Y-128176250D01*
X76128250Y-128335000D01*
X76355000Y-128338072D01*
X76479482Y-128325812D01*
X76599180Y-128289502D01*
X76709494Y-128230537D01*
X76806185Y-128151185D01*
X76885537Y-128054494D01*
X76944502Y-127944180D01*
X76980812Y-127824482D01*
X76993072Y-127700000D01*
X76990000Y-127285750D01*
X76831250Y-127127000D01*
X75969500Y-127127000D01*
X75715500Y-127127000D01*
X75695500Y-127127000D01*
X75695500Y-126873000D01*
X75715500Y-126873000D01*
X75715500Y-125823750D01*
X75969500Y-125823750D01*
X75969500Y-126873000D01*
X76831250Y-126873000D01*
X76990000Y-126714250D01*
X76993072Y-126300000D01*
X76980812Y-126175518D01*
X76944502Y-126055820D01*
X76885537Y-125945506D01*
X76806185Y-125848815D01*
X76709494Y-125769463D01*
X76599180Y-125710498D01*
X76479482Y-125674188D01*
X76355000Y-125661928D01*
X76128250Y-125665000D01*
X75969500Y-125823750D01*
X75715500Y-125823750D01*
X75556750Y-125665000D01*
X75330000Y-125661928D01*
X75205518Y-125674188D01*
X75085820Y-125710498D01*
X74975506Y-125769463D01*
X74878815Y-125848815D01*
X74854637Y-125878276D01*
X74777500Y-125814970D01*
X74777500Y-125687111D01*
X74821437Y-125643174D01*
X74934705Y-125473656D01*
X75012726Y-125285298D01*
X75052500Y-125085339D01*
X75052500Y-124881461D01*
X75012726Y-124681502D01*
X74934705Y-124493144D01*
X74821437Y-124323626D01*
X74677274Y-124179463D01*
X74507756Y-124066195D01*
X74400012Y-124021566D01*
X76408507Y-122013072D01*
X76770000Y-122013072D01*
X76943254Y-121996008D01*
X77109850Y-121945472D01*
X77263386Y-121863405D01*
X77397962Y-121752962D01*
X77403342Y-121746406D01*
X77468815Y-121826185D01*
X77565506Y-121905537D01*
X77675820Y-121964502D01*
X77795518Y-122000812D01*
X77920000Y-122013072D01*
X78134250Y-122010000D01*
X78293000Y-121851250D01*
X78293000Y-120777000D01*
X78547000Y-120777000D01*
X78547000Y-121851250D01*
X78705750Y-122010000D01*
X78920000Y-122013072D01*
X79044482Y-122000812D01*
X79164180Y-121964502D01*
X79274494Y-121905537D01*
X79371185Y-121826185D01*
X79450537Y-121729494D01*
X79509502Y-121619180D01*
X79545812Y-121499482D01*
X79558072Y-121375000D01*
X79555000Y-120935750D01*
X79396250Y-120777000D01*
X78547000Y-120777000D01*
X78293000Y-120777000D01*
X78273000Y-120777000D01*
X78273000Y-120523000D01*
X78293000Y-120523000D01*
X78293000Y-120503000D01*
X78547000Y-120503000D01*
X78547000Y-120523000D01*
X79396250Y-120523000D01*
X79437074Y-120482176D01*
X86590000Y-127635102D01*
G37*
%TD.AperFunction*%
D26*
X68875702Y-86778326D02*
X69075661Y-86818100D01*
X69137798Y-86818100D01*
X69181000Y-86861302D01*
X69181001Y-95058796D01*
X66821403Y-97418396D01*
X66792399Y-97442199D01*
X66737271Y-97509374D01*
X66697426Y-97557924D01*
X66673854Y-97602024D01*
X66626854Y-97689954D01*
X66583397Y-97833215D01*
X66572400Y-97944868D01*
X66572400Y-97944878D01*
X66568724Y-97982200D01*
X66572400Y-98019523D01*
X66572401Y-103590168D01*
X66568724Y-103627500D01*
X66572401Y-103664833D01*
X66576019Y-103701561D01*
X66583398Y-103776485D01*
X66626854Y-103919746D01*
X66697426Y-104051776D01*
X66763238Y-104131967D01*
X66792400Y-104167501D01*
X66821397Y-104191298D01*
X67281105Y-104651007D01*
X67304899Y-104680001D01*
X67333892Y-104703795D01*
X67333896Y-104703799D01*
X67399361Y-104757524D01*
X67420624Y-104774974D01*
X67420673Y-104775000D01*
X67420624Y-104775026D01*
X67304899Y-104869999D01*
X67281100Y-104898998D01*
X66818702Y-105361397D01*
X66789699Y-105385199D01*
X66756207Y-105426010D01*
X66694726Y-105500924D01*
X66630692Y-105620723D01*
X66624154Y-105632954D01*
X66580697Y-105776215D01*
X66569700Y-105887868D01*
X66569700Y-105887878D01*
X66566024Y-105925200D01*
X66569700Y-105962522D01*
X66569701Y-122263667D01*
X66566024Y-122301000D01*
X66569701Y-122338333D01*
X66578917Y-122431898D01*
X66580698Y-122449985D01*
X66624154Y-122593246D01*
X66694726Y-122725276D01*
X66762661Y-122808054D01*
X66789700Y-122841001D01*
X66818698Y-122864799D01*
X67785200Y-123831302D01*
X67785200Y-125589482D01*
X67743158Y-125572068D01*
X67456260Y-125515000D01*
X67163740Y-125515000D01*
X66876842Y-125572068D01*
X66606589Y-125684010D01*
X66598048Y-125689717D01*
X66693905Y-125546256D01*
X66771926Y-125357898D01*
X66811700Y-125157939D01*
X66811700Y-124954061D01*
X66771926Y-124754102D01*
X66693905Y-124565744D01*
X66580637Y-124396226D01*
X66536700Y-124352289D01*
X66536700Y-97582701D01*
X68479703Y-95639699D01*
X68508701Y-95615901D01*
X68563215Y-95549476D01*
X68603674Y-95500177D01*
X68674246Y-95368147D01*
X68691149Y-95312424D01*
X68717703Y-95224886D01*
X68728700Y-95113233D01*
X68728700Y-95113224D01*
X68732376Y-95075901D01*
X68728700Y-95038578D01*
X68728700Y-86717435D01*
X68875702Y-86778326D01*
%TA.AperFunction,Conductor*%
D27*
G36*
X68875702Y-86778326D02*
G01*
X69075661Y-86818100D01*
X69137798Y-86818100D01*
X69181000Y-86861302D01*
X69181001Y-95058796D01*
X66821403Y-97418396D01*
X66792399Y-97442199D01*
X66737271Y-97509374D01*
X66697426Y-97557924D01*
X66673854Y-97602024D01*
X66626854Y-97689954D01*
X66583397Y-97833215D01*
X66572400Y-97944868D01*
X66572400Y-97944878D01*
X66568724Y-97982200D01*
X66572400Y-98019523D01*
X66572401Y-103590168D01*
X66568724Y-103627500D01*
X66572401Y-103664833D01*
X66576019Y-103701561D01*
X66583398Y-103776485D01*
X66626854Y-103919746D01*
X66697426Y-104051776D01*
X66763238Y-104131967D01*
X66792400Y-104167501D01*
X66821397Y-104191298D01*
X67281105Y-104651007D01*
X67304899Y-104680001D01*
X67333892Y-104703795D01*
X67333896Y-104703799D01*
X67399361Y-104757524D01*
X67420624Y-104774974D01*
X67420673Y-104775000D01*
X67420624Y-104775026D01*
X67304899Y-104869999D01*
X67281100Y-104898998D01*
X66818702Y-105361397D01*
X66789699Y-105385199D01*
X66756207Y-105426010D01*
X66694726Y-105500924D01*
X66630692Y-105620723D01*
X66624154Y-105632954D01*
X66580697Y-105776215D01*
X66569700Y-105887868D01*
X66569700Y-105887878D01*
X66566024Y-105925200D01*
X66569700Y-105962522D01*
X66569701Y-122263667D01*
X66566024Y-122301000D01*
X66569701Y-122338333D01*
X66578917Y-122431898D01*
X66580698Y-122449985D01*
X66624154Y-122593246D01*
X66694726Y-122725276D01*
X66762661Y-122808054D01*
X66789700Y-122841001D01*
X66818698Y-122864799D01*
X67785200Y-123831302D01*
X67785200Y-125589482D01*
X67743158Y-125572068D01*
X67456260Y-125515000D01*
X67163740Y-125515000D01*
X66876842Y-125572068D01*
X66606589Y-125684010D01*
X66598048Y-125689717D01*
X66693905Y-125546256D01*
X66771926Y-125357898D01*
X66811700Y-125157939D01*
X66811700Y-124954061D01*
X66771926Y-124754102D01*
X66693905Y-124565744D01*
X66580637Y-124396226D01*
X66536700Y-124352289D01*
X66536700Y-97582701D01*
X68479703Y-95639699D01*
X68508701Y-95615901D01*
X68563215Y-95549476D01*
X68603674Y-95500177D01*
X68674246Y-95368147D01*
X68691149Y-95312424D01*
X68717703Y-95224886D01*
X68728700Y-95113233D01*
X68728700Y-95113224D01*
X68732376Y-95075901D01*
X68728700Y-95038578D01*
X68728700Y-86717435D01*
X68875702Y-86778326D01*
G37*
%TD.AperFunction*%
D26*
X93792000Y-120523000D02*
X93812000Y-120523000D01*
X93812000Y-120777000D01*
X93792000Y-120777000D01*
X93792000Y-120797000D01*
X93538000Y-120797000D01*
X93538000Y-120777000D01*
X93523500Y-120777000D01*
X93523500Y-120523000D01*
X93538000Y-120523000D01*
X93538000Y-120503000D01*
X93792000Y-120503000D01*
X93792000Y-120523000D01*
%TA.AperFunction,Conductor*%
D27*
G36*
X93792000Y-120523000D02*
G01*
X93812000Y-120523000D01*
X93812000Y-120777000D01*
X93792000Y-120777000D01*
X93792000Y-120797000D01*
X93538000Y-120797000D01*
X93538000Y-120777000D01*
X93523500Y-120777000D01*
X93523500Y-120523000D01*
X93538000Y-120523000D01*
X93538000Y-120503000D01*
X93792000Y-120503000D01*
X93792000Y-120523000D01*
G37*
%TD.AperFunction*%
D26*
X78292998Y-119338099D02*
X78292998Y-119448748D01*
X78134250Y-119290000D01*
X77920000Y-119286928D01*
X77795518Y-119299188D01*
X77675820Y-119335498D01*
X77565506Y-119394463D01*
X77468815Y-119473815D01*
X77403342Y-119553594D01*
X77397962Y-119547038D01*
X77263386Y-119436595D01*
X77109850Y-119354528D01*
X76943254Y-119303992D01*
X76770000Y-119286928D01*
X76408507Y-119286928D01*
X75815000Y-118693422D01*
X75815000Y-116860101D01*
X78292998Y-119338099D01*
%TA.AperFunction,Conductor*%
D27*
G36*
X78292998Y-119338099D02*
G01*
X78292998Y-119448748D01*
X78134250Y-119290000D01*
X77920000Y-119286928D01*
X77795518Y-119299188D01*
X77675820Y-119335498D01*
X77565506Y-119394463D01*
X77468815Y-119473815D01*
X77403342Y-119553594D01*
X77397962Y-119547038D01*
X77263386Y-119436595D01*
X77109850Y-119354528D01*
X76943254Y-119303992D01*
X76770000Y-119286928D01*
X76408507Y-119286928D01*
X75815000Y-118693422D01*
X75815000Y-116860101D01*
X78292998Y-119338099D01*
G37*
%TD.AperFunction*%
D26*
X92530000Y-92424250D02*
X92688750Y-92583000D01*
X93538000Y-92583000D01*
X93538000Y-92563000D01*
X93792000Y-92563000D01*
X93792000Y-92583000D01*
X93812000Y-92583000D01*
X93812000Y-92837000D01*
X93792000Y-92837000D01*
X93792000Y-93911250D01*
X93950750Y-94070000D01*
X94165000Y-94073072D01*
X94289482Y-94060812D01*
X94409180Y-94024502D01*
X94475701Y-93988945D01*
X94475700Y-103179128D01*
X94299544Y-103252095D01*
X94130026Y-103365363D01*
X93985863Y-103509526D01*
X93872595Y-103679044D01*
X93794574Y-103867402D01*
X93754800Y-104067361D01*
X93754800Y-104271239D01*
X93794574Y-104471198D01*
X93872595Y-104659556D01*
X93985863Y-104829074D01*
X94029132Y-104872343D01*
X94029800Y-104879122D01*
X94029800Y-104879132D01*
X94040797Y-104990785D01*
X94081366Y-105124524D01*
X94084254Y-105134046D01*
X94154826Y-105266076D01*
X94179382Y-105295997D01*
X94249799Y-105381801D01*
X94278803Y-105405604D01*
X94873928Y-106000730D01*
X94873928Y-106200000D01*
X94889167Y-106354721D01*
X94934297Y-106503496D01*
X95000486Y-106627326D01*
X94981463Y-106650506D01*
X94922498Y-106760820D01*
X94886188Y-106880518D01*
X94873928Y-107005000D01*
X94877000Y-107029250D01*
X95035750Y-107188000D01*
X96585000Y-107188000D01*
X96585000Y-107168000D01*
X96839000Y-107168000D01*
X96839000Y-107188000D01*
X96859000Y-107188000D01*
X96859000Y-107442000D01*
X96839000Y-107442000D01*
X96839000Y-107462000D01*
X96585000Y-107462000D01*
X96585000Y-107442000D01*
X95035750Y-107442000D01*
X94877000Y-107600750D01*
X94873928Y-107625000D01*
X94886188Y-107749482D01*
X94922498Y-107869180D01*
X94981463Y-107979494D01*
X95000486Y-108002674D01*
X94934297Y-108126504D01*
X94889167Y-108275279D01*
X94873928Y-108430000D01*
X94873928Y-108740000D01*
X94889167Y-108894721D01*
X94934297Y-109043496D01*
X95007585Y-109180607D01*
X95039914Y-109220000D01*
X95007585Y-109259393D01*
X94934297Y-109396504D01*
X94889167Y-109545279D01*
X94873928Y-109700000D01*
X94873928Y-110010000D01*
X94889167Y-110164721D01*
X94934297Y-110313496D01*
X95007585Y-110450607D01*
X95039914Y-110490000D01*
X95007585Y-110529393D01*
X94934297Y-110666504D01*
X94889167Y-110815279D01*
X94887181Y-110835440D01*
X93850256Y-111872366D01*
X93816483Y-111900083D01*
X93705889Y-112034842D01*
X93623711Y-112188588D01*
X93600481Y-112265167D01*
X93573693Y-112353474D01*
X93573105Y-112355411D01*
X93560300Y-112485424D01*
X93560300Y-112485431D01*
X93556019Y-112528900D01*
X93560300Y-112572369D01*
X93560301Y-119290000D01*
X93537998Y-119290000D01*
X93537998Y-119448748D01*
X93523500Y-119434250D01*
X93523500Y-106035722D01*
X93527176Y-105998399D01*
X93523500Y-105961076D01*
X93523500Y-105961067D01*
X93512503Y-105849414D01*
X93469046Y-105706153D01*
X93456828Y-105683295D01*
X93398474Y-105574123D01*
X93327299Y-105487397D01*
X93303501Y-105458399D01*
X93274503Y-105434601D01*
X87658904Y-99819003D01*
X87635101Y-99789999D01*
X87626821Y-99783204D01*
X87679498Y-99772726D01*
X87867856Y-99694705D01*
X88037374Y-99581437D01*
X88181537Y-99437274D01*
X88294805Y-99267756D01*
X88372826Y-99079398D01*
X88412600Y-98879439D01*
X88412600Y-98675561D01*
X88372826Y-98475602D01*
X88294805Y-98287244D01*
X88181537Y-98117726D01*
X88037374Y-97973563D01*
X87867856Y-97860295D01*
X87679498Y-97782274D01*
X87479539Y-97742500D01*
X87275661Y-97742500D01*
X87075702Y-97782274D01*
X86887344Y-97860295D01*
X86717826Y-97973563D01*
X86649461Y-98041928D01*
X84838072Y-98041928D01*
X84838072Y-96110000D01*
X84825812Y-95985518D01*
X84795176Y-95884525D01*
X86682727Y-93996975D01*
X86779498Y-93977726D01*
X86967856Y-93899705D01*
X87137374Y-93786437D01*
X87281537Y-93642274D01*
X87394805Y-93472756D01*
X87410444Y-93435000D01*
X92526928Y-93435000D01*
X92539188Y-93559482D01*
X92575498Y-93679180D01*
X92634463Y-93789494D01*
X92713815Y-93886185D01*
X92810506Y-93965537D01*
X92920820Y-94024502D01*
X93040518Y-94060812D01*
X93165000Y-94073072D01*
X93379250Y-94070000D01*
X93538000Y-93911250D01*
X93538000Y-92837000D01*
X92688750Y-92837000D01*
X92530000Y-92995750D01*
X92526928Y-93435000D01*
X87410444Y-93435000D01*
X87472826Y-93284398D01*
X87512600Y-93084439D01*
X87512600Y-92880561D01*
X87472826Y-92680602D01*
X87394805Y-92492244D01*
X87302634Y-92354300D01*
X92529511Y-92354300D01*
X92530000Y-92424250D01*
%TA.AperFunction,Conductor*%
D27*
G36*
X92530000Y-92424250D02*
G01*
X92688750Y-92583000D01*
X93538000Y-92583000D01*
X93538000Y-92563000D01*
X93792000Y-92563000D01*
X93792000Y-92583000D01*
X93812000Y-92583000D01*
X93812000Y-92837000D01*
X93792000Y-92837000D01*
X93792000Y-93911250D01*
X93950750Y-94070000D01*
X94165000Y-94073072D01*
X94289482Y-94060812D01*
X94409180Y-94024502D01*
X94475701Y-93988945D01*
X94475700Y-103179128D01*
X94299544Y-103252095D01*
X94130026Y-103365363D01*
X93985863Y-103509526D01*
X93872595Y-103679044D01*
X93794574Y-103867402D01*
X93754800Y-104067361D01*
X93754800Y-104271239D01*
X93794574Y-104471198D01*
X93872595Y-104659556D01*
X93985863Y-104829074D01*
X94029132Y-104872343D01*
X94029800Y-104879122D01*
X94029800Y-104879132D01*
X94040797Y-104990785D01*
X94081366Y-105124524D01*
X94084254Y-105134046D01*
X94154826Y-105266076D01*
X94179382Y-105295997D01*
X94249799Y-105381801D01*
X94278803Y-105405604D01*
X94873928Y-106000730D01*
X94873928Y-106200000D01*
X94889167Y-106354721D01*
X94934297Y-106503496D01*
X95000486Y-106627326D01*
X94981463Y-106650506D01*
X94922498Y-106760820D01*
X94886188Y-106880518D01*
X94873928Y-107005000D01*
X94877000Y-107029250D01*
X95035750Y-107188000D01*
X96585000Y-107188000D01*
X96585000Y-107168000D01*
X96839000Y-107168000D01*
X96839000Y-107188000D01*
X96859000Y-107188000D01*
X96859000Y-107442000D01*
X96839000Y-107442000D01*
X96839000Y-107462000D01*
X96585000Y-107462000D01*
X96585000Y-107442000D01*
X95035750Y-107442000D01*
X94877000Y-107600750D01*
X94873928Y-107625000D01*
X94886188Y-107749482D01*
X94922498Y-107869180D01*
X94981463Y-107979494D01*
X95000486Y-108002674D01*
X94934297Y-108126504D01*
X94889167Y-108275279D01*
X94873928Y-108430000D01*
X94873928Y-108740000D01*
X94889167Y-108894721D01*
X94934297Y-109043496D01*
X95007585Y-109180607D01*
X95039914Y-109220000D01*
X95007585Y-109259393D01*
X94934297Y-109396504D01*
X94889167Y-109545279D01*
X94873928Y-109700000D01*
X94873928Y-110010000D01*
X94889167Y-110164721D01*
X94934297Y-110313496D01*
X95007585Y-110450607D01*
X95039914Y-110490000D01*
X95007585Y-110529393D01*
X94934297Y-110666504D01*
X94889167Y-110815279D01*
X94887181Y-110835440D01*
X93850256Y-111872366D01*
X93816483Y-111900083D01*
X93705889Y-112034842D01*
X93623711Y-112188588D01*
X93600481Y-112265167D01*
X93573693Y-112353474D01*
X93573105Y-112355411D01*
X93560300Y-112485424D01*
X93560300Y-112485431D01*
X93556019Y-112528900D01*
X93560300Y-112572369D01*
X93560301Y-119290000D01*
X93537998Y-119290000D01*
X93537998Y-119448748D01*
X93523500Y-119434250D01*
X93523500Y-106035722D01*
X93527176Y-105998399D01*
X93523500Y-105961076D01*
X93523500Y-105961067D01*
X93512503Y-105849414D01*
X93469046Y-105706153D01*
X93456828Y-105683295D01*
X93398474Y-105574123D01*
X93327299Y-105487397D01*
X93303501Y-105458399D01*
X93274503Y-105434601D01*
X87658904Y-99819003D01*
X87635101Y-99789999D01*
X87626821Y-99783204D01*
X87679498Y-99772726D01*
X87867856Y-99694705D01*
X88037374Y-99581437D01*
X88181537Y-99437274D01*
X88294805Y-99267756D01*
X88372826Y-99079398D01*
X88412600Y-98879439D01*
X88412600Y-98675561D01*
X88372826Y-98475602D01*
X88294805Y-98287244D01*
X88181537Y-98117726D01*
X88037374Y-97973563D01*
X87867856Y-97860295D01*
X87679498Y-97782274D01*
X87479539Y-97742500D01*
X87275661Y-97742500D01*
X87075702Y-97782274D01*
X86887344Y-97860295D01*
X86717826Y-97973563D01*
X86649461Y-98041928D01*
X84838072Y-98041928D01*
X84838072Y-96110000D01*
X84825812Y-95985518D01*
X84795176Y-95884525D01*
X86682727Y-93996975D01*
X86779498Y-93977726D01*
X86967856Y-93899705D01*
X87137374Y-93786437D01*
X87281537Y-93642274D01*
X87394805Y-93472756D01*
X87410444Y-93435000D01*
X92526928Y-93435000D01*
X92539188Y-93559482D01*
X92575498Y-93679180D01*
X92634463Y-93789494D01*
X92713815Y-93886185D01*
X92810506Y-93965537D01*
X92920820Y-94024502D01*
X93040518Y-94060812D01*
X93165000Y-94073072D01*
X93379250Y-94070000D01*
X93538000Y-93911250D01*
X93538000Y-92837000D01*
X92688750Y-92837000D01*
X92530000Y-92995750D01*
X92526928Y-93435000D01*
X87410444Y-93435000D01*
X87472826Y-93284398D01*
X87512600Y-93084439D01*
X87512600Y-92880561D01*
X87472826Y-92680602D01*
X87394805Y-92492244D01*
X87302634Y-92354300D01*
X92529511Y-92354300D01*
X92530000Y-92424250D01*
G37*
%TD.AperFunction*%
D26*
X81407000Y-113433000D02*
X81427000Y-113433000D01*
X81427000Y-113687000D01*
X81407000Y-113687000D01*
X81407000Y-115186250D01*
X81565750Y-115345000D01*
X81660000Y-115348072D01*
X81784482Y-115335812D01*
X81790001Y-115334138D01*
X81790001Y-116089668D01*
X81786324Y-116127000D01*
X81790001Y-116164333D01*
X81800998Y-116275986D01*
X81812309Y-116313274D01*
X81810800Y-116320861D01*
X81810800Y-116524739D01*
X81850574Y-116724698D01*
X81928595Y-116913056D01*
X82041863Y-117082574D01*
X82085801Y-117126512D01*
X82085800Y-117980999D01*
X80432000Y-116327199D01*
X80432000Y-115687901D01*
X80520997Y-115598904D01*
X80550001Y-115575101D01*
X80644974Y-115459376D01*
X80715546Y-115327347D01*
X80718248Y-115318439D01*
X80775518Y-115335812D01*
X80900000Y-115348072D01*
X80994250Y-115345000D01*
X81153000Y-115186250D01*
X81153000Y-113687000D01*
X81133000Y-113687000D01*
X81133000Y-113433000D01*
X81153000Y-113433000D01*
X81153000Y-113413000D01*
X81407000Y-113413000D01*
X81407000Y-113433000D01*
%TA.AperFunction,Conductor*%
D27*
G36*
X81407000Y-113433000D02*
G01*
X81427000Y-113433000D01*
X81427000Y-113687000D01*
X81407000Y-113687000D01*
X81407000Y-115186250D01*
X81565750Y-115345000D01*
X81660000Y-115348072D01*
X81784482Y-115335812D01*
X81790001Y-115334138D01*
X81790001Y-116089668D01*
X81786324Y-116127000D01*
X81790001Y-116164333D01*
X81800998Y-116275986D01*
X81812309Y-116313274D01*
X81810800Y-116320861D01*
X81810800Y-116524739D01*
X81850574Y-116724698D01*
X81928595Y-116913056D01*
X82041863Y-117082574D01*
X82085801Y-117126512D01*
X82085800Y-117980999D01*
X80432000Y-116327199D01*
X80432000Y-115687901D01*
X80520997Y-115598904D01*
X80550001Y-115575101D01*
X80644974Y-115459376D01*
X80715546Y-115327347D01*
X80718248Y-115318439D01*
X80775518Y-115335812D01*
X80900000Y-115348072D01*
X80994250Y-115345000D01*
X81153000Y-115186250D01*
X81153000Y-113687000D01*
X81133000Y-113687000D01*
X81133000Y-113433000D01*
X81153000Y-113433000D01*
X81153000Y-113413000D01*
X81407000Y-113413000D01*
X81407000Y-113433000D01*
G37*
%TD.AperFunction*%
D26*
X69447000Y-107823000D02*
X69467000Y-107823000D01*
X69467000Y-108077000D01*
X69447000Y-108077000D01*
X69447000Y-108097000D01*
X69193000Y-108097000D01*
X69193000Y-108077000D01*
X69173000Y-108077000D01*
X69173000Y-107823000D01*
X69193000Y-107823000D01*
X69193000Y-107803000D01*
X69447000Y-107803000D01*
X69447000Y-107823000D01*
%TA.AperFunction,Conductor*%
D27*
G36*
X69447000Y-107823000D02*
G01*
X69467000Y-107823000D01*
X69467000Y-108077000D01*
X69447000Y-108077000D01*
X69447000Y-108097000D01*
X69193000Y-108097000D01*
X69193000Y-108077000D01*
X69173000Y-108077000D01*
X69173000Y-107823000D01*
X69193000Y-107823000D01*
X69193000Y-107803000D01*
X69447000Y-107803000D01*
X69447000Y-107823000D01*
G37*
%TD.AperFunction*%
D26*
X74689626Y-104003737D02*
X74859144Y-104117005D01*
X75047502Y-104195026D01*
X75247461Y-104234800D01*
X75423201Y-104234800D01*
X75423201Y-104619420D01*
X74279856Y-105762766D01*
X74246083Y-105790483D01*
X74158551Y-105897140D01*
X74057974Y-105796563D01*
X73888456Y-105683295D01*
X73700098Y-105605274D01*
X73500139Y-105565500D01*
X73296261Y-105565500D01*
X73096302Y-105605274D01*
X72907944Y-105683295D01*
X72738426Y-105796563D01*
X72594263Y-105940726D01*
X72480995Y-106110244D01*
X72402974Y-106298602D01*
X72363200Y-106498561D01*
X72363200Y-106560698D01*
X71100901Y-107822998D01*
X70946252Y-107822998D01*
X71105000Y-107664250D01*
X71108072Y-107570000D01*
X71095812Y-107445518D01*
X71059502Y-107325820D01*
X71053718Y-107315000D01*
X71059502Y-107304180D01*
X71095812Y-107184482D01*
X71108072Y-107060000D01*
X71108072Y-106300000D01*
X71095812Y-106175518D01*
X71094138Y-106170000D01*
X71550078Y-106170000D01*
X71587400Y-106173676D01*
X71624722Y-106170000D01*
X71624733Y-106170000D01*
X71736386Y-106159003D01*
X71879647Y-106115546D01*
X72011676Y-106044974D01*
X72127401Y-105950001D01*
X72151204Y-105920997D01*
X74112402Y-103959800D01*
X74645689Y-103959800D01*
X74689626Y-104003737D01*
%TA.AperFunction,Conductor*%
D27*
G36*
X74689626Y-104003737D02*
G01*
X74859144Y-104117005D01*
X75047502Y-104195026D01*
X75247461Y-104234800D01*
X75423201Y-104234800D01*
X75423201Y-104619420D01*
X74279856Y-105762766D01*
X74246083Y-105790483D01*
X74158551Y-105897140D01*
X74057974Y-105796563D01*
X73888456Y-105683295D01*
X73700098Y-105605274D01*
X73500139Y-105565500D01*
X73296261Y-105565500D01*
X73096302Y-105605274D01*
X72907944Y-105683295D01*
X72738426Y-105796563D01*
X72594263Y-105940726D01*
X72480995Y-106110244D01*
X72402974Y-106298602D01*
X72363200Y-106498561D01*
X72363200Y-106560698D01*
X71100901Y-107822998D01*
X70946252Y-107822998D01*
X71105000Y-107664250D01*
X71108072Y-107570000D01*
X71095812Y-107445518D01*
X71059502Y-107325820D01*
X71053718Y-107315000D01*
X71059502Y-107304180D01*
X71095812Y-107184482D01*
X71108072Y-107060000D01*
X71108072Y-106300000D01*
X71095812Y-106175518D01*
X71094138Y-106170000D01*
X71550078Y-106170000D01*
X71587400Y-106173676D01*
X71624722Y-106170000D01*
X71624733Y-106170000D01*
X71736386Y-106159003D01*
X71879647Y-106115546D01*
X72011676Y-106044974D01*
X72127401Y-105950001D01*
X72151204Y-105920997D01*
X74112402Y-103959800D01*
X74645689Y-103959800D01*
X74689626Y-104003737D01*
G37*
%TD.AperFunction*%
D26*
X85747000Y-105283000D02*
X85767000Y-105283000D01*
X85767000Y-105537000D01*
X85747000Y-105537000D01*
X85747000Y-105557000D01*
X85493000Y-105557000D01*
X85493000Y-105537000D01*
X85473000Y-105537000D01*
X85473000Y-105283000D01*
X85493000Y-105283000D01*
X85493000Y-105263000D01*
X85747000Y-105263000D01*
X85747000Y-105283000D01*
%TA.AperFunction,Conductor*%
D27*
G36*
X85747000Y-105283000D02*
G01*
X85767000Y-105283000D01*
X85767000Y-105537000D01*
X85747000Y-105537000D01*
X85747000Y-105557000D01*
X85493000Y-105557000D01*
X85493000Y-105537000D01*
X85473000Y-105537000D01*
X85473000Y-105283000D01*
X85493000Y-105283000D01*
X85493000Y-105263000D01*
X85747000Y-105263000D01*
X85747000Y-105283000D01*
G37*
%TD.AperFunction*%
D26*
X83440000Y-99048072D02*
X83831928Y-99048072D01*
X83831928Y-99440000D01*
X83844188Y-99564482D01*
X83880498Y-99684180D01*
X83886282Y-99695000D01*
X83880498Y-99705820D01*
X83844188Y-99825518D01*
X83831928Y-99950000D01*
X83831928Y-100710000D01*
X83844188Y-100834482D01*
X83880498Y-100954180D01*
X83886282Y-100965000D01*
X83880498Y-100975820D01*
X83844188Y-101095518D01*
X83831928Y-101220000D01*
X83831928Y-101980000D01*
X83844188Y-102104482D01*
X83880498Y-102224180D01*
X83886282Y-102235000D01*
X83880498Y-102245820D01*
X83844188Y-102365518D01*
X83831928Y-102490000D01*
X83831928Y-103250000D01*
X83844188Y-103374482D01*
X83880498Y-103494180D01*
X83886282Y-103505000D01*
X83880498Y-103515820D01*
X83844188Y-103635518D01*
X83831928Y-103760000D01*
X83831928Y-104520000D01*
X83844188Y-104644482D01*
X83880498Y-104764180D01*
X83886282Y-104775000D01*
X83880498Y-104785820D01*
X83844188Y-104905518D01*
X83831928Y-105030000D01*
X83835000Y-105124250D01*
X83993748Y-105282998D01*
X83835000Y-105282998D01*
X83835000Y-105293521D01*
X83160900Y-104619422D01*
X83160900Y-99553621D01*
X83178817Y-99538917D01*
X83289411Y-99404159D01*
X83371589Y-99250413D01*
X83412963Y-99114024D01*
X83422195Y-99083591D01*
X83425830Y-99046676D01*
X83440000Y-99048072D01*
%TA.AperFunction,Conductor*%
D27*
G36*
X83440000Y-99048072D02*
G01*
X83831928Y-99048072D01*
X83831928Y-99440000D01*
X83844188Y-99564482D01*
X83880498Y-99684180D01*
X83886282Y-99695000D01*
X83880498Y-99705820D01*
X83844188Y-99825518D01*
X83831928Y-99950000D01*
X83831928Y-100710000D01*
X83844188Y-100834482D01*
X83880498Y-100954180D01*
X83886282Y-100965000D01*
X83880498Y-100975820D01*
X83844188Y-101095518D01*
X83831928Y-101220000D01*
X83831928Y-101980000D01*
X83844188Y-102104482D01*
X83880498Y-102224180D01*
X83886282Y-102235000D01*
X83880498Y-102245820D01*
X83844188Y-102365518D01*
X83831928Y-102490000D01*
X83831928Y-103250000D01*
X83844188Y-103374482D01*
X83880498Y-103494180D01*
X83886282Y-103505000D01*
X83880498Y-103515820D01*
X83844188Y-103635518D01*
X83831928Y-103760000D01*
X83831928Y-104520000D01*
X83844188Y-104644482D01*
X83880498Y-104764180D01*
X83886282Y-104775000D01*
X83880498Y-104785820D01*
X83844188Y-104905518D01*
X83831928Y-105030000D01*
X83835000Y-105124250D01*
X83993748Y-105282998D01*
X83835000Y-105282998D01*
X83835000Y-105293521D01*
X83160900Y-104619422D01*
X83160900Y-99553621D01*
X83178817Y-99538917D01*
X83289411Y-99404159D01*
X83371589Y-99250413D01*
X83412963Y-99114024D01*
X83422195Y-99083591D01*
X83425830Y-99046676D01*
X83440000Y-99048072D01*
G37*
%TD.AperFunction*%
D26*
X76327000Y-97133000D02*
X76347000Y-97133000D01*
X76347000Y-97387000D01*
X76327000Y-97387000D01*
X76327000Y-98886250D01*
X76485750Y-99045000D01*
X76580000Y-99048072D01*
X76704482Y-99035812D01*
X76824180Y-98999502D01*
X76835000Y-98993718D01*
X76845820Y-98999502D01*
X76965518Y-99035812D01*
X77090000Y-99048072D01*
X77850000Y-99048072D01*
X77974482Y-99035812D01*
X78094180Y-98999502D01*
X78105000Y-98993718D01*
X78115820Y-98999502D01*
X78235518Y-99035812D01*
X78360000Y-99048072D01*
X79120000Y-99048072D01*
X79244482Y-99035812D01*
X79250001Y-99034138D01*
X79250000Y-102948689D01*
X79206063Y-102992626D01*
X79092795Y-103162144D01*
X79015756Y-103348131D01*
X79001305Y-103313244D01*
X78888037Y-103143726D01*
X78844100Y-103099789D01*
X78844100Y-101235822D01*
X78847776Y-101198499D01*
X78844100Y-101161176D01*
X78844100Y-101161167D01*
X78833103Y-101049514D01*
X78789646Y-100906253D01*
X78719074Y-100774224D01*
X78624101Y-100658499D01*
X78595103Y-100634701D01*
X77327104Y-99366703D01*
X77303301Y-99337699D01*
X77187576Y-99242726D01*
X77055547Y-99172154D01*
X76912286Y-99128697D01*
X76800633Y-99117700D01*
X76800622Y-99117700D01*
X76763300Y-99114024D01*
X76725978Y-99117700D01*
X73847403Y-99117700D01*
X73777774Y-99048072D01*
X74040000Y-99048072D01*
X74164482Y-99035812D01*
X74284180Y-98999502D01*
X74295000Y-98993718D01*
X74305820Y-98999502D01*
X74425518Y-99035812D01*
X74550000Y-99048072D01*
X75310000Y-99048072D01*
X75434482Y-99035812D01*
X75554180Y-98999502D01*
X75565000Y-98993718D01*
X75575820Y-98999502D01*
X75695518Y-99035812D01*
X75820000Y-99048072D01*
X75914250Y-99045000D01*
X76073000Y-98886250D01*
X76073000Y-97387000D01*
X76053000Y-97387000D01*
X76053000Y-97133000D01*
X76073000Y-97133000D01*
X76073000Y-97113000D01*
X76327000Y-97113000D01*
X76327000Y-97133000D01*
%TA.AperFunction,Conductor*%
D27*
G36*
X76327000Y-97133000D02*
G01*
X76347000Y-97133000D01*
X76347000Y-97387000D01*
X76327000Y-97387000D01*
X76327000Y-98886250D01*
X76485750Y-99045000D01*
X76580000Y-99048072D01*
X76704482Y-99035812D01*
X76824180Y-98999502D01*
X76835000Y-98993718D01*
X76845820Y-98999502D01*
X76965518Y-99035812D01*
X77090000Y-99048072D01*
X77850000Y-99048072D01*
X77974482Y-99035812D01*
X78094180Y-98999502D01*
X78105000Y-98993718D01*
X78115820Y-98999502D01*
X78235518Y-99035812D01*
X78360000Y-99048072D01*
X79120000Y-99048072D01*
X79244482Y-99035812D01*
X79250001Y-99034138D01*
X79250000Y-102948689D01*
X79206063Y-102992626D01*
X79092795Y-103162144D01*
X79015756Y-103348131D01*
X79001305Y-103313244D01*
X78888037Y-103143726D01*
X78844100Y-103099789D01*
X78844100Y-101235822D01*
X78847776Y-101198499D01*
X78844100Y-101161176D01*
X78844100Y-101161167D01*
X78833103Y-101049514D01*
X78789646Y-100906253D01*
X78719074Y-100774224D01*
X78624101Y-100658499D01*
X78595103Y-100634701D01*
X77327104Y-99366703D01*
X77303301Y-99337699D01*
X77187576Y-99242726D01*
X77055547Y-99172154D01*
X76912286Y-99128697D01*
X76800633Y-99117700D01*
X76800622Y-99117700D01*
X76763300Y-99114024D01*
X76725978Y-99117700D01*
X73847403Y-99117700D01*
X73777774Y-99048072D01*
X74040000Y-99048072D01*
X74164482Y-99035812D01*
X74284180Y-98999502D01*
X74295000Y-98993718D01*
X74305820Y-98999502D01*
X74425518Y-99035812D01*
X74550000Y-99048072D01*
X75310000Y-99048072D01*
X75434482Y-99035812D01*
X75554180Y-98999502D01*
X75565000Y-98993718D01*
X75575820Y-98999502D01*
X75695518Y-99035812D01*
X75820000Y-99048072D01*
X75914250Y-99045000D01*
X76073000Y-98886250D01*
X76073000Y-97387000D01*
X76053000Y-97387000D01*
X76053000Y-97133000D01*
X76073000Y-97133000D01*
X76073000Y-97113000D01*
X76327000Y-97113000D01*
X76327000Y-97133000D01*
G37*
%TD.AperFunction*%
D26*
X73144454Y-68600346D02*
X73215026Y-68732376D01*
X73273139Y-68803186D01*
X73310000Y-68848101D01*
X73338998Y-68871899D01*
X95814026Y-91346928D01*
X95339506Y-91346928D01*
X94866834Y-90874256D01*
X94839117Y-90840483D01*
X94704359Y-90729889D01*
X94550613Y-90647711D01*
X94383790Y-90597105D01*
X94253777Y-90584300D01*
X94253769Y-90584300D01*
X94210300Y-90580019D01*
X94166831Y-90584300D01*
X86734069Y-90584300D01*
X86690600Y-90580019D01*
X86647131Y-90584300D01*
X86647123Y-90584300D01*
X86517110Y-90597105D01*
X86350286Y-90647711D01*
X86196541Y-90729889D01*
X86095553Y-90812768D01*
X86095551Y-90812770D01*
X86061783Y-90840483D01*
X86034070Y-90874251D01*
X82623300Y-94285022D01*
X82623300Y-89022411D01*
X82667237Y-88978474D01*
X82780505Y-88808956D01*
X82858526Y-88620598D01*
X82898300Y-88420639D01*
X82898300Y-88216761D01*
X82858526Y-88016802D01*
X82780505Y-87828444D01*
X82667237Y-87658926D01*
X82523074Y-87514763D01*
X82353556Y-87401495D01*
X82165198Y-87323474D01*
X81965239Y-87283700D01*
X81761361Y-87283700D01*
X81561402Y-87323474D01*
X81373044Y-87401495D01*
X81203526Y-87514763D01*
X81059363Y-87658926D01*
X80946095Y-87828444D01*
X80868074Y-88016802D01*
X80828300Y-88216761D01*
X80828300Y-88420639D01*
X80868074Y-88620598D01*
X80946095Y-88808956D01*
X81059363Y-88978474D01*
X81103301Y-89022412D01*
X81103300Y-94886798D01*
X80768998Y-95221101D01*
X80740000Y-95244899D01*
X80716202Y-95273897D01*
X80716201Y-95273898D01*
X80645026Y-95360624D01*
X80574454Y-95492654D01*
X80571752Y-95501561D01*
X80514482Y-95484188D01*
X80390000Y-95471928D01*
X80002000Y-95471928D01*
X80002000Y-95407761D01*
X79962226Y-95207802D01*
X79884205Y-95019444D01*
X79770937Y-94849926D01*
X79626774Y-94705763D01*
X79457256Y-94592495D01*
X79268898Y-94514474D01*
X79068939Y-94474700D01*
X78865061Y-94474700D01*
X78665102Y-94514474D01*
X78476744Y-94592495D01*
X78355975Y-94673190D01*
X78235356Y-94592595D01*
X78046998Y-94514574D01*
X77847039Y-94474800D01*
X77643161Y-94474800D01*
X77443202Y-94514574D01*
X77254844Y-94592595D01*
X77085326Y-94705863D01*
X76941163Y-94850026D01*
X76827895Y-95019544D01*
X76749874Y-95207902D01*
X76710100Y-95407861D01*
X76710100Y-95485892D01*
X76704482Y-95484188D01*
X76580000Y-95471928D01*
X76485750Y-95475000D01*
X76327002Y-95633748D01*
X76327002Y-95475000D01*
X76264483Y-95475000D01*
X76295246Y-95417447D01*
X76338703Y-95274186D01*
X76349700Y-95162533D01*
X76349700Y-95162525D01*
X76353376Y-95125200D01*
X76349700Y-95087875D01*
X76349700Y-93550311D01*
X76393637Y-93506374D01*
X76506905Y-93336856D01*
X76584926Y-93148498D01*
X76624700Y-92948539D01*
X76624700Y-92744661D01*
X76584926Y-92544702D01*
X76506905Y-92356344D01*
X76393637Y-92186826D01*
X76249474Y-92042663D01*
X76079956Y-91929395D01*
X75891598Y-91851374D01*
X75691639Y-91811600D01*
X75487761Y-91811600D01*
X75287802Y-91851374D01*
X75099444Y-91929395D01*
X74929926Y-92042663D01*
X74785763Y-92186826D01*
X74672495Y-92356344D01*
X74594474Y-92544702D01*
X74554700Y-92744661D01*
X74554700Y-92948539D01*
X74594474Y-93148498D01*
X74639492Y-93257180D01*
X74562602Y-93272474D01*
X74374244Y-93350495D01*
X74204726Y-93463763D01*
X74160789Y-93507700D01*
X72674523Y-93507700D01*
X72637200Y-93504024D01*
X72599877Y-93507700D01*
X72599867Y-93507700D01*
X72488214Y-93518697D01*
X72344953Y-93562154D01*
X72279800Y-93596980D01*
X72279800Y-85463722D01*
X72283476Y-85426399D01*
X72279800Y-85389076D01*
X72279800Y-85389067D01*
X72268803Y-85277414D01*
X72225346Y-85134153D01*
X72154774Y-85002124D01*
X72059801Y-84886399D01*
X72030798Y-84862597D01*
X71822590Y-84654389D01*
X71820000Y-84463250D01*
X71661250Y-84304500D01*
X70612000Y-84304500D01*
X70612000Y-84324500D01*
X70358000Y-84324500D01*
X70358000Y-84304500D01*
X70338000Y-84304500D01*
X70338000Y-84050500D01*
X70358000Y-84050500D01*
X70358000Y-83188750D01*
X70612000Y-83188750D01*
X70612000Y-84050500D01*
X71661250Y-84050500D01*
X71820000Y-83891750D01*
X71823072Y-83665000D01*
X71810812Y-83540518D01*
X71774502Y-83420820D01*
X71715537Y-83310506D01*
X71636185Y-83213815D01*
X71539494Y-83134463D01*
X71429180Y-83075498D01*
X71309482Y-83039188D01*
X71185000Y-83026928D01*
X70770750Y-83030000D01*
X70612000Y-83188750D01*
X70358000Y-83188750D01*
X70199250Y-83030000D01*
X70144700Y-83029595D01*
X70144700Y-78527601D01*
X70229211Y-78443090D01*
X70258227Y-78419275D01*
X70282017Y-78390284D01*
X70409229Y-78263072D01*
X70935001Y-78263072D01*
X71108255Y-78246008D01*
X71274851Y-78195472D01*
X71428387Y-78113405D01*
X71562962Y-78002962D01*
X71673405Y-77868387D01*
X71755472Y-77714851D01*
X71806008Y-77548255D01*
X71823072Y-77375001D01*
X71823072Y-76849999D01*
X71806008Y-76676745D01*
X71755472Y-76510149D01*
X71673405Y-76356613D01*
X71606724Y-76275363D01*
X71636185Y-76251185D01*
X71715537Y-76154494D01*
X71774502Y-76044180D01*
X71810812Y-75924482D01*
X71823072Y-75800000D01*
X71820000Y-75573250D01*
X71661250Y-75414500D01*
X70612000Y-75414500D01*
X70612000Y-75434500D01*
X70358000Y-75434500D01*
X70358000Y-75414500D01*
X70338000Y-75414500D01*
X70338000Y-75160500D01*
X70358000Y-75160500D01*
X70358000Y-74298750D01*
X70612000Y-74298750D01*
X70612000Y-75160500D01*
X71661250Y-75160500D01*
X71820000Y-75001750D01*
X71823072Y-74775000D01*
X71810812Y-74650518D01*
X71774502Y-74530820D01*
X71715537Y-74420506D01*
X71636185Y-74323815D01*
X71539494Y-74244463D01*
X71429180Y-74185498D01*
X71309482Y-74149188D01*
X71185000Y-74136928D01*
X70770750Y-74140000D01*
X70612000Y-74298750D01*
X70358000Y-74298750D01*
X70199250Y-74140000D01*
X69785000Y-74136928D01*
X69660518Y-74149188D01*
X69540820Y-74185498D01*
X69430506Y-74244463D01*
X69333815Y-74323815D01*
X69254463Y-74420506D01*
X69212500Y-74499012D01*
X69212500Y-73877401D01*
X72861003Y-70228899D01*
X72890001Y-70205101D01*
X72984974Y-70089376D01*
X73055546Y-69957347D01*
X73099003Y-69814086D01*
X73110000Y-69702433D01*
X73110000Y-69702424D01*
X73113676Y-69665101D01*
X73110000Y-69627778D01*
X73110000Y-68486762D01*
X73144454Y-68600346D01*
%TA.AperFunction,Conductor*%
D27*
G36*
X73144454Y-68600346D02*
G01*
X73215026Y-68732376D01*
X73273139Y-68803186D01*
X73310000Y-68848101D01*
X73338998Y-68871899D01*
X95814026Y-91346928D01*
X95339506Y-91346928D01*
X94866834Y-90874256D01*
X94839117Y-90840483D01*
X94704359Y-90729889D01*
X94550613Y-90647711D01*
X94383790Y-90597105D01*
X94253777Y-90584300D01*
X94253769Y-90584300D01*
X94210300Y-90580019D01*
X94166831Y-90584300D01*
X86734069Y-90584300D01*
X86690600Y-90580019D01*
X86647131Y-90584300D01*
X86647123Y-90584300D01*
X86517110Y-90597105D01*
X86350286Y-90647711D01*
X86196541Y-90729889D01*
X86095553Y-90812768D01*
X86095551Y-90812770D01*
X86061783Y-90840483D01*
X86034070Y-90874251D01*
X82623300Y-94285022D01*
X82623300Y-89022411D01*
X82667237Y-88978474D01*
X82780505Y-88808956D01*
X82858526Y-88620598D01*
X82898300Y-88420639D01*
X82898300Y-88216761D01*
X82858526Y-88016802D01*
X82780505Y-87828444D01*
X82667237Y-87658926D01*
X82523074Y-87514763D01*
X82353556Y-87401495D01*
X82165198Y-87323474D01*
X81965239Y-87283700D01*
X81761361Y-87283700D01*
X81561402Y-87323474D01*
X81373044Y-87401495D01*
X81203526Y-87514763D01*
X81059363Y-87658926D01*
X80946095Y-87828444D01*
X80868074Y-88016802D01*
X80828300Y-88216761D01*
X80828300Y-88420639D01*
X80868074Y-88620598D01*
X80946095Y-88808956D01*
X81059363Y-88978474D01*
X81103301Y-89022412D01*
X81103300Y-94886798D01*
X80768998Y-95221101D01*
X80740000Y-95244899D01*
X80716202Y-95273897D01*
X80716201Y-95273898D01*
X80645026Y-95360624D01*
X80574454Y-95492654D01*
X80571752Y-95501561D01*
X80514482Y-95484188D01*
X80390000Y-95471928D01*
X80002000Y-95471928D01*
X80002000Y-95407761D01*
X79962226Y-95207802D01*
X79884205Y-95019444D01*
X79770937Y-94849926D01*
X79626774Y-94705763D01*
X79457256Y-94592495D01*
X79268898Y-94514474D01*
X79068939Y-94474700D01*
X78865061Y-94474700D01*
X78665102Y-94514474D01*
X78476744Y-94592495D01*
X78355975Y-94673190D01*
X78235356Y-94592595D01*
X78046998Y-94514574D01*
X77847039Y-94474800D01*
X77643161Y-94474800D01*
X77443202Y-94514574D01*
X77254844Y-94592595D01*
X77085326Y-94705863D01*
X76941163Y-94850026D01*
X76827895Y-95019544D01*
X76749874Y-95207902D01*
X76710100Y-95407861D01*
X76710100Y-95485892D01*
X76704482Y-95484188D01*
X76580000Y-95471928D01*
X76485750Y-95475000D01*
X76327002Y-95633748D01*
X76327002Y-95475000D01*
X76264483Y-95475000D01*
X76295246Y-95417447D01*
X76338703Y-95274186D01*
X76349700Y-95162533D01*
X76349700Y-95162525D01*
X76353376Y-95125200D01*
X76349700Y-95087875D01*
X76349700Y-93550311D01*
X76393637Y-93506374D01*
X76506905Y-93336856D01*
X76584926Y-93148498D01*
X76624700Y-92948539D01*
X76624700Y-92744661D01*
X76584926Y-92544702D01*
X76506905Y-92356344D01*
X76393637Y-92186826D01*
X76249474Y-92042663D01*
X76079956Y-91929395D01*
X75891598Y-91851374D01*
X75691639Y-91811600D01*
X75487761Y-91811600D01*
X75287802Y-91851374D01*
X75099444Y-91929395D01*
X74929926Y-92042663D01*
X74785763Y-92186826D01*
X74672495Y-92356344D01*
X74594474Y-92544702D01*
X74554700Y-92744661D01*
X74554700Y-92948539D01*
X74594474Y-93148498D01*
X74639492Y-93257180D01*
X74562602Y-93272474D01*
X74374244Y-93350495D01*
X74204726Y-93463763D01*
X74160789Y-93507700D01*
X72674523Y-93507700D01*
X72637200Y-93504024D01*
X72599877Y-93507700D01*
X72599867Y-93507700D01*
X72488214Y-93518697D01*
X72344953Y-93562154D01*
X72279800Y-93596980D01*
X72279800Y-85463722D01*
X72283476Y-85426399D01*
X72279800Y-85389076D01*
X72279800Y-85389067D01*
X72268803Y-85277414D01*
X72225346Y-85134153D01*
X72154774Y-85002124D01*
X72059801Y-84886399D01*
X72030798Y-84862597D01*
X71822590Y-84654389D01*
X71820000Y-84463250D01*
X71661250Y-84304500D01*
X70612000Y-84304500D01*
X70612000Y-84324500D01*
X70358000Y-84324500D01*
X70358000Y-84304500D01*
X70338000Y-84304500D01*
X70338000Y-84050500D01*
X70358000Y-84050500D01*
X70358000Y-83188750D01*
X70612000Y-83188750D01*
X70612000Y-84050500D01*
X71661250Y-84050500D01*
X71820000Y-83891750D01*
X71823072Y-83665000D01*
X71810812Y-83540518D01*
X71774502Y-83420820D01*
X71715537Y-83310506D01*
X71636185Y-83213815D01*
X71539494Y-83134463D01*
X71429180Y-83075498D01*
X71309482Y-83039188D01*
X71185000Y-83026928D01*
X70770750Y-83030000D01*
X70612000Y-83188750D01*
X70358000Y-83188750D01*
X70199250Y-83030000D01*
X70144700Y-83029595D01*
X70144700Y-78527601D01*
X70229211Y-78443090D01*
X70258227Y-78419275D01*
X70282017Y-78390284D01*
X70409229Y-78263072D01*
X70935001Y-78263072D01*
X71108255Y-78246008D01*
X71274851Y-78195472D01*
X71428387Y-78113405D01*
X71562962Y-78002962D01*
X71673405Y-77868387D01*
X71755472Y-77714851D01*
X71806008Y-77548255D01*
X71823072Y-77375001D01*
X71823072Y-76849999D01*
X71806008Y-76676745D01*
X71755472Y-76510149D01*
X71673405Y-76356613D01*
X71606724Y-76275363D01*
X71636185Y-76251185D01*
X71715537Y-76154494D01*
X71774502Y-76044180D01*
X71810812Y-75924482D01*
X71823072Y-75800000D01*
X71820000Y-75573250D01*
X71661250Y-75414500D01*
X70612000Y-75414500D01*
X70612000Y-75434500D01*
X70358000Y-75434500D01*
X70358000Y-75414500D01*
X70338000Y-75414500D01*
X70338000Y-75160500D01*
X70358000Y-75160500D01*
X70358000Y-74298750D01*
X70612000Y-74298750D01*
X70612000Y-75160500D01*
X71661250Y-75160500D01*
X71820000Y-75001750D01*
X71823072Y-74775000D01*
X71810812Y-74650518D01*
X71774502Y-74530820D01*
X71715537Y-74420506D01*
X71636185Y-74323815D01*
X71539494Y-74244463D01*
X71429180Y-74185498D01*
X71309482Y-74149188D01*
X71185000Y-74136928D01*
X70770750Y-74140000D01*
X70612000Y-74298750D01*
X70358000Y-74298750D01*
X70199250Y-74140000D01*
X69785000Y-74136928D01*
X69660518Y-74149188D01*
X69540820Y-74185498D01*
X69430506Y-74244463D01*
X69333815Y-74323815D01*
X69254463Y-74420506D01*
X69212500Y-74499012D01*
X69212500Y-73877401D01*
X72861003Y-70228899D01*
X72890001Y-70205101D01*
X72984974Y-70089376D01*
X73055546Y-69957347D01*
X73099003Y-69814086D01*
X73110000Y-69702433D01*
X73110000Y-69702424D01*
X73113676Y-69665101D01*
X73110000Y-69627778D01*
X73110000Y-68486762D01*
X73144454Y-68600346D01*
G37*
%TD.AperFunction*%
D26*
X73211928Y-40840000D02*
X73211928Y-44340000D01*
X73224188Y-44464482D01*
X73260498Y-44584180D01*
X73319463Y-44694494D01*
X73398815Y-44791185D01*
X73495506Y-44870537D01*
X73605820Y-44929502D01*
X73725518Y-44965812D01*
X73850000Y-44978072D01*
X79350000Y-44978072D01*
X79474482Y-44965812D01*
X79594180Y-44929502D01*
X79704494Y-44870537D01*
X79801185Y-44791185D01*
X79880537Y-44694494D01*
X79939502Y-44584180D01*
X79975812Y-44464482D01*
X79988072Y-44340000D01*
X79988072Y-40840000D01*
X79980882Y-40767000D01*
X99219118Y-40767000D01*
X99211928Y-40840000D01*
X99211928Y-44340000D01*
X99224188Y-44464482D01*
X99260498Y-44584180D01*
X99319463Y-44694494D01*
X99398815Y-44791185D01*
X99495506Y-44870537D01*
X99605820Y-44929502D01*
X99725518Y-44965812D01*
X99850000Y-44978072D01*
X105350000Y-44978072D01*
X105474482Y-44965812D01*
X105594180Y-44929502D01*
X105704494Y-44870537D01*
X105801185Y-44791185D01*
X105880537Y-44694494D01*
X105939502Y-44584180D01*
X105975812Y-44464482D01*
X105988072Y-44340000D01*
X105988072Y-40840000D01*
X105980882Y-40767000D01*
X117165000Y-40767000D01*
X117165001Y-90415000D01*
X113384801Y-90415000D01*
X114250903Y-89548899D01*
X114279901Y-89525101D01*
X114374874Y-89409376D01*
X114445446Y-89277347D01*
X114488903Y-89134086D01*
X114499900Y-89022433D01*
X114499900Y-89022424D01*
X114503576Y-88985101D01*
X114499900Y-88947778D01*
X114499900Y-61236123D01*
X114503576Y-61198800D01*
X114499900Y-61161477D01*
X114499900Y-61161467D01*
X114488903Y-61049814D01*
X114445446Y-60906553D01*
X114374874Y-60774524D01*
X114279901Y-60658799D01*
X114250898Y-60634997D01*
X113999704Y-60383803D01*
X113975901Y-60354799D01*
X113860176Y-60259826D01*
X113728147Y-60189254D01*
X113584886Y-60145797D01*
X113473233Y-60134800D01*
X113473222Y-60134800D01*
X113435900Y-60131124D01*
X113398578Y-60134800D01*
X110007422Y-60134800D01*
X109970099Y-60131124D01*
X109932777Y-60134800D01*
X109932767Y-60134800D01*
X109821114Y-60145797D01*
X109677853Y-60189254D01*
X109545824Y-60259826D01*
X109430099Y-60354799D01*
X109406296Y-60383803D01*
X109338998Y-60451101D01*
X109310000Y-60474899D01*
X109286202Y-60503897D01*
X109286201Y-60503898D01*
X109215026Y-60590624D01*
X109144454Y-60722654D01*
X109139067Y-60740413D01*
X109105820Y-60750498D01*
X109100000Y-60753609D01*
X109094180Y-60750498D01*
X108974482Y-60714188D01*
X108850000Y-60701928D01*
X107850000Y-60701928D01*
X107725518Y-60714188D01*
X107605820Y-60750498D01*
X107600000Y-60753609D01*
X107594180Y-60750498D01*
X107474482Y-60714188D01*
X107350000Y-60701928D01*
X106350000Y-60701928D01*
X106225518Y-60714188D01*
X106105820Y-60750498D01*
X106100000Y-60753609D01*
X106094180Y-60750498D01*
X105974482Y-60714188D01*
X105850000Y-60701928D01*
X104850000Y-60701928D01*
X104725518Y-60714188D01*
X104605820Y-60750498D01*
X104600000Y-60753609D01*
X104594180Y-60750498D01*
X104474482Y-60714188D01*
X104350000Y-60701928D01*
X103350000Y-60701928D01*
X103225518Y-60714188D01*
X103105820Y-60750498D01*
X103100000Y-60753609D01*
X103094180Y-60750498D01*
X102974482Y-60714188D01*
X102850000Y-60701928D01*
X101850000Y-60701928D01*
X101725518Y-60714188D01*
X101605820Y-60750498D01*
X101600000Y-60753609D01*
X101594180Y-60750498D01*
X101474482Y-60714188D01*
X101350000Y-60701928D01*
X100350000Y-60701928D01*
X100225518Y-60714188D01*
X100105820Y-60750498D01*
X100100000Y-60753609D01*
X100094180Y-60750498D01*
X99974482Y-60714188D01*
X99850000Y-60701928D01*
X98850000Y-60701928D01*
X98725518Y-60714188D01*
X98605820Y-60750498D01*
X98600000Y-60753609D01*
X98594180Y-60750498D01*
X98474482Y-60714188D01*
X98350000Y-60701928D01*
X97350000Y-60701928D01*
X97225518Y-60714188D01*
X97105820Y-60750498D01*
X97100000Y-60753609D01*
X97094180Y-60750498D01*
X96974482Y-60714188D01*
X96850000Y-60701928D01*
X95850000Y-60701928D01*
X95725518Y-60714188D01*
X95605820Y-60750498D01*
X95600000Y-60753609D01*
X95594180Y-60750498D01*
X95474482Y-60714188D01*
X95350000Y-60701928D01*
X94350000Y-60701928D01*
X94225518Y-60714188D01*
X94105820Y-60750498D01*
X94100000Y-60753609D01*
X94094180Y-60750498D01*
X93974482Y-60714188D01*
X93850000Y-60701928D01*
X92850000Y-60701928D01*
X92725518Y-60714188D01*
X92605820Y-60750498D01*
X92600000Y-60753609D01*
X92594180Y-60750498D01*
X92474482Y-60714188D01*
X92350000Y-60701928D01*
X91350000Y-60701928D01*
X91225518Y-60714188D01*
X91105820Y-60750498D01*
X91100000Y-60753609D01*
X91094180Y-60750498D01*
X90974482Y-60714188D01*
X90850000Y-60701928D01*
X89850000Y-60701928D01*
X89725518Y-60714188D01*
X89605820Y-60750498D01*
X89600000Y-60753609D01*
X89594180Y-60750498D01*
X89474482Y-60714188D01*
X89350000Y-60701928D01*
X88350000Y-60701928D01*
X88225518Y-60714188D01*
X88105820Y-60750498D01*
X88100000Y-60753609D01*
X88094180Y-60750498D01*
X87974482Y-60714188D01*
X87850000Y-60701928D01*
X86850000Y-60701928D01*
X86725518Y-60714188D01*
X86605820Y-60750498D01*
X86600000Y-60753609D01*
X86594180Y-60750498D01*
X86474482Y-60714188D01*
X86350000Y-60701928D01*
X85350000Y-60701928D01*
X85225518Y-60714188D01*
X85105820Y-60750498D01*
X85100000Y-60753609D01*
X85094180Y-60750498D01*
X84974482Y-60714188D01*
X84850000Y-60701928D01*
X83850000Y-60701928D01*
X83725518Y-60714188D01*
X83605820Y-60750498D01*
X83600000Y-60753609D01*
X83594180Y-60750498D01*
X83474482Y-60714188D01*
X83350000Y-60701928D01*
X82350000Y-60701928D01*
X82225518Y-60714188D01*
X82105820Y-60750498D01*
X82100000Y-60753609D01*
X82094180Y-60750498D01*
X81974482Y-60714188D01*
X81850000Y-60701928D01*
X80850000Y-60701928D01*
X80725518Y-60714188D01*
X80605820Y-60750498D01*
X80600000Y-60753609D01*
X80594180Y-60750498D01*
X80474482Y-60714188D01*
X80350000Y-60701928D01*
X79350000Y-60701928D01*
X79225518Y-60714188D01*
X79105820Y-60750498D01*
X79100000Y-60753609D01*
X79094180Y-60750498D01*
X78974482Y-60714188D01*
X78850000Y-60701928D01*
X77850000Y-60701928D01*
X77725518Y-60714188D01*
X77605820Y-60750498D01*
X77600000Y-60753609D01*
X77594180Y-60750498D01*
X77474482Y-60714188D01*
X77350000Y-60701928D01*
X76350000Y-60701928D01*
X76225518Y-60714188D01*
X76105820Y-60750498D01*
X76100000Y-60753609D01*
X76094180Y-60750498D01*
X75974482Y-60714188D01*
X75850000Y-60701928D01*
X74850000Y-60701928D01*
X74725518Y-60714188D01*
X74605820Y-60750498D01*
X74600000Y-60753609D01*
X74594180Y-60750498D01*
X74474482Y-60714188D01*
X74350000Y-60701928D01*
X73350000Y-60701928D01*
X73225518Y-60714188D01*
X73105820Y-60750498D01*
X73100000Y-60753609D01*
X73094180Y-60750498D01*
X72974482Y-60714188D01*
X72850000Y-60701928D01*
X71850000Y-60701928D01*
X71725518Y-60714188D01*
X71605820Y-60750498D01*
X71600000Y-60753609D01*
X71594180Y-60750498D01*
X71474482Y-60714188D01*
X71350000Y-60701928D01*
X70350000Y-60701928D01*
X70225518Y-60714188D01*
X70105820Y-60750498D01*
X70100000Y-60753609D01*
X70094180Y-60750498D01*
X69974482Y-60714188D01*
X69850000Y-60701928D01*
X68850000Y-60701928D01*
X68725518Y-60714188D01*
X68605820Y-60750498D01*
X68600000Y-60753609D01*
X68594180Y-60750498D01*
X68474482Y-60714188D01*
X68350000Y-60701928D01*
X67350000Y-60701928D01*
X67225518Y-60714188D01*
X67105820Y-60750498D01*
X67100000Y-60753609D01*
X67094180Y-60750498D01*
X66974482Y-60714188D01*
X66850000Y-60701928D01*
X66635750Y-60705000D01*
X66477000Y-60863750D01*
X66477000Y-63713000D01*
X66497000Y-63713000D01*
X66497000Y-63967000D01*
X66477000Y-63967000D01*
X66477000Y-66816250D01*
X66635750Y-66975000D01*
X66712740Y-66976104D01*
X66706524Y-66996597D01*
X66701605Y-67012811D01*
X66688800Y-67142824D01*
X66688800Y-67142831D01*
X66684519Y-67186300D01*
X66688800Y-67229769D01*
X66688801Y-75599921D01*
X66678556Y-75610166D01*
X66644783Y-75637883D01*
X66534189Y-75772642D01*
X66452011Y-75926388D01*
X66429321Y-76001186D01*
X66403427Y-76086547D01*
X66401405Y-76093211D01*
X66388600Y-76223224D01*
X66388600Y-76223231D01*
X66384319Y-76266700D01*
X66388600Y-76310169D01*
X66388600Y-77468337D01*
X66379159Y-77460589D01*
X66225413Y-77378411D01*
X66058590Y-77327805D01*
X66015544Y-77323565D01*
X66010812Y-77275518D01*
X65974502Y-77155820D01*
X65915537Y-77045506D01*
X65836185Y-76948815D01*
X65819290Y-76934950D01*
X65917182Y-76751808D01*
X65999236Y-76481309D01*
X66026943Y-76200000D01*
X65999236Y-75918691D01*
X65917182Y-75648192D01*
X65783932Y-75398899D01*
X65620700Y-75200000D01*
X65783932Y-75001101D01*
X65917182Y-74751808D01*
X65999236Y-74481309D01*
X66026943Y-74200000D01*
X65999236Y-73918691D01*
X65917182Y-73648192D01*
X65783932Y-73398899D01*
X65697282Y-73293315D01*
X65796714Y-73211714D01*
X66001031Y-72962752D01*
X66152852Y-72678715D01*
X66246343Y-72370516D01*
X66277911Y-72050000D01*
X66246343Y-71729484D01*
X66152852Y-71421285D01*
X66001031Y-71137248D01*
X65796714Y-70888286D01*
X65547752Y-70683969D01*
X65263715Y-70532148D01*
X64955516Y-70438657D01*
X64715322Y-70415000D01*
X63554678Y-70415000D01*
X63314484Y-70438657D01*
X63006285Y-70532148D01*
X62722248Y-70683969D01*
X62473286Y-70888286D01*
X62268969Y-71137248D01*
X62117148Y-71421285D01*
X62035000Y-71692091D01*
X62035000Y-66340000D01*
X65211928Y-66340000D01*
X65224188Y-66464482D01*
X65260498Y-66584180D01*
X65319463Y-66694494D01*
X65398815Y-66791185D01*
X65495506Y-66870537D01*
X65605820Y-66929502D01*
X65725518Y-66965812D01*
X65850000Y-66978072D01*
X66064250Y-66975000D01*
X66223000Y-66816250D01*
X66223000Y-63967000D01*
X65373750Y-63967000D01*
X65215000Y-64125750D01*
X65211928Y-66340000D01*
X62035000Y-66340000D01*
X62035000Y-61340000D01*
X65211928Y-61340000D01*
X65215000Y-63554250D01*
X65373750Y-63713000D01*
X66223000Y-63713000D01*
X66223000Y-60863750D01*
X66064250Y-60705000D01*
X65850000Y-60701928D01*
X65725518Y-60714188D01*
X65605820Y-60750498D01*
X65495506Y-60809463D01*
X65398815Y-60888815D01*
X65319463Y-60985506D01*
X65260498Y-61095820D01*
X65224188Y-61215518D01*
X65211928Y-61340000D01*
X62035000Y-61340000D01*
X62035000Y-55169117D01*
X74865000Y-55169117D01*
X74865000Y-55510883D01*
X74931675Y-55846081D01*
X75062463Y-56161831D01*
X75252337Y-56445998D01*
X75494002Y-56687663D01*
X75778169Y-56877537D01*
X76093919Y-57008325D01*
X76429117Y-57075000D01*
X76770883Y-57075000D01*
X77106081Y-57008325D01*
X77421831Y-56877537D01*
X77705998Y-56687663D01*
X77947663Y-56445998D01*
X78137537Y-56161831D01*
X78268325Y-55846081D01*
X78335000Y-55510883D01*
X78335000Y-55169117D01*
X100865000Y-55169117D01*
X100865000Y-55510883D01*
X100931675Y-55846081D01*
X101062463Y-56161831D01*
X101252337Y-56445998D01*
X101494002Y-56687663D01*
X101778169Y-56877537D01*
X102093919Y-57008325D01*
X102429117Y-57075000D01*
X102770883Y-57075000D01*
X103106081Y-57008325D01*
X103421831Y-56877537D01*
X103705998Y-56687663D01*
X103947663Y-56445998D01*
X104137537Y-56161831D01*
X104268325Y-55846081D01*
X104335000Y-55510883D01*
X104335000Y-55169117D01*
X104268325Y-54833919D01*
X104137537Y-54518169D01*
X103947663Y-54234002D01*
X103705998Y-53992337D01*
X103421831Y-53802463D01*
X103106081Y-53671675D01*
X102770883Y-53605000D01*
X102429117Y-53605000D01*
X102093919Y-53671675D01*
X101778169Y-53802463D01*
X101494002Y-53992337D01*
X101252337Y-54234002D01*
X101062463Y-54518169D01*
X100931675Y-54833919D01*
X100865000Y-55169117D01*
X78335000Y-55169117D01*
X78268325Y-54833919D01*
X78137537Y-54518169D01*
X77947663Y-54234002D01*
X77705998Y-53992337D01*
X77421831Y-53802463D01*
X77106081Y-53671675D01*
X76770883Y-53605000D01*
X76429117Y-53605000D01*
X76093919Y-53671675D01*
X75778169Y-53802463D01*
X75494002Y-53992337D01*
X75252337Y-54234002D01*
X75062463Y-54518169D01*
X74931675Y-54833919D01*
X74865000Y-55169117D01*
X62035000Y-55169117D01*
X62035000Y-40767000D01*
X73219118Y-40767000D01*
X73211928Y-40840000D01*
%TA.AperFunction,Conductor*%
D27*
G36*
X73211928Y-40840000D02*
G01*
X73211928Y-44340000D01*
X73224188Y-44464482D01*
X73260498Y-44584180D01*
X73319463Y-44694494D01*
X73398815Y-44791185D01*
X73495506Y-44870537D01*
X73605820Y-44929502D01*
X73725518Y-44965812D01*
X73850000Y-44978072D01*
X79350000Y-44978072D01*
X79474482Y-44965812D01*
X79594180Y-44929502D01*
X79704494Y-44870537D01*
X79801185Y-44791185D01*
X79880537Y-44694494D01*
X79939502Y-44584180D01*
X79975812Y-44464482D01*
X79988072Y-44340000D01*
X79988072Y-40840000D01*
X79980882Y-40767000D01*
X99219118Y-40767000D01*
X99211928Y-40840000D01*
X99211928Y-44340000D01*
X99224188Y-44464482D01*
X99260498Y-44584180D01*
X99319463Y-44694494D01*
X99398815Y-44791185D01*
X99495506Y-44870537D01*
X99605820Y-44929502D01*
X99725518Y-44965812D01*
X99850000Y-44978072D01*
X105350000Y-44978072D01*
X105474482Y-44965812D01*
X105594180Y-44929502D01*
X105704494Y-44870537D01*
X105801185Y-44791185D01*
X105880537Y-44694494D01*
X105939502Y-44584180D01*
X105975812Y-44464482D01*
X105988072Y-44340000D01*
X105988072Y-40840000D01*
X105980882Y-40767000D01*
X117165000Y-40767000D01*
X117165001Y-90415000D01*
X113384801Y-90415000D01*
X114250903Y-89548899D01*
X114279901Y-89525101D01*
X114374874Y-89409376D01*
X114445446Y-89277347D01*
X114488903Y-89134086D01*
X114499900Y-89022433D01*
X114499900Y-89022424D01*
X114503576Y-88985101D01*
X114499900Y-88947778D01*
X114499900Y-61236123D01*
X114503576Y-61198800D01*
X114499900Y-61161477D01*
X114499900Y-61161467D01*
X114488903Y-61049814D01*
X114445446Y-60906553D01*
X114374874Y-60774524D01*
X114279901Y-60658799D01*
X114250898Y-60634997D01*
X113999704Y-60383803D01*
X113975901Y-60354799D01*
X113860176Y-60259826D01*
X113728147Y-60189254D01*
X113584886Y-60145797D01*
X113473233Y-60134800D01*
X113473222Y-60134800D01*
X113435900Y-60131124D01*
X113398578Y-60134800D01*
X110007422Y-60134800D01*
X109970099Y-60131124D01*
X109932777Y-60134800D01*
X109932767Y-60134800D01*
X109821114Y-60145797D01*
X109677853Y-60189254D01*
X109545824Y-60259826D01*
X109430099Y-60354799D01*
X109406296Y-60383803D01*
X109338998Y-60451101D01*
X109310000Y-60474899D01*
X109286202Y-60503897D01*
X109286201Y-60503898D01*
X109215026Y-60590624D01*
X109144454Y-60722654D01*
X109139067Y-60740413D01*
X109105820Y-60750498D01*
X109100000Y-60753609D01*
X109094180Y-60750498D01*
X108974482Y-60714188D01*
X108850000Y-60701928D01*
X107850000Y-60701928D01*
X107725518Y-60714188D01*
X107605820Y-60750498D01*
X107600000Y-60753609D01*
X107594180Y-60750498D01*
X107474482Y-60714188D01*
X107350000Y-60701928D01*
X106350000Y-60701928D01*
X106225518Y-60714188D01*
X106105820Y-60750498D01*
X106100000Y-60753609D01*
X106094180Y-60750498D01*
X105974482Y-60714188D01*
X105850000Y-60701928D01*
X104850000Y-60701928D01*
X104725518Y-60714188D01*
X104605820Y-60750498D01*
X104600000Y-60753609D01*
X104594180Y-60750498D01*
X104474482Y-60714188D01*
X104350000Y-60701928D01*
X103350000Y-60701928D01*
X103225518Y-60714188D01*
X103105820Y-60750498D01*
X103100000Y-60753609D01*
X103094180Y-60750498D01*
X102974482Y-60714188D01*
X102850000Y-60701928D01*
X101850000Y-60701928D01*
X101725518Y-60714188D01*
X101605820Y-60750498D01*
X101600000Y-60753609D01*
X101594180Y-60750498D01*
X101474482Y-60714188D01*
X101350000Y-60701928D01*
X100350000Y-60701928D01*
X100225518Y-60714188D01*
X100105820Y-60750498D01*
X100100000Y-60753609D01*
X100094180Y-60750498D01*
X99974482Y-60714188D01*
X99850000Y-60701928D01*
X98850000Y-60701928D01*
X98725518Y-60714188D01*
X98605820Y-60750498D01*
X98600000Y-60753609D01*
X98594180Y-60750498D01*
X98474482Y-60714188D01*
X98350000Y-60701928D01*
X97350000Y-60701928D01*
X97225518Y-60714188D01*
X97105820Y-60750498D01*
X97100000Y-60753609D01*
X97094180Y-60750498D01*
X96974482Y-60714188D01*
X96850000Y-60701928D01*
X95850000Y-60701928D01*
X95725518Y-60714188D01*
X95605820Y-60750498D01*
X95600000Y-60753609D01*
X95594180Y-60750498D01*
X95474482Y-60714188D01*
X95350000Y-60701928D01*
X94350000Y-60701928D01*
X94225518Y-60714188D01*
X94105820Y-60750498D01*
X94100000Y-60753609D01*
X94094180Y-60750498D01*
X93974482Y-60714188D01*
X93850000Y-60701928D01*
X92850000Y-60701928D01*
X92725518Y-60714188D01*
X92605820Y-60750498D01*
X92600000Y-60753609D01*
X92594180Y-60750498D01*
X92474482Y-60714188D01*
X92350000Y-60701928D01*
X91350000Y-60701928D01*
X91225518Y-60714188D01*
X91105820Y-60750498D01*
X91100000Y-60753609D01*
X91094180Y-60750498D01*
X90974482Y-60714188D01*
X90850000Y-60701928D01*
X89850000Y-60701928D01*
X89725518Y-60714188D01*
X89605820Y-60750498D01*
X89600000Y-60753609D01*
X89594180Y-60750498D01*
X89474482Y-60714188D01*
X89350000Y-60701928D01*
X88350000Y-60701928D01*
X88225518Y-60714188D01*
X88105820Y-60750498D01*
X88100000Y-60753609D01*
X88094180Y-60750498D01*
X87974482Y-60714188D01*
X87850000Y-60701928D01*
X86850000Y-60701928D01*
X86725518Y-60714188D01*
X86605820Y-60750498D01*
X86600000Y-60753609D01*
X86594180Y-60750498D01*
X86474482Y-60714188D01*
X86350000Y-60701928D01*
X85350000Y-60701928D01*
X85225518Y-60714188D01*
X85105820Y-60750498D01*
X85100000Y-60753609D01*
X85094180Y-60750498D01*
X84974482Y-60714188D01*
X84850000Y-60701928D01*
X83850000Y-60701928D01*
X83725518Y-60714188D01*
X83605820Y-60750498D01*
X83600000Y-60753609D01*
X83594180Y-60750498D01*
X83474482Y-60714188D01*
X83350000Y-60701928D01*
X82350000Y-60701928D01*
X82225518Y-60714188D01*
X82105820Y-60750498D01*
X82100000Y-60753609D01*
X82094180Y-60750498D01*
X81974482Y-60714188D01*
X81850000Y-60701928D01*
X80850000Y-60701928D01*
X80725518Y-60714188D01*
X80605820Y-60750498D01*
X80600000Y-60753609D01*
X80594180Y-60750498D01*
X80474482Y-60714188D01*
X80350000Y-60701928D01*
X79350000Y-60701928D01*
X79225518Y-60714188D01*
X79105820Y-60750498D01*
X79100000Y-60753609D01*
X79094180Y-60750498D01*
X78974482Y-60714188D01*
X78850000Y-60701928D01*
X77850000Y-60701928D01*
X77725518Y-60714188D01*
X77605820Y-60750498D01*
X77600000Y-60753609D01*
X77594180Y-60750498D01*
X77474482Y-60714188D01*
X77350000Y-60701928D01*
X76350000Y-60701928D01*
X76225518Y-60714188D01*
X76105820Y-60750498D01*
X76100000Y-60753609D01*
X76094180Y-60750498D01*
X75974482Y-60714188D01*
X75850000Y-60701928D01*
X74850000Y-60701928D01*
X74725518Y-60714188D01*
X74605820Y-60750498D01*
X74600000Y-60753609D01*
X74594180Y-60750498D01*
X74474482Y-60714188D01*
X74350000Y-60701928D01*
X73350000Y-60701928D01*
X73225518Y-60714188D01*
X73105820Y-60750498D01*
X73100000Y-60753609D01*
X73094180Y-60750498D01*
X72974482Y-60714188D01*
X72850000Y-60701928D01*
X71850000Y-60701928D01*
X71725518Y-60714188D01*
X71605820Y-60750498D01*
X71600000Y-60753609D01*
X71594180Y-60750498D01*
X71474482Y-60714188D01*
X71350000Y-60701928D01*
X70350000Y-60701928D01*
X70225518Y-60714188D01*
X70105820Y-60750498D01*
X70100000Y-60753609D01*
X70094180Y-60750498D01*
X69974482Y-60714188D01*
X69850000Y-60701928D01*
X68850000Y-60701928D01*
X68725518Y-60714188D01*
X68605820Y-60750498D01*
X68600000Y-60753609D01*
X68594180Y-60750498D01*
X68474482Y-60714188D01*
X68350000Y-60701928D01*
X67350000Y-60701928D01*
X67225518Y-60714188D01*
X67105820Y-60750498D01*
X67100000Y-60753609D01*
X67094180Y-60750498D01*
X66974482Y-60714188D01*
X66850000Y-60701928D01*
X66635750Y-60705000D01*
X66477000Y-60863750D01*
X66477000Y-63713000D01*
X66497000Y-63713000D01*
X66497000Y-63967000D01*
X66477000Y-63967000D01*
X66477000Y-66816250D01*
X66635750Y-66975000D01*
X66712740Y-66976104D01*
X66706524Y-66996597D01*
X66701605Y-67012811D01*
X66688800Y-67142824D01*
X66688800Y-67142831D01*
X66684519Y-67186300D01*
X66688800Y-67229769D01*
X66688801Y-75599921D01*
X66678556Y-75610166D01*
X66644783Y-75637883D01*
X66534189Y-75772642D01*
X66452011Y-75926388D01*
X66429321Y-76001186D01*
X66403427Y-76086547D01*
X66401405Y-76093211D01*
X66388600Y-76223224D01*
X66388600Y-76223231D01*
X66384319Y-76266700D01*
X66388600Y-76310169D01*
X66388600Y-77468337D01*
X66379159Y-77460589D01*
X66225413Y-77378411D01*
X66058590Y-77327805D01*
X66015544Y-77323565D01*
X66010812Y-77275518D01*
X65974502Y-77155820D01*
X65915537Y-77045506D01*
X65836185Y-76948815D01*
X65819290Y-76934950D01*
X65917182Y-76751808D01*
X65999236Y-76481309D01*
X66026943Y-76200000D01*
X65999236Y-75918691D01*
X65917182Y-75648192D01*
X65783932Y-75398899D01*
X65620700Y-75200000D01*
X65783932Y-75001101D01*
X65917182Y-74751808D01*
X65999236Y-74481309D01*
X66026943Y-74200000D01*
X65999236Y-73918691D01*
X65917182Y-73648192D01*
X65783932Y-73398899D01*
X65697282Y-73293315D01*
X65796714Y-73211714D01*
X66001031Y-72962752D01*
X66152852Y-72678715D01*
X66246343Y-72370516D01*
X66277911Y-72050000D01*
X66246343Y-71729484D01*
X66152852Y-71421285D01*
X66001031Y-71137248D01*
X65796714Y-70888286D01*
X65547752Y-70683969D01*
X65263715Y-70532148D01*
X64955516Y-70438657D01*
X64715322Y-70415000D01*
X63554678Y-70415000D01*
X63314484Y-70438657D01*
X63006285Y-70532148D01*
X62722248Y-70683969D01*
X62473286Y-70888286D01*
X62268969Y-71137248D01*
X62117148Y-71421285D01*
X62035000Y-71692091D01*
X62035000Y-66340000D01*
X65211928Y-66340000D01*
X65224188Y-66464482D01*
X65260498Y-66584180D01*
X65319463Y-66694494D01*
X65398815Y-66791185D01*
X65495506Y-66870537D01*
X65605820Y-66929502D01*
X65725518Y-66965812D01*
X65850000Y-66978072D01*
X66064250Y-66975000D01*
X66223000Y-66816250D01*
X66223000Y-63967000D01*
X65373750Y-63967000D01*
X65215000Y-64125750D01*
X65211928Y-66340000D01*
X62035000Y-66340000D01*
X62035000Y-61340000D01*
X65211928Y-61340000D01*
X65215000Y-63554250D01*
X65373750Y-63713000D01*
X66223000Y-63713000D01*
X66223000Y-60863750D01*
X66064250Y-60705000D01*
X65850000Y-60701928D01*
X65725518Y-60714188D01*
X65605820Y-60750498D01*
X65495506Y-60809463D01*
X65398815Y-60888815D01*
X65319463Y-60985506D01*
X65260498Y-61095820D01*
X65224188Y-61215518D01*
X65211928Y-61340000D01*
X62035000Y-61340000D01*
X62035000Y-55169117D01*
X74865000Y-55169117D01*
X74865000Y-55510883D01*
X74931675Y-55846081D01*
X75062463Y-56161831D01*
X75252337Y-56445998D01*
X75494002Y-56687663D01*
X75778169Y-56877537D01*
X76093919Y-57008325D01*
X76429117Y-57075000D01*
X76770883Y-57075000D01*
X77106081Y-57008325D01*
X77421831Y-56877537D01*
X77705998Y-56687663D01*
X77947663Y-56445998D01*
X78137537Y-56161831D01*
X78268325Y-55846081D01*
X78335000Y-55510883D01*
X78335000Y-55169117D01*
X100865000Y-55169117D01*
X100865000Y-55510883D01*
X100931675Y-55846081D01*
X101062463Y-56161831D01*
X101252337Y-56445998D01*
X101494002Y-56687663D01*
X101778169Y-56877537D01*
X102093919Y-57008325D01*
X102429117Y-57075000D01*
X102770883Y-57075000D01*
X103106081Y-57008325D01*
X103421831Y-56877537D01*
X103705998Y-56687663D01*
X103947663Y-56445998D01*
X104137537Y-56161831D01*
X104268325Y-55846081D01*
X104335000Y-55510883D01*
X104335000Y-55169117D01*
X104268325Y-54833919D01*
X104137537Y-54518169D01*
X103947663Y-54234002D01*
X103705998Y-53992337D01*
X103421831Y-53802463D01*
X103106081Y-53671675D01*
X102770883Y-53605000D01*
X102429117Y-53605000D01*
X102093919Y-53671675D01*
X101778169Y-53802463D01*
X101494002Y-53992337D01*
X101252337Y-54234002D01*
X101062463Y-54518169D01*
X100931675Y-54833919D01*
X100865000Y-55169117D01*
X78335000Y-55169117D01*
X78268325Y-54833919D01*
X78137537Y-54518169D01*
X77947663Y-54234002D01*
X77705998Y-53992337D01*
X77421831Y-53802463D01*
X77106081Y-53671675D01*
X76770883Y-53605000D01*
X76429117Y-53605000D01*
X76093919Y-53671675D01*
X75778169Y-53802463D01*
X75494002Y-53992337D01*
X75252337Y-54234002D01*
X75062463Y-54518169D01*
X74931675Y-54833919D01*
X74865000Y-55169117D01*
X62035000Y-55169117D01*
X62035000Y-40767000D01*
X73219118Y-40767000D01*
X73211928Y-40840000D01*
G37*
%TD.AperFunction*%
D26*
X99539500Y-81305002D02*
X99539501Y-82372888D01*
X99495563Y-82416826D01*
X99382295Y-82586344D01*
X99304274Y-82774702D01*
X99264500Y-82974661D01*
X99264500Y-83178539D01*
X99304274Y-83378498D01*
X99308103Y-83387742D01*
X99144498Y-83319974D01*
X98944539Y-83280200D01*
X98740661Y-83280200D01*
X98550072Y-83318110D01*
X98550072Y-83030000D01*
X98534833Y-82875279D01*
X98489703Y-82726504D01*
X98416415Y-82589393D01*
X98384086Y-82550000D01*
X98416415Y-82510607D01*
X98489703Y-82373496D01*
X98534833Y-82224721D01*
X98550072Y-82070000D01*
X98550072Y-81760000D01*
X98534833Y-81605279D01*
X98489703Y-81456504D01*
X98416415Y-81319393D01*
X98384086Y-81280000D01*
X98416415Y-81240607D01*
X98489703Y-81103496D01*
X98534833Y-80954721D01*
X98550072Y-80800000D01*
X98550072Y-80490000D01*
X98534833Y-80335279D01*
X98519617Y-80285119D01*
X99539500Y-81305002D01*
%TA.AperFunction,Conductor*%
D27*
G36*
X99539500Y-81305002D02*
G01*
X99539501Y-82372888D01*
X99495563Y-82416826D01*
X99382295Y-82586344D01*
X99304274Y-82774702D01*
X99264500Y-82974661D01*
X99264500Y-83178539D01*
X99304274Y-83378498D01*
X99308103Y-83387742D01*
X99144498Y-83319974D01*
X98944539Y-83280200D01*
X98740661Y-83280200D01*
X98550072Y-83318110D01*
X98550072Y-83030000D01*
X98534833Y-82875279D01*
X98489703Y-82726504D01*
X98416415Y-82589393D01*
X98384086Y-82550000D01*
X98416415Y-82510607D01*
X98489703Y-82373496D01*
X98534833Y-82224721D01*
X98550072Y-82070000D01*
X98550072Y-81760000D01*
X98534833Y-81605279D01*
X98489703Y-81456504D01*
X98416415Y-81319393D01*
X98384086Y-81280000D01*
X98416415Y-81240607D01*
X98489703Y-81103496D01*
X98534833Y-80954721D01*
X98550072Y-80800000D01*
X98550072Y-80490000D01*
X98534833Y-80335279D01*
X98519617Y-80285119D01*
X99539500Y-81305002D01*
G37*
%TD.AperFunction*%
D26*
X96839000Y-79248000D02*
X96859000Y-79248000D01*
X96859000Y-79502000D01*
X96839000Y-79502000D01*
X96839000Y-79522000D01*
X96586210Y-79522000D01*
X96585000Y-79521633D01*
X96585000Y-79502000D01*
X96565000Y-79502000D01*
X96565000Y-79248000D01*
X96585000Y-79248000D01*
X96585000Y-79228000D01*
X96839000Y-79228000D01*
X96839000Y-79248000D01*
%TA.AperFunction,Conductor*%
D27*
G36*
X96839000Y-79248000D02*
G01*
X96859000Y-79248000D01*
X96859000Y-79502000D01*
X96839000Y-79502000D01*
X96839000Y-79522000D01*
X96586210Y-79522000D01*
X96585000Y-79521633D01*
X96585000Y-79502000D01*
X96565000Y-79502000D01*
X96565000Y-79248000D01*
X96585000Y-79248000D01*
X96585000Y-79228000D01*
X96839000Y-79228000D01*
X96839000Y-79248000D01*
G37*
%TD.AperFunction*%
%TD*%
M02*
