%TF.GenerationSoftware,KiCad,Pcbnew,(5.1.10-1-10_14)*%
%TF.CreationDate,2023-03-15T03:50:06+08:00*%
%TF.ProjectId,GB_MemoryBackup_Mainboard,47425f4d-656d-46f7-9279-4261636b7570,1.0*%
%TF.SameCoordinates,Original*%
%TF.FileFunction,Soldermask,Bot*%
%TF.FilePolarity,Negative*%
%FSLAX46Y46*%
G04 Gerber Fmt 4.6, Leading zero omitted, Abs format (unit mm)*
G04 Created by KiCad (PCBNEW (5.1.10-1-10_14)) date 2023-03-15 03:50:06*
%MOMM*%
%LPD*%
G01*
G04 APERTURE LIST*
%ADD10C,0.150000*%
%ADD11C,0.010000*%
%ADD12C,1.702000*%
%ADD13O,3.102000X2.102000*%
%ADD14O,2.602000X1.702000*%
%ADD15R,1.700000X1.700000*%
%ADD16O,1.700000X1.700000*%
%ADD17C,2.200000*%
G04 APERTURE END LIST*
D10*
X114075595Y-48460000D02*
X114170833Y-48412380D01*
X114313690Y-48412380D01*
X114456547Y-48460000D01*
X114551785Y-48555238D01*
X114599404Y-48650476D01*
X114647023Y-48840952D01*
X114647023Y-48983809D01*
X114599404Y-49174285D01*
X114551785Y-49269523D01*
X114456547Y-49364761D01*
X114313690Y-49412380D01*
X114218452Y-49412380D01*
X114075595Y-49364761D01*
X114027976Y-49317142D01*
X114027976Y-48983809D01*
X114218452Y-48983809D01*
X113170833Y-49412380D02*
X113170833Y-48888571D01*
X113218452Y-48793333D01*
X113313690Y-48745714D01*
X113504166Y-48745714D01*
X113599404Y-48793333D01*
X113170833Y-49364761D02*
X113266071Y-49412380D01*
X113504166Y-49412380D01*
X113599404Y-49364761D01*
X113647023Y-49269523D01*
X113647023Y-49174285D01*
X113599404Y-49079047D01*
X113504166Y-49031428D01*
X113266071Y-49031428D01*
X113170833Y-48983809D01*
X112694642Y-49412380D02*
X112694642Y-48745714D01*
X112694642Y-48840952D02*
X112647023Y-48793333D01*
X112551785Y-48745714D01*
X112408928Y-48745714D01*
X112313690Y-48793333D01*
X112266071Y-48888571D01*
X112266071Y-49412380D01*
X112266071Y-48888571D02*
X112218452Y-48793333D01*
X112123214Y-48745714D01*
X111980357Y-48745714D01*
X111885119Y-48793333D01*
X111837500Y-48888571D01*
X111837500Y-49412380D01*
X110980357Y-49364761D02*
X111075595Y-49412380D01*
X111266071Y-49412380D01*
X111361309Y-49364761D01*
X111408928Y-49269523D01*
X111408928Y-48888571D01*
X111361309Y-48793333D01*
X111266071Y-48745714D01*
X111075595Y-48745714D01*
X110980357Y-48793333D01*
X110932738Y-48888571D01*
X110932738Y-48983809D01*
X111408928Y-49079047D01*
X110504166Y-49412380D02*
X110504166Y-48412380D01*
X110504166Y-48793333D02*
X110408928Y-48745714D01*
X110218452Y-48745714D01*
X110123214Y-48793333D01*
X110075595Y-48840952D01*
X110027976Y-48936190D01*
X110027976Y-49221904D01*
X110075595Y-49317142D01*
X110123214Y-49364761D01*
X110218452Y-49412380D01*
X110408928Y-49412380D01*
X110504166Y-49364761D01*
X109456547Y-49412380D02*
X109551785Y-49364761D01*
X109599404Y-49317142D01*
X109647023Y-49221904D01*
X109647023Y-48936190D01*
X109599404Y-48840952D01*
X109551785Y-48793333D01*
X109456547Y-48745714D01*
X109313690Y-48745714D01*
X109218452Y-48793333D01*
X109170833Y-48840952D01*
X109123214Y-48936190D01*
X109123214Y-49221904D01*
X109170833Y-49317142D01*
X109218452Y-49364761D01*
X109313690Y-49412380D01*
X109456547Y-49412380D01*
X108789880Y-48745714D02*
X108551785Y-49412380D01*
X108313690Y-48745714D02*
X108551785Y-49412380D01*
X108647023Y-49650476D01*
X108694642Y-49698095D01*
X108789880Y-49745714D01*
X107170833Y-49412380D02*
X107170833Y-48412380D01*
X106837500Y-49126666D01*
X106504166Y-48412380D01*
X106504166Y-49412380D01*
X105647023Y-49364761D02*
X105742261Y-49412380D01*
X105932738Y-49412380D01*
X106027976Y-49364761D01*
X106075595Y-49269523D01*
X106075595Y-48888571D01*
X106027976Y-48793333D01*
X105932738Y-48745714D01*
X105742261Y-48745714D01*
X105647023Y-48793333D01*
X105599404Y-48888571D01*
X105599404Y-48983809D01*
X106075595Y-49079047D01*
X105170833Y-49412380D02*
X105170833Y-48745714D01*
X105170833Y-48840952D02*
X105123214Y-48793333D01*
X105027976Y-48745714D01*
X104885119Y-48745714D01*
X104789880Y-48793333D01*
X104742261Y-48888571D01*
X104742261Y-49412380D01*
X104742261Y-48888571D02*
X104694642Y-48793333D01*
X104599404Y-48745714D01*
X104456547Y-48745714D01*
X104361309Y-48793333D01*
X104313690Y-48888571D01*
X104313690Y-49412380D01*
X103694642Y-49412380D02*
X103789880Y-49364761D01*
X103837500Y-49317142D01*
X103885119Y-49221904D01*
X103885119Y-48936190D01*
X103837500Y-48840952D01*
X103789880Y-48793333D01*
X103694642Y-48745714D01*
X103551785Y-48745714D01*
X103456547Y-48793333D01*
X103408928Y-48840952D01*
X103361309Y-48936190D01*
X103361309Y-49221904D01*
X103408928Y-49317142D01*
X103456547Y-49364761D01*
X103551785Y-49412380D01*
X103694642Y-49412380D01*
X102932738Y-49412380D02*
X102932738Y-48745714D01*
X102932738Y-48936190D02*
X102885119Y-48840952D01*
X102837500Y-48793333D01*
X102742261Y-48745714D01*
X102647023Y-48745714D01*
X102408928Y-48745714D02*
X102170833Y-49412380D01*
X101932738Y-48745714D02*
X102170833Y-49412380D01*
X102266071Y-49650476D01*
X102313690Y-49698095D01*
X102408928Y-49745714D01*
X101218452Y-48888571D02*
X101075595Y-48936190D01*
X101027976Y-48983809D01*
X100980357Y-49079047D01*
X100980357Y-49221904D01*
X101027976Y-49317142D01*
X101075595Y-49364761D01*
X101170833Y-49412380D01*
X101551785Y-49412380D01*
X101551785Y-48412380D01*
X101218452Y-48412380D01*
X101123214Y-48460000D01*
X101075595Y-48507619D01*
X101027976Y-48602857D01*
X101027976Y-48698095D01*
X101075595Y-48793333D01*
X101123214Y-48840952D01*
X101218452Y-48888571D01*
X101551785Y-48888571D01*
X100123214Y-49412380D02*
X100123214Y-48888571D01*
X100170833Y-48793333D01*
X100266071Y-48745714D01*
X100456547Y-48745714D01*
X100551785Y-48793333D01*
X100123214Y-49364761D02*
X100218452Y-49412380D01*
X100456547Y-49412380D01*
X100551785Y-49364761D01*
X100599404Y-49269523D01*
X100599404Y-49174285D01*
X100551785Y-49079047D01*
X100456547Y-49031428D01*
X100218452Y-49031428D01*
X100123214Y-48983809D01*
X99218452Y-49364761D02*
X99313690Y-49412380D01*
X99504166Y-49412380D01*
X99599404Y-49364761D01*
X99647023Y-49317142D01*
X99694642Y-49221904D01*
X99694642Y-48936190D01*
X99647023Y-48840952D01*
X99599404Y-48793333D01*
X99504166Y-48745714D01*
X99313690Y-48745714D01*
X99218452Y-48793333D01*
X98789880Y-49412380D02*
X98789880Y-48412380D01*
X98694642Y-49031428D02*
X98408928Y-49412380D01*
X98408928Y-48745714D02*
X98789880Y-49126666D01*
X97551785Y-48745714D02*
X97551785Y-49412380D01*
X97980357Y-48745714D02*
X97980357Y-49269523D01*
X97932738Y-49364761D01*
X97837500Y-49412380D01*
X97694642Y-49412380D01*
X97599404Y-49364761D01*
X97551785Y-49317142D01*
X97075595Y-48745714D02*
X97075595Y-49745714D01*
X97075595Y-48793333D02*
X96980357Y-48745714D01*
X96789880Y-48745714D01*
X96694642Y-48793333D01*
X96647023Y-48840952D01*
X96599404Y-48936190D01*
X96599404Y-49221904D01*
X96647023Y-49317142D01*
X96694642Y-49364761D01*
X96789880Y-49412380D01*
X96980357Y-49412380D01*
X97075595Y-49364761D01*
X95408928Y-49412380D02*
X95408928Y-48412380D01*
X95408928Y-48888571D02*
X94837500Y-48888571D01*
X94837500Y-49412380D02*
X94837500Y-48412380D01*
X94218452Y-49412380D02*
X94313690Y-49364761D01*
X94361309Y-49317142D01*
X94408928Y-49221904D01*
X94408928Y-48936190D01*
X94361309Y-48840952D01*
X94313690Y-48793333D01*
X94218452Y-48745714D01*
X94075595Y-48745714D01*
X93980357Y-48793333D01*
X93932738Y-48840952D01*
X93885119Y-48936190D01*
X93885119Y-49221904D01*
X93932738Y-49317142D01*
X93980357Y-49364761D01*
X94075595Y-49412380D01*
X94218452Y-49412380D01*
X93456547Y-49412380D02*
X93456547Y-48745714D01*
X93456547Y-48840952D02*
X93408928Y-48793333D01*
X93313690Y-48745714D01*
X93170833Y-48745714D01*
X93075595Y-48793333D01*
X93027976Y-48888571D01*
X93027976Y-49412380D01*
X93027976Y-48888571D02*
X92980357Y-48793333D01*
X92885119Y-48745714D01*
X92742261Y-48745714D01*
X92647023Y-48793333D01*
X92599404Y-48888571D01*
X92599404Y-49412380D01*
X91742261Y-49364761D02*
X91837500Y-49412380D01*
X92027976Y-49412380D01*
X92123214Y-49364761D01*
X92170833Y-49269523D01*
X92170833Y-48888571D01*
X92123214Y-48793333D01*
X92027976Y-48745714D01*
X91837500Y-48745714D01*
X91742261Y-48793333D01*
X91694642Y-48888571D01*
X91694642Y-48983809D01*
X92170833Y-49079047D01*
X91266071Y-49412380D02*
X91266071Y-48412380D01*
X91266071Y-48793333D02*
X91170833Y-48745714D01*
X90980357Y-48745714D01*
X90885119Y-48793333D01*
X90837500Y-48840952D01*
X90789880Y-48936190D01*
X90789880Y-49221904D01*
X90837500Y-49317142D01*
X90885119Y-49364761D01*
X90980357Y-49412380D01*
X91170833Y-49412380D01*
X91266071Y-49364761D01*
X90361309Y-49412380D02*
X90361309Y-48745714D01*
X90361309Y-48936190D02*
X90313690Y-48840952D01*
X90266071Y-48793333D01*
X90170833Y-48745714D01*
X90075595Y-48745714D01*
X89361309Y-49364761D02*
X89456547Y-49412380D01*
X89647023Y-49412380D01*
X89742261Y-49364761D01*
X89789880Y-49269523D01*
X89789880Y-48888571D01*
X89742261Y-48793333D01*
X89647023Y-48745714D01*
X89456547Y-48745714D01*
X89361309Y-48793333D01*
X89313690Y-48888571D01*
X89313690Y-48983809D01*
X89789880Y-49079047D01*
X88980357Y-48745714D02*
X88789880Y-49412380D01*
X88599404Y-48936190D01*
X88408928Y-49412380D01*
X88218452Y-48745714D01*
X87170833Y-48745714D02*
X86932738Y-49412380D01*
X86694642Y-48745714D01*
X85789880Y-49412380D02*
X86361309Y-49412380D01*
X86075595Y-49412380D02*
X86075595Y-48412380D01*
X86170833Y-48555238D01*
X86266071Y-48650476D01*
X86361309Y-48698095D01*
X85361309Y-49317142D02*
X85313690Y-49364761D01*
X85361309Y-49412380D01*
X85408928Y-49364761D01*
X85361309Y-49317142D01*
X85361309Y-49412380D01*
X84694642Y-48412380D02*
X84599404Y-48412380D01*
X84504166Y-48460000D01*
X84456547Y-48507619D01*
X84408928Y-48602857D01*
X84361309Y-48793333D01*
X84361309Y-49031428D01*
X84408928Y-49221904D01*
X84456547Y-49317142D01*
X84504166Y-49364761D01*
X84599404Y-49412380D01*
X84694642Y-49412380D01*
X84789880Y-49364761D01*
X84837500Y-49317142D01*
X84885119Y-49221904D01*
X84932738Y-49031428D01*
X84932738Y-48793333D01*
X84885119Y-48602857D01*
X84837500Y-48507619D01*
X84789880Y-48460000D01*
X84694642Y-48412380D01*
X114599404Y-51062380D02*
X114599404Y-50062380D01*
X114170833Y-51062380D02*
X114170833Y-50538571D01*
X114218452Y-50443333D01*
X114313690Y-50395714D01*
X114456547Y-50395714D01*
X114551785Y-50443333D01*
X114599404Y-50490952D01*
X113837500Y-50395714D02*
X113456547Y-50395714D01*
X113694642Y-50062380D02*
X113694642Y-50919523D01*
X113647023Y-51014761D01*
X113551785Y-51062380D01*
X113456547Y-51062380D01*
X113266071Y-50395714D02*
X112885119Y-50395714D01*
X113123214Y-50062380D02*
X113123214Y-50919523D01*
X113075595Y-51014761D01*
X112980357Y-51062380D01*
X112885119Y-51062380D01*
X112551785Y-50395714D02*
X112551785Y-51395714D01*
X112551785Y-50443333D02*
X112456547Y-50395714D01*
X112266071Y-50395714D01*
X112170833Y-50443333D01*
X112123214Y-50490952D01*
X112075595Y-50586190D01*
X112075595Y-50871904D01*
X112123214Y-50967142D01*
X112170833Y-51014761D01*
X112266071Y-51062380D01*
X112456547Y-51062380D01*
X112551785Y-51014761D01*
X111694642Y-51014761D02*
X111599404Y-51062380D01*
X111408928Y-51062380D01*
X111313690Y-51014761D01*
X111266071Y-50919523D01*
X111266071Y-50871904D01*
X111313690Y-50776666D01*
X111408928Y-50729047D01*
X111551785Y-50729047D01*
X111647023Y-50681428D01*
X111694642Y-50586190D01*
X111694642Y-50538571D01*
X111647023Y-50443333D01*
X111551785Y-50395714D01*
X111408928Y-50395714D01*
X111313690Y-50443333D01*
X110837500Y-50967142D02*
X110789880Y-51014761D01*
X110837500Y-51062380D01*
X110885119Y-51014761D01*
X110837500Y-50967142D01*
X110837500Y-51062380D01*
X110837500Y-50443333D02*
X110789880Y-50490952D01*
X110837500Y-50538571D01*
X110885119Y-50490952D01*
X110837500Y-50443333D01*
X110837500Y-50538571D01*
X109647023Y-50014761D02*
X110504166Y-51300476D01*
X108599404Y-50014761D02*
X109456547Y-51300476D01*
X107837500Y-50395714D02*
X107837500Y-51205238D01*
X107885119Y-51300476D01*
X107932738Y-51348095D01*
X108027976Y-51395714D01*
X108170833Y-51395714D01*
X108266071Y-51348095D01*
X107837500Y-51014761D02*
X107932738Y-51062380D01*
X108123214Y-51062380D01*
X108218452Y-51014761D01*
X108266071Y-50967142D01*
X108313690Y-50871904D01*
X108313690Y-50586190D01*
X108266071Y-50490952D01*
X108218452Y-50443333D01*
X108123214Y-50395714D01*
X107932738Y-50395714D01*
X107837500Y-50443333D01*
X107361309Y-51062380D02*
X107361309Y-50395714D01*
X107361309Y-50062380D02*
X107408928Y-50110000D01*
X107361309Y-50157619D01*
X107313690Y-50110000D01*
X107361309Y-50062380D01*
X107361309Y-50157619D01*
X107027976Y-50395714D02*
X106647023Y-50395714D01*
X106885119Y-50062380D02*
X106885119Y-50919523D01*
X106837500Y-51014761D01*
X106742261Y-51062380D01*
X106647023Y-51062380D01*
X106313690Y-51062380D02*
X106313690Y-50062380D01*
X105885119Y-51062380D02*
X105885119Y-50538571D01*
X105932738Y-50443333D01*
X106027976Y-50395714D01*
X106170833Y-50395714D01*
X106266071Y-50443333D01*
X106313690Y-50490952D01*
X104980357Y-50395714D02*
X104980357Y-51062380D01*
X105408928Y-50395714D02*
X105408928Y-50919523D01*
X105361309Y-51014761D01*
X105266071Y-51062380D01*
X105123214Y-51062380D01*
X105027976Y-51014761D01*
X104980357Y-50967142D01*
X104504166Y-51062380D02*
X104504166Y-50062380D01*
X104504166Y-50443333D02*
X104408928Y-50395714D01*
X104218452Y-50395714D01*
X104123214Y-50443333D01*
X104075595Y-50490952D01*
X104027976Y-50586190D01*
X104027976Y-50871904D01*
X104075595Y-50967142D01*
X104123214Y-51014761D01*
X104218452Y-51062380D01*
X104408928Y-51062380D01*
X104504166Y-51014761D01*
X103599404Y-50967142D02*
X103551785Y-51014761D01*
X103599404Y-51062380D01*
X103647023Y-51014761D01*
X103599404Y-50967142D01*
X103599404Y-51062380D01*
X102694642Y-51014761D02*
X102789880Y-51062380D01*
X102980357Y-51062380D01*
X103075595Y-51014761D01*
X103123214Y-50967142D01*
X103170833Y-50871904D01*
X103170833Y-50586190D01*
X103123214Y-50490952D01*
X103075595Y-50443333D01*
X102980357Y-50395714D01*
X102789880Y-50395714D01*
X102694642Y-50443333D01*
X102123214Y-51062380D02*
X102218452Y-51014761D01*
X102266071Y-50967142D01*
X102313690Y-50871904D01*
X102313690Y-50586190D01*
X102266071Y-50490952D01*
X102218452Y-50443333D01*
X102123214Y-50395714D01*
X101980357Y-50395714D01*
X101885119Y-50443333D01*
X101837500Y-50490952D01*
X101789880Y-50586190D01*
X101789880Y-50871904D01*
X101837500Y-50967142D01*
X101885119Y-51014761D01*
X101980357Y-51062380D01*
X102123214Y-51062380D01*
X101361309Y-51062380D02*
X101361309Y-50395714D01*
X101361309Y-50490952D02*
X101313690Y-50443333D01*
X101218452Y-50395714D01*
X101075595Y-50395714D01*
X100980357Y-50443333D01*
X100932738Y-50538571D01*
X100932738Y-51062380D01*
X100932738Y-50538571D02*
X100885119Y-50443333D01*
X100789880Y-50395714D01*
X100647023Y-50395714D01*
X100551785Y-50443333D01*
X100504166Y-50538571D01*
X100504166Y-51062380D01*
X99313690Y-50014761D02*
X100170833Y-51300476D01*
X99027976Y-51014761D02*
X98885119Y-51062380D01*
X98647023Y-51062380D01*
X98551785Y-51014761D01*
X98504166Y-50967142D01*
X98456547Y-50871904D01*
X98456547Y-50776666D01*
X98504166Y-50681428D01*
X98551785Y-50633809D01*
X98647023Y-50586190D01*
X98837500Y-50538571D01*
X98932738Y-50490952D01*
X98980357Y-50443333D01*
X99027976Y-50348095D01*
X99027976Y-50252857D01*
X98980357Y-50157619D01*
X98932738Y-50110000D01*
X98837500Y-50062380D01*
X98599404Y-50062380D01*
X98456547Y-50110000D01*
X97837500Y-50062380D02*
X97647023Y-50062380D01*
X97551785Y-50110000D01*
X97456547Y-50205238D01*
X97408928Y-50395714D01*
X97408928Y-50729047D01*
X97456547Y-50919523D01*
X97551785Y-51014761D01*
X97647023Y-51062380D01*
X97837500Y-51062380D01*
X97932738Y-51014761D01*
X98027976Y-50919523D01*
X98075595Y-50729047D01*
X98075595Y-50395714D01*
X98027976Y-50205238D01*
X97932738Y-50110000D01*
X97837500Y-50062380D01*
X96980357Y-51062380D02*
X96980357Y-50062380D01*
X96408928Y-51062380D01*
X96408928Y-50062380D01*
X95932738Y-51062380D02*
X95932738Y-50062380D01*
X94885119Y-50967142D02*
X94932738Y-51014761D01*
X95075595Y-51062380D01*
X95170833Y-51062380D01*
X95313690Y-51014761D01*
X95408928Y-50919523D01*
X95456547Y-50824285D01*
X95504166Y-50633809D01*
X95504166Y-50490952D01*
X95456547Y-50300476D01*
X95408928Y-50205238D01*
X95313690Y-50110000D01*
X95170833Y-50062380D01*
X95075595Y-50062380D01*
X94932738Y-50110000D01*
X94885119Y-50157619D01*
X94551785Y-50062380D02*
X93932738Y-50062380D01*
X94266071Y-50443333D01*
X94123214Y-50443333D01*
X94027976Y-50490952D01*
X93980357Y-50538571D01*
X93932738Y-50633809D01*
X93932738Y-50871904D01*
X93980357Y-50967142D01*
X94027976Y-51014761D01*
X94123214Y-51062380D01*
X94408928Y-51062380D01*
X94504166Y-51014761D01*
X94551785Y-50967142D01*
X93504166Y-51062380D02*
X93504166Y-50062380D01*
X93266071Y-50062380D01*
X93123214Y-50110000D01*
X93027976Y-50205238D01*
X92980357Y-50300476D01*
X92932738Y-50490952D01*
X92932738Y-50633809D01*
X92980357Y-50824285D01*
X93027976Y-50919523D01*
X93123214Y-51014761D01*
X93266071Y-51062380D01*
X93504166Y-51062380D01*
X91789880Y-50014761D02*
X92647023Y-51300476D01*
X91027976Y-50395714D02*
X91027976Y-51205238D01*
X91075595Y-51300476D01*
X91123214Y-51348095D01*
X91218452Y-51395714D01*
X91361309Y-51395714D01*
X91456547Y-51348095D01*
X91027976Y-51014761D02*
X91123214Y-51062380D01*
X91313690Y-51062380D01*
X91408928Y-51014761D01*
X91456547Y-50967142D01*
X91504166Y-50871904D01*
X91504166Y-50586190D01*
X91456547Y-50490952D01*
X91408928Y-50443333D01*
X91313690Y-50395714D01*
X91123214Y-50395714D01*
X91027976Y-50443333D01*
X90123214Y-51062380D02*
X90123214Y-50538571D01*
X90170833Y-50443333D01*
X90266071Y-50395714D01*
X90456547Y-50395714D01*
X90551785Y-50443333D01*
X90123214Y-51014761D02*
X90218452Y-51062380D01*
X90456547Y-51062380D01*
X90551785Y-51014761D01*
X90599404Y-50919523D01*
X90599404Y-50824285D01*
X90551785Y-50729047D01*
X90456547Y-50681428D01*
X90218452Y-50681428D01*
X90123214Y-50633809D01*
X89647023Y-51062380D02*
X89647023Y-50395714D01*
X89647023Y-50490952D02*
X89599404Y-50443333D01*
X89504166Y-50395714D01*
X89361309Y-50395714D01*
X89266071Y-50443333D01*
X89218452Y-50538571D01*
X89218452Y-51062380D01*
X89218452Y-50538571D02*
X89170833Y-50443333D01*
X89075595Y-50395714D01*
X88932738Y-50395714D01*
X88837500Y-50443333D01*
X88789880Y-50538571D01*
X88789880Y-51062380D01*
X87932738Y-51014761D02*
X88027976Y-51062380D01*
X88218452Y-51062380D01*
X88313690Y-51014761D01*
X88361309Y-50919523D01*
X88361309Y-50538571D01*
X88313690Y-50443333D01*
X88218452Y-50395714D01*
X88027976Y-50395714D01*
X87932738Y-50443333D01*
X87885119Y-50538571D01*
X87885119Y-50633809D01*
X88361309Y-50729047D01*
X87456547Y-51062380D02*
X87456547Y-50062380D01*
X87456547Y-50443333D02*
X87361309Y-50395714D01*
X87170833Y-50395714D01*
X87075595Y-50443333D01*
X87027976Y-50490952D01*
X86980357Y-50586190D01*
X86980357Y-50871904D01*
X87027976Y-50967142D01*
X87075595Y-51014761D01*
X87170833Y-51062380D01*
X87361309Y-51062380D01*
X87456547Y-51014761D01*
X86408928Y-51062380D02*
X86504166Y-51014761D01*
X86551785Y-50967142D01*
X86599404Y-50871904D01*
X86599404Y-50586190D01*
X86551785Y-50490952D01*
X86504166Y-50443333D01*
X86408928Y-50395714D01*
X86266071Y-50395714D01*
X86170833Y-50443333D01*
X86123214Y-50490952D01*
X86075595Y-50586190D01*
X86075595Y-50871904D01*
X86123214Y-50967142D01*
X86170833Y-51014761D01*
X86266071Y-51062380D01*
X86408928Y-51062380D01*
X85742261Y-50395714D02*
X85504166Y-51062380D01*
X85266071Y-50395714D02*
X85504166Y-51062380D01*
X85599404Y-51300476D01*
X85647023Y-51348095D01*
X85742261Y-51395714D01*
X84885119Y-50681428D02*
X84123214Y-50681428D01*
X83647023Y-51062380D02*
X83647023Y-50395714D01*
X83647023Y-50490952D02*
X83599404Y-50443333D01*
X83504166Y-50395714D01*
X83361309Y-50395714D01*
X83266071Y-50443333D01*
X83218452Y-50538571D01*
X83218452Y-51062380D01*
X83218452Y-50538571D02*
X83170833Y-50443333D01*
X83075595Y-50395714D01*
X82932738Y-50395714D01*
X82837500Y-50443333D01*
X82789880Y-50538571D01*
X82789880Y-51062380D01*
X81932738Y-51014761D02*
X82027976Y-51062380D01*
X82218452Y-51062380D01*
X82313690Y-51014761D01*
X82361309Y-50919523D01*
X82361309Y-50538571D01*
X82313690Y-50443333D01*
X82218452Y-50395714D01*
X82027976Y-50395714D01*
X81932738Y-50443333D01*
X81885119Y-50538571D01*
X81885119Y-50633809D01*
X82361309Y-50729047D01*
X81456547Y-51062380D02*
X81456547Y-50395714D01*
X81456547Y-50490952D02*
X81408928Y-50443333D01*
X81313690Y-50395714D01*
X81170833Y-50395714D01*
X81075595Y-50443333D01*
X81027976Y-50538571D01*
X81027976Y-51062380D01*
X81027976Y-50538571D02*
X80980357Y-50443333D01*
X80885119Y-50395714D01*
X80742261Y-50395714D01*
X80647023Y-50443333D01*
X80599404Y-50538571D01*
X80599404Y-51062380D01*
X79980357Y-51062380D02*
X80075595Y-51014761D01*
X80123214Y-50967142D01*
X80170833Y-50871904D01*
X80170833Y-50586190D01*
X80123214Y-50490952D01*
X80075595Y-50443333D01*
X79980357Y-50395714D01*
X79837500Y-50395714D01*
X79742261Y-50443333D01*
X79694642Y-50490952D01*
X79647023Y-50586190D01*
X79647023Y-50871904D01*
X79694642Y-50967142D01*
X79742261Y-51014761D01*
X79837500Y-51062380D01*
X79980357Y-51062380D01*
X79218452Y-51062380D02*
X79218452Y-50395714D01*
X79218452Y-50586190D02*
X79170833Y-50490952D01*
X79123214Y-50443333D01*
X79027976Y-50395714D01*
X78932738Y-50395714D01*
X78694642Y-50395714D02*
X78456547Y-51062380D01*
X78218452Y-50395714D02*
X78456547Y-51062380D01*
X78551785Y-51300476D01*
X78599404Y-51348095D01*
X78694642Y-51395714D01*
X77837500Y-51062380D02*
X77837500Y-50062380D01*
X77837500Y-50443333D02*
X77742261Y-50395714D01*
X77551785Y-50395714D01*
X77456547Y-50443333D01*
X77408928Y-50490952D01*
X77361309Y-50586190D01*
X77361309Y-50871904D01*
X77408928Y-50967142D01*
X77456547Y-51014761D01*
X77551785Y-51062380D01*
X77742261Y-51062380D01*
X77837500Y-51014761D01*
X76504166Y-51062380D02*
X76504166Y-50538571D01*
X76551785Y-50443333D01*
X76647023Y-50395714D01*
X76837500Y-50395714D01*
X76932738Y-50443333D01*
X76504166Y-51014761D02*
X76599404Y-51062380D01*
X76837500Y-51062380D01*
X76932738Y-51014761D01*
X76980357Y-50919523D01*
X76980357Y-50824285D01*
X76932738Y-50729047D01*
X76837500Y-50681428D01*
X76599404Y-50681428D01*
X76504166Y-50633809D01*
X75599404Y-51014761D02*
X75694642Y-51062380D01*
X75885119Y-51062380D01*
X75980357Y-51014761D01*
X76027976Y-50967142D01*
X76075595Y-50871904D01*
X76075595Y-50586190D01*
X76027976Y-50490952D01*
X75980357Y-50443333D01*
X75885119Y-50395714D01*
X75694642Y-50395714D01*
X75599404Y-50443333D01*
X75170833Y-51062380D02*
X75170833Y-50062380D01*
X75075595Y-50681428D02*
X74789880Y-51062380D01*
X74789880Y-50395714D02*
X75170833Y-50776666D01*
X73932738Y-50395714D02*
X73932738Y-51062380D01*
X74361309Y-50395714D02*
X74361309Y-50919523D01*
X74313690Y-51014761D01*
X74218452Y-51062380D01*
X74075595Y-51062380D01*
X73980357Y-51014761D01*
X73932738Y-50967142D01*
X73456547Y-50395714D02*
X73456547Y-51395714D01*
X73456547Y-50443333D02*
X73361309Y-50395714D01*
X73170833Y-50395714D01*
X73075595Y-50443333D01*
X73027976Y-50490952D01*
X72980357Y-50586190D01*
X72980357Y-50871904D01*
X73027976Y-50967142D01*
X73075595Y-51014761D01*
X73170833Y-51062380D01*
X73361309Y-51062380D01*
X73456547Y-51014761D01*
X114599404Y-52712380D02*
X114599404Y-51712380D01*
X114361309Y-51712380D01*
X114218452Y-51760000D01*
X114123214Y-51855238D01*
X114075595Y-51950476D01*
X114027976Y-52140952D01*
X114027976Y-52283809D01*
X114075595Y-52474285D01*
X114123214Y-52569523D01*
X114218452Y-52664761D01*
X114361309Y-52712380D01*
X114599404Y-52712380D01*
X113218452Y-52664761D02*
X113313690Y-52712380D01*
X113504166Y-52712380D01*
X113599404Y-52664761D01*
X113647023Y-52569523D01*
X113647023Y-52188571D01*
X113599404Y-52093333D01*
X113504166Y-52045714D01*
X113313690Y-52045714D01*
X113218452Y-52093333D01*
X113170833Y-52188571D01*
X113170833Y-52283809D01*
X113647023Y-52379047D01*
X112789880Y-52664761D02*
X112694642Y-52712380D01*
X112504166Y-52712380D01*
X112408928Y-52664761D01*
X112361309Y-52569523D01*
X112361309Y-52521904D01*
X112408928Y-52426666D01*
X112504166Y-52379047D01*
X112647023Y-52379047D01*
X112742261Y-52331428D01*
X112789880Y-52236190D01*
X112789880Y-52188571D01*
X112742261Y-52093333D01*
X112647023Y-52045714D01*
X112504166Y-52045714D01*
X112408928Y-52093333D01*
X111932738Y-52712380D02*
X111932738Y-52045714D01*
X111932738Y-51712380D02*
X111980357Y-51760000D01*
X111932738Y-51807619D01*
X111885119Y-51760000D01*
X111932738Y-51712380D01*
X111932738Y-51807619D01*
X111027976Y-52045714D02*
X111027976Y-52855238D01*
X111075595Y-52950476D01*
X111123214Y-52998095D01*
X111218452Y-53045714D01*
X111361309Y-53045714D01*
X111456547Y-52998095D01*
X111027976Y-52664761D02*
X111123214Y-52712380D01*
X111313690Y-52712380D01*
X111408928Y-52664761D01*
X111456547Y-52617142D01*
X111504166Y-52521904D01*
X111504166Y-52236190D01*
X111456547Y-52140952D01*
X111408928Y-52093333D01*
X111313690Y-52045714D01*
X111123214Y-52045714D01*
X111027976Y-52093333D01*
X110551785Y-52045714D02*
X110551785Y-52712380D01*
X110551785Y-52140952D02*
X110504166Y-52093333D01*
X110408928Y-52045714D01*
X110266071Y-52045714D01*
X110170833Y-52093333D01*
X110123214Y-52188571D01*
X110123214Y-52712380D01*
X109266071Y-52664761D02*
X109361309Y-52712380D01*
X109551785Y-52712380D01*
X109647023Y-52664761D01*
X109694642Y-52569523D01*
X109694642Y-52188571D01*
X109647023Y-52093333D01*
X109551785Y-52045714D01*
X109361309Y-52045714D01*
X109266071Y-52093333D01*
X109218452Y-52188571D01*
X109218452Y-52283809D01*
X109694642Y-52379047D01*
X108361309Y-52712380D02*
X108361309Y-51712380D01*
X108361309Y-52664761D02*
X108456547Y-52712380D01*
X108647023Y-52712380D01*
X108742261Y-52664761D01*
X108789880Y-52617142D01*
X108837500Y-52521904D01*
X108837500Y-52236190D01*
X108789880Y-52140952D01*
X108742261Y-52093333D01*
X108647023Y-52045714D01*
X108456547Y-52045714D01*
X108361309Y-52093333D01*
X107123214Y-52712380D02*
X107123214Y-52045714D01*
X107123214Y-51712380D02*
X107170833Y-51760000D01*
X107123214Y-51807619D01*
X107075595Y-51760000D01*
X107123214Y-51712380D01*
X107123214Y-51807619D01*
X106647023Y-52045714D02*
X106647023Y-52712380D01*
X106647023Y-52140952D02*
X106599404Y-52093333D01*
X106504166Y-52045714D01*
X106361309Y-52045714D01*
X106266071Y-52093333D01*
X106218452Y-52188571D01*
X106218452Y-52712380D01*
X105027976Y-52664761D02*
X104885119Y-52712380D01*
X104647023Y-52712380D01*
X104551785Y-52664761D01*
X104504166Y-52617142D01*
X104456547Y-52521904D01*
X104456547Y-52426666D01*
X104504166Y-52331428D01*
X104551785Y-52283809D01*
X104647023Y-52236190D01*
X104837500Y-52188571D01*
X104932738Y-52140952D01*
X104980357Y-52093333D01*
X105027976Y-51998095D01*
X105027976Y-51902857D01*
X104980357Y-51807619D01*
X104932738Y-51760000D01*
X104837500Y-51712380D01*
X104599404Y-51712380D01*
X104456547Y-51760000D01*
X104027976Y-52712380D02*
X104027976Y-51712380D01*
X103599404Y-52712380D02*
X103599404Y-52188571D01*
X103647023Y-52093333D01*
X103742261Y-52045714D01*
X103885119Y-52045714D01*
X103980357Y-52093333D01*
X104027976Y-52140952D01*
X102694642Y-52712380D02*
X102694642Y-52188571D01*
X102742261Y-52093333D01*
X102837500Y-52045714D01*
X103027976Y-52045714D01*
X103123214Y-52093333D01*
X102694642Y-52664761D02*
X102789880Y-52712380D01*
X103027976Y-52712380D01*
X103123214Y-52664761D01*
X103170833Y-52569523D01*
X103170833Y-52474285D01*
X103123214Y-52379047D01*
X103027976Y-52331428D01*
X102789880Y-52331428D01*
X102694642Y-52283809D01*
X102218452Y-52045714D02*
X102218452Y-52712380D01*
X102218452Y-52140952D02*
X102170833Y-52093333D01*
X102075595Y-52045714D01*
X101932738Y-52045714D01*
X101837500Y-52093333D01*
X101789880Y-52188571D01*
X101789880Y-52712380D01*
X100885119Y-52045714D02*
X100885119Y-52855238D01*
X100932738Y-52950476D01*
X100980357Y-52998095D01*
X101075595Y-53045714D01*
X101218452Y-53045714D01*
X101313690Y-52998095D01*
X100885119Y-52664761D02*
X100980357Y-52712380D01*
X101170833Y-52712380D01*
X101266071Y-52664761D01*
X101313690Y-52617142D01*
X101361309Y-52521904D01*
X101361309Y-52236190D01*
X101313690Y-52140952D01*
X101266071Y-52093333D01*
X101170833Y-52045714D01*
X100980357Y-52045714D01*
X100885119Y-52093333D01*
X100408928Y-52712380D02*
X100408928Y-51712380D01*
X99980357Y-52712380D02*
X99980357Y-52188571D01*
X100027976Y-52093333D01*
X100123214Y-52045714D01*
X100266071Y-52045714D01*
X100361309Y-52093333D01*
X100408928Y-52140952D01*
X99075595Y-52712380D02*
X99075595Y-52188571D01*
X99123214Y-52093333D01*
X99218452Y-52045714D01*
X99408928Y-52045714D01*
X99504166Y-52093333D01*
X99075595Y-52664761D02*
X99170833Y-52712380D01*
X99408928Y-52712380D01*
X99504166Y-52664761D01*
X99551785Y-52569523D01*
X99551785Y-52474285D01*
X99504166Y-52379047D01*
X99408928Y-52331428D01*
X99170833Y-52331428D01*
X99075595Y-52283809D01*
X98599404Y-52712380D02*
X98599404Y-52045714D01*
X98599404Y-51712380D02*
X98647023Y-51760000D01*
X98599404Y-51807619D01*
X98551785Y-51760000D01*
X98599404Y-51712380D01*
X98599404Y-51807619D01*
X98075595Y-52664761D02*
X98075595Y-52712380D01*
X98123214Y-52807619D01*
X98170833Y-52855238D01*
X96885119Y-52712380D02*
X96885119Y-51712380D01*
X96885119Y-52093333D02*
X96789880Y-52045714D01*
X96599404Y-52045714D01*
X96504166Y-52093333D01*
X96456547Y-52140952D01*
X96408928Y-52236190D01*
X96408928Y-52521904D01*
X96456547Y-52617142D01*
X96504166Y-52664761D01*
X96599404Y-52712380D01*
X96789880Y-52712380D01*
X96885119Y-52664761D01*
X96075595Y-52045714D02*
X95837500Y-52712380D01*
X95599404Y-52045714D02*
X95837500Y-52712380D01*
X95932738Y-52950476D01*
X95980357Y-52998095D01*
X96075595Y-53045714D01*
X94504166Y-52664761D02*
X94361309Y-52712380D01*
X94123214Y-52712380D01*
X94027976Y-52664761D01*
X93980357Y-52617142D01*
X93932738Y-52521904D01*
X93932738Y-52426666D01*
X93980357Y-52331428D01*
X94027976Y-52283809D01*
X94123214Y-52236190D01*
X94313690Y-52188571D01*
X94408928Y-52140952D01*
X94456547Y-52093333D01*
X94504166Y-51998095D01*
X94504166Y-51902857D01*
X94456547Y-51807619D01*
X94408928Y-51760000D01*
X94313690Y-51712380D01*
X94075595Y-51712380D01*
X93932738Y-51760000D01*
X93313690Y-51712380D02*
X93123214Y-51712380D01*
X93027976Y-51760000D01*
X92932738Y-51855238D01*
X92885119Y-52045714D01*
X92885119Y-52379047D01*
X92932738Y-52569523D01*
X93027976Y-52664761D01*
X93123214Y-52712380D01*
X93313690Y-52712380D01*
X93408928Y-52664761D01*
X93504166Y-52569523D01*
X93551785Y-52379047D01*
X93551785Y-52045714D01*
X93504166Y-51855238D01*
X93408928Y-51760000D01*
X93313690Y-51712380D01*
X92456547Y-52712380D02*
X92456547Y-51712380D01*
X91885119Y-52712380D01*
X91885119Y-51712380D01*
X91408928Y-52712380D02*
X91408928Y-51712380D01*
X90361309Y-52617142D02*
X90408928Y-52664761D01*
X90551785Y-52712380D01*
X90647023Y-52712380D01*
X90789880Y-52664761D01*
X90885119Y-52569523D01*
X90932738Y-52474285D01*
X90980357Y-52283809D01*
X90980357Y-52140952D01*
X90932738Y-51950476D01*
X90885119Y-51855238D01*
X90789880Y-51760000D01*
X90647023Y-51712380D01*
X90551785Y-51712380D01*
X90408928Y-51760000D01*
X90361309Y-51807619D01*
X90027976Y-51712380D02*
X89408928Y-51712380D01*
X89742261Y-52093333D01*
X89599404Y-52093333D01*
X89504166Y-52140952D01*
X89456547Y-52188571D01*
X89408928Y-52283809D01*
X89408928Y-52521904D01*
X89456547Y-52617142D01*
X89504166Y-52664761D01*
X89599404Y-52712380D01*
X89885119Y-52712380D01*
X89980357Y-52664761D01*
X90027976Y-52617142D01*
X88980357Y-52712380D02*
X88980357Y-51712380D01*
X88742261Y-51712380D01*
X88599404Y-51760000D01*
X88504166Y-51855238D01*
X88456547Y-51950476D01*
X88408928Y-52140952D01*
X88408928Y-52283809D01*
X88456547Y-52474285D01*
X88504166Y-52569523D01*
X88599404Y-52664761D01*
X88742261Y-52712380D01*
X88980357Y-52712380D01*
X114647023Y-53457619D02*
X114599404Y-53410000D01*
X114504166Y-53362380D01*
X114266071Y-53362380D01*
X114170833Y-53410000D01*
X114123214Y-53457619D01*
X114075595Y-53552857D01*
X114075595Y-53648095D01*
X114123214Y-53790952D01*
X114694642Y-54362380D01*
X114075595Y-54362380D01*
X113456547Y-53362380D02*
X113361309Y-53362380D01*
X113266071Y-53410000D01*
X113218452Y-53457619D01*
X113170833Y-53552857D01*
X113123214Y-53743333D01*
X113123214Y-53981428D01*
X113170833Y-54171904D01*
X113218452Y-54267142D01*
X113266071Y-54314761D01*
X113361309Y-54362380D01*
X113456547Y-54362380D01*
X113551785Y-54314761D01*
X113599404Y-54267142D01*
X113647023Y-54171904D01*
X113694642Y-53981428D01*
X113694642Y-53743333D01*
X113647023Y-53552857D01*
X113599404Y-53457619D01*
X113551785Y-53410000D01*
X113456547Y-53362380D01*
X112742261Y-53457619D02*
X112694642Y-53410000D01*
X112599404Y-53362380D01*
X112361309Y-53362380D01*
X112266071Y-53410000D01*
X112218452Y-53457619D01*
X112170833Y-53552857D01*
X112170833Y-53648095D01*
X112218452Y-53790952D01*
X112789880Y-54362380D01*
X112170833Y-54362380D01*
X111837500Y-53362380D02*
X111218452Y-53362380D01*
X111551785Y-53743333D01*
X111408928Y-53743333D01*
X111313690Y-53790952D01*
X111266071Y-53838571D01*
X111218452Y-53933809D01*
X111218452Y-54171904D01*
X111266071Y-54267142D01*
X111313690Y-54314761D01*
X111408928Y-54362380D01*
X111694642Y-54362380D01*
X111789880Y-54314761D01*
X111837500Y-54267142D01*
X110789880Y-54267142D02*
X110742261Y-54314761D01*
X110789880Y-54362380D01*
X110837500Y-54314761D01*
X110789880Y-54267142D01*
X110789880Y-54362380D01*
X110313690Y-54362380D02*
X110313690Y-53362380D01*
X109980357Y-54076666D01*
X109647023Y-53362380D01*
X109647023Y-54362380D01*
X108742261Y-54362380D02*
X108742261Y-53838571D01*
X108789880Y-53743333D01*
X108885119Y-53695714D01*
X109075595Y-53695714D01*
X109170833Y-53743333D01*
X108742261Y-54314761D02*
X108837500Y-54362380D01*
X109075595Y-54362380D01*
X109170833Y-54314761D01*
X109218452Y-54219523D01*
X109218452Y-54124285D01*
X109170833Y-54029047D01*
X109075595Y-53981428D01*
X108837500Y-53981428D01*
X108742261Y-53933809D01*
X108266071Y-54362380D02*
X108266071Y-53695714D01*
X108266071Y-53886190D02*
X108218452Y-53790952D01*
X108170833Y-53743333D01*
X108075595Y-53695714D01*
X107980357Y-53695714D01*
X107647023Y-54267142D02*
X107599404Y-54314761D01*
X107647023Y-54362380D01*
X107694642Y-54314761D01*
X107647023Y-54267142D01*
X107647023Y-54362380D01*
X106647023Y-54362380D02*
X107218452Y-54362380D01*
X106932738Y-54362380D02*
X106932738Y-53362380D01*
X107027976Y-53505238D01*
X107123214Y-53600476D01*
X107218452Y-53648095D01*
X105742261Y-53362380D02*
X106218452Y-53362380D01*
X106266071Y-53838571D01*
X106218452Y-53790952D01*
X106123214Y-53743333D01*
X105885119Y-53743333D01*
X105789880Y-53790952D01*
X105742261Y-53838571D01*
X105694642Y-53933809D01*
X105694642Y-54171904D01*
X105742261Y-54267142D01*
X105789880Y-54314761D01*
X105885119Y-54362380D01*
X106123214Y-54362380D01*
X106218452Y-54314761D01*
X106266071Y-54267142D01*
D11*
%TO.C,G\u002A\u002A\u002A*%
G36*
X68776389Y-49665286D02*
G01*
X68731316Y-49685532D01*
X68729761Y-49711118D01*
X68749389Y-49747625D01*
X68775426Y-49735471D01*
X68800763Y-49706417D01*
X68819859Y-49671521D01*
X68784973Y-49664727D01*
X68776389Y-49665286D01*
G37*
X68776389Y-49665286D02*
X68731316Y-49685532D01*
X68729761Y-49711118D01*
X68749389Y-49747625D01*
X68775426Y-49735471D01*
X68800763Y-49706417D01*
X68819859Y-49671521D01*
X68784973Y-49664727D01*
X68776389Y-49665286D01*
G36*
X68072923Y-50665410D02*
G01*
X68072000Y-50673000D01*
X68096161Y-50703827D01*
X68103750Y-50704750D01*
X68134578Y-50680589D01*
X68135500Y-50673000D01*
X68111340Y-50642172D01*
X68103750Y-50641250D01*
X68072923Y-50665410D01*
G37*
X68072923Y-50665410D02*
X68072000Y-50673000D01*
X68096161Y-50703827D01*
X68103750Y-50704750D01*
X68134578Y-50680589D01*
X68135500Y-50673000D01*
X68111340Y-50642172D01*
X68103750Y-50641250D01*
X68072923Y-50665410D01*
G36*
X68235656Y-52082843D02*
G01*
X68201571Y-52114812D01*
X68208563Y-52133190D01*
X68213002Y-52133500D01*
X68239856Y-52110948D01*
X68249657Y-52096844D01*
X68253400Y-52075117D01*
X68235656Y-52082843D01*
G37*
X68235656Y-52082843D02*
X68201571Y-52114812D01*
X68208563Y-52133190D01*
X68213002Y-52133500D01*
X68239856Y-52110948D01*
X68249657Y-52096844D01*
X68253400Y-52075117D01*
X68235656Y-52082843D01*
G36*
X69344474Y-49521959D02*
G01*
X69344718Y-49530000D01*
X69358384Y-49598065D01*
X69373750Y-49641125D01*
X69401037Y-49704625D01*
X69402783Y-49641125D01*
X69389185Y-49563180D01*
X69373750Y-49530000D01*
X69349266Y-49498396D01*
X69344474Y-49521959D01*
G37*
X69344474Y-49521959D02*
X69344718Y-49530000D01*
X69358384Y-49598065D01*
X69373750Y-49641125D01*
X69401037Y-49704625D01*
X69402783Y-49641125D01*
X69389185Y-49563180D01*
X69373750Y-49530000D01*
X69349266Y-49498396D01*
X69344474Y-49521959D01*
G36*
X68929250Y-49736375D02*
G01*
X68945125Y-49752250D01*
X68961000Y-49736375D01*
X68945125Y-49720500D01*
X68929250Y-49736375D01*
G37*
X68929250Y-49736375D02*
X68945125Y-49752250D01*
X68961000Y-49736375D01*
X68945125Y-49720500D01*
X68929250Y-49736375D01*
G36*
X68612189Y-49968017D02*
G01*
X68600269Y-49990375D01*
X68587917Y-50030405D01*
X68588934Y-50035493D01*
X68619968Y-50023243D01*
X68635563Y-50016972D01*
X68670285Y-49985561D01*
X68669628Y-49951938D01*
X68646897Y-49942750D01*
X68612189Y-49968017D01*
G37*
X68612189Y-49968017D02*
X68600269Y-49990375D01*
X68587917Y-50030405D01*
X68588934Y-50035493D01*
X68619968Y-50023243D01*
X68635563Y-50016972D01*
X68670285Y-49985561D01*
X68669628Y-49951938D01*
X68646897Y-49942750D01*
X68612189Y-49968017D01*
G36*
X69096463Y-50116533D02*
G01*
X69088000Y-50133250D01*
X69092877Y-50160973D01*
X69120362Y-50152728D01*
X69151500Y-50133250D01*
X69180689Y-50108644D01*
X69150681Y-50102088D01*
X69143563Y-50101986D01*
X69096463Y-50116533D01*
G37*
X69096463Y-50116533D02*
X69088000Y-50133250D01*
X69092877Y-50160973D01*
X69120362Y-50152728D01*
X69151500Y-50133250D01*
X69180689Y-50108644D01*
X69150681Y-50102088D01*
X69143563Y-50101986D01*
X69096463Y-50116533D01*
G36*
X68711913Y-50094637D02*
G01*
X68664734Y-50119650D01*
X68633025Y-50115053D01*
X68588956Y-50112153D01*
X68580000Y-50126150D01*
X68606063Y-50157365D01*
X68661514Y-50178261D01*
X68712244Y-50177717D01*
X68721037Y-50172130D01*
X68736630Y-50128294D01*
X68738264Y-50104145D01*
X68731284Y-50073315D01*
X68711913Y-50094637D01*
G37*
X68711913Y-50094637D02*
X68664734Y-50119650D01*
X68633025Y-50115053D01*
X68588956Y-50112153D01*
X68580000Y-50126150D01*
X68606063Y-50157365D01*
X68661514Y-50178261D01*
X68712244Y-50177717D01*
X68721037Y-50172130D01*
X68736630Y-50128294D01*
X68738264Y-50104145D01*
X68731284Y-50073315D01*
X68711913Y-50094637D01*
G36*
X69064543Y-50209624D02*
G01*
X69060513Y-50243884D01*
X69094151Y-50270766D01*
X69136642Y-50271341D01*
X69176793Y-50273287D01*
X69183250Y-50288603D01*
X69205466Y-50322121D01*
X69215000Y-50323750D01*
X69245705Y-50299482D01*
X69246750Y-50291214D01*
X69220954Y-50259729D01*
X69162688Y-50227278D01*
X69100637Y-50206707D01*
X69064543Y-50209624D01*
G37*
X69064543Y-50209624D02*
X69060513Y-50243884D01*
X69094151Y-50270766D01*
X69136642Y-50271341D01*
X69176793Y-50273287D01*
X69183250Y-50288603D01*
X69205466Y-50322121D01*
X69215000Y-50323750D01*
X69245705Y-50299482D01*
X69246750Y-50291214D01*
X69220954Y-50259729D01*
X69162688Y-50227278D01*
X69100637Y-50206707D01*
X69064543Y-50209624D01*
G36*
X69027498Y-49366629D02*
G01*
X68965799Y-49394059D01*
X68891504Y-49440844D01*
X68799853Y-49514983D01*
X68703746Y-49603729D01*
X68616082Y-49694337D01*
X68549760Y-49774058D01*
X68517681Y-49830146D01*
X68516500Y-49838031D01*
X68499092Y-49876022D01*
X68488109Y-49879250D01*
X68468367Y-49906286D01*
X68464297Y-49958602D01*
X68478864Y-50024468D01*
X68508183Y-50032829D01*
X68534569Y-50002700D01*
X68532428Y-49957806D01*
X68517178Y-49943168D01*
X68497297Y-49912458D01*
X68510399Y-49898895D01*
X68547478Y-49903727D01*
X68556250Y-49918739D01*
X68576979Y-49942522D01*
X68618754Y-49918127D01*
X68661215Y-49895182D01*
X68686237Y-49925708D01*
X68688080Y-49930386D01*
X68707963Y-49965508D01*
X68738077Y-49955028D01*
X68765725Y-49931196D01*
X68843175Y-49885917D01*
X68910310Y-49889134D01*
X68950962Y-49939789D01*
X68951976Y-49943419D01*
X68974913Y-49986381D01*
X69008796Y-49974358D01*
X69048536Y-49961728D01*
X69067421Y-49989564D01*
X69108124Y-50032281D01*
X69131871Y-50038000D01*
X69159744Y-50027087D01*
X69158350Y-49983815D01*
X69143929Y-49934812D01*
X69117761Y-49852439D01*
X69100550Y-49793847D01*
X69100058Y-49791937D01*
X69064372Y-49756329D01*
X69042368Y-49752250D01*
X69009139Y-49773608D01*
X69011786Y-49796663D01*
X69011797Y-49845800D01*
X69001337Y-49858068D01*
X68950671Y-49860474D01*
X68909769Y-49814235D01*
X68891627Y-49734123D01*
X68891607Y-49733336D01*
X68891890Y-49632523D01*
X68901044Y-49580455D01*
X68922542Y-49562606D01*
X68932647Y-49561750D01*
X68953877Y-49584845D01*
X68949519Y-49609375D01*
X68954449Y-49648013D01*
X68997189Y-49657000D01*
X69043988Y-49645635D01*
X69048287Y-49599736D01*
X69044122Y-49581248D01*
X69042944Y-49544562D01*
X68855167Y-49544562D01*
X68832859Y-49573157D01*
X68804896Y-49569214D01*
X68772668Y-49561336D01*
X68782845Y-49583633D01*
X68805971Y-49611928D01*
X68852572Y-49689412D01*
X68848850Y-49743759D01*
X68796884Y-49765820D01*
X68771263Y-49764669D01*
X68681817Y-49780819D01*
X68642546Y-49817074D01*
X68596363Y-49866916D01*
X68566228Y-49876120D01*
X68564854Y-49842187D01*
X68568519Y-49831625D01*
X68600716Y-49789586D01*
X68617021Y-49784000D01*
X68631520Y-49763768D01*
X68624594Y-49747344D01*
X68620831Y-49725321D01*
X68634985Y-49731112D01*
X68667356Y-49722016D01*
X68685379Y-49685198D01*
X68713386Y-49639335D01*
X68742009Y-49643138D01*
X68767954Y-49647289D01*
X68761203Y-49615067D01*
X68767811Y-49557556D01*
X68798141Y-49532199D01*
X68844163Y-49518728D01*
X68855167Y-49544562D01*
X69042944Y-49544562D01*
X69042123Y-49519029D01*
X69085147Y-49489825D01*
X69088349Y-49488959D01*
X69131130Y-49486954D01*
X69133796Y-49501210D01*
X69140005Y-49527898D01*
X69152273Y-49530000D01*
X69177667Y-49552644D01*
X69175590Y-49568855D01*
X69179597Y-49623533D01*
X69204301Y-49687917D01*
X69226147Y-49747835D01*
X69219780Y-49776983D01*
X69208870Y-49810493D01*
X69210539Y-49885775D01*
X69216684Y-49935733D01*
X69227789Y-50028183D01*
X69229761Y-50092638D01*
X69226868Y-50107243D01*
X69236499Y-50140556D01*
X69248741Y-50150355D01*
X69268277Y-50198027D01*
X69265613Y-50299369D01*
X69262155Y-50327174D01*
X69253645Y-50431013D01*
X69262056Y-50477601D01*
X69283271Y-50469603D01*
X69313176Y-50409682D01*
X69347656Y-50300504D01*
X69356435Y-50266127D01*
X69381385Y-50136179D01*
X69395287Y-50004549D01*
X69398101Y-49885660D01*
X69389788Y-49793932D01*
X69370308Y-49743788D01*
X69357875Y-49738632D01*
X69328282Y-49767344D01*
X69318458Y-49802132D01*
X69314887Y-49843680D01*
X69326107Y-49827739D01*
X69338495Y-49799875D01*
X69356092Y-49771546D01*
X69364944Y-49795444D01*
X69367666Y-49863375D01*
X69364672Y-49996509D01*
X69353636Y-50098749D01*
X69336516Y-50160240D01*
X69315268Y-50171129D01*
X69308221Y-50162803D01*
X69286231Y-50096297D01*
X69281218Y-50038000D01*
X69284680Y-49985086D01*
X69296331Y-49991601D01*
X69310250Y-50022125D01*
X69331629Y-50058258D01*
X69340153Y-50045436D01*
X69336195Y-49996811D01*
X69320124Y-49925535D01*
X69306282Y-49881512D01*
X69286531Y-49781973D01*
X69307471Y-49698047D01*
X69329131Y-49634043D01*
X69327996Y-49600662D01*
X69306010Y-49613371D01*
X69281195Y-49660327D01*
X69258387Y-49704257D01*
X69248987Y-49687139D01*
X69248763Y-49682686D01*
X69265049Y-49624382D01*
X69281266Y-49607665D01*
X69302958Y-49563365D01*
X69300114Y-49526416D01*
X69302646Y-49477661D01*
X69321160Y-49466290D01*
X69322500Y-49451508D01*
X69314883Y-49444952D01*
X69247851Y-49444952D01*
X69220485Y-49456857D01*
X69175248Y-49440795D01*
X69168153Y-49435395D01*
X69120802Y-49412612D01*
X69065511Y-49433582D01*
X69048323Y-49445080D01*
X68978971Y-49484781D01*
X68931526Y-49497368D01*
X68918250Y-49482560D01*
X68943758Y-49447456D01*
X69004854Y-49414734D01*
X69092489Y-49395647D01*
X69178430Y-49393571D01*
X69234441Y-49411881D01*
X69235194Y-49412610D01*
X69247851Y-49444952D01*
X69314883Y-49444952D01*
X69280138Y-49415049D01*
X69262625Y-49403000D01*
X69179749Y-49355828D01*
X69110145Y-49343969D01*
X69027498Y-49366629D01*
G37*
X69027498Y-49366629D02*
X68965799Y-49394059D01*
X68891504Y-49440844D01*
X68799853Y-49514983D01*
X68703746Y-49603729D01*
X68616082Y-49694337D01*
X68549760Y-49774058D01*
X68517681Y-49830146D01*
X68516500Y-49838031D01*
X68499092Y-49876022D01*
X68488109Y-49879250D01*
X68468367Y-49906286D01*
X68464297Y-49958602D01*
X68478864Y-50024468D01*
X68508183Y-50032829D01*
X68534569Y-50002700D01*
X68532428Y-49957806D01*
X68517178Y-49943168D01*
X68497297Y-49912458D01*
X68510399Y-49898895D01*
X68547478Y-49903727D01*
X68556250Y-49918739D01*
X68576979Y-49942522D01*
X68618754Y-49918127D01*
X68661215Y-49895182D01*
X68686237Y-49925708D01*
X68688080Y-49930386D01*
X68707963Y-49965508D01*
X68738077Y-49955028D01*
X68765725Y-49931196D01*
X68843175Y-49885917D01*
X68910310Y-49889134D01*
X68950962Y-49939789D01*
X68951976Y-49943419D01*
X68974913Y-49986381D01*
X69008796Y-49974358D01*
X69048536Y-49961728D01*
X69067421Y-49989564D01*
X69108124Y-50032281D01*
X69131871Y-50038000D01*
X69159744Y-50027087D01*
X69158350Y-49983815D01*
X69143929Y-49934812D01*
X69117761Y-49852439D01*
X69100550Y-49793847D01*
X69100058Y-49791937D01*
X69064372Y-49756329D01*
X69042368Y-49752250D01*
X69009139Y-49773608D01*
X69011786Y-49796663D01*
X69011797Y-49845800D01*
X69001337Y-49858068D01*
X68950671Y-49860474D01*
X68909769Y-49814235D01*
X68891627Y-49734123D01*
X68891607Y-49733336D01*
X68891890Y-49632523D01*
X68901044Y-49580455D01*
X68922542Y-49562606D01*
X68932647Y-49561750D01*
X68953877Y-49584845D01*
X68949519Y-49609375D01*
X68954449Y-49648013D01*
X68997189Y-49657000D01*
X69043988Y-49645635D01*
X69048287Y-49599736D01*
X69044122Y-49581248D01*
X69042944Y-49544562D01*
X68855167Y-49544562D01*
X68832859Y-49573157D01*
X68804896Y-49569214D01*
X68772668Y-49561336D01*
X68782845Y-49583633D01*
X68805971Y-49611928D01*
X68852572Y-49689412D01*
X68848850Y-49743759D01*
X68796884Y-49765820D01*
X68771263Y-49764669D01*
X68681817Y-49780819D01*
X68642546Y-49817074D01*
X68596363Y-49866916D01*
X68566228Y-49876120D01*
X68564854Y-49842187D01*
X68568519Y-49831625D01*
X68600716Y-49789586D01*
X68617021Y-49784000D01*
X68631520Y-49763768D01*
X68624594Y-49747344D01*
X68620831Y-49725321D01*
X68634985Y-49731112D01*
X68667356Y-49722016D01*
X68685379Y-49685198D01*
X68713386Y-49639335D01*
X68742009Y-49643138D01*
X68767954Y-49647289D01*
X68761203Y-49615067D01*
X68767811Y-49557556D01*
X68798141Y-49532199D01*
X68844163Y-49518728D01*
X68855167Y-49544562D01*
X69042944Y-49544562D01*
X69042123Y-49519029D01*
X69085147Y-49489825D01*
X69088349Y-49488959D01*
X69131130Y-49486954D01*
X69133796Y-49501210D01*
X69140005Y-49527898D01*
X69152273Y-49530000D01*
X69177667Y-49552644D01*
X69175590Y-49568855D01*
X69179597Y-49623533D01*
X69204301Y-49687917D01*
X69226147Y-49747835D01*
X69219780Y-49776983D01*
X69208870Y-49810493D01*
X69210539Y-49885775D01*
X69216684Y-49935733D01*
X69227789Y-50028183D01*
X69229761Y-50092638D01*
X69226868Y-50107243D01*
X69236499Y-50140556D01*
X69248741Y-50150355D01*
X69268277Y-50198027D01*
X69265613Y-50299369D01*
X69262155Y-50327174D01*
X69253645Y-50431013D01*
X69262056Y-50477601D01*
X69283271Y-50469603D01*
X69313176Y-50409682D01*
X69347656Y-50300504D01*
X69356435Y-50266127D01*
X69381385Y-50136179D01*
X69395287Y-50004549D01*
X69398101Y-49885660D01*
X69389788Y-49793932D01*
X69370308Y-49743788D01*
X69357875Y-49738632D01*
X69328282Y-49767344D01*
X69318458Y-49802132D01*
X69314887Y-49843680D01*
X69326107Y-49827739D01*
X69338495Y-49799875D01*
X69356092Y-49771546D01*
X69364944Y-49795444D01*
X69367666Y-49863375D01*
X69364672Y-49996509D01*
X69353636Y-50098749D01*
X69336516Y-50160240D01*
X69315268Y-50171129D01*
X69308221Y-50162803D01*
X69286231Y-50096297D01*
X69281218Y-50038000D01*
X69284680Y-49985086D01*
X69296331Y-49991601D01*
X69310250Y-50022125D01*
X69331629Y-50058258D01*
X69340153Y-50045436D01*
X69336195Y-49996811D01*
X69320124Y-49925535D01*
X69306282Y-49881512D01*
X69286531Y-49781973D01*
X69307471Y-49698047D01*
X69329131Y-49634043D01*
X69327996Y-49600662D01*
X69306010Y-49613371D01*
X69281195Y-49660327D01*
X69258387Y-49704257D01*
X69248987Y-49687139D01*
X69248763Y-49682686D01*
X69265049Y-49624382D01*
X69281266Y-49607665D01*
X69302958Y-49563365D01*
X69300114Y-49526416D01*
X69302646Y-49477661D01*
X69321160Y-49466290D01*
X69322500Y-49451508D01*
X69314883Y-49444952D01*
X69247851Y-49444952D01*
X69220485Y-49456857D01*
X69175248Y-49440795D01*
X69168153Y-49435395D01*
X69120802Y-49412612D01*
X69065511Y-49433582D01*
X69048323Y-49445080D01*
X68978971Y-49484781D01*
X68931526Y-49497368D01*
X68918250Y-49482560D01*
X68943758Y-49447456D01*
X69004854Y-49414734D01*
X69092489Y-49395647D01*
X69178430Y-49393571D01*
X69234441Y-49411881D01*
X69235194Y-49412610D01*
X69247851Y-49444952D01*
X69314883Y-49444952D01*
X69280138Y-49415049D01*
X69262625Y-49403000D01*
X69179749Y-49355828D01*
X69110145Y-49343969D01*
X69027498Y-49366629D01*
G36*
X69257334Y-50556583D02*
G01*
X69253534Y-50594263D01*
X69257334Y-50598916D01*
X69276209Y-50594558D01*
X69278500Y-50577750D01*
X69266884Y-50551616D01*
X69257334Y-50556583D01*
G37*
X69257334Y-50556583D02*
X69253534Y-50594263D01*
X69257334Y-50598916D01*
X69276209Y-50594558D01*
X69278500Y-50577750D01*
X69266884Y-50551616D01*
X69257334Y-50556583D01*
G36*
X68929250Y-51069875D02*
G01*
X68945125Y-51085750D01*
X68961000Y-51069875D01*
X68945125Y-51054000D01*
X68929250Y-51069875D01*
G37*
X68929250Y-51069875D02*
X68945125Y-51085750D01*
X68961000Y-51069875D01*
X68945125Y-51054000D01*
X68929250Y-51069875D01*
G36*
X68706293Y-50552456D02*
G01*
X68681960Y-50568366D01*
X68605995Y-50646076D01*
X68523251Y-50761872D01*
X68446921Y-50893566D01*
X68390199Y-51018967D01*
X68368444Y-51095657D01*
X68360157Y-51172666D01*
X68374276Y-51205765D01*
X68417166Y-51212750D01*
X68477231Y-51190653D01*
X68554782Y-51134354D01*
X68596912Y-51093984D01*
X68675057Y-50997240D01*
X68751157Y-50880043D01*
X68814904Y-50761080D01*
X68855989Y-50659037D01*
X68865750Y-50606662D01*
X68841955Y-50549588D01*
X68782724Y-50530253D01*
X68706293Y-50552456D01*
G37*
X68706293Y-50552456D02*
X68681960Y-50568366D01*
X68605995Y-50646076D01*
X68523251Y-50761872D01*
X68446921Y-50893566D01*
X68390199Y-51018967D01*
X68368444Y-51095657D01*
X68360157Y-51172666D01*
X68374276Y-51205765D01*
X68417166Y-51212750D01*
X68477231Y-51190653D01*
X68554782Y-51134354D01*
X68596912Y-51093984D01*
X68675057Y-50997240D01*
X68751157Y-50880043D01*
X68814904Y-50761080D01*
X68855989Y-50659037D01*
X68865750Y-50606662D01*
X68841955Y-50549588D01*
X68782724Y-50530253D01*
X68706293Y-50552456D01*
G36*
X68770855Y-51330910D02*
G01*
X68742374Y-51361744D01*
X68751446Y-51394779D01*
X68768488Y-51387807D01*
X68770987Y-51368854D01*
X68776841Y-51340486D01*
X68798768Y-51366952D01*
X68831389Y-51389996D01*
X68845724Y-51378216D01*
X68839352Y-51341612D01*
X68818960Y-51328588D01*
X68770855Y-51330910D01*
G37*
X68770855Y-51330910D02*
X68742374Y-51361744D01*
X68751446Y-51394779D01*
X68768488Y-51387807D01*
X68770987Y-51368854D01*
X68776841Y-51340486D01*
X68798768Y-51366952D01*
X68831389Y-51389996D01*
X68845724Y-51378216D01*
X68839352Y-51341612D01*
X68818960Y-51328588D01*
X68770855Y-51330910D01*
G36*
X67826990Y-50986913D02*
G01*
X67799241Y-51058942D01*
X67771995Y-51156145D01*
X67750956Y-51259830D01*
X67745426Y-51300062D01*
X67744499Y-51369968D01*
X67757814Y-51402879D01*
X67759999Y-51403250D01*
X67784799Y-51378326D01*
X67786250Y-51366208D01*
X67797627Y-51343369D01*
X67804662Y-51347578D01*
X67802239Y-51383875D01*
X67770790Y-51445780D01*
X67769927Y-51447102D01*
X67735860Y-51516481D01*
X67729549Y-51566519D01*
X67749536Y-51563641D01*
X67787067Y-51514986D01*
X67816197Y-51464349D01*
X67853423Y-51375593D01*
X67876705Y-51292125D01*
X67849750Y-51292125D01*
X67833875Y-51308000D01*
X67818000Y-51292125D01*
X67833875Y-51276250D01*
X67849750Y-51292125D01*
X67876705Y-51292125D01*
X67880924Y-51277001D01*
X67896643Y-51183916D01*
X67897180Y-51163251D01*
X67849750Y-51163251D01*
X67833174Y-51206692D01*
X67818000Y-51212750D01*
X67787159Y-51189962D01*
X67786250Y-51182873D01*
X67809330Y-51139873D01*
X67818000Y-51133375D01*
X67845182Y-51140572D01*
X67849750Y-51163251D01*
X67897180Y-51163251D01*
X67898523Y-51111681D01*
X67884507Y-51075638D01*
X67868054Y-51077500D01*
X67856267Y-51074989D01*
X67873288Y-51049235D01*
X67890197Y-51006375D01*
X67881500Y-51006375D01*
X67865625Y-51022250D01*
X67849750Y-51006375D01*
X67865625Y-50990500D01*
X67881500Y-51006375D01*
X67890197Y-51006375D01*
X67894782Y-50994756D01*
X67868650Y-50961534D01*
X67849541Y-50958750D01*
X67826990Y-50986913D01*
G37*
X67826990Y-50986913D02*
X67799241Y-51058942D01*
X67771995Y-51156145D01*
X67750956Y-51259830D01*
X67745426Y-51300062D01*
X67744499Y-51369968D01*
X67757814Y-51402879D01*
X67759999Y-51403250D01*
X67784799Y-51378326D01*
X67786250Y-51366208D01*
X67797627Y-51343369D01*
X67804662Y-51347578D01*
X67802239Y-51383875D01*
X67770790Y-51445780D01*
X67769927Y-51447102D01*
X67735860Y-51516481D01*
X67729549Y-51566519D01*
X67749536Y-51563641D01*
X67787067Y-51514986D01*
X67816197Y-51464349D01*
X67853423Y-51375593D01*
X67876705Y-51292125D01*
X67849750Y-51292125D01*
X67833875Y-51308000D01*
X67818000Y-51292125D01*
X67833875Y-51276250D01*
X67849750Y-51292125D01*
X67876705Y-51292125D01*
X67880924Y-51277001D01*
X67896643Y-51183916D01*
X67897180Y-51163251D01*
X67849750Y-51163251D01*
X67833174Y-51206692D01*
X67818000Y-51212750D01*
X67787159Y-51189962D01*
X67786250Y-51182873D01*
X67809330Y-51139873D01*
X67818000Y-51133375D01*
X67845182Y-51140572D01*
X67849750Y-51163251D01*
X67897180Y-51163251D01*
X67898523Y-51111681D01*
X67884507Y-51075638D01*
X67868054Y-51077500D01*
X67856267Y-51074989D01*
X67873288Y-51049235D01*
X67890197Y-51006375D01*
X67881500Y-51006375D01*
X67865625Y-51022250D01*
X67849750Y-51006375D01*
X67865625Y-50990500D01*
X67881500Y-51006375D01*
X67890197Y-51006375D01*
X67894782Y-50994756D01*
X67868650Y-50961534D01*
X67849541Y-50958750D01*
X67826990Y-50986913D01*
G36*
X68400449Y-49968472D02*
G01*
X68352153Y-50037151D01*
X68290702Y-50136052D01*
X68264279Y-50181401D01*
X68199706Y-50291116D01*
X68145058Y-50378238D01*
X68109131Y-50428963D01*
X68102183Y-50435843D01*
X68076709Y-50473817D01*
X68045479Y-50548264D01*
X68037966Y-50570254D01*
X68007835Y-50650072D01*
X67981422Y-50699800D01*
X67976580Y-50704750D01*
X67947968Y-50741486D01*
X67907940Y-50810423D01*
X67902591Y-50820716D01*
X67871245Y-50888867D01*
X67871595Y-50922199D01*
X67901455Y-50940047D01*
X67936244Y-50977438D01*
X67934901Y-51002773D01*
X67939819Y-51060827D01*
X67955154Y-51083203D01*
X67973941Y-51122206D01*
X67948803Y-51146900D01*
X67918150Y-51192752D01*
X67919644Y-51216056D01*
X67940619Y-51211553D01*
X67983481Y-51161450D01*
X68039844Y-51075967D01*
X68053448Y-51053041D01*
X68121387Y-50941755D01*
X68186313Y-50844323D01*
X68234604Y-50781144D01*
X68236072Y-50779537D01*
X68275073Y-50720243D01*
X68264888Y-50690350D01*
X68232498Y-50647209D01*
X68230750Y-50635488D01*
X68248141Y-50621417D01*
X68276398Y-50639609D01*
X68313060Y-50655234D01*
X68346908Y-50624975D01*
X68371977Y-50580937D01*
X68372656Y-50579957D01*
X68338434Y-50579957D01*
X68336039Y-50597384D01*
X68307566Y-50626271D01*
X68286166Y-50614115D01*
X68231881Y-50595389D01*
X68211007Y-50599502D01*
X68174087Y-50595781D01*
X68170750Y-50562467D01*
X68199285Y-50529949D01*
X68256358Y-50519337D01*
X68311335Y-50540245D01*
X68338434Y-50579957D01*
X68372656Y-50579957D01*
X68426040Y-50502975D01*
X68486711Y-50449706D01*
X68487542Y-50449256D01*
X68534468Y-50401876D01*
X68534472Y-50386645D01*
X68516500Y-50386645D01*
X68488557Y-50418241D01*
X68419667Y-50440402D01*
X68332241Y-50447940D01*
X68275496Y-50442428D01*
X68207076Y-50449069D01*
X68166307Y-50503707D01*
X68151025Y-50610830D01*
X68152883Y-50696976D01*
X68151581Y-50784074D01*
X68139022Y-50841058D01*
X68132204Y-50849662D01*
X68108026Y-50840232D01*
X68103750Y-50815875D01*
X68091016Y-50780022D01*
X68077031Y-50781015D01*
X68059815Y-50821193D01*
X68056052Y-50894014D01*
X68051930Y-50961291D01*
X68034040Y-50990465D01*
X68033272Y-50990500D01*
X68019087Y-51010253D01*
X68024375Y-51022250D01*
X68021858Y-51051507D01*
X68010374Y-51054000D01*
X67977939Y-51043824D01*
X67976750Y-51040191D01*
X67986830Y-51003600D01*
X68008405Y-50943127D01*
X68014675Y-50921671D01*
X67973048Y-50921671D01*
X67968386Y-50949436D01*
X67945000Y-50942875D01*
X67917375Y-50897564D01*
X67913737Y-50869563D01*
X67918875Y-50834031D01*
X67940824Y-50857110D01*
X67945000Y-50863500D01*
X67973048Y-50921671D01*
X68014675Y-50921671D01*
X68024921Y-50886617D01*
X68010733Y-50878537D01*
X68003009Y-50882768D01*
X67979261Y-50884180D01*
X67986233Y-50852833D01*
X67986596Y-50807656D01*
X67967817Y-50799034D01*
X67958548Y-50786088D01*
X67984688Y-50765706D01*
X68030932Y-50715869D01*
X68040250Y-50682149D01*
X68053494Y-50629142D01*
X68086716Y-50556073D01*
X68130152Y-50479075D01*
X68174039Y-50414279D01*
X68208613Y-50377820D01*
X68223066Y-50380072D01*
X68260961Y-50409535D01*
X68316659Y-50419000D01*
X68370895Y-50413291D01*
X68371338Y-50389309D01*
X68358485Y-50372260D01*
X68337268Y-50324770D01*
X68368205Y-50277010D01*
X68406166Y-50245337D01*
X68286039Y-50245337D01*
X68279681Y-50258137D01*
X68249406Y-50290962D01*
X68243837Y-50267813D01*
X68251544Y-50243005D01*
X68274919Y-50208428D01*
X68285477Y-50209143D01*
X68286039Y-50245337D01*
X68406166Y-50245337D01*
X68419811Y-50233953D01*
X68438166Y-50243745D01*
X68430450Y-50292000D01*
X68432567Y-50344026D01*
X68465172Y-50355500D01*
X68509753Y-50371257D01*
X68516500Y-50386645D01*
X68534472Y-50386645D01*
X68534478Y-50365404D01*
X68533795Y-50330929D01*
X68562749Y-50334703D01*
X68612808Y-50336465D01*
X68626258Y-50325962D01*
X68673472Y-50296926D01*
X68754976Y-50278363D01*
X68841943Y-50273773D01*
X68905547Y-50286655D01*
X68912438Y-50291222D01*
X68940755Y-50337354D01*
X68961556Y-50408936D01*
X68971134Y-50482529D01*
X68965778Y-50534690D01*
X68952751Y-50546000D01*
X68939596Y-50565744D01*
X68944720Y-50577093D01*
X68946733Y-50626997D01*
X68930743Y-50670211D01*
X68915799Y-50721139D01*
X68952359Y-50749286D01*
X68966960Y-50754266D01*
X69014755Y-50774330D01*
X69005323Y-50797970D01*
X68980911Y-50816850D01*
X68946479Y-50855978D01*
X68962650Y-50880394D01*
X69008642Y-50878436D01*
X69027564Y-50859630D01*
X69050673Y-50834800D01*
X69055764Y-50855873D01*
X69034032Y-50905380D01*
X68994377Y-50948849D01*
X68952762Y-51000610D01*
X68955040Y-51035248D01*
X68998731Y-51037191D01*
X69007952Y-51033990D01*
X69035836Y-51031026D01*
X69029250Y-51065260D01*
X69015785Y-51095336D01*
X68985723Y-51147758D01*
X68959586Y-51147093D01*
X68936456Y-51121897D01*
X68907746Y-51091736D01*
X68905203Y-51112729D01*
X68913248Y-51149250D01*
X68923344Y-51200542D01*
X68912357Y-51195580D01*
X68896509Y-51171400D01*
X68878644Y-51103399D01*
X68890363Y-51076150D01*
X68904280Y-51038125D01*
X68865750Y-51038125D01*
X68849875Y-51054000D01*
X68834000Y-51038125D01*
X68849875Y-51022250D01*
X68865750Y-51038125D01*
X68904280Y-51038125D01*
X68911403Y-51018664D01*
X68918347Y-50946451D01*
X68886587Y-50946451D01*
X68881625Y-50958750D01*
X68853095Y-50989038D01*
X68848002Y-50990500D01*
X68834365Y-50965935D01*
X68834000Y-50958750D01*
X68858408Y-50928220D01*
X68867624Y-50927000D01*
X68886587Y-50946451D01*
X68918347Y-50946451D01*
X68918848Y-50941246D01*
X68925321Y-50859445D01*
X68941227Y-50806308D01*
X68945814Y-50772637D01*
X68934442Y-50768250D01*
X68902787Y-50794576D01*
X68861407Y-50858817D01*
X68821303Y-50938864D01*
X68793477Y-51012609D01*
X68788930Y-51057944D01*
X68789628Y-51059263D01*
X68784888Y-51084657D01*
X68777471Y-51085750D01*
X68746076Y-51111759D01*
X68711581Y-51173062D01*
X68688179Y-51230632D01*
X68693356Y-51235091D01*
X68725643Y-51196875D01*
X68762359Y-51153849D01*
X68767627Y-51162544D01*
X68755770Y-51204812D01*
X68750765Y-51261390D01*
X68781264Y-51276250D01*
X68813913Y-51255556D01*
X68810465Y-51204812D01*
X68804056Y-51157001D01*
X68812720Y-51151177D01*
X68833763Y-51194329D01*
X68842139Y-51230552D01*
X68863823Y-51305373D01*
X68878363Y-51334859D01*
X68880098Y-51391969D01*
X68853632Y-51428975D01*
X68814645Y-51461411D01*
X68802289Y-51445942D01*
X68801764Y-51433866D01*
X68796515Y-51404062D01*
X68774026Y-51429589D01*
X68770500Y-51435000D01*
X68749433Y-51462756D01*
X68737677Y-51454158D01*
X68730157Y-51398675D01*
X68725842Y-51342350D01*
X68696914Y-51292650D01*
X68678572Y-51282648D01*
X68649736Y-51286559D01*
X68651751Y-51335551D01*
X68655535Y-51351625D01*
X68651819Y-51459352D01*
X68628154Y-51509112D01*
X68599117Y-51568905D01*
X68599228Y-51602393D01*
X68595368Y-51637979D01*
X68561334Y-51701657D01*
X68549568Y-51718900D01*
X68501810Y-51814340D01*
X68500619Y-51879478D01*
X68531302Y-51931850D01*
X68563942Y-51938603D01*
X68579968Y-51896456D01*
X68580000Y-51893501D01*
X68563528Y-51861368D01*
X68545628Y-51865245D01*
X68532610Y-51860237D01*
X68546490Y-51820060D01*
X68578038Y-51761768D01*
X68618023Y-51702412D01*
X68657214Y-51659044D01*
X68657282Y-51658987D01*
X68698055Y-51633996D01*
X68704195Y-51649525D01*
X68678230Y-51694599D01*
X68638084Y-51742390D01*
X68596639Y-51798819D01*
X68589708Y-51836079D01*
X68590787Y-51837369D01*
X68623491Y-51834199D01*
X68665743Y-51788128D01*
X68705355Y-51715918D01*
X68727127Y-51649827D01*
X68748556Y-51592517D01*
X68771654Y-51578588D01*
X68803327Y-51566151D01*
X68832355Y-51530250D01*
X68802250Y-51530250D01*
X68790634Y-51556383D01*
X68781084Y-51551416D01*
X68777732Y-51518174D01*
X68720114Y-51518174D01*
X68694651Y-51561558D01*
X68649403Y-51589569D01*
X68631675Y-51591243D01*
X68618211Y-51581869D01*
X68635563Y-51572722D01*
X68671607Y-51530878D01*
X68675250Y-51509855D01*
X68692047Y-51479579D01*
X68708542Y-51483577D01*
X68720114Y-51518174D01*
X68777732Y-51518174D01*
X68777284Y-51513736D01*
X68781084Y-51509083D01*
X68799959Y-51513441D01*
X68802250Y-51530250D01*
X68832355Y-51530250D01*
X68845292Y-51514250D01*
X68886015Y-51443048D01*
X68913959Y-51372713D01*
X68917606Y-51323449D01*
X68919496Y-51287395D01*
X68935248Y-51284568D01*
X68964806Y-51261608D01*
X69007594Y-51194193D01*
X69052224Y-51101625D01*
X69096495Y-51001513D01*
X69109348Y-50974625D01*
X69088000Y-50974625D01*
X69072125Y-50990500D01*
X69056250Y-50974625D01*
X69072125Y-50958750D01*
X69088000Y-50974625D01*
X69109348Y-50974625D01*
X69132186Y-50926850D01*
X69150557Y-50895250D01*
X69177109Y-50847625D01*
X69119750Y-50847625D01*
X69103875Y-50863500D01*
X69088000Y-50847625D01*
X69103875Y-50831750D01*
X69119750Y-50847625D01*
X69177109Y-50847625D01*
X69186670Y-50830476D01*
X69210744Y-50731419D01*
X69215420Y-50655301D01*
X69142355Y-50655301D01*
X69136640Y-50701553D01*
X69112016Y-50759288D01*
X69095502Y-50754726D01*
X69088242Y-50688690D01*
X69088000Y-50666650D01*
X69092243Y-50619249D01*
X69052621Y-50619249D01*
X69035084Y-50651833D01*
X69013017Y-50670014D01*
X69004788Y-50648892D01*
X69001480Y-50609500D01*
X69009967Y-50558075D01*
X69026474Y-50546000D01*
X69052181Y-50570002D01*
X69052621Y-50619249D01*
X69092243Y-50619249D01*
X69093874Y-50601031D01*
X69113542Y-50592130D01*
X69122904Y-50599953D01*
X69142355Y-50655301D01*
X69215420Y-50655301D01*
X69217161Y-50626972D01*
X69211748Y-50580564D01*
X69205857Y-50530125D01*
X69151500Y-50530125D01*
X69135625Y-50546000D01*
X69119750Y-50530125D01*
X69135625Y-50514250D01*
X69151500Y-50530125D01*
X69205857Y-50530125D01*
X69201422Y-50492164D01*
X69207029Y-50424753D01*
X69208032Y-50421814D01*
X69216227Y-50389015D01*
X69192865Y-50398378D01*
X69165383Y-50419000D01*
X69108351Y-50468468D01*
X69081789Y-50497455D01*
X69047023Y-50512056D01*
X69037604Y-50506186D01*
X69043450Y-50473261D01*
X69087760Y-50423571D01*
X69091440Y-50420438D01*
X69139974Y-50372908D01*
X69140539Y-50353626D01*
X69056250Y-50353626D01*
X69033203Y-50385957D01*
X69024500Y-50387250D01*
X68993576Y-50376417D01*
X68992750Y-50373248D01*
X69014999Y-50346141D01*
X69024500Y-50339625D01*
X69053758Y-50342142D01*
X69056250Y-50353626D01*
X69140539Y-50353626D01*
X69140859Y-50342713D01*
X69119750Y-50324881D01*
X69047407Y-50296920D01*
X69008625Y-50292000D01*
X68966727Y-50286411D01*
X68983459Y-50265515D01*
X68992750Y-50259118D01*
X69019511Y-50230424D01*
X69001322Y-50196750D01*
X68961000Y-50196750D01*
X68934408Y-50222546D01*
X68897500Y-50228500D01*
X68845908Y-50215203D01*
X68834000Y-50196750D01*
X68860593Y-50170953D01*
X68897500Y-50165000D01*
X68949093Y-50178296D01*
X68961000Y-50196750D01*
X69001322Y-50196750D01*
X69000881Y-50195934D01*
X68968938Y-50167203D01*
X68909462Y-50104627D01*
X68906616Y-50066376D01*
X68960015Y-50055113D01*
X68984813Y-50057137D01*
X69029571Y-50059915D01*
X69015123Y-50051540D01*
X69008625Y-50049652D01*
X68941554Y-50021590D01*
X68914963Y-50003168D01*
X68861880Y-49980463D01*
X68791175Y-49975746D01*
X68736533Y-49989893D01*
X68728082Y-49998312D01*
X68735900Y-50036448D01*
X68757958Y-50063064D01*
X68794099Y-50083228D01*
X68802250Y-50071001D01*
X68825656Y-50039163D01*
X68834000Y-50038000D01*
X68862168Y-50063716D01*
X68865750Y-50085625D01*
X68844278Y-50127802D01*
X68825763Y-50133250D01*
X68779383Y-50157561D01*
X68745418Y-50197871D01*
X68710537Y-50241308D01*
X68672456Y-50237543D01*
X68635467Y-50213746D01*
X68567883Y-50174678D01*
X68532254Y-50168470D01*
X68538006Y-50192634D01*
X68575580Y-50229556D01*
X68624878Y-50273007D01*
X68626640Y-50289446D01*
X68583518Y-50292000D01*
X68519825Y-50295393D01*
X68495852Y-50299937D01*
X68474420Y-50283635D01*
X68464799Y-50233469D01*
X68468978Y-50178312D01*
X68485437Y-50148700D01*
X68492597Y-50114291D01*
X68467607Y-50079820D01*
X68417221Y-50047583D01*
X68394847Y-50061693D01*
X68415601Y-50110321D01*
X68420614Y-50116607D01*
X68440288Y-50155579D01*
X68428535Y-50165000D01*
X68357750Y-50165000D01*
X68346134Y-50191133D01*
X68336584Y-50186166D01*
X68332784Y-50148486D01*
X68336584Y-50143833D01*
X68355459Y-50148191D01*
X68357750Y-50165000D01*
X68428535Y-50165000D01*
X68387311Y-50140194D01*
X68373250Y-50085639D01*
X68391445Y-50031129D01*
X68403647Y-50019462D01*
X68447152Y-49975212D01*
X68445189Y-49946690D01*
X68426913Y-49942750D01*
X68400449Y-49968472D01*
G37*
X68400449Y-49968472D02*
X68352153Y-50037151D01*
X68290702Y-50136052D01*
X68264279Y-50181401D01*
X68199706Y-50291116D01*
X68145058Y-50378238D01*
X68109131Y-50428963D01*
X68102183Y-50435843D01*
X68076709Y-50473817D01*
X68045479Y-50548264D01*
X68037966Y-50570254D01*
X68007835Y-50650072D01*
X67981422Y-50699800D01*
X67976580Y-50704750D01*
X67947968Y-50741486D01*
X67907940Y-50810423D01*
X67902591Y-50820716D01*
X67871245Y-50888867D01*
X67871595Y-50922199D01*
X67901455Y-50940047D01*
X67936244Y-50977438D01*
X67934901Y-51002773D01*
X67939819Y-51060827D01*
X67955154Y-51083203D01*
X67973941Y-51122206D01*
X67948803Y-51146900D01*
X67918150Y-51192752D01*
X67919644Y-51216056D01*
X67940619Y-51211553D01*
X67983481Y-51161450D01*
X68039844Y-51075967D01*
X68053448Y-51053041D01*
X68121387Y-50941755D01*
X68186313Y-50844323D01*
X68234604Y-50781144D01*
X68236072Y-50779537D01*
X68275073Y-50720243D01*
X68264888Y-50690350D01*
X68232498Y-50647209D01*
X68230750Y-50635488D01*
X68248141Y-50621417D01*
X68276398Y-50639609D01*
X68313060Y-50655234D01*
X68346908Y-50624975D01*
X68371977Y-50580937D01*
X68372656Y-50579957D01*
X68338434Y-50579957D01*
X68336039Y-50597384D01*
X68307566Y-50626271D01*
X68286166Y-50614115D01*
X68231881Y-50595389D01*
X68211007Y-50599502D01*
X68174087Y-50595781D01*
X68170750Y-50562467D01*
X68199285Y-50529949D01*
X68256358Y-50519337D01*
X68311335Y-50540245D01*
X68338434Y-50579957D01*
X68372656Y-50579957D01*
X68426040Y-50502975D01*
X68486711Y-50449706D01*
X68487542Y-50449256D01*
X68534468Y-50401876D01*
X68534472Y-50386645D01*
X68516500Y-50386645D01*
X68488557Y-50418241D01*
X68419667Y-50440402D01*
X68332241Y-50447940D01*
X68275496Y-50442428D01*
X68207076Y-50449069D01*
X68166307Y-50503707D01*
X68151025Y-50610830D01*
X68152883Y-50696976D01*
X68151581Y-50784074D01*
X68139022Y-50841058D01*
X68132204Y-50849662D01*
X68108026Y-50840232D01*
X68103750Y-50815875D01*
X68091016Y-50780022D01*
X68077031Y-50781015D01*
X68059815Y-50821193D01*
X68056052Y-50894014D01*
X68051930Y-50961291D01*
X68034040Y-50990465D01*
X68033272Y-50990500D01*
X68019087Y-51010253D01*
X68024375Y-51022250D01*
X68021858Y-51051507D01*
X68010374Y-51054000D01*
X67977939Y-51043824D01*
X67976750Y-51040191D01*
X67986830Y-51003600D01*
X68008405Y-50943127D01*
X68014675Y-50921671D01*
X67973048Y-50921671D01*
X67968386Y-50949436D01*
X67945000Y-50942875D01*
X67917375Y-50897564D01*
X67913737Y-50869563D01*
X67918875Y-50834031D01*
X67940824Y-50857110D01*
X67945000Y-50863500D01*
X67973048Y-50921671D01*
X68014675Y-50921671D01*
X68024921Y-50886617D01*
X68010733Y-50878537D01*
X68003009Y-50882768D01*
X67979261Y-50884180D01*
X67986233Y-50852833D01*
X67986596Y-50807656D01*
X67967817Y-50799034D01*
X67958548Y-50786088D01*
X67984688Y-50765706D01*
X68030932Y-50715869D01*
X68040250Y-50682149D01*
X68053494Y-50629142D01*
X68086716Y-50556073D01*
X68130152Y-50479075D01*
X68174039Y-50414279D01*
X68208613Y-50377820D01*
X68223066Y-50380072D01*
X68260961Y-50409535D01*
X68316659Y-50419000D01*
X68370895Y-50413291D01*
X68371338Y-50389309D01*
X68358485Y-50372260D01*
X68337268Y-50324770D01*
X68368205Y-50277010D01*
X68406166Y-50245337D01*
X68286039Y-50245337D01*
X68279681Y-50258137D01*
X68249406Y-50290962D01*
X68243837Y-50267813D01*
X68251544Y-50243005D01*
X68274919Y-50208428D01*
X68285477Y-50209143D01*
X68286039Y-50245337D01*
X68406166Y-50245337D01*
X68419811Y-50233953D01*
X68438166Y-50243745D01*
X68430450Y-50292000D01*
X68432567Y-50344026D01*
X68465172Y-50355500D01*
X68509753Y-50371257D01*
X68516500Y-50386645D01*
X68534472Y-50386645D01*
X68534478Y-50365404D01*
X68533795Y-50330929D01*
X68562749Y-50334703D01*
X68612808Y-50336465D01*
X68626258Y-50325962D01*
X68673472Y-50296926D01*
X68754976Y-50278363D01*
X68841943Y-50273773D01*
X68905547Y-50286655D01*
X68912438Y-50291222D01*
X68940755Y-50337354D01*
X68961556Y-50408936D01*
X68971134Y-50482529D01*
X68965778Y-50534690D01*
X68952751Y-50546000D01*
X68939596Y-50565744D01*
X68944720Y-50577093D01*
X68946733Y-50626997D01*
X68930743Y-50670211D01*
X68915799Y-50721139D01*
X68952359Y-50749286D01*
X68966960Y-50754266D01*
X69014755Y-50774330D01*
X69005323Y-50797970D01*
X68980911Y-50816850D01*
X68946479Y-50855978D01*
X68962650Y-50880394D01*
X69008642Y-50878436D01*
X69027564Y-50859630D01*
X69050673Y-50834800D01*
X69055764Y-50855873D01*
X69034032Y-50905380D01*
X68994377Y-50948849D01*
X68952762Y-51000610D01*
X68955040Y-51035248D01*
X68998731Y-51037191D01*
X69007952Y-51033990D01*
X69035836Y-51031026D01*
X69029250Y-51065260D01*
X69015785Y-51095336D01*
X68985723Y-51147758D01*
X68959586Y-51147093D01*
X68936456Y-51121897D01*
X68907746Y-51091736D01*
X68905203Y-51112729D01*
X68913248Y-51149250D01*
X68923344Y-51200542D01*
X68912357Y-51195580D01*
X68896509Y-51171400D01*
X68878644Y-51103399D01*
X68890363Y-51076150D01*
X68904280Y-51038125D01*
X68865750Y-51038125D01*
X68849875Y-51054000D01*
X68834000Y-51038125D01*
X68849875Y-51022250D01*
X68865750Y-51038125D01*
X68904280Y-51038125D01*
X68911403Y-51018664D01*
X68918347Y-50946451D01*
X68886587Y-50946451D01*
X68881625Y-50958750D01*
X68853095Y-50989038D01*
X68848002Y-50990500D01*
X68834365Y-50965935D01*
X68834000Y-50958750D01*
X68858408Y-50928220D01*
X68867624Y-50927000D01*
X68886587Y-50946451D01*
X68918347Y-50946451D01*
X68918848Y-50941246D01*
X68925321Y-50859445D01*
X68941227Y-50806308D01*
X68945814Y-50772637D01*
X68934442Y-50768250D01*
X68902787Y-50794576D01*
X68861407Y-50858817D01*
X68821303Y-50938864D01*
X68793477Y-51012609D01*
X68788930Y-51057944D01*
X68789628Y-51059263D01*
X68784888Y-51084657D01*
X68777471Y-51085750D01*
X68746076Y-51111759D01*
X68711581Y-51173062D01*
X68688179Y-51230632D01*
X68693356Y-51235091D01*
X68725643Y-51196875D01*
X68762359Y-51153849D01*
X68767627Y-51162544D01*
X68755770Y-51204812D01*
X68750765Y-51261390D01*
X68781264Y-51276250D01*
X68813913Y-51255556D01*
X68810465Y-51204812D01*
X68804056Y-51157001D01*
X68812720Y-51151177D01*
X68833763Y-51194329D01*
X68842139Y-51230552D01*
X68863823Y-51305373D01*
X68878363Y-51334859D01*
X68880098Y-51391969D01*
X68853632Y-51428975D01*
X68814645Y-51461411D01*
X68802289Y-51445942D01*
X68801764Y-51433866D01*
X68796515Y-51404062D01*
X68774026Y-51429589D01*
X68770500Y-51435000D01*
X68749433Y-51462756D01*
X68737677Y-51454158D01*
X68730157Y-51398675D01*
X68725842Y-51342350D01*
X68696914Y-51292650D01*
X68678572Y-51282648D01*
X68649736Y-51286559D01*
X68651751Y-51335551D01*
X68655535Y-51351625D01*
X68651819Y-51459352D01*
X68628154Y-51509112D01*
X68599117Y-51568905D01*
X68599228Y-51602393D01*
X68595368Y-51637979D01*
X68561334Y-51701657D01*
X68549568Y-51718900D01*
X68501810Y-51814340D01*
X68500619Y-51879478D01*
X68531302Y-51931850D01*
X68563942Y-51938603D01*
X68579968Y-51896456D01*
X68580000Y-51893501D01*
X68563528Y-51861368D01*
X68545628Y-51865245D01*
X68532610Y-51860237D01*
X68546490Y-51820060D01*
X68578038Y-51761768D01*
X68618023Y-51702412D01*
X68657214Y-51659044D01*
X68657282Y-51658987D01*
X68698055Y-51633996D01*
X68704195Y-51649525D01*
X68678230Y-51694599D01*
X68638084Y-51742390D01*
X68596639Y-51798819D01*
X68589708Y-51836079D01*
X68590787Y-51837369D01*
X68623491Y-51834199D01*
X68665743Y-51788128D01*
X68705355Y-51715918D01*
X68727127Y-51649827D01*
X68748556Y-51592517D01*
X68771654Y-51578588D01*
X68803327Y-51566151D01*
X68832355Y-51530250D01*
X68802250Y-51530250D01*
X68790634Y-51556383D01*
X68781084Y-51551416D01*
X68777732Y-51518174D01*
X68720114Y-51518174D01*
X68694651Y-51561558D01*
X68649403Y-51589569D01*
X68631675Y-51591243D01*
X68618211Y-51581869D01*
X68635563Y-51572722D01*
X68671607Y-51530878D01*
X68675250Y-51509855D01*
X68692047Y-51479579D01*
X68708542Y-51483577D01*
X68720114Y-51518174D01*
X68777732Y-51518174D01*
X68777284Y-51513736D01*
X68781084Y-51509083D01*
X68799959Y-51513441D01*
X68802250Y-51530250D01*
X68832355Y-51530250D01*
X68845292Y-51514250D01*
X68886015Y-51443048D01*
X68913959Y-51372713D01*
X68917606Y-51323449D01*
X68919496Y-51287395D01*
X68935248Y-51284568D01*
X68964806Y-51261608D01*
X69007594Y-51194193D01*
X69052224Y-51101625D01*
X69096495Y-51001513D01*
X69109348Y-50974625D01*
X69088000Y-50974625D01*
X69072125Y-50990500D01*
X69056250Y-50974625D01*
X69072125Y-50958750D01*
X69088000Y-50974625D01*
X69109348Y-50974625D01*
X69132186Y-50926850D01*
X69150557Y-50895250D01*
X69177109Y-50847625D01*
X69119750Y-50847625D01*
X69103875Y-50863500D01*
X69088000Y-50847625D01*
X69103875Y-50831750D01*
X69119750Y-50847625D01*
X69177109Y-50847625D01*
X69186670Y-50830476D01*
X69210744Y-50731419D01*
X69215420Y-50655301D01*
X69142355Y-50655301D01*
X69136640Y-50701553D01*
X69112016Y-50759288D01*
X69095502Y-50754726D01*
X69088242Y-50688690D01*
X69088000Y-50666650D01*
X69092243Y-50619249D01*
X69052621Y-50619249D01*
X69035084Y-50651833D01*
X69013017Y-50670014D01*
X69004788Y-50648892D01*
X69001480Y-50609500D01*
X69009967Y-50558075D01*
X69026474Y-50546000D01*
X69052181Y-50570002D01*
X69052621Y-50619249D01*
X69092243Y-50619249D01*
X69093874Y-50601031D01*
X69113542Y-50592130D01*
X69122904Y-50599953D01*
X69142355Y-50655301D01*
X69215420Y-50655301D01*
X69217161Y-50626972D01*
X69211748Y-50580564D01*
X69205857Y-50530125D01*
X69151500Y-50530125D01*
X69135625Y-50546000D01*
X69119750Y-50530125D01*
X69135625Y-50514250D01*
X69151500Y-50530125D01*
X69205857Y-50530125D01*
X69201422Y-50492164D01*
X69207029Y-50424753D01*
X69208032Y-50421814D01*
X69216227Y-50389015D01*
X69192865Y-50398378D01*
X69165383Y-50419000D01*
X69108351Y-50468468D01*
X69081789Y-50497455D01*
X69047023Y-50512056D01*
X69037604Y-50506186D01*
X69043450Y-50473261D01*
X69087760Y-50423571D01*
X69091440Y-50420438D01*
X69139974Y-50372908D01*
X69140539Y-50353626D01*
X69056250Y-50353626D01*
X69033203Y-50385957D01*
X69024500Y-50387250D01*
X68993576Y-50376417D01*
X68992750Y-50373248D01*
X69014999Y-50346141D01*
X69024500Y-50339625D01*
X69053758Y-50342142D01*
X69056250Y-50353626D01*
X69140539Y-50353626D01*
X69140859Y-50342713D01*
X69119750Y-50324881D01*
X69047407Y-50296920D01*
X69008625Y-50292000D01*
X68966727Y-50286411D01*
X68983459Y-50265515D01*
X68992750Y-50259118D01*
X69019511Y-50230424D01*
X69001322Y-50196750D01*
X68961000Y-50196750D01*
X68934408Y-50222546D01*
X68897500Y-50228500D01*
X68845908Y-50215203D01*
X68834000Y-50196750D01*
X68860593Y-50170953D01*
X68897500Y-50165000D01*
X68949093Y-50178296D01*
X68961000Y-50196750D01*
X69001322Y-50196750D01*
X69000881Y-50195934D01*
X68968938Y-50167203D01*
X68909462Y-50104627D01*
X68906616Y-50066376D01*
X68960015Y-50055113D01*
X68984813Y-50057137D01*
X69029571Y-50059915D01*
X69015123Y-50051540D01*
X69008625Y-50049652D01*
X68941554Y-50021590D01*
X68914963Y-50003168D01*
X68861880Y-49980463D01*
X68791175Y-49975746D01*
X68736533Y-49989893D01*
X68728082Y-49998312D01*
X68735900Y-50036448D01*
X68757958Y-50063064D01*
X68794099Y-50083228D01*
X68802250Y-50071001D01*
X68825656Y-50039163D01*
X68834000Y-50038000D01*
X68862168Y-50063716D01*
X68865750Y-50085625D01*
X68844278Y-50127802D01*
X68825763Y-50133250D01*
X68779383Y-50157561D01*
X68745418Y-50197871D01*
X68710537Y-50241308D01*
X68672456Y-50237543D01*
X68635467Y-50213746D01*
X68567883Y-50174678D01*
X68532254Y-50168470D01*
X68538006Y-50192634D01*
X68575580Y-50229556D01*
X68624878Y-50273007D01*
X68626640Y-50289446D01*
X68583518Y-50292000D01*
X68519825Y-50295393D01*
X68495852Y-50299937D01*
X68474420Y-50283635D01*
X68464799Y-50233469D01*
X68468978Y-50178312D01*
X68485437Y-50148700D01*
X68492597Y-50114291D01*
X68467607Y-50079820D01*
X68417221Y-50047583D01*
X68394847Y-50061693D01*
X68415601Y-50110321D01*
X68420614Y-50116607D01*
X68440288Y-50155579D01*
X68428535Y-50165000D01*
X68357750Y-50165000D01*
X68346134Y-50191133D01*
X68336584Y-50186166D01*
X68332784Y-50148486D01*
X68336584Y-50143833D01*
X68355459Y-50148191D01*
X68357750Y-50165000D01*
X68428535Y-50165000D01*
X68387311Y-50140194D01*
X68373250Y-50085639D01*
X68391445Y-50031129D01*
X68403647Y-50019462D01*
X68447152Y-49975212D01*
X68445189Y-49946690D01*
X68426913Y-49942750D01*
X68400449Y-49968472D01*
G36*
X67945000Y-52339875D02*
G01*
X67960875Y-52355750D01*
X67976750Y-52339875D01*
X67960875Y-52324000D01*
X67945000Y-52339875D01*
G37*
X67945000Y-52339875D02*
X67960875Y-52355750D01*
X67976750Y-52339875D01*
X67960875Y-52324000D01*
X67945000Y-52339875D01*
G36*
X68580966Y-51395698D02*
G01*
X68580000Y-51403524D01*
X68559012Y-51458611D01*
X68502695Y-51545832D01*
X68421019Y-51652819D01*
X68323957Y-51767209D01*
X68221478Y-51876635D01*
X68125785Y-51966812D01*
X68016806Y-52042178D01*
X67913241Y-52069459D01*
X67894662Y-52070000D01*
X67783034Y-52070000D01*
X67788824Y-52356167D01*
X67792983Y-52491668D01*
X67800017Y-52573127D01*
X67811821Y-52609993D01*
X67830289Y-52611715D01*
X67838825Y-52605642D01*
X67885653Y-52584327D01*
X67903762Y-52589678D01*
X67898409Y-52621481D01*
X67866876Y-52652534D01*
X67826209Y-52698238D01*
X67821569Y-52726952D01*
X67847535Y-52721840D01*
X67904962Y-52678846D01*
X67982332Y-52606832D01*
X67997012Y-52591959D01*
X68096857Y-52488484D01*
X68154289Y-52422596D01*
X68168184Y-52393338D01*
X68086721Y-52393338D01*
X68084148Y-52428651D01*
X68045709Y-52484178D01*
X68043443Y-52486637D01*
X67996275Y-52544859D01*
X67976750Y-52583986D01*
X67965203Y-52609673D01*
X67964234Y-52609750D01*
X67956393Y-52582588D01*
X67956297Y-52530397D01*
X67972460Y-52470668D01*
X67997917Y-52451022D01*
X68000835Y-52449330D01*
X67908741Y-52449330D01*
X67907719Y-52512537D01*
X67875725Y-52556031D01*
X67873563Y-52556972D01*
X67835138Y-52573240D01*
X67830763Y-52575493D01*
X67828724Y-52547595D01*
X67826161Y-52471507D01*
X67823569Y-52362530D01*
X67823125Y-52339875D01*
X67824333Y-52226089D01*
X67831650Y-52141899D01*
X67843577Y-52102802D01*
X67846149Y-52101750D01*
X67859547Y-52129788D01*
X67861391Y-52200592D01*
X67858063Y-52240487D01*
X67855455Y-52339139D01*
X67872064Y-52395972D01*
X67877838Y-52401111D01*
X67908741Y-52449330D01*
X68000835Y-52449330D01*
X68041368Y-52425830D01*
X68049133Y-52411312D01*
X68075230Y-52387878D01*
X68086721Y-52393338D01*
X68168184Y-52393338D01*
X68171394Y-52386579D01*
X68150258Y-52372719D01*
X68092966Y-52373301D01*
X68055315Y-52376271D01*
X67967744Y-52380601D01*
X67926223Y-52369260D01*
X67913837Y-52334799D01*
X67913250Y-52313719D01*
X67933964Y-52254464D01*
X67985116Y-52239883D01*
X68050220Y-52271863D01*
X68074039Y-52295298D01*
X68134734Y-52336842D01*
X68178876Y-52343765D01*
X68238414Y-52316195D01*
X68301748Y-52261181D01*
X68352371Y-52197305D01*
X68357904Y-52183306D01*
X68319866Y-52183306D01*
X68286751Y-52229615D01*
X68228729Y-52258321D01*
X68207591Y-52260500D01*
X68153739Y-52254857D01*
X68153748Y-52230710D01*
X68167250Y-52212875D01*
X68188502Y-52173423D01*
X68171138Y-52165250D01*
X68139872Y-52139471D01*
X68135500Y-52115824D01*
X68129761Y-52084148D01*
X68101305Y-52091603D01*
X68064936Y-52115824D01*
X67987343Y-52156788D01*
X67932081Y-52161025D01*
X67913250Y-52131626D01*
X67933149Y-52113690D01*
X67948550Y-52119818D01*
X67993542Y-52122815D01*
X68004113Y-52113755D01*
X68048371Y-52072982D01*
X68105201Y-52041269D01*
X68152065Y-52028789D01*
X68167250Y-52040120D01*
X68191952Y-52059849D01*
X68230750Y-52054125D01*
X68281964Y-52045758D01*
X68289645Y-52073021D01*
X68261383Y-52135587D01*
X68244733Y-52186133D01*
X68261383Y-52197000D01*
X68292388Y-52172223D01*
X68294250Y-52159958D01*
X68304617Y-52136021D01*
X68310873Y-52139539D01*
X68319866Y-52183306D01*
X68357904Y-52183306D01*
X68373775Y-52143151D01*
X68370358Y-52128213D01*
X68366996Y-52106599D01*
X68381122Y-52112446D01*
X68419730Y-52103910D01*
X68465403Y-52054969D01*
X68505852Y-51989295D01*
X68510620Y-51960599D01*
X68480228Y-51953688D01*
X68468875Y-51953583D01*
X68426723Y-51976274D01*
X68421250Y-51995916D01*
X68400915Y-52034633D01*
X68387172Y-52038250D01*
X68363896Y-52013143D01*
X68364576Y-51982687D01*
X68396823Y-51937223D01*
X68424054Y-51930476D01*
X68458963Y-51911364D01*
X68471783Y-51841549D01*
X68472050Y-51823568D01*
X68488962Y-51726610D01*
X68492304Y-51721851D01*
X68452035Y-51721851D01*
X68432039Y-51778018D01*
X68381984Y-51851161D01*
X68319196Y-51920872D01*
X68261003Y-51966745D01*
X68237593Y-51974419D01*
X68231893Y-51955813D01*
X68265845Y-51908645D01*
X68288351Y-51885267D01*
X68357343Y-51811245D01*
X68409530Y-51744022D01*
X68415480Y-51734454D01*
X68442713Y-51697415D01*
X68451877Y-51716950D01*
X68452035Y-51721851D01*
X68492304Y-51721851D01*
X68526025Y-51673842D01*
X68569919Y-51631152D01*
X68580000Y-51609141D01*
X68560468Y-51608654D01*
X68516500Y-51641375D01*
X68468550Y-51677332D01*
X68456097Y-51670059D01*
X68476808Y-51627325D01*
X68528346Y-51556899D01*
X68549541Y-51531449D01*
X68618620Y-51442887D01*
X68641465Y-51391245D01*
X68619874Y-51371907D01*
X68611750Y-51371500D01*
X68580966Y-51395698D01*
G37*
X68580966Y-51395698D02*
X68580000Y-51403524D01*
X68559012Y-51458611D01*
X68502695Y-51545832D01*
X68421019Y-51652819D01*
X68323957Y-51767209D01*
X68221478Y-51876635D01*
X68125785Y-51966812D01*
X68016806Y-52042178D01*
X67913241Y-52069459D01*
X67894662Y-52070000D01*
X67783034Y-52070000D01*
X67788824Y-52356167D01*
X67792983Y-52491668D01*
X67800017Y-52573127D01*
X67811821Y-52609993D01*
X67830289Y-52611715D01*
X67838825Y-52605642D01*
X67885653Y-52584327D01*
X67903762Y-52589678D01*
X67898409Y-52621481D01*
X67866876Y-52652534D01*
X67826209Y-52698238D01*
X67821569Y-52726952D01*
X67847535Y-52721840D01*
X67904962Y-52678846D01*
X67982332Y-52606832D01*
X67997012Y-52591959D01*
X68096857Y-52488484D01*
X68154289Y-52422596D01*
X68168184Y-52393338D01*
X68086721Y-52393338D01*
X68084148Y-52428651D01*
X68045709Y-52484178D01*
X68043443Y-52486637D01*
X67996275Y-52544859D01*
X67976750Y-52583986D01*
X67965203Y-52609673D01*
X67964234Y-52609750D01*
X67956393Y-52582588D01*
X67956297Y-52530397D01*
X67972460Y-52470668D01*
X67997917Y-52451022D01*
X68000835Y-52449330D01*
X67908741Y-52449330D01*
X67907719Y-52512537D01*
X67875725Y-52556031D01*
X67873563Y-52556972D01*
X67835138Y-52573240D01*
X67830763Y-52575493D01*
X67828724Y-52547595D01*
X67826161Y-52471507D01*
X67823569Y-52362530D01*
X67823125Y-52339875D01*
X67824333Y-52226089D01*
X67831650Y-52141899D01*
X67843577Y-52102802D01*
X67846149Y-52101750D01*
X67859547Y-52129788D01*
X67861391Y-52200592D01*
X67858063Y-52240487D01*
X67855455Y-52339139D01*
X67872064Y-52395972D01*
X67877838Y-52401111D01*
X67908741Y-52449330D01*
X68000835Y-52449330D01*
X68041368Y-52425830D01*
X68049133Y-52411312D01*
X68075230Y-52387878D01*
X68086721Y-52393338D01*
X68168184Y-52393338D01*
X68171394Y-52386579D01*
X68150258Y-52372719D01*
X68092966Y-52373301D01*
X68055315Y-52376271D01*
X67967744Y-52380601D01*
X67926223Y-52369260D01*
X67913837Y-52334799D01*
X67913250Y-52313719D01*
X67933964Y-52254464D01*
X67985116Y-52239883D01*
X68050220Y-52271863D01*
X68074039Y-52295298D01*
X68134734Y-52336842D01*
X68178876Y-52343765D01*
X68238414Y-52316195D01*
X68301748Y-52261181D01*
X68352371Y-52197305D01*
X68357904Y-52183306D01*
X68319866Y-52183306D01*
X68286751Y-52229615D01*
X68228729Y-52258321D01*
X68207591Y-52260500D01*
X68153739Y-52254857D01*
X68153748Y-52230710D01*
X68167250Y-52212875D01*
X68188502Y-52173423D01*
X68171138Y-52165250D01*
X68139872Y-52139471D01*
X68135500Y-52115824D01*
X68129761Y-52084148D01*
X68101305Y-52091603D01*
X68064936Y-52115824D01*
X67987343Y-52156788D01*
X67932081Y-52161025D01*
X67913250Y-52131626D01*
X67933149Y-52113690D01*
X67948550Y-52119818D01*
X67993542Y-52122815D01*
X68004113Y-52113755D01*
X68048371Y-52072982D01*
X68105201Y-52041269D01*
X68152065Y-52028789D01*
X68167250Y-52040120D01*
X68191952Y-52059849D01*
X68230750Y-52054125D01*
X68281964Y-52045758D01*
X68289645Y-52073021D01*
X68261383Y-52135587D01*
X68244733Y-52186133D01*
X68261383Y-52197000D01*
X68292388Y-52172223D01*
X68294250Y-52159958D01*
X68304617Y-52136021D01*
X68310873Y-52139539D01*
X68319866Y-52183306D01*
X68357904Y-52183306D01*
X68373775Y-52143151D01*
X68370358Y-52128213D01*
X68366996Y-52106599D01*
X68381122Y-52112446D01*
X68419730Y-52103910D01*
X68465403Y-52054969D01*
X68505852Y-51989295D01*
X68510620Y-51960599D01*
X68480228Y-51953688D01*
X68468875Y-51953583D01*
X68426723Y-51976274D01*
X68421250Y-51995916D01*
X68400915Y-52034633D01*
X68387172Y-52038250D01*
X68363896Y-52013143D01*
X68364576Y-51982687D01*
X68396823Y-51937223D01*
X68424054Y-51930476D01*
X68458963Y-51911364D01*
X68471783Y-51841549D01*
X68472050Y-51823568D01*
X68488962Y-51726610D01*
X68492304Y-51721851D01*
X68452035Y-51721851D01*
X68432039Y-51778018D01*
X68381984Y-51851161D01*
X68319196Y-51920872D01*
X68261003Y-51966745D01*
X68237593Y-51974419D01*
X68231893Y-51955813D01*
X68265845Y-51908645D01*
X68288351Y-51885267D01*
X68357343Y-51811245D01*
X68409530Y-51744022D01*
X68415480Y-51734454D01*
X68442713Y-51697415D01*
X68451877Y-51716950D01*
X68452035Y-51721851D01*
X68492304Y-51721851D01*
X68526025Y-51673842D01*
X68569919Y-51631152D01*
X68580000Y-51609141D01*
X68560468Y-51608654D01*
X68516500Y-51641375D01*
X68468550Y-51677332D01*
X68456097Y-51670059D01*
X68476808Y-51627325D01*
X68528346Y-51556899D01*
X68549541Y-51531449D01*
X68618620Y-51442887D01*
X68641465Y-51391245D01*
X68619874Y-51371907D01*
X68611750Y-51371500D01*
X68580966Y-51395698D01*
G36*
X64777298Y-50107737D02*
G01*
X64525657Y-50193658D01*
X64481392Y-50214933D01*
X64303464Y-50331490D01*
X64182729Y-50475231D01*
X64118113Y-50648103D01*
X64108537Y-50852054D01*
X64111631Y-50884119D01*
X64130356Y-50996352D01*
X64163108Y-51054093D01*
X64222756Y-51064767D01*
X64322170Y-51035802D01*
X64353539Y-51023712D01*
X64510886Y-50982225D01*
X64700813Y-50962686D01*
X64895805Y-50966525D01*
X65039875Y-50988051D01*
X65090775Y-51001519D01*
X65094912Y-51011839D01*
X65046325Y-51023494D01*
X64977623Y-51034868D01*
X64808621Y-51072398D01*
X64643671Y-51127581D01*
X64501838Y-51192810D01*
X64402190Y-51260477D01*
X64395068Y-51267296D01*
X64346418Y-51327647D01*
X64328930Y-51393983D01*
X64333987Y-51488311D01*
X64359329Y-51615073D01*
X64405726Y-51686608D01*
X64481726Y-51709945D01*
X64585202Y-51694873D01*
X64697477Y-51678558D01*
X64833344Y-51674905D01*
X64909285Y-51679490D01*
X65095818Y-51698742D01*
X65004347Y-51745268D01*
X64877279Y-51827314D01*
X64785717Y-51921596D01*
X64740901Y-52015599D01*
X64738250Y-52041593D01*
X64745852Y-52143293D01*
X64777747Y-52200042D01*
X64847570Y-52224319D01*
X64942731Y-52228750D01*
X65040063Y-52232135D01*
X65108882Y-52240807D01*
X65127808Y-52247890D01*
X65119358Y-52278670D01*
X65073817Y-52329620D01*
X65062803Y-52339409D01*
X65018682Y-52386116D01*
X65002441Y-52434561D01*
X65017861Y-52493805D01*
X65068724Y-52572906D01*
X65158813Y-52680924D01*
X65245232Y-52776413D01*
X65328417Y-52860167D01*
X65436481Y-52959508D01*
X65558902Y-53065862D01*
X65685159Y-53170657D01*
X65804730Y-53265320D01*
X65907094Y-53341276D01*
X65981731Y-53389953D01*
X66014809Y-53403500D01*
X66011395Y-53377042D01*
X65984494Y-53305566D01*
X65938889Y-53200914D01*
X65896263Y-53109812D01*
X65750154Y-52749038D01*
X65632874Y-52337104D01*
X65548428Y-51895043D01*
X65515239Y-51634124D01*
X65504110Y-51419166D01*
X65517167Y-51235839D01*
X65556538Y-51069811D01*
X65624353Y-50906754D01*
X65720551Y-50735875D01*
X65847485Y-50530125D01*
X65700213Y-50393075D01*
X65483567Y-50227612D01*
X65257021Y-50124827D01*
X65021342Y-50084831D01*
X64777298Y-50107737D01*
G37*
X64777298Y-50107737D02*
X64525657Y-50193658D01*
X64481392Y-50214933D01*
X64303464Y-50331490D01*
X64182729Y-50475231D01*
X64118113Y-50648103D01*
X64108537Y-50852054D01*
X64111631Y-50884119D01*
X64130356Y-50996352D01*
X64163108Y-51054093D01*
X64222756Y-51064767D01*
X64322170Y-51035802D01*
X64353539Y-51023712D01*
X64510886Y-50982225D01*
X64700813Y-50962686D01*
X64895805Y-50966525D01*
X65039875Y-50988051D01*
X65090775Y-51001519D01*
X65094912Y-51011839D01*
X65046325Y-51023494D01*
X64977623Y-51034868D01*
X64808621Y-51072398D01*
X64643671Y-51127581D01*
X64501838Y-51192810D01*
X64402190Y-51260477D01*
X64395068Y-51267296D01*
X64346418Y-51327647D01*
X64328930Y-51393983D01*
X64333987Y-51488311D01*
X64359329Y-51615073D01*
X64405726Y-51686608D01*
X64481726Y-51709945D01*
X64585202Y-51694873D01*
X64697477Y-51678558D01*
X64833344Y-51674905D01*
X64909285Y-51679490D01*
X65095818Y-51698742D01*
X65004347Y-51745268D01*
X64877279Y-51827314D01*
X64785717Y-51921596D01*
X64740901Y-52015599D01*
X64738250Y-52041593D01*
X64745852Y-52143293D01*
X64777747Y-52200042D01*
X64847570Y-52224319D01*
X64942731Y-52228750D01*
X65040063Y-52232135D01*
X65108882Y-52240807D01*
X65127808Y-52247890D01*
X65119358Y-52278670D01*
X65073817Y-52329620D01*
X65062803Y-52339409D01*
X65018682Y-52386116D01*
X65002441Y-52434561D01*
X65017861Y-52493805D01*
X65068724Y-52572906D01*
X65158813Y-52680924D01*
X65245232Y-52776413D01*
X65328417Y-52860167D01*
X65436481Y-52959508D01*
X65558902Y-53065862D01*
X65685159Y-53170657D01*
X65804730Y-53265320D01*
X65907094Y-53341276D01*
X65981731Y-53389953D01*
X66014809Y-53403500D01*
X66011395Y-53377042D01*
X65984494Y-53305566D01*
X65938889Y-53200914D01*
X65896263Y-53109812D01*
X65750154Y-52749038D01*
X65632874Y-52337104D01*
X65548428Y-51895043D01*
X65515239Y-51634124D01*
X65504110Y-51419166D01*
X65517167Y-51235839D01*
X65556538Y-51069811D01*
X65624353Y-50906754D01*
X65720551Y-50735875D01*
X65847485Y-50530125D01*
X65700213Y-50393075D01*
X65483567Y-50227612D01*
X65257021Y-50124827D01*
X65021342Y-50084831D01*
X64777298Y-50107737D01*
G36*
X71786750Y-54410300D02*
G01*
X71735280Y-54435431D01*
X71723250Y-54454953D01*
X71729928Y-54479546D01*
X71731188Y-54479316D01*
X71764352Y-54469282D01*
X71794688Y-54461113D01*
X71841746Y-54436385D01*
X71850250Y-54420144D01*
X71824906Y-54405665D01*
X71786750Y-54410300D01*
G37*
X71786750Y-54410300D02*
X71735280Y-54435431D01*
X71723250Y-54454953D01*
X71729928Y-54479546D01*
X71731188Y-54479316D01*
X71764352Y-54469282D01*
X71794688Y-54461113D01*
X71841746Y-54436385D01*
X71850250Y-54420144D01*
X71824906Y-54405665D01*
X71786750Y-54410300D01*
G36*
X71900529Y-54362429D02*
G01*
X71890478Y-54427334D01*
X71893883Y-54455100D01*
X71897617Y-54522210D01*
X71879333Y-54546500D01*
X71862617Y-54526353D01*
X71869460Y-54509354D01*
X71871036Y-54485752D01*
X71836987Y-54493479D01*
X71779525Y-54511857D01*
X71760341Y-54515236D01*
X71763338Y-54528829D01*
X71784400Y-54544375D01*
X71826353Y-54596775D01*
X71840068Y-54664895D01*
X71820722Y-54718521D01*
X71813151Y-54724430D01*
X71791875Y-54727712D01*
X71799438Y-54710407D01*
X71803774Y-54655837D01*
X71789434Y-54618188D01*
X71767324Y-54589895D01*
X71757839Y-54613141D01*
X71755966Y-54663688D01*
X71766185Y-54748793D01*
X71793958Y-54784556D01*
X71831878Y-54765191D01*
X71850126Y-54737233D01*
X71870129Y-54674050D01*
X71865720Y-54641093D01*
X71868134Y-54612280D01*
X71878852Y-54610000D01*
X71906171Y-54582780D01*
X71936491Y-54517332D01*
X71961827Y-54437969D01*
X71965139Y-54419500D01*
X71945500Y-54419500D01*
X71933884Y-54445633D01*
X71924334Y-54440666D01*
X71920534Y-54402986D01*
X71924334Y-54398333D01*
X71943209Y-54402691D01*
X71945500Y-54419500D01*
X71965139Y-54419500D01*
X71974198Y-54369004D01*
X71968575Y-54336740D01*
X71930191Y-54326480D01*
X71900529Y-54362429D01*
G37*
X71900529Y-54362429D02*
X71890478Y-54427334D01*
X71893883Y-54455100D01*
X71897617Y-54522210D01*
X71879333Y-54546500D01*
X71862617Y-54526353D01*
X71869460Y-54509354D01*
X71871036Y-54485752D01*
X71836987Y-54493479D01*
X71779525Y-54511857D01*
X71760341Y-54515236D01*
X71763338Y-54528829D01*
X71784400Y-54544375D01*
X71826353Y-54596775D01*
X71840068Y-54664895D01*
X71820722Y-54718521D01*
X71813151Y-54724430D01*
X71791875Y-54727712D01*
X71799438Y-54710407D01*
X71803774Y-54655837D01*
X71789434Y-54618188D01*
X71767324Y-54589895D01*
X71757839Y-54613141D01*
X71755966Y-54663688D01*
X71766185Y-54748793D01*
X71793958Y-54784556D01*
X71831878Y-54765191D01*
X71850126Y-54737233D01*
X71870129Y-54674050D01*
X71865720Y-54641093D01*
X71868134Y-54612280D01*
X71878852Y-54610000D01*
X71906171Y-54582780D01*
X71936491Y-54517332D01*
X71961827Y-54437969D01*
X71965139Y-54419500D01*
X71945500Y-54419500D01*
X71933884Y-54445633D01*
X71924334Y-54440666D01*
X71920534Y-54402986D01*
X71924334Y-54398333D01*
X71943209Y-54402691D01*
X71945500Y-54419500D01*
X71965139Y-54419500D01*
X71974198Y-54369004D01*
X71968575Y-54336740D01*
X71930191Y-54326480D01*
X71900529Y-54362429D01*
G36*
X69808778Y-45620382D02*
G01*
X69567148Y-45732329D01*
X69331423Y-45902553D01*
X69104024Y-46128450D01*
X68887374Y-46407411D01*
X68683894Y-46736832D01*
X68496005Y-47114106D01*
X68394615Y-47355125D01*
X68297089Y-47607046D01*
X68211852Y-47839832D01*
X68135311Y-48065514D01*
X68063870Y-48296122D01*
X67993934Y-48543687D01*
X67921910Y-48820240D01*
X67844201Y-49137812D01*
X67777996Y-49418875D01*
X67730072Y-49627881D01*
X67695260Y-49791763D01*
X67671472Y-49927052D01*
X67656621Y-50050278D01*
X67648619Y-50177972D01*
X67645380Y-50326665D01*
X67644814Y-50473606D01*
X67647046Y-50678859D01*
X67653669Y-50837108D01*
X67664323Y-50942915D01*
X67678651Y-50990840D01*
X67678922Y-50991121D01*
X67705192Y-50988920D01*
X67746744Y-50940010D01*
X67806726Y-50839972D01*
X67864982Y-50730140D01*
X68095614Y-50296749D01*
X68310881Y-49924212D01*
X68511398Y-49611929D01*
X68697779Y-49359297D01*
X68870638Y-49165716D01*
X69030590Y-49030582D01*
X69178249Y-48953295D01*
X69314231Y-48933253D01*
X69439149Y-48969854D01*
X69553618Y-49062497D01*
X69560489Y-49070191D01*
X69639723Y-49182786D01*
X69693450Y-49316902D01*
X69724925Y-49485049D01*
X69737400Y-49699733D01*
X69737912Y-49752250D01*
X69729162Y-49978219D01*
X69698563Y-50189684D01*
X69641855Y-50401958D01*
X69554772Y-50630351D01*
X69433053Y-50890175D01*
X69406443Y-50942822D01*
X69117023Y-51459082D01*
X68799523Y-51925938D01*
X68446727Y-52353959D01*
X68432616Y-52369502D01*
X68259558Y-52560626D01*
X68125369Y-52712366D01*
X68025269Y-52831457D01*
X67954478Y-52924632D01*
X67908214Y-52998628D01*
X67881697Y-53060177D01*
X67870148Y-53116016D01*
X67868530Y-53164154D01*
X67899989Y-53340212D01*
X67982224Y-53528101D01*
X68107933Y-53713984D01*
X68228277Y-53845617D01*
X68382199Y-53978693D01*
X68551934Y-54092760D01*
X68751920Y-54196009D01*
X68996595Y-54296631D01*
X69072125Y-54324388D01*
X69332885Y-54427760D01*
X69586155Y-54545712D01*
X69817816Y-54670712D01*
X70013750Y-54795226D01*
X70141615Y-54895015D01*
X70228657Y-54971310D01*
X70295760Y-55027720D01*
X70330464Y-55053823D01*
X70332305Y-55054500D01*
X70356407Y-55031555D01*
X70407143Y-54971943D01*
X70461640Y-54903687D01*
X70579220Y-54752875D01*
X70508298Y-54705652D01*
X70334364Y-54555033D01*
X70214413Y-54372642D01*
X70149793Y-54162230D01*
X70141854Y-53927551D01*
X70168479Y-53760497D01*
X70191707Y-53692584D01*
X70239172Y-53578517D01*
X70306188Y-53428673D01*
X70388069Y-53253429D01*
X70480127Y-53063161D01*
X70517617Y-52987445D01*
X70812324Y-52378931D01*
X71068021Y-51812960D01*
X71286739Y-51283622D01*
X71470505Y-50785003D01*
X71621350Y-50311191D01*
X71741304Y-49856274D01*
X71832395Y-49414340D01*
X71896653Y-48979476D01*
X71898379Y-48964841D01*
X71938832Y-48434414D01*
X71932638Y-47937759D01*
X71880306Y-47476836D01*
X71782342Y-47053609D01*
X71639256Y-46670039D01*
X71451555Y-46328089D01*
X71219747Y-46029720D01*
X71109347Y-45917863D01*
X70883989Y-45747762D01*
X70628141Y-45632112D01*
X70346378Y-45572423D01*
X70053891Y-45569321D01*
X69808778Y-45620382D01*
G37*
X69808778Y-45620382D02*
X69567148Y-45732329D01*
X69331423Y-45902553D01*
X69104024Y-46128450D01*
X68887374Y-46407411D01*
X68683894Y-46736832D01*
X68496005Y-47114106D01*
X68394615Y-47355125D01*
X68297089Y-47607046D01*
X68211852Y-47839832D01*
X68135311Y-48065514D01*
X68063870Y-48296122D01*
X67993934Y-48543687D01*
X67921910Y-48820240D01*
X67844201Y-49137812D01*
X67777996Y-49418875D01*
X67730072Y-49627881D01*
X67695260Y-49791763D01*
X67671472Y-49927052D01*
X67656621Y-50050278D01*
X67648619Y-50177972D01*
X67645380Y-50326665D01*
X67644814Y-50473606D01*
X67647046Y-50678859D01*
X67653669Y-50837108D01*
X67664323Y-50942915D01*
X67678651Y-50990840D01*
X67678922Y-50991121D01*
X67705192Y-50988920D01*
X67746744Y-50940010D01*
X67806726Y-50839972D01*
X67864982Y-50730140D01*
X68095614Y-50296749D01*
X68310881Y-49924212D01*
X68511398Y-49611929D01*
X68697779Y-49359297D01*
X68870638Y-49165716D01*
X69030590Y-49030582D01*
X69178249Y-48953295D01*
X69314231Y-48933253D01*
X69439149Y-48969854D01*
X69553618Y-49062497D01*
X69560489Y-49070191D01*
X69639723Y-49182786D01*
X69693450Y-49316902D01*
X69724925Y-49485049D01*
X69737400Y-49699733D01*
X69737912Y-49752250D01*
X69729162Y-49978219D01*
X69698563Y-50189684D01*
X69641855Y-50401958D01*
X69554772Y-50630351D01*
X69433053Y-50890175D01*
X69406443Y-50942822D01*
X69117023Y-51459082D01*
X68799523Y-51925938D01*
X68446727Y-52353959D01*
X68432616Y-52369502D01*
X68259558Y-52560626D01*
X68125369Y-52712366D01*
X68025269Y-52831457D01*
X67954478Y-52924632D01*
X67908214Y-52998628D01*
X67881697Y-53060177D01*
X67870148Y-53116016D01*
X67868530Y-53164154D01*
X67899989Y-53340212D01*
X67982224Y-53528101D01*
X68107933Y-53713984D01*
X68228277Y-53845617D01*
X68382199Y-53978693D01*
X68551934Y-54092760D01*
X68751920Y-54196009D01*
X68996595Y-54296631D01*
X69072125Y-54324388D01*
X69332885Y-54427760D01*
X69586155Y-54545712D01*
X69817816Y-54670712D01*
X70013750Y-54795226D01*
X70141615Y-54895015D01*
X70228657Y-54971310D01*
X70295760Y-55027720D01*
X70330464Y-55053823D01*
X70332305Y-55054500D01*
X70356407Y-55031555D01*
X70407143Y-54971943D01*
X70461640Y-54903687D01*
X70579220Y-54752875D01*
X70508298Y-54705652D01*
X70334364Y-54555033D01*
X70214413Y-54372642D01*
X70149793Y-54162230D01*
X70141854Y-53927551D01*
X70168479Y-53760497D01*
X70191707Y-53692584D01*
X70239172Y-53578517D01*
X70306188Y-53428673D01*
X70388069Y-53253429D01*
X70480127Y-53063161D01*
X70517617Y-52987445D01*
X70812324Y-52378931D01*
X71068021Y-51812960D01*
X71286739Y-51283622D01*
X71470505Y-50785003D01*
X71621350Y-50311191D01*
X71741304Y-49856274D01*
X71832395Y-49414340D01*
X71896653Y-48979476D01*
X71898379Y-48964841D01*
X71938832Y-48434414D01*
X71932638Y-47937759D01*
X71880306Y-47476836D01*
X71782342Y-47053609D01*
X71639256Y-46670039D01*
X71451555Y-46328089D01*
X71219747Y-46029720D01*
X71109347Y-45917863D01*
X70883989Y-45747762D01*
X70628141Y-45632112D01*
X70346378Y-45572423D01*
X70053891Y-45569321D01*
X69808778Y-45620382D01*
G36*
X71334163Y-54761196D02*
G01*
X71261772Y-54823054D01*
X71190902Y-54906476D01*
X71133726Y-54995365D01*
X71102418Y-55073624D01*
X71105772Y-55120664D01*
X71138606Y-55147009D01*
X71189400Y-55132454D01*
X71259228Y-55083446D01*
X71332376Y-55010496D01*
X71389850Y-54925543D01*
X71426080Y-54842710D01*
X71435493Y-54776119D01*
X71412519Y-54739892D01*
X71395903Y-54737000D01*
X71334163Y-54761196D01*
G37*
X71334163Y-54761196D02*
X71261772Y-54823054D01*
X71190902Y-54906476D01*
X71133726Y-54995365D01*
X71102418Y-55073624D01*
X71105772Y-55120664D01*
X71138606Y-55147009D01*
X71189400Y-55132454D01*
X71259228Y-55083446D01*
X71332376Y-55010496D01*
X71389850Y-54925543D01*
X71426080Y-54842710D01*
X71435493Y-54776119D01*
X71412519Y-54739892D01*
X71395903Y-54737000D01*
X71334163Y-54761196D01*
G36*
X71040026Y-54698108D02*
G01*
X70973725Y-54728004D01*
X70919806Y-54763187D01*
X70910605Y-54772088D01*
X70850826Y-54818473D01*
X70807386Y-54832250D01*
X70781171Y-54824524D01*
X70806635Y-54795417D01*
X70820245Y-54784615D01*
X70862251Y-54750559D01*
X70852442Y-54748073D01*
X70815716Y-54760802D01*
X70755630Y-54798517D01*
X70680376Y-54866247D01*
X70647827Y-54901310D01*
X70582624Y-54988646D01*
X70581270Y-54992968D01*
X70598987Y-55002512D01*
X70619588Y-55018409D01*
X70654438Y-55065992D01*
X70649411Y-55106686D01*
X70620710Y-55118000D01*
X70617814Y-55102182D01*
X70622308Y-55097108D01*
X70622738Y-55058863D01*
X70603788Y-55025671D01*
X70581050Y-54993669D01*
X70561126Y-55057258D01*
X70565536Y-55095444D01*
X70566870Y-55162969D01*
X70530497Y-55193798D01*
X70494716Y-55201721D01*
X70509758Y-55174052D01*
X70510443Y-55173224D01*
X70527152Y-55113711D01*
X70518405Y-55088927D01*
X70493835Y-55068137D01*
X70473062Y-55105655D01*
X70471877Y-55109332D01*
X70464817Y-55180236D01*
X70480224Y-55245006D01*
X70511166Y-55276478D01*
X70514604Y-55276750D01*
X70543644Y-55253721D01*
X70601367Y-55192312D01*
X70677181Y-55104037D01*
X70707714Y-55066849D01*
X70803606Y-54957064D01*
X70849250Y-54911047D01*
X70752419Y-54911047D01*
X70752166Y-54943349D01*
X70748675Y-54957435D01*
X70728539Y-55013830D01*
X70707303Y-55013580D01*
X70693599Y-54994597D01*
X70699560Y-54953856D01*
X70720977Y-54929282D01*
X70752419Y-54911047D01*
X70849250Y-54911047D01*
X70902724Y-54857137D01*
X70986275Y-54785777D01*
X70999008Y-54776880D01*
X71070922Y-54727860D01*
X71114261Y-54695559D01*
X71120000Y-54689558D01*
X71096266Y-54682344D01*
X71040026Y-54698108D01*
G37*
X71040026Y-54698108D02*
X70973725Y-54728004D01*
X70919806Y-54763187D01*
X70910605Y-54772088D01*
X70850826Y-54818473D01*
X70807386Y-54832250D01*
X70781171Y-54824524D01*
X70806635Y-54795417D01*
X70820245Y-54784615D01*
X70862251Y-54750559D01*
X70852442Y-54748073D01*
X70815716Y-54760802D01*
X70755630Y-54798517D01*
X70680376Y-54866247D01*
X70647827Y-54901310D01*
X70582624Y-54988646D01*
X70581270Y-54992968D01*
X70598987Y-55002512D01*
X70619588Y-55018409D01*
X70654438Y-55065992D01*
X70649411Y-55106686D01*
X70620710Y-55118000D01*
X70617814Y-55102182D01*
X70622308Y-55097108D01*
X70622738Y-55058863D01*
X70603788Y-55025671D01*
X70581050Y-54993669D01*
X70561126Y-55057258D01*
X70565536Y-55095444D01*
X70566870Y-55162969D01*
X70530497Y-55193798D01*
X70494716Y-55201721D01*
X70509758Y-55174052D01*
X70510443Y-55173224D01*
X70527152Y-55113711D01*
X70518405Y-55088927D01*
X70493835Y-55068137D01*
X70473062Y-55105655D01*
X70471877Y-55109332D01*
X70464817Y-55180236D01*
X70480224Y-55245006D01*
X70511166Y-55276478D01*
X70514604Y-55276750D01*
X70543644Y-55253721D01*
X70601367Y-55192312D01*
X70677181Y-55104037D01*
X70707714Y-55066849D01*
X70803606Y-54957064D01*
X70849250Y-54911047D01*
X70752419Y-54911047D01*
X70752166Y-54943349D01*
X70748675Y-54957435D01*
X70728539Y-55013830D01*
X70707303Y-55013580D01*
X70693599Y-54994597D01*
X70699560Y-54953856D01*
X70720977Y-54929282D01*
X70752419Y-54911047D01*
X70849250Y-54911047D01*
X70902724Y-54857137D01*
X70986275Y-54785777D01*
X70999008Y-54776880D01*
X71070922Y-54727860D01*
X71114261Y-54695559D01*
X71120000Y-54689558D01*
X71096266Y-54682344D01*
X71040026Y-54698108D01*
G36*
X71647193Y-54496948D02*
G01*
X71656522Y-54503090D01*
X71673880Y-54541984D01*
X71671586Y-54601384D01*
X71672881Y-54692318D01*
X71694612Y-54776262D01*
X71716040Y-54847877D01*
X71700320Y-54896079D01*
X71676633Y-54921649D01*
X71637564Y-54956554D01*
X71637285Y-54943517D01*
X71653826Y-54909914D01*
X71669991Y-54841025D01*
X71660952Y-54802443D01*
X71634471Y-54792930D01*
X71589559Y-54829857D01*
X71522844Y-54914503D01*
X71466173Y-55001504D01*
X71432913Y-55070459D01*
X71429268Y-55101348D01*
X71430983Y-55117237D01*
X71421700Y-55110337D01*
X71379074Y-55107321D01*
X71352718Y-55122488D01*
X71326605Y-55164388D01*
X71346863Y-55202933D01*
X71366760Y-55251227D01*
X71342582Y-55286033D01*
X71313735Y-55305848D01*
X71319055Y-55273570D01*
X71320706Y-55268812D01*
X71325557Y-55221577D01*
X71292186Y-55222061D01*
X71223876Y-55269927D01*
X71212171Y-55279987D01*
X71139981Y-55339058D01*
X71045279Y-55411586D01*
X71001944Y-55443397D01*
X70929998Y-55502991D01*
X70889811Y-55551660D01*
X70886858Y-55570561D01*
X70878634Y-55587070D01*
X70838227Y-55579636D01*
X70784077Y-55574968D01*
X70770750Y-55592110D01*
X70794994Y-55623394D01*
X70859493Y-55622065D01*
X70951897Y-55591081D01*
X71059859Y-55533397D01*
X71085406Y-55516789D01*
X71222439Y-55419393D01*
X71341262Y-55325771D01*
X71268167Y-55325771D01*
X71253461Y-55367159D01*
X71241709Y-55372000D01*
X71230759Y-55361850D01*
X71183500Y-55361850D01*
X71160936Y-55396247D01*
X71106385Y-55450453D01*
X71039563Y-55507411D01*
X70980186Y-55550062D01*
X70951677Y-55562425D01*
X70955859Y-55544444D01*
X70997683Y-55499599D01*
X71015177Y-55483618D01*
X71102941Y-55406523D01*
X71153607Y-55364886D01*
X71177119Y-55351511D01*
X71183424Y-55359204D01*
X71183500Y-55361850D01*
X71230759Y-55361850D01*
X71215758Y-55347945D01*
X71215250Y-55342123D01*
X71237997Y-55298484D01*
X71241709Y-55295895D01*
X71264901Y-55305608D01*
X71268167Y-55325771D01*
X71341262Y-55325771D01*
X71345588Y-55322363D01*
X71444838Y-55234513D01*
X71466658Y-55211182D01*
X71429716Y-55211182D01*
X71425373Y-55213250D01*
X71396399Y-55190898D01*
X71389875Y-55181500D01*
X71381785Y-55151817D01*
X71386128Y-55149750D01*
X71415102Y-55172101D01*
X71421625Y-55181500D01*
X71429716Y-55211182D01*
X71466658Y-55211182D01*
X71509266Y-55165625D01*
X71501000Y-55165625D01*
X71485125Y-55181500D01*
X71469250Y-55165625D01*
X71485125Y-55149750D01*
X71501000Y-55165625D01*
X71509266Y-55165625D01*
X71510172Y-55164657D01*
X71531709Y-55124063D01*
X71551960Y-55098847D01*
X71567668Y-55104082D01*
X71585807Y-55104546D01*
X71571570Y-55070375D01*
X71501000Y-55070375D01*
X71485125Y-55086250D01*
X71469250Y-55070375D01*
X71485125Y-55054500D01*
X71501000Y-55070375D01*
X71571570Y-55070375D01*
X71566551Y-55058331D01*
X71552874Y-54993386D01*
X71563997Y-54922419D01*
X71593244Y-54872576D01*
X71614360Y-54864000D01*
X71613851Y-54887464D01*
X71594426Y-54930908D01*
X71570683Y-54999593D01*
X71586206Y-55028607D01*
X71629680Y-55016673D01*
X71689793Y-54962514D01*
X71705194Y-54943413D01*
X71757065Y-54868433D01*
X71771082Y-54820808D01*
X71752446Y-54781219D01*
X71749767Y-54777901D01*
X71720503Y-54711539D01*
X71707423Y-54620961D01*
X71707375Y-54615638D01*
X71696729Y-54536225D01*
X71669530Y-54497072D01*
X71666894Y-54496316D01*
X71647193Y-54496948D01*
G37*
X71647193Y-54496948D02*
X71656522Y-54503090D01*
X71673880Y-54541984D01*
X71671586Y-54601384D01*
X71672881Y-54692318D01*
X71694612Y-54776262D01*
X71716040Y-54847877D01*
X71700320Y-54896079D01*
X71676633Y-54921649D01*
X71637564Y-54956554D01*
X71637285Y-54943517D01*
X71653826Y-54909914D01*
X71669991Y-54841025D01*
X71660952Y-54802443D01*
X71634471Y-54792930D01*
X71589559Y-54829857D01*
X71522844Y-54914503D01*
X71466173Y-55001504D01*
X71432913Y-55070459D01*
X71429268Y-55101348D01*
X71430983Y-55117237D01*
X71421700Y-55110337D01*
X71379074Y-55107321D01*
X71352718Y-55122488D01*
X71326605Y-55164388D01*
X71346863Y-55202933D01*
X71366760Y-55251227D01*
X71342582Y-55286033D01*
X71313735Y-55305848D01*
X71319055Y-55273570D01*
X71320706Y-55268812D01*
X71325557Y-55221577D01*
X71292186Y-55222061D01*
X71223876Y-55269927D01*
X71212171Y-55279987D01*
X71139981Y-55339058D01*
X71045279Y-55411586D01*
X71001944Y-55443397D01*
X70929998Y-55502991D01*
X70889811Y-55551660D01*
X70886858Y-55570561D01*
X70878634Y-55587070D01*
X70838227Y-55579636D01*
X70784077Y-55574968D01*
X70770750Y-55592110D01*
X70794994Y-55623394D01*
X70859493Y-55622065D01*
X70951897Y-55591081D01*
X71059859Y-55533397D01*
X71085406Y-55516789D01*
X71222439Y-55419393D01*
X71341262Y-55325771D01*
X71268167Y-55325771D01*
X71253461Y-55367159D01*
X71241709Y-55372000D01*
X71230759Y-55361850D01*
X71183500Y-55361850D01*
X71160936Y-55396247D01*
X71106385Y-55450453D01*
X71039563Y-55507411D01*
X70980186Y-55550062D01*
X70951677Y-55562425D01*
X70955859Y-55544444D01*
X70997683Y-55499599D01*
X71015177Y-55483618D01*
X71102941Y-55406523D01*
X71153607Y-55364886D01*
X71177119Y-55351511D01*
X71183424Y-55359204D01*
X71183500Y-55361850D01*
X71230759Y-55361850D01*
X71215758Y-55347945D01*
X71215250Y-55342123D01*
X71237997Y-55298484D01*
X71241709Y-55295895D01*
X71264901Y-55305608D01*
X71268167Y-55325771D01*
X71341262Y-55325771D01*
X71345588Y-55322363D01*
X71444838Y-55234513D01*
X71466658Y-55211182D01*
X71429716Y-55211182D01*
X71425373Y-55213250D01*
X71396399Y-55190898D01*
X71389875Y-55181500D01*
X71381785Y-55151817D01*
X71386128Y-55149750D01*
X71415102Y-55172101D01*
X71421625Y-55181500D01*
X71429716Y-55211182D01*
X71466658Y-55211182D01*
X71509266Y-55165625D01*
X71501000Y-55165625D01*
X71485125Y-55181500D01*
X71469250Y-55165625D01*
X71485125Y-55149750D01*
X71501000Y-55165625D01*
X71509266Y-55165625D01*
X71510172Y-55164657D01*
X71531709Y-55124063D01*
X71551960Y-55098847D01*
X71567668Y-55104082D01*
X71585807Y-55104546D01*
X71571570Y-55070375D01*
X71501000Y-55070375D01*
X71485125Y-55086250D01*
X71469250Y-55070375D01*
X71485125Y-55054500D01*
X71501000Y-55070375D01*
X71571570Y-55070375D01*
X71566551Y-55058331D01*
X71552874Y-54993386D01*
X71563997Y-54922419D01*
X71593244Y-54872576D01*
X71614360Y-54864000D01*
X71613851Y-54887464D01*
X71594426Y-54930908D01*
X71570683Y-54999593D01*
X71586206Y-55028607D01*
X71629680Y-55016673D01*
X71689793Y-54962514D01*
X71705194Y-54943413D01*
X71757065Y-54868433D01*
X71771082Y-54820808D01*
X71752446Y-54781219D01*
X71749767Y-54777901D01*
X71720503Y-54711539D01*
X71707423Y-54620961D01*
X71707375Y-54615638D01*
X71696729Y-54536225D01*
X71669530Y-54497072D01*
X71666894Y-54496316D01*
X71647193Y-54496948D01*
G36*
X73278010Y-53297539D02*
G01*
X73206155Y-53356073D01*
X73104546Y-53445224D01*
X72981018Y-53558114D01*
X72843407Y-53687865D01*
X72840862Y-53690300D01*
X72700697Y-53821959D01*
X72571965Y-53938209D01*
X72463158Y-54031748D01*
X72382767Y-54095275D01*
X72339590Y-54121411D01*
X72296205Y-54145442D01*
X72264166Y-54201278D01*
X72235802Y-54303396D01*
X72230677Y-54326951D01*
X72155613Y-54553840D01*
X72026158Y-54794303D01*
X71847546Y-55040074D01*
X71626726Y-55281192D01*
X71509243Y-55393694D01*
X71398353Y-55494337D01*
X71306917Y-55571778D01*
X71249878Y-55613475D01*
X71179395Y-55663569D01*
X71152359Y-55701121D01*
X71173588Y-55717592D01*
X71191438Y-55717007D01*
X71244336Y-55709896D01*
X71334538Y-55696546D01*
X71389875Y-55688039D01*
X71522422Y-55671961D01*
X71660910Y-55661803D01*
X71699091Y-55660531D01*
X71781301Y-55654475D01*
X71849967Y-55633782D01*
X71923611Y-55589385D01*
X72020756Y-55512221D01*
X72046441Y-55490524D01*
X72217167Y-55328648D01*
X72394795Y-55130156D01*
X72573249Y-54904686D01*
X72746454Y-54661872D01*
X72908336Y-54411350D01*
X73052820Y-54162756D01*
X73173829Y-53925724D01*
X73265289Y-53709891D01*
X73321126Y-53524892D01*
X73333578Y-53449026D01*
X73340041Y-53341863D01*
X73330520Y-53287664D01*
X73312276Y-53276500D01*
X73278010Y-53297539D01*
G37*
X73278010Y-53297539D02*
X73206155Y-53356073D01*
X73104546Y-53445224D01*
X72981018Y-53558114D01*
X72843407Y-53687865D01*
X72840862Y-53690300D01*
X72700697Y-53821959D01*
X72571965Y-53938209D01*
X72463158Y-54031748D01*
X72382767Y-54095275D01*
X72339590Y-54121411D01*
X72296205Y-54145442D01*
X72264166Y-54201278D01*
X72235802Y-54303396D01*
X72230677Y-54326951D01*
X72155613Y-54553840D01*
X72026158Y-54794303D01*
X71847546Y-55040074D01*
X71626726Y-55281192D01*
X71509243Y-55393694D01*
X71398353Y-55494337D01*
X71306917Y-55571778D01*
X71249878Y-55613475D01*
X71179395Y-55663569D01*
X71152359Y-55701121D01*
X71173588Y-55717592D01*
X71191438Y-55717007D01*
X71244336Y-55709896D01*
X71334538Y-55696546D01*
X71389875Y-55688039D01*
X71522422Y-55671961D01*
X71660910Y-55661803D01*
X71699091Y-55660531D01*
X71781301Y-55654475D01*
X71849967Y-55633782D01*
X71923611Y-55589385D01*
X72020756Y-55512221D01*
X72046441Y-55490524D01*
X72217167Y-55328648D01*
X72394795Y-55130156D01*
X72573249Y-54904686D01*
X72746454Y-54661872D01*
X72908336Y-54411350D01*
X73052820Y-54162756D01*
X73173829Y-53925724D01*
X73265289Y-53709891D01*
X73321126Y-53524892D01*
X73333578Y-53449026D01*
X73340041Y-53341863D01*
X73330520Y-53287664D01*
X73312276Y-53276500D01*
X73278010Y-53297539D01*
%TD*%
D12*
%TO.C,SW2*%
X63160000Y-85090000D03*
X65110000Y-83541000D03*
X65110000Y-86639000D03*
%TD*%
D13*
%TO.C,SW1*%
X64135000Y-72050000D03*
X64135000Y-80350000D03*
D14*
X64135000Y-74200000D03*
X64135000Y-76200000D03*
G36*
G01*
X65385000Y-79051000D02*
X62885000Y-79051000D01*
G75*
G02*
X62834000Y-79000000I0J51000D01*
G01*
X62834000Y-77400000D01*
G75*
G02*
X62885000Y-77349000I51000J0D01*
G01*
X65385000Y-77349000D01*
G75*
G02*
X65436000Y-77400000I0J-51000D01*
G01*
X65436000Y-79000000D01*
G75*
G02*
X65385000Y-79051000I-51000J0D01*
G01*
G37*
%TD*%
D15*
%TO.C,J3*%
X69850000Y-137160000D03*
D16*
X67310000Y-137160000D03*
X69850000Y-134620000D03*
X67310000Y-134620000D03*
X69850000Y-132080000D03*
X67310000Y-132080000D03*
X69850000Y-129540000D03*
X67310000Y-129540000D03*
X69850000Y-127000000D03*
X67310000Y-127000000D03*
%TD*%
D17*
%TO.C,J2*%
X76600000Y-55340000D03*
X102600000Y-55340000D03*
%TD*%
M02*
