%TF.GenerationSoftware,KiCad,Pcbnew,(5.1.10-1-10_14)*%
%TF.CreationDate,2023-03-15T03:50:06+08:00*%
%TF.ProjectId,GB_MemoryBackup_Mainboard,47425f4d-656d-46f7-9279-4261636b7570,1.0*%
%TF.SameCoordinates,Original*%
%TF.FileFunction,Legend,Bot*%
%TF.FilePolarity,Positive*%
%FSLAX46Y46*%
G04 Gerber Fmt 4.6, Leading zero omitted, Abs format (unit mm)*
G04 Created by KiCad (PCBNEW (5.1.10-1-10_14)) date 2023-03-15 03:50:06*
%MOMM*%
%LPD*%
G01*
G04 APERTURE LIST*
%ADD10C,0.150000*%
%ADD11C,0.120000*%
%ADD12C,0.125000*%
G04 APERTURE END LIST*
D10*
X66762380Y-71938095D02*
X66762380Y-72128571D01*
X66810000Y-72223809D01*
X66905238Y-72319047D01*
X67095714Y-72366666D01*
X67429047Y-72366666D01*
X67619523Y-72319047D01*
X67714761Y-72223809D01*
X67762380Y-72128571D01*
X67762380Y-71938095D01*
X67714761Y-71842857D01*
X67619523Y-71747619D01*
X67429047Y-71700000D01*
X67095714Y-71700000D01*
X66905238Y-71747619D01*
X66810000Y-71842857D01*
X66762380Y-71938095D01*
X67095714Y-72652380D02*
X67095714Y-73033333D01*
X67762380Y-72795238D02*
X66905238Y-72795238D01*
X66810000Y-72842857D01*
X66762380Y-72938095D01*
X66762380Y-73033333D01*
X67095714Y-73223809D02*
X67095714Y-73604761D01*
X67762380Y-73366666D02*
X66905238Y-73366666D01*
X66810000Y-73414285D01*
X66762380Y-73509523D01*
X66762380Y-73604761D01*
X67095714Y-75461904D02*
X67381428Y-74700000D01*
X67667142Y-75461904D01*
X67381428Y-75938095D02*
X67381428Y-76700000D01*
X67095714Y-77176190D02*
X67381428Y-77938095D01*
X67667142Y-77176190D01*
X66762380Y-79366666D02*
X66762380Y-79557142D01*
X66810000Y-79652380D01*
X66905238Y-79747619D01*
X67095714Y-79795238D01*
X67429047Y-79795238D01*
X67619523Y-79747619D01*
X67714761Y-79652380D01*
X67762380Y-79557142D01*
X67762380Y-79366666D01*
X67714761Y-79271428D01*
X67619523Y-79176190D01*
X67429047Y-79128571D01*
X67095714Y-79128571D01*
X66905238Y-79176190D01*
X66810000Y-79271428D01*
X66762380Y-79366666D01*
X67095714Y-80223809D02*
X67762380Y-80223809D01*
X67190952Y-80223809D02*
X67143333Y-80271428D01*
X67095714Y-80366666D01*
X67095714Y-80509523D01*
X67143333Y-80604761D01*
X67238571Y-80652380D01*
X67762380Y-80652380D01*
D11*
%TO.C,SW2*%
X62885000Y-82840000D02*
X64390000Y-82840000D01*
X62885000Y-84126000D02*
X62885000Y-82840000D01*
X62885000Y-87376000D02*
X62885000Y-86090000D01*
X65725000Y-84368000D02*
X65725000Y-85812000D01*
X62885000Y-87376000D02*
X64390000Y-87376000D01*
D10*
%TO.C,SW1*%
X61835000Y-74200000D02*
X61835000Y-71900000D01*
X61835000Y-80500000D02*
X61835000Y-78300000D01*
X66435000Y-80500000D02*
X66435000Y-71900000D01*
%TO.C,SW2*%
D12*
X64972380Y-84423333D02*
X64996190Y-84494761D01*
X64996190Y-84613809D01*
X64972380Y-84661428D01*
X64948571Y-84685238D01*
X64900952Y-84709047D01*
X64853333Y-84709047D01*
X64805714Y-84685238D01*
X64781904Y-84661428D01*
X64758095Y-84613809D01*
X64734285Y-84518571D01*
X64710476Y-84470952D01*
X64686666Y-84447142D01*
X64639047Y-84423333D01*
X64591428Y-84423333D01*
X64543809Y-84447142D01*
X64520000Y-84470952D01*
X64496190Y-84518571D01*
X64496190Y-84637619D01*
X64520000Y-84709047D01*
X64496190Y-84875714D02*
X64996190Y-84994761D01*
X64639047Y-85090000D01*
X64996190Y-85185238D01*
X64496190Y-85304285D01*
X64543809Y-85470952D02*
X64520000Y-85494761D01*
X64496190Y-85542380D01*
X64496190Y-85661428D01*
X64520000Y-85709047D01*
X64543809Y-85732857D01*
X64591428Y-85756666D01*
X64639047Y-85756666D01*
X64710476Y-85732857D01*
X64996190Y-85447142D01*
X64996190Y-85756666D01*
%TO.C,SW1*%
X62432380Y-75533333D02*
X62456190Y-75604761D01*
X62456190Y-75723809D01*
X62432380Y-75771428D01*
X62408571Y-75795238D01*
X62360952Y-75819047D01*
X62313333Y-75819047D01*
X62265714Y-75795238D01*
X62241904Y-75771428D01*
X62218095Y-75723809D01*
X62194285Y-75628571D01*
X62170476Y-75580952D01*
X62146666Y-75557142D01*
X62099047Y-75533333D01*
X62051428Y-75533333D01*
X62003809Y-75557142D01*
X61980000Y-75580952D01*
X61956190Y-75628571D01*
X61956190Y-75747619D01*
X61980000Y-75819047D01*
X61956190Y-75985714D02*
X62456190Y-76104761D01*
X62099047Y-76200000D01*
X62456190Y-76295238D01*
X61956190Y-76414285D01*
X62456190Y-76866666D02*
X62456190Y-76580952D01*
X62456190Y-76723809D02*
X61956190Y-76723809D01*
X62027619Y-76676190D01*
X62075238Y-76628571D01*
X62099047Y-76580952D01*
%TD*%
M02*
