M48
; DRILL file {KiCad (5.1.10-1-10_14)} date Wednesday, March 15, 2023 at 03:50:37 AM
; FORMAT={-:-/ absolute / metric / decimal}
; #@! TF.CreationDate,2023-03-15T03:50:37+08:00
; #@! TF.GenerationSoftware,Kicad,Pcbnew,(5.1.10-1-10_14)
FMAT,2
METRIC
T1C0.400
T2C1.000
T3C2.200
%
G90
G05
T1
X65.777Y-125.056
X65.96Y-142.349
X65.97Y-145.653
X66.35Y-68.98
X67.608Y-124.639
X68.694Y-76.855
X69.178Y-85.783
X69.32Y-112.747
X69.767Y-69.351
X70.17Y-70.785
X70.485Y-73.115
X70.955Y-124.983
X71.106Y-109.971
X71.878Y-140.756
X73.398Y-106.6
X73.66Y-111.19
X73.872Y-130.577
X74.017Y-124.983
X74.354Y-95.172
X74.448Y-104.553
X74.864Y-94.268
X74.902Y-138.612
X75.152Y-143.257
X75.349Y-103.2
X75.59Y-92.847
X75.633Y-101.222
X75.775Y-110.625
X75.843Y-135.8
X75.949Y-142.112
X75.956Y-140.348
X76.2Y-99.085
X76.437Y-100.607
X77.335Y-138.887
X77.517Y-108.928
X77.745Y-95.51
X77.908Y-119.136
X78.084Y-103.803
X78.633Y-136.6
X78.823Y-117.077
X78.967Y-95.51
X79.85Y-134.746
X80.01Y-103.652
X80.459Y-115.791
X81.863Y-88.319
X82.832Y-131.127
X82.846Y-116.423
X83.262Y-99.828
X83.852Y-128.177
X83.879Y-129.177
X86.478Y-92.983
X87.24Y-68.565
X87.378Y-98.777
X88.727Y-123.057
X88.971Y-70.079
X90.094Y-128.36
X90.981Y-127.817
X91.335Y-70.079
X92.011Y-68.581
X92.268Y-92.71
X94.79Y-104.169
X94.882Y-81.922
X94.89Y-80.228
X94.897Y-72.034
X94.906Y-83.031
X94.909Y-77.784
X95.371Y-113.317
X95.478Y-71.2
X96.261Y-100.018
X96.261Y-101.643
X96.371Y-113.359
X97.089Y-127.695
X97.485Y-85.672
X97.506Y-75.142
X98.744Y-81.583
X98.843Y-84.315
X98.989Y-110.95
X99.105Y-127.338
X99.548Y-88.768
X99.723Y-105.549
X99.934Y-84.335
X99.953Y-126.753
X100.022Y-123.912
X100.299Y-83.077
X100.354Y-112.424
X100.576Y-70.945
X100.667Y-68.565
X100.8Y-122.429
X100.963Y-73.285
X101.025Y-84.316
X101.071Y-88.181
X101.373Y-89.389
X101.512Y-111.54
X101.557Y-90.418
X102.252Y-112.214
X102.378Y-84.188
X103.154Y-111.702
X103.214Y-72.142
X103.483Y-82.704
X103.578Y-89.234
X103.836Y-80.814
X104.067Y-98.296
X104.096Y-92.657
X104.102Y-79.008
X104.174Y-101.247
X104.654Y-104.908
X104.658Y-111.293
X104.88Y-76.959
X105.196Y-69.509
X105.58Y-97.302
X105.892Y-100.174
X105.97Y-71.114
X106.164Y-68.654
X106.27Y-98.026
X107.028Y-73.315
X107.127Y-81.538
X107.131Y-111.467
X107.399Y-88.897
X107.692Y-70.982
X107.965Y-105.427
X108.028Y-73.118
X108.198Y-80.501
X108.349Y-106.964
X108.47Y-108.408
X108.646Y-83.834
X109.517Y-113.349
X109.533Y-86.413
X110.264Y-85.368
X110.298Y-73.336
X110.532Y-113.321
X111.35Y-71.126
X112.165Y-112.807
X112.181Y-82.251
X113.0Y-146.293
X115.475Y-101.328
T2
X63.16Y-85.09
X64.135Y-74.2
X64.135Y-76.2
X64.135Y-78.2
X65.11Y-83.541
X65.11Y-86.639
X67.31Y-127.0
X67.31Y-129.54
X67.31Y-132.08
X67.31Y-134.62
X67.31Y-137.16
X69.85Y-127.0
X69.85Y-129.54
X69.85Y-132.08
X69.85Y-134.62
X69.85Y-137.16
T3
X76.6Y-55.34
X102.6Y-55.34
T2
G00X63.735Y-72.05
M15
G01X64.535Y-72.05
M16
G05
G00X63.735Y-80.35
M15
G01X64.535Y-80.35
M16
G05
T0
M30
