%TF.GenerationSoftware,KiCad,Pcbnew,(5.1.10-1-10_14)*%
%TF.CreationDate,2023-03-15T03:50:06+08:00*%
%TF.ProjectId,GB_MemoryBackup_Mainboard,47425f4d-656d-46f7-9279-4261636b7570,1.0*%
%TF.SameCoordinates,Original*%
%TF.FileFunction,Soldermask,Top*%
%TF.FilePolarity,Negative*%
%FSLAX46Y46*%
G04 Gerber Fmt 4.6, Leading zero omitted, Abs format (unit mm)*
G04 Created by KiCad (PCBNEW (5.1.10-1-10_14)) date 2023-03-15 03:50:06*
%MOMM*%
%LPD*%
G01*
G04 APERTURE LIST*
%ADD10C,1.702000*%
%ADD11R,1.300000X6.000000*%
%ADD12R,1.000000X5.500000*%
%ADD13O,3.102000X2.102000*%
%ADD14O,2.602000X1.702000*%
%ADD15R,1.700000X1.700000*%
%ADD16O,1.700000X1.700000*%
%ADD17C,2.200000*%
G04 APERTURE END LIST*
D10*
%TO.C,SW2*%
X63160000Y-85090000D03*
X65110000Y-83541000D03*
X65110000Y-86639000D03*
%TD*%
D11*
%TO.C,J1*%
X113000000Y-151500000D03*
D12*
X111350000Y-151250000D03*
X109850000Y-151250000D03*
X108350000Y-151250000D03*
X106850000Y-151250000D03*
X105350000Y-151250000D03*
X103850000Y-151250000D03*
X102350000Y-151250000D03*
X100850000Y-151250000D03*
X99350000Y-151250000D03*
X97850000Y-151250000D03*
X96350000Y-151250000D03*
X94850000Y-151250000D03*
X93350000Y-151250000D03*
X91850000Y-151250000D03*
X90350000Y-151250000D03*
X88850000Y-151250000D03*
X87350000Y-151250000D03*
X85850000Y-151250000D03*
X84350000Y-151250000D03*
X82850000Y-151250000D03*
X81350000Y-151250000D03*
X79850000Y-151250000D03*
X78350000Y-151250000D03*
X76850000Y-151250000D03*
X75350000Y-151250000D03*
X73850000Y-151250000D03*
X72350000Y-151250000D03*
X70850000Y-151250000D03*
X69350000Y-151250000D03*
X67850000Y-151250000D03*
D11*
X66200000Y-151500000D03*
%TD*%
%TO.C,U2*%
G36*
G01*
X97782500Y-79736000D02*
X95641500Y-79736000D01*
G75*
G02*
X95461000Y-79555500I0J180500D01*
G01*
X95461000Y-79194500D01*
G75*
G02*
X95641500Y-79014000I180500J0D01*
G01*
X97782500Y-79014000D01*
G75*
G02*
X97963000Y-79194500I0J-180500D01*
G01*
X97963000Y-79555500D01*
G75*
G02*
X97782500Y-79736000I-180500J0D01*
G01*
G37*
G36*
G01*
X97782500Y-78466000D02*
X95641500Y-78466000D01*
G75*
G02*
X95461000Y-78285500I0J180500D01*
G01*
X95461000Y-77924500D01*
G75*
G02*
X95641500Y-77744000I180500J0D01*
G01*
X97782500Y-77744000D01*
G75*
G02*
X97963000Y-77924500I0J-180500D01*
G01*
X97963000Y-78285500D01*
G75*
G02*
X97782500Y-78466000I-180500J0D01*
G01*
G37*
G36*
G01*
X97782500Y-77196000D02*
X95641500Y-77196000D01*
G75*
G02*
X95461000Y-77015500I0J180500D01*
G01*
X95461000Y-76654500D01*
G75*
G02*
X95641500Y-76474000I180500J0D01*
G01*
X97782500Y-76474000D01*
G75*
G02*
X97963000Y-76654500I0J-180500D01*
G01*
X97963000Y-77015500D01*
G75*
G02*
X97782500Y-77196000I-180500J0D01*
G01*
G37*
G36*
G01*
X98605500Y-76393000D02*
X98244500Y-76393000D01*
G75*
G02*
X98064000Y-76212500I0J180500D01*
G01*
X98064000Y-74071500D01*
G75*
G02*
X98244500Y-73891000I180500J0D01*
G01*
X98605500Y-73891000D01*
G75*
G02*
X98786000Y-74071500I0J-180500D01*
G01*
X98786000Y-76212500D01*
G75*
G02*
X98605500Y-76393000I-180500J0D01*
G01*
G37*
G36*
G01*
X99875500Y-76393000D02*
X99514500Y-76393000D01*
G75*
G02*
X99334000Y-76212500I0J180500D01*
G01*
X99334000Y-74071500D01*
G75*
G02*
X99514500Y-73891000I180500J0D01*
G01*
X99875500Y-73891000D01*
G75*
G02*
X100056000Y-74071500I0J-180500D01*
G01*
X100056000Y-76212500D01*
G75*
G02*
X99875500Y-76393000I-180500J0D01*
G01*
G37*
G36*
G01*
X101145500Y-76393000D02*
X100784500Y-76393000D01*
G75*
G02*
X100604000Y-76212500I0J180500D01*
G01*
X100604000Y-74071500D01*
G75*
G02*
X100784500Y-73891000I180500J0D01*
G01*
X101145500Y-73891000D01*
G75*
G02*
X101326000Y-74071500I0J-180500D01*
G01*
X101326000Y-76212500D01*
G75*
G02*
X101145500Y-76393000I-180500J0D01*
G01*
G37*
G36*
G01*
X102415500Y-76393000D02*
X102054500Y-76393000D01*
G75*
G02*
X101874000Y-76212500I0J180500D01*
G01*
X101874000Y-74071500D01*
G75*
G02*
X102054500Y-73891000I180500J0D01*
G01*
X102415500Y-73891000D01*
G75*
G02*
X102596000Y-74071500I0J-180500D01*
G01*
X102596000Y-76212500D01*
G75*
G02*
X102415500Y-76393000I-180500J0D01*
G01*
G37*
G36*
G01*
X103685500Y-76393000D02*
X103324500Y-76393000D01*
G75*
G02*
X103144000Y-76212500I0J180500D01*
G01*
X103144000Y-74071500D01*
G75*
G02*
X103324500Y-73891000I180500J0D01*
G01*
X103685500Y-73891000D01*
G75*
G02*
X103866000Y-74071500I0J-180500D01*
G01*
X103866000Y-76212500D01*
G75*
G02*
X103685500Y-76393000I-180500J0D01*
G01*
G37*
G36*
G01*
X104955500Y-76393000D02*
X104594500Y-76393000D01*
G75*
G02*
X104414000Y-76212500I0J180500D01*
G01*
X104414000Y-74071500D01*
G75*
G02*
X104594500Y-73891000I180500J0D01*
G01*
X104955500Y-73891000D01*
G75*
G02*
X105136000Y-74071500I0J-180500D01*
G01*
X105136000Y-76212500D01*
G75*
G02*
X104955500Y-76393000I-180500J0D01*
G01*
G37*
G36*
G01*
X106225500Y-76393000D02*
X105864500Y-76393000D01*
G75*
G02*
X105684000Y-76212500I0J180500D01*
G01*
X105684000Y-74071500D01*
G75*
G02*
X105864500Y-73891000I180500J0D01*
G01*
X106225500Y-73891000D01*
G75*
G02*
X106406000Y-74071500I0J-180500D01*
G01*
X106406000Y-76212500D01*
G75*
G02*
X106225500Y-76393000I-180500J0D01*
G01*
G37*
G36*
G01*
X107495500Y-76393000D02*
X107134500Y-76393000D01*
G75*
G02*
X106954000Y-76212500I0J180500D01*
G01*
X106954000Y-74071500D01*
G75*
G02*
X107134500Y-73891000I180500J0D01*
G01*
X107495500Y-73891000D01*
G75*
G02*
X107676000Y-74071500I0J-180500D01*
G01*
X107676000Y-76212500D01*
G75*
G02*
X107495500Y-76393000I-180500J0D01*
G01*
G37*
G36*
G01*
X108765500Y-76393000D02*
X108404500Y-76393000D01*
G75*
G02*
X108224000Y-76212500I0J180500D01*
G01*
X108224000Y-74071500D01*
G75*
G02*
X108404500Y-73891000I180500J0D01*
G01*
X108765500Y-73891000D01*
G75*
G02*
X108946000Y-74071500I0J-180500D01*
G01*
X108946000Y-76212500D01*
G75*
G02*
X108765500Y-76393000I-180500J0D01*
G01*
G37*
G36*
G01*
X111368500Y-77196000D02*
X109227500Y-77196000D01*
G75*
G02*
X109047000Y-77015500I0J180500D01*
G01*
X109047000Y-76654500D01*
G75*
G02*
X109227500Y-76474000I180500J0D01*
G01*
X111368500Y-76474000D01*
G75*
G02*
X111549000Y-76654500I0J-180500D01*
G01*
X111549000Y-77015500D01*
G75*
G02*
X111368500Y-77196000I-180500J0D01*
G01*
G37*
G36*
G01*
X111368500Y-78466000D02*
X109227500Y-78466000D01*
G75*
G02*
X109047000Y-78285500I0J180500D01*
G01*
X109047000Y-77924500D01*
G75*
G02*
X109227500Y-77744000I180500J0D01*
G01*
X111368500Y-77744000D01*
G75*
G02*
X111549000Y-77924500I0J-180500D01*
G01*
X111549000Y-78285500D01*
G75*
G02*
X111368500Y-78466000I-180500J0D01*
G01*
G37*
G36*
G01*
X111368500Y-79736000D02*
X109227500Y-79736000D01*
G75*
G02*
X109047000Y-79555500I0J180500D01*
G01*
X109047000Y-79194500D01*
G75*
G02*
X109227500Y-79014000I180500J0D01*
G01*
X111368500Y-79014000D01*
G75*
G02*
X111549000Y-79194500I0J-180500D01*
G01*
X111549000Y-79555500D01*
G75*
G02*
X111368500Y-79736000I-180500J0D01*
G01*
G37*
G36*
G01*
X111368500Y-81006000D02*
X109227500Y-81006000D01*
G75*
G02*
X109047000Y-80825500I0J180500D01*
G01*
X109047000Y-80464500D01*
G75*
G02*
X109227500Y-80284000I180500J0D01*
G01*
X111368500Y-80284000D01*
G75*
G02*
X111549000Y-80464500I0J-180500D01*
G01*
X111549000Y-80825500D01*
G75*
G02*
X111368500Y-81006000I-180500J0D01*
G01*
G37*
G36*
G01*
X111368500Y-82276000D02*
X109227500Y-82276000D01*
G75*
G02*
X109047000Y-82095500I0J180500D01*
G01*
X109047000Y-81734500D01*
G75*
G02*
X109227500Y-81554000I180500J0D01*
G01*
X111368500Y-81554000D01*
G75*
G02*
X111549000Y-81734500I0J-180500D01*
G01*
X111549000Y-82095500D01*
G75*
G02*
X111368500Y-82276000I-180500J0D01*
G01*
G37*
G36*
G01*
X111368500Y-83546000D02*
X109227500Y-83546000D01*
G75*
G02*
X109047000Y-83365500I0J180500D01*
G01*
X109047000Y-83004500D01*
G75*
G02*
X109227500Y-82824000I180500J0D01*
G01*
X111368500Y-82824000D01*
G75*
G02*
X111549000Y-83004500I0J-180500D01*
G01*
X111549000Y-83365500D01*
G75*
G02*
X111368500Y-83546000I-180500J0D01*
G01*
G37*
G36*
G01*
X111368500Y-84816000D02*
X109227500Y-84816000D01*
G75*
G02*
X109047000Y-84635500I0J180500D01*
G01*
X109047000Y-84274500D01*
G75*
G02*
X109227500Y-84094000I180500J0D01*
G01*
X111368500Y-84094000D01*
G75*
G02*
X111549000Y-84274500I0J-180500D01*
G01*
X111549000Y-84635500D01*
G75*
G02*
X111368500Y-84816000I-180500J0D01*
G01*
G37*
G36*
G01*
X108765500Y-87399000D02*
X108404500Y-87399000D01*
G75*
G02*
X108224000Y-87218500I0J180500D01*
G01*
X108224000Y-85077500D01*
G75*
G02*
X108404500Y-84897000I180500J0D01*
G01*
X108765500Y-84897000D01*
G75*
G02*
X108946000Y-85077500I0J-180500D01*
G01*
X108946000Y-87218500D01*
G75*
G02*
X108765500Y-87399000I-180500J0D01*
G01*
G37*
G36*
G01*
X107495500Y-87399000D02*
X107134500Y-87399000D01*
G75*
G02*
X106954000Y-87218500I0J180500D01*
G01*
X106954000Y-85077500D01*
G75*
G02*
X107134500Y-84897000I180500J0D01*
G01*
X107495500Y-84897000D01*
G75*
G02*
X107676000Y-85077500I0J-180500D01*
G01*
X107676000Y-87218500D01*
G75*
G02*
X107495500Y-87399000I-180500J0D01*
G01*
G37*
G36*
G01*
X106225500Y-87399000D02*
X105864500Y-87399000D01*
G75*
G02*
X105684000Y-87218500I0J180500D01*
G01*
X105684000Y-85077500D01*
G75*
G02*
X105864500Y-84897000I180500J0D01*
G01*
X106225500Y-84897000D01*
G75*
G02*
X106406000Y-85077500I0J-180500D01*
G01*
X106406000Y-87218500D01*
G75*
G02*
X106225500Y-87399000I-180500J0D01*
G01*
G37*
G36*
G01*
X104955500Y-87399000D02*
X104594500Y-87399000D01*
G75*
G02*
X104414000Y-87218500I0J180500D01*
G01*
X104414000Y-85077500D01*
G75*
G02*
X104594500Y-84897000I180500J0D01*
G01*
X104955500Y-84897000D01*
G75*
G02*
X105136000Y-85077500I0J-180500D01*
G01*
X105136000Y-87218500D01*
G75*
G02*
X104955500Y-87399000I-180500J0D01*
G01*
G37*
G36*
G01*
X103685500Y-87399000D02*
X103324500Y-87399000D01*
G75*
G02*
X103144000Y-87218500I0J180500D01*
G01*
X103144000Y-85077500D01*
G75*
G02*
X103324500Y-84897000I180500J0D01*
G01*
X103685500Y-84897000D01*
G75*
G02*
X103866000Y-85077500I0J-180500D01*
G01*
X103866000Y-87218500D01*
G75*
G02*
X103685500Y-87399000I-180500J0D01*
G01*
G37*
G36*
G01*
X102415500Y-87399000D02*
X102054500Y-87399000D01*
G75*
G02*
X101874000Y-87218500I0J180500D01*
G01*
X101874000Y-85077500D01*
G75*
G02*
X102054500Y-84897000I180500J0D01*
G01*
X102415500Y-84897000D01*
G75*
G02*
X102596000Y-85077500I0J-180500D01*
G01*
X102596000Y-87218500D01*
G75*
G02*
X102415500Y-87399000I-180500J0D01*
G01*
G37*
G36*
G01*
X101145500Y-87399000D02*
X100784500Y-87399000D01*
G75*
G02*
X100604000Y-87218500I0J180500D01*
G01*
X100604000Y-85077500D01*
G75*
G02*
X100784500Y-84897000I180500J0D01*
G01*
X101145500Y-84897000D01*
G75*
G02*
X101326000Y-85077500I0J-180500D01*
G01*
X101326000Y-87218500D01*
G75*
G02*
X101145500Y-87399000I-180500J0D01*
G01*
G37*
G36*
G01*
X99875500Y-87399000D02*
X99514500Y-87399000D01*
G75*
G02*
X99334000Y-87218500I0J180500D01*
G01*
X99334000Y-85077500D01*
G75*
G02*
X99514500Y-84897000I180500J0D01*
G01*
X99875500Y-84897000D01*
G75*
G02*
X100056000Y-85077500I0J-180500D01*
G01*
X100056000Y-87218500D01*
G75*
G02*
X99875500Y-87399000I-180500J0D01*
G01*
G37*
G36*
G01*
X98605500Y-87399000D02*
X98244500Y-87399000D01*
G75*
G02*
X98064000Y-87218500I0J180500D01*
G01*
X98064000Y-85077500D01*
G75*
G02*
X98244500Y-84897000I180500J0D01*
G01*
X98605500Y-84897000D01*
G75*
G02*
X98786000Y-85077500I0J-180500D01*
G01*
X98786000Y-87218500D01*
G75*
G02*
X98605500Y-87399000I-180500J0D01*
G01*
G37*
G36*
G01*
X97782500Y-84816000D02*
X95641500Y-84816000D01*
G75*
G02*
X95461000Y-84635500I0J180500D01*
G01*
X95461000Y-84274500D01*
G75*
G02*
X95641500Y-84094000I180500J0D01*
G01*
X97782500Y-84094000D01*
G75*
G02*
X97963000Y-84274500I0J-180500D01*
G01*
X97963000Y-84635500D01*
G75*
G02*
X97782500Y-84816000I-180500J0D01*
G01*
G37*
G36*
G01*
X97782500Y-83546000D02*
X95641500Y-83546000D01*
G75*
G02*
X95461000Y-83365500I0J180500D01*
G01*
X95461000Y-83004500D01*
G75*
G02*
X95641500Y-82824000I180500J0D01*
G01*
X97782500Y-82824000D01*
G75*
G02*
X97963000Y-83004500I0J-180500D01*
G01*
X97963000Y-83365500D01*
G75*
G02*
X97782500Y-83546000I-180500J0D01*
G01*
G37*
G36*
G01*
X97782500Y-82276000D02*
X95641500Y-82276000D01*
G75*
G02*
X95461000Y-82095500I0J180500D01*
G01*
X95461000Y-81734500D01*
G75*
G02*
X95641500Y-81554000I180500J0D01*
G01*
X97782500Y-81554000D01*
G75*
G02*
X97963000Y-81734500I0J-180500D01*
G01*
X97963000Y-82095500D01*
G75*
G02*
X97782500Y-82276000I-180500J0D01*
G01*
G37*
G36*
G01*
X97782500Y-81006000D02*
X95641500Y-81006000D01*
G75*
G02*
X95461000Y-80825500I0J180500D01*
G01*
X95461000Y-80464500D01*
G75*
G02*
X95641500Y-80284000I180500J0D01*
G01*
X97782500Y-80284000D01*
G75*
G02*
X97963000Y-80464500I0J-180500D01*
G01*
X97963000Y-80825500D01*
G75*
G02*
X97782500Y-81006000I-180500J0D01*
G01*
G37*
%TD*%
%TO.C,U1*%
G36*
G01*
X97782500Y-107676000D02*
X95641500Y-107676000D01*
G75*
G02*
X95461000Y-107495500I0J180500D01*
G01*
X95461000Y-107134500D01*
G75*
G02*
X95641500Y-106954000I180500J0D01*
G01*
X97782500Y-106954000D01*
G75*
G02*
X97963000Y-107134500I0J-180500D01*
G01*
X97963000Y-107495500D01*
G75*
G02*
X97782500Y-107676000I-180500J0D01*
G01*
G37*
G36*
G01*
X97782500Y-106406000D02*
X95641500Y-106406000D01*
G75*
G02*
X95461000Y-106225500I0J180500D01*
G01*
X95461000Y-105864500D01*
G75*
G02*
X95641500Y-105684000I180500J0D01*
G01*
X97782500Y-105684000D01*
G75*
G02*
X97963000Y-105864500I0J-180500D01*
G01*
X97963000Y-106225500D01*
G75*
G02*
X97782500Y-106406000I-180500J0D01*
G01*
G37*
G36*
G01*
X97782500Y-105136000D02*
X95641500Y-105136000D01*
G75*
G02*
X95461000Y-104955500I0J180500D01*
G01*
X95461000Y-104594500D01*
G75*
G02*
X95641500Y-104414000I180500J0D01*
G01*
X97782500Y-104414000D01*
G75*
G02*
X97963000Y-104594500I0J-180500D01*
G01*
X97963000Y-104955500D01*
G75*
G02*
X97782500Y-105136000I-180500J0D01*
G01*
G37*
G36*
G01*
X98605500Y-104333000D02*
X98244500Y-104333000D01*
G75*
G02*
X98064000Y-104152500I0J180500D01*
G01*
X98064000Y-102011500D01*
G75*
G02*
X98244500Y-101831000I180500J0D01*
G01*
X98605500Y-101831000D01*
G75*
G02*
X98786000Y-102011500I0J-180500D01*
G01*
X98786000Y-104152500D01*
G75*
G02*
X98605500Y-104333000I-180500J0D01*
G01*
G37*
G36*
G01*
X99875500Y-104333000D02*
X99514500Y-104333000D01*
G75*
G02*
X99334000Y-104152500I0J180500D01*
G01*
X99334000Y-102011500D01*
G75*
G02*
X99514500Y-101831000I180500J0D01*
G01*
X99875500Y-101831000D01*
G75*
G02*
X100056000Y-102011500I0J-180500D01*
G01*
X100056000Y-104152500D01*
G75*
G02*
X99875500Y-104333000I-180500J0D01*
G01*
G37*
G36*
G01*
X101145500Y-104333000D02*
X100784500Y-104333000D01*
G75*
G02*
X100604000Y-104152500I0J180500D01*
G01*
X100604000Y-102011500D01*
G75*
G02*
X100784500Y-101831000I180500J0D01*
G01*
X101145500Y-101831000D01*
G75*
G02*
X101326000Y-102011500I0J-180500D01*
G01*
X101326000Y-104152500D01*
G75*
G02*
X101145500Y-104333000I-180500J0D01*
G01*
G37*
G36*
G01*
X102415500Y-104333000D02*
X102054500Y-104333000D01*
G75*
G02*
X101874000Y-104152500I0J180500D01*
G01*
X101874000Y-102011500D01*
G75*
G02*
X102054500Y-101831000I180500J0D01*
G01*
X102415500Y-101831000D01*
G75*
G02*
X102596000Y-102011500I0J-180500D01*
G01*
X102596000Y-104152500D01*
G75*
G02*
X102415500Y-104333000I-180500J0D01*
G01*
G37*
G36*
G01*
X103685500Y-104333000D02*
X103324500Y-104333000D01*
G75*
G02*
X103144000Y-104152500I0J180500D01*
G01*
X103144000Y-102011500D01*
G75*
G02*
X103324500Y-101831000I180500J0D01*
G01*
X103685500Y-101831000D01*
G75*
G02*
X103866000Y-102011500I0J-180500D01*
G01*
X103866000Y-104152500D01*
G75*
G02*
X103685500Y-104333000I-180500J0D01*
G01*
G37*
G36*
G01*
X104955500Y-104333000D02*
X104594500Y-104333000D01*
G75*
G02*
X104414000Y-104152500I0J180500D01*
G01*
X104414000Y-102011500D01*
G75*
G02*
X104594500Y-101831000I180500J0D01*
G01*
X104955500Y-101831000D01*
G75*
G02*
X105136000Y-102011500I0J-180500D01*
G01*
X105136000Y-104152500D01*
G75*
G02*
X104955500Y-104333000I-180500J0D01*
G01*
G37*
G36*
G01*
X106225500Y-104333000D02*
X105864500Y-104333000D01*
G75*
G02*
X105684000Y-104152500I0J180500D01*
G01*
X105684000Y-102011500D01*
G75*
G02*
X105864500Y-101831000I180500J0D01*
G01*
X106225500Y-101831000D01*
G75*
G02*
X106406000Y-102011500I0J-180500D01*
G01*
X106406000Y-104152500D01*
G75*
G02*
X106225500Y-104333000I-180500J0D01*
G01*
G37*
G36*
G01*
X107495500Y-104333000D02*
X107134500Y-104333000D01*
G75*
G02*
X106954000Y-104152500I0J180500D01*
G01*
X106954000Y-102011500D01*
G75*
G02*
X107134500Y-101831000I180500J0D01*
G01*
X107495500Y-101831000D01*
G75*
G02*
X107676000Y-102011500I0J-180500D01*
G01*
X107676000Y-104152500D01*
G75*
G02*
X107495500Y-104333000I-180500J0D01*
G01*
G37*
G36*
G01*
X108765500Y-104333000D02*
X108404500Y-104333000D01*
G75*
G02*
X108224000Y-104152500I0J180500D01*
G01*
X108224000Y-102011500D01*
G75*
G02*
X108404500Y-101831000I180500J0D01*
G01*
X108765500Y-101831000D01*
G75*
G02*
X108946000Y-102011500I0J-180500D01*
G01*
X108946000Y-104152500D01*
G75*
G02*
X108765500Y-104333000I-180500J0D01*
G01*
G37*
G36*
G01*
X111368500Y-105136000D02*
X109227500Y-105136000D01*
G75*
G02*
X109047000Y-104955500I0J180500D01*
G01*
X109047000Y-104594500D01*
G75*
G02*
X109227500Y-104414000I180500J0D01*
G01*
X111368500Y-104414000D01*
G75*
G02*
X111549000Y-104594500I0J-180500D01*
G01*
X111549000Y-104955500D01*
G75*
G02*
X111368500Y-105136000I-180500J0D01*
G01*
G37*
G36*
G01*
X111368500Y-106406000D02*
X109227500Y-106406000D01*
G75*
G02*
X109047000Y-106225500I0J180500D01*
G01*
X109047000Y-105864500D01*
G75*
G02*
X109227500Y-105684000I180500J0D01*
G01*
X111368500Y-105684000D01*
G75*
G02*
X111549000Y-105864500I0J-180500D01*
G01*
X111549000Y-106225500D01*
G75*
G02*
X111368500Y-106406000I-180500J0D01*
G01*
G37*
G36*
G01*
X111368500Y-107676000D02*
X109227500Y-107676000D01*
G75*
G02*
X109047000Y-107495500I0J180500D01*
G01*
X109047000Y-107134500D01*
G75*
G02*
X109227500Y-106954000I180500J0D01*
G01*
X111368500Y-106954000D01*
G75*
G02*
X111549000Y-107134500I0J-180500D01*
G01*
X111549000Y-107495500D01*
G75*
G02*
X111368500Y-107676000I-180500J0D01*
G01*
G37*
G36*
G01*
X111368500Y-108946000D02*
X109227500Y-108946000D01*
G75*
G02*
X109047000Y-108765500I0J180500D01*
G01*
X109047000Y-108404500D01*
G75*
G02*
X109227500Y-108224000I180500J0D01*
G01*
X111368500Y-108224000D01*
G75*
G02*
X111549000Y-108404500I0J-180500D01*
G01*
X111549000Y-108765500D01*
G75*
G02*
X111368500Y-108946000I-180500J0D01*
G01*
G37*
G36*
G01*
X111368500Y-110216000D02*
X109227500Y-110216000D01*
G75*
G02*
X109047000Y-110035500I0J180500D01*
G01*
X109047000Y-109674500D01*
G75*
G02*
X109227500Y-109494000I180500J0D01*
G01*
X111368500Y-109494000D01*
G75*
G02*
X111549000Y-109674500I0J-180500D01*
G01*
X111549000Y-110035500D01*
G75*
G02*
X111368500Y-110216000I-180500J0D01*
G01*
G37*
G36*
G01*
X111368500Y-111486000D02*
X109227500Y-111486000D01*
G75*
G02*
X109047000Y-111305500I0J180500D01*
G01*
X109047000Y-110944500D01*
G75*
G02*
X109227500Y-110764000I180500J0D01*
G01*
X111368500Y-110764000D01*
G75*
G02*
X111549000Y-110944500I0J-180500D01*
G01*
X111549000Y-111305500D01*
G75*
G02*
X111368500Y-111486000I-180500J0D01*
G01*
G37*
G36*
G01*
X111368500Y-112756000D02*
X109227500Y-112756000D01*
G75*
G02*
X109047000Y-112575500I0J180500D01*
G01*
X109047000Y-112214500D01*
G75*
G02*
X109227500Y-112034000I180500J0D01*
G01*
X111368500Y-112034000D01*
G75*
G02*
X111549000Y-112214500I0J-180500D01*
G01*
X111549000Y-112575500D01*
G75*
G02*
X111368500Y-112756000I-180500J0D01*
G01*
G37*
G36*
G01*
X108765500Y-115339000D02*
X108404500Y-115339000D01*
G75*
G02*
X108224000Y-115158500I0J180500D01*
G01*
X108224000Y-113017500D01*
G75*
G02*
X108404500Y-112837000I180500J0D01*
G01*
X108765500Y-112837000D01*
G75*
G02*
X108946000Y-113017500I0J-180500D01*
G01*
X108946000Y-115158500D01*
G75*
G02*
X108765500Y-115339000I-180500J0D01*
G01*
G37*
G36*
G01*
X107495500Y-115339000D02*
X107134500Y-115339000D01*
G75*
G02*
X106954000Y-115158500I0J180500D01*
G01*
X106954000Y-113017500D01*
G75*
G02*
X107134500Y-112837000I180500J0D01*
G01*
X107495500Y-112837000D01*
G75*
G02*
X107676000Y-113017500I0J-180500D01*
G01*
X107676000Y-115158500D01*
G75*
G02*
X107495500Y-115339000I-180500J0D01*
G01*
G37*
G36*
G01*
X106225500Y-115339000D02*
X105864500Y-115339000D01*
G75*
G02*
X105684000Y-115158500I0J180500D01*
G01*
X105684000Y-113017500D01*
G75*
G02*
X105864500Y-112837000I180500J0D01*
G01*
X106225500Y-112837000D01*
G75*
G02*
X106406000Y-113017500I0J-180500D01*
G01*
X106406000Y-115158500D01*
G75*
G02*
X106225500Y-115339000I-180500J0D01*
G01*
G37*
G36*
G01*
X104955500Y-115339000D02*
X104594500Y-115339000D01*
G75*
G02*
X104414000Y-115158500I0J180500D01*
G01*
X104414000Y-113017500D01*
G75*
G02*
X104594500Y-112837000I180500J0D01*
G01*
X104955500Y-112837000D01*
G75*
G02*
X105136000Y-113017500I0J-180500D01*
G01*
X105136000Y-115158500D01*
G75*
G02*
X104955500Y-115339000I-180500J0D01*
G01*
G37*
G36*
G01*
X103685500Y-115339000D02*
X103324500Y-115339000D01*
G75*
G02*
X103144000Y-115158500I0J180500D01*
G01*
X103144000Y-113017500D01*
G75*
G02*
X103324500Y-112837000I180500J0D01*
G01*
X103685500Y-112837000D01*
G75*
G02*
X103866000Y-113017500I0J-180500D01*
G01*
X103866000Y-115158500D01*
G75*
G02*
X103685500Y-115339000I-180500J0D01*
G01*
G37*
G36*
G01*
X102415500Y-115339000D02*
X102054500Y-115339000D01*
G75*
G02*
X101874000Y-115158500I0J180500D01*
G01*
X101874000Y-113017500D01*
G75*
G02*
X102054500Y-112837000I180500J0D01*
G01*
X102415500Y-112837000D01*
G75*
G02*
X102596000Y-113017500I0J-180500D01*
G01*
X102596000Y-115158500D01*
G75*
G02*
X102415500Y-115339000I-180500J0D01*
G01*
G37*
G36*
G01*
X101145500Y-115339000D02*
X100784500Y-115339000D01*
G75*
G02*
X100604000Y-115158500I0J180500D01*
G01*
X100604000Y-113017500D01*
G75*
G02*
X100784500Y-112837000I180500J0D01*
G01*
X101145500Y-112837000D01*
G75*
G02*
X101326000Y-113017500I0J-180500D01*
G01*
X101326000Y-115158500D01*
G75*
G02*
X101145500Y-115339000I-180500J0D01*
G01*
G37*
G36*
G01*
X99875500Y-115339000D02*
X99514500Y-115339000D01*
G75*
G02*
X99334000Y-115158500I0J180500D01*
G01*
X99334000Y-113017500D01*
G75*
G02*
X99514500Y-112837000I180500J0D01*
G01*
X99875500Y-112837000D01*
G75*
G02*
X100056000Y-113017500I0J-180500D01*
G01*
X100056000Y-115158500D01*
G75*
G02*
X99875500Y-115339000I-180500J0D01*
G01*
G37*
G36*
G01*
X98605500Y-115339000D02*
X98244500Y-115339000D01*
G75*
G02*
X98064000Y-115158500I0J180500D01*
G01*
X98064000Y-113017500D01*
G75*
G02*
X98244500Y-112837000I180500J0D01*
G01*
X98605500Y-112837000D01*
G75*
G02*
X98786000Y-113017500I0J-180500D01*
G01*
X98786000Y-115158500D01*
G75*
G02*
X98605500Y-115339000I-180500J0D01*
G01*
G37*
G36*
G01*
X97782500Y-112756000D02*
X95641500Y-112756000D01*
G75*
G02*
X95461000Y-112575500I0J180500D01*
G01*
X95461000Y-112214500D01*
G75*
G02*
X95641500Y-112034000I180500J0D01*
G01*
X97782500Y-112034000D01*
G75*
G02*
X97963000Y-112214500I0J-180500D01*
G01*
X97963000Y-112575500D01*
G75*
G02*
X97782500Y-112756000I-180500J0D01*
G01*
G37*
G36*
G01*
X97782500Y-111486000D02*
X95641500Y-111486000D01*
G75*
G02*
X95461000Y-111305500I0J180500D01*
G01*
X95461000Y-110944500D01*
G75*
G02*
X95641500Y-110764000I180500J0D01*
G01*
X97782500Y-110764000D01*
G75*
G02*
X97963000Y-110944500I0J-180500D01*
G01*
X97963000Y-111305500D01*
G75*
G02*
X97782500Y-111486000I-180500J0D01*
G01*
G37*
G36*
G01*
X97782500Y-110216000D02*
X95641500Y-110216000D01*
G75*
G02*
X95461000Y-110035500I0J180500D01*
G01*
X95461000Y-109674500D01*
G75*
G02*
X95641500Y-109494000I180500J0D01*
G01*
X97782500Y-109494000D01*
G75*
G02*
X97963000Y-109674500I0J-180500D01*
G01*
X97963000Y-110035500D01*
G75*
G02*
X97782500Y-110216000I-180500J0D01*
G01*
G37*
G36*
G01*
X97782500Y-108946000D02*
X95641500Y-108946000D01*
G75*
G02*
X95461000Y-108765500I0J180500D01*
G01*
X95461000Y-108404500D01*
G75*
G02*
X95641500Y-108224000I180500J0D01*
G01*
X97782500Y-108224000D01*
G75*
G02*
X97963000Y-108404500I0J-180500D01*
G01*
X97963000Y-108765500D01*
G75*
G02*
X97782500Y-108946000I-180500J0D01*
G01*
G37*
%TD*%
%TO.C,U3*%
G36*
G01*
X71500000Y-98460000D02*
X70740000Y-98460000D01*
G75*
G02*
X70690000Y-98410000I0J50000D01*
G01*
X70690000Y-96110000D01*
G75*
G02*
X70740000Y-96060000I50000J0D01*
G01*
X71500000Y-96060000D01*
G75*
G02*
X71550000Y-96110000I0J-50000D01*
G01*
X71550000Y-98410000D01*
G75*
G02*
X71500000Y-98460000I-50000J0D01*
G01*
G37*
G36*
G01*
X72770000Y-98460000D02*
X72010000Y-98460000D01*
G75*
G02*
X71960000Y-98410000I0J50000D01*
G01*
X71960000Y-96110000D01*
G75*
G02*
X72010000Y-96060000I50000J0D01*
G01*
X72770000Y-96060000D01*
G75*
G02*
X72820000Y-96110000I0J-50000D01*
G01*
X72820000Y-98410000D01*
G75*
G02*
X72770000Y-98460000I-50000J0D01*
G01*
G37*
G36*
G01*
X74040000Y-98460000D02*
X73280000Y-98460000D01*
G75*
G02*
X73230000Y-98410000I0J50000D01*
G01*
X73230000Y-96110000D01*
G75*
G02*
X73280000Y-96060000I50000J0D01*
G01*
X74040000Y-96060000D01*
G75*
G02*
X74090000Y-96110000I0J-50000D01*
G01*
X74090000Y-98410000D01*
G75*
G02*
X74040000Y-98460000I-50000J0D01*
G01*
G37*
G36*
G01*
X75310000Y-98460000D02*
X74550000Y-98460000D01*
G75*
G02*
X74500000Y-98410000I0J50000D01*
G01*
X74500000Y-96110000D01*
G75*
G02*
X74550000Y-96060000I50000J0D01*
G01*
X75310000Y-96060000D01*
G75*
G02*
X75360000Y-96110000I0J-50000D01*
G01*
X75360000Y-98410000D01*
G75*
G02*
X75310000Y-98460000I-50000J0D01*
G01*
G37*
G36*
G01*
X76580000Y-98460000D02*
X75820000Y-98460000D01*
G75*
G02*
X75770000Y-98410000I0J50000D01*
G01*
X75770000Y-96110000D01*
G75*
G02*
X75820000Y-96060000I50000J0D01*
G01*
X76580000Y-96060000D01*
G75*
G02*
X76630000Y-96110000I0J-50000D01*
G01*
X76630000Y-98410000D01*
G75*
G02*
X76580000Y-98460000I-50000J0D01*
G01*
G37*
G36*
G01*
X77850000Y-98460000D02*
X77090000Y-98460000D01*
G75*
G02*
X77040000Y-98410000I0J50000D01*
G01*
X77040000Y-96110000D01*
G75*
G02*
X77090000Y-96060000I50000J0D01*
G01*
X77850000Y-96060000D01*
G75*
G02*
X77900000Y-96110000I0J-50000D01*
G01*
X77900000Y-98410000D01*
G75*
G02*
X77850000Y-98460000I-50000J0D01*
G01*
G37*
G36*
G01*
X79120000Y-98460000D02*
X78360000Y-98460000D01*
G75*
G02*
X78310000Y-98410000I0J50000D01*
G01*
X78310000Y-96110000D01*
G75*
G02*
X78360000Y-96060000I50000J0D01*
G01*
X79120000Y-96060000D01*
G75*
G02*
X79170000Y-96110000I0J-50000D01*
G01*
X79170000Y-98410000D01*
G75*
G02*
X79120000Y-98460000I-50000J0D01*
G01*
G37*
G36*
G01*
X80390000Y-98460000D02*
X79630000Y-98460000D01*
G75*
G02*
X79580000Y-98410000I0J50000D01*
G01*
X79580000Y-96110000D01*
G75*
G02*
X79630000Y-96060000I50000J0D01*
G01*
X80390000Y-96060000D01*
G75*
G02*
X80440000Y-96110000I0J-50000D01*
G01*
X80440000Y-98410000D01*
G75*
G02*
X80390000Y-98460000I-50000J0D01*
G01*
G37*
G36*
G01*
X81660000Y-98460000D02*
X80900000Y-98460000D01*
G75*
G02*
X80850000Y-98410000I0J50000D01*
G01*
X80850000Y-96110000D01*
G75*
G02*
X80900000Y-96060000I50000J0D01*
G01*
X81660000Y-96060000D01*
G75*
G02*
X81710000Y-96110000I0J-50000D01*
G01*
X81710000Y-98410000D01*
G75*
G02*
X81660000Y-98460000I-50000J0D01*
G01*
G37*
G36*
G01*
X82930000Y-98460000D02*
X82170000Y-98460000D01*
G75*
G02*
X82120000Y-98410000I0J50000D01*
G01*
X82120000Y-96110000D01*
G75*
G02*
X82170000Y-96060000I50000J0D01*
G01*
X82930000Y-96060000D01*
G75*
G02*
X82980000Y-96110000I0J-50000D01*
G01*
X82980000Y-98410000D01*
G75*
G02*
X82930000Y-98460000I-50000J0D01*
G01*
G37*
G36*
G01*
X84200000Y-98460000D02*
X83440000Y-98460000D01*
G75*
G02*
X83390000Y-98410000I0J50000D01*
G01*
X83390000Y-96110000D01*
G75*
G02*
X83440000Y-96060000I50000J0D01*
G01*
X84200000Y-96060000D01*
G75*
G02*
X84250000Y-96110000I0J-50000D01*
G01*
X84250000Y-98410000D01*
G75*
G02*
X84200000Y-98460000I-50000J0D01*
G01*
G37*
G36*
G01*
X86770000Y-99490000D02*
X84470000Y-99490000D01*
G75*
G02*
X84420000Y-99440000I0J50000D01*
G01*
X84420000Y-98680000D01*
G75*
G02*
X84470000Y-98630000I50000J0D01*
G01*
X86770000Y-98630000D01*
G75*
G02*
X86820000Y-98680000I0J-50000D01*
G01*
X86820000Y-99440000D01*
G75*
G02*
X86770000Y-99490000I-50000J0D01*
G01*
G37*
G36*
G01*
X86770000Y-100760000D02*
X84470000Y-100760000D01*
G75*
G02*
X84420000Y-100710000I0J50000D01*
G01*
X84420000Y-99950000D01*
G75*
G02*
X84470000Y-99900000I50000J0D01*
G01*
X86770000Y-99900000D01*
G75*
G02*
X86820000Y-99950000I0J-50000D01*
G01*
X86820000Y-100710000D01*
G75*
G02*
X86770000Y-100760000I-50000J0D01*
G01*
G37*
G36*
G01*
X86770000Y-102030000D02*
X84470000Y-102030000D01*
G75*
G02*
X84420000Y-101980000I0J50000D01*
G01*
X84420000Y-101220000D01*
G75*
G02*
X84470000Y-101170000I50000J0D01*
G01*
X86770000Y-101170000D01*
G75*
G02*
X86820000Y-101220000I0J-50000D01*
G01*
X86820000Y-101980000D01*
G75*
G02*
X86770000Y-102030000I-50000J0D01*
G01*
G37*
G36*
G01*
X86770000Y-103300000D02*
X84470000Y-103300000D01*
G75*
G02*
X84420000Y-103250000I0J50000D01*
G01*
X84420000Y-102490000D01*
G75*
G02*
X84470000Y-102440000I50000J0D01*
G01*
X86770000Y-102440000D01*
G75*
G02*
X86820000Y-102490000I0J-50000D01*
G01*
X86820000Y-103250000D01*
G75*
G02*
X86770000Y-103300000I-50000J0D01*
G01*
G37*
G36*
G01*
X86770000Y-104570000D02*
X84470000Y-104570000D01*
G75*
G02*
X84420000Y-104520000I0J50000D01*
G01*
X84420000Y-103760000D01*
G75*
G02*
X84470000Y-103710000I50000J0D01*
G01*
X86770000Y-103710000D01*
G75*
G02*
X86820000Y-103760000I0J-50000D01*
G01*
X86820000Y-104520000D01*
G75*
G02*
X86770000Y-104570000I-50000J0D01*
G01*
G37*
G36*
G01*
X86770000Y-105840000D02*
X84470000Y-105840000D01*
G75*
G02*
X84420000Y-105790000I0J50000D01*
G01*
X84420000Y-105030000D01*
G75*
G02*
X84470000Y-104980000I50000J0D01*
G01*
X86770000Y-104980000D01*
G75*
G02*
X86820000Y-105030000I0J-50000D01*
G01*
X86820000Y-105790000D01*
G75*
G02*
X86770000Y-105840000I-50000J0D01*
G01*
G37*
G36*
G01*
X86770000Y-107110000D02*
X84470000Y-107110000D01*
G75*
G02*
X84420000Y-107060000I0J50000D01*
G01*
X84420000Y-106300000D01*
G75*
G02*
X84470000Y-106250000I50000J0D01*
G01*
X86770000Y-106250000D01*
G75*
G02*
X86820000Y-106300000I0J-50000D01*
G01*
X86820000Y-107060000D01*
G75*
G02*
X86770000Y-107110000I-50000J0D01*
G01*
G37*
G36*
G01*
X86770000Y-108380000D02*
X84470000Y-108380000D01*
G75*
G02*
X84420000Y-108330000I0J50000D01*
G01*
X84420000Y-107570000D01*
G75*
G02*
X84470000Y-107520000I50000J0D01*
G01*
X86770000Y-107520000D01*
G75*
G02*
X86820000Y-107570000I0J-50000D01*
G01*
X86820000Y-108330000D01*
G75*
G02*
X86770000Y-108380000I-50000J0D01*
G01*
G37*
G36*
G01*
X86770000Y-109650000D02*
X84470000Y-109650000D01*
G75*
G02*
X84420000Y-109600000I0J50000D01*
G01*
X84420000Y-108840000D01*
G75*
G02*
X84470000Y-108790000I50000J0D01*
G01*
X86770000Y-108790000D01*
G75*
G02*
X86820000Y-108840000I0J-50000D01*
G01*
X86820000Y-109600000D01*
G75*
G02*
X86770000Y-109650000I-50000J0D01*
G01*
G37*
G36*
G01*
X86770000Y-110920000D02*
X84470000Y-110920000D01*
G75*
G02*
X84420000Y-110870000I0J50000D01*
G01*
X84420000Y-110110000D01*
G75*
G02*
X84470000Y-110060000I50000J0D01*
G01*
X86770000Y-110060000D01*
G75*
G02*
X86820000Y-110110000I0J-50000D01*
G01*
X86820000Y-110870000D01*
G75*
G02*
X86770000Y-110920000I-50000J0D01*
G01*
G37*
G36*
G01*
X86770000Y-112190000D02*
X84470000Y-112190000D01*
G75*
G02*
X84420000Y-112140000I0J50000D01*
G01*
X84420000Y-111380000D01*
G75*
G02*
X84470000Y-111330000I50000J0D01*
G01*
X86770000Y-111330000D01*
G75*
G02*
X86820000Y-111380000I0J-50000D01*
G01*
X86820000Y-112140000D01*
G75*
G02*
X86770000Y-112190000I-50000J0D01*
G01*
G37*
G36*
G01*
X84200000Y-114760000D02*
X83440000Y-114760000D01*
G75*
G02*
X83390000Y-114710000I0J50000D01*
G01*
X83390000Y-112410000D01*
G75*
G02*
X83440000Y-112360000I50000J0D01*
G01*
X84200000Y-112360000D01*
G75*
G02*
X84250000Y-112410000I0J-50000D01*
G01*
X84250000Y-114710000D01*
G75*
G02*
X84200000Y-114760000I-50000J0D01*
G01*
G37*
G36*
G01*
X82930000Y-114760000D02*
X82170000Y-114760000D01*
G75*
G02*
X82120000Y-114710000I0J50000D01*
G01*
X82120000Y-112410000D01*
G75*
G02*
X82170000Y-112360000I50000J0D01*
G01*
X82930000Y-112360000D01*
G75*
G02*
X82980000Y-112410000I0J-50000D01*
G01*
X82980000Y-114710000D01*
G75*
G02*
X82930000Y-114760000I-50000J0D01*
G01*
G37*
G36*
G01*
X81660000Y-114760000D02*
X80900000Y-114760000D01*
G75*
G02*
X80850000Y-114710000I0J50000D01*
G01*
X80850000Y-112410000D01*
G75*
G02*
X80900000Y-112360000I50000J0D01*
G01*
X81660000Y-112360000D01*
G75*
G02*
X81710000Y-112410000I0J-50000D01*
G01*
X81710000Y-114710000D01*
G75*
G02*
X81660000Y-114760000I-50000J0D01*
G01*
G37*
G36*
G01*
X80390000Y-114760000D02*
X79630000Y-114760000D01*
G75*
G02*
X79580000Y-114710000I0J50000D01*
G01*
X79580000Y-112410000D01*
G75*
G02*
X79630000Y-112360000I50000J0D01*
G01*
X80390000Y-112360000D01*
G75*
G02*
X80440000Y-112410000I0J-50000D01*
G01*
X80440000Y-114710000D01*
G75*
G02*
X80390000Y-114760000I-50000J0D01*
G01*
G37*
G36*
G01*
X79120000Y-114760000D02*
X78360000Y-114760000D01*
G75*
G02*
X78310000Y-114710000I0J50000D01*
G01*
X78310000Y-112410000D01*
G75*
G02*
X78360000Y-112360000I50000J0D01*
G01*
X79120000Y-112360000D01*
G75*
G02*
X79170000Y-112410000I0J-50000D01*
G01*
X79170000Y-114710000D01*
G75*
G02*
X79120000Y-114760000I-50000J0D01*
G01*
G37*
G36*
G01*
X77850000Y-114760000D02*
X77090000Y-114760000D01*
G75*
G02*
X77040000Y-114710000I0J50000D01*
G01*
X77040000Y-112410000D01*
G75*
G02*
X77090000Y-112360000I50000J0D01*
G01*
X77850000Y-112360000D01*
G75*
G02*
X77900000Y-112410000I0J-50000D01*
G01*
X77900000Y-114710000D01*
G75*
G02*
X77850000Y-114760000I-50000J0D01*
G01*
G37*
G36*
G01*
X76580000Y-114760000D02*
X75820000Y-114760000D01*
G75*
G02*
X75770000Y-114710000I0J50000D01*
G01*
X75770000Y-112410000D01*
G75*
G02*
X75820000Y-112360000I50000J0D01*
G01*
X76580000Y-112360000D01*
G75*
G02*
X76630000Y-112410000I0J-50000D01*
G01*
X76630000Y-114710000D01*
G75*
G02*
X76580000Y-114760000I-50000J0D01*
G01*
G37*
G36*
G01*
X75310000Y-114760000D02*
X74550000Y-114760000D01*
G75*
G02*
X74500000Y-114710000I0J50000D01*
G01*
X74500000Y-112410000D01*
G75*
G02*
X74550000Y-112360000I50000J0D01*
G01*
X75310000Y-112360000D01*
G75*
G02*
X75360000Y-112410000I0J-50000D01*
G01*
X75360000Y-114710000D01*
G75*
G02*
X75310000Y-114760000I-50000J0D01*
G01*
G37*
G36*
G01*
X74040000Y-114760000D02*
X73280000Y-114760000D01*
G75*
G02*
X73230000Y-114710000I0J50000D01*
G01*
X73230000Y-112410000D01*
G75*
G02*
X73280000Y-112360000I50000J0D01*
G01*
X74040000Y-112360000D01*
G75*
G02*
X74090000Y-112410000I0J-50000D01*
G01*
X74090000Y-114710000D01*
G75*
G02*
X74040000Y-114760000I-50000J0D01*
G01*
G37*
G36*
G01*
X72770000Y-114760000D02*
X72010000Y-114760000D01*
G75*
G02*
X71960000Y-114710000I0J50000D01*
G01*
X71960000Y-112410000D01*
G75*
G02*
X72010000Y-112360000I50000J0D01*
G01*
X72770000Y-112360000D01*
G75*
G02*
X72820000Y-112410000I0J-50000D01*
G01*
X72820000Y-114710000D01*
G75*
G02*
X72770000Y-114760000I-50000J0D01*
G01*
G37*
G36*
G01*
X71500000Y-114760000D02*
X70740000Y-114760000D01*
G75*
G02*
X70690000Y-114710000I0J50000D01*
G01*
X70690000Y-112410000D01*
G75*
G02*
X70740000Y-112360000I50000J0D01*
G01*
X71500000Y-112360000D01*
G75*
G02*
X71550000Y-112410000I0J-50000D01*
G01*
X71550000Y-114710000D01*
G75*
G02*
X71500000Y-114760000I-50000J0D01*
G01*
G37*
G36*
G01*
X70470000Y-99490000D02*
X68170000Y-99490000D01*
G75*
G02*
X68120000Y-99440000I0J50000D01*
G01*
X68120000Y-98680000D01*
G75*
G02*
X68170000Y-98630000I50000J0D01*
G01*
X70470000Y-98630000D01*
G75*
G02*
X70520000Y-98680000I0J-50000D01*
G01*
X70520000Y-99440000D01*
G75*
G02*
X70470000Y-99490000I-50000J0D01*
G01*
G37*
G36*
G01*
X70470000Y-100760000D02*
X68170000Y-100760000D01*
G75*
G02*
X68120000Y-100710000I0J50000D01*
G01*
X68120000Y-99950000D01*
G75*
G02*
X68170000Y-99900000I50000J0D01*
G01*
X70470000Y-99900000D01*
G75*
G02*
X70520000Y-99950000I0J-50000D01*
G01*
X70520000Y-100710000D01*
G75*
G02*
X70470000Y-100760000I-50000J0D01*
G01*
G37*
G36*
G01*
X70470000Y-102030000D02*
X68170000Y-102030000D01*
G75*
G02*
X68120000Y-101980000I0J50000D01*
G01*
X68120000Y-101220000D01*
G75*
G02*
X68170000Y-101170000I50000J0D01*
G01*
X70470000Y-101170000D01*
G75*
G02*
X70520000Y-101220000I0J-50000D01*
G01*
X70520000Y-101980000D01*
G75*
G02*
X70470000Y-102030000I-50000J0D01*
G01*
G37*
G36*
G01*
X70470000Y-103300000D02*
X68170000Y-103300000D01*
G75*
G02*
X68120000Y-103250000I0J50000D01*
G01*
X68120000Y-102490000D01*
G75*
G02*
X68170000Y-102440000I50000J0D01*
G01*
X70470000Y-102440000D01*
G75*
G02*
X70520000Y-102490000I0J-50000D01*
G01*
X70520000Y-103250000D01*
G75*
G02*
X70470000Y-103300000I-50000J0D01*
G01*
G37*
G36*
G01*
X70470000Y-104570000D02*
X68170000Y-104570000D01*
G75*
G02*
X68120000Y-104520000I0J50000D01*
G01*
X68120000Y-103760000D01*
G75*
G02*
X68170000Y-103710000I50000J0D01*
G01*
X70470000Y-103710000D01*
G75*
G02*
X70520000Y-103760000I0J-50000D01*
G01*
X70520000Y-104520000D01*
G75*
G02*
X70470000Y-104570000I-50000J0D01*
G01*
G37*
G36*
G01*
X70470000Y-112190000D02*
X68170000Y-112190000D01*
G75*
G02*
X68120000Y-112140000I0J50000D01*
G01*
X68120000Y-111380000D01*
G75*
G02*
X68170000Y-111330000I50000J0D01*
G01*
X70470000Y-111330000D01*
G75*
G02*
X70520000Y-111380000I0J-50000D01*
G01*
X70520000Y-112140000D01*
G75*
G02*
X70470000Y-112190000I-50000J0D01*
G01*
G37*
G36*
G01*
X70470000Y-110920000D02*
X68170000Y-110920000D01*
G75*
G02*
X68120000Y-110870000I0J50000D01*
G01*
X68120000Y-110110000D01*
G75*
G02*
X68170000Y-110060000I50000J0D01*
G01*
X70470000Y-110060000D01*
G75*
G02*
X70520000Y-110110000I0J-50000D01*
G01*
X70520000Y-110870000D01*
G75*
G02*
X70470000Y-110920000I-50000J0D01*
G01*
G37*
G36*
G01*
X70470000Y-109650000D02*
X68170000Y-109650000D01*
G75*
G02*
X68120000Y-109600000I0J50000D01*
G01*
X68120000Y-108840000D01*
G75*
G02*
X68170000Y-108790000I50000J0D01*
G01*
X70470000Y-108790000D01*
G75*
G02*
X70520000Y-108840000I0J-50000D01*
G01*
X70520000Y-109600000D01*
G75*
G02*
X70470000Y-109650000I-50000J0D01*
G01*
G37*
G36*
G01*
X70470000Y-108380000D02*
X68170000Y-108380000D01*
G75*
G02*
X68120000Y-108330000I0J50000D01*
G01*
X68120000Y-107570000D01*
G75*
G02*
X68170000Y-107520000I50000J0D01*
G01*
X70470000Y-107520000D01*
G75*
G02*
X70520000Y-107570000I0J-50000D01*
G01*
X70520000Y-108330000D01*
G75*
G02*
X70470000Y-108380000I-50000J0D01*
G01*
G37*
G36*
G01*
X70470000Y-107110000D02*
X68170000Y-107110000D01*
G75*
G02*
X68120000Y-107060000I0J50000D01*
G01*
X68120000Y-106300000D01*
G75*
G02*
X68170000Y-106250000I50000J0D01*
G01*
X70470000Y-106250000D01*
G75*
G02*
X70520000Y-106300000I0J-50000D01*
G01*
X70520000Y-107060000D01*
G75*
G02*
X70470000Y-107110000I-50000J0D01*
G01*
G37*
G36*
G01*
X70470000Y-105840000D02*
X68170000Y-105840000D01*
G75*
G02*
X68120000Y-105790000I0J50000D01*
G01*
X68120000Y-105030000D01*
G75*
G02*
X68170000Y-104980000I50000J0D01*
G01*
X70470000Y-104980000D01*
G75*
G02*
X70520000Y-105030000I0J-50000D01*
G01*
X70520000Y-105790000D01*
G75*
G02*
X70470000Y-105840000I-50000J0D01*
G01*
G37*
%TD*%
D13*
%TO.C,SW1*%
X64135000Y-72050000D03*
X64135000Y-80350000D03*
D14*
X64135000Y-74200000D03*
X64135000Y-76200000D03*
G36*
G01*
X65385000Y-79051000D02*
X62885000Y-79051000D01*
G75*
G02*
X62834000Y-79000000I0J51000D01*
G01*
X62834000Y-77400000D01*
G75*
G02*
X62885000Y-77349000I51000J0D01*
G01*
X65385000Y-77349000D01*
G75*
G02*
X65436000Y-77400000I0J-51000D01*
G01*
X65436000Y-79000000D01*
G75*
G02*
X65385000Y-79051000I-51000J0D01*
G01*
G37*
%TD*%
%TO.C,R13*%
G36*
G01*
X75330000Y-137610001D02*
X75330000Y-136709999D01*
G75*
G02*
X75579999Y-136460000I249999J0D01*
G01*
X76105001Y-136460000D01*
G75*
G02*
X76355000Y-136709999I0J-249999D01*
G01*
X76355000Y-137610001D01*
G75*
G02*
X76105001Y-137860000I-249999J0D01*
G01*
X75579999Y-137860000D01*
G75*
G02*
X75330000Y-137610001I0J249999D01*
G01*
G37*
G36*
G01*
X73505000Y-137610001D02*
X73505000Y-136709999D01*
G75*
G02*
X73754999Y-136460000I249999J0D01*
G01*
X74280001Y-136460000D01*
G75*
G02*
X74530000Y-136709999I0J-249999D01*
G01*
X74530000Y-137610001D01*
G75*
G02*
X74280001Y-137860000I-249999J0D01*
G01*
X73754999Y-137860000D01*
G75*
G02*
X73505000Y-137610001I0J249999D01*
G01*
G37*
%TD*%
%TO.C,R12*%
G36*
G01*
X75330000Y-127450001D02*
X75330000Y-126549999D01*
G75*
G02*
X75579999Y-126300000I249999J0D01*
G01*
X76105001Y-126300000D01*
G75*
G02*
X76355000Y-126549999I0J-249999D01*
G01*
X76355000Y-127450001D01*
G75*
G02*
X76105001Y-127700000I-249999J0D01*
G01*
X75579999Y-127700000D01*
G75*
G02*
X75330000Y-127450001I0J249999D01*
G01*
G37*
G36*
G01*
X73505000Y-127450001D02*
X73505000Y-126549999D01*
G75*
G02*
X73754999Y-126300000I249999J0D01*
G01*
X74280001Y-126300000D01*
G75*
G02*
X74530000Y-126549999I0J-249999D01*
G01*
X74530000Y-127450001D01*
G75*
G02*
X74280001Y-127700000I-249999J0D01*
G01*
X73754999Y-127700000D01*
G75*
G02*
X73505000Y-127450001I0J249999D01*
G01*
G37*
%TD*%
%TO.C,R11*%
G36*
G01*
X75330000Y-132530001D02*
X75330000Y-131629999D01*
G75*
G02*
X75579999Y-131380000I249999J0D01*
G01*
X76105001Y-131380000D01*
G75*
G02*
X76355000Y-131629999I0J-249999D01*
G01*
X76355000Y-132530001D01*
G75*
G02*
X76105001Y-132780000I-249999J0D01*
G01*
X75579999Y-132780000D01*
G75*
G02*
X75330000Y-132530001I0J249999D01*
G01*
G37*
G36*
G01*
X73505000Y-132530001D02*
X73505000Y-131629999D01*
G75*
G02*
X73754999Y-131380000I249999J0D01*
G01*
X74280001Y-131380000D01*
G75*
G02*
X74530000Y-131629999I0J-249999D01*
G01*
X74530000Y-132530001D01*
G75*
G02*
X74280001Y-132780000I-249999J0D01*
G01*
X73754999Y-132780000D01*
G75*
G02*
X73505000Y-132530001I0J249999D01*
G01*
G37*
%TD*%
%TO.C,R2*%
G36*
G01*
X70034999Y-85490000D02*
X70935001Y-85490000D01*
G75*
G02*
X71185000Y-85739999I0J-249999D01*
G01*
X71185000Y-86265001D01*
G75*
G02*
X70935001Y-86515000I-249999J0D01*
G01*
X70034999Y-86515000D01*
G75*
G02*
X69785000Y-86265001I0J249999D01*
G01*
X69785000Y-85739999D01*
G75*
G02*
X70034999Y-85490000I249999J0D01*
G01*
G37*
G36*
G01*
X70034999Y-83665000D02*
X70935001Y-83665000D01*
G75*
G02*
X71185000Y-83914999I0J-249999D01*
G01*
X71185000Y-84440001D01*
G75*
G02*
X70935001Y-84690000I-249999J0D01*
G01*
X70034999Y-84690000D01*
G75*
G02*
X69785000Y-84440001I0J249999D01*
G01*
X69785000Y-83914999D01*
G75*
G02*
X70034999Y-83665000I249999J0D01*
G01*
G37*
%TD*%
%TO.C,R1*%
G36*
G01*
X70034999Y-76600000D02*
X70935001Y-76600000D01*
G75*
G02*
X71185000Y-76849999I0J-249999D01*
G01*
X71185000Y-77375001D01*
G75*
G02*
X70935001Y-77625000I-249999J0D01*
G01*
X70034999Y-77625000D01*
G75*
G02*
X69785000Y-77375001I0J249999D01*
G01*
X69785000Y-76849999D01*
G75*
G02*
X70034999Y-76600000I249999J0D01*
G01*
G37*
G36*
G01*
X70034999Y-74775000D02*
X70935001Y-74775000D01*
G75*
G02*
X71185000Y-75024999I0J-249999D01*
G01*
X71185000Y-75550001D01*
G75*
G02*
X70935001Y-75800000I-249999J0D01*
G01*
X70034999Y-75800000D01*
G75*
G02*
X69785000Y-75550001I0J249999D01*
G01*
X69785000Y-75024999D01*
G75*
G02*
X70034999Y-74775000I249999J0D01*
G01*
G37*
%TD*%
D15*
%TO.C,J3*%
X69850000Y-137160000D03*
D16*
X67310000Y-137160000D03*
X69850000Y-134620000D03*
X67310000Y-134620000D03*
X69850000Y-132080000D03*
X67310000Y-132080000D03*
X69850000Y-129540000D03*
X67310000Y-129540000D03*
X69850000Y-127000000D03*
X67310000Y-127000000D03*
%TD*%
%TO.C,J2*%
G36*
G01*
X99799200Y-44340000D02*
X99799200Y-40840000D01*
G75*
G02*
X99850000Y-40789200I50800J0D01*
G01*
X105350000Y-40789200D01*
G75*
G02*
X105400800Y-40840000I0J-50800D01*
G01*
X105400800Y-44340000D01*
G75*
G02*
X105350000Y-44390800I-50800J0D01*
G01*
X99850000Y-44390800D01*
G75*
G02*
X99799200Y-44340000I0J50800D01*
G01*
G37*
G36*
G01*
X73799200Y-44340000D02*
X73799200Y-40840000D01*
G75*
G02*
X73850000Y-40789200I50800J0D01*
G01*
X79350000Y-40789200D01*
G75*
G02*
X79400800Y-40840000I0J-50800D01*
G01*
X79400800Y-44340000D01*
G75*
G02*
X79350000Y-44390800I-50800J0D01*
G01*
X73850000Y-44390800D01*
G75*
G02*
X73799200Y-44340000I0J50800D01*
G01*
G37*
G36*
G01*
X112350000Y-61289200D02*
X113350000Y-61289200D01*
G75*
G02*
X113400800Y-61340000I0J-50800D01*
G01*
X113400800Y-66340000D01*
G75*
G02*
X113350000Y-66390800I-50800J0D01*
G01*
X112350000Y-66390800D01*
G75*
G02*
X112299200Y-66340000I0J50800D01*
G01*
X112299200Y-61340000D01*
G75*
G02*
X112350000Y-61289200I50800J0D01*
G01*
G37*
G36*
G01*
X110850000Y-61289200D02*
X111850000Y-61289200D01*
G75*
G02*
X111900800Y-61340000I0J-50800D01*
G01*
X111900800Y-66340000D01*
G75*
G02*
X111850000Y-66390800I-50800J0D01*
G01*
X110850000Y-66390800D01*
G75*
G02*
X110799200Y-66340000I0J50800D01*
G01*
X110799200Y-61340000D01*
G75*
G02*
X110850000Y-61289200I50800J0D01*
G01*
G37*
G36*
G01*
X109350000Y-61289200D02*
X110350000Y-61289200D01*
G75*
G02*
X110400800Y-61340000I0J-50800D01*
G01*
X110400800Y-66340000D01*
G75*
G02*
X110350000Y-66390800I-50800J0D01*
G01*
X109350000Y-66390800D01*
G75*
G02*
X109299200Y-66340000I0J50800D01*
G01*
X109299200Y-61340000D01*
G75*
G02*
X109350000Y-61289200I50800J0D01*
G01*
G37*
G36*
G01*
X107850000Y-61289200D02*
X108850000Y-61289200D01*
G75*
G02*
X108900800Y-61340000I0J-50800D01*
G01*
X108900800Y-66340000D01*
G75*
G02*
X108850000Y-66390800I-50800J0D01*
G01*
X107850000Y-66390800D01*
G75*
G02*
X107799200Y-66340000I0J50800D01*
G01*
X107799200Y-61340000D01*
G75*
G02*
X107850000Y-61289200I50800J0D01*
G01*
G37*
G36*
G01*
X106350000Y-61289200D02*
X107350000Y-61289200D01*
G75*
G02*
X107400800Y-61340000I0J-50800D01*
G01*
X107400800Y-66340000D01*
G75*
G02*
X107350000Y-66390800I-50800J0D01*
G01*
X106350000Y-66390800D01*
G75*
G02*
X106299200Y-66340000I0J50800D01*
G01*
X106299200Y-61340000D01*
G75*
G02*
X106350000Y-61289200I50800J0D01*
G01*
G37*
G36*
G01*
X104850000Y-61289200D02*
X105850000Y-61289200D01*
G75*
G02*
X105900800Y-61340000I0J-50800D01*
G01*
X105900800Y-66340000D01*
G75*
G02*
X105850000Y-66390800I-50800J0D01*
G01*
X104850000Y-66390800D01*
G75*
G02*
X104799200Y-66340000I0J50800D01*
G01*
X104799200Y-61340000D01*
G75*
G02*
X104850000Y-61289200I50800J0D01*
G01*
G37*
G36*
G01*
X103350000Y-61289200D02*
X104350000Y-61289200D01*
G75*
G02*
X104400800Y-61340000I0J-50800D01*
G01*
X104400800Y-66340000D01*
G75*
G02*
X104350000Y-66390800I-50800J0D01*
G01*
X103350000Y-66390800D01*
G75*
G02*
X103299200Y-66340000I0J50800D01*
G01*
X103299200Y-61340000D01*
G75*
G02*
X103350000Y-61289200I50800J0D01*
G01*
G37*
G36*
G01*
X101850000Y-61289200D02*
X102850000Y-61289200D01*
G75*
G02*
X102900800Y-61340000I0J-50800D01*
G01*
X102900800Y-66340000D01*
G75*
G02*
X102850000Y-66390800I-50800J0D01*
G01*
X101850000Y-66390800D01*
G75*
G02*
X101799200Y-66340000I0J50800D01*
G01*
X101799200Y-61340000D01*
G75*
G02*
X101850000Y-61289200I50800J0D01*
G01*
G37*
G36*
G01*
X100350000Y-61289200D02*
X101350000Y-61289200D01*
G75*
G02*
X101400800Y-61340000I0J-50800D01*
G01*
X101400800Y-66340000D01*
G75*
G02*
X101350000Y-66390800I-50800J0D01*
G01*
X100350000Y-66390800D01*
G75*
G02*
X100299200Y-66340000I0J50800D01*
G01*
X100299200Y-61340000D01*
G75*
G02*
X100350000Y-61289200I50800J0D01*
G01*
G37*
G36*
G01*
X98850000Y-61289200D02*
X99850000Y-61289200D01*
G75*
G02*
X99900800Y-61340000I0J-50800D01*
G01*
X99900800Y-66340000D01*
G75*
G02*
X99850000Y-66390800I-50800J0D01*
G01*
X98850000Y-66390800D01*
G75*
G02*
X98799200Y-66340000I0J50800D01*
G01*
X98799200Y-61340000D01*
G75*
G02*
X98850000Y-61289200I50800J0D01*
G01*
G37*
G36*
G01*
X97350000Y-61289200D02*
X98350000Y-61289200D01*
G75*
G02*
X98400800Y-61340000I0J-50800D01*
G01*
X98400800Y-66340000D01*
G75*
G02*
X98350000Y-66390800I-50800J0D01*
G01*
X97350000Y-66390800D01*
G75*
G02*
X97299200Y-66340000I0J50800D01*
G01*
X97299200Y-61340000D01*
G75*
G02*
X97350000Y-61289200I50800J0D01*
G01*
G37*
G36*
G01*
X95850000Y-61289200D02*
X96850000Y-61289200D01*
G75*
G02*
X96900800Y-61340000I0J-50800D01*
G01*
X96900800Y-66340000D01*
G75*
G02*
X96850000Y-66390800I-50800J0D01*
G01*
X95850000Y-66390800D01*
G75*
G02*
X95799200Y-66340000I0J50800D01*
G01*
X95799200Y-61340000D01*
G75*
G02*
X95850000Y-61289200I50800J0D01*
G01*
G37*
G36*
G01*
X94350000Y-61289200D02*
X95350000Y-61289200D01*
G75*
G02*
X95400800Y-61340000I0J-50800D01*
G01*
X95400800Y-66340000D01*
G75*
G02*
X95350000Y-66390800I-50800J0D01*
G01*
X94350000Y-66390800D01*
G75*
G02*
X94299200Y-66340000I0J50800D01*
G01*
X94299200Y-61340000D01*
G75*
G02*
X94350000Y-61289200I50800J0D01*
G01*
G37*
G36*
G01*
X92850000Y-61289200D02*
X93850000Y-61289200D01*
G75*
G02*
X93900800Y-61340000I0J-50800D01*
G01*
X93900800Y-66340000D01*
G75*
G02*
X93850000Y-66390800I-50800J0D01*
G01*
X92850000Y-66390800D01*
G75*
G02*
X92799200Y-66340000I0J50800D01*
G01*
X92799200Y-61340000D01*
G75*
G02*
X92850000Y-61289200I50800J0D01*
G01*
G37*
G36*
G01*
X91350000Y-61289200D02*
X92350000Y-61289200D01*
G75*
G02*
X92400800Y-61340000I0J-50800D01*
G01*
X92400800Y-66340000D01*
G75*
G02*
X92350000Y-66390800I-50800J0D01*
G01*
X91350000Y-66390800D01*
G75*
G02*
X91299200Y-66340000I0J50800D01*
G01*
X91299200Y-61340000D01*
G75*
G02*
X91350000Y-61289200I50800J0D01*
G01*
G37*
G36*
G01*
X89850000Y-61289200D02*
X90850000Y-61289200D01*
G75*
G02*
X90900800Y-61340000I0J-50800D01*
G01*
X90900800Y-66340000D01*
G75*
G02*
X90850000Y-66390800I-50800J0D01*
G01*
X89850000Y-66390800D01*
G75*
G02*
X89799200Y-66340000I0J50800D01*
G01*
X89799200Y-61340000D01*
G75*
G02*
X89850000Y-61289200I50800J0D01*
G01*
G37*
G36*
G01*
X88350000Y-61289200D02*
X89350000Y-61289200D01*
G75*
G02*
X89400800Y-61340000I0J-50800D01*
G01*
X89400800Y-66340000D01*
G75*
G02*
X89350000Y-66390800I-50800J0D01*
G01*
X88350000Y-66390800D01*
G75*
G02*
X88299200Y-66340000I0J50800D01*
G01*
X88299200Y-61340000D01*
G75*
G02*
X88350000Y-61289200I50800J0D01*
G01*
G37*
G36*
G01*
X86850000Y-61289200D02*
X87850000Y-61289200D01*
G75*
G02*
X87900800Y-61340000I0J-50800D01*
G01*
X87900800Y-66340000D01*
G75*
G02*
X87850000Y-66390800I-50800J0D01*
G01*
X86850000Y-66390800D01*
G75*
G02*
X86799200Y-66340000I0J50800D01*
G01*
X86799200Y-61340000D01*
G75*
G02*
X86850000Y-61289200I50800J0D01*
G01*
G37*
G36*
G01*
X85350000Y-61289200D02*
X86350000Y-61289200D01*
G75*
G02*
X86400800Y-61340000I0J-50800D01*
G01*
X86400800Y-66340000D01*
G75*
G02*
X86350000Y-66390800I-50800J0D01*
G01*
X85350000Y-66390800D01*
G75*
G02*
X85299200Y-66340000I0J50800D01*
G01*
X85299200Y-61340000D01*
G75*
G02*
X85350000Y-61289200I50800J0D01*
G01*
G37*
G36*
G01*
X83850000Y-61289200D02*
X84850000Y-61289200D01*
G75*
G02*
X84900800Y-61340000I0J-50800D01*
G01*
X84900800Y-66340000D01*
G75*
G02*
X84850000Y-66390800I-50800J0D01*
G01*
X83850000Y-66390800D01*
G75*
G02*
X83799200Y-66340000I0J50800D01*
G01*
X83799200Y-61340000D01*
G75*
G02*
X83850000Y-61289200I50800J0D01*
G01*
G37*
G36*
G01*
X82350000Y-61289200D02*
X83350000Y-61289200D01*
G75*
G02*
X83400800Y-61340000I0J-50800D01*
G01*
X83400800Y-66340000D01*
G75*
G02*
X83350000Y-66390800I-50800J0D01*
G01*
X82350000Y-66390800D01*
G75*
G02*
X82299200Y-66340000I0J50800D01*
G01*
X82299200Y-61340000D01*
G75*
G02*
X82350000Y-61289200I50800J0D01*
G01*
G37*
G36*
G01*
X80850000Y-61289200D02*
X81850000Y-61289200D01*
G75*
G02*
X81900800Y-61340000I0J-50800D01*
G01*
X81900800Y-66340000D01*
G75*
G02*
X81850000Y-66390800I-50800J0D01*
G01*
X80850000Y-66390800D01*
G75*
G02*
X80799200Y-66340000I0J50800D01*
G01*
X80799200Y-61340000D01*
G75*
G02*
X80850000Y-61289200I50800J0D01*
G01*
G37*
G36*
G01*
X79350000Y-61289200D02*
X80350000Y-61289200D01*
G75*
G02*
X80400800Y-61340000I0J-50800D01*
G01*
X80400800Y-66340000D01*
G75*
G02*
X80350000Y-66390800I-50800J0D01*
G01*
X79350000Y-66390800D01*
G75*
G02*
X79299200Y-66340000I0J50800D01*
G01*
X79299200Y-61340000D01*
G75*
G02*
X79350000Y-61289200I50800J0D01*
G01*
G37*
G36*
G01*
X77850000Y-61289200D02*
X78850000Y-61289200D01*
G75*
G02*
X78900800Y-61340000I0J-50800D01*
G01*
X78900800Y-66340000D01*
G75*
G02*
X78850000Y-66390800I-50800J0D01*
G01*
X77850000Y-66390800D01*
G75*
G02*
X77799200Y-66340000I0J50800D01*
G01*
X77799200Y-61340000D01*
G75*
G02*
X77850000Y-61289200I50800J0D01*
G01*
G37*
G36*
G01*
X76350000Y-61289200D02*
X77350000Y-61289200D01*
G75*
G02*
X77400800Y-61340000I0J-50800D01*
G01*
X77400800Y-66340000D01*
G75*
G02*
X77350000Y-66390800I-50800J0D01*
G01*
X76350000Y-66390800D01*
G75*
G02*
X76299200Y-66340000I0J50800D01*
G01*
X76299200Y-61340000D01*
G75*
G02*
X76350000Y-61289200I50800J0D01*
G01*
G37*
G36*
G01*
X74850000Y-61289200D02*
X75850000Y-61289200D01*
G75*
G02*
X75900800Y-61340000I0J-50800D01*
G01*
X75900800Y-66340000D01*
G75*
G02*
X75850000Y-66390800I-50800J0D01*
G01*
X74850000Y-66390800D01*
G75*
G02*
X74799200Y-66340000I0J50800D01*
G01*
X74799200Y-61340000D01*
G75*
G02*
X74850000Y-61289200I50800J0D01*
G01*
G37*
G36*
G01*
X73350000Y-61289200D02*
X74350000Y-61289200D01*
G75*
G02*
X74400800Y-61340000I0J-50800D01*
G01*
X74400800Y-66340000D01*
G75*
G02*
X74350000Y-66390800I-50800J0D01*
G01*
X73350000Y-66390800D01*
G75*
G02*
X73299200Y-66340000I0J50800D01*
G01*
X73299200Y-61340000D01*
G75*
G02*
X73350000Y-61289200I50800J0D01*
G01*
G37*
G36*
G01*
X71850000Y-61289200D02*
X72850000Y-61289200D01*
G75*
G02*
X72900800Y-61340000I0J-50800D01*
G01*
X72900800Y-66340000D01*
G75*
G02*
X72850000Y-66390800I-50800J0D01*
G01*
X71850000Y-66390800D01*
G75*
G02*
X71799200Y-66340000I0J50800D01*
G01*
X71799200Y-61340000D01*
G75*
G02*
X71850000Y-61289200I50800J0D01*
G01*
G37*
G36*
G01*
X70350000Y-61289200D02*
X71350000Y-61289200D01*
G75*
G02*
X71400800Y-61340000I0J-50800D01*
G01*
X71400800Y-66340000D01*
G75*
G02*
X71350000Y-66390800I-50800J0D01*
G01*
X70350000Y-66390800D01*
G75*
G02*
X70299200Y-66340000I0J50800D01*
G01*
X70299200Y-61340000D01*
G75*
G02*
X70350000Y-61289200I50800J0D01*
G01*
G37*
G36*
G01*
X68850000Y-61289200D02*
X69850000Y-61289200D01*
G75*
G02*
X69900800Y-61340000I0J-50800D01*
G01*
X69900800Y-66340000D01*
G75*
G02*
X69850000Y-66390800I-50800J0D01*
G01*
X68850000Y-66390800D01*
G75*
G02*
X68799200Y-66340000I0J50800D01*
G01*
X68799200Y-61340000D01*
G75*
G02*
X68850000Y-61289200I50800J0D01*
G01*
G37*
G36*
G01*
X67350000Y-61289200D02*
X68350000Y-61289200D01*
G75*
G02*
X68400800Y-61340000I0J-50800D01*
G01*
X68400800Y-66340000D01*
G75*
G02*
X68350000Y-66390800I-50800J0D01*
G01*
X67350000Y-66390800D01*
G75*
G02*
X67299200Y-66340000I0J50800D01*
G01*
X67299200Y-61340000D01*
G75*
G02*
X67350000Y-61289200I50800J0D01*
G01*
G37*
G36*
G01*
X65850000Y-61289200D02*
X66850000Y-61289200D01*
G75*
G02*
X66900800Y-61340000I0J-50800D01*
G01*
X66900800Y-66340000D01*
G75*
G02*
X66850000Y-66390800I-50800J0D01*
G01*
X65850000Y-66390800D01*
G75*
G02*
X65799200Y-66340000I0J50800D01*
G01*
X65799200Y-61340000D01*
G75*
G02*
X65850000Y-61289200I50800J0D01*
G01*
G37*
D17*
X76600000Y-55340000D03*
X102600000Y-55340000D03*
%TD*%
%TO.C,C3*%
G36*
G01*
X77920000Y-121125000D02*
X77920000Y-120175000D01*
G75*
G02*
X78170000Y-119925000I250000J0D01*
G01*
X78670000Y-119925000D01*
G75*
G02*
X78920000Y-120175000I0J-250000D01*
G01*
X78920000Y-121125000D01*
G75*
G02*
X78670000Y-121375000I-250000J0D01*
G01*
X78170000Y-121375000D01*
G75*
G02*
X77920000Y-121125000I0J250000D01*
G01*
G37*
G36*
G01*
X76020000Y-121125000D02*
X76020000Y-120175000D01*
G75*
G02*
X76270000Y-119925000I250000J0D01*
G01*
X76770000Y-119925000D01*
G75*
G02*
X77020000Y-120175000I0J-250000D01*
G01*
X77020000Y-121125000D01*
G75*
G02*
X76770000Y-121375000I-250000J0D01*
G01*
X76270000Y-121375000D01*
G75*
G02*
X76020000Y-121125000I0J250000D01*
G01*
G37*
%TD*%
%TO.C,C2*%
G36*
G01*
X94165000Y-92235000D02*
X94165000Y-93185000D01*
G75*
G02*
X93915000Y-93435000I-250000J0D01*
G01*
X93415000Y-93435000D01*
G75*
G02*
X93165000Y-93185000I0J250000D01*
G01*
X93165000Y-92235000D01*
G75*
G02*
X93415000Y-91985000I250000J0D01*
G01*
X93915000Y-91985000D01*
G75*
G02*
X94165000Y-92235000I0J-250000D01*
G01*
G37*
G36*
G01*
X96065000Y-92235000D02*
X96065000Y-93185000D01*
G75*
G02*
X95815000Y-93435000I-250000J0D01*
G01*
X95315000Y-93435000D01*
G75*
G02*
X95065000Y-93185000I0J250000D01*
G01*
X95065000Y-92235000D01*
G75*
G02*
X95315000Y-91985000I250000J0D01*
G01*
X95815000Y-91985000D01*
G75*
G02*
X96065000Y-92235000I0J-250000D01*
G01*
G37*
%TD*%
%TO.C,C1*%
G36*
G01*
X94165000Y-120175000D02*
X94165000Y-121125000D01*
G75*
G02*
X93915000Y-121375000I-250000J0D01*
G01*
X93415000Y-121375000D01*
G75*
G02*
X93165000Y-121125000I0J250000D01*
G01*
X93165000Y-120175000D01*
G75*
G02*
X93415000Y-119925000I250000J0D01*
G01*
X93915000Y-119925000D01*
G75*
G02*
X94165000Y-120175000I0J-250000D01*
G01*
G37*
G36*
G01*
X96065000Y-120175000D02*
X96065000Y-121125000D01*
G75*
G02*
X95815000Y-121375000I-250000J0D01*
G01*
X95315000Y-121375000D01*
G75*
G02*
X95065000Y-121125000I0J250000D01*
G01*
X95065000Y-120175000D01*
G75*
G02*
X95315000Y-119925000I250000J0D01*
G01*
X95815000Y-119925000D01*
G75*
G02*
X96065000Y-120175000I0J-250000D01*
G01*
G37*
%TD*%
M02*
