%TF.GenerationSoftware,KiCad,Pcbnew,(5.1.10-1-10_14)*%
%TF.CreationDate,2023-03-15T03:50:06+08:00*%
%TF.ProjectId,GB_MemoryBackup_Mainboard,47425f4d-656d-46f7-9279-4261636b7570,1.0*%
%TF.SameCoordinates,Original*%
%TF.FileFunction,Legend,Top*%
%TF.FilePolarity,Positive*%
%FSLAX46Y46*%
G04 Gerber Fmt 4.6, Leading zero omitted, Abs format (unit mm)*
G04 Created by KiCad (PCBNEW (5.1.10-1-10_14)) date 2023-03-15 03:50:06*
%MOMM*%
%LPD*%
G01*
G04 APERTURE LIST*
%ADD10C,0.150000*%
%ADD11C,0.100000*%
%ADD12C,0.010000*%
%ADD13C,0.120000*%
%ADD14C,0.040000*%
G04 APERTURE END LIST*
D10*
X85123571Y-137550000D02*
X85028333Y-137502380D01*
X84885476Y-137502380D01*
X84742619Y-137550000D01*
X84647380Y-137645238D01*
X84599761Y-137740476D01*
X84552142Y-137930952D01*
X84552142Y-138073809D01*
X84599761Y-138264285D01*
X84647380Y-138359523D01*
X84742619Y-138454761D01*
X84885476Y-138502380D01*
X84980714Y-138502380D01*
X85123571Y-138454761D01*
X85171190Y-138407142D01*
X85171190Y-138073809D01*
X84980714Y-138073809D01*
X86028333Y-138502380D02*
X86028333Y-137978571D01*
X85980714Y-137883333D01*
X85885476Y-137835714D01*
X85694999Y-137835714D01*
X85599761Y-137883333D01*
X86028333Y-138454761D02*
X85933095Y-138502380D01*
X85694999Y-138502380D01*
X85599761Y-138454761D01*
X85552142Y-138359523D01*
X85552142Y-138264285D01*
X85599761Y-138169047D01*
X85694999Y-138121428D01*
X85933095Y-138121428D01*
X86028333Y-138073809D01*
X86504523Y-138502380D02*
X86504523Y-137835714D01*
X86504523Y-137930952D02*
X86552142Y-137883333D01*
X86647380Y-137835714D01*
X86790238Y-137835714D01*
X86885476Y-137883333D01*
X86933095Y-137978571D01*
X86933095Y-138502380D01*
X86933095Y-137978571D02*
X86980714Y-137883333D01*
X87075952Y-137835714D01*
X87218809Y-137835714D01*
X87314047Y-137883333D01*
X87361666Y-137978571D01*
X87361666Y-138502380D01*
X88218809Y-138454761D02*
X88123571Y-138502380D01*
X87933095Y-138502380D01*
X87837857Y-138454761D01*
X87790238Y-138359523D01*
X87790238Y-137978571D01*
X87837857Y-137883333D01*
X87933095Y-137835714D01*
X88123571Y-137835714D01*
X88218809Y-137883333D01*
X88266428Y-137978571D01*
X88266428Y-138073809D01*
X87790238Y-138169047D01*
X88694999Y-138502380D02*
X88694999Y-137502380D01*
X88694999Y-137883333D02*
X88790238Y-137835714D01*
X88980714Y-137835714D01*
X89075952Y-137883333D01*
X89123571Y-137930952D01*
X89171190Y-138026190D01*
X89171190Y-138311904D01*
X89123571Y-138407142D01*
X89075952Y-138454761D01*
X88980714Y-138502380D01*
X88790238Y-138502380D01*
X88694999Y-138454761D01*
X89742619Y-138502380D02*
X89647380Y-138454761D01*
X89599761Y-138407142D01*
X89552142Y-138311904D01*
X89552142Y-138026190D01*
X89599761Y-137930952D01*
X89647380Y-137883333D01*
X89742619Y-137835714D01*
X89885476Y-137835714D01*
X89980714Y-137883333D01*
X90028333Y-137930952D01*
X90075952Y-138026190D01*
X90075952Y-138311904D01*
X90028333Y-138407142D01*
X89980714Y-138454761D01*
X89885476Y-138502380D01*
X89742619Y-138502380D01*
X90409285Y-137835714D02*
X90647380Y-138502380D01*
X90885476Y-137835714D02*
X90647380Y-138502380D01*
X90552142Y-138740476D01*
X90504523Y-138788095D01*
X90409285Y-138835714D01*
X92028333Y-138502380D02*
X92028333Y-137502380D01*
X92361666Y-138216666D01*
X92694999Y-137502380D01*
X92694999Y-138502380D01*
X93552142Y-138454761D02*
X93456904Y-138502380D01*
X93266428Y-138502380D01*
X93171190Y-138454761D01*
X93123571Y-138359523D01*
X93123571Y-137978571D01*
X93171190Y-137883333D01*
X93266428Y-137835714D01*
X93456904Y-137835714D01*
X93552142Y-137883333D01*
X93599761Y-137978571D01*
X93599761Y-138073809D01*
X93123571Y-138169047D01*
X94028333Y-138502380D02*
X94028333Y-137835714D01*
X94028333Y-137930952D02*
X94075952Y-137883333D01*
X94171190Y-137835714D01*
X94314047Y-137835714D01*
X94409285Y-137883333D01*
X94456904Y-137978571D01*
X94456904Y-138502380D01*
X94456904Y-137978571D02*
X94504523Y-137883333D01*
X94599761Y-137835714D01*
X94742619Y-137835714D01*
X94837857Y-137883333D01*
X94885476Y-137978571D01*
X94885476Y-138502380D01*
X95504523Y-138502380D02*
X95409285Y-138454761D01*
X95361666Y-138407142D01*
X95314047Y-138311904D01*
X95314047Y-138026190D01*
X95361666Y-137930952D01*
X95409285Y-137883333D01*
X95504523Y-137835714D01*
X95647380Y-137835714D01*
X95742619Y-137883333D01*
X95790238Y-137930952D01*
X95837857Y-138026190D01*
X95837857Y-138311904D01*
X95790238Y-138407142D01*
X95742619Y-138454761D01*
X95647380Y-138502380D01*
X95504523Y-138502380D01*
X96266428Y-138502380D02*
X96266428Y-137835714D01*
X96266428Y-138026190D02*
X96314047Y-137930952D01*
X96361666Y-137883333D01*
X96456904Y-137835714D01*
X96552142Y-137835714D01*
X96790238Y-137835714D02*
X97028333Y-138502380D01*
X97266428Y-137835714D02*
X97028333Y-138502380D01*
X96933095Y-138740476D01*
X96885476Y-138788095D01*
X96790238Y-138835714D01*
X97980714Y-137978571D02*
X98123571Y-138026190D01*
X98171190Y-138073809D01*
X98218809Y-138169047D01*
X98218809Y-138311904D01*
X98171190Y-138407142D01*
X98123571Y-138454761D01*
X98028333Y-138502380D01*
X97647380Y-138502380D01*
X97647380Y-137502380D01*
X97980714Y-137502380D01*
X98075952Y-137550000D01*
X98123571Y-137597619D01*
X98171190Y-137692857D01*
X98171190Y-137788095D01*
X98123571Y-137883333D01*
X98075952Y-137930952D01*
X97980714Y-137978571D01*
X97647380Y-137978571D01*
X99075952Y-138502380D02*
X99075952Y-137978571D01*
X99028333Y-137883333D01*
X98933095Y-137835714D01*
X98742619Y-137835714D01*
X98647380Y-137883333D01*
X99075952Y-138454761D02*
X98980714Y-138502380D01*
X98742619Y-138502380D01*
X98647380Y-138454761D01*
X98599761Y-138359523D01*
X98599761Y-138264285D01*
X98647380Y-138169047D01*
X98742619Y-138121428D01*
X98980714Y-138121428D01*
X99075952Y-138073809D01*
X99980714Y-138454761D02*
X99885476Y-138502380D01*
X99694999Y-138502380D01*
X99599761Y-138454761D01*
X99552142Y-138407142D01*
X99504523Y-138311904D01*
X99504523Y-138026190D01*
X99552142Y-137930952D01*
X99599761Y-137883333D01*
X99694999Y-137835714D01*
X99885476Y-137835714D01*
X99980714Y-137883333D01*
X100409285Y-138502380D02*
X100409285Y-137502380D01*
X100504523Y-138121428D02*
X100790238Y-138502380D01*
X100790238Y-137835714D02*
X100409285Y-138216666D01*
X101647380Y-137835714D02*
X101647380Y-138502380D01*
X101218809Y-137835714D02*
X101218809Y-138359523D01*
X101266428Y-138454761D01*
X101361666Y-138502380D01*
X101504523Y-138502380D01*
X101599761Y-138454761D01*
X101647380Y-138407142D01*
X102123571Y-137835714D02*
X102123571Y-138835714D01*
X102123571Y-137883333D02*
X102218809Y-137835714D01*
X102409285Y-137835714D01*
X102504523Y-137883333D01*
X102552142Y-137930952D01*
X102599761Y-138026190D01*
X102599761Y-138311904D01*
X102552142Y-138407142D01*
X102504523Y-138454761D01*
X102409285Y-138502380D01*
X102218809Y-138502380D01*
X102123571Y-138454761D01*
X103790238Y-138502380D02*
X103790238Y-137502380D01*
X103790238Y-137978571D02*
X104361666Y-137978571D01*
X104361666Y-138502380D02*
X104361666Y-137502380D01*
X104980714Y-138502380D02*
X104885476Y-138454761D01*
X104837857Y-138407142D01*
X104790238Y-138311904D01*
X104790238Y-138026190D01*
X104837857Y-137930952D01*
X104885476Y-137883333D01*
X104980714Y-137835714D01*
X105123571Y-137835714D01*
X105218809Y-137883333D01*
X105266428Y-137930952D01*
X105314047Y-138026190D01*
X105314047Y-138311904D01*
X105266428Y-138407142D01*
X105218809Y-138454761D01*
X105123571Y-138502380D01*
X104980714Y-138502380D01*
X105742619Y-138502380D02*
X105742619Y-137835714D01*
X105742619Y-137930952D02*
X105790238Y-137883333D01*
X105885476Y-137835714D01*
X106028333Y-137835714D01*
X106123571Y-137883333D01*
X106171190Y-137978571D01*
X106171190Y-138502380D01*
X106171190Y-137978571D02*
X106218809Y-137883333D01*
X106314047Y-137835714D01*
X106456904Y-137835714D01*
X106552142Y-137883333D01*
X106599761Y-137978571D01*
X106599761Y-138502380D01*
X107456904Y-138454761D02*
X107361666Y-138502380D01*
X107171190Y-138502380D01*
X107075952Y-138454761D01*
X107028333Y-138359523D01*
X107028333Y-137978571D01*
X107075952Y-137883333D01*
X107171190Y-137835714D01*
X107361666Y-137835714D01*
X107456904Y-137883333D01*
X107504523Y-137978571D01*
X107504523Y-138073809D01*
X107028333Y-138169047D01*
X107933095Y-138502380D02*
X107933095Y-137502380D01*
X107933095Y-137883333D02*
X108028333Y-137835714D01*
X108218809Y-137835714D01*
X108314047Y-137883333D01*
X108361666Y-137930952D01*
X108409285Y-138026190D01*
X108409285Y-138311904D01*
X108361666Y-138407142D01*
X108314047Y-138454761D01*
X108218809Y-138502380D01*
X108028333Y-138502380D01*
X107933095Y-138454761D01*
X108837857Y-138502380D02*
X108837857Y-137835714D01*
X108837857Y-138026190D02*
X108885476Y-137930952D01*
X108933095Y-137883333D01*
X109028333Y-137835714D01*
X109123571Y-137835714D01*
X109837857Y-138454761D02*
X109742619Y-138502380D01*
X109552142Y-138502380D01*
X109456904Y-138454761D01*
X109409285Y-138359523D01*
X109409285Y-137978571D01*
X109456904Y-137883333D01*
X109552142Y-137835714D01*
X109742619Y-137835714D01*
X109837857Y-137883333D01*
X109885476Y-137978571D01*
X109885476Y-138073809D01*
X109409285Y-138169047D01*
X110218809Y-137835714D02*
X110409285Y-138502380D01*
X110599761Y-138026190D01*
X110790238Y-138502380D01*
X110980714Y-137835714D01*
X112028333Y-137835714D02*
X112266428Y-138502380D01*
X112504523Y-137835714D01*
X113409285Y-138502380D02*
X112837857Y-138502380D01*
X113123571Y-138502380D02*
X113123571Y-137502380D01*
X113028333Y-137645238D01*
X112933095Y-137740476D01*
X112837857Y-137788095D01*
X113837857Y-138407142D02*
X113885476Y-138454761D01*
X113837857Y-138502380D01*
X113790238Y-138454761D01*
X113837857Y-138407142D01*
X113837857Y-138502380D01*
X114504523Y-137502380D02*
X114599761Y-137502380D01*
X114694999Y-137550000D01*
X114742619Y-137597619D01*
X114790238Y-137692857D01*
X114837857Y-137883333D01*
X114837857Y-138121428D01*
X114790238Y-138311904D01*
X114742619Y-138407142D01*
X114694999Y-138454761D01*
X114599761Y-138502380D01*
X114504523Y-138502380D01*
X114409285Y-138454761D01*
X114361666Y-138407142D01*
X114314047Y-138311904D01*
X114266428Y-138121428D01*
X114266428Y-137883333D01*
X114314047Y-137692857D01*
X114361666Y-137597619D01*
X114409285Y-137550000D01*
X114504523Y-137502380D01*
X86623571Y-140152380D02*
X86623571Y-139152380D01*
X86861666Y-139152380D01*
X87004523Y-139200000D01*
X87099761Y-139295238D01*
X87147380Y-139390476D01*
X87195000Y-139580952D01*
X87195000Y-139723809D01*
X87147380Y-139914285D01*
X87099761Y-140009523D01*
X87004523Y-140104761D01*
X86861666Y-140152380D01*
X86623571Y-140152380D01*
X88004523Y-140104761D02*
X87909285Y-140152380D01*
X87718809Y-140152380D01*
X87623571Y-140104761D01*
X87575952Y-140009523D01*
X87575952Y-139628571D01*
X87623571Y-139533333D01*
X87718809Y-139485714D01*
X87909285Y-139485714D01*
X88004523Y-139533333D01*
X88052142Y-139628571D01*
X88052142Y-139723809D01*
X87575952Y-139819047D01*
X88433095Y-140104761D02*
X88528333Y-140152380D01*
X88718809Y-140152380D01*
X88814047Y-140104761D01*
X88861666Y-140009523D01*
X88861666Y-139961904D01*
X88814047Y-139866666D01*
X88718809Y-139819047D01*
X88575952Y-139819047D01*
X88480714Y-139771428D01*
X88433095Y-139676190D01*
X88433095Y-139628571D01*
X88480714Y-139533333D01*
X88575952Y-139485714D01*
X88718809Y-139485714D01*
X88814047Y-139533333D01*
X89290238Y-140152380D02*
X89290238Y-139485714D01*
X89290238Y-139152380D02*
X89242619Y-139200000D01*
X89290238Y-139247619D01*
X89337857Y-139200000D01*
X89290238Y-139152380D01*
X89290238Y-139247619D01*
X90195000Y-139485714D02*
X90195000Y-140295238D01*
X90147380Y-140390476D01*
X90099761Y-140438095D01*
X90004523Y-140485714D01*
X89861666Y-140485714D01*
X89766428Y-140438095D01*
X90195000Y-140104761D02*
X90099761Y-140152380D01*
X89909285Y-140152380D01*
X89814047Y-140104761D01*
X89766428Y-140057142D01*
X89718809Y-139961904D01*
X89718809Y-139676190D01*
X89766428Y-139580952D01*
X89814047Y-139533333D01*
X89909285Y-139485714D01*
X90099761Y-139485714D01*
X90195000Y-139533333D01*
X90671190Y-139485714D02*
X90671190Y-140152380D01*
X90671190Y-139580952D02*
X90718809Y-139533333D01*
X90814047Y-139485714D01*
X90956904Y-139485714D01*
X91052142Y-139533333D01*
X91099761Y-139628571D01*
X91099761Y-140152380D01*
X91956904Y-140104761D02*
X91861666Y-140152380D01*
X91671190Y-140152380D01*
X91575952Y-140104761D01*
X91528333Y-140009523D01*
X91528333Y-139628571D01*
X91575952Y-139533333D01*
X91671190Y-139485714D01*
X91861666Y-139485714D01*
X91956904Y-139533333D01*
X92004523Y-139628571D01*
X92004523Y-139723809D01*
X91528333Y-139819047D01*
X92861666Y-140152380D02*
X92861666Y-139152380D01*
X92861666Y-140104761D02*
X92766428Y-140152380D01*
X92575952Y-140152380D01*
X92480714Y-140104761D01*
X92433095Y-140057142D01*
X92385476Y-139961904D01*
X92385476Y-139676190D01*
X92433095Y-139580952D01*
X92480714Y-139533333D01*
X92575952Y-139485714D01*
X92766428Y-139485714D01*
X92861666Y-139533333D01*
X94099761Y-140152380D02*
X94099761Y-139485714D01*
X94099761Y-139152380D02*
X94052142Y-139200000D01*
X94099761Y-139247619D01*
X94147380Y-139200000D01*
X94099761Y-139152380D01*
X94099761Y-139247619D01*
X94575952Y-139485714D02*
X94575952Y-140152380D01*
X94575952Y-139580952D02*
X94623571Y-139533333D01*
X94718809Y-139485714D01*
X94861666Y-139485714D01*
X94956904Y-139533333D01*
X95004523Y-139628571D01*
X95004523Y-140152380D01*
X96195000Y-140104761D02*
X96337857Y-140152380D01*
X96575952Y-140152380D01*
X96671190Y-140104761D01*
X96718809Y-140057142D01*
X96766428Y-139961904D01*
X96766428Y-139866666D01*
X96718809Y-139771428D01*
X96671190Y-139723809D01*
X96575952Y-139676190D01*
X96385476Y-139628571D01*
X96290238Y-139580952D01*
X96242619Y-139533333D01*
X96195000Y-139438095D01*
X96195000Y-139342857D01*
X96242619Y-139247619D01*
X96290238Y-139200000D01*
X96385476Y-139152380D01*
X96623571Y-139152380D01*
X96766428Y-139200000D01*
X97195000Y-140152380D02*
X97195000Y-139152380D01*
X97623571Y-140152380D02*
X97623571Y-139628571D01*
X97575952Y-139533333D01*
X97480714Y-139485714D01*
X97337857Y-139485714D01*
X97242619Y-139533333D01*
X97195000Y-139580952D01*
X98528333Y-140152380D02*
X98528333Y-139628571D01*
X98480714Y-139533333D01*
X98385476Y-139485714D01*
X98195000Y-139485714D01*
X98099761Y-139533333D01*
X98528333Y-140104761D02*
X98433095Y-140152380D01*
X98195000Y-140152380D01*
X98099761Y-140104761D01*
X98052142Y-140009523D01*
X98052142Y-139914285D01*
X98099761Y-139819047D01*
X98195000Y-139771428D01*
X98433095Y-139771428D01*
X98528333Y-139723809D01*
X99004523Y-139485714D02*
X99004523Y-140152380D01*
X99004523Y-139580952D02*
X99052142Y-139533333D01*
X99147380Y-139485714D01*
X99290238Y-139485714D01*
X99385476Y-139533333D01*
X99433095Y-139628571D01*
X99433095Y-140152380D01*
X100337857Y-139485714D02*
X100337857Y-140295238D01*
X100290238Y-140390476D01*
X100242619Y-140438095D01*
X100147380Y-140485714D01*
X100004523Y-140485714D01*
X99909285Y-140438095D01*
X100337857Y-140104761D02*
X100242619Y-140152380D01*
X100052142Y-140152380D01*
X99956904Y-140104761D01*
X99909285Y-140057142D01*
X99861666Y-139961904D01*
X99861666Y-139676190D01*
X99909285Y-139580952D01*
X99956904Y-139533333D01*
X100052142Y-139485714D01*
X100242619Y-139485714D01*
X100337857Y-139533333D01*
X100814047Y-140152380D02*
X100814047Y-139152380D01*
X101242619Y-140152380D02*
X101242619Y-139628571D01*
X101195000Y-139533333D01*
X101099761Y-139485714D01*
X100956904Y-139485714D01*
X100861666Y-139533333D01*
X100814047Y-139580952D01*
X102147380Y-140152380D02*
X102147380Y-139628571D01*
X102099761Y-139533333D01*
X102004523Y-139485714D01*
X101814047Y-139485714D01*
X101718809Y-139533333D01*
X102147380Y-140104761D02*
X102052142Y-140152380D01*
X101814047Y-140152380D01*
X101718809Y-140104761D01*
X101671190Y-140009523D01*
X101671190Y-139914285D01*
X101718809Y-139819047D01*
X101814047Y-139771428D01*
X102052142Y-139771428D01*
X102147380Y-139723809D01*
X102623571Y-140152380D02*
X102623571Y-139485714D01*
X102623571Y-139152380D02*
X102575952Y-139200000D01*
X102623571Y-139247619D01*
X102671190Y-139200000D01*
X102623571Y-139152380D01*
X102623571Y-139247619D01*
X103147380Y-140104761D02*
X103147380Y-140152380D01*
X103099761Y-140247619D01*
X103052142Y-140295238D01*
X104337857Y-140152380D02*
X104337857Y-139152380D01*
X104337857Y-139533333D02*
X104433095Y-139485714D01*
X104623571Y-139485714D01*
X104718809Y-139533333D01*
X104766428Y-139580952D01*
X104814047Y-139676190D01*
X104814047Y-139961904D01*
X104766428Y-140057142D01*
X104718809Y-140104761D01*
X104623571Y-140152380D01*
X104433095Y-140152380D01*
X104337857Y-140104761D01*
X105147380Y-139485714D02*
X105385476Y-140152380D01*
X105623571Y-139485714D02*
X105385476Y-140152380D01*
X105290238Y-140390476D01*
X105242619Y-140438095D01*
X105147380Y-140485714D01*
X106718809Y-140104761D02*
X106861666Y-140152380D01*
X107099761Y-140152380D01*
X107195000Y-140104761D01*
X107242619Y-140057142D01*
X107290238Y-139961904D01*
X107290238Y-139866666D01*
X107242619Y-139771428D01*
X107195000Y-139723809D01*
X107099761Y-139676190D01*
X106909285Y-139628571D01*
X106814047Y-139580952D01*
X106766428Y-139533333D01*
X106718809Y-139438095D01*
X106718809Y-139342857D01*
X106766428Y-139247619D01*
X106814047Y-139200000D01*
X106909285Y-139152380D01*
X107147380Y-139152380D01*
X107290238Y-139200000D01*
X107909285Y-139152380D02*
X108099761Y-139152380D01*
X108195000Y-139200000D01*
X108290238Y-139295238D01*
X108337857Y-139485714D01*
X108337857Y-139819047D01*
X108290238Y-140009523D01*
X108195000Y-140104761D01*
X108099761Y-140152380D01*
X107909285Y-140152380D01*
X107814047Y-140104761D01*
X107718809Y-140009523D01*
X107671190Y-139819047D01*
X107671190Y-139485714D01*
X107718809Y-139295238D01*
X107814047Y-139200000D01*
X107909285Y-139152380D01*
X108766428Y-140152380D02*
X108766428Y-139152380D01*
X109337857Y-140152380D01*
X109337857Y-139152380D01*
X109814047Y-140152380D02*
X109814047Y-139152380D01*
X110861666Y-140057142D02*
X110814047Y-140104761D01*
X110671190Y-140152380D01*
X110575952Y-140152380D01*
X110433095Y-140104761D01*
X110337857Y-140009523D01*
X110290238Y-139914285D01*
X110242619Y-139723809D01*
X110242619Y-139580952D01*
X110290238Y-139390476D01*
X110337857Y-139295238D01*
X110433095Y-139200000D01*
X110575952Y-139152380D01*
X110671190Y-139152380D01*
X110814047Y-139200000D01*
X110861666Y-139247619D01*
X111195000Y-139152380D02*
X111814047Y-139152380D01*
X111480714Y-139533333D01*
X111623571Y-139533333D01*
X111718809Y-139580952D01*
X111766428Y-139628571D01*
X111814047Y-139723809D01*
X111814047Y-139961904D01*
X111766428Y-140057142D01*
X111718809Y-140104761D01*
X111623571Y-140152380D01*
X111337857Y-140152380D01*
X111242619Y-140104761D01*
X111195000Y-140057142D01*
X112242619Y-140152380D02*
X112242619Y-139152380D01*
X112480714Y-139152380D01*
X112623571Y-139200000D01*
X112718809Y-139295238D01*
X112766428Y-139390476D01*
X112814047Y-139580952D01*
X112814047Y-139723809D01*
X112766428Y-139914285D01*
X112718809Y-140009523D01*
X112623571Y-140104761D01*
X112480714Y-140152380D01*
X112242619Y-140152380D01*
X95218809Y-140897619D02*
X95266428Y-140850000D01*
X95361666Y-140802380D01*
X95599761Y-140802380D01*
X95695000Y-140850000D01*
X95742619Y-140897619D01*
X95790238Y-140992857D01*
X95790238Y-141088095D01*
X95742619Y-141230952D01*
X95171190Y-141802380D01*
X95790238Y-141802380D01*
X96409285Y-140802380D02*
X96504523Y-140802380D01*
X96599761Y-140850000D01*
X96647380Y-140897619D01*
X96695000Y-140992857D01*
X96742619Y-141183333D01*
X96742619Y-141421428D01*
X96695000Y-141611904D01*
X96647380Y-141707142D01*
X96599761Y-141754761D01*
X96504523Y-141802380D01*
X96409285Y-141802380D01*
X96314047Y-141754761D01*
X96266428Y-141707142D01*
X96218809Y-141611904D01*
X96171190Y-141421428D01*
X96171190Y-141183333D01*
X96218809Y-140992857D01*
X96266428Y-140897619D01*
X96314047Y-140850000D01*
X96409285Y-140802380D01*
X97123571Y-140897619D02*
X97171190Y-140850000D01*
X97266428Y-140802380D01*
X97504523Y-140802380D01*
X97599761Y-140850000D01*
X97647380Y-140897619D01*
X97695000Y-140992857D01*
X97695000Y-141088095D01*
X97647380Y-141230952D01*
X97075952Y-141802380D01*
X97695000Y-141802380D01*
X98028333Y-140802380D02*
X98647380Y-140802380D01*
X98314047Y-141183333D01*
X98456904Y-141183333D01*
X98552142Y-141230952D01*
X98599761Y-141278571D01*
X98647380Y-141373809D01*
X98647380Y-141611904D01*
X98599761Y-141707142D01*
X98552142Y-141754761D01*
X98456904Y-141802380D01*
X98171190Y-141802380D01*
X98075952Y-141754761D01*
X98028333Y-141707142D01*
X99075952Y-141707142D02*
X99123571Y-141754761D01*
X99075952Y-141802380D01*
X99028333Y-141754761D01*
X99075952Y-141707142D01*
X99075952Y-141802380D01*
X99552142Y-141802380D02*
X99552142Y-140802380D01*
X99885476Y-141516666D01*
X100218809Y-140802380D01*
X100218809Y-141802380D01*
X101123571Y-141802380D02*
X101123571Y-141278571D01*
X101075952Y-141183333D01*
X100980714Y-141135714D01*
X100790238Y-141135714D01*
X100695000Y-141183333D01*
X101123571Y-141754761D02*
X101028333Y-141802380D01*
X100790238Y-141802380D01*
X100695000Y-141754761D01*
X100647380Y-141659523D01*
X100647380Y-141564285D01*
X100695000Y-141469047D01*
X100790238Y-141421428D01*
X101028333Y-141421428D01*
X101123571Y-141373809D01*
X101599761Y-141802380D02*
X101599761Y-141135714D01*
X101599761Y-141326190D02*
X101647380Y-141230952D01*
X101695000Y-141183333D01*
X101790238Y-141135714D01*
X101885476Y-141135714D01*
X102218809Y-141707142D02*
X102266428Y-141754761D01*
X102218809Y-141802380D01*
X102171190Y-141754761D01*
X102218809Y-141707142D01*
X102218809Y-141802380D01*
X103218809Y-141802380D02*
X102647380Y-141802380D01*
X102933095Y-141802380D02*
X102933095Y-140802380D01*
X102837857Y-140945238D01*
X102742619Y-141040476D01*
X102647380Y-141088095D01*
X104123571Y-140802380D02*
X103647380Y-140802380D01*
X103599761Y-141278571D01*
X103647380Y-141230952D01*
X103742619Y-141183333D01*
X103980714Y-141183333D01*
X104075952Y-141230952D01*
X104123571Y-141278571D01*
X104171190Y-141373809D01*
X104171190Y-141611904D01*
X104123571Y-141707142D01*
X104075952Y-141754761D01*
X103980714Y-141802380D01*
X103742619Y-141802380D01*
X103647380Y-141754761D01*
X103599761Y-141707142D01*
D11*
X61500000Y-92100000D02*
X112700000Y-92100000D01*
X61500000Y-118000000D02*
X117700000Y-118000000D01*
D12*
%TO.C,G\u002A\u002A\u002A*%
G36*
X103251990Y-133307539D02*
G01*
X103323845Y-133366073D01*
X103425454Y-133455224D01*
X103548982Y-133568114D01*
X103686593Y-133697865D01*
X103689138Y-133700300D01*
X103829303Y-133831959D01*
X103958035Y-133948209D01*
X104066842Y-134041748D01*
X104147233Y-134105275D01*
X104190410Y-134131411D01*
X104233795Y-134155442D01*
X104265834Y-134211278D01*
X104294198Y-134313396D01*
X104299323Y-134336951D01*
X104374387Y-134563840D01*
X104503842Y-134804303D01*
X104682454Y-135050074D01*
X104903274Y-135291192D01*
X105020757Y-135403694D01*
X105131647Y-135504337D01*
X105223083Y-135581778D01*
X105280122Y-135623475D01*
X105350605Y-135673569D01*
X105377641Y-135711121D01*
X105356412Y-135727592D01*
X105338562Y-135727007D01*
X105285664Y-135719896D01*
X105195462Y-135706546D01*
X105140125Y-135698039D01*
X105007578Y-135681961D01*
X104869090Y-135671803D01*
X104830909Y-135670531D01*
X104748699Y-135664475D01*
X104680033Y-135643782D01*
X104606389Y-135599385D01*
X104509244Y-135522221D01*
X104483559Y-135500524D01*
X104312833Y-135338648D01*
X104135205Y-135140156D01*
X103956751Y-134914686D01*
X103783546Y-134671872D01*
X103621664Y-134421350D01*
X103477180Y-134172756D01*
X103356171Y-133935724D01*
X103264711Y-133719891D01*
X103208874Y-133534892D01*
X103196422Y-133459026D01*
X103189959Y-133351863D01*
X103199480Y-133297664D01*
X103217724Y-133286500D01*
X103251990Y-133307539D01*
G37*
X103251990Y-133307539D02*
X103323845Y-133366073D01*
X103425454Y-133455224D01*
X103548982Y-133568114D01*
X103686593Y-133697865D01*
X103689138Y-133700300D01*
X103829303Y-133831959D01*
X103958035Y-133948209D01*
X104066842Y-134041748D01*
X104147233Y-134105275D01*
X104190410Y-134131411D01*
X104233795Y-134155442D01*
X104265834Y-134211278D01*
X104294198Y-134313396D01*
X104299323Y-134336951D01*
X104374387Y-134563840D01*
X104503842Y-134804303D01*
X104682454Y-135050074D01*
X104903274Y-135291192D01*
X105020757Y-135403694D01*
X105131647Y-135504337D01*
X105223083Y-135581778D01*
X105280122Y-135623475D01*
X105350605Y-135673569D01*
X105377641Y-135711121D01*
X105356412Y-135727592D01*
X105338562Y-135727007D01*
X105285664Y-135719896D01*
X105195462Y-135706546D01*
X105140125Y-135698039D01*
X105007578Y-135681961D01*
X104869090Y-135671803D01*
X104830909Y-135670531D01*
X104748699Y-135664475D01*
X104680033Y-135643782D01*
X104606389Y-135599385D01*
X104509244Y-135522221D01*
X104483559Y-135500524D01*
X104312833Y-135338648D01*
X104135205Y-135140156D01*
X103956751Y-134914686D01*
X103783546Y-134671872D01*
X103621664Y-134421350D01*
X103477180Y-134172756D01*
X103356171Y-133935724D01*
X103264711Y-133719891D01*
X103208874Y-133534892D01*
X103196422Y-133459026D01*
X103189959Y-133351863D01*
X103199480Y-133297664D01*
X103217724Y-133286500D01*
X103251990Y-133307539D01*
G36*
X104882807Y-134506948D02*
G01*
X104873478Y-134513090D01*
X104856120Y-134551984D01*
X104858414Y-134611384D01*
X104857119Y-134702318D01*
X104835388Y-134786262D01*
X104813960Y-134857877D01*
X104829680Y-134906079D01*
X104853367Y-134931649D01*
X104892436Y-134966554D01*
X104892715Y-134953517D01*
X104876174Y-134919914D01*
X104860009Y-134851025D01*
X104869048Y-134812443D01*
X104895529Y-134802930D01*
X104940441Y-134839857D01*
X105007156Y-134924503D01*
X105063827Y-135011504D01*
X105097087Y-135080459D01*
X105100732Y-135111348D01*
X105099017Y-135127237D01*
X105108300Y-135120337D01*
X105150926Y-135117321D01*
X105177282Y-135132488D01*
X105203395Y-135174388D01*
X105183137Y-135212933D01*
X105163240Y-135261227D01*
X105187418Y-135296033D01*
X105216265Y-135315848D01*
X105210945Y-135283570D01*
X105209294Y-135278812D01*
X105204443Y-135231577D01*
X105237814Y-135232061D01*
X105306124Y-135279927D01*
X105317829Y-135289987D01*
X105390019Y-135349058D01*
X105484721Y-135421586D01*
X105528056Y-135453397D01*
X105600002Y-135512991D01*
X105640189Y-135561660D01*
X105643142Y-135580561D01*
X105651366Y-135597070D01*
X105691773Y-135589636D01*
X105745923Y-135584968D01*
X105759250Y-135602110D01*
X105735006Y-135633394D01*
X105670507Y-135632065D01*
X105578103Y-135601081D01*
X105470141Y-135543397D01*
X105444594Y-135526789D01*
X105307561Y-135429393D01*
X105188738Y-135335771D01*
X105261833Y-135335771D01*
X105276539Y-135377159D01*
X105288291Y-135382000D01*
X105299241Y-135371850D01*
X105346500Y-135371850D01*
X105369064Y-135406247D01*
X105423615Y-135460453D01*
X105490437Y-135517411D01*
X105549814Y-135560062D01*
X105578323Y-135572425D01*
X105574141Y-135554444D01*
X105532317Y-135509599D01*
X105514823Y-135493618D01*
X105427059Y-135416523D01*
X105376393Y-135374886D01*
X105352881Y-135361511D01*
X105346576Y-135369204D01*
X105346500Y-135371850D01*
X105299241Y-135371850D01*
X105314242Y-135357945D01*
X105314750Y-135352123D01*
X105292003Y-135308484D01*
X105288291Y-135305895D01*
X105265099Y-135315608D01*
X105261833Y-135335771D01*
X105188738Y-135335771D01*
X105184412Y-135332363D01*
X105085162Y-135244513D01*
X105063342Y-135221182D01*
X105100284Y-135221182D01*
X105104627Y-135223250D01*
X105133601Y-135200898D01*
X105140125Y-135191500D01*
X105148215Y-135161817D01*
X105143872Y-135159750D01*
X105114898Y-135182101D01*
X105108375Y-135191500D01*
X105100284Y-135221182D01*
X105063342Y-135221182D01*
X105020734Y-135175625D01*
X105029000Y-135175625D01*
X105044875Y-135191500D01*
X105060750Y-135175625D01*
X105044875Y-135159750D01*
X105029000Y-135175625D01*
X105020734Y-135175625D01*
X105019828Y-135174657D01*
X104998291Y-135134063D01*
X104978040Y-135108847D01*
X104962332Y-135114082D01*
X104944193Y-135114546D01*
X104958430Y-135080375D01*
X105029000Y-135080375D01*
X105044875Y-135096250D01*
X105060750Y-135080375D01*
X105044875Y-135064500D01*
X105029000Y-135080375D01*
X104958430Y-135080375D01*
X104963449Y-135068331D01*
X104977126Y-135003386D01*
X104966003Y-134932419D01*
X104936756Y-134882576D01*
X104915640Y-134874000D01*
X104916149Y-134897464D01*
X104935574Y-134940908D01*
X104959317Y-135009593D01*
X104943794Y-135038607D01*
X104900320Y-135026673D01*
X104840207Y-134972514D01*
X104824806Y-134953413D01*
X104772935Y-134878433D01*
X104758918Y-134830808D01*
X104777554Y-134791219D01*
X104780233Y-134787901D01*
X104809497Y-134721539D01*
X104822577Y-134630961D01*
X104822625Y-134625638D01*
X104833271Y-134546225D01*
X104860470Y-134507072D01*
X104863106Y-134506316D01*
X104882807Y-134506948D01*
G37*
X104882807Y-134506948D02*
X104873478Y-134513090D01*
X104856120Y-134551984D01*
X104858414Y-134611384D01*
X104857119Y-134702318D01*
X104835388Y-134786262D01*
X104813960Y-134857877D01*
X104829680Y-134906079D01*
X104853367Y-134931649D01*
X104892436Y-134966554D01*
X104892715Y-134953517D01*
X104876174Y-134919914D01*
X104860009Y-134851025D01*
X104869048Y-134812443D01*
X104895529Y-134802930D01*
X104940441Y-134839857D01*
X105007156Y-134924503D01*
X105063827Y-135011504D01*
X105097087Y-135080459D01*
X105100732Y-135111348D01*
X105099017Y-135127237D01*
X105108300Y-135120337D01*
X105150926Y-135117321D01*
X105177282Y-135132488D01*
X105203395Y-135174388D01*
X105183137Y-135212933D01*
X105163240Y-135261227D01*
X105187418Y-135296033D01*
X105216265Y-135315848D01*
X105210945Y-135283570D01*
X105209294Y-135278812D01*
X105204443Y-135231577D01*
X105237814Y-135232061D01*
X105306124Y-135279927D01*
X105317829Y-135289987D01*
X105390019Y-135349058D01*
X105484721Y-135421586D01*
X105528056Y-135453397D01*
X105600002Y-135512991D01*
X105640189Y-135561660D01*
X105643142Y-135580561D01*
X105651366Y-135597070D01*
X105691773Y-135589636D01*
X105745923Y-135584968D01*
X105759250Y-135602110D01*
X105735006Y-135633394D01*
X105670507Y-135632065D01*
X105578103Y-135601081D01*
X105470141Y-135543397D01*
X105444594Y-135526789D01*
X105307561Y-135429393D01*
X105188738Y-135335771D01*
X105261833Y-135335771D01*
X105276539Y-135377159D01*
X105288291Y-135382000D01*
X105299241Y-135371850D01*
X105346500Y-135371850D01*
X105369064Y-135406247D01*
X105423615Y-135460453D01*
X105490437Y-135517411D01*
X105549814Y-135560062D01*
X105578323Y-135572425D01*
X105574141Y-135554444D01*
X105532317Y-135509599D01*
X105514823Y-135493618D01*
X105427059Y-135416523D01*
X105376393Y-135374886D01*
X105352881Y-135361511D01*
X105346576Y-135369204D01*
X105346500Y-135371850D01*
X105299241Y-135371850D01*
X105314242Y-135357945D01*
X105314750Y-135352123D01*
X105292003Y-135308484D01*
X105288291Y-135305895D01*
X105265099Y-135315608D01*
X105261833Y-135335771D01*
X105188738Y-135335771D01*
X105184412Y-135332363D01*
X105085162Y-135244513D01*
X105063342Y-135221182D01*
X105100284Y-135221182D01*
X105104627Y-135223250D01*
X105133601Y-135200898D01*
X105140125Y-135191500D01*
X105148215Y-135161817D01*
X105143872Y-135159750D01*
X105114898Y-135182101D01*
X105108375Y-135191500D01*
X105100284Y-135221182D01*
X105063342Y-135221182D01*
X105020734Y-135175625D01*
X105029000Y-135175625D01*
X105044875Y-135191500D01*
X105060750Y-135175625D01*
X105044875Y-135159750D01*
X105029000Y-135175625D01*
X105020734Y-135175625D01*
X105019828Y-135174657D01*
X104998291Y-135134063D01*
X104978040Y-135108847D01*
X104962332Y-135114082D01*
X104944193Y-135114546D01*
X104958430Y-135080375D01*
X105029000Y-135080375D01*
X105044875Y-135096250D01*
X105060750Y-135080375D01*
X105044875Y-135064500D01*
X105029000Y-135080375D01*
X104958430Y-135080375D01*
X104963449Y-135068331D01*
X104977126Y-135003386D01*
X104966003Y-134932419D01*
X104936756Y-134882576D01*
X104915640Y-134874000D01*
X104916149Y-134897464D01*
X104935574Y-134940908D01*
X104959317Y-135009593D01*
X104943794Y-135038607D01*
X104900320Y-135026673D01*
X104840207Y-134972514D01*
X104824806Y-134953413D01*
X104772935Y-134878433D01*
X104758918Y-134830808D01*
X104777554Y-134791219D01*
X104780233Y-134787901D01*
X104809497Y-134721539D01*
X104822577Y-134630961D01*
X104822625Y-134625638D01*
X104833271Y-134546225D01*
X104860470Y-134507072D01*
X104863106Y-134506316D01*
X104882807Y-134506948D01*
G36*
X105489974Y-134708108D02*
G01*
X105556275Y-134738004D01*
X105610194Y-134773187D01*
X105619395Y-134782088D01*
X105679174Y-134828473D01*
X105722614Y-134842250D01*
X105748829Y-134834524D01*
X105723365Y-134805417D01*
X105709755Y-134794615D01*
X105667749Y-134760559D01*
X105677558Y-134758073D01*
X105714284Y-134770802D01*
X105774370Y-134808517D01*
X105849624Y-134876247D01*
X105882173Y-134911310D01*
X105947376Y-134998646D01*
X105948730Y-135002968D01*
X105931013Y-135012512D01*
X105910412Y-135028409D01*
X105875562Y-135075992D01*
X105880589Y-135116686D01*
X105909290Y-135128000D01*
X105912186Y-135112182D01*
X105907692Y-135107108D01*
X105907262Y-135068863D01*
X105926212Y-135035671D01*
X105948950Y-135003669D01*
X105968874Y-135067258D01*
X105964464Y-135105444D01*
X105963130Y-135172969D01*
X105999503Y-135203798D01*
X106035284Y-135211721D01*
X106020242Y-135184052D01*
X106019557Y-135183224D01*
X106002848Y-135123711D01*
X106011595Y-135098927D01*
X106036165Y-135078137D01*
X106056938Y-135115655D01*
X106058123Y-135119332D01*
X106065183Y-135190236D01*
X106049776Y-135255006D01*
X106018834Y-135286478D01*
X106015396Y-135286750D01*
X105986356Y-135263721D01*
X105928633Y-135202312D01*
X105852819Y-135114037D01*
X105822286Y-135076849D01*
X105726394Y-134967064D01*
X105680750Y-134921047D01*
X105777581Y-134921047D01*
X105777834Y-134953349D01*
X105781325Y-134967435D01*
X105801461Y-135023830D01*
X105822697Y-135023580D01*
X105836401Y-135004597D01*
X105830440Y-134963856D01*
X105809023Y-134939282D01*
X105777581Y-134921047D01*
X105680750Y-134921047D01*
X105627276Y-134867137D01*
X105543725Y-134795777D01*
X105530992Y-134786880D01*
X105459078Y-134737860D01*
X105415739Y-134705559D01*
X105410000Y-134699558D01*
X105433734Y-134692344D01*
X105489974Y-134708108D01*
G37*
X105489974Y-134708108D02*
X105556275Y-134738004D01*
X105610194Y-134773187D01*
X105619395Y-134782088D01*
X105679174Y-134828473D01*
X105722614Y-134842250D01*
X105748829Y-134834524D01*
X105723365Y-134805417D01*
X105709755Y-134794615D01*
X105667749Y-134760559D01*
X105677558Y-134758073D01*
X105714284Y-134770802D01*
X105774370Y-134808517D01*
X105849624Y-134876247D01*
X105882173Y-134911310D01*
X105947376Y-134998646D01*
X105948730Y-135002968D01*
X105931013Y-135012512D01*
X105910412Y-135028409D01*
X105875562Y-135075992D01*
X105880589Y-135116686D01*
X105909290Y-135128000D01*
X105912186Y-135112182D01*
X105907692Y-135107108D01*
X105907262Y-135068863D01*
X105926212Y-135035671D01*
X105948950Y-135003669D01*
X105968874Y-135067258D01*
X105964464Y-135105444D01*
X105963130Y-135172969D01*
X105999503Y-135203798D01*
X106035284Y-135211721D01*
X106020242Y-135184052D01*
X106019557Y-135183224D01*
X106002848Y-135123711D01*
X106011595Y-135098927D01*
X106036165Y-135078137D01*
X106056938Y-135115655D01*
X106058123Y-135119332D01*
X106065183Y-135190236D01*
X106049776Y-135255006D01*
X106018834Y-135286478D01*
X106015396Y-135286750D01*
X105986356Y-135263721D01*
X105928633Y-135202312D01*
X105852819Y-135114037D01*
X105822286Y-135076849D01*
X105726394Y-134967064D01*
X105680750Y-134921047D01*
X105777581Y-134921047D01*
X105777834Y-134953349D01*
X105781325Y-134967435D01*
X105801461Y-135023830D01*
X105822697Y-135023580D01*
X105836401Y-135004597D01*
X105830440Y-134963856D01*
X105809023Y-134939282D01*
X105777581Y-134921047D01*
X105680750Y-134921047D01*
X105627276Y-134867137D01*
X105543725Y-134795777D01*
X105530992Y-134786880D01*
X105459078Y-134737860D01*
X105415739Y-134705559D01*
X105410000Y-134699558D01*
X105433734Y-134692344D01*
X105489974Y-134708108D01*
G36*
X105195837Y-134771196D02*
G01*
X105268228Y-134833054D01*
X105339098Y-134916476D01*
X105396274Y-135005365D01*
X105427582Y-135083624D01*
X105424228Y-135130664D01*
X105391394Y-135157009D01*
X105340600Y-135142454D01*
X105270772Y-135093446D01*
X105197624Y-135020496D01*
X105140150Y-134935543D01*
X105103920Y-134852710D01*
X105094507Y-134786119D01*
X105117481Y-134749892D01*
X105134097Y-134747000D01*
X105195837Y-134771196D01*
G37*
X105195837Y-134771196D02*
X105268228Y-134833054D01*
X105339098Y-134916476D01*
X105396274Y-135005365D01*
X105427582Y-135083624D01*
X105424228Y-135130664D01*
X105391394Y-135157009D01*
X105340600Y-135142454D01*
X105270772Y-135093446D01*
X105197624Y-135020496D01*
X105140150Y-134935543D01*
X105103920Y-134852710D01*
X105094507Y-134786119D01*
X105117481Y-134749892D01*
X105134097Y-134747000D01*
X105195837Y-134771196D01*
G36*
X106721222Y-125630382D02*
G01*
X106962852Y-125742329D01*
X107198577Y-125912553D01*
X107425976Y-126138450D01*
X107642626Y-126417411D01*
X107846106Y-126746832D01*
X108033995Y-127124106D01*
X108135385Y-127365125D01*
X108232911Y-127617046D01*
X108318148Y-127849832D01*
X108394689Y-128075514D01*
X108466130Y-128306122D01*
X108536066Y-128553687D01*
X108608090Y-128830240D01*
X108685799Y-129147812D01*
X108752004Y-129428875D01*
X108799928Y-129637881D01*
X108834740Y-129801763D01*
X108858528Y-129937052D01*
X108873379Y-130060278D01*
X108881381Y-130187972D01*
X108884620Y-130336665D01*
X108885186Y-130483606D01*
X108882954Y-130688859D01*
X108876331Y-130847108D01*
X108865677Y-130952915D01*
X108851349Y-131000840D01*
X108851078Y-131001121D01*
X108824808Y-130998920D01*
X108783256Y-130950010D01*
X108723274Y-130849972D01*
X108665018Y-130740140D01*
X108434386Y-130306749D01*
X108219119Y-129934212D01*
X108018602Y-129621929D01*
X107832221Y-129369297D01*
X107659362Y-129175716D01*
X107499410Y-129040582D01*
X107351751Y-128963295D01*
X107215769Y-128943253D01*
X107090851Y-128979854D01*
X106976382Y-129072497D01*
X106969511Y-129080191D01*
X106890277Y-129192786D01*
X106836550Y-129326902D01*
X106805075Y-129495049D01*
X106792600Y-129709733D01*
X106792088Y-129762250D01*
X106800838Y-129988219D01*
X106831437Y-130199684D01*
X106888145Y-130411958D01*
X106975228Y-130640351D01*
X107096947Y-130900175D01*
X107123557Y-130952822D01*
X107412977Y-131469082D01*
X107730477Y-131935938D01*
X108083273Y-132363959D01*
X108097384Y-132379502D01*
X108270442Y-132570626D01*
X108404631Y-132722366D01*
X108504731Y-132841457D01*
X108575522Y-132934632D01*
X108621786Y-133008628D01*
X108648303Y-133070177D01*
X108659852Y-133126016D01*
X108661470Y-133174154D01*
X108630011Y-133350212D01*
X108547776Y-133538101D01*
X108422067Y-133723984D01*
X108301723Y-133855617D01*
X108147801Y-133988693D01*
X107978066Y-134102760D01*
X107778080Y-134206009D01*
X107533405Y-134306631D01*
X107457875Y-134334388D01*
X107197115Y-134437760D01*
X106943845Y-134555712D01*
X106712184Y-134680712D01*
X106516250Y-134805226D01*
X106388385Y-134905015D01*
X106301343Y-134981310D01*
X106234240Y-135037720D01*
X106199536Y-135063823D01*
X106197695Y-135064500D01*
X106173593Y-135041555D01*
X106122857Y-134981943D01*
X106068360Y-134913687D01*
X105950780Y-134762875D01*
X106021702Y-134715652D01*
X106195636Y-134565033D01*
X106315587Y-134382642D01*
X106380207Y-134172230D01*
X106388146Y-133937551D01*
X106361521Y-133770497D01*
X106338293Y-133702584D01*
X106290828Y-133588517D01*
X106223812Y-133438673D01*
X106141931Y-133263429D01*
X106049873Y-133073161D01*
X106012383Y-132997445D01*
X105717676Y-132388931D01*
X105461979Y-131822960D01*
X105243261Y-131293622D01*
X105059495Y-130795003D01*
X104908650Y-130321191D01*
X104788696Y-129866274D01*
X104697605Y-129424340D01*
X104633347Y-128989476D01*
X104631621Y-128974841D01*
X104591168Y-128444414D01*
X104597362Y-127947759D01*
X104649694Y-127486836D01*
X104747658Y-127063609D01*
X104890744Y-126680039D01*
X105078445Y-126338089D01*
X105310253Y-126039720D01*
X105420653Y-125927863D01*
X105646011Y-125757762D01*
X105901859Y-125642112D01*
X106183622Y-125582423D01*
X106476109Y-125579321D01*
X106721222Y-125630382D01*
G37*
X106721222Y-125630382D02*
X106962852Y-125742329D01*
X107198577Y-125912553D01*
X107425976Y-126138450D01*
X107642626Y-126417411D01*
X107846106Y-126746832D01*
X108033995Y-127124106D01*
X108135385Y-127365125D01*
X108232911Y-127617046D01*
X108318148Y-127849832D01*
X108394689Y-128075514D01*
X108466130Y-128306122D01*
X108536066Y-128553687D01*
X108608090Y-128830240D01*
X108685799Y-129147812D01*
X108752004Y-129428875D01*
X108799928Y-129637881D01*
X108834740Y-129801763D01*
X108858528Y-129937052D01*
X108873379Y-130060278D01*
X108881381Y-130187972D01*
X108884620Y-130336665D01*
X108885186Y-130483606D01*
X108882954Y-130688859D01*
X108876331Y-130847108D01*
X108865677Y-130952915D01*
X108851349Y-131000840D01*
X108851078Y-131001121D01*
X108824808Y-130998920D01*
X108783256Y-130950010D01*
X108723274Y-130849972D01*
X108665018Y-130740140D01*
X108434386Y-130306749D01*
X108219119Y-129934212D01*
X108018602Y-129621929D01*
X107832221Y-129369297D01*
X107659362Y-129175716D01*
X107499410Y-129040582D01*
X107351751Y-128963295D01*
X107215769Y-128943253D01*
X107090851Y-128979854D01*
X106976382Y-129072497D01*
X106969511Y-129080191D01*
X106890277Y-129192786D01*
X106836550Y-129326902D01*
X106805075Y-129495049D01*
X106792600Y-129709733D01*
X106792088Y-129762250D01*
X106800838Y-129988219D01*
X106831437Y-130199684D01*
X106888145Y-130411958D01*
X106975228Y-130640351D01*
X107096947Y-130900175D01*
X107123557Y-130952822D01*
X107412977Y-131469082D01*
X107730477Y-131935938D01*
X108083273Y-132363959D01*
X108097384Y-132379502D01*
X108270442Y-132570626D01*
X108404631Y-132722366D01*
X108504731Y-132841457D01*
X108575522Y-132934632D01*
X108621786Y-133008628D01*
X108648303Y-133070177D01*
X108659852Y-133126016D01*
X108661470Y-133174154D01*
X108630011Y-133350212D01*
X108547776Y-133538101D01*
X108422067Y-133723984D01*
X108301723Y-133855617D01*
X108147801Y-133988693D01*
X107978066Y-134102760D01*
X107778080Y-134206009D01*
X107533405Y-134306631D01*
X107457875Y-134334388D01*
X107197115Y-134437760D01*
X106943845Y-134555712D01*
X106712184Y-134680712D01*
X106516250Y-134805226D01*
X106388385Y-134905015D01*
X106301343Y-134981310D01*
X106234240Y-135037720D01*
X106199536Y-135063823D01*
X106197695Y-135064500D01*
X106173593Y-135041555D01*
X106122857Y-134981943D01*
X106068360Y-134913687D01*
X105950780Y-134762875D01*
X106021702Y-134715652D01*
X106195636Y-134565033D01*
X106315587Y-134382642D01*
X106380207Y-134172230D01*
X106388146Y-133937551D01*
X106361521Y-133770497D01*
X106338293Y-133702584D01*
X106290828Y-133588517D01*
X106223812Y-133438673D01*
X106141931Y-133263429D01*
X106049873Y-133073161D01*
X106012383Y-132997445D01*
X105717676Y-132388931D01*
X105461979Y-131822960D01*
X105243261Y-131293622D01*
X105059495Y-130795003D01*
X104908650Y-130321191D01*
X104788696Y-129866274D01*
X104697605Y-129424340D01*
X104633347Y-128989476D01*
X104631621Y-128974841D01*
X104591168Y-128444414D01*
X104597362Y-127947759D01*
X104649694Y-127486836D01*
X104747658Y-127063609D01*
X104890744Y-126680039D01*
X105078445Y-126338089D01*
X105310253Y-126039720D01*
X105420653Y-125927863D01*
X105646011Y-125757762D01*
X105901859Y-125642112D01*
X106183622Y-125582423D01*
X106476109Y-125579321D01*
X106721222Y-125630382D01*
G36*
X104629471Y-134372429D02*
G01*
X104639522Y-134437334D01*
X104636117Y-134465100D01*
X104632383Y-134532210D01*
X104650667Y-134556500D01*
X104667383Y-134536353D01*
X104660540Y-134519354D01*
X104658964Y-134495752D01*
X104693013Y-134503479D01*
X104750475Y-134521857D01*
X104769659Y-134525236D01*
X104766662Y-134538829D01*
X104745600Y-134554375D01*
X104703647Y-134606775D01*
X104689932Y-134674895D01*
X104709278Y-134728521D01*
X104716849Y-134734430D01*
X104738125Y-134737712D01*
X104730562Y-134720407D01*
X104726226Y-134665837D01*
X104740566Y-134628188D01*
X104762676Y-134599895D01*
X104772161Y-134623141D01*
X104774034Y-134673688D01*
X104763815Y-134758793D01*
X104736042Y-134794556D01*
X104698122Y-134775191D01*
X104679874Y-134747233D01*
X104659871Y-134684050D01*
X104664280Y-134651093D01*
X104661866Y-134622280D01*
X104651148Y-134620000D01*
X104623829Y-134592780D01*
X104593509Y-134527332D01*
X104568173Y-134447969D01*
X104564861Y-134429500D01*
X104584500Y-134429500D01*
X104596116Y-134455633D01*
X104605666Y-134450666D01*
X104609466Y-134412986D01*
X104605666Y-134408333D01*
X104586791Y-134412691D01*
X104584500Y-134429500D01*
X104564861Y-134429500D01*
X104555802Y-134379004D01*
X104561425Y-134346740D01*
X104599809Y-134336480D01*
X104629471Y-134372429D01*
G37*
X104629471Y-134372429D02*
X104639522Y-134437334D01*
X104636117Y-134465100D01*
X104632383Y-134532210D01*
X104650667Y-134556500D01*
X104667383Y-134536353D01*
X104660540Y-134519354D01*
X104658964Y-134495752D01*
X104693013Y-134503479D01*
X104750475Y-134521857D01*
X104769659Y-134525236D01*
X104766662Y-134538829D01*
X104745600Y-134554375D01*
X104703647Y-134606775D01*
X104689932Y-134674895D01*
X104709278Y-134728521D01*
X104716849Y-134734430D01*
X104738125Y-134737712D01*
X104730562Y-134720407D01*
X104726226Y-134665837D01*
X104740566Y-134628188D01*
X104762676Y-134599895D01*
X104772161Y-134623141D01*
X104774034Y-134673688D01*
X104763815Y-134758793D01*
X104736042Y-134794556D01*
X104698122Y-134775191D01*
X104679874Y-134747233D01*
X104659871Y-134684050D01*
X104664280Y-134651093D01*
X104661866Y-134622280D01*
X104651148Y-134620000D01*
X104623829Y-134592780D01*
X104593509Y-134527332D01*
X104568173Y-134447969D01*
X104564861Y-134429500D01*
X104584500Y-134429500D01*
X104596116Y-134455633D01*
X104605666Y-134450666D01*
X104609466Y-134412986D01*
X104605666Y-134408333D01*
X104586791Y-134412691D01*
X104584500Y-134429500D01*
X104564861Y-134429500D01*
X104555802Y-134379004D01*
X104561425Y-134346740D01*
X104599809Y-134336480D01*
X104629471Y-134372429D01*
G36*
X104743250Y-134420300D02*
G01*
X104794720Y-134445431D01*
X104806750Y-134464953D01*
X104800072Y-134489546D01*
X104798812Y-134489316D01*
X104765648Y-134479282D01*
X104735312Y-134471113D01*
X104688254Y-134446385D01*
X104679750Y-134430144D01*
X104705094Y-134415665D01*
X104743250Y-134420300D01*
G37*
X104743250Y-134420300D02*
X104794720Y-134445431D01*
X104806750Y-134464953D01*
X104800072Y-134489546D01*
X104798812Y-134489316D01*
X104765648Y-134479282D01*
X104735312Y-134471113D01*
X104688254Y-134446385D01*
X104679750Y-134430144D01*
X104705094Y-134415665D01*
X104743250Y-134420300D01*
G36*
X111752702Y-130117737D02*
G01*
X112004343Y-130203658D01*
X112048608Y-130224933D01*
X112226536Y-130341490D01*
X112347271Y-130485231D01*
X112411887Y-130658103D01*
X112421463Y-130862054D01*
X112418369Y-130894119D01*
X112399644Y-131006352D01*
X112366892Y-131064093D01*
X112307244Y-131074767D01*
X112207830Y-131045802D01*
X112176461Y-131033712D01*
X112019114Y-130992225D01*
X111829187Y-130972686D01*
X111634195Y-130976525D01*
X111490125Y-130998051D01*
X111439225Y-131011519D01*
X111435088Y-131021839D01*
X111483675Y-131033494D01*
X111552377Y-131044868D01*
X111721379Y-131082398D01*
X111886329Y-131137581D01*
X112028162Y-131202810D01*
X112127810Y-131270477D01*
X112134932Y-131277296D01*
X112183582Y-131337647D01*
X112201070Y-131403983D01*
X112196013Y-131498311D01*
X112170671Y-131625073D01*
X112124274Y-131696608D01*
X112048274Y-131719945D01*
X111944798Y-131704873D01*
X111832523Y-131688558D01*
X111696656Y-131684905D01*
X111620715Y-131689490D01*
X111434182Y-131708742D01*
X111525653Y-131755268D01*
X111652721Y-131837314D01*
X111744283Y-131931596D01*
X111789099Y-132025599D01*
X111791750Y-132051593D01*
X111784148Y-132153293D01*
X111752253Y-132210042D01*
X111682430Y-132234319D01*
X111587269Y-132238750D01*
X111489937Y-132242135D01*
X111421118Y-132250807D01*
X111402192Y-132257890D01*
X111410642Y-132288670D01*
X111456183Y-132339620D01*
X111467197Y-132349409D01*
X111511318Y-132396116D01*
X111527559Y-132444561D01*
X111512139Y-132503805D01*
X111461276Y-132582906D01*
X111371187Y-132690924D01*
X111284768Y-132786413D01*
X111201583Y-132870167D01*
X111093519Y-132969508D01*
X110971098Y-133075862D01*
X110844841Y-133180657D01*
X110725270Y-133275320D01*
X110622906Y-133351276D01*
X110548269Y-133399953D01*
X110515191Y-133413500D01*
X110518605Y-133387042D01*
X110545506Y-133315566D01*
X110591111Y-133210914D01*
X110633737Y-133119812D01*
X110779846Y-132759038D01*
X110897126Y-132347104D01*
X110981572Y-131905043D01*
X111014761Y-131644124D01*
X111025890Y-131429166D01*
X111012833Y-131245839D01*
X110973462Y-131079811D01*
X110905647Y-130916754D01*
X110809449Y-130745875D01*
X110682515Y-130540125D01*
X110829787Y-130403075D01*
X111046433Y-130237612D01*
X111272979Y-130134827D01*
X111508658Y-130094831D01*
X111752702Y-130117737D01*
G37*
X111752702Y-130117737D02*
X112004343Y-130203658D01*
X112048608Y-130224933D01*
X112226536Y-130341490D01*
X112347271Y-130485231D01*
X112411887Y-130658103D01*
X112421463Y-130862054D01*
X112418369Y-130894119D01*
X112399644Y-131006352D01*
X112366892Y-131064093D01*
X112307244Y-131074767D01*
X112207830Y-131045802D01*
X112176461Y-131033712D01*
X112019114Y-130992225D01*
X111829187Y-130972686D01*
X111634195Y-130976525D01*
X111490125Y-130998051D01*
X111439225Y-131011519D01*
X111435088Y-131021839D01*
X111483675Y-131033494D01*
X111552377Y-131044868D01*
X111721379Y-131082398D01*
X111886329Y-131137581D01*
X112028162Y-131202810D01*
X112127810Y-131270477D01*
X112134932Y-131277296D01*
X112183582Y-131337647D01*
X112201070Y-131403983D01*
X112196013Y-131498311D01*
X112170671Y-131625073D01*
X112124274Y-131696608D01*
X112048274Y-131719945D01*
X111944798Y-131704873D01*
X111832523Y-131688558D01*
X111696656Y-131684905D01*
X111620715Y-131689490D01*
X111434182Y-131708742D01*
X111525653Y-131755268D01*
X111652721Y-131837314D01*
X111744283Y-131931596D01*
X111789099Y-132025599D01*
X111791750Y-132051593D01*
X111784148Y-132153293D01*
X111752253Y-132210042D01*
X111682430Y-132234319D01*
X111587269Y-132238750D01*
X111489937Y-132242135D01*
X111421118Y-132250807D01*
X111402192Y-132257890D01*
X111410642Y-132288670D01*
X111456183Y-132339620D01*
X111467197Y-132349409D01*
X111511318Y-132396116D01*
X111527559Y-132444561D01*
X111512139Y-132503805D01*
X111461276Y-132582906D01*
X111371187Y-132690924D01*
X111284768Y-132786413D01*
X111201583Y-132870167D01*
X111093519Y-132969508D01*
X110971098Y-133075862D01*
X110844841Y-133180657D01*
X110725270Y-133275320D01*
X110622906Y-133351276D01*
X110548269Y-133399953D01*
X110515191Y-133413500D01*
X110518605Y-133387042D01*
X110545506Y-133315566D01*
X110591111Y-133210914D01*
X110633737Y-133119812D01*
X110779846Y-132759038D01*
X110897126Y-132347104D01*
X110981572Y-131905043D01*
X111014761Y-131644124D01*
X111025890Y-131429166D01*
X111012833Y-131245839D01*
X110973462Y-131079811D01*
X110905647Y-130916754D01*
X110809449Y-130745875D01*
X110682515Y-130540125D01*
X110829787Y-130403075D01*
X111046433Y-130237612D01*
X111272979Y-130134827D01*
X111508658Y-130094831D01*
X111752702Y-130117737D01*
G36*
X107949034Y-131405698D02*
G01*
X107950000Y-131413524D01*
X107970988Y-131468611D01*
X108027305Y-131555832D01*
X108108981Y-131662819D01*
X108206043Y-131777209D01*
X108308522Y-131886635D01*
X108404215Y-131976812D01*
X108513194Y-132052178D01*
X108616759Y-132079459D01*
X108635338Y-132080000D01*
X108746966Y-132080000D01*
X108741176Y-132366167D01*
X108737017Y-132501668D01*
X108729983Y-132583127D01*
X108718179Y-132619993D01*
X108699711Y-132621715D01*
X108691175Y-132615642D01*
X108644347Y-132594327D01*
X108626238Y-132599678D01*
X108631591Y-132631481D01*
X108663124Y-132662534D01*
X108703791Y-132708238D01*
X108708431Y-132736952D01*
X108682465Y-132731840D01*
X108625038Y-132688846D01*
X108547668Y-132616832D01*
X108532988Y-132601959D01*
X108433143Y-132498484D01*
X108375711Y-132432596D01*
X108361816Y-132403338D01*
X108443279Y-132403338D01*
X108445852Y-132438651D01*
X108484291Y-132494178D01*
X108486557Y-132496637D01*
X108533725Y-132554859D01*
X108553250Y-132593986D01*
X108564797Y-132619673D01*
X108565766Y-132619750D01*
X108573607Y-132592588D01*
X108573703Y-132540397D01*
X108557540Y-132480668D01*
X108532083Y-132461022D01*
X108529165Y-132459330D01*
X108621259Y-132459330D01*
X108622281Y-132522537D01*
X108654275Y-132566031D01*
X108656437Y-132566972D01*
X108694862Y-132583240D01*
X108699237Y-132585493D01*
X108701276Y-132557595D01*
X108703839Y-132481507D01*
X108706431Y-132372530D01*
X108706875Y-132349875D01*
X108705667Y-132236089D01*
X108698350Y-132151899D01*
X108686423Y-132112802D01*
X108683851Y-132111750D01*
X108670453Y-132139788D01*
X108668609Y-132210592D01*
X108671937Y-132250487D01*
X108674545Y-132349139D01*
X108657936Y-132405972D01*
X108652162Y-132411111D01*
X108621259Y-132459330D01*
X108529165Y-132459330D01*
X108488632Y-132435830D01*
X108480867Y-132421312D01*
X108454770Y-132397878D01*
X108443279Y-132403338D01*
X108361816Y-132403338D01*
X108358606Y-132396579D01*
X108379742Y-132382719D01*
X108437034Y-132383301D01*
X108474685Y-132386271D01*
X108562256Y-132390601D01*
X108603777Y-132379260D01*
X108616163Y-132344799D01*
X108616750Y-132323719D01*
X108596036Y-132264464D01*
X108544884Y-132249883D01*
X108479780Y-132281863D01*
X108455961Y-132305298D01*
X108395266Y-132346842D01*
X108351124Y-132353765D01*
X108291586Y-132326195D01*
X108228252Y-132271181D01*
X108177629Y-132207305D01*
X108172096Y-132193306D01*
X108210134Y-132193306D01*
X108243249Y-132239615D01*
X108301271Y-132268321D01*
X108322409Y-132270500D01*
X108376261Y-132264857D01*
X108376252Y-132240710D01*
X108362750Y-132222875D01*
X108341498Y-132183423D01*
X108358862Y-132175250D01*
X108390128Y-132149471D01*
X108394500Y-132125824D01*
X108400239Y-132094148D01*
X108428695Y-132101603D01*
X108465064Y-132125824D01*
X108542657Y-132166788D01*
X108597919Y-132171025D01*
X108616750Y-132141626D01*
X108596851Y-132123690D01*
X108581450Y-132129818D01*
X108536458Y-132132815D01*
X108525887Y-132123755D01*
X108481629Y-132082982D01*
X108424799Y-132051269D01*
X108377935Y-132038789D01*
X108362750Y-132050120D01*
X108338048Y-132069849D01*
X108299250Y-132064125D01*
X108248036Y-132055758D01*
X108240355Y-132083021D01*
X108268617Y-132145587D01*
X108285267Y-132196133D01*
X108268617Y-132207000D01*
X108237612Y-132182223D01*
X108235750Y-132169958D01*
X108225383Y-132146021D01*
X108219127Y-132149539D01*
X108210134Y-132193306D01*
X108172096Y-132193306D01*
X108156225Y-132153151D01*
X108159642Y-132138213D01*
X108163004Y-132116599D01*
X108148878Y-132122446D01*
X108110270Y-132113910D01*
X108064597Y-132064969D01*
X108024148Y-131999295D01*
X108019380Y-131970599D01*
X108049772Y-131963688D01*
X108061125Y-131963583D01*
X108103277Y-131986274D01*
X108108750Y-132005916D01*
X108129085Y-132044633D01*
X108142828Y-132048250D01*
X108166104Y-132023143D01*
X108165424Y-131992687D01*
X108133177Y-131947223D01*
X108105946Y-131940476D01*
X108071037Y-131921364D01*
X108058217Y-131851549D01*
X108057950Y-131833568D01*
X108041038Y-131736610D01*
X108037696Y-131731851D01*
X108077965Y-131731851D01*
X108097961Y-131788018D01*
X108148016Y-131861161D01*
X108210804Y-131930872D01*
X108268997Y-131976745D01*
X108292407Y-131984419D01*
X108298107Y-131965813D01*
X108264155Y-131918645D01*
X108241649Y-131895267D01*
X108172657Y-131821245D01*
X108120470Y-131754022D01*
X108114520Y-131744454D01*
X108087287Y-131707415D01*
X108078123Y-131726950D01*
X108077965Y-131731851D01*
X108037696Y-131731851D01*
X108003975Y-131683842D01*
X107960081Y-131641152D01*
X107950000Y-131619141D01*
X107969532Y-131618654D01*
X108013500Y-131651375D01*
X108061450Y-131687332D01*
X108073903Y-131680059D01*
X108053192Y-131637325D01*
X108001654Y-131566899D01*
X107980459Y-131541449D01*
X107911380Y-131452887D01*
X107888535Y-131401245D01*
X107910126Y-131381907D01*
X107918250Y-131381500D01*
X107949034Y-131405698D01*
G37*
X107949034Y-131405698D02*
X107950000Y-131413524D01*
X107970988Y-131468611D01*
X108027305Y-131555832D01*
X108108981Y-131662819D01*
X108206043Y-131777209D01*
X108308522Y-131886635D01*
X108404215Y-131976812D01*
X108513194Y-132052178D01*
X108616759Y-132079459D01*
X108635338Y-132080000D01*
X108746966Y-132080000D01*
X108741176Y-132366167D01*
X108737017Y-132501668D01*
X108729983Y-132583127D01*
X108718179Y-132619993D01*
X108699711Y-132621715D01*
X108691175Y-132615642D01*
X108644347Y-132594327D01*
X108626238Y-132599678D01*
X108631591Y-132631481D01*
X108663124Y-132662534D01*
X108703791Y-132708238D01*
X108708431Y-132736952D01*
X108682465Y-132731840D01*
X108625038Y-132688846D01*
X108547668Y-132616832D01*
X108532988Y-132601959D01*
X108433143Y-132498484D01*
X108375711Y-132432596D01*
X108361816Y-132403338D01*
X108443279Y-132403338D01*
X108445852Y-132438651D01*
X108484291Y-132494178D01*
X108486557Y-132496637D01*
X108533725Y-132554859D01*
X108553250Y-132593986D01*
X108564797Y-132619673D01*
X108565766Y-132619750D01*
X108573607Y-132592588D01*
X108573703Y-132540397D01*
X108557540Y-132480668D01*
X108532083Y-132461022D01*
X108529165Y-132459330D01*
X108621259Y-132459330D01*
X108622281Y-132522537D01*
X108654275Y-132566031D01*
X108656437Y-132566972D01*
X108694862Y-132583240D01*
X108699237Y-132585493D01*
X108701276Y-132557595D01*
X108703839Y-132481507D01*
X108706431Y-132372530D01*
X108706875Y-132349875D01*
X108705667Y-132236089D01*
X108698350Y-132151899D01*
X108686423Y-132112802D01*
X108683851Y-132111750D01*
X108670453Y-132139788D01*
X108668609Y-132210592D01*
X108671937Y-132250487D01*
X108674545Y-132349139D01*
X108657936Y-132405972D01*
X108652162Y-132411111D01*
X108621259Y-132459330D01*
X108529165Y-132459330D01*
X108488632Y-132435830D01*
X108480867Y-132421312D01*
X108454770Y-132397878D01*
X108443279Y-132403338D01*
X108361816Y-132403338D01*
X108358606Y-132396579D01*
X108379742Y-132382719D01*
X108437034Y-132383301D01*
X108474685Y-132386271D01*
X108562256Y-132390601D01*
X108603777Y-132379260D01*
X108616163Y-132344799D01*
X108616750Y-132323719D01*
X108596036Y-132264464D01*
X108544884Y-132249883D01*
X108479780Y-132281863D01*
X108455961Y-132305298D01*
X108395266Y-132346842D01*
X108351124Y-132353765D01*
X108291586Y-132326195D01*
X108228252Y-132271181D01*
X108177629Y-132207305D01*
X108172096Y-132193306D01*
X108210134Y-132193306D01*
X108243249Y-132239615D01*
X108301271Y-132268321D01*
X108322409Y-132270500D01*
X108376261Y-132264857D01*
X108376252Y-132240710D01*
X108362750Y-132222875D01*
X108341498Y-132183423D01*
X108358862Y-132175250D01*
X108390128Y-132149471D01*
X108394500Y-132125824D01*
X108400239Y-132094148D01*
X108428695Y-132101603D01*
X108465064Y-132125824D01*
X108542657Y-132166788D01*
X108597919Y-132171025D01*
X108616750Y-132141626D01*
X108596851Y-132123690D01*
X108581450Y-132129818D01*
X108536458Y-132132815D01*
X108525887Y-132123755D01*
X108481629Y-132082982D01*
X108424799Y-132051269D01*
X108377935Y-132038789D01*
X108362750Y-132050120D01*
X108338048Y-132069849D01*
X108299250Y-132064125D01*
X108248036Y-132055758D01*
X108240355Y-132083021D01*
X108268617Y-132145587D01*
X108285267Y-132196133D01*
X108268617Y-132207000D01*
X108237612Y-132182223D01*
X108235750Y-132169958D01*
X108225383Y-132146021D01*
X108219127Y-132149539D01*
X108210134Y-132193306D01*
X108172096Y-132193306D01*
X108156225Y-132153151D01*
X108159642Y-132138213D01*
X108163004Y-132116599D01*
X108148878Y-132122446D01*
X108110270Y-132113910D01*
X108064597Y-132064969D01*
X108024148Y-131999295D01*
X108019380Y-131970599D01*
X108049772Y-131963688D01*
X108061125Y-131963583D01*
X108103277Y-131986274D01*
X108108750Y-132005916D01*
X108129085Y-132044633D01*
X108142828Y-132048250D01*
X108166104Y-132023143D01*
X108165424Y-131992687D01*
X108133177Y-131947223D01*
X108105946Y-131940476D01*
X108071037Y-131921364D01*
X108058217Y-131851549D01*
X108057950Y-131833568D01*
X108041038Y-131736610D01*
X108037696Y-131731851D01*
X108077965Y-131731851D01*
X108097961Y-131788018D01*
X108148016Y-131861161D01*
X108210804Y-131930872D01*
X108268997Y-131976745D01*
X108292407Y-131984419D01*
X108298107Y-131965813D01*
X108264155Y-131918645D01*
X108241649Y-131895267D01*
X108172657Y-131821245D01*
X108120470Y-131754022D01*
X108114520Y-131744454D01*
X108087287Y-131707415D01*
X108078123Y-131726950D01*
X108077965Y-131731851D01*
X108037696Y-131731851D01*
X108003975Y-131683842D01*
X107960081Y-131641152D01*
X107950000Y-131619141D01*
X107969532Y-131618654D01*
X108013500Y-131651375D01*
X108061450Y-131687332D01*
X108073903Y-131680059D01*
X108053192Y-131637325D01*
X108001654Y-131566899D01*
X107980459Y-131541449D01*
X107911380Y-131452887D01*
X107888535Y-131401245D01*
X107910126Y-131381907D01*
X107918250Y-131381500D01*
X107949034Y-131405698D01*
G36*
X108585000Y-132349875D02*
G01*
X108569125Y-132365750D01*
X108553250Y-132349875D01*
X108569125Y-132334000D01*
X108585000Y-132349875D01*
G37*
X108585000Y-132349875D02*
X108569125Y-132365750D01*
X108553250Y-132349875D01*
X108569125Y-132334000D01*
X108585000Y-132349875D01*
G36*
X108129551Y-129978472D02*
G01*
X108177847Y-130047151D01*
X108239298Y-130146052D01*
X108265721Y-130191401D01*
X108330294Y-130301116D01*
X108384942Y-130388238D01*
X108420869Y-130438963D01*
X108427817Y-130445843D01*
X108453291Y-130483817D01*
X108484521Y-130558264D01*
X108492034Y-130580254D01*
X108522165Y-130660072D01*
X108548578Y-130709800D01*
X108553420Y-130714750D01*
X108582032Y-130751486D01*
X108622060Y-130820423D01*
X108627409Y-130830716D01*
X108658755Y-130898867D01*
X108658405Y-130932199D01*
X108628545Y-130950047D01*
X108593756Y-130987438D01*
X108595099Y-131012773D01*
X108590181Y-131070827D01*
X108574846Y-131093203D01*
X108556059Y-131132206D01*
X108581197Y-131156900D01*
X108611850Y-131202752D01*
X108610356Y-131226056D01*
X108589381Y-131221553D01*
X108546519Y-131171450D01*
X108490156Y-131085967D01*
X108476552Y-131063041D01*
X108408613Y-130951755D01*
X108343687Y-130854323D01*
X108295396Y-130791144D01*
X108293928Y-130789537D01*
X108254927Y-130730243D01*
X108265112Y-130700350D01*
X108297502Y-130657209D01*
X108299250Y-130645488D01*
X108281859Y-130631417D01*
X108253602Y-130649609D01*
X108216940Y-130665234D01*
X108183092Y-130634975D01*
X108158023Y-130590937D01*
X108157344Y-130589957D01*
X108191566Y-130589957D01*
X108193961Y-130607384D01*
X108222434Y-130636271D01*
X108243834Y-130624115D01*
X108298119Y-130605389D01*
X108318993Y-130609502D01*
X108355913Y-130605781D01*
X108359250Y-130572467D01*
X108330715Y-130539949D01*
X108273642Y-130529337D01*
X108218665Y-130550245D01*
X108191566Y-130589957D01*
X108157344Y-130589957D01*
X108103960Y-130512975D01*
X108043289Y-130459706D01*
X108042458Y-130459256D01*
X107995532Y-130411876D01*
X107995528Y-130396645D01*
X108013500Y-130396645D01*
X108041443Y-130428241D01*
X108110333Y-130450402D01*
X108197759Y-130457940D01*
X108254504Y-130452428D01*
X108322924Y-130459069D01*
X108363693Y-130513707D01*
X108378975Y-130620830D01*
X108377117Y-130706976D01*
X108378419Y-130794074D01*
X108390978Y-130851058D01*
X108397796Y-130859662D01*
X108421974Y-130850232D01*
X108426250Y-130825875D01*
X108438984Y-130790022D01*
X108452969Y-130791015D01*
X108470185Y-130831193D01*
X108473948Y-130904014D01*
X108478070Y-130971291D01*
X108495960Y-131000465D01*
X108496728Y-131000500D01*
X108510913Y-131020253D01*
X108505625Y-131032250D01*
X108508142Y-131061507D01*
X108519626Y-131064000D01*
X108552061Y-131053824D01*
X108553250Y-131050191D01*
X108543170Y-131013600D01*
X108521595Y-130953127D01*
X108515325Y-130931671D01*
X108556952Y-130931671D01*
X108561614Y-130959436D01*
X108585000Y-130952875D01*
X108612625Y-130907564D01*
X108616263Y-130879563D01*
X108611125Y-130844031D01*
X108589176Y-130867110D01*
X108585000Y-130873500D01*
X108556952Y-130931671D01*
X108515325Y-130931671D01*
X108505079Y-130896617D01*
X108519267Y-130888537D01*
X108526991Y-130892768D01*
X108550739Y-130894180D01*
X108543767Y-130862833D01*
X108543404Y-130817656D01*
X108562183Y-130809034D01*
X108571452Y-130796088D01*
X108545312Y-130775706D01*
X108499068Y-130725869D01*
X108489750Y-130692149D01*
X108476506Y-130639142D01*
X108443284Y-130566073D01*
X108399848Y-130489075D01*
X108355961Y-130424279D01*
X108321387Y-130387820D01*
X108306934Y-130390072D01*
X108269039Y-130419535D01*
X108213341Y-130429000D01*
X108159105Y-130423291D01*
X108158662Y-130399309D01*
X108171515Y-130382260D01*
X108192732Y-130334770D01*
X108161795Y-130287010D01*
X108123834Y-130255337D01*
X108243961Y-130255337D01*
X108250319Y-130268137D01*
X108280594Y-130300962D01*
X108286163Y-130277813D01*
X108278456Y-130253005D01*
X108255081Y-130218428D01*
X108244523Y-130219143D01*
X108243961Y-130255337D01*
X108123834Y-130255337D01*
X108110189Y-130243953D01*
X108091834Y-130253745D01*
X108099550Y-130302000D01*
X108097433Y-130354026D01*
X108064828Y-130365500D01*
X108020247Y-130381257D01*
X108013500Y-130396645D01*
X107995528Y-130396645D01*
X107995522Y-130375404D01*
X107996205Y-130340929D01*
X107967251Y-130344703D01*
X107917192Y-130346465D01*
X107903742Y-130335962D01*
X107856528Y-130306926D01*
X107775024Y-130288363D01*
X107688057Y-130283773D01*
X107624453Y-130296655D01*
X107617562Y-130301222D01*
X107589245Y-130347354D01*
X107568444Y-130418936D01*
X107558866Y-130492529D01*
X107564222Y-130544690D01*
X107577249Y-130556000D01*
X107590404Y-130575744D01*
X107585280Y-130587093D01*
X107583267Y-130636997D01*
X107599257Y-130680211D01*
X107614201Y-130731139D01*
X107577641Y-130759286D01*
X107563040Y-130764266D01*
X107515245Y-130784330D01*
X107524677Y-130807970D01*
X107549089Y-130826850D01*
X107583521Y-130865978D01*
X107567350Y-130890394D01*
X107521358Y-130888436D01*
X107502436Y-130869630D01*
X107479327Y-130844800D01*
X107474236Y-130865873D01*
X107495968Y-130915380D01*
X107535623Y-130958849D01*
X107577238Y-131010610D01*
X107574960Y-131045248D01*
X107531269Y-131047191D01*
X107522048Y-131043990D01*
X107494164Y-131041026D01*
X107500750Y-131075260D01*
X107514215Y-131105336D01*
X107544277Y-131157758D01*
X107570414Y-131157093D01*
X107593544Y-131131897D01*
X107622254Y-131101736D01*
X107624797Y-131122729D01*
X107616752Y-131159250D01*
X107606656Y-131210542D01*
X107617643Y-131205580D01*
X107633491Y-131181400D01*
X107651356Y-131113399D01*
X107639637Y-131086150D01*
X107625720Y-131048125D01*
X107664250Y-131048125D01*
X107680125Y-131064000D01*
X107696000Y-131048125D01*
X107680125Y-131032250D01*
X107664250Y-131048125D01*
X107625720Y-131048125D01*
X107618597Y-131028664D01*
X107611653Y-130956451D01*
X107643413Y-130956451D01*
X107648375Y-130968750D01*
X107676905Y-130999038D01*
X107681998Y-131000500D01*
X107695635Y-130975935D01*
X107696000Y-130968750D01*
X107671592Y-130938220D01*
X107662376Y-130937000D01*
X107643413Y-130956451D01*
X107611653Y-130956451D01*
X107611152Y-130951246D01*
X107604679Y-130869445D01*
X107588773Y-130816308D01*
X107584186Y-130782637D01*
X107595558Y-130778250D01*
X107627213Y-130804576D01*
X107668593Y-130868817D01*
X107708697Y-130948864D01*
X107736523Y-131022609D01*
X107741070Y-131067944D01*
X107740372Y-131069263D01*
X107745112Y-131094657D01*
X107752529Y-131095750D01*
X107783924Y-131121759D01*
X107818419Y-131183062D01*
X107841821Y-131240632D01*
X107836644Y-131245091D01*
X107804357Y-131206875D01*
X107767641Y-131163849D01*
X107762373Y-131172544D01*
X107774230Y-131214812D01*
X107779235Y-131271390D01*
X107748736Y-131286250D01*
X107716087Y-131265556D01*
X107719535Y-131214812D01*
X107725944Y-131167001D01*
X107717280Y-131161177D01*
X107696237Y-131204329D01*
X107687861Y-131240552D01*
X107666177Y-131315373D01*
X107651637Y-131344859D01*
X107649902Y-131401969D01*
X107676368Y-131438975D01*
X107715355Y-131471411D01*
X107727711Y-131455942D01*
X107728236Y-131443866D01*
X107733485Y-131414062D01*
X107755974Y-131439589D01*
X107759500Y-131445000D01*
X107780567Y-131472756D01*
X107792323Y-131464158D01*
X107799843Y-131408675D01*
X107804158Y-131352350D01*
X107833086Y-131302650D01*
X107851428Y-131292648D01*
X107880264Y-131296559D01*
X107878249Y-131345551D01*
X107874465Y-131361625D01*
X107878181Y-131469352D01*
X107901846Y-131519112D01*
X107930883Y-131578905D01*
X107930772Y-131612393D01*
X107934632Y-131647979D01*
X107968666Y-131711657D01*
X107980432Y-131728900D01*
X108028190Y-131824340D01*
X108029381Y-131889478D01*
X107998698Y-131941850D01*
X107966058Y-131948603D01*
X107950032Y-131906456D01*
X107950000Y-131903501D01*
X107966472Y-131871368D01*
X107984372Y-131875245D01*
X107997390Y-131870237D01*
X107983510Y-131830060D01*
X107951962Y-131771768D01*
X107911977Y-131712412D01*
X107872786Y-131669044D01*
X107872718Y-131668987D01*
X107831945Y-131643996D01*
X107825805Y-131659525D01*
X107851770Y-131704599D01*
X107891916Y-131752390D01*
X107933361Y-131808819D01*
X107940292Y-131846079D01*
X107939213Y-131847369D01*
X107906509Y-131844199D01*
X107864257Y-131798128D01*
X107824645Y-131725918D01*
X107802873Y-131659827D01*
X107781444Y-131602517D01*
X107758346Y-131588588D01*
X107726673Y-131576151D01*
X107697645Y-131540250D01*
X107727750Y-131540250D01*
X107739366Y-131566383D01*
X107748916Y-131561416D01*
X107752268Y-131528174D01*
X107809886Y-131528174D01*
X107835349Y-131571558D01*
X107880597Y-131599569D01*
X107898325Y-131601243D01*
X107911789Y-131591869D01*
X107894437Y-131582722D01*
X107858393Y-131540878D01*
X107854750Y-131519855D01*
X107837953Y-131489579D01*
X107821458Y-131493577D01*
X107809886Y-131528174D01*
X107752268Y-131528174D01*
X107752716Y-131523736D01*
X107748916Y-131519083D01*
X107730041Y-131523441D01*
X107727750Y-131540250D01*
X107697645Y-131540250D01*
X107684708Y-131524250D01*
X107643985Y-131453048D01*
X107616041Y-131382713D01*
X107612394Y-131333449D01*
X107610504Y-131297395D01*
X107594752Y-131294568D01*
X107565194Y-131271608D01*
X107522406Y-131204193D01*
X107477776Y-131111625D01*
X107433505Y-131011513D01*
X107420652Y-130984625D01*
X107442000Y-130984625D01*
X107457875Y-131000500D01*
X107473750Y-130984625D01*
X107457875Y-130968750D01*
X107442000Y-130984625D01*
X107420652Y-130984625D01*
X107397814Y-130936850D01*
X107379443Y-130905250D01*
X107352891Y-130857625D01*
X107410250Y-130857625D01*
X107426125Y-130873500D01*
X107442000Y-130857625D01*
X107426125Y-130841750D01*
X107410250Y-130857625D01*
X107352891Y-130857625D01*
X107343330Y-130840476D01*
X107319256Y-130741419D01*
X107314580Y-130665301D01*
X107387645Y-130665301D01*
X107393360Y-130711553D01*
X107417984Y-130769288D01*
X107434498Y-130764726D01*
X107441758Y-130698690D01*
X107442000Y-130676650D01*
X107437757Y-130629249D01*
X107477379Y-130629249D01*
X107494916Y-130661833D01*
X107516983Y-130680014D01*
X107525212Y-130658892D01*
X107528520Y-130619500D01*
X107520033Y-130568075D01*
X107503526Y-130556000D01*
X107477819Y-130580002D01*
X107477379Y-130629249D01*
X107437757Y-130629249D01*
X107436126Y-130611031D01*
X107416458Y-130602130D01*
X107407096Y-130609953D01*
X107387645Y-130665301D01*
X107314580Y-130665301D01*
X107312839Y-130636972D01*
X107318252Y-130590564D01*
X107324143Y-130540125D01*
X107378500Y-130540125D01*
X107394375Y-130556000D01*
X107410250Y-130540125D01*
X107394375Y-130524250D01*
X107378500Y-130540125D01*
X107324143Y-130540125D01*
X107328578Y-130502164D01*
X107322971Y-130434753D01*
X107321968Y-130431814D01*
X107313773Y-130399015D01*
X107337135Y-130408378D01*
X107364617Y-130429000D01*
X107421649Y-130478468D01*
X107448211Y-130507455D01*
X107482977Y-130522056D01*
X107492396Y-130516186D01*
X107486550Y-130483261D01*
X107442240Y-130433571D01*
X107438560Y-130430438D01*
X107390026Y-130382908D01*
X107389461Y-130363626D01*
X107473750Y-130363626D01*
X107496797Y-130395957D01*
X107505500Y-130397250D01*
X107536424Y-130386417D01*
X107537250Y-130383248D01*
X107515001Y-130356141D01*
X107505500Y-130349625D01*
X107476242Y-130352142D01*
X107473750Y-130363626D01*
X107389461Y-130363626D01*
X107389141Y-130352713D01*
X107410250Y-130334881D01*
X107482593Y-130306920D01*
X107521375Y-130302000D01*
X107563273Y-130296411D01*
X107546541Y-130275515D01*
X107537250Y-130269118D01*
X107510489Y-130240424D01*
X107528678Y-130206750D01*
X107569000Y-130206750D01*
X107595592Y-130232546D01*
X107632500Y-130238500D01*
X107684092Y-130225203D01*
X107696000Y-130206750D01*
X107669407Y-130180953D01*
X107632500Y-130175000D01*
X107580907Y-130188296D01*
X107569000Y-130206750D01*
X107528678Y-130206750D01*
X107529119Y-130205934D01*
X107561062Y-130177203D01*
X107620538Y-130114627D01*
X107623384Y-130076376D01*
X107569985Y-130065113D01*
X107545187Y-130067137D01*
X107500429Y-130069915D01*
X107514877Y-130061540D01*
X107521375Y-130059652D01*
X107588446Y-130031590D01*
X107615037Y-130013168D01*
X107668120Y-129990463D01*
X107738825Y-129985746D01*
X107793467Y-129999893D01*
X107801918Y-130008312D01*
X107794100Y-130046448D01*
X107772042Y-130073064D01*
X107735901Y-130093228D01*
X107727750Y-130081001D01*
X107704344Y-130049163D01*
X107696000Y-130048000D01*
X107667832Y-130073716D01*
X107664250Y-130095625D01*
X107685722Y-130137802D01*
X107704237Y-130143250D01*
X107750617Y-130167561D01*
X107784582Y-130207871D01*
X107819463Y-130251308D01*
X107857544Y-130247543D01*
X107894533Y-130223746D01*
X107962117Y-130184678D01*
X107997746Y-130178470D01*
X107991994Y-130202634D01*
X107954420Y-130239556D01*
X107905122Y-130283007D01*
X107903360Y-130299446D01*
X107946482Y-130302000D01*
X108010175Y-130305393D01*
X108034148Y-130309937D01*
X108055580Y-130293635D01*
X108065201Y-130243469D01*
X108061022Y-130188312D01*
X108044563Y-130158700D01*
X108037403Y-130124291D01*
X108062393Y-130089820D01*
X108112779Y-130057583D01*
X108135153Y-130071693D01*
X108114399Y-130120321D01*
X108109386Y-130126607D01*
X108089712Y-130165579D01*
X108101465Y-130175000D01*
X108172250Y-130175000D01*
X108183866Y-130201133D01*
X108193416Y-130196166D01*
X108197216Y-130158486D01*
X108193416Y-130153833D01*
X108174541Y-130158191D01*
X108172250Y-130175000D01*
X108101465Y-130175000D01*
X108142689Y-130150194D01*
X108156750Y-130095639D01*
X108138555Y-130041129D01*
X108126353Y-130029462D01*
X108082848Y-129985212D01*
X108084811Y-129956690D01*
X108103087Y-129952750D01*
X108129551Y-129978472D01*
G37*
X108129551Y-129978472D02*
X108177847Y-130047151D01*
X108239298Y-130146052D01*
X108265721Y-130191401D01*
X108330294Y-130301116D01*
X108384942Y-130388238D01*
X108420869Y-130438963D01*
X108427817Y-130445843D01*
X108453291Y-130483817D01*
X108484521Y-130558264D01*
X108492034Y-130580254D01*
X108522165Y-130660072D01*
X108548578Y-130709800D01*
X108553420Y-130714750D01*
X108582032Y-130751486D01*
X108622060Y-130820423D01*
X108627409Y-130830716D01*
X108658755Y-130898867D01*
X108658405Y-130932199D01*
X108628545Y-130950047D01*
X108593756Y-130987438D01*
X108595099Y-131012773D01*
X108590181Y-131070827D01*
X108574846Y-131093203D01*
X108556059Y-131132206D01*
X108581197Y-131156900D01*
X108611850Y-131202752D01*
X108610356Y-131226056D01*
X108589381Y-131221553D01*
X108546519Y-131171450D01*
X108490156Y-131085967D01*
X108476552Y-131063041D01*
X108408613Y-130951755D01*
X108343687Y-130854323D01*
X108295396Y-130791144D01*
X108293928Y-130789537D01*
X108254927Y-130730243D01*
X108265112Y-130700350D01*
X108297502Y-130657209D01*
X108299250Y-130645488D01*
X108281859Y-130631417D01*
X108253602Y-130649609D01*
X108216940Y-130665234D01*
X108183092Y-130634975D01*
X108158023Y-130590937D01*
X108157344Y-130589957D01*
X108191566Y-130589957D01*
X108193961Y-130607384D01*
X108222434Y-130636271D01*
X108243834Y-130624115D01*
X108298119Y-130605389D01*
X108318993Y-130609502D01*
X108355913Y-130605781D01*
X108359250Y-130572467D01*
X108330715Y-130539949D01*
X108273642Y-130529337D01*
X108218665Y-130550245D01*
X108191566Y-130589957D01*
X108157344Y-130589957D01*
X108103960Y-130512975D01*
X108043289Y-130459706D01*
X108042458Y-130459256D01*
X107995532Y-130411876D01*
X107995528Y-130396645D01*
X108013500Y-130396645D01*
X108041443Y-130428241D01*
X108110333Y-130450402D01*
X108197759Y-130457940D01*
X108254504Y-130452428D01*
X108322924Y-130459069D01*
X108363693Y-130513707D01*
X108378975Y-130620830D01*
X108377117Y-130706976D01*
X108378419Y-130794074D01*
X108390978Y-130851058D01*
X108397796Y-130859662D01*
X108421974Y-130850232D01*
X108426250Y-130825875D01*
X108438984Y-130790022D01*
X108452969Y-130791015D01*
X108470185Y-130831193D01*
X108473948Y-130904014D01*
X108478070Y-130971291D01*
X108495960Y-131000465D01*
X108496728Y-131000500D01*
X108510913Y-131020253D01*
X108505625Y-131032250D01*
X108508142Y-131061507D01*
X108519626Y-131064000D01*
X108552061Y-131053824D01*
X108553250Y-131050191D01*
X108543170Y-131013600D01*
X108521595Y-130953127D01*
X108515325Y-130931671D01*
X108556952Y-130931671D01*
X108561614Y-130959436D01*
X108585000Y-130952875D01*
X108612625Y-130907564D01*
X108616263Y-130879563D01*
X108611125Y-130844031D01*
X108589176Y-130867110D01*
X108585000Y-130873500D01*
X108556952Y-130931671D01*
X108515325Y-130931671D01*
X108505079Y-130896617D01*
X108519267Y-130888537D01*
X108526991Y-130892768D01*
X108550739Y-130894180D01*
X108543767Y-130862833D01*
X108543404Y-130817656D01*
X108562183Y-130809034D01*
X108571452Y-130796088D01*
X108545312Y-130775706D01*
X108499068Y-130725869D01*
X108489750Y-130692149D01*
X108476506Y-130639142D01*
X108443284Y-130566073D01*
X108399848Y-130489075D01*
X108355961Y-130424279D01*
X108321387Y-130387820D01*
X108306934Y-130390072D01*
X108269039Y-130419535D01*
X108213341Y-130429000D01*
X108159105Y-130423291D01*
X108158662Y-130399309D01*
X108171515Y-130382260D01*
X108192732Y-130334770D01*
X108161795Y-130287010D01*
X108123834Y-130255337D01*
X108243961Y-130255337D01*
X108250319Y-130268137D01*
X108280594Y-130300962D01*
X108286163Y-130277813D01*
X108278456Y-130253005D01*
X108255081Y-130218428D01*
X108244523Y-130219143D01*
X108243961Y-130255337D01*
X108123834Y-130255337D01*
X108110189Y-130243953D01*
X108091834Y-130253745D01*
X108099550Y-130302000D01*
X108097433Y-130354026D01*
X108064828Y-130365500D01*
X108020247Y-130381257D01*
X108013500Y-130396645D01*
X107995528Y-130396645D01*
X107995522Y-130375404D01*
X107996205Y-130340929D01*
X107967251Y-130344703D01*
X107917192Y-130346465D01*
X107903742Y-130335962D01*
X107856528Y-130306926D01*
X107775024Y-130288363D01*
X107688057Y-130283773D01*
X107624453Y-130296655D01*
X107617562Y-130301222D01*
X107589245Y-130347354D01*
X107568444Y-130418936D01*
X107558866Y-130492529D01*
X107564222Y-130544690D01*
X107577249Y-130556000D01*
X107590404Y-130575744D01*
X107585280Y-130587093D01*
X107583267Y-130636997D01*
X107599257Y-130680211D01*
X107614201Y-130731139D01*
X107577641Y-130759286D01*
X107563040Y-130764266D01*
X107515245Y-130784330D01*
X107524677Y-130807970D01*
X107549089Y-130826850D01*
X107583521Y-130865978D01*
X107567350Y-130890394D01*
X107521358Y-130888436D01*
X107502436Y-130869630D01*
X107479327Y-130844800D01*
X107474236Y-130865873D01*
X107495968Y-130915380D01*
X107535623Y-130958849D01*
X107577238Y-131010610D01*
X107574960Y-131045248D01*
X107531269Y-131047191D01*
X107522048Y-131043990D01*
X107494164Y-131041026D01*
X107500750Y-131075260D01*
X107514215Y-131105336D01*
X107544277Y-131157758D01*
X107570414Y-131157093D01*
X107593544Y-131131897D01*
X107622254Y-131101736D01*
X107624797Y-131122729D01*
X107616752Y-131159250D01*
X107606656Y-131210542D01*
X107617643Y-131205580D01*
X107633491Y-131181400D01*
X107651356Y-131113399D01*
X107639637Y-131086150D01*
X107625720Y-131048125D01*
X107664250Y-131048125D01*
X107680125Y-131064000D01*
X107696000Y-131048125D01*
X107680125Y-131032250D01*
X107664250Y-131048125D01*
X107625720Y-131048125D01*
X107618597Y-131028664D01*
X107611653Y-130956451D01*
X107643413Y-130956451D01*
X107648375Y-130968750D01*
X107676905Y-130999038D01*
X107681998Y-131000500D01*
X107695635Y-130975935D01*
X107696000Y-130968750D01*
X107671592Y-130938220D01*
X107662376Y-130937000D01*
X107643413Y-130956451D01*
X107611653Y-130956451D01*
X107611152Y-130951246D01*
X107604679Y-130869445D01*
X107588773Y-130816308D01*
X107584186Y-130782637D01*
X107595558Y-130778250D01*
X107627213Y-130804576D01*
X107668593Y-130868817D01*
X107708697Y-130948864D01*
X107736523Y-131022609D01*
X107741070Y-131067944D01*
X107740372Y-131069263D01*
X107745112Y-131094657D01*
X107752529Y-131095750D01*
X107783924Y-131121759D01*
X107818419Y-131183062D01*
X107841821Y-131240632D01*
X107836644Y-131245091D01*
X107804357Y-131206875D01*
X107767641Y-131163849D01*
X107762373Y-131172544D01*
X107774230Y-131214812D01*
X107779235Y-131271390D01*
X107748736Y-131286250D01*
X107716087Y-131265556D01*
X107719535Y-131214812D01*
X107725944Y-131167001D01*
X107717280Y-131161177D01*
X107696237Y-131204329D01*
X107687861Y-131240552D01*
X107666177Y-131315373D01*
X107651637Y-131344859D01*
X107649902Y-131401969D01*
X107676368Y-131438975D01*
X107715355Y-131471411D01*
X107727711Y-131455942D01*
X107728236Y-131443866D01*
X107733485Y-131414062D01*
X107755974Y-131439589D01*
X107759500Y-131445000D01*
X107780567Y-131472756D01*
X107792323Y-131464158D01*
X107799843Y-131408675D01*
X107804158Y-131352350D01*
X107833086Y-131302650D01*
X107851428Y-131292648D01*
X107880264Y-131296559D01*
X107878249Y-131345551D01*
X107874465Y-131361625D01*
X107878181Y-131469352D01*
X107901846Y-131519112D01*
X107930883Y-131578905D01*
X107930772Y-131612393D01*
X107934632Y-131647979D01*
X107968666Y-131711657D01*
X107980432Y-131728900D01*
X108028190Y-131824340D01*
X108029381Y-131889478D01*
X107998698Y-131941850D01*
X107966058Y-131948603D01*
X107950032Y-131906456D01*
X107950000Y-131903501D01*
X107966472Y-131871368D01*
X107984372Y-131875245D01*
X107997390Y-131870237D01*
X107983510Y-131830060D01*
X107951962Y-131771768D01*
X107911977Y-131712412D01*
X107872786Y-131669044D01*
X107872718Y-131668987D01*
X107831945Y-131643996D01*
X107825805Y-131659525D01*
X107851770Y-131704599D01*
X107891916Y-131752390D01*
X107933361Y-131808819D01*
X107940292Y-131846079D01*
X107939213Y-131847369D01*
X107906509Y-131844199D01*
X107864257Y-131798128D01*
X107824645Y-131725918D01*
X107802873Y-131659827D01*
X107781444Y-131602517D01*
X107758346Y-131588588D01*
X107726673Y-131576151D01*
X107697645Y-131540250D01*
X107727750Y-131540250D01*
X107739366Y-131566383D01*
X107748916Y-131561416D01*
X107752268Y-131528174D01*
X107809886Y-131528174D01*
X107835349Y-131571558D01*
X107880597Y-131599569D01*
X107898325Y-131601243D01*
X107911789Y-131591869D01*
X107894437Y-131582722D01*
X107858393Y-131540878D01*
X107854750Y-131519855D01*
X107837953Y-131489579D01*
X107821458Y-131493577D01*
X107809886Y-131528174D01*
X107752268Y-131528174D01*
X107752716Y-131523736D01*
X107748916Y-131519083D01*
X107730041Y-131523441D01*
X107727750Y-131540250D01*
X107697645Y-131540250D01*
X107684708Y-131524250D01*
X107643985Y-131453048D01*
X107616041Y-131382713D01*
X107612394Y-131333449D01*
X107610504Y-131297395D01*
X107594752Y-131294568D01*
X107565194Y-131271608D01*
X107522406Y-131204193D01*
X107477776Y-131111625D01*
X107433505Y-131011513D01*
X107420652Y-130984625D01*
X107442000Y-130984625D01*
X107457875Y-131000500D01*
X107473750Y-130984625D01*
X107457875Y-130968750D01*
X107442000Y-130984625D01*
X107420652Y-130984625D01*
X107397814Y-130936850D01*
X107379443Y-130905250D01*
X107352891Y-130857625D01*
X107410250Y-130857625D01*
X107426125Y-130873500D01*
X107442000Y-130857625D01*
X107426125Y-130841750D01*
X107410250Y-130857625D01*
X107352891Y-130857625D01*
X107343330Y-130840476D01*
X107319256Y-130741419D01*
X107314580Y-130665301D01*
X107387645Y-130665301D01*
X107393360Y-130711553D01*
X107417984Y-130769288D01*
X107434498Y-130764726D01*
X107441758Y-130698690D01*
X107442000Y-130676650D01*
X107437757Y-130629249D01*
X107477379Y-130629249D01*
X107494916Y-130661833D01*
X107516983Y-130680014D01*
X107525212Y-130658892D01*
X107528520Y-130619500D01*
X107520033Y-130568075D01*
X107503526Y-130556000D01*
X107477819Y-130580002D01*
X107477379Y-130629249D01*
X107437757Y-130629249D01*
X107436126Y-130611031D01*
X107416458Y-130602130D01*
X107407096Y-130609953D01*
X107387645Y-130665301D01*
X107314580Y-130665301D01*
X107312839Y-130636972D01*
X107318252Y-130590564D01*
X107324143Y-130540125D01*
X107378500Y-130540125D01*
X107394375Y-130556000D01*
X107410250Y-130540125D01*
X107394375Y-130524250D01*
X107378500Y-130540125D01*
X107324143Y-130540125D01*
X107328578Y-130502164D01*
X107322971Y-130434753D01*
X107321968Y-130431814D01*
X107313773Y-130399015D01*
X107337135Y-130408378D01*
X107364617Y-130429000D01*
X107421649Y-130478468D01*
X107448211Y-130507455D01*
X107482977Y-130522056D01*
X107492396Y-130516186D01*
X107486550Y-130483261D01*
X107442240Y-130433571D01*
X107438560Y-130430438D01*
X107390026Y-130382908D01*
X107389461Y-130363626D01*
X107473750Y-130363626D01*
X107496797Y-130395957D01*
X107505500Y-130397250D01*
X107536424Y-130386417D01*
X107537250Y-130383248D01*
X107515001Y-130356141D01*
X107505500Y-130349625D01*
X107476242Y-130352142D01*
X107473750Y-130363626D01*
X107389461Y-130363626D01*
X107389141Y-130352713D01*
X107410250Y-130334881D01*
X107482593Y-130306920D01*
X107521375Y-130302000D01*
X107563273Y-130296411D01*
X107546541Y-130275515D01*
X107537250Y-130269118D01*
X107510489Y-130240424D01*
X107528678Y-130206750D01*
X107569000Y-130206750D01*
X107595592Y-130232546D01*
X107632500Y-130238500D01*
X107684092Y-130225203D01*
X107696000Y-130206750D01*
X107669407Y-130180953D01*
X107632500Y-130175000D01*
X107580907Y-130188296D01*
X107569000Y-130206750D01*
X107528678Y-130206750D01*
X107529119Y-130205934D01*
X107561062Y-130177203D01*
X107620538Y-130114627D01*
X107623384Y-130076376D01*
X107569985Y-130065113D01*
X107545187Y-130067137D01*
X107500429Y-130069915D01*
X107514877Y-130061540D01*
X107521375Y-130059652D01*
X107588446Y-130031590D01*
X107615037Y-130013168D01*
X107668120Y-129990463D01*
X107738825Y-129985746D01*
X107793467Y-129999893D01*
X107801918Y-130008312D01*
X107794100Y-130046448D01*
X107772042Y-130073064D01*
X107735901Y-130093228D01*
X107727750Y-130081001D01*
X107704344Y-130049163D01*
X107696000Y-130048000D01*
X107667832Y-130073716D01*
X107664250Y-130095625D01*
X107685722Y-130137802D01*
X107704237Y-130143250D01*
X107750617Y-130167561D01*
X107784582Y-130207871D01*
X107819463Y-130251308D01*
X107857544Y-130247543D01*
X107894533Y-130223746D01*
X107962117Y-130184678D01*
X107997746Y-130178470D01*
X107991994Y-130202634D01*
X107954420Y-130239556D01*
X107905122Y-130283007D01*
X107903360Y-130299446D01*
X107946482Y-130302000D01*
X108010175Y-130305393D01*
X108034148Y-130309937D01*
X108055580Y-130293635D01*
X108065201Y-130243469D01*
X108061022Y-130188312D01*
X108044563Y-130158700D01*
X108037403Y-130124291D01*
X108062393Y-130089820D01*
X108112779Y-130057583D01*
X108135153Y-130071693D01*
X108114399Y-130120321D01*
X108109386Y-130126607D01*
X108089712Y-130165579D01*
X108101465Y-130175000D01*
X108172250Y-130175000D01*
X108183866Y-130201133D01*
X108193416Y-130196166D01*
X108197216Y-130158486D01*
X108193416Y-130153833D01*
X108174541Y-130158191D01*
X108172250Y-130175000D01*
X108101465Y-130175000D01*
X108142689Y-130150194D01*
X108156750Y-130095639D01*
X108138555Y-130041129D01*
X108126353Y-130029462D01*
X108082848Y-129985212D01*
X108084811Y-129956690D01*
X108103087Y-129952750D01*
X108129551Y-129978472D01*
G36*
X108703010Y-130996913D02*
G01*
X108730759Y-131068942D01*
X108758005Y-131166145D01*
X108779044Y-131269830D01*
X108784574Y-131310062D01*
X108785501Y-131379968D01*
X108772186Y-131412879D01*
X108770001Y-131413250D01*
X108745201Y-131388326D01*
X108743750Y-131376208D01*
X108732373Y-131353369D01*
X108725338Y-131357578D01*
X108727761Y-131393875D01*
X108759210Y-131455780D01*
X108760073Y-131457102D01*
X108794140Y-131526481D01*
X108800451Y-131576519D01*
X108780464Y-131573641D01*
X108742933Y-131524986D01*
X108713803Y-131474349D01*
X108676577Y-131385593D01*
X108653295Y-131302125D01*
X108680250Y-131302125D01*
X108696125Y-131318000D01*
X108712000Y-131302125D01*
X108696125Y-131286250D01*
X108680250Y-131302125D01*
X108653295Y-131302125D01*
X108649076Y-131287001D01*
X108633357Y-131193916D01*
X108632820Y-131173251D01*
X108680250Y-131173251D01*
X108696826Y-131216692D01*
X108712000Y-131222750D01*
X108742841Y-131199962D01*
X108743750Y-131192873D01*
X108720670Y-131149873D01*
X108712000Y-131143375D01*
X108684818Y-131150572D01*
X108680250Y-131173251D01*
X108632820Y-131173251D01*
X108631477Y-131121681D01*
X108645493Y-131085638D01*
X108661946Y-131087500D01*
X108673733Y-131084989D01*
X108656712Y-131059235D01*
X108639803Y-131016375D01*
X108648500Y-131016375D01*
X108664375Y-131032250D01*
X108680250Y-131016375D01*
X108664375Y-131000500D01*
X108648500Y-131016375D01*
X108639803Y-131016375D01*
X108635218Y-131004756D01*
X108661350Y-130971534D01*
X108680459Y-130968750D01*
X108703010Y-130996913D01*
G37*
X108703010Y-130996913D02*
X108730759Y-131068942D01*
X108758005Y-131166145D01*
X108779044Y-131269830D01*
X108784574Y-131310062D01*
X108785501Y-131379968D01*
X108772186Y-131412879D01*
X108770001Y-131413250D01*
X108745201Y-131388326D01*
X108743750Y-131376208D01*
X108732373Y-131353369D01*
X108725338Y-131357578D01*
X108727761Y-131393875D01*
X108759210Y-131455780D01*
X108760073Y-131457102D01*
X108794140Y-131526481D01*
X108800451Y-131576519D01*
X108780464Y-131573641D01*
X108742933Y-131524986D01*
X108713803Y-131474349D01*
X108676577Y-131385593D01*
X108653295Y-131302125D01*
X108680250Y-131302125D01*
X108696125Y-131318000D01*
X108712000Y-131302125D01*
X108696125Y-131286250D01*
X108680250Y-131302125D01*
X108653295Y-131302125D01*
X108649076Y-131287001D01*
X108633357Y-131193916D01*
X108632820Y-131173251D01*
X108680250Y-131173251D01*
X108696826Y-131216692D01*
X108712000Y-131222750D01*
X108742841Y-131199962D01*
X108743750Y-131192873D01*
X108720670Y-131149873D01*
X108712000Y-131143375D01*
X108684818Y-131150572D01*
X108680250Y-131173251D01*
X108632820Y-131173251D01*
X108631477Y-131121681D01*
X108645493Y-131085638D01*
X108661946Y-131087500D01*
X108673733Y-131084989D01*
X108656712Y-131059235D01*
X108639803Y-131016375D01*
X108648500Y-131016375D01*
X108664375Y-131032250D01*
X108680250Y-131016375D01*
X108664375Y-131000500D01*
X108648500Y-131016375D01*
X108639803Y-131016375D01*
X108635218Y-131004756D01*
X108661350Y-130971534D01*
X108680459Y-130968750D01*
X108703010Y-130996913D01*
G36*
X107759145Y-131340910D02*
G01*
X107787626Y-131371744D01*
X107778554Y-131404779D01*
X107761512Y-131397807D01*
X107759013Y-131378854D01*
X107753159Y-131350486D01*
X107731232Y-131376952D01*
X107698611Y-131399996D01*
X107684276Y-131388216D01*
X107690648Y-131351612D01*
X107711040Y-131338588D01*
X107759145Y-131340910D01*
G37*
X107759145Y-131340910D02*
X107787626Y-131371744D01*
X107778554Y-131404779D01*
X107761512Y-131397807D01*
X107759013Y-131378854D01*
X107753159Y-131350486D01*
X107731232Y-131376952D01*
X107698611Y-131399996D01*
X107684276Y-131388216D01*
X107690648Y-131351612D01*
X107711040Y-131338588D01*
X107759145Y-131340910D01*
G36*
X107823707Y-130562456D02*
G01*
X107848040Y-130578366D01*
X107924005Y-130656076D01*
X108006749Y-130771872D01*
X108083079Y-130903566D01*
X108139801Y-131028967D01*
X108161556Y-131105657D01*
X108169843Y-131182666D01*
X108155724Y-131215765D01*
X108112834Y-131222750D01*
X108052769Y-131200653D01*
X107975218Y-131144354D01*
X107933088Y-131103984D01*
X107854943Y-131007240D01*
X107778843Y-130890043D01*
X107715096Y-130771080D01*
X107674011Y-130669037D01*
X107664250Y-130616662D01*
X107688045Y-130559588D01*
X107747276Y-130540253D01*
X107823707Y-130562456D01*
G37*
X107823707Y-130562456D02*
X107848040Y-130578366D01*
X107924005Y-130656076D01*
X108006749Y-130771872D01*
X108083079Y-130903566D01*
X108139801Y-131028967D01*
X108161556Y-131105657D01*
X108169843Y-131182666D01*
X108155724Y-131215765D01*
X108112834Y-131222750D01*
X108052769Y-131200653D01*
X107975218Y-131144354D01*
X107933088Y-131103984D01*
X107854943Y-131007240D01*
X107778843Y-130890043D01*
X107715096Y-130771080D01*
X107674011Y-130669037D01*
X107664250Y-130616662D01*
X107688045Y-130559588D01*
X107747276Y-130540253D01*
X107823707Y-130562456D01*
G36*
X107600750Y-131079875D02*
G01*
X107584875Y-131095750D01*
X107569000Y-131079875D01*
X107584875Y-131064000D01*
X107600750Y-131079875D01*
G37*
X107600750Y-131079875D02*
X107584875Y-131095750D01*
X107569000Y-131079875D01*
X107584875Y-131064000D01*
X107600750Y-131079875D01*
G36*
X107272666Y-130566583D02*
G01*
X107276466Y-130604263D01*
X107272666Y-130608916D01*
X107253791Y-130604558D01*
X107251500Y-130587750D01*
X107263116Y-130561616D01*
X107272666Y-130566583D01*
G37*
X107272666Y-130566583D02*
X107276466Y-130604263D01*
X107272666Y-130608916D01*
X107253791Y-130604558D01*
X107251500Y-130587750D01*
X107263116Y-130561616D01*
X107272666Y-130566583D01*
G36*
X107502502Y-129376629D02*
G01*
X107564201Y-129404059D01*
X107638496Y-129450844D01*
X107730147Y-129524983D01*
X107826254Y-129613729D01*
X107913918Y-129704337D01*
X107980240Y-129784058D01*
X108012319Y-129840146D01*
X108013500Y-129848031D01*
X108030908Y-129886022D01*
X108041891Y-129889250D01*
X108061633Y-129916286D01*
X108065703Y-129968602D01*
X108051136Y-130034468D01*
X108021817Y-130042829D01*
X107995431Y-130012700D01*
X107997572Y-129967806D01*
X108012822Y-129953168D01*
X108032703Y-129922458D01*
X108019601Y-129908895D01*
X107982522Y-129913727D01*
X107973750Y-129928739D01*
X107953021Y-129952522D01*
X107911246Y-129928127D01*
X107868785Y-129905182D01*
X107843763Y-129935708D01*
X107841920Y-129940386D01*
X107822037Y-129975508D01*
X107791923Y-129965028D01*
X107764275Y-129941196D01*
X107686825Y-129895917D01*
X107619690Y-129899134D01*
X107579038Y-129949789D01*
X107578024Y-129953419D01*
X107555087Y-129996381D01*
X107521204Y-129984358D01*
X107481464Y-129971728D01*
X107462579Y-129999564D01*
X107421876Y-130042281D01*
X107398129Y-130048000D01*
X107370256Y-130037087D01*
X107371650Y-129993815D01*
X107386071Y-129944812D01*
X107412239Y-129862439D01*
X107429450Y-129803847D01*
X107429942Y-129801937D01*
X107465628Y-129766329D01*
X107487632Y-129762250D01*
X107520861Y-129783608D01*
X107518214Y-129806663D01*
X107518203Y-129855800D01*
X107528663Y-129868068D01*
X107579329Y-129870474D01*
X107620231Y-129824235D01*
X107638373Y-129744123D01*
X107638393Y-129743336D01*
X107638110Y-129642523D01*
X107628956Y-129590455D01*
X107607458Y-129572606D01*
X107597353Y-129571750D01*
X107576123Y-129594845D01*
X107580481Y-129619375D01*
X107575551Y-129658013D01*
X107532811Y-129667000D01*
X107486012Y-129655635D01*
X107481713Y-129609736D01*
X107485878Y-129591248D01*
X107487056Y-129554562D01*
X107674833Y-129554562D01*
X107697141Y-129583157D01*
X107725104Y-129579214D01*
X107757332Y-129571336D01*
X107747155Y-129593633D01*
X107724029Y-129621928D01*
X107677428Y-129699412D01*
X107681150Y-129753759D01*
X107733116Y-129775820D01*
X107758737Y-129774669D01*
X107848183Y-129790819D01*
X107887454Y-129827074D01*
X107933637Y-129876916D01*
X107963772Y-129886120D01*
X107965146Y-129852187D01*
X107961481Y-129841625D01*
X107929284Y-129799586D01*
X107912979Y-129794000D01*
X107898480Y-129773768D01*
X107905406Y-129757344D01*
X107909169Y-129735321D01*
X107895015Y-129741112D01*
X107862644Y-129732016D01*
X107844621Y-129695198D01*
X107816614Y-129649335D01*
X107787991Y-129653138D01*
X107762046Y-129657289D01*
X107768797Y-129625067D01*
X107762189Y-129567556D01*
X107731859Y-129542199D01*
X107685837Y-129528728D01*
X107674833Y-129554562D01*
X107487056Y-129554562D01*
X107487877Y-129529029D01*
X107444853Y-129499825D01*
X107441651Y-129498959D01*
X107398870Y-129496954D01*
X107396204Y-129511210D01*
X107389995Y-129537898D01*
X107377727Y-129540000D01*
X107352333Y-129562644D01*
X107354410Y-129578855D01*
X107350403Y-129633533D01*
X107325699Y-129697917D01*
X107303853Y-129757835D01*
X107310220Y-129786983D01*
X107321130Y-129820493D01*
X107319461Y-129895775D01*
X107313316Y-129945733D01*
X107302211Y-130038183D01*
X107300239Y-130102638D01*
X107303132Y-130117243D01*
X107293501Y-130150556D01*
X107281259Y-130160355D01*
X107261723Y-130208027D01*
X107264387Y-130309369D01*
X107267845Y-130337174D01*
X107276355Y-130441013D01*
X107267944Y-130487601D01*
X107246729Y-130479603D01*
X107216824Y-130419682D01*
X107182344Y-130310504D01*
X107173565Y-130276127D01*
X107148615Y-130146179D01*
X107134713Y-130014549D01*
X107131899Y-129895660D01*
X107140212Y-129803932D01*
X107159692Y-129753788D01*
X107172125Y-129748632D01*
X107201718Y-129777344D01*
X107211542Y-129812132D01*
X107215113Y-129853680D01*
X107203893Y-129837739D01*
X107191505Y-129809875D01*
X107173908Y-129781546D01*
X107165056Y-129805444D01*
X107162334Y-129873375D01*
X107165328Y-130006509D01*
X107176364Y-130108749D01*
X107193484Y-130170240D01*
X107214732Y-130181129D01*
X107221779Y-130172803D01*
X107243769Y-130106297D01*
X107248782Y-130048000D01*
X107245320Y-129995086D01*
X107233669Y-130001601D01*
X107219750Y-130032125D01*
X107198371Y-130068258D01*
X107189847Y-130055436D01*
X107193805Y-130006811D01*
X107209876Y-129935535D01*
X107223718Y-129891512D01*
X107243469Y-129791973D01*
X107222529Y-129708047D01*
X107200869Y-129644043D01*
X107202004Y-129610662D01*
X107223990Y-129623371D01*
X107248805Y-129670327D01*
X107271613Y-129714257D01*
X107281013Y-129697139D01*
X107281237Y-129692686D01*
X107264951Y-129634382D01*
X107248734Y-129617665D01*
X107227042Y-129573365D01*
X107229886Y-129536416D01*
X107227354Y-129487661D01*
X107208840Y-129476290D01*
X107207500Y-129461508D01*
X107215117Y-129454952D01*
X107282149Y-129454952D01*
X107309515Y-129466857D01*
X107354752Y-129450795D01*
X107361847Y-129445395D01*
X107409198Y-129422612D01*
X107464489Y-129443582D01*
X107481677Y-129455080D01*
X107551029Y-129494781D01*
X107598474Y-129507368D01*
X107611750Y-129492560D01*
X107586242Y-129457456D01*
X107525146Y-129424734D01*
X107437511Y-129405647D01*
X107351570Y-129403571D01*
X107295559Y-129421881D01*
X107294806Y-129422610D01*
X107282149Y-129454952D01*
X107215117Y-129454952D01*
X107249862Y-129425049D01*
X107267375Y-129413000D01*
X107350251Y-129365828D01*
X107419855Y-129353969D01*
X107502502Y-129376629D01*
G37*
X107502502Y-129376629D02*
X107564201Y-129404059D01*
X107638496Y-129450844D01*
X107730147Y-129524983D01*
X107826254Y-129613729D01*
X107913918Y-129704337D01*
X107980240Y-129784058D01*
X108012319Y-129840146D01*
X108013500Y-129848031D01*
X108030908Y-129886022D01*
X108041891Y-129889250D01*
X108061633Y-129916286D01*
X108065703Y-129968602D01*
X108051136Y-130034468D01*
X108021817Y-130042829D01*
X107995431Y-130012700D01*
X107997572Y-129967806D01*
X108012822Y-129953168D01*
X108032703Y-129922458D01*
X108019601Y-129908895D01*
X107982522Y-129913727D01*
X107973750Y-129928739D01*
X107953021Y-129952522D01*
X107911246Y-129928127D01*
X107868785Y-129905182D01*
X107843763Y-129935708D01*
X107841920Y-129940386D01*
X107822037Y-129975508D01*
X107791923Y-129965028D01*
X107764275Y-129941196D01*
X107686825Y-129895917D01*
X107619690Y-129899134D01*
X107579038Y-129949789D01*
X107578024Y-129953419D01*
X107555087Y-129996381D01*
X107521204Y-129984358D01*
X107481464Y-129971728D01*
X107462579Y-129999564D01*
X107421876Y-130042281D01*
X107398129Y-130048000D01*
X107370256Y-130037087D01*
X107371650Y-129993815D01*
X107386071Y-129944812D01*
X107412239Y-129862439D01*
X107429450Y-129803847D01*
X107429942Y-129801937D01*
X107465628Y-129766329D01*
X107487632Y-129762250D01*
X107520861Y-129783608D01*
X107518214Y-129806663D01*
X107518203Y-129855800D01*
X107528663Y-129868068D01*
X107579329Y-129870474D01*
X107620231Y-129824235D01*
X107638373Y-129744123D01*
X107638393Y-129743336D01*
X107638110Y-129642523D01*
X107628956Y-129590455D01*
X107607458Y-129572606D01*
X107597353Y-129571750D01*
X107576123Y-129594845D01*
X107580481Y-129619375D01*
X107575551Y-129658013D01*
X107532811Y-129667000D01*
X107486012Y-129655635D01*
X107481713Y-129609736D01*
X107485878Y-129591248D01*
X107487056Y-129554562D01*
X107674833Y-129554562D01*
X107697141Y-129583157D01*
X107725104Y-129579214D01*
X107757332Y-129571336D01*
X107747155Y-129593633D01*
X107724029Y-129621928D01*
X107677428Y-129699412D01*
X107681150Y-129753759D01*
X107733116Y-129775820D01*
X107758737Y-129774669D01*
X107848183Y-129790819D01*
X107887454Y-129827074D01*
X107933637Y-129876916D01*
X107963772Y-129886120D01*
X107965146Y-129852187D01*
X107961481Y-129841625D01*
X107929284Y-129799586D01*
X107912979Y-129794000D01*
X107898480Y-129773768D01*
X107905406Y-129757344D01*
X107909169Y-129735321D01*
X107895015Y-129741112D01*
X107862644Y-129732016D01*
X107844621Y-129695198D01*
X107816614Y-129649335D01*
X107787991Y-129653138D01*
X107762046Y-129657289D01*
X107768797Y-129625067D01*
X107762189Y-129567556D01*
X107731859Y-129542199D01*
X107685837Y-129528728D01*
X107674833Y-129554562D01*
X107487056Y-129554562D01*
X107487877Y-129529029D01*
X107444853Y-129499825D01*
X107441651Y-129498959D01*
X107398870Y-129496954D01*
X107396204Y-129511210D01*
X107389995Y-129537898D01*
X107377727Y-129540000D01*
X107352333Y-129562644D01*
X107354410Y-129578855D01*
X107350403Y-129633533D01*
X107325699Y-129697917D01*
X107303853Y-129757835D01*
X107310220Y-129786983D01*
X107321130Y-129820493D01*
X107319461Y-129895775D01*
X107313316Y-129945733D01*
X107302211Y-130038183D01*
X107300239Y-130102638D01*
X107303132Y-130117243D01*
X107293501Y-130150556D01*
X107281259Y-130160355D01*
X107261723Y-130208027D01*
X107264387Y-130309369D01*
X107267845Y-130337174D01*
X107276355Y-130441013D01*
X107267944Y-130487601D01*
X107246729Y-130479603D01*
X107216824Y-130419682D01*
X107182344Y-130310504D01*
X107173565Y-130276127D01*
X107148615Y-130146179D01*
X107134713Y-130014549D01*
X107131899Y-129895660D01*
X107140212Y-129803932D01*
X107159692Y-129753788D01*
X107172125Y-129748632D01*
X107201718Y-129777344D01*
X107211542Y-129812132D01*
X107215113Y-129853680D01*
X107203893Y-129837739D01*
X107191505Y-129809875D01*
X107173908Y-129781546D01*
X107165056Y-129805444D01*
X107162334Y-129873375D01*
X107165328Y-130006509D01*
X107176364Y-130108749D01*
X107193484Y-130170240D01*
X107214732Y-130181129D01*
X107221779Y-130172803D01*
X107243769Y-130106297D01*
X107248782Y-130048000D01*
X107245320Y-129995086D01*
X107233669Y-130001601D01*
X107219750Y-130032125D01*
X107198371Y-130068258D01*
X107189847Y-130055436D01*
X107193805Y-130006811D01*
X107209876Y-129935535D01*
X107223718Y-129891512D01*
X107243469Y-129791973D01*
X107222529Y-129708047D01*
X107200869Y-129644043D01*
X107202004Y-129610662D01*
X107223990Y-129623371D01*
X107248805Y-129670327D01*
X107271613Y-129714257D01*
X107281013Y-129697139D01*
X107281237Y-129692686D01*
X107264951Y-129634382D01*
X107248734Y-129617665D01*
X107227042Y-129573365D01*
X107229886Y-129536416D01*
X107227354Y-129487661D01*
X107208840Y-129476290D01*
X107207500Y-129461508D01*
X107215117Y-129454952D01*
X107282149Y-129454952D01*
X107309515Y-129466857D01*
X107354752Y-129450795D01*
X107361847Y-129445395D01*
X107409198Y-129422612D01*
X107464489Y-129443582D01*
X107481677Y-129455080D01*
X107551029Y-129494781D01*
X107598474Y-129507368D01*
X107611750Y-129492560D01*
X107586242Y-129457456D01*
X107525146Y-129424734D01*
X107437511Y-129405647D01*
X107351570Y-129403571D01*
X107295559Y-129421881D01*
X107294806Y-129422610D01*
X107282149Y-129454952D01*
X107215117Y-129454952D01*
X107249862Y-129425049D01*
X107267375Y-129413000D01*
X107350251Y-129365828D01*
X107419855Y-129353969D01*
X107502502Y-129376629D01*
G36*
X107465457Y-130219624D02*
G01*
X107469487Y-130253884D01*
X107435849Y-130280766D01*
X107393358Y-130281341D01*
X107353207Y-130283287D01*
X107346750Y-130298603D01*
X107324534Y-130332121D01*
X107315000Y-130333750D01*
X107284295Y-130309482D01*
X107283250Y-130301214D01*
X107309046Y-130269729D01*
X107367312Y-130237278D01*
X107429363Y-130216707D01*
X107465457Y-130219624D01*
G37*
X107465457Y-130219624D02*
X107469487Y-130253884D01*
X107435849Y-130280766D01*
X107393358Y-130281341D01*
X107353207Y-130283287D01*
X107346750Y-130298603D01*
X107324534Y-130332121D01*
X107315000Y-130333750D01*
X107284295Y-130309482D01*
X107283250Y-130301214D01*
X107309046Y-130269729D01*
X107367312Y-130237278D01*
X107429363Y-130216707D01*
X107465457Y-130219624D01*
G36*
X107818087Y-130104637D02*
G01*
X107865266Y-130129650D01*
X107896975Y-130125053D01*
X107941044Y-130122153D01*
X107950000Y-130136150D01*
X107923937Y-130167365D01*
X107868486Y-130188261D01*
X107817756Y-130187717D01*
X107808963Y-130182130D01*
X107793370Y-130138294D01*
X107791736Y-130114145D01*
X107798716Y-130083315D01*
X107818087Y-130104637D01*
G37*
X107818087Y-130104637D02*
X107865266Y-130129650D01*
X107896975Y-130125053D01*
X107941044Y-130122153D01*
X107950000Y-130136150D01*
X107923937Y-130167365D01*
X107868486Y-130188261D01*
X107817756Y-130187717D01*
X107808963Y-130182130D01*
X107793370Y-130138294D01*
X107791736Y-130114145D01*
X107798716Y-130083315D01*
X107818087Y-130104637D01*
G36*
X107433537Y-130126533D02*
G01*
X107442000Y-130143250D01*
X107437123Y-130170973D01*
X107409638Y-130162728D01*
X107378500Y-130143250D01*
X107349311Y-130118644D01*
X107379319Y-130112088D01*
X107386437Y-130111986D01*
X107433537Y-130126533D01*
G37*
X107433537Y-130126533D02*
X107442000Y-130143250D01*
X107437123Y-130170973D01*
X107409638Y-130162728D01*
X107378500Y-130143250D01*
X107349311Y-130118644D01*
X107379319Y-130112088D01*
X107386437Y-130111986D01*
X107433537Y-130126533D01*
G36*
X107917811Y-129978017D02*
G01*
X107929731Y-130000375D01*
X107942083Y-130040405D01*
X107941066Y-130045493D01*
X107910032Y-130033243D01*
X107894437Y-130026972D01*
X107859715Y-129995561D01*
X107860372Y-129961938D01*
X107883103Y-129952750D01*
X107917811Y-129978017D01*
G37*
X107917811Y-129978017D02*
X107929731Y-130000375D01*
X107942083Y-130040405D01*
X107941066Y-130045493D01*
X107910032Y-130033243D01*
X107894437Y-130026972D01*
X107859715Y-129995561D01*
X107860372Y-129961938D01*
X107883103Y-129952750D01*
X107917811Y-129978017D01*
G36*
X107600750Y-129746375D02*
G01*
X107584875Y-129762250D01*
X107569000Y-129746375D01*
X107584875Y-129730500D01*
X107600750Y-129746375D01*
G37*
X107600750Y-129746375D02*
X107584875Y-129762250D01*
X107569000Y-129746375D01*
X107584875Y-129730500D01*
X107600750Y-129746375D01*
G36*
X107185526Y-129531959D02*
G01*
X107185282Y-129540000D01*
X107171616Y-129608065D01*
X107156250Y-129651125D01*
X107128963Y-129714625D01*
X107127217Y-129651125D01*
X107140815Y-129573180D01*
X107156250Y-129540000D01*
X107180734Y-129508396D01*
X107185526Y-129531959D01*
G37*
X107185526Y-129531959D02*
X107185282Y-129540000D01*
X107171616Y-129608065D01*
X107156250Y-129651125D01*
X107128963Y-129714625D01*
X107127217Y-129651125D01*
X107140815Y-129573180D01*
X107156250Y-129540000D01*
X107180734Y-129508396D01*
X107185526Y-129531959D01*
G36*
X108294344Y-132092843D02*
G01*
X108328429Y-132124812D01*
X108321437Y-132143190D01*
X108316998Y-132143500D01*
X108290144Y-132120948D01*
X108280343Y-132106844D01*
X108276600Y-132085117D01*
X108294344Y-132092843D01*
G37*
X108294344Y-132092843D02*
X108328429Y-132124812D01*
X108321437Y-132143190D01*
X108316998Y-132143500D01*
X108290144Y-132120948D01*
X108280343Y-132106844D01*
X108276600Y-132085117D01*
X108294344Y-132092843D01*
G36*
X108457077Y-130675410D02*
G01*
X108458000Y-130683000D01*
X108433839Y-130713827D01*
X108426250Y-130714750D01*
X108395422Y-130690589D01*
X108394500Y-130683000D01*
X108418660Y-130652172D01*
X108426250Y-130651250D01*
X108457077Y-130675410D01*
G37*
X108457077Y-130675410D02*
X108458000Y-130683000D01*
X108433839Y-130713827D01*
X108426250Y-130714750D01*
X108395422Y-130690589D01*
X108394500Y-130683000D01*
X108418660Y-130652172D01*
X108426250Y-130651250D01*
X108457077Y-130675410D01*
G36*
X107753611Y-129675286D02*
G01*
X107798684Y-129695532D01*
X107800239Y-129721118D01*
X107780611Y-129757625D01*
X107754574Y-129745471D01*
X107729237Y-129716417D01*
X107710141Y-129681521D01*
X107745027Y-129674727D01*
X107753611Y-129675286D01*
G37*
X107753611Y-129675286D02*
X107798684Y-129695532D01*
X107800239Y-129721118D01*
X107780611Y-129757625D01*
X107754574Y-129745471D01*
X107729237Y-129716417D01*
X107710141Y-129681521D01*
X107745027Y-129674727D01*
X107753611Y-129675286D01*
D13*
%TO.C,U2*%
X98711155Y-80645000D02*
G75*
G03*
X98711155Y-80645000I-206155J0D01*
G01*
X96410000Y-76275000D02*
X96410000Y-74820000D01*
X96410000Y-74820000D02*
X97865000Y-74820000D01*
X110600000Y-85015000D02*
X110600000Y-86470000D01*
X110600000Y-86470000D02*
X109145000Y-86470000D01*
X110600000Y-76275000D02*
X110600000Y-74820000D01*
X110600000Y-74820000D02*
X109145000Y-74820000D01*
X96410000Y-85015000D02*
X96410000Y-85297782D01*
X96410000Y-85297782D02*
X97582218Y-86470000D01*
X97582218Y-86470000D02*
X97865000Y-86470000D01*
%TO.C,U1*%
X98711155Y-108585000D02*
G75*
G03*
X98711155Y-108585000I-206155J0D01*
G01*
X96410000Y-104215000D02*
X96410000Y-102760000D01*
X96410000Y-102760000D02*
X97865000Y-102760000D01*
X110600000Y-112955000D02*
X110600000Y-114410000D01*
X110600000Y-114410000D02*
X109145000Y-114410000D01*
X110600000Y-104215000D02*
X110600000Y-102760000D01*
X110600000Y-102760000D02*
X109145000Y-102760000D01*
X96410000Y-112955000D02*
X96410000Y-113237782D01*
X96410000Y-113237782D02*
X97582218Y-114410000D01*
X97582218Y-114410000D02*
X97865000Y-114410000D01*
D11*
%TO.C,U3*%
X86445000Y-96435000D02*
X84795000Y-96435000D01*
X86445000Y-98085000D02*
X86445000Y-96435000D01*
X86445000Y-114385000D02*
X84795000Y-114385000D01*
X86445000Y-112735000D02*
X86445000Y-114385000D01*
X68495000Y-96435000D02*
X70145000Y-96435000D01*
X68495000Y-98085000D02*
X68495000Y-96435000D01*
X69645000Y-114385000D02*
X70145000Y-114385000D01*
X68495000Y-113235000D02*
X69645000Y-114385000D01*
X68495000Y-112735000D02*
X68495000Y-113235000D01*
D13*
X65680000Y-93620000D02*
X65680000Y-104410000D01*
X89260000Y-93620000D02*
X65680000Y-93620000D01*
X89260000Y-117200000D02*
X89260000Y-93620000D01*
X66680000Y-117200000D02*
X89260000Y-117200000D01*
X65680000Y-116200000D02*
X66680000Y-117200000D01*
X65680000Y-106410000D02*
X65680000Y-116200000D01*
X67270000Y-105410000D02*
G75*
G03*
X67270000Y-105410000I-400000J0D01*
G01*
%TO.C,R13*%
X74702936Y-137895000D02*
X75157064Y-137895000D01*
X74702936Y-136425000D02*
X75157064Y-136425000D01*
%TO.C,R12*%
X74702936Y-127735000D02*
X75157064Y-127735000D01*
X74702936Y-126265000D02*
X75157064Y-126265000D01*
%TO.C,R11*%
X74702936Y-132815000D02*
X75157064Y-132815000D01*
X74702936Y-131345000D02*
X75157064Y-131345000D01*
%TO.C,R2*%
X69750000Y-84862936D02*
X69750000Y-85317064D01*
X71220000Y-84862936D02*
X71220000Y-85317064D01*
%TO.C,R1*%
X69750000Y-75972936D02*
X69750000Y-76427064D01*
X71220000Y-75972936D02*
X71220000Y-76427064D01*
D14*
%TO.C,J3*%
X64180000Y-142180000D02*
X72980000Y-142180000D01*
X64180000Y-121980000D02*
X64180000Y-142180000D01*
X72980000Y-121980000D02*
X64180000Y-121980000D01*
X72980000Y-142180000D02*
X72980000Y-121980000D01*
D13*
X71180000Y-125670000D02*
X65980000Y-125670000D01*
X71180000Y-135890000D02*
X71180000Y-125670000D01*
X65980000Y-138490000D02*
X65980000Y-125670000D01*
X71180000Y-135890000D02*
X68580000Y-135890000D01*
X68580000Y-135890000D02*
X68580000Y-138490000D01*
X68580000Y-138490000D02*
X65980000Y-138490000D01*
X71180000Y-137160000D02*
X71180000Y-138490000D01*
X71180000Y-138490000D02*
X69850000Y-138490000D01*
D14*
X72980000Y-134330000D02*
X71830000Y-134330000D01*
X71830000Y-134330000D02*
X71830000Y-129830000D01*
X71830000Y-129830000D02*
X72980000Y-129830000D01*
D13*
%TO.C,C3*%
X77208748Y-121385000D02*
X77731252Y-121385000D01*
X77208748Y-119915000D02*
X77731252Y-119915000D01*
%TO.C,C2*%
X94876252Y-91975000D02*
X94353748Y-91975000D01*
X94876252Y-93445000D02*
X94353748Y-93445000D01*
%TO.C,C1*%
X94876252Y-119915000D02*
X94353748Y-119915000D01*
X94876252Y-121385000D02*
X94353748Y-121385000D01*
%TO.C,J1*%
D10*
X89266666Y-144952380D02*
X89266666Y-145666666D01*
X89219047Y-145809523D01*
X89123809Y-145904761D01*
X88980952Y-145952380D01*
X88885714Y-145952380D01*
X90266666Y-145952380D02*
X89695238Y-145952380D01*
X89980952Y-145952380D02*
X89980952Y-144952380D01*
X89885714Y-145095238D01*
X89790476Y-145190476D01*
X89695238Y-145238095D01*
X111990476Y-146452380D02*
X112609523Y-146452380D01*
X112276190Y-146833333D01*
X112419047Y-146833333D01*
X112514285Y-146880952D01*
X112561904Y-146928571D01*
X112609523Y-147023809D01*
X112609523Y-147261904D01*
X112561904Y-147357142D01*
X112514285Y-147404761D01*
X112419047Y-147452380D01*
X112133333Y-147452380D01*
X112038095Y-147404761D01*
X111990476Y-147357142D01*
X112990476Y-146547619D02*
X113038095Y-146500000D01*
X113133333Y-146452380D01*
X113371428Y-146452380D01*
X113466666Y-146500000D01*
X113514285Y-146547619D01*
X113561904Y-146642857D01*
X113561904Y-146738095D01*
X113514285Y-146880952D01*
X112942857Y-147452380D01*
X113561904Y-147452380D01*
X66185714Y-147452380D02*
X65614285Y-147452380D01*
X65900000Y-147452380D02*
X65900000Y-146452380D01*
X65804761Y-146595238D01*
X65709523Y-146690476D01*
X65614285Y-146738095D01*
%TO.C,U2*%
X91957380Y-81406904D02*
X92766904Y-81406904D01*
X92862142Y-81359285D01*
X92909761Y-81311666D01*
X92957380Y-81216428D01*
X92957380Y-81025952D01*
X92909761Y-80930714D01*
X92862142Y-80883095D01*
X92766904Y-80835476D01*
X91957380Y-80835476D01*
X92052619Y-80406904D02*
X92005000Y-80359285D01*
X91957380Y-80264047D01*
X91957380Y-80025952D01*
X92005000Y-79930714D01*
X92052619Y-79883095D01*
X92147857Y-79835476D01*
X92243095Y-79835476D01*
X92385952Y-79883095D01*
X92957380Y-80454523D01*
X92957380Y-79835476D01*
%TO.C,U1*%
X91957380Y-109346904D02*
X92766904Y-109346904D01*
X92862142Y-109299285D01*
X92909761Y-109251666D01*
X92957380Y-109156428D01*
X92957380Y-108965952D01*
X92909761Y-108870714D01*
X92862142Y-108823095D01*
X92766904Y-108775476D01*
X91957380Y-108775476D01*
X92957380Y-107775476D02*
X92957380Y-108346904D01*
X92957380Y-108061190D02*
X91957380Y-108061190D01*
X92100238Y-108156428D01*
X92195476Y-108251666D01*
X92243095Y-108346904D01*
%TO.C,U3*%
X64282380Y-106171904D02*
X65091904Y-106171904D01*
X65187142Y-106124285D01*
X65234761Y-106076666D01*
X65282380Y-105981428D01*
X65282380Y-105790952D01*
X65234761Y-105695714D01*
X65187142Y-105648095D01*
X65091904Y-105600476D01*
X64282380Y-105600476D01*
X64282380Y-105219523D02*
X64282380Y-104600476D01*
X64663333Y-104933809D01*
X64663333Y-104790952D01*
X64710952Y-104695714D01*
X64758571Y-104648095D01*
X64853809Y-104600476D01*
X65091904Y-104600476D01*
X65187142Y-104648095D01*
X65234761Y-104695714D01*
X65282380Y-104790952D01*
X65282380Y-105076666D01*
X65234761Y-105171904D01*
X65187142Y-105219523D01*
%TO.C,R13*%
X74287142Y-135962380D02*
X73953809Y-135486190D01*
X73715714Y-135962380D02*
X73715714Y-134962380D01*
X74096666Y-134962380D01*
X74191904Y-135010000D01*
X74239523Y-135057619D01*
X74287142Y-135152857D01*
X74287142Y-135295714D01*
X74239523Y-135390952D01*
X74191904Y-135438571D01*
X74096666Y-135486190D01*
X73715714Y-135486190D01*
X75239523Y-135962380D02*
X74668095Y-135962380D01*
X74953809Y-135962380D02*
X74953809Y-134962380D01*
X74858571Y-135105238D01*
X74763333Y-135200476D01*
X74668095Y-135248095D01*
X75572857Y-134962380D02*
X76191904Y-134962380D01*
X75858571Y-135343333D01*
X76001428Y-135343333D01*
X76096666Y-135390952D01*
X76144285Y-135438571D01*
X76191904Y-135533809D01*
X76191904Y-135771904D01*
X76144285Y-135867142D01*
X76096666Y-135914761D01*
X76001428Y-135962380D01*
X75715714Y-135962380D01*
X75620476Y-135914761D01*
X75572857Y-135867142D01*
%TO.C,R12*%
X74287142Y-125802380D02*
X73953809Y-125326190D01*
X73715714Y-125802380D02*
X73715714Y-124802380D01*
X74096666Y-124802380D01*
X74191904Y-124850000D01*
X74239523Y-124897619D01*
X74287142Y-124992857D01*
X74287142Y-125135714D01*
X74239523Y-125230952D01*
X74191904Y-125278571D01*
X74096666Y-125326190D01*
X73715714Y-125326190D01*
X75239523Y-125802380D02*
X74668095Y-125802380D01*
X74953809Y-125802380D02*
X74953809Y-124802380D01*
X74858571Y-124945238D01*
X74763333Y-125040476D01*
X74668095Y-125088095D01*
X75620476Y-124897619D02*
X75668095Y-124850000D01*
X75763333Y-124802380D01*
X76001428Y-124802380D01*
X76096666Y-124850000D01*
X76144285Y-124897619D01*
X76191904Y-124992857D01*
X76191904Y-125088095D01*
X76144285Y-125230952D01*
X75572857Y-125802380D01*
X76191904Y-125802380D01*
%TO.C,R11*%
X74287142Y-130882380D02*
X73953809Y-130406190D01*
X73715714Y-130882380D02*
X73715714Y-129882380D01*
X74096666Y-129882380D01*
X74191904Y-129930000D01*
X74239523Y-129977619D01*
X74287142Y-130072857D01*
X74287142Y-130215714D01*
X74239523Y-130310952D01*
X74191904Y-130358571D01*
X74096666Y-130406190D01*
X73715714Y-130406190D01*
X75239523Y-130882380D02*
X74668095Y-130882380D01*
X74953809Y-130882380D02*
X74953809Y-129882380D01*
X74858571Y-130025238D01*
X74763333Y-130120476D01*
X74668095Y-130168095D01*
X76191904Y-130882380D02*
X75620476Y-130882380D01*
X75906190Y-130882380D02*
X75906190Y-129882380D01*
X75810952Y-130025238D01*
X75715714Y-130120476D01*
X75620476Y-130168095D01*
%TO.C,R2*%
X72587380Y-85256666D02*
X72111190Y-85590000D01*
X72587380Y-85828095D02*
X71587380Y-85828095D01*
X71587380Y-85447142D01*
X71635000Y-85351904D01*
X71682619Y-85304285D01*
X71777857Y-85256666D01*
X71920714Y-85256666D01*
X72015952Y-85304285D01*
X72063571Y-85351904D01*
X72111190Y-85447142D01*
X72111190Y-85828095D01*
X71682619Y-84875714D02*
X71635000Y-84828095D01*
X71587380Y-84732857D01*
X71587380Y-84494761D01*
X71635000Y-84399523D01*
X71682619Y-84351904D01*
X71777857Y-84304285D01*
X71873095Y-84304285D01*
X72015952Y-84351904D01*
X72587380Y-84923333D01*
X72587380Y-84304285D01*
%TO.C,R1*%
X72587380Y-76366666D02*
X72111190Y-76700000D01*
X72587380Y-76938095D02*
X71587380Y-76938095D01*
X71587380Y-76557142D01*
X71635000Y-76461904D01*
X71682619Y-76414285D01*
X71777857Y-76366666D01*
X71920714Y-76366666D01*
X72015952Y-76414285D01*
X72063571Y-76461904D01*
X72111190Y-76557142D01*
X72111190Y-76938095D01*
X72587380Y-75414285D02*
X72587380Y-75985714D01*
X72587380Y-75700000D02*
X71587380Y-75700000D01*
X71730238Y-75795238D01*
X71825476Y-75890476D01*
X71873095Y-75985714D01*
%TO.C,J3*%
X68246666Y-138942380D02*
X68246666Y-139656666D01*
X68199047Y-139799523D01*
X68103809Y-139894761D01*
X67960952Y-139942380D01*
X67865714Y-139942380D01*
X68627619Y-138942380D02*
X69246666Y-138942380D01*
X68913333Y-139323333D01*
X69056190Y-139323333D01*
X69151428Y-139370952D01*
X69199047Y-139418571D01*
X69246666Y-139513809D01*
X69246666Y-139751904D01*
X69199047Y-139847142D01*
X69151428Y-139894761D01*
X69056190Y-139942380D01*
X68770476Y-139942380D01*
X68675238Y-139894761D01*
X68627619Y-139847142D01*
%TO.C,J2*%
X111940357Y-59582380D02*
X112559404Y-59582380D01*
X112226071Y-59963333D01*
X112368928Y-59963333D01*
X112464166Y-60010952D01*
X112511785Y-60058571D01*
X112559404Y-60153809D01*
X112559404Y-60391904D01*
X112511785Y-60487142D01*
X112464166Y-60534761D01*
X112368928Y-60582380D01*
X112083214Y-60582380D01*
X111987976Y-60534761D01*
X111940357Y-60487142D01*
X112940357Y-59677619D02*
X112987976Y-59630000D01*
X113083214Y-59582380D01*
X113321309Y-59582380D01*
X113416547Y-59630000D01*
X113464166Y-59677619D01*
X113511785Y-59772857D01*
X113511785Y-59868095D01*
X113464166Y-60010952D01*
X112892738Y-60582380D01*
X113511785Y-60582380D01*
X66779404Y-60582380D02*
X66207976Y-60582380D01*
X66493690Y-60582380D02*
X66493690Y-59582380D01*
X66398452Y-59725238D01*
X66303214Y-59820476D01*
X66207976Y-59868095D01*
%TO.C,C3*%
X77303333Y-119327142D02*
X77255714Y-119374761D01*
X77112857Y-119422380D01*
X77017619Y-119422380D01*
X76874761Y-119374761D01*
X76779523Y-119279523D01*
X76731904Y-119184285D01*
X76684285Y-118993809D01*
X76684285Y-118850952D01*
X76731904Y-118660476D01*
X76779523Y-118565238D01*
X76874761Y-118470000D01*
X77017619Y-118422380D01*
X77112857Y-118422380D01*
X77255714Y-118470000D01*
X77303333Y-118517619D01*
X77636666Y-118422380D02*
X78255714Y-118422380D01*
X77922380Y-118803333D01*
X78065238Y-118803333D01*
X78160476Y-118850952D01*
X78208095Y-118898571D01*
X78255714Y-118993809D01*
X78255714Y-119231904D01*
X78208095Y-119327142D01*
X78160476Y-119374761D01*
X78065238Y-119422380D01*
X77779523Y-119422380D01*
X77684285Y-119374761D01*
X77636666Y-119327142D01*
%TO.C,C2*%
X94448333Y-94747142D02*
X94400714Y-94794761D01*
X94257857Y-94842380D01*
X94162619Y-94842380D01*
X94019761Y-94794761D01*
X93924523Y-94699523D01*
X93876904Y-94604285D01*
X93829285Y-94413809D01*
X93829285Y-94270952D01*
X93876904Y-94080476D01*
X93924523Y-93985238D01*
X94019761Y-93890000D01*
X94162619Y-93842380D01*
X94257857Y-93842380D01*
X94400714Y-93890000D01*
X94448333Y-93937619D01*
X94829285Y-93937619D02*
X94876904Y-93890000D01*
X94972142Y-93842380D01*
X95210238Y-93842380D01*
X95305476Y-93890000D01*
X95353095Y-93937619D01*
X95400714Y-94032857D01*
X95400714Y-94128095D01*
X95353095Y-94270952D01*
X94781666Y-94842380D01*
X95400714Y-94842380D01*
%TO.C,C1*%
X94448333Y-122687142D02*
X94400714Y-122734761D01*
X94257857Y-122782380D01*
X94162619Y-122782380D01*
X94019761Y-122734761D01*
X93924523Y-122639523D01*
X93876904Y-122544285D01*
X93829285Y-122353809D01*
X93829285Y-122210952D01*
X93876904Y-122020476D01*
X93924523Y-121925238D01*
X94019761Y-121830000D01*
X94162619Y-121782380D01*
X94257857Y-121782380D01*
X94400714Y-121830000D01*
X94448333Y-121877619D01*
X95400714Y-122782380D02*
X94829285Y-122782380D01*
X95115000Y-122782380D02*
X95115000Y-121782380D01*
X95019761Y-121925238D01*
X94924523Y-122020476D01*
X94829285Y-122068095D01*
%TD*%
M02*
