%TF.GenerationSoftware,KiCad,Pcbnew,(5.1.10-1-10_14)*%
%TF.CreationDate,2023-03-17T22:16:36+08:00*%
%TF.ProjectId,GB_MemoryBackup_Mainboard,47425f4d-656d-46f7-9279-4261636b7570,1.2*%
%TF.SameCoordinates,Original*%
%TF.FileFunction,Copper,L1,Top*%
%TF.FilePolarity,Positive*%
%FSLAX46Y46*%
G04 Gerber Fmt 4.6, Leading zero omitted, Abs format (unit mm)*
G04 Created by KiCad (PCBNEW (5.1.10-1-10_14)) date 2023-03-17 22:16:36*
%MOMM*%
%LPD*%
G01*
G04 APERTURE LIST*
%TA.AperFunction,ConnectorPad*%
%ADD10R,1.300000X6.000000*%
%TD*%
%TA.AperFunction,ConnectorPad*%
%ADD11R,1.000000X5.500000*%
%TD*%
%TA.AperFunction,SMDPad,CuDef*%
%ADD12R,0.760000X2.300000*%
%TD*%
%TA.AperFunction,SMDPad,CuDef*%
%ADD13R,2.300000X0.760000*%
%TD*%
%TA.AperFunction,ComponentPad*%
%ADD14O,3.000000X2.000000*%
%TD*%
%TA.AperFunction,ComponentPad*%
%ADD15O,2.500000X1.600000*%
%TD*%
%TA.AperFunction,ComponentPad*%
%ADD16R,2.500000X1.600000*%
%TD*%
%TA.AperFunction,ComponentPad*%
%ADD17R,1.700000X1.700000*%
%TD*%
%TA.AperFunction,ComponentPad*%
%ADD18O,1.700000X1.700000*%
%TD*%
%TA.AperFunction,SMDPad,CuDef*%
%ADD19R,5.500000X3.500000*%
%TD*%
%TA.AperFunction,SMDPad,CuDef*%
%ADD20R,1.000000X5.000000*%
%TD*%
%TA.AperFunction,ViaPad*%
%ADD21C,0.800000*%
%TD*%
%TA.AperFunction,Conductor*%
%ADD22C,0.500000*%
%TD*%
%TA.AperFunction,Conductor*%
%ADD23C,0.400000*%
%TD*%
%TA.AperFunction,Conductor*%
%ADD24C,0.250000*%
%TD*%
%TA.AperFunction,Conductor*%
%ADD25C,0.254000*%
%TD*%
%TA.AperFunction,Conductor*%
%ADD26C,0.100000*%
%TD*%
G04 APERTURE END LIST*
%TO.P,U2,32*%
%TO.N,+5V*%
%TA.AperFunction,SMDPad,CuDef*%
G36*
G01*
X97757000Y-79685000D02*
X95667000Y-79685000D01*
G75*
G02*
X95512000Y-79530000I0J155000D01*
G01*
X95512000Y-79220000D01*
G75*
G02*
X95667000Y-79065000I155000J0D01*
G01*
X97757000Y-79065000D01*
G75*
G02*
X97912000Y-79220000I0J-155000D01*
G01*
X97912000Y-79530000D01*
G75*
G02*
X97757000Y-79685000I-155000J0D01*
G01*
G37*
%TD.AperFunction*%
%TO.P,U2,31*%
%TO.N,/~AWR*%
%TA.AperFunction,SMDPad,CuDef*%
G36*
G01*
X97757000Y-78415000D02*
X95667000Y-78415000D01*
G75*
G02*
X95512000Y-78260000I0J155000D01*
G01*
X95512000Y-77950000D01*
G75*
G02*
X95667000Y-77795000I155000J0D01*
G01*
X97757000Y-77795000D01*
G75*
G02*
X97912000Y-77950000I0J-155000D01*
G01*
X97912000Y-78260000D01*
G75*
G02*
X97757000Y-78415000I-155000J0D01*
G01*
G37*
%TD.AperFunction*%
%TO.P,U2,30*%
%TO.N,/F040_A17*%
%TA.AperFunction,SMDPad,CuDef*%
G36*
G01*
X97757000Y-77145000D02*
X95667000Y-77145000D01*
G75*
G02*
X95512000Y-76990000I0J155000D01*
G01*
X95512000Y-76680000D01*
G75*
G02*
X95667000Y-76525000I155000J0D01*
G01*
X97757000Y-76525000D01*
G75*
G02*
X97912000Y-76680000I0J-155000D01*
G01*
X97912000Y-76990000D01*
G75*
G02*
X97757000Y-77145000I-155000J0D01*
G01*
G37*
%TD.AperFunction*%
%TO.P,U2,29*%
%TO.N,/F040_A14*%
%TA.AperFunction,SMDPad,CuDef*%
G36*
G01*
X98580000Y-76342000D02*
X98270000Y-76342000D01*
G75*
G02*
X98115000Y-76187000I0J155000D01*
G01*
X98115000Y-74097000D01*
G75*
G02*
X98270000Y-73942000I155000J0D01*
G01*
X98580000Y-73942000D01*
G75*
G02*
X98735000Y-74097000I0J-155000D01*
G01*
X98735000Y-76187000D01*
G75*
G02*
X98580000Y-76342000I-155000J0D01*
G01*
G37*
%TD.AperFunction*%
%TO.P,U2,28*%
%TO.N,/AA13*%
%TA.AperFunction,SMDPad,CuDef*%
G36*
G01*
X99850000Y-76342000D02*
X99540000Y-76342000D01*
G75*
G02*
X99385000Y-76187000I0J155000D01*
G01*
X99385000Y-74097000D01*
G75*
G02*
X99540000Y-73942000I155000J0D01*
G01*
X99850000Y-73942000D01*
G75*
G02*
X100005000Y-74097000I0J-155000D01*
G01*
X100005000Y-76187000D01*
G75*
G02*
X99850000Y-76342000I-155000J0D01*
G01*
G37*
%TD.AperFunction*%
%TO.P,U2,27*%
%TO.N,/AA8*%
%TA.AperFunction,SMDPad,CuDef*%
G36*
G01*
X101120000Y-76342000D02*
X100810000Y-76342000D01*
G75*
G02*
X100655000Y-76187000I0J155000D01*
G01*
X100655000Y-74097000D01*
G75*
G02*
X100810000Y-73942000I155000J0D01*
G01*
X101120000Y-73942000D01*
G75*
G02*
X101275000Y-74097000I0J-155000D01*
G01*
X101275000Y-76187000D01*
G75*
G02*
X101120000Y-76342000I-155000J0D01*
G01*
G37*
%TD.AperFunction*%
%TO.P,U2,26*%
%TO.N,/AA9*%
%TA.AperFunction,SMDPad,CuDef*%
G36*
G01*
X102390000Y-76342000D02*
X102080000Y-76342000D01*
G75*
G02*
X101925000Y-76187000I0J155000D01*
G01*
X101925000Y-74097000D01*
G75*
G02*
X102080000Y-73942000I155000J0D01*
G01*
X102390000Y-73942000D01*
G75*
G02*
X102545000Y-74097000I0J-155000D01*
G01*
X102545000Y-76187000D01*
G75*
G02*
X102390000Y-76342000I-155000J0D01*
G01*
G37*
%TD.AperFunction*%
%TO.P,U2,25*%
%TO.N,/AA11*%
%TA.AperFunction,SMDPad,CuDef*%
G36*
G01*
X103660000Y-76342000D02*
X103350000Y-76342000D01*
G75*
G02*
X103195000Y-76187000I0J155000D01*
G01*
X103195000Y-74097000D01*
G75*
G02*
X103350000Y-73942000I155000J0D01*
G01*
X103660000Y-73942000D01*
G75*
G02*
X103815000Y-74097000I0J-155000D01*
G01*
X103815000Y-76187000D01*
G75*
G02*
X103660000Y-76342000I-155000J0D01*
G01*
G37*
%TD.AperFunction*%
%TO.P,U2,24*%
%TO.N,/~ARD*%
%TA.AperFunction,SMDPad,CuDef*%
G36*
G01*
X104930000Y-76342000D02*
X104620000Y-76342000D01*
G75*
G02*
X104465000Y-76187000I0J155000D01*
G01*
X104465000Y-74097000D01*
G75*
G02*
X104620000Y-73942000I155000J0D01*
G01*
X104930000Y-73942000D01*
G75*
G02*
X105085000Y-74097000I0J-155000D01*
G01*
X105085000Y-76187000D01*
G75*
G02*
X104930000Y-76342000I-155000J0D01*
G01*
G37*
%TD.AperFunction*%
%TO.P,U2,23*%
%TO.N,/AA10*%
%TA.AperFunction,SMDPad,CuDef*%
G36*
G01*
X106200000Y-76342000D02*
X105890000Y-76342000D01*
G75*
G02*
X105735000Y-76187000I0J155000D01*
G01*
X105735000Y-74097000D01*
G75*
G02*
X105890000Y-73942000I155000J0D01*
G01*
X106200000Y-73942000D01*
G75*
G02*
X106355000Y-74097000I0J-155000D01*
G01*
X106355000Y-76187000D01*
G75*
G02*
X106200000Y-76342000I-155000J0D01*
G01*
G37*
%TD.AperFunction*%
%TO.P,U2,22*%
%TO.N,/~F_CE_040*%
%TA.AperFunction,SMDPad,CuDef*%
G36*
G01*
X107470000Y-76342000D02*
X107160000Y-76342000D01*
G75*
G02*
X107005000Y-76187000I0J155000D01*
G01*
X107005000Y-74097000D01*
G75*
G02*
X107160000Y-73942000I155000J0D01*
G01*
X107470000Y-73942000D01*
G75*
G02*
X107625000Y-74097000I0J-155000D01*
G01*
X107625000Y-76187000D01*
G75*
G02*
X107470000Y-76342000I-155000J0D01*
G01*
G37*
%TD.AperFunction*%
%TO.P,U2,21*%
%TO.N,/AD7*%
%TA.AperFunction,SMDPad,CuDef*%
G36*
G01*
X108740000Y-76342000D02*
X108430000Y-76342000D01*
G75*
G02*
X108275000Y-76187000I0J155000D01*
G01*
X108275000Y-74097000D01*
G75*
G02*
X108430000Y-73942000I155000J0D01*
G01*
X108740000Y-73942000D01*
G75*
G02*
X108895000Y-74097000I0J-155000D01*
G01*
X108895000Y-76187000D01*
G75*
G02*
X108740000Y-76342000I-155000J0D01*
G01*
G37*
%TD.AperFunction*%
%TO.P,U2,20*%
%TO.N,/AD6*%
%TA.AperFunction,SMDPad,CuDef*%
G36*
G01*
X111343000Y-77145000D02*
X109253000Y-77145000D01*
G75*
G02*
X109098000Y-76990000I0J155000D01*
G01*
X109098000Y-76680000D01*
G75*
G02*
X109253000Y-76525000I155000J0D01*
G01*
X111343000Y-76525000D01*
G75*
G02*
X111498000Y-76680000I0J-155000D01*
G01*
X111498000Y-76990000D01*
G75*
G02*
X111343000Y-77145000I-155000J0D01*
G01*
G37*
%TD.AperFunction*%
%TO.P,U2,19*%
%TO.N,/AD5*%
%TA.AperFunction,SMDPad,CuDef*%
G36*
G01*
X111343000Y-78415000D02*
X109253000Y-78415000D01*
G75*
G02*
X109098000Y-78260000I0J155000D01*
G01*
X109098000Y-77950000D01*
G75*
G02*
X109253000Y-77795000I155000J0D01*
G01*
X111343000Y-77795000D01*
G75*
G02*
X111498000Y-77950000I0J-155000D01*
G01*
X111498000Y-78260000D01*
G75*
G02*
X111343000Y-78415000I-155000J0D01*
G01*
G37*
%TD.AperFunction*%
%TO.P,U2,18*%
%TO.N,/AD4*%
%TA.AperFunction,SMDPad,CuDef*%
G36*
G01*
X111343000Y-79685000D02*
X109253000Y-79685000D01*
G75*
G02*
X109098000Y-79530000I0J155000D01*
G01*
X109098000Y-79220000D01*
G75*
G02*
X109253000Y-79065000I155000J0D01*
G01*
X111343000Y-79065000D01*
G75*
G02*
X111498000Y-79220000I0J-155000D01*
G01*
X111498000Y-79530000D01*
G75*
G02*
X111343000Y-79685000I-155000J0D01*
G01*
G37*
%TD.AperFunction*%
%TO.P,U2,17*%
%TO.N,/AD3*%
%TA.AperFunction,SMDPad,CuDef*%
G36*
G01*
X111343000Y-80955000D02*
X109253000Y-80955000D01*
G75*
G02*
X109098000Y-80800000I0J155000D01*
G01*
X109098000Y-80490000D01*
G75*
G02*
X109253000Y-80335000I155000J0D01*
G01*
X111343000Y-80335000D01*
G75*
G02*
X111498000Y-80490000I0J-155000D01*
G01*
X111498000Y-80800000D01*
G75*
G02*
X111343000Y-80955000I-155000J0D01*
G01*
G37*
%TD.AperFunction*%
%TO.P,U2,16*%
%TO.N,GND*%
%TA.AperFunction,SMDPad,CuDef*%
G36*
G01*
X111343000Y-82225000D02*
X109253000Y-82225000D01*
G75*
G02*
X109098000Y-82070000I0J155000D01*
G01*
X109098000Y-81760000D01*
G75*
G02*
X109253000Y-81605000I155000J0D01*
G01*
X111343000Y-81605000D01*
G75*
G02*
X111498000Y-81760000I0J-155000D01*
G01*
X111498000Y-82070000D01*
G75*
G02*
X111343000Y-82225000I-155000J0D01*
G01*
G37*
%TD.AperFunction*%
%TO.P,U2,15*%
%TO.N,/AD2*%
%TA.AperFunction,SMDPad,CuDef*%
G36*
G01*
X111343000Y-83495000D02*
X109253000Y-83495000D01*
G75*
G02*
X109098000Y-83340000I0J155000D01*
G01*
X109098000Y-83030000D01*
G75*
G02*
X109253000Y-82875000I155000J0D01*
G01*
X111343000Y-82875000D01*
G75*
G02*
X111498000Y-83030000I0J-155000D01*
G01*
X111498000Y-83340000D01*
G75*
G02*
X111343000Y-83495000I-155000J0D01*
G01*
G37*
%TD.AperFunction*%
%TO.P,U2,14*%
%TO.N,/AD1*%
%TA.AperFunction,SMDPad,CuDef*%
G36*
G01*
X111343000Y-84765000D02*
X109253000Y-84765000D01*
G75*
G02*
X109098000Y-84610000I0J155000D01*
G01*
X109098000Y-84300000D01*
G75*
G02*
X109253000Y-84145000I155000J0D01*
G01*
X111343000Y-84145000D01*
G75*
G02*
X111498000Y-84300000I0J-155000D01*
G01*
X111498000Y-84610000D01*
G75*
G02*
X111343000Y-84765000I-155000J0D01*
G01*
G37*
%TD.AperFunction*%
%TO.P,U2,13*%
%TO.N,/AD0*%
%TA.AperFunction,SMDPad,CuDef*%
G36*
G01*
X108740000Y-87348000D02*
X108430000Y-87348000D01*
G75*
G02*
X108275000Y-87193000I0J155000D01*
G01*
X108275000Y-85103000D01*
G75*
G02*
X108430000Y-84948000I155000J0D01*
G01*
X108740000Y-84948000D01*
G75*
G02*
X108895000Y-85103000I0J-155000D01*
G01*
X108895000Y-87193000D01*
G75*
G02*
X108740000Y-87348000I-155000J0D01*
G01*
G37*
%TD.AperFunction*%
%TO.P,U2,12*%
%TO.N,/AA0*%
%TA.AperFunction,SMDPad,CuDef*%
G36*
G01*
X107470000Y-87348000D02*
X107160000Y-87348000D01*
G75*
G02*
X107005000Y-87193000I0J155000D01*
G01*
X107005000Y-85103000D01*
G75*
G02*
X107160000Y-84948000I155000J0D01*
G01*
X107470000Y-84948000D01*
G75*
G02*
X107625000Y-85103000I0J-155000D01*
G01*
X107625000Y-87193000D01*
G75*
G02*
X107470000Y-87348000I-155000J0D01*
G01*
G37*
%TD.AperFunction*%
%TO.P,U2,11*%
%TO.N,/AA1*%
%TA.AperFunction,SMDPad,CuDef*%
G36*
G01*
X106200000Y-87348000D02*
X105890000Y-87348000D01*
G75*
G02*
X105735000Y-87193000I0J155000D01*
G01*
X105735000Y-85103000D01*
G75*
G02*
X105890000Y-84948000I155000J0D01*
G01*
X106200000Y-84948000D01*
G75*
G02*
X106355000Y-85103000I0J-155000D01*
G01*
X106355000Y-87193000D01*
G75*
G02*
X106200000Y-87348000I-155000J0D01*
G01*
G37*
%TD.AperFunction*%
%TO.P,U2,10*%
%TO.N,/AA2*%
%TA.AperFunction,SMDPad,CuDef*%
G36*
G01*
X104930000Y-87348000D02*
X104620000Y-87348000D01*
G75*
G02*
X104465000Y-87193000I0J155000D01*
G01*
X104465000Y-85103000D01*
G75*
G02*
X104620000Y-84948000I155000J0D01*
G01*
X104930000Y-84948000D01*
G75*
G02*
X105085000Y-85103000I0J-155000D01*
G01*
X105085000Y-87193000D01*
G75*
G02*
X104930000Y-87348000I-155000J0D01*
G01*
G37*
%TD.AperFunction*%
%TO.P,U2,9*%
%TO.N,/AA3*%
%TA.AperFunction,SMDPad,CuDef*%
G36*
G01*
X103660000Y-87348000D02*
X103350000Y-87348000D01*
G75*
G02*
X103195000Y-87193000I0J155000D01*
G01*
X103195000Y-85103000D01*
G75*
G02*
X103350000Y-84948000I155000J0D01*
G01*
X103660000Y-84948000D01*
G75*
G02*
X103815000Y-85103000I0J-155000D01*
G01*
X103815000Y-87193000D01*
G75*
G02*
X103660000Y-87348000I-155000J0D01*
G01*
G37*
%TD.AperFunction*%
%TO.P,U2,8*%
%TO.N,/AA4*%
%TA.AperFunction,SMDPad,CuDef*%
G36*
G01*
X102390000Y-87348000D02*
X102080000Y-87348000D01*
G75*
G02*
X101925000Y-87193000I0J155000D01*
G01*
X101925000Y-85103000D01*
G75*
G02*
X102080000Y-84948000I155000J0D01*
G01*
X102390000Y-84948000D01*
G75*
G02*
X102545000Y-85103000I0J-155000D01*
G01*
X102545000Y-87193000D01*
G75*
G02*
X102390000Y-87348000I-155000J0D01*
G01*
G37*
%TD.AperFunction*%
%TO.P,U2,7*%
%TO.N,/AA5*%
%TA.AperFunction,SMDPad,CuDef*%
G36*
G01*
X101120000Y-87348000D02*
X100810000Y-87348000D01*
G75*
G02*
X100655000Y-87193000I0J155000D01*
G01*
X100655000Y-85103000D01*
G75*
G02*
X100810000Y-84948000I155000J0D01*
G01*
X101120000Y-84948000D01*
G75*
G02*
X101275000Y-85103000I0J-155000D01*
G01*
X101275000Y-87193000D01*
G75*
G02*
X101120000Y-87348000I-155000J0D01*
G01*
G37*
%TD.AperFunction*%
%TO.P,U2,6*%
%TO.N,/AA6*%
%TA.AperFunction,SMDPad,CuDef*%
G36*
G01*
X99850000Y-87348000D02*
X99540000Y-87348000D01*
G75*
G02*
X99385000Y-87193000I0J155000D01*
G01*
X99385000Y-85103000D01*
G75*
G02*
X99540000Y-84948000I155000J0D01*
G01*
X99850000Y-84948000D01*
G75*
G02*
X100005000Y-85103000I0J-155000D01*
G01*
X100005000Y-87193000D01*
G75*
G02*
X99850000Y-87348000I-155000J0D01*
G01*
G37*
%TD.AperFunction*%
%TO.P,U2,5*%
%TO.N,/AA7*%
%TA.AperFunction,SMDPad,CuDef*%
G36*
G01*
X98580000Y-87348000D02*
X98270000Y-87348000D01*
G75*
G02*
X98115000Y-87193000I0J155000D01*
G01*
X98115000Y-85103000D01*
G75*
G02*
X98270000Y-84948000I155000J0D01*
G01*
X98580000Y-84948000D01*
G75*
G02*
X98735000Y-85103000I0J-155000D01*
G01*
X98735000Y-87193000D01*
G75*
G02*
X98580000Y-87348000I-155000J0D01*
G01*
G37*
%TD.AperFunction*%
%TO.P,U2,4*%
%TO.N,/AA12*%
%TA.AperFunction,SMDPad,CuDef*%
G36*
G01*
X97757000Y-84765000D02*
X95667000Y-84765000D01*
G75*
G02*
X95512000Y-84610000I0J155000D01*
G01*
X95512000Y-84300000D01*
G75*
G02*
X95667000Y-84145000I155000J0D01*
G01*
X97757000Y-84145000D01*
G75*
G02*
X97912000Y-84300000I0J-155000D01*
G01*
X97912000Y-84610000D01*
G75*
G02*
X97757000Y-84765000I-155000J0D01*
G01*
G37*
%TD.AperFunction*%
%TO.P,U2,3*%
%TO.N,/F040_A15*%
%TA.AperFunction,SMDPad,CuDef*%
G36*
G01*
X97757000Y-83495000D02*
X95667000Y-83495000D01*
G75*
G02*
X95512000Y-83340000I0J155000D01*
G01*
X95512000Y-83030000D01*
G75*
G02*
X95667000Y-82875000I155000J0D01*
G01*
X97757000Y-82875000D01*
G75*
G02*
X97912000Y-83030000I0J-155000D01*
G01*
X97912000Y-83340000D01*
G75*
G02*
X97757000Y-83495000I-155000J0D01*
G01*
G37*
%TD.AperFunction*%
%TO.P,U2,2*%
%TO.N,/F040_A16*%
%TA.AperFunction,SMDPad,CuDef*%
G36*
G01*
X97757000Y-82225000D02*
X95667000Y-82225000D01*
G75*
G02*
X95512000Y-82070000I0J155000D01*
G01*
X95512000Y-81760000D01*
G75*
G02*
X95667000Y-81605000I155000J0D01*
G01*
X97757000Y-81605000D01*
G75*
G02*
X97912000Y-81760000I0J-155000D01*
G01*
X97912000Y-82070000D01*
G75*
G02*
X97757000Y-82225000I-155000J0D01*
G01*
G37*
%TD.AperFunction*%
%TO.P,U2,1*%
%TO.N,/F040_A18*%
%TA.AperFunction,SMDPad,CuDef*%
G36*
G01*
X97757000Y-80955000D02*
X95667000Y-80955000D01*
G75*
G02*
X95512000Y-80800000I0J155000D01*
G01*
X95512000Y-80490000D01*
G75*
G02*
X95667000Y-80335000I155000J0D01*
G01*
X97757000Y-80335000D01*
G75*
G02*
X97912000Y-80490000I0J-155000D01*
G01*
X97912000Y-80800000D01*
G75*
G02*
X97757000Y-80955000I-155000J0D01*
G01*
G37*
%TD.AperFunction*%
%TD*%
%TO.P,U1,32*%
%TO.N,+5V*%
%TA.AperFunction,SMDPad,CuDef*%
G36*
G01*
X97757000Y-107625000D02*
X95667000Y-107625000D01*
G75*
G02*
X95512000Y-107470000I0J155000D01*
G01*
X95512000Y-107160000D01*
G75*
G02*
X95667000Y-107005000I155000J0D01*
G01*
X97757000Y-107005000D01*
G75*
G02*
X97912000Y-107160000I0J-155000D01*
G01*
X97912000Y-107470000D01*
G75*
G02*
X97757000Y-107625000I-155000J0D01*
G01*
G37*
%TD.AperFunction*%
%TO.P,U1,31*%
%TO.N,/~AWR*%
%TA.AperFunction,SMDPad,CuDef*%
G36*
G01*
X97757000Y-106355000D02*
X95667000Y-106355000D01*
G75*
G02*
X95512000Y-106200000I0J155000D01*
G01*
X95512000Y-105890000D01*
G75*
G02*
X95667000Y-105735000I155000J0D01*
G01*
X97757000Y-105735000D01*
G75*
G02*
X97912000Y-105890000I0J-155000D01*
G01*
X97912000Y-106200000D01*
G75*
G02*
X97757000Y-106355000I-155000J0D01*
G01*
G37*
%TD.AperFunction*%
%TO.P,U1,30*%
%TO.N,GND*%
%TA.AperFunction,SMDPad,CuDef*%
G36*
G01*
X97757000Y-105085000D02*
X95667000Y-105085000D01*
G75*
G02*
X95512000Y-104930000I0J155000D01*
G01*
X95512000Y-104620000D01*
G75*
G02*
X95667000Y-104465000I155000J0D01*
G01*
X97757000Y-104465000D01*
G75*
G02*
X97912000Y-104620000I0J-155000D01*
G01*
X97912000Y-104930000D01*
G75*
G02*
X97757000Y-105085000I-155000J0D01*
G01*
G37*
%TD.AperFunction*%
%TO.P,U1,29*%
%TO.N,/F010_A14*%
%TA.AperFunction,SMDPad,CuDef*%
G36*
G01*
X98580000Y-104282000D02*
X98270000Y-104282000D01*
G75*
G02*
X98115000Y-104127000I0J155000D01*
G01*
X98115000Y-102037000D01*
G75*
G02*
X98270000Y-101882000I155000J0D01*
G01*
X98580000Y-101882000D01*
G75*
G02*
X98735000Y-102037000I0J-155000D01*
G01*
X98735000Y-104127000D01*
G75*
G02*
X98580000Y-104282000I-155000J0D01*
G01*
G37*
%TD.AperFunction*%
%TO.P,U1,28*%
%TO.N,/AA13*%
%TA.AperFunction,SMDPad,CuDef*%
G36*
G01*
X99850000Y-104282000D02*
X99540000Y-104282000D01*
G75*
G02*
X99385000Y-104127000I0J155000D01*
G01*
X99385000Y-102037000D01*
G75*
G02*
X99540000Y-101882000I155000J0D01*
G01*
X99850000Y-101882000D01*
G75*
G02*
X100005000Y-102037000I0J-155000D01*
G01*
X100005000Y-104127000D01*
G75*
G02*
X99850000Y-104282000I-155000J0D01*
G01*
G37*
%TD.AperFunction*%
%TO.P,U1,27*%
%TO.N,/AA8*%
%TA.AperFunction,SMDPad,CuDef*%
G36*
G01*
X101120000Y-104282000D02*
X100810000Y-104282000D01*
G75*
G02*
X100655000Y-104127000I0J155000D01*
G01*
X100655000Y-102037000D01*
G75*
G02*
X100810000Y-101882000I155000J0D01*
G01*
X101120000Y-101882000D01*
G75*
G02*
X101275000Y-102037000I0J-155000D01*
G01*
X101275000Y-104127000D01*
G75*
G02*
X101120000Y-104282000I-155000J0D01*
G01*
G37*
%TD.AperFunction*%
%TO.P,U1,26*%
%TO.N,/AA9*%
%TA.AperFunction,SMDPad,CuDef*%
G36*
G01*
X102390000Y-104282000D02*
X102080000Y-104282000D01*
G75*
G02*
X101925000Y-104127000I0J155000D01*
G01*
X101925000Y-102037000D01*
G75*
G02*
X102080000Y-101882000I155000J0D01*
G01*
X102390000Y-101882000D01*
G75*
G02*
X102545000Y-102037000I0J-155000D01*
G01*
X102545000Y-104127000D01*
G75*
G02*
X102390000Y-104282000I-155000J0D01*
G01*
G37*
%TD.AperFunction*%
%TO.P,U1,25*%
%TO.N,/AA11*%
%TA.AperFunction,SMDPad,CuDef*%
G36*
G01*
X103660000Y-104282000D02*
X103350000Y-104282000D01*
G75*
G02*
X103195000Y-104127000I0J155000D01*
G01*
X103195000Y-102037000D01*
G75*
G02*
X103350000Y-101882000I155000J0D01*
G01*
X103660000Y-101882000D01*
G75*
G02*
X103815000Y-102037000I0J-155000D01*
G01*
X103815000Y-104127000D01*
G75*
G02*
X103660000Y-104282000I-155000J0D01*
G01*
G37*
%TD.AperFunction*%
%TO.P,U1,24*%
%TO.N,/~ARD*%
%TA.AperFunction,SMDPad,CuDef*%
G36*
G01*
X104930000Y-104282000D02*
X104620000Y-104282000D01*
G75*
G02*
X104465000Y-104127000I0J155000D01*
G01*
X104465000Y-102037000D01*
G75*
G02*
X104620000Y-101882000I155000J0D01*
G01*
X104930000Y-101882000D01*
G75*
G02*
X105085000Y-102037000I0J-155000D01*
G01*
X105085000Y-104127000D01*
G75*
G02*
X104930000Y-104282000I-155000J0D01*
G01*
G37*
%TD.AperFunction*%
%TO.P,U1,23*%
%TO.N,/AA10*%
%TA.AperFunction,SMDPad,CuDef*%
G36*
G01*
X106200000Y-104282000D02*
X105890000Y-104282000D01*
G75*
G02*
X105735000Y-104127000I0J155000D01*
G01*
X105735000Y-102037000D01*
G75*
G02*
X105890000Y-101882000I155000J0D01*
G01*
X106200000Y-101882000D01*
G75*
G02*
X106355000Y-102037000I0J-155000D01*
G01*
X106355000Y-104127000D01*
G75*
G02*
X106200000Y-104282000I-155000J0D01*
G01*
G37*
%TD.AperFunction*%
%TO.P,U1,22*%
%TO.N,/~F_CE_010*%
%TA.AperFunction,SMDPad,CuDef*%
G36*
G01*
X107470000Y-104282000D02*
X107160000Y-104282000D01*
G75*
G02*
X107005000Y-104127000I0J155000D01*
G01*
X107005000Y-102037000D01*
G75*
G02*
X107160000Y-101882000I155000J0D01*
G01*
X107470000Y-101882000D01*
G75*
G02*
X107625000Y-102037000I0J-155000D01*
G01*
X107625000Y-104127000D01*
G75*
G02*
X107470000Y-104282000I-155000J0D01*
G01*
G37*
%TD.AperFunction*%
%TO.P,U1,21*%
%TO.N,/AD7*%
%TA.AperFunction,SMDPad,CuDef*%
G36*
G01*
X108740000Y-104282000D02*
X108430000Y-104282000D01*
G75*
G02*
X108275000Y-104127000I0J155000D01*
G01*
X108275000Y-102037000D01*
G75*
G02*
X108430000Y-101882000I155000J0D01*
G01*
X108740000Y-101882000D01*
G75*
G02*
X108895000Y-102037000I0J-155000D01*
G01*
X108895000Y-104127000D01*
G75*
G02*
X108740000Y-104282000I-155000J0D01*
G01*
G37*
%TD.AperFunction*%
%TO.P,U1,20*%
%TO.N,/AD6*%
%TA.AperFunction,SMDPad,CuDef*%
G36*
G01*
X111343000Y-105085000D02*
X109253000Y-105085000D01*
G75*
G02*
X109098000Y-104930000I0J155000D01*
G01*
X109098000Y-104620000D01*
G75*
G02*
X109253000Y-104465000I155000J0D01*
G01*
X111343000Y-104465000D01*
G75*
G02*
X111498000Y-104620000I0J-155000D01*
G01*
X111498000Y-104930000D01*
G75*
G02*
X111343000Y-105085000I-155000J0D01*
G01*
G37*
%TD.AperFunction*%
%TO.P,U1,19*%
%TO.N,/AD5*%
%TA.AperFunction,SMDPad,CuDef*%
G36*
G01*
X111343000Y-106355000D02*
X109253000Y-106355000D01*
G75*
G02*
X109098000Y-106200000I0J155000D01*
G01*
X109098000Y-105890000D01*
G75*
G02*
X109253000Y-105735000I155000J0D01*
G01*
X111343000Y-105735000D01*
G75*
G02*
X111498000Y-105890000I0J-155000D01*
G01*
X111498000Y-106200000D01*
G75*
G02*
X111343000Y-106355000I-155000J0D01*
G01*
G37*
%TD.AperFunction*%
%TO.P,U1,18*%
%TO.N,/AD4*%
%TA.AperFunction,SMDPad,CuDef*%
G36*
G01*
X111343000Y-107625000D02*
X109253000Y-107625000D01*
G75*
G02*
X109098000Y-107470000I0J155000D01*
G01*
X109098000Y-107160000D01*
G75*
G02*
X109253000Y-107005000I155000J0D01*
G01*
X111343000Y-107005000D01*
G75*
G02*
X111498000Y-107160000I0J-155000D01*
G01*
X111498000Y-107470000D01*
G75*
G02*
X111343000Y-107625000I-155000J0D01*
G01*
G37*
%TD.AperFunction*%
%TO.P,U1,17*%
%TO.N,/AD3*%
%TA.AperFunction,SMDPad,CuDef*%
G36*
G01*
X111343000Y-108895000D02*
X109253000Y-108895000D01*
G75*
G02*
X109098000Y-108740000I0J155000D01*
G01*
X109098000Y-108430000D01*
G75*
G02*
X109253000Y-108275000I155000J0D01*
G01*
X111343000Y-108275000D01*
G75*
G02*
X111498000Y-108430000I0J-155000D01*
G01*
X111498000Y-108740000D01*
G75*
G02*
X111343000Y-108895000I-155000J0D01*
G01*
G37*
%TD.AperFunction*%
%TO.P,U1,16*%
%TO.N,GND*%
%TA.AperFunction,SMDPad,CuDef*%
G36*
G01*
X111343000Y-110165000D02*
X109253000Y-110165000D01*
G75*
G02*
X109098000Y-110010000I0J155000D01*
G01*
X109098000Y-109700000D01*
G75*
G02*
X109253000Y-109545000I155000J0D01*
G01*
X111343000Y-109545000D01*
G75*
G02*
X111498000Y-109700000I0J-155000D01*
G01*
X111498000Y-110010000D01*
G75*
G02*
X111343000Y-110165000I-155000J0D01*
G01*
G37*
%TD.AperFunction*%
%TO.P,U1,15*%
%TO.N,/AD2*%
%TA.AperFunction,SMDPad,CuDef*%
G36*
G01*
X111343000Y-111435000D02*
X109253000Y-111435000D01*
G75*
G02*
X109098000Y-111280000I0J155000D01*
G01*
X109098000Y-110970000D01*
G75*
G02*
X109253000Y-110815000I155000J0D01*
G01*
X111343000Y-110815000D01*
G75*
G02*
X111498000Y-110970000I0J-155000D01*
G01*
X111498000Y-111280000D01*
G75*
G02*
X111343000Y-111435000I-155000J0D01*
G01*
G37*
%TD.AperFunction*%
%TO.P,U1,14*%
%TO.N,/AD1*%
%TA.AperFunction,SMDPad,CuDef*%
G36*
G01*
X111343000Y-112705000D02*
X109253000Y-112705000D01*
G75*
G02*
X109098000Y-112550000I0J155000D01*
G01*
X109098000Y-112240000D01*
G75*
G02*
X109253000Y-112085000I155000J0D01*
G01*
X111343000Y-112085000D01*
G75*
G02*
X111498000Y-112240000I0J-155000D01*
G01*
X111498000Y-112550000D01*
G75*
G02*
X111343000Y-112705000I-155000J0D01*
G01*
G37*
%TD.AperFunction*%
%TO.P,U1,13*%
%TO.N,/AD0*%
%TA.AperFunction,SMDPad,CuDef*%
G36*
G01*
X108740000Y-115288000D02*
X108430000Y-115288000D01*
G75*
G02*
X108275000Y-115133000I0J155000D01*
G01*
X108275000Y-113043000D01*
G75*
G02*
X108430000Y-112888000I155000J0D01*
G01*
X108740000Y-112888000D01*
G75*
G02*
X108895000Y-113043000I0J-155000D01*
G01*
X108895000Y-115133000D01*
G75*
G02*
X108740000Y-115288000I-155000J0D01*
G01*
G37*
%TD.AperFunction*%
%TO.P,U1,12*%
%TO.N,/AA0*%
%TA.AperFunction,SMDPad,CuDef*%
G36*
G01*
X107470000Y-115288000D02*
X107160000Y-115288000D01*
G75*
G02*
X107005000Y-115133000I0J155000D01*
G01*
X107005000Y-113043000D01*
G75*
G02*
X107160000Y-112888000I155000J0D01*
G01*
X107470000Y-112888000D01*
G75*
G02*
X107625000Y-113043000I0J-155000D01*
G01*
X107625000Y-115133000D01*
G75*
G02*
X107470000Y-115288000I-155000J0D01*
G01*
G37*
%TD.AperFunction*%
%TO.P,U1,11*%
%TO.N,/AA1*%
%TA.AperFunction,SMDPad,CuDef*%
G36*
G01*
X106200000Y-115288000D02*
X105890000Y-115288000D01*
G75*
G02*
X105735000Y-115133000I0J155000D01*
G01*
X105735000Y-113043000D01*
G75*
G02*
X105890000Y-112888000I155000J0D01*
G01*
X106200000Y-112888000D01*
G75*
G02*
X106355000Y-113043000I0J-155000D01*
G01*
X106355000Y-115133000D01*
G75*
G02*
X106200000Y-115288000I-155000J0D01*
G01*
G37*
%TD.AperFunction*%
%TO.P,U1,10*%
%TO.N,/AA2*%
%TA.AperFunction,SMDPad,CuDef*%
G36*
G01*
X104930000Y-115288000D02*
X104620000Y-115288000D01*
G75*
G02*
X104465000Y-115133000I0J155000D01*
G01*
X104465000Y-113043000D01*
G75*
G02*
X104620000Y-112888000I155000J0D01*
G01*
X104930000Y-112888000D01*
G75*
G02*
X105085000Y-113043000I0J-155000D01*
G01*
X105085000Y-115133000D01*
G75*
G02*
X104930000Y-115288000I-155000J0D01*
G01*
G37*
%TD.AperFunction*%
%TO.P,U1,9*%
%TO.N,/AA3*%
%TA.AperFunction,SMDPad,CuDef*%
G36*
G01*
X103660000Y-115288000D02*
X103350000Y-115288000D01*
G75*
G02*
X103195000Y-115133000I0J155000D01*
G01*
X103195000Y-113043000D01*
G75*
G02*
X103350000Y-112888000I155000J0D01*
G01*
X103660000Y-112888000D01*
G75*
G02*
X103815000Y-113043000I0J-155000D01*
G01*
X103815000Y-115133000D01*
G75*
G02*
X103660000Y-115288000I-155000J0D01*
G01*
G37*
%TD.AperFunction*%
%TO.P,U1,8*%
%TO.N,/AA4*%
%TA.AperFunction,SMDPad,CuDef*%
G36*
G01*
X102390000Y-115288000D02*
X102080000Y-115288000D01*
G75*
G02*
X101925000Y-115133000I0J155000D01*
G01*
X101925000Y-113043000D01*
G75*
G02*
X102080000Y-112888000I155000J0D01*
G01*
X102390000Y-112888000D01*
G75*
G02*
X102545000Y-113043000I0J-155000D01*
G01*
X102545000Y-115133000D01*
G75*
G02*
X102390000Y-115288000I-155000J0D01*
G01*
G37*
%TD.AperFunction*%
%TO.P,U1,7*%
%TO.N,/AA5*%
%TA.AperFunction,SMDPad,CuDef*%
G36*
G01*
X101120000Y-115288000D02*
X100810000Y-115288000D01*
G75*
G02*
X100655000Y-115133000I0J155000D01*
G01*
X100655000Y-113043000D01*
G75*
G02*
X100810000Y-112888000I155000J0D01*
G01*
X101120000Y-112888000D01*
G75*
G02*
X101275000Y-113043000I0J-155000D01*
G01*
X101275000Y-115133000D01*
G75*
G02*
X101120000Y-115288000I-155000J0D01*
G01*
G37*
%TD.AperFunction*%
%TO.P,U1,6*%
%TO.N,/AA6*%
%TA.AperFunction,SMDPad,CuDef*%
G36*
G01*
X99850000Y-115288000D02*
X99540000Y-115288000D01*
G75*
G02*
X99385000Y-115133000I0J155000D01*
G01*
X99385000Y-113043000D01*
G75*
G02*
X99540000Y-112888000I155000J0D01*
G01*
X99850000Y-112888000D01*
G75*
G02*
X100005000Y-113043000I0J-155000D01*
G01*
X100005000Y-115133000D01*
G75*
G02*
X99850000Y-115288000I-155000J0D01*
G01*
G37*
%TD.AperFunction*%
%TO.P,U1,5*%
%TO.N,/AA7*%
%TA.AperFunction,SMDPad,CuDef*%
G36*
G01*
X98580000Y-115288000D02*
X98270000Y-115288000D01*
G75*
G02*
X98115000Y-115133000I0J155000D01*
G01*
X98115000Y-113043000D01*
G75*
G02*
X98270000Y-112888000I155000J0D01*
G01*
X98580000Y-112888000D01*
G75*
G02*
X98735000Y-113043000I0J-155000D01*
G01*
X98735000Y-115133000D01*
G75*
G02*
X98580000Y-115288000I-155000J0D01*
G01*
G37*
%TD.AperFunction*%
%TO.P,U1,4*%
%TO.N,/AA12*%
%TA.AperFunction,SMDPad,CuDef*%
G36*
G01*
X97757000Y-112705000D02*
X95667000Y-112705000D01*
G75*
G02*
X95512000Y-112550000I0J155000D01*
G01*
X95512000Y-112240000D01*
G75*
G02*
X95667000Y-112085000I155000J0D01*
G01*
X97757000Y-112085000D01*
G75*
G02*
X97912000Y-112240000I0J-155000D01*
G01*
X97912000Y-112550000D01*
G75*
G02*
X97757000Y-112705000I-155000J0D01*
G01*
G37*
%TD.AperFunction*%
%TO.P,U1,3*%
%TO.N,GND*%
%TA.AperFunction,SMDPad,CuDef*%
G36*
G01*
X97757000Y-111435000D02*
X95667000Y-111435000D01*
G75*
G02*
X95512000Y-111280000I0J155000D01*
G01*
X95512000Y-110970000D01*
G75*
G02*
X95667000Y-110815000I155000J0D01*
G01*
X97757000Y-110815000D01*
G75*
G02*
X97912000Y-110970000I0J-155000D01*
G01*
X97912000Y-111280000D01*
G75*
G02*
X97757000Y-111435000I-155000J0D01*
G01*
G37*
%TD.AperFunction*%
%TO.P,U1,2*%
%TA.AperFunction,SMDPad,CuDef*%
G36*
G01*
X97757000Y-110165000D02*
X95667000Y-110165000D01*
G75*
G02*
X95512000Y-110010000I0J155000D01*
G01*
X95512000Y-109700000D01*
G75*
G02*
X95667000Y-109545000I155000J0D01*
G01*
X97757000Y-109545000D01*
G75*
G02*
X97912000Y-109700000I0J-155000D01*
G01*
X97912000Y-110010000D01*
G75*
G02*
X97757000Y-110165000I-155000J0D01*
G01*
G37*
%TD.AperFunction*%
%TO.P,U1,1*%
%TA.AperFunction,SMDPad,CuDef*%
G36*
G01*
X97757000Y-108895000D02*
X95667000Y-108895000D01*
G75*
G02*
X95512000Y-108740000I0J155000D01*
G01*
X95512000Y-108430000D01*
G75*
G02*
X95667000Y-108275000I155000J0D01*
G01*
X97757000Y-108275000D01*
G75*
G02*
X97912000Y-108430000I0J-155000D01*
G01*
X97912000Y-108740000D01*
G75*
G02*
X97757000Y-108895000I-155000J0D01*
G01*
G37*
%TD.AperFunction*%
%TD*%
D10*
%TO.P,J1,32*%
%TO.N,GND*%
X113000000Y-151500000D03*
D11*
%TO.P,J1,31*%
%TO.N,/AAudioIn*%
X111350000Y-151250000D03*
%TO.P,J1,30*%
%TO.N,/~ARST*%
X109850000Y-151250000D03*
%TO.P,J1,29*%
%TO.N,/AD7*%
X108350000Y-151250000D03*
%TO.P,J1,28*%
%TO.N,/AD6*%
X106850000Y-151250000D03*
%TO.P,J1,27*%
%TO.N,/AD5*%
X105350000Y-151250000D03*
%TO.P,J1,26*%
%TO.N,/AD4*%
X103850000Y-151250000D03*
%TO.P,J1,25*%
%TO.N,/AD3*%
X102350000Y-151250000D03*
%TO.P,J1,24*%
%TO.N,/AD2*%
X100850000Y-151250000D03*
%TO.P,J1,23*%
%TO.N,/AD1*%
X99350000Y-151250000D03*
%TO.P,J1,22*%
%TO.N,/AD0*%
X97850000Y-151250000D03*
%TO.P,J1,21*%
%TO.N,/AA15*%
X96350000Y-151250000D03*
%TO.P,J1,20*%
%TO.N,/AA14*%
X94850000Y-151250000D03*
%TO.P,J1,19*%
%TO.N,/AA13*%
X93350000Y-151250000D03*
%TO.P,J1,18*%
%TO.N,/AA12*%
X91850000Y-151250000D03*
%TO.P,J1,17*%
%TO.N,/AA11*%
X90350000Y-151250000D03*
%TO.P,J1,16*%
%TO.N,/AA10*%
X88850000Y-151250000D03*
%TO.P,J1,15*%
%TO.N,/AA9*%
X87350000Y-151250000D03*
%TO.P,J1,14*%
%TO.N,/AA8*%
X85850000Y-151250000D03*
%TO.P,J1,13*%
%TO.N,/AA7*%
X84350000Y-151250000D03*
%TO.P,J1,12*%
%TO.N,/AA6*%
X82850000Y-151250000D03*
%TO.P,J1,11*%
%TO.N,/AA5*%
X81350000Y-151250000D03*
%TO.P,J1,10*%
%TO.N,/AA4*%
X79850000Y-151250000D03*
%TO.P,J1,9*%
%TO.N,/AA3*%
X78350000Y-151250000D03*
%TO.P,J1,8*%
%TO.N,/AA2*%
X76850000Y-151250000D03*
%TO.P,J1,7*%
%TO.N,/AA1*%
X75350000Y-151250000D03*
%TO.P,J1,6*%
%TO.N,/AA0*%
X73850000Y-151250000D03*
%TO.P,J1,5*%
%TO.N,/~ASRAM_CS*%
X72350000Y-151250000D03*
%TO.P,J1,4*%
%TO.N,/~ARD*%
X70850000Y-151250000D03*
%TO.P,J1,3*%
%TO.N,/~AWR*%
X69350000Y-151250000D03*
%TO.P,J1,2*%
%TO.N,/ACLK*%
X67850000Y-151250000D03*
D10*
%TO.P,J1,1*%
%TO.N,+5V*%
X66200000Y-151500000D03*
%TD*%
D12*
%TO.P,U3,39*%
%TO.N,/~F_CE_040*%
X70040500Y-97260000D03*
%TO.P,U3,38*%
%TO.N,/TDO*%
X71310500Y-97260000D03*
%TO.P,U3,37*%
%TO.N,/F040_A18*%
X72580500Y-97260000D03*
%TO.P,U3,36*%
%TO.N,/F040_A17*%
X73850500Y-97260000D03*
%TO.P,U3,35*%
%TO.N,+5V*%
X75120500Y-97260000D03*
%TO.P,U3,34*%
%TO.N,/F040_A16*%
X76390500Y-97260000D03*
%TO.P,U3,33*%
%TO.N,/F040_A15*%
X77660500Y-97260000D03*
%TO.P,U3,32*%
%TO.N,/TCK*%
X78930500Y-97260000D03*
%TO.P,U3,31*%
%TO.N,/F040_A14*%
X80200500Y-97260000D03*
%TO.P,U3,30*%
%TO.N,GND*%
X81470500Y-97260000D03*
%TO.P,U3,29*%
%TO.N,/AD7*%
X82740500Y-97260000D03*
D13*
%TO.P,U3,28*%
%TO.N,/AD6*%
X84540500Y-99060000D03*
%TO.P,U3,27*%
%TO.N,/AD5*%
X84540500Y-100330000D03*
%TO.P,U3,26*%
%TO.N,/AD4*%
X84540500Y-101600000D03*
%TO.P,U3,25*%
%TO.N,/AD3*%
X84540500Y-102870000D03*
%TO.P,U3,24*%
%TO.N,/AD2*%
X84540500Y-104140000D03*
%TO.P,U3,23*%
%TO.N,+5V*%
X84540500Y-105410000D03*
%TO.P,U3,22*%
%TO.N,GND*%
X84540500Y-106680000D03*
%TO.P,U3,21*%
%TO.N,/AD1*%
X84540500Y-107950000D03*
%TO.P,U3,20*%
%TO.N,/AD0*%
X84540500Y-109220000D03*
%TO.P,U3,19*%
%TO.N,/AA15*%
X84540500Y-110490000D03*
%TO.P,U3,18*%
%TO.N,/AA14*%
X84540500Y-111760000D03*
D12*
%TO.P,U3,17*%
%TO.N,/AA13*%
X82740500Y-113560000D03*
%TO.P,U3,16*%
%TO.N,/AA12*%
X81470500Y-113560000D03*
%TO.P,U3,15*%
%TO.N,+5V*%
X80200500Y-113560000D03*
%TO.P,U3,14*%
%TO.N,/AA11*%
X78930500Y-113560000D03*
%TO.P,U3,13*%
%TO.N,/TMS*%
X77660500Y-113560000D03*
%TO.P,U3,12*%
%TO.N,/AA10*%
X76390500Y-113560000D03*
%TO.P,U3,11*%
%TO.N,/AA9*%
X75120500Y-113560000D03*
%TO.P,U3,10*%
%TO.N,GND*%
X73850500Y-113560000D03*
%TO.P,U3,9*%
%TO.N,/AA8*%
X72580500Y-113560000D03*
%TO.P,U3,8*%
%TO.N,/AA7*%
X71310500Y-113560000D03*
%TO.P,U3,7*%
%TO.N,/TDI*%
X70040500Y-113560000D03*
D13*
%TO.P,U3,40*%
%TO.N,/~F_CE_010*%
X68240500Y-99060000D03*
%TO.P,U3,41*%
%TO.N,/F010_A14*%
X68240500Y-100330000D03*
%TO.P,U3,42*%
%TO.N,GND*%
X68240500Y-101600000D03*
%TO.P,U3,43*%
%TO.N,/~SW_1*%
X68240500Y-102870000D03*
%TO.P,U3,44*%
%TO.N,/~ARST*%
X68240500Y-104140000D03*
%TO.P,U3,6*%
%TO.N,/~ARD_T*%
X68240500Y-111760000D03*
%TO.P,U3,5*%
%TO.N,/~AWR_T*%
X68240500Y-110490000D03*
%TO.P,U3,4*%
%TO.N,/AA15_T*%
X68240500Y-109220000D03*
%TO.P,U3,3*%
%TO.N,+5V*%
X68240500Y-107950000D03*
%TO.P,U3,2*%
%TO.N,/~ARD*%
X68240500Y-106680000D03*
%TO.P,U3,1*%
%TO.N,/~AWR*%
X68240500Y-105410000D03*
%TD*%
D14*
%TO.P,SW1,4*%
%TO.N,N/C*%
X64770000Y-72050000D03*
%TO.P,SW1,5*%
X64770000Y-80350000D03*
D15*
%TO.P,SW1,3*%
X64770000Y-74200000D03*
%TO.P,SW1,2*%
%TO.N,/~SW_1*%
X64770000Y-76200000D03*
D16*
%TO.P,SW1,1*%
%TO.N,GND*%
X64770000Y-78200000D03*
%TD*%
%TO.P,R13,2*%
%TO.N,/TCK*%
%TA.AperFunction,SMDPad,CuDef*%
G36*
G01*
X74695000Y-137610002D02*
X74695000Y-136709998D01*
G75*
G02*
X74944998Y-136460000I249998J0D01*
G01*
X75470002Y-136460000D01*
G75*
G02*
X75720000Y-136709998I0J-249998D01*
G01*
X75720000Y-137610002D01*
G75*
G02*
X75470002Y-137860000I-249998J0D01*
G01*
X74944998Y-137860000D01*
G75*
G02*
X74695000Y-137610002I0J249998D01*
G01*
G37*
%TD.AperFunction*%
%TO.P,R13,1*%
%TO.N,GND*%
%TA.AperFunction,SMDPad,CuDef*%
G36*
G01*
X72870000Y-137610002D02*
X72870000Y-136709998D01*
G75*
G02*
X73119998Y-136460000I249998J0D01*
G01*
X73645002Y-136460000D01*
G75*
G02*
X73895000Y-136709998I0J-249998D01*
G01*
X73895000Y-137610002D01*
G75*
G02*
X73645002Y-137860000I-249998J0D01*
G01*
X73119998Y-137860000D01*
G75*
G02*
X72870000Y-137610002I0J249998D01*
G01*
G37*
%TD.AperFunction*%
%TD*%
%TO.P,R12,2*%
%TO.N,+5V*%
%TA.AperFunction,SMDPad,CuDef*%
G36*
G01*
X74695000Y-127450002D02*
X74695000Y-126549998D01*
G75*
G02*
X74944998Y-126300000I249998J0D01*
G01*
X75470002Y-126300000D01*
G75*
G02*
X75720000Y-126549998I0J-249998D01*
G01*
X75720000Y-127450002D01*
G75*
G02*
X75470002Y-127700000I-249998J0D01*
G01*
X74944998Y-127700000D01*
G75*
G02*
X74695000Y-127450002I0J249998D01*
G01*
G37*
%TD.AperFunction*%
%TO.P,R12,1*%
%TO.N,/TDI*%
%TA.AperFunction,SMDPad,CuDef*%
G36*
G01*
X72870000Y-127450002D02*
X72870000Y-126549998D01*
G75*
G02*
X73119998Y-126300000I249998J0D01*
G01*
X73645002Y-126300000D01*
G75*
G02*
X73895000Y-126549998I0J-249998D01*
G01*
X73895000Y-127450002D01*
G75*
G02*
X73645002Y-127700000I-249998J0D01*
G01*
X73119998Y-127700000D01*
G75*
G02*
X72870000Y-127450002I0J249998D01*
G01*
G37*
%TD.AperFunction*%
%TD*%
%TO.P,R11,2*%
%TO.N,+5V*%
%TA.AperFunction,SMDPad,CuDef*%
G36*
G01*
X74695000Y-132530002D02*
X74695000Y-131629998D01*
G75*
G02*
X74944998Y-131380000I249998J0D01*
G01*
X75470002Y-131380000D01*
G75*
G02*
X75720000Y-131629998I0J-249998D01*
G01*
X75720000Y-132530002D01*
G75*
G02*
X75470002Y-132780000I-249998J0D01*
G01*
X74944998Y-132780000D01*
G75*
G02*
X74695000Y-132530002I0J249998D01*
G01*
G37*
%TD.AperFunction*%
%TO.P,R11,1*%
%TO.N,/TMS*%
%TA.AperFunction,SMDPad,CuDef*%
G36*
G01*
X72870000Y-132530002D02*
X72870000Y-131629998D01*
G75*
G02*
X73119998Y-131380000I249998J0D01*
G01*
X73645002Y-131380000D01*
G75*
G02*
X73895000Y-131629998I0J-249998D01*
G01*
X73895000Y-132530002D01*
G75*
G02*
X73645002Y-132780000I-249998J0D01*
G01*
X73119998Y-132780000D01*
G75*
G02*
X72870000Y-132530002I0J249998D01*
G01*
G37*
%TD.AperFunction*%
%TD*%
%TO.P,R1,2*%
%TO.N,/~SW_1*%
%TA.AperFunction,SMDPad,CuDef*%
G36*
G01*
X69399998Y-76600000D02*
X70300002Y-76600000D01*
G75*
G02*
X70550000Y-76849998I0J-249998D01*
G01*
X70550000Y-77375002D01*
G75*
G02*
X70300002Y-77625000I-249998J0D01*
G01*
X69399998Y-77625000D01*
G75*
G02*
X69150000Y-77375002I0J249998D01*
G01*
X69150000Y-76849998D01*
G75*
G02*
X69399998Y-76600000I249998J0D01*
G01*
G37*
%TD.AperFunction*%
%TO.P,R1,1*%
%TO.N,+5V*%
%TA.AperFunction,SMDPad,CuDef*%
G36*
G01*
X69399998Y-74775000D02*
X70300002Y-74775000D01*
G75*
G02*
X70550000Y-75024998I0J-249998D01*
G01*
X70550000Y-75550002D01*
G75*
G02*
X70300002Y-75800000I-249998J0D01*
G01*
X69399998Y-75800000D01*
G75*
G02*
X69150000Y-75550002I0J249998D01*
G01*
X69150000Y-75024998D01*
G75*
G02*
X69399998Y-74775000I249998J0D01*
G01*
G37*
%TD.AperFunction*%
%TD*%
D17*
%TO.P,J3,1*%
%TO.N,/TCK*%
X69215000Y-137160000D03*
D18*
%TO.P,J3,2*%
%TO.N,GND*%
X66675000Y-137160000D03*
%TO.P,J3,3*%
%TO.N,/TDO*%
X69215000Y-134620000D03*
%TO.P,J3,4*%
%TO.N,+5V*%
X66675000Y-134620000D03*
%TO.P,J3,5*%
%TO.N,/TMS*%
X69215000Y-132080000D03*
%TO.P,J3,6*%
%TO.N,N/C*%
X66675000Y-132080000D03*
%TO.P,J3,7*%
X69215000Y-129540000D03*
%TO.P,J3,8*%
X66675000Y-129540000D03*
%TO.P,J3,9*%
%TO.N,/TDI*%
X69215000Y-127000000D03*
%TO.P,J3,10*%
%TO.N,GND*%
X66675000Y-127000000D03*
%TD*%
D19*
%TO.P,J2,SHIELD_4*%
%TO.N,N/C*%
X102600000Y-42590000D03*
%TO.P,J2,SHIELD_3*%
X76600000Y-42590000D03*
D20*
%TO.P,J2,32*%
%TO.N,GND*%
X112850000Y-63840000D03*
%TO.P,J2,31*%
%TO.N,/AAudioIn*%
X111350000Y-63840000D03*
%TO.P,J2,30*%
%TO.N,/~ARST*%
X109850000Y-63840000D03*
%TO.P,J2,29*%
%TO.N,/AD7*%
X108350000Y-63840000D03*
%TO.P,J2,28*%
%TO.N,/AD6*%
X106850000Y-63840000D03*
%TO.P,J2,27*%
%TO.N,/AD5*%
X105350000Y-63840000D03*
%TO.P,J2,26*%
%TO.N,/AD4*%
X103850000Y-63840000D03*
%TO.P,J2,25*%
%TO.N,/AD3*%
X102350000Y-63840000D03*
%TO.P,J2,24*%
%TO.N,/AD2*%
X100850000Y-63840000D03*
%TO.P,J2,23*%
%TO.N,/AD1*%
X99350000Y-63840000D03*
%TO.P,J2,22*%
%TO.N,/AD0*%
X97850000Y-63840000D03*
%TO.P,J2,21*%
%TO.N,/AA15_T*%
X96350000Y-63840000D03*
%TO.P,J2,20*%
%TO.N,/AA14*%
X94850000Y-63840000D03*
%TO.P,J2,19*%
%TO.N,/AA13*%
X93350000Y-63840000D03*
%TO.P,J2,18*%
%TO.N,/AA12*%
X91850000Y-63840000D03*
%TO.P,J2,17*%
%TO.N,/AA11*%
X90350000Y-63840000D03*
%TO.P,J2,16*%
%TO.N,/AA10*%
X88850000Y-63840000D03*
%TO.P,J2,15*%
%TO.N,/AA9*%
X87350000Y-63840000D03*
%TO.P,J2,14*%
%TO.N,/AA8*%
X85850000Y-63840000D03*
%TO.P,J2,13*%
%TO.N,/AA7*%
X84350000Y-63840000D03*
%TO.P,J2,12*%
%TO.N,/AA6*%
X82850000Y-63840000D03*
%TO.P,J2,11*%
%TO.N,/AA5*%
X81350000Y-63840000D03*
%TO.P,J2,10*%
%TO.N,/AA4*%
X79850000Y-63840000D03*
%TO.P,J2,9*%
%TO.N,/AA3*%
X78350000Y-63840000D03*
%TO.P,J2,8*%
%TO.N,/AA2*%
X76850000Y-63840000D03*
%TO.P,J2,7*%
%TO.N,/AA1*%
X75350000Y-63840000D03*
%TO.P,J2,6*%
%TO.N,/AA0*%
X73850000Y-63840000D03*
%TO.P,J2,5*%
%TO.N,/~ASRAM_CS*%
X72350000Y-63840000D03*
%TO.P,J2,4*%
%TO.N,/~ARD_T*%
X70850000Y-63840000D03*
%TO.P,J2,3*%
%TO.N,/~AWR_T*%
X69350000Y-63840000D03*
%TO.P,J2,2*%
%TO.N,/ACLK*%
X67850000Y-63840000D03*
%TO.P,J2,1*%
%TO.N,+5V*%
X66350000Y-63840000D03*
%TD*%
%TO.P,C3,2*%
%TO.N,+5V*%
%TA.AperFunction,SMDPad,CuDef*%
G36*
G01*
X77920000Y-121125000D02*
X77920000Y-120175000D01*
G75*
G02*
X78170000Y-119925000I250000J0D01*
G01*
X78670000Y-119925000D01*
G75*
G02*
X78920000Y-120175000I0J-250000D01*
G01*
X78920000Y-121125000D01*
G75*
G02*
X78670000Y-121375000I-250000J0D01*
G01*
X78170000Y-121375000D01*
G75*
G02*
X77920000Y-121125000I0J250000D01*
G01*
G37*
%TD.AperFunction*%
%TO.P,C3,1*%
%TO.N,GND*%
%TA.AperFunction,SMDPad,CuDef*%
G36*
G01*
X76020000Y-121125000D02*
X76020000Y-120175000D01*
G75*
G02*
X76270000Y-119925000I250000J0D01*
G01*
X76770000Y-119925000D01*
G75*
G02*
X77020000Y-120175000I0J-250000D01*
G01*
X77020000Y-121125000D01*
G75*
G02*
X76770000Y-121375000I-250000J0D01*
G01*
X76270000Y-121375000D01*
G75*
G02*
X76020000Y-121125000I0J250000D01*
G01*
G37*
%TD.AperFunction*%
%TD*%
%TO.P,C2,2*%
%TO.N,+5V*%
%TA.AperFunction,SMDPad,CuDef*%
G36*
G01*
X94165000Y-92235000D02*
X94165000Y-93185000D01*
G75*
G02*
X93915000Y-93435000I-250000J0D01*
G01*
X93415000Y-93435000D01*
G75*
G02*
X93165000Y-93185000I0J250000D01*
G01*
X93165000Y-92235000D01*
G75*
G02*
X93415000Y-91985000I250000J0D01*
G01*
X93915000Y-91985000D01*
G75*
G02*
X94165000Y-92235000I0J-250000D01*
G01*
G37*
%TD.AperFunction*%
%TO.P,C2,1*%
%TO.N,GND*%
%TA.AperFunction,SMDPad,CuDef*%
G36*
G01*
X96065000Y-92235000D02*
X96065000Y-93185000D01*
G75*
G02*
X95815000Y-93435000I-250000J0D01*
G01*
X95315000Y-93435000D01*
G75*
G02*
X95065000Y-93185000I0J250000D01*
G01*
X95065000Y-92235000D01*
G75*
G02*
X95315000Y-91985000I250000J0D01*
G01*
X95815000Y-91985000D01*
G75*
G02*
X96065000Y-92235000I0J-250000D01*
G01*
G37*
%TD.AperFunction*%
%TD*%
%TO.P,C1,2*%
%TO.N,+5V*%
%TA.AperFunction,SMDPad,CuDef*%
G36*
G01*
X94165000Y-120175000D02*
X94165000Y-121125000D01*
G75*
G02*
X93915000Y-121375000I-250000J0D01*
G01*
X93415000Y-121375000D01*
G75*
G02*
X93165000Y-121125000I0J250000D01*
G01*
X93165000Y-120175000D01*
G75*
G02*
X93415000Y-119925000I250000J0D01*
G01*
X93915000Y-119925000D01*
G75*
G02*
X94165000Y-120175000I0J-250000D01*
G01*
G37*
%TD.AperFunction*%
%TO.P,C1,1*%
%TO.N,GND*%
%TA.AperFunction,SMDPad,CuDef*%
G36*
G01*
X96065000Y-120175000D02*
X96065000Y-121125000D01*
G75*
G02*
X95815000Y-121375000I-250000J0D01*
G01*
X95315000Y-121375000D01*
G75*
G02*
X95065000Y-121125000I0J250000D01*
G01*
X95065000Y-120175000D01*
G75*
G02*
X95315000Y-119925000I250000J0D01*
G01*
X95815000Y-119925000D01*
G75*
G02*
X96065000Y-120175000I0J-250000D01*
G01*
G37*
%TD.AperFunction*%
%TD*%
D21*
%TO.N,+5V*%
X76271900Y-100082800D03*
X82162000Y-100082800D03*
X93580400Y-96710000D03*
X98566000Y-80532000D03*
%TO.N,GND*%
X113000000Y-145804500D03*
X75036700Y-120488500D03*
X73460200Y-119235100D03*
X65749899Y-83639899D03*
%TO.N,/AAudioIn*%
X111189700Y-75788800D03*
X113034500Y-99199900D03*
%TO.N,/~ARST*%
X63777100Y-86944700D03*
X109350000Y-70250000D03*
X113735200Y-87993800D03*
%TO.N,/AD7*%
X112785200Y-81606600D03*
X110260500Y-73316200D03*
X84706600Y-98009900D03*
X97830600Y-95007100D03*
%TO.N,/AD6*%
X86015800Y-97790700D03*
X97830600Y-94006700D03*
X110178200Y-89126000D03*
X109508000Y-75241300D03*
X107629700Y-69603000D03*
%TO.N,/AD5*%
X102800800Y-72656000D03*
X105232100Y-78505800D03*
X108127900Y-104909800D03*
X86989800Y-96025900D03*
%TO.N,/AD4*%
X104159100Y-68568900D03*
X108490600Y-79213200D03*
X112105600Y-107307500D03*
X88385200Y-104303900D03*
X100944700Y-105451300D03*
%TO.N,/AD3*%
X102923700Y-68568400D03*
X108487400Y-81101400D03*
X87208700Y-104542200D03*
X112107100Y-111110500D03*
%TO.N,/AD2*%
X101367200Y-71955300D03*
X108116000Y-109943600D03*
X105334600Y-83722500D03*
X88042100Y-96007100D03*
%TO.N,/AD1*%
X107235600Y-84345400D03*
X109688600Y-113385200D03*
X99350000Y-70043790D03*
%TO.N,/AD0*%
X97712800Y-123444400D03*
X106926300Y-88194400D03*
X108279900Y-112266600D03*
X97850000Y-69970000D03*
%TO.N,/AA14*%
X94777600Y-126974500D03*
X95451155Y-68487994D03*
%TO.N,/AA13*%
X98511800Y-73339900D03*
X81414400Y-105126400D03*
X96347200Y-99916900D03*
X95625000Y-69937995D03*
%TO.N,/AA12*%
X98533800Y-84044400D03*
X90931700Y-75292100D03*
X85619100Y-119060800D03*
X96546300Y-113310200D03*
X95215710Y-70850400D03*
%TO.N,/AA11*%
X78930500Y-111793700D03*
X102295000Y-82316000D03*
X100955200Y-100463300D03*
%TO.N,/AA10*%
X108508000Y-100059300D03*
X84674000Y-135051000D03*
X105436700Y-73477200D03*
X90940000Y-69210000D03*
%TO.N,/AA9*%
X78557400Y-109796700D03*
X102863200Y-84344800D03*
X100144500Y-99797500D03*
%TO.N,/AA8*%
X77117900Y-106413000D03*
X98439800Y-99097500D03*
X100964000Y-83436900D03*
%TO.N,/AA7*%
X82299200Y-131147500D03*
X99017700Y-82912400D03*
X97501100Y-115646700D03*
%TO.N,/AA6*%
X81618300Y-131881400D03*
X101357500Y-88466200D03*
X99937200Y-112225900D03*
%TO.N,/AA5*%
X92458300Y-94770700D03*
X97655300Y-88437700D03*
X81626600Y-134564400D03*
X94145000Y-122061300D03*
%TO.N,/AA4*%
X102713600Y-89161700D03*
X80847900Y-132888300D03*
X102235000Y-111827000D03*
%TO.N,/AA3*%
X103505000Y-88370500D03*
X80472300Y-135470600D03*
X103505000Y-112234400D03*
%TO.N,/AA2*%
X79718200Y-137145300D03*
X104478300Y-89081700D03*
X104775000Y-112261200D03*
%TO.N,/AA1*%
X79079900Y-138280500D03*
X104712300Y-90511400D03*
X105987700Y-112081100D03*
%TO.N,/AA0*%
X78332200Y-139028200D03*
X105286900Y-91351600D03*
X107006200Y-112255100D03*
%TO.N,/~ASRAM_CS*%
X70675500Y-115729400D03*
X72330400Y-69477700D03*
%TO.N,/~ARD*%
X74346000Y-104483100D03*
X70850000Y-139540900D03*
X99590500Y-98334600D03*
X102568800Y-83316400D03*
%TO.N,/~AWR*%
X72897800Y-104581700D03*
X100238700Y-84135300D03*
X94101500Y-101042800D03*
X69350000Y-139687200D03*
%TO.N,/ACLK*%
X67850000Y-141800600D03*
X67850000Y-69560900D03*
%TO.N,/AA15_T*%
X70910900Y-108024900D03*
X96215700Y-70845700D03*
%TO.N,/~ARD_T*%
X70012600Y-111436800D03*
X70850000Y-71410500D03*
%TO.N,/~AWR_T*%
X70435500Y-110004300D03*
X72529700Y-85744200D03*
%TO.N,/TCK*%
X76127800Y-108331800D03*
%TO.N,/TDO*%
X72516100Y-100038700D03*
%TO.N,/TMS*%
X75513800Y-119188200D03*
%TO.N,/F010_A14*%
X95684400Y-99164900D03*
X74743900Y-101546800D03*
%TO.N,/~F_CE_010*%
X97575900Y-97491000D03*
X74479400Y-100546400D03*
%TO.N,/F040_A17*%
X94893900Y-77419600D03*
X74318000Y-93954400D03*
%TO.N,/F040_A14*%
X98730800Y-77643100D03*
X81028200Y-94094100D03*
%TO.N,/~F_CE_040*%
X103573200Y-77476200D03*
X74308700Y-92713900D03*
%TO.N,/F040_A15*%
X94909700Y-82667700D03*
X77998600Y-95496000D03*
%TO.N,/F040_A16*%
X93810500Y-81577300D03*
X78743000Y-94515400D03*
%TO.N,/F040_A18*%
X94764100Y-80645000D03*
X73509400Y-94920000D03*
%TD*%
D22*
%TO.N,+5V*%
X69890800Y-107950000D02*
X69890800Y-107722700D01*
X69890800Y-107722700D02*
X71063300Y-106550200D01*
X71063300Y-106550200D02*
X73552200Y-106550200D01*
X73552200Y-106550200D02*
X75644200Y-104458200D01*
X75644200Y-104458200D02*
X75644200Y-100082800D01*
X82162000Y-104226100D02*
X82162000Y-100082800D01*
X75644200Y-100082800D02*
X75644200Y-99434000D01*
X75644200Y-99434000D02*
X75120500Y-98910300D01*
X76271900Y-100082800D02*
X75644200Y-100082800D01*
X82162000Y-104226100D02*
X81041500Y-104226100D01*
X81041500Y-104226100D02*
X80514100Y-104753500D01*
X80514100Y-104753500D02*
X80514100Y-111596100D01*
X80514100Y-111596100D02*
X80200500Y-111909700D01*
X82890200Y-105410000D02*
X82890200Y-104954300D01*
X82890200Y-104954300D02*
X82162000Y-104226100D01*
X93580400Y-96710000D02*
X93201200Y-97089200D01*
X93201200Y-97089200D02*
X93201200Y-104752900D01*
X93201200Y-104752900D02*
X95763300Y-107315000D01*
X93665000Y-92710000D02*
X93580400Y-92794600D01*
X93580400Y-92794600D02*
X93580400Y-96710000D01*
X95763300Y-107315000D02*
X96712000Y-107315000D01*
X93665000Y-120650000D02*
X93665000Y-109413300D01*
X93665000Y-109413300D02*
X95763300Y-107315000D01*
X68240500Y-107950000D02*
X69890800Y-107950000D01*
X75120500Y-97260000D02*
X75120500Y-98910300D01*
X96712000Y-79375000D02*
X97584300Y-79375000D01*
X97584300Y-79375000D02*
X98566000Y-80356700D01*
X98566000Y-80356700D02*
X98566000Y-80532000D01*
X66590200Y-125642700D02*
X73850200Y-125642700D01*
X73850200Y-125642700D02*
X75207500Y-127000000D01*
X66590200Y-107950000D02*
X66590200Y-125642700D01*
X66590200Y-125642700D02*
X66115500Y-125642700D01*
X66115500Y-125642700D02*
X65324700Y-126433500D01*
X65324700Y-126433500D02*
X65324700Y-134620000D01*
X80200500Y-113560000D02*
X80200500Y-111909700D01*
X66200000Y-151500000D02*
X66200000Y-144865000D01*
X66200000Y-144865000D02*
X65324700Y-143989700D01*
X65324700Y-143989700D02*
X65324700Y-134620000D01*
X66675000Y-134620000D02*
X65324700Y-134620000D01*
X75207500Y-132080000D02*
X75207500Y-127000000D01*
X68240500Y-107950000D02*
X66590200Y-107950000D01*
X69850000Y-75287500D02*
X69850000Y-73055000D01*
X69850000Y-73055000D02*
X66350000Y-69555000D01*
X66350000Y-69555000D02*
X66350000Y-63840000D01*
X78420000Y-120650000D02*
X80200500Y-118869500D01*
X80200500Y-118869500D02*
X80200500Y-115210300D01*
X80200500Y-113560000D02*
X80200500Y-115210300D01*
X84540500Y-105410000D02*
X82890200Y-105410000D01*
X75120500Y-95609700D02*
X75120500Y-97260000D01*
X75226900Y-91765800D02*
X75226900Y-95503300D01*
X71051400Y-87590300D02*
X75226900Y-91765800D01*
X71051400Y-76488900D02*
X71051400Y-87590300D01*
X75226900Y-95503300D02*
X75120500Y-95609700D01*
X69850000Y-75287500D02*
X71051400Y-76488900D01*
%TO.N,GND*%
X76520000Y-120650000D02*
X76358600Y-120488600D01*
X76358600Y-120488600D02*
X75036700Y-120488600D01*
X75036700Y-120488600D02*
X75036700Y-120488500D01*
X73382500Y-137160000D02*
X72024500Y-138518000D01*
X72024500Y-138518000D02*
X68033000Y-138518000D01*
X68033000Y-138518000D02*
X66675000Y-137160000D01*
X73850500Y-115210300D02*
X73460200Y-115600600D01*
X73460200Y-115600600D02*
X73460200Y-119235100D01*
X89203300Y-95381100D02*
X88918000Y-95095800D01*
X88918000Y-95095800D02*
X81984400Y-95095800D01*
X81984400Y-95095800D02*
X81470500Y-95609700D01*
X86190800Y-106680000D02*
X87919300Y-106680000D01*
X87919300Y-106680000D02*
X89735800Y-104863500D01*
X89735800Y-104863500D02*
X89735800Y-95913600D01*
X89735800Y-95913600D02*
X89203300Y-95381100D01*
X95460100Y-92710000D02*
X94231200Y-91481100D01*
X94231200Y-91481100D02*
X93103300Y-91481100D01*
X93103300Y-91481100D02*
X89203300Y-95381100D01*
X111154700Y-81915000D02*
X112027600Y-82787900D01*
X112027600Y-82787900D02*
X112027600Y-85366500D01*
X112027600Y-85366500D02*
X108827600Y-88566500D01*
X108827600Y-88566500D02*
X108827600Y-88570700D01*
X108827600Y-88570700D02*
X106187200Y-91211100D01*
X106187200Y-91211100D02*
X106187200Y-91724600D01*
X106187200Y-91724600D02*
X105659800Y-92252000D01*
X105659800Y-92252000D02*
X96023000Y-92252000D01*
X96023000Y-92252000D02*
X95565000Y-92710000D01*
X113000000Y-145804500D02*
X113000000Y-151500000D01*
X111154700Y-81915000D02*
X112850000Y-80219700D01*
X112850000Y-80219700D02*
X112850000Y-66840300D01*
X81470500Y-97260000D02*
X81470500Y-98910300D01*
X81470500Y-98910300D02*
X79763800Y-100617000D01*
X79763800Y-100617000D02*
X79763800Y-105996400D01*
X79763800Y-105996400D02*
X73850500Y-111909700D01*
X96712000Y-104775000D02*
X96712000Y-102379900D01*
X96712000Y-102379900D02*
X94784100Y-100452000D01*
X94784100Y-100452000D02*
X94784100Y-93386000D01*
X94784100Y-93386000D02*
X95460100Y-92710000D01*
X95460100Y-92710000D02*
X95565000Y-92710000D01*
X96712000Y-111125000D02*
X96712000Y-109855000D01*
X96712000Y-111125000D02*
X95855000Y-111125000D01*
X95855000Y-111125000D02*
X94969300Y-112010700D01*
X94969300Y-112010700D02*
X94969300Y-120054300D01*
X94969300Y-120054300D02*
X95565000Y-120650000D01*
X110298000Y-109855000D02*
X109300700Y-109855000D01*
X109300700Y-109855000D02*
X107827300Y-108381600D01*
X107827300Y-108381600D02*
X99073900Y-108381600D01*
X99073900Y-108381600D02*
X98423100Y-107730800D01*
X110298000Y-81915000D02*
X111154700Y-81915000D01*
X112850000Y-63840000D02*
X112850000Y-66840300D01*
X84540500Y-106680000D02*
X86190800Y-106680000D01*
X81470500Y-97260000D02*
X81470500Y-95609700D01*
X73850500Y-113560000D02*
X73850500Y-115210300D01*
X96712000Y-104775000D02*
X96712000Y-104775100D01*
X96712000Y-104775100D02*
X97605900Y-104775100D01*
X97605900Y-104775100D02*
X98423100Y-105592300D01*
X98423100Y-105592300D02*
X98423100Y-107730800D01*
X73850500Y-113560000D02*
X73850500Y-111909700D01*
X96712000Y-108585000D02*
X97568900Y-108585000D01*
X97568900Y-108585000D02*
X98423100Y-107730800D01*
X96712000Y-108585000D02*
X96712000Y-109855000D01*
X65745000Y-83644798D02*
X65749899Y-83639899D01*
X66590200Y-101600000D02*
X65745000Y-100754800D01*
X68240500Y-101600000D02*
X66590200Y-101600000D01*
X65745000Y-100754800D02*
X65745000Y-83644798D01*
D23*
%TO.N,/AAudioIn*%
X111189700Y-75788800D02*
X111189700Y-67020600D01*
X111189700Y-67020600D02*
X111350000Y-66860300D01*
X111350000Y-63840000D02*
X111350000Y-66860300D01*
X115295319Y-114649372D02*
X115295319Y-101460719D01*
X115295319Y-101460719D02*
X113034500Y-99199900D01*
X111350000Y-118594690D02*
X115295319Y-114649372D01*
X111350000Y-151250000D02*
X111350000Y-118594690D01*
D24*
%TO.N,/~ARST*%
X66765200Y-104140000D02*
X63777100Y-101151900D01*
X63777100Y-101151900D02*
X63777100Y-86944700D01*
X68240500Y-104140000D02*
X66765200Y-104140000D01*
X109850000Y-69750000D02*
X109350000Y-70250000D01*
X109850000Y-63840000D02*
X109850000Y-69750000D01*
X111200010Y-102513600D02*
X114650309Y-105963899D01*
X111200010Y-97790890D02*
X111200010Y-102513600D01*
X110774100Y-97364980D02*
X111200010Y-97790890D01*
X110774100Y-90954900D02*
X110774100Y-97364980D01*
X113735200Y-87993800D02*
X110774100Y-90954900D01*
X114650309Y-114382201D02*
X114650309Y-105963899D01*
X109850000Y-119182510D02*
X114650309Y-114382201D01*
X109850000Y-151250000D02*
X109850000Y-119182510D01*
%TO.N,/AD7*%
X97830600Y-95007100D02*
X97805300Y-95007100D01*
X97805300Y-95007100D02*
X97105300Y-94307100D01*
X97105300Y-94307100D02*
X97105300Y-93683400D01*
X97105300Y-93683400D02*
X97856900Y-92931800D01*
X97856900Y-92931800D02*
X105864400Y-92931800D01*
X105864400Y-92931800D02*
X106812500Y-91983700D01*
X106812500Y-91983700D02*
X106812500Y-91727000D01*
X106812500Y-91727000D02*
X109452900Y-89086600D01*
X109452900Y-89086600D02*
X109452900Y-88825600D01*
X109452900Y-88825600D02*
X109880700Y-88397800D01*
X109880700Y-88397800D02*
X110519100Y-88397800D01*
X112785200Y-81606600D02*
X112785200Y-86131700D01*
X112785200Y-86131700D02*
X110519100Y-88397800D01*
X108585000Y-73316200D02*
X108585000Y-75142000D01*
X108350000Y-66665300D02*
X108585000Y-66900300D01*
X108585000Y-66900300D02*
X108585000Y-73316200D01*
X108585000Y-73316200D02*
X110260500Y-73316200D01*
X108350000Y-63840000D02*
X108350000Y-66665300D01*
X108585000Y-103082000D02*
X109688100Y-101978900D01*
X109688100Y-101978900D02*
X109688100Y-99477300D01*
X109688100Y-99477300D02*
X105217900Y-95007100D01*
X105217900Y-95007100D02*
X97830600Y-95007100D01*
X84706600Y-98009900D02*
X83490400Y-98009900D01*
X83490400Y-98009900D02*
X82740500Y-97260000D01*
X108350000Y-120046100D02*
X108350000Y-148174700D01*
X110519100Y-88397800D02*
X110903800Y-88782500D01*
X110903800Y-88782500D02*
X110903800Y-90188300D01*
X114200010Y-106150010D02*
X114200010Y-114195510D01*
X110903800Y-90188300D02*
X110322500Y-90769600D01*
X110750000Y-102700000D02*
X114200010Y-106150010D01*
X110322500Y-90769600D02*
X110322500Y-97549790D01*
X110322500Y-97549790D02*
X110750000Y-97977290D01*
X114200010Y-114195510D02*
X114200300Y-114195800D01*
X108350000Y-148174700D02*
X108350000Y-151250000D01*
X110750000Y-97977290D02*
X110750000Y-102700000D01*
X114200300Y-114195800D02*
X108350000Y-120046100D01*
%TO.N,/AD6*%
X109390600Y-94006700D02*
X109390600Y-89913600D01*
X109390600Y-89913600D02*
X110178200Y-89126000D01*
X110298000Y-76835000D02*
X109508000Y-76045000D01*
X109508000Y-76045000D02*
X109508000Y-75241300D01*
X106850000Y-66665300D02*
X107629700Y-67445000D01*
X107629700Y-67445000D02*
X107629700Y-69603000D01*
X106850000Y-148174700D02*
X106850000Y-120909200D01*
X106850000Y-120909200D02*
X113750000Y-114009200D01*
X113750000Y-114009200D02*
X113750000Y-107233900D01*
X113750000Y-107233900D02*
X111291100Y-104775000D01*
X111291100Y-104775000D02*
X110298000Y-104775000D01*
X109390600Y-94006700D02*
X109390600Y-97254300D01*
X109390600Y-97254300D02*
X110298000Y-98161700D01*
X110298000Y-98161700D02*
X110298000Y-104775000D01*
X97830600Y-94006700D02*
X109390600Y-94006700D01*
X86015800Y-99060000D02*
X86015800Y-97790700D01*
X84540500Y-99060000D02*
X86015800Y-99060000D01*
X106850000Y-63840000D02*
X106850000Y-66665300D01*
X106850000Y-151250000D02*
X106850000Y-148174700D01*
%TO.N,/AD5*%
X105350000Y-63840000D02*
X105350000Y-70106800D01*
X105350000Y-70106800D02*
X102800800Y-72656000D01*
X110298000Y-78105000D02*
X105632900Y-78105000D01*
X105632900Y-78105000D02*
X105232100Y-78505800D01*
X105350000Y-151250000D02*
X105350000Y-121772300D01*
X105350000Y-121772300D02*
X113299700Y-113822600D01*
X113299700Y-113822600D02*
X113299700Y-107475400D01*
X113299700Y-107475400D02*
X111869300Y-106045000D01*
X111869300Y-106045000D02*
X110298000Y-106045000D01*
X86015800Y-100330000D02*
X86989800Y-99356000D01*
X86989800Y-99356000D02*
X86989800Y-96025900D01*
X84540500Y-100330000D02*
X86015800Y-100330000D01*
X108127900Y-104909800D02*
X109263100Y-106045000D01*
X109263100Y-106045000D02*
X110298000Y-106045000D01*
%TO.N,/AD4*%
X103850000Y-63840000D02*
X103850000Y-68259800D01*
X103850000Y-68259800D02*
X104159100Y-68568900D01*
X86015800Y-101600000D02*
X88385200Y-103969400D01*
X88385200Y-103969400D02*
X88385200Y-104303900D01*
X108490600Y-79213200D02*
X110136200Y-79213200D01*
X110136200Y-79213200D02*
X110298000Y-79375000D01*
X112105600Y-107307500D02*
X112849400Y-108051300D01*
X112849400Y-108051300D02*
X112849400Y-113636000D01*
X112849400Y-113636000D02*
X103850000Y-122635400D01*
X103850000Y-122635400D02*
X103850000Y-151250000D01*
X110298000Y-107315000D02*
X112098100Y-107315000D01*
X112098100Y-107315000D02*
X112105600Y-107307500D01*
X110298000Y-107315000D02*
X102808400Y-107315000D01*
X102808400Y-107315000D02*
X100944700Y-105451300D01*
X84540500Y-101600000D02*
X86015800Y-101600000D01*
%TO.N,/AD3*%
X86015800Y-102870000D02*
X86015800Y-103349300D01*
X86015800Y-103349300D02*
X87208700Y-104542200D01*
X102350000Y-63840000D02*
X102350000Y-67994700D01*
X102350000Y-67994700D02*
X102923700Y-68568400D01*
X108487400Y-81101400D02*
X109841600Y-81101400D01*
X109841600Y-81101400D02*
X110298000Y-80645000D01*
X110298000Y-108585000D02*
X111052200Y-108585000D01*
X111052200Y-108585000D02*
X112107100Y-109639900D01*
X112107100Y-109639900D02*
X112107100Y-111110500D01*
X102350000Y-151250000D02*
X102350000Y-123498500D01*
X102350000Y-123498500D02*
X112292000Y-113556500D01*
X112292000Y-113556500D02*
X112292000Y-111295400D01*
X112292000Y-111295400D02*
X112107100Y-111110500D01*
X84540500Y-102870000D02*
X86015800Y-102870000D01*
%TO.N,/AD2*%
X86015800Y-104140000D02*
X86015800Y-104375000D01*
X86015800Y-104375000D02*
X86988900Y-105348100D01*
X86988900Y-105348100D02*
X88366800Y-105348100D01*
X88366800Y-105348100D02*
X89110500Y-104604400D01*
X89110500Y-104604400D02*
X89110500Y-97075500D01*
X89110500Y-97075500D02*
X88042100Y-96007100D01*
X100850000Y-66665300D02*
X101367200Y-67182500D01*
X101367200Y-67182500D02*
X101367200Y-71955300D01*
X110298000Y-83185000D02*
X105872100Y-83185000D01*
X105872100Y-83185000D02*
X105334600Y-83722500D01*
X100850000Y-63840000D02*
X100850000Y-66665300D01*
X108116000Y-109943600D02*
X109297400Y-111125000D01*
X109297400Y-111125000D02*
X110298000Y-111125000D01*
X84540500Y-104140000D02*
X86015800Y-104140000D01*
X110298000Y-111125000D02*
X110912900Y-111125000D01*
X110912900Y-111125000D02*
X111841600Y-112053700D01*
X111841600Y-112053700D02*
X111841600Y-113347600D01*
X111841600Y-113347600D02*
X100850000Y-124339200D01*
X100850000Y-124339200D02*
X100850000Y-151250000D01*
%TO.N,/AD1*%
X110298000Y-84455000D02*
X107345200Y-84455000D01*
X107345200Y-84455000D02*
X107235600Y-84345400D01*
X99350000Y-124055800D02*
X98013300Y-122719100D01*
X98013300Y-122719100D02*
X97412400Y-122719100D01*
X97412400Y-122719100D02*
X97344900Y-122786600D01*
X97344900Y-122786600D02*
X93513700Y-122786600D01*
X93513700Y-122786600D02*
X91734500Y-121007400D01*
X91734500Y-121007400D02*
X91734500Y-113668700D01*
X91734500Y-113668700D02*
X86015800Y-107950000D01*
X99350000Y-151250000D02*
X99350000Y-124055800D01*
X99350000Y-124055800D02*
X100496500Y-124055800D01*
X100496500Y-124055800D02*
X109688600Y-114863700D01*
X109688600Y-114863700D02*
X109688600Y-113385200D01*
X84540500Y-107950000D02*
X86015800Y-107950000D01*
X110298000Y-112395000D02*
X110298000Y-112775800D01*
X110298000Y-112775800D02*
X109688600Y-113385200D01*
X99350000Y-63840000D02*
X99350000Y-70043790D01*
%TO.N,/AD0*%
X108585000Y-86148000D02*
X108585000Y-86817400D01*
X108585000Y-86817400D02*
X107208000Y-88194400D01*
X107208000Y-88194400D02*
X106926300Y-88194400D01*
X97712800Y-123444400D02*
X93437900Y-123444400D01*
X93437900Y-123444400D02*
X87060700Y-117067200D01*
X87060700Y-117067200D02*
X87060700Y-110264900D01*
X87060700Y-110264900D02*
X86015800Y-109220000D01*
X97712800Y-123444400D02*
X97712800Y-148037500D01*
X97712800Y-148037500D02*
X97850000Y-148174700D01*
X84540500Y-109220000D02*
X86015800Y-109220000D01*
X97850000Y-151250000D02*
X97850000Y-148174700D01*
X108279900Y-112266600D02*
X108279900Y-113782900D01*
X108279900Y-113782900D02*
X108585000Y-114088000D01*
X97850000Y-63840000D02*
X97850000Y-69970000D01*
%TO.N,/AA15*%
X86015800Y-110490000D02*
X86466200Y-110940400D01*
X86466200Y-110940400D02*
X86466200Y-117482200D01*
X86466200Y-117482200D02*
X96350000Y-127366000D01*
X96350000Y-127366000D02*
X96350000Y-148174700D01*
X96350000Y-151250000D02*
X96350000Y-148174700D01*
X84540500Y-110490000D02*
X86015800Y-110490000D01*
%TO.N,/AA14*%
X94850000Y-148174700D02*
X94777600Y-148102300D01*
X94777600Y-148102300D02*
X94777600Y-126974500D01*
X94777600Y-126974500D02*
X94777600Y-126556500D01*
X94777600Y-126556500D02*
X86015800Y-117794700D01*
X86015800Y-117794700D02*
X86015800Y-111760000D01*
X94850000Y-151250000D02*
X94850000Y-148174700D01*
X84540500Y-111760000D02*
X86015800Y-111760000D01*
X94850000Y-67886839D02*
X95451155Y-68487994D01*
X94850000Y-63840000D02*
X94850000Y-67886839D01*
%TO.N,/AA13*%
X99695000Y-75142000D02*
X99695000Y-74523100D01*
X99695000Y-74523100D02*
X98511800Y-73339900D01*
X82740500Y-112084700D02*
X82740500Y-106452500D01*
X82740500Y-106452500D02*
X81414400Y-105126400D01*
X99695000Y-103082000D02*
X99695000Y-102414000D01*
X99695000Y-102414000D02*
X97197900Y-99916900D01*
X97197900Y-99916900D02*
X96347200Y-99916900D01*
X82740500Y-113560000D02*
X82740500Y-112084700D01*
X82740500Y-115035300D02*
X82740500Y-115156300D01*
X82740500Y-115156300D02*
X93539600Y-125955400D01*
X93539600Y-125955400D02*
X93539600Y-147985100D01*
X93539600Y-147985100D02*
X93350000Y-148174700D01*
X93350000Y-151250000D02*
X93350000Y-148174700D01*
X82740500Y-113560000D02*
X82740500Y-115035300D01*
X93350000Y-67662995D02*
X95625000Y-69937995D01*
X93350000Y-63840000D02*
X93350000Y-67662995D01*
%TO.N,/AA12*%
X91850000Y-151250000D02*
X91850000Y-147694400D01*
X91850000Y-147694400D02*
X85624600Y-141469000D01*
X85624600Y-141469000D02*
X85624600Y-135763100D01*
X85624600Y-135763100D02*
X85849600Y-135538100D01*
X85849600Y-135538100D02*
X85849600Y-119291300D01*
X85849600Y-119291300D02*
X85619100Y-119060800D01*
X81470500Y-115035300D02*
X85496000Y-119060800D01*
X85496000Y-119060800D02*
X85619100Y-119060800D01*
X96712000Y-84455000D02*
X95592400Y-84455000D01*
X95592400Y-84455000D02*
X90931700Y-79794300D01*
X90931700Y-79794300D02*
X90931700Y-75292100D01*
X96712000Y-84455000D02*
X98123200Y-84455000D01*
X98123200Y-84455000D02*
X98533800Y-84044400D01*
X96712000Y-112395000D02*
X96712000Y-113144500D01*
X96712000Y-113144500D02*
X96546300Y-113310200D01*
X91850000Y-66665300D02*
X91850000Y-67459300D01*
X91850000Y-63840000D02*
X91850000Y-66665300D01*
X81470500Y-113560000D02*
X81470500Y-115035300D01*
X91850000Y-67484690D02*
X91850000Y-67459300D01*
X95215710Y-70850400D02*
X91850000Y-67484690D01*
%TO.N,/AA11*%
X90350000Y-151250000D02*
X90350000Y-146863400D01*
X90350000Y-146863400D02*
X85174300Y-141687700D01*
X85174300Y-141687700D02*
X85174300Y-135576500D01*
X85174300Y-135576500D02*
X85399300Y-135351500D01*
X85399300Y-135351500D02*
X85399300Y-129625800D01*
X85399300Y-129625800D02*
X77541200Y-121767700D01*
X77541200Y-121767700D02*
X77541200Y-119776300D01*
X77541200Y-119776300D02*
X78930500Y-118387000D01*
X78930500Y-118387000D02*
X78930500Y-113560000D01*
X78930500Y-111793700D02*
X78930500Y-113560000D01*
X103505000Y-75142000D02*
X103505000Y-74532600D01*
X103505000Y-74532600D02*
X102577100Y-73604700D01*
X102577100Y-73604700D02*
X101990900Y-73604700D01*
X101990900Y-73604700D02*
X99961600Y-71575400D01*
X99961600Y-71575400D02*
X94883800Y-71575400D01*
X103505000Y-103082000D02*
X103505000Y-102429400D01*
X103505000Y-102429400D02*
X101538900Y-100463300D01*
X101538900Y-100463300D02*
X100955200Y-100463300D01*
X103505000Y-75142000D02*
X103505000Y-75799300D01*
X103505000Y-75799300D02*
X102295000Y-77009300D01*
X102295000Y-77009300D02*
X102295000Y-82316000D01*
X90350000Y-67041600D02*
X94883800Y-71575400D01*
X90350000Y-63840000D02*
X90350000Y-67041600D01*
%TO.N,/AA10*%
X88850000Y-151250000D02*
X88850000Y-146669200D01*
X88850000Y-146669200D02*
X84674000Y-142493200D01*
X84674000Y-142493200D02*
X84674000Y-135051000D01*
X76390500Y-115035300D02*
X74734000Y-116691800D01*
X74734000Y-116691800D02*
X74734000Y-119694800D01*
X74734000Y-119694800D02*
X74252500Y-120176300D01*
X74252500Y-120176300D02*
X74252500Y-120801000D01*
X74252500Y-120801000D02*
X74793000Y-121341500D01*
X74793000Y-121341500D02*
X74925000Y-121341500D01*
X74925000Y-121341500D02*
X84674000Y-131090500D01*
X84674000Y-131090500D02*
X84674000Y-135051000D01*
X106045000Y-75142000D02*
X106045000Y-74085500D01*
X106045000Y-74085500D02*
X105436700Y-73477200D01*
X108508000Y-100059300D02*
X108392100Y-100059300D01*
X108392100Y-100059300D02*
X106045000Y-102406400D01*
X106045000Y-102406400D02*
X106045000Y-103082000D01*
X76390500Y-113560000D02*
X76390500Y-115035300D01*
X88850000Y-67120000D02*
X90940000Y-69210000D01*
X88850000Y-63840000D02*
X88850000Y-67120000D01*
%TO.N,/AA9*%
X87350000Y-151250000D02*
X87350000Y-145854000D01*
X87350000Y-145854000D02*
X83723600Y-142227600D01*
X83723600Y-142227600D02*
X83723600Y-130908900D01*
X83723600Y-130908900D02*
X83723500Y-130908900D01*
X83723500Y-130908900D02*
X73802200Y-120987600D01*
X73802200Y-120987600D02*
X73802200Y-119989700D01*
X73802200Y-119989700D02*
X74283700Y-119508200D01*
X74283700Y-119508200D02*
X74283700Y-115872100D01*
X74283700Y-115872100D02*
X75120500Y-115035300D01*
X78557400Y-109796700D02*
X77408500Y-109796700D01*
X77408500Y-109796700D02*
X75120500Y-112084700D01*
X102235000Y-75142000D02*
X102235000Y-74485600D01*
X102235000Y-74485600D02*
X102234900Y-74485600D01*
X102234900Y-74485600D02*
X99785200Y-72035900D01*
X99785200Y-72035900D02*
X92720600Y-72035900D01*
X92720600Y-72035900D02*
X87350000Y-66665300D01*
X100144500Y-99797500D02*
X100144500Y-100678300D01*
X100144500Y-100678300D02*
X100876000Y-101409800D01*
X100876000Y-101409800D02*
X101172900Y-101409800D01*
X101172900Y-101409800D02*
X102235000Y-102471900D01*
X102235000Y-102471900D02*
X102235000Y-103082000D01*
X102235000Y-75142000D02*
X101645500Y-75731500D01*
X101645500Y-75731500D02*
X101645500Y-81939700D01*
X101645500Y-81939700D02*
X101569600Y-82015600D01*
X101569600Y-82015600D02*
X101569600Y-82797200D01*
X101569600Y-82797200D02*
X101689300Y-82916900D01*
X101689300Y-82916900D02*
X101689300Y-83513400D01*
X101689300Y-83513400D02*
X102520700Y-84344800D01*
X102520700Y-84344800D02*
X102863200Y-84344800D01*
X75120500Y-113560000D02*
X75120500Y-112084700D01*
X75120500Y-114297600D02*
X75120500Y-113560000D01*
X75120500Y-114297600D02*
X75120500Y-115035300D01*
X87350000Y-63840000D02*
X87350000Y-66665300D01*
%TO.N,/AA8*%
X72580500Y-113560000D02*
X72580500Y-120402800D01*
X72580500Y-120402800D02*
X83253800Y-131076100D01*
X83253800Y-131076100D02*
X83253800Y-142772200D01*
X83253800Y-142772200D02*
X85850000Y-145368400D01*
X85850000Y-145368400D02*
X85850000Y-151250000D01*
X77117900Y-106413000D02*
X76962000Y-106413000D01*
X76962000Y-106413000D02*
X72580500Y-110794500D01*
X72580500Y-110794500D02*
X72580500Y-113560000D01*
X85850000Y-63840000D02*
X85850000Y-66665300D01*
X85850000Y-66665300D02*
X91735100Y-72550400D01*
X91735100Y-72550400D02*
X98996400Y-72550400D01*
X98996400Y-72550400D02*
X100965000Y-74519000D01*
X100965000Y-74519000D02*
X100965000Y-75142000D01*
X100965000Y-75142000D02*
X100965000Y-83435900D01*
X100965000Y-83435900D02*
X100964000Y-83436900D01*
X98439800Y-99097500D02*
X98439800Y-99885300D01*
X98439800Y-99885300D02*
X100965000Y-102410500D01*
X100965000Y-102410500D02*
X100965000Y-103082000D01*
%TO.N,/AA7*%
X82299200Y-131147500D02*
X82803400Y-131651700D01*
X82803400Y-131651700D02*
X82803400Y-143253000D01*
X82803400Y-143253000D02*
X84350000Y-144799600D01*
X84350000Y-144799600D02*
X84350000Y-151250000D01*
X71310500Y-115035300D02*
X71400800Y-115125600D01*
X71400800Y-115125600D02*
X71400800Y-120015100D01*
X71400800Y-120015100D02*
X82299200Y-130913500D01*
X82299200Y-130913500D02*
X82299200Y-131147500D01*
X71310500Y-113560000D02*
X71310500Y-115035300D01*
X98425000Y-86148000D02*
X96491900Y-86148000D01*
X96491900Y-86148000D02*
X84350000Y-74006100D01*
X84350000Y-74006100D02*
X84350000Y-63840000D01*
X98425000Y-86148000D02*
X98425000Y-85179100D01*
X98425000Y-85179100D02*
X99278600Y-84325500D01*
X99278600Y-84325500D02*
X99278600Y-83173300D01*
X99278600Y-83173300D02*
X99017700Y-82912400D01*
X98425000Y-114088000D02*
X97501100Y-115011900D01*
X97501100Y-115011900D02*
X97501100Y-115646700D01*
%TO.N,/AA6*%
X82850000Y-148174700D02*
X82353000Y-147677700D01*
X82353000Y-147677700D02*
X82353000Y-132616100D01*
X82353000Y-132616100D02*
X81618300Y-131881400D01*
X99672500Y-86781200D02*
X98758700Y-87695000D01*
X98758700Y-87695000D02*
X97402000Y-87695000D01*
X97402000Y-87695000D02*
X82850000Y-73143000D01*
X82850000Y-73143000D02*
X82850000Y-63840000D01*
X99695000Y-86148000D02*
X99695000Y-86758700D01*
X99695000Y-86758700D02*
X99672500Y-86781200D01*
X99672500Y-86781200D02*
X101357500Y-88466200D01*
X82850000Y-151250000D02*
X82850000Y-148174700D01*
X99937200Y-112225900D02*
X99695000Y-112468100D01*
X99695000Y-112468100D02*
X99695000Y-114088000D01*
%TO.N,/AA5*%
X100965000Y-86148000D02*
X100965000Y-86988200D01*
X100965000Y-86988200D02*
X102130100Y-88153300D01*
X102130100Y-88153300D02*
X102130100Y-88719500D01*
X102130100Y-88719500D02*
X101658200Y-89191400D01*
X101658200Y-89191400D02*
X101658200Y-89191500D01*
X101658200Y-89191500D02*
X98409100Y-89191500D01*
X98409100Y-89191500D02*
X97655300Y-88437700D01*
X81350000Y-66665300D02*
X81350000Y-72279900D01*
X81350000Y-72279900D02*
X97507800Y-88437700D01*
X97507800Y-88437700D02*
X97655300Y-88437700D01*
X92458300Y-94770700D02*
X92458300Y-121094300D01*
X92458300Y-121094300D02*
X93425300Y-122061300D01*
X93425300Y-122061300D02*
X94145000Y-122061300D01*
X81350000Y-148174700D02*
X81715600Y-147809100D01*
X81715600Y-147809100D02*
X81715600Y-134653400D01*
X81715600Y-134653400D02*
X81626600Y-134564400D01*
X100965000Y-114088000D02*
X100965000Y-116918800D01*
X100965000Y-116918800D02*
X95822500Y-122061300D01*
X95822500Y-122061300D02*
X94145000Y-122061300D01*
X81350000Y-63840000D02*
X81350000Y-66665300D01*
X81350000Y-151250000D02*
X81350000Y-148174700D01*
%TO.N,/AA4*%
X102235000Y-86148000D02*
X102713600Y-86626600D01*
X102713600Y-86626600D02*
X102713600Y-89161700D01*
X102713600Y-89161700D02*
X102233500Y-89641800D01*
X102233500Y-89641800D02*
X97833700Y-89641800D01*
X97833700Y-89641800D02*
X79850000Y-71658100D01*
X79850000Y-71658100D02*
X79850000Y-66665300D01*
X79850000Y-151250000D02*
X79850000Y-145401700D01*
X79850000Y-145401700D02*
X81213100Y-144038600D01*
X81213100Y-144038600D02*
X81213100Y-135176800D01*
X81213100Y-135176800D02*
X80847900Y-134811600D01*
X80847900Y-134811600D02*
X80847900Y-132888300D01*
X102235000Y-114088000D02*
X102235000Y-111827000D01*
X79850000Y-63840000D02*
X79850000Y-66665300D01*
%TO.N,/AA3*%
X103505000Y-88370500D02*
X103505000Y-89396300D01*
X103505000Y-89396300D02*
X102807900Y-90093400D01*
X102807900Y-90093400D02*
X97648400Y-90093400D01*
X97648400Y-90093400D02*
X78350100Y-70795100D01*
X78350100Y-70795100D02*
X78350100Y-66665300D01*
X78350100Y-66665300D02*
X78350000Y-66665300D01*
X103505000Y-86148000D02*
X103505000Y-88370500D01*
X78350000Y-63840000D02*
X78350000Y-66665300D01*
X78350000Y-151250000D02*
X78350000Y-146188000D01*
X78350000Y-146188000D02*
X80472300Y-144065700D01*
X80472300Y-144065700D02*
X80472300Y-135470600D01*
X103505000Y-114088000D02*
X103505000Y-112234400D01*
%TO.N,/AA2*%
X76850000Y-151250000D02*
X76850000Y-145727300D01*
X76850000Y-145727300D02*
X79806300Y-142771000D01*
X79806300Y-142771000D02*
X79806300Y-137233400D01*
X79806300Y-137233400D02*
X79718200Y-137145300D01*
X104478300Y-89081700D02*
X104478300Y-86444700D01*
X104478300Y-86444700D02*
X104775000Y-86148000D01*
X76850000Y-63840000D02*
X76850000Y-69931900D01*
X76850000Y-69931900D02*
X97518100Y-90600000D01*
X97518100Y-90600000D02*
X102960000Y-90600000D01*
X102960000Y-90600000D02*
X104478300Y-89081700D01*
X104775000Y-114088000D02*
X104775000Y-112261200D01*
%TO.N,/AA1*%
X79079900Y-138280500D02*
X79079900Y-141541300D01*
X79079900Y-141541300D02*
X75350000Y-145271200D01*
X75350000Y-145271200D02*
X75350000Y-151250000D01*
X106045000Y-86148000D02*
X105750700Y-86442300D01*
X105750700Y-86442300D02*
X105750700Y-89473000D01*
X105750700Y-89473000D02*
X104712300Y-90511400D01*
X106045000Y-114088000D02*
X106045000Y-112138400D01*
X106045000Y-112138400D02*
X105987700Y-112081100D01*
X75350000Y-66665300D02*
X75350000Y-69129200D01*
X75350000Y-69129200D02*
X97273600Y-91052800D01*
X97273600Y-91052800D02*
X104170900Y-91052800D01*
X104170900Y-91052800D02*
X104712300Y-90511400D01*
X75350000Y-63840000D02*
X75350000Y-66665300D01*
%TO.N,/AA0*%
X73850000Y-151250000D02*
X73850000Y-143510400D01*
X73850000Y-143510400D02*
X78332200Y-139028200D01*
X107315000Y-86148000D02*
X107315000Y-86780000D01*
X107315000Y-86780000D02*
X106201000Y-87894000D01*
X106201000Y-87894000D02*
X106201000Y-90311500D01*
X106201000Y-90311500D02*
X105223900Y-91288600D01*
X73850000Y-63840000D02*
X73850000Y-68266100D01*
X73850000Y-68266100D02*
X97091500Y-91507600D01*
X97091500Y-91507600D02*
X105004900Y-91507600D01*
X105004900Y-91507600D02*
X105223900Y-91288600D01*
X105223900Y-91288600D02*
X105286900Y-91351600D01*
X107006200Y-112255100D02*
X107006200Y-113779200D01*
X107006200Y-113779200D02*
X107315000Y-114088000D01*
%TO.N,/~ASRAM_CS*%
X72350000Y-151250000D02*
X72350000Y-148174700D01*
X72350000Y-148174700D02*
X72350000Y-142886300D01*
X72350000Y-142886300D02*
X76574300Y-138662000D01*
X76574300Y-138662000D02*
X76574300Y-125825500D01*
X76574300Y-125825500D02*
X70675500Y-119926700D01*
X70675500Y-119926700D02*
X70675500Y-115729400D01*
X72350000Y-63840000D02*
X72350000Y-69458100D01*
X72350000Y-69458100D02*
X72330400Y-69477700D01*
%TO.N,/~ARD*%
X69715800Y-106680000D02*
X70969100Y-105426700D01*
X70969100Y-105426700D02*
X73402400Y-105426700D01*
X73402400Y-105426700D02*
X74346000Y-104483100D01*
X68240500Y-106680000D02*
X69715800Y-106680000D01*
X70850000Y-139540900D02*
X70850000Y-151250000D01*
X104775000Y-75142000D02*
X104775000Y-75806100D01*
X104775000Y-75806100D02*
X103830200Y-76750900D01*
X103830200Y-76750900D02*
X103272800Y-76750900D01*
X103272800Y-76750900D02*
X102847900Y-77175800D01*
X102847900Y-77175800D02*
X102847900Y-77776600D01*
X102847900Y-77776600D02*
X103040400Y-77969100D01*
X103040400Y-77969100D02*
X103040400Y-82844800D01*
X103040400Y-82844800D02*
X102568800Y-83316400D01*
X104775000Y-103082000D02*
X104775000Y-102436300D01*
X104775000Y-102436300D02*
X100673400Y-98334700D01*
X100673400Y-98334700D02*
X99590500Y-98334700D01*
X99590500Y-98334700D02*
X99590500Y-98334600D01*
%TO.N,/~AWR*%
X69350000Y-151250000D02*
X69350000Y-139687200D01*
X68240500Y-105410000D02*
X69715800Y-105410000D01*
X72897800Y-104581700D02*
X70544100Y-104581700D01*
X70544100Y-104581700D02*
X69715800Y-105410000D01*
X96712000Y-106045000D02*
X95967900Y-106045000D01*
X95967900Y-106045000D02*
X94101500Y-104178600D01*
X94101500Y-104178600D02*
X94101500Y-101042800D01*
X96712000Y-78105000D02*
X97417200Y-78105000D01*
X97417200Y-78105000D02*
X100238700Y-80926500D01*
X100238700Y-80926500D02*
X100238700Y-84135300D01*
D22*
%TO.N,/ACLK*%
X67850000Y-63840000D02*
X67850000Y-69560900D01*
X67850000Y-141800600D02*
X67850000Y-151250000D01*
D24*
%TO.N,/AA15_T*%
X69715800Y-109220000D02*
X70910900Y-108024900D01*
X96350000Y-66665300D02*
X96350000Y-70711400D01*
X96350000Y-70711400D02*
X96215700Y-70845700D01*
X96350000Y-63840000D02*
X96350000Y-66665300D01*
X68240500Y-109220000D02*
X69715800Y-109220000D01*
%TO.N,/~ARD_T*%
X70850000Y-63840000D02*
X70850000Y-71410500D01*
X70012600Y-111436800D02*
X69715800Y-111733600D01*
X69715800Y-111733600D02*
X69715800Y-111760000D01*
X68240500Y-111760000D02*
X69715800Y-111760000D01*
%TO.N,/~AWR_T*%
X70435500Y-110004300D02*
X70201500Y-110004300D01*
X70201500Y-110004300D02*
X69715800Y-110490000D01*
X68240500Y-110490000D02*
X69715800Y-110490000D01*
X69350000Y-63840000D02*
X69350000Y-71010500D01*
X69350000Y-71010500D02*
X72529700Y-74190200D01*
X72529700Y-74190200D02*
X72529700Y-85744200D01*
%TO.N,/TCK*%
X76127800Y-108331800D02*
X76276800Y-108331800D01*
X76276800Y-108331800D02*
X78930500Y-105678100D01*
X78930500Y-105678100D02*
X78930500Y-98735300D01*
X69215000Y-137160000D02*
X70390300Y-137160000D01*
X70390300Y-137160000D02*
X71487000Y-136063300D01*
X71487000Y-136063300D02*
X74110800Y-136063300D01*
X74110800Y-136063300D02*
X75207500Y-137160000D01*
X78930500Y-97260000D02*
X78930500Y-98735300D01*
%TO.N,/TDO*%
X71310500Y-98735300D02*
X72516100Y-99940900D01*
X72516100Y-99940900D02*
X72516100Y-100038700D01*
X71310500Y-97260000D02*
X71310500Y-98735300D01*
%TO.N,/TMS*%
X77660500Y-113560000D02*
X77660500Y-117041500D01*
X77660500Y-117041500D02*
X75513800Y-119188200D01*
X69215000Y-132080000D02*
X73382500Y-132080000D01*
%TO.N,/TDI*%
X70040500Y-113560000D02*
X70040500Y-115035300D01*
X70040500Y-115035300D02*
X69950200Y-115125600D01*
X69950200Y-115125600D02*
X69950200Y-120091300D01*
X69950200Y-120091300D02*
X76122900Y-126264000D01*
X76122900Y-126264000D02*
X76122900Y-132811500D01*
X76122900Y-132811500D02*
X75742700Y-133191700D01*
X75742700Y-133191700D02*
X74714600Y-133191700D01*
X74714600Y-133191700D02*
X74270000Y-132747100D01*
X74270000Y-132747100D02*
X74270000Y-127887500D01*
X74270000Y-127887500D02*
X73382500Y-127000000D01*
X69215000Y-127000000D02*
X73382500Y-127000000D01*
%TO.N,/~SW_1*%
X64770000Y-76200000D02*
X66741300Y-76200000D01*
X66741300Y-76200000D02*
X67653800Y-77112500D01*
X69850000Y-77112500D02*
X67653800Y-77112500D01*
X67653800Y-79915400D02*
X67653800Y-77112500D01*
X64569200Y-83000000D02*
X67653800Y-79915400D01*
X64569200Y-100674000D02*
X64569200Y-83000000D01*
X66765200Y-102870000D02*
X64569200Y-100674000D01*
X68240500Y-102870000D02*
X66765200Y-102870000D01*
%TO.N,/F010_A14*%
X98425000Y-103082000D02*
X95621900Y-100278900D01*
X95621900Y-100278900D02*
X95621900Y-99227400D01*
X95621900Y-99227400D02*
X95684400Y-99164900D01*
X69715800Y-100330000D02*
X70932600Y-101546800D01*
X70932600Y-101546800D02*
X74743900Y-101546800D01*
X68240500Y-100330000D02*
X69715800Y-100330000D01*
%TO.N,/~F_CE_010*%
X107315000Y-103082000D02*
X107315000Y-102278100D01*
X107315000Y-102278100D02*
X109237800Y-100355300D01*
X109237800Y-100355300D02*
X109237800Y-99711700D01*
X109237800Y-99711700D02*
X107017100Y-97491000D01*
X107017100Y-97491000D02*
X97575900Y-97491000D01*
X69715800Y-99060000D02*
X71431900Y-100776100D01*
X71431900Y-100776100D02*
X74249700Y-100776100D01*
X74249700Y-100776100D02*
X74479400Y-100546400D01*
X68240500Y-99060000D02*
X69715800Y-99060000D01*
%TO.N,/F040_A17*%
X73850500Y-97260000D02*
X73850500Y-95784700D01*
X94893900Y-77419600D02*
X95478500Y-76835000D01*
X95478500Y-76835000D02*
X96712000Y-76835000D01*
X73850500Y-95784700D02*
X74318000Y-95317200D01*
X74318000Y-95317200D02*
X74318000Y-93954400D01*
%TO.N,/F040_A14*%
X80200500Y-95784700D02*
X81028200Y-94957000D01*
X81028200Y-94957000D02*
X81028200Y-94094100D01*
X80200500Y-97260000D02*
X80200500Y-95784700D01*
X98425000Y-75142000D02*
X98730800Y-75447800D01*
X98730800Y-75447800D02*
X98730800Y-77643100D01*
%TO.N,/~F_CE_040*%
X70040500Y-95784700D02*
X73111300Y-92713900D01*
X73111300Y-92713900D02*
X74308700Y-92713900D01*
X107315000Y-75142000D02*
X107315000Y-75767000D01*
X107315000Y-75767000D02*
X105605800Y-77476200D01*
X105605800Y-77476200D02*
X103573200Y-77476200D01*
X70040500Y-97260000D02*
X70040500Y-95784700D01*
%TO.N,/F040_A15*%
X77660500Y-95784700D02*
X77709900Y-95784700D01*
X77709900Y-95784700D02*
X77998600Y-95496000D01*
X77660500Y-97260000D02*
X77660500Y-95784700D01*
X94909700Y-82667700D02*
X96194700Y-82667700D01*
X96194700Y-82667700D02*
X96712000Y-83185000D01*
%TO.N,/F040_A16*%
X93810500Y-81577300D02*
X94148200Y-81915000D01*
X94148200Y-81915000D02*
X96712000Y-81915000D01*
X76390500Y-95784700D02*
X77659800Y-94515400D01*
X77659800Y-94515400D02*
X78743000Y-94515400D01*
X76390500Y-97260000D02*
X76390500Y-95784700D01*
%TO.N,/F040_A18*%
X94764100Y-80645000D02*
X96712000Y-80645000D01*
X72580500Y-97260000D02*
X72580500Y-95784700D01*
X72580500Y-95784700D02*
X72644700Y-95784700D01*
X72644700Y-95784700D02*
X73509400Y-94920000D01*
%TD*%
D25*
%TO.N,+5V*%
X66201401Y-104651003D02*
X66225199Y-104680001D01*
X66254197Y-104703799D01*
X66340924Y-104774974D01*
X66472953Y-104845546D01*
X66482044Y-104848304D01*
X66464688Y-104905518D01*
X66452428Y-105030000D01*
X66452428Y-105790000D01*
X66464688Y-105914482D01*
X66500998Y-106034180D01*
X66506782Y-106045000D01*
X66500998Y-106055820D01*
X66464688Y-106175518D01*
X66452428Y-106300000D01*
X66452428Y-107060000D01*
X66464688Y-107184482D01*
X66500998Y-107304180D01*
X66506782Y-107315000D01*
X66500998Y-107325820D01*
X66464688Y-107445518D01*
X66452428Y-107570000D01*
X66455500Y-107664250D01*
X66614250Y-107823000D01*
X68113500Y-107823000D01*
X68113500Y-107803000D01*
X68367500Y-107803000D01*
X68367500Y-107823000D01*
X68387500Y-107823000D01*
X68387500Y-108077000D01*
X68367500Y-108077000D01*
X68367500Y-108097000D01*
X68113500Y-108097000D01*
X68113500Y-108077000D01*
X66614250Y-108077000D01*
X66455500Y-108235750D01*
X66452428Y-108330000D01*
X66464688Y-108454482D01*
X66500998Y-108574180D01*
X66506782Y-108585000D01*
X66500998Y-108595820D01*
X66464688Y-108715518D01*
X66452428Y-108840000D01*
X66452428Y-109600000D01*
X66464688Y-109724482D01*
X66500998Y-109844180D01*
X66506782Y-109855000D01*
X66500998Y-109865820D01*
X66464688Y-109985518D01*
X66452428Y-110110000D01*
X66452428Y-110870000D01*
X66464688Y-110994482D01*
X66500998Y-111114180D01*
X66506782Y-111125000D01*
X66500998Y-111135820D01*
X66464688Y-111255518D01*
X66452428Y-111380000D01*
X66452428Y-112140000D01*
X66464688Y-112264482D01*
X66500998Y-112384180D01*
X66559963Y-112494494D01*
X66639315Y-112591185D01*
X66736006Y-112670537D01*
X66846320Y-112729502D01*
X66966018Y-112765812D01*
X67090500Y-112778072D01*
X69022428Y-112778072D01*
X69022428Y-114710000D01*
X69034688Y-114834482D01*
X69070998Y-114954180D01*
X69129963Y-115064494D01*
X69187399Y-115134480D01*
X69190200Y-115162923D01*
X69190201Y-120053968D01*
X69186524Y-120091300D01*
X69190201Y-120128633D01*
X69199587Y-120223924D01*
X69201198Y-120240285D01*
X69244654Y-120383546D01*
X69315226Y-120515576D01*
X69386401Y-120602302D01*
X69410200Y-120631301D01*
X69439198Y-120655099D01*
X74484408Y-125700309D01*
X74450820Y-125710498D01*
X74340506Y-125769463D01*
X74243815Y-125848815D01*
X74219637Y-125878276D01*
X74138387Y-125811595D01*
X73984852Y-125729528D01*
X73818256Y-125678992D01*
X73645002Y-125661928D01*
X73119998Y-125661928D01*
X72946744Y-125678992D01*
X72780148Y-125729528D01*
X72626613Y-125811595D01*
X72492038Y-125922038D01*
X72381595Y-126056613D01*
X72299528Y-126210148D01*
X72290473Y-126240000D01*
X70493178Y-126240000D01*
X70368475Y-126053368D01*
X70161632Y-125846525D01*
X69918411Y-125684010D01*
X69648158Y-125572068D01*
X69361260Y-125515000D01*
X69068740Y-125515000D01*
X68781842Y-125572068D01*
X68511589Y-125684010D01*
X68268368Y-125846525D01*
X68061525Y-126053368D01*
X67945000Y-126227760D01*
X67828475Y-126053368D01*
X67621632Y-125846525D01*
X67378411Y-125684010D01*
X67108158Y-125572068D01*
X66821260Y-125515000D01*
X66528740Y-125515000D01*
X66241842Y-125572068D01*
X65971589Y-125684010D01*
X65728368Y-125846525D01*
X65521525Y-126053368D01*
X65359010Y-126296589D01*
X65247068Y-126566842D01*
X65190000Y-126853740D01*
X65190000Y-127146260D01*
X65247068Y-127433158D01*
X65359010Y-127703411D01*
X65521525Y-127946632D01*
X65728368Y-128153475D01*
X65902760Y-128270000D01*
X65728368Y-128386525D01*
X65521525Y-128593368D01*
X65359010Y-128836589D01*
X65247068Y-129106842D01*
X65190000Y-129393740D01*
X65190000Y-129686260D01*
X65247068Y-129973158D01*
X65359010Y-130243411D01*
X65521525Y-130486632D01*
X65728368Y-130693475D01*
X65902760Y-130810000D01*
X65728368Y-130926525D01*
X65521525Y-131133368D01*
X65359010Y-131376589D01*
X65247068Y-131646842D01*
X65190000Y-131933740D01*
X65190000Y-132226260D01*
X65247068Y-132513158D01*
X65359010Y-132783411D01*
X65521525Y-133026632D01*
X65728368Y-133233475D01*
X65910534Y-133355195D01*
X65793645Y-133424822D01*
X65577412Y-133619731D01*
X65403359Y-133853080D01*
X65278175Y-134115901D01*
X65233524Y-134263110D01*
X65354845Y-134493000D01*
X66548000Y-134493000D01*
X66548000Y-134473000D01*
X66802000Y-134473000D01*
X66802000Y-134493000D01*
X66822000Y-134493000D01*
X66822000Y-134747000D01*
X66802000Y-134747000D01*
X66802000Y-134767000D01*
X66548000Y-134767000D01*
X66548000Y-134747000D01*
X65354845Y-134747000D01*
X65233524Y-134976890D01*
X65278175Y-135124099D01*
X65403359Y-135386920D01*
X65577412Y-135620269D01*
X65793645Y-135815178D01*
X65910534Y-135884805D01*
X65728368Y-136006525D01*
X65521525Y-136213368D01*
X65359010Y-136456589D01*
X65247068Y-136726842D01*
X65190000Y-137013740D01*
X65190000Y-137306260D01*
X65247068Y-137593158D01*
X65359010Y-137863411D01*
X65521525Y-138106632D01*
X65728368Y-138313475D01*
X65971589Y-138475990D01*
X66241842Y-138587932D01*
X66528740Y-138645000D01*
X66821260Y-138645000D01*
X66893960Y-138630539D01*
X67376470Y-139113049D01*
X67404183Y-139146817D01*
X67437951Y-139174530D01*
X67437953Y-139174532D01*
X67471424Y-139202001D01*
X67538941Y-139257411D01*
X67692687Y-139339589D01*
X67859510Y-139390195D01*
X67989523Y-139403000D01*
X67989533Y-139403000D01*
X68032999Y-139407281D01*
X68076466Y-139403000D01*
X68351254Y-139403000D01*
X68315000Y-139585261D01*
X68315000Y-139789139D01*
X68354774Y-139989098D01*
X68432795Y-140177456D01*
X68546063Y-140346974D01*
X68590001Y-140390912D01*
X68590001Y-141076890D01*
X68509774Y-140996663D01*
X68340256Y-140883395D01*
X68151898Y-140805374D01*
X67951939Y-140765600D01*
X67748061Y-140765600D01*
X67548102Y-140805374D01*
X67359744Y-140883395D01*
X67190226Y-140996663D01*
X67046063Y-141140826D01*
X66932795Y-141310344D01*
X66854774Y-141498702D01*
X66815000Y-141698661D01*
X66815000Y-141902539D01*
X66854774Y-142102498D01*
X66932795Y-142290856D01*
X66965000Y-142339054D01*
X66965001Y-147637500D01*
X65685000Y-147637500D01*
X65685000Y-146933646D01*
X65688314Y-146900000D01*
X65675088Y-146765717D01*
X65635919Y-146636594D01*
X65572312Y-146517593D01*
X65486711Y-146413289D01*
X65382407Y-146327688D01*
X65263406Y-146264081D01*
X65134283Y-146224912D01*
X65033647Y-146215000D01*
X65000000Y-146211686D01*
X64966353Y-146215000D01*
X64585000Y-146215000D01*
X64585000Y-144533646D01*
X64588314Y-144500000D01*
X64575088Y-144365717D01*
X64535919Y-144236594D01*
X64472312Y-144117593D01*
X64386711Y-144013289D01*
X64282407Y-143927688D01*
X64163406Y-143864081D01*
X64034283Y-143824912D01*
X63933647Y-143815000D01*
X63900000Y-143811686D01*
X63866353Y-143815000D01*
X63785000Y-143815000D01*
X63785000Y-102234601D01*
X66201401Y-104651003D01*
%TA.AperFunction,Conductor*%
D26*
G36*
X66201401Y-104651003D02*
G01*
X66225199Y-104680001D01*
X66254197Y-104703799D01*
X66340924Y-104774974D01*
X66472953Y-104845546D01*
X66482044Y-104848304D01*
X66464688Y-104905518D01*
X66452428Y-105030000D01*
X66452428Y-105790000D01*
X66464688Y-105914482D01*
X66500998Y-106034180D01*
X66506782Y-106045000D01*
X66500998Y-106055820D01*
X66464688Y-106175518D01*
X66452428Y-106300000D01*
X66452428Y-107060000D01*
X66464688Y-107184482D01*
X66500998Y-107304180D01*
X66506782Y-107315000D01*
X66500998Y-107325820D01*
X66464688Y-107445518D01*
X66452428Y-107570000D01*
X66455500Y-107664250D01*
X66614250Y-107823000D01*
X68113500Y-107823000D01*
X68113500Y-107803000D01*
X68367500Y-107803000D01*
X68367500Y-107823000D01*
X68387500Y-107823000D01*
X68387500Y-108077000D01*
X68367500Y-108077000D01*
X68367500Y-108097000D01*
X68113500Y-108097000D01*
X68113500Y-108077000D01*
X66614250Y-108077000D01*
X66455500Y-108235750D01*
X66452428Y-108330000D01*
X66464688Y-108454482D01*
X66500998Y-108574180D01*
X66506782Y-108585000D01*
X66500998Y-108595820D01*
X66464688Y-108715518D01*
X66452428Y-108840000D01*
X66452428Y-109600000D01*
X66464688Y-109724482D01*
X66500998Y-109844180D01*
X66506782Y-109855000D01*
X66500998Y-109865820D01*
X66464688Y-109985518D01*
X66452428Y-110110000D01*
X66452428Y-110870000D01*
X66464688Y-110994482D01*
X66500998Y-111114180D01*
X66506782Y-111125000D01*
X66500998Y-111135820D01*
X66464688Y-111255518D01*
X66452428Y-111380000D01*
X66452428Y-112140000D01*
X66464688Y-112264482D01*
X66500998Y-112384180D01*
X66559963Y-112494494D01*
X66639315Y-112591185D01*
X66736006Y-112670537D01*
X66846320Y-112729502D01*
X66966018Y-112765812D01*
X67090500Y-112778072D01*
X69022428Y-112778072D01*
X69022428Y-114710000D01*
X69034688Y-114834482D01*
X69070998Y-114954180D01*
X69129963Y-115064494D01*
X69187399Y-115134480D01*
X69190200Y-115162923D01*
X69190201Y-120053968D01*
X69186524Y-120091300D01*
X69190201Y-120128633D01*
X69199587Y-120223924D01*
X69201198Y-120240285D01*
X69244654Y-120383546D01*
X69315226Y-120515576D01*
X69386401Y-120602302D01*
X69410200Y-120631301D01*
X69439198Y-120655099D01*
X74484408Y-125700309D01*
X74450820Y-125710498D01*
X74340506Y-125769463D01*
X74243815Y-125848815D01*
X74219637Y-125878276D01*
X74138387Y-125811595D01*
X73984852Y-125729528D01*
X73818256Y-125678992D01*
X73645002Y-125661928D01*
X73119998Y-125661928D01*
X72946744Y-125678992D01*
X72780148Y-125729528D01*
X72626613Y-125811595D01*
X72492038Y-125922038D01*
X72381595Y-126056613D01*
X72299528Y-126210148D01*
X72290473Y-126240000D01*
X70493178Y-126240000D01*
X70368475Y-126053368D01*
X70161632Y-125846525D01*
X69918411Y-125684010D01*
X69648158Y-125572068D01*
X69361260Y-125515000D01*
X69068740Y-125515000D01*
X68781842Y-125572068D01*
X68511589Y-125684010D01*
X68268368Y-125846525D01*
X68061525Y-126053368D01*
X67945000Y-126227760D01*
X67828475Y-126053368D01*
X67621632Y-125846525D01*
X67378411Y-125684010D01*
X67108158Y-125572068D01*
X66821260Y-125515000D01*
X66528740Y-125515000D01*
X66241842Y-125572068D01*
X65971589Y-125684010D01*
X65728368Y-125846525D01*
X65521525Y-126053368D01*
X65359010Y-126296589D01*
X65247068Y-126566842D01*
X65190000Y-126853740D01*
X65190000Y-127146260D01*
X65247068Y-127433158D01*
X65359010Y-127703411D01*
X65521525Y-127946632D01*
X65728368Y-128153475D01*
X65902760Y-128270000D01*
X65728368Y-128386525D01*
X65521525Y-128593368D01*
X65359010Y-128836589D01*
X65247068Y-129106842D01*
X65190000Y-129393740D01*
X65190000Y-129686260D01*
X65247068Y-129973158D01*
X65359010Y-130243411D01*
X65521525Y-130486632D01*
X65728368Y-130693475D01*
X65902760Y-130810000D01*
X65728368Y-130926525D01*
X65521525Y-131133368D01*
X65359010Y-131376589D01*
X65247068Y-131646842D01*
X65190000Y-131933740D01*
X65190000Y-132226260D01*
X65247068Y-132513158D01*
X65359010Y-132783411D01*
X65521525Y-133026632D01*
X65728368Y-133233475D01*
X65910534Y-133355195D01*
X65793645Y-133424822D01*
X65577412Y-133619731D01*
X65403359Y-133853080D01*
X65278175Y-134115901D01*
X65233524Y-134263110D01*
X65354845Y-134493000D01*
X66548000Y-134493000D01*
X66548000Y-134473000D01*
X66802000Y-134473000D01*
X66802000Y-134493000D01*
X66822000Y-134493000D01*
X66822000Y-134747000D01*
X66802000Y-134747000D01*
X66802000Y-134767000D01*
X66548000Y-134767000D01*
X66548000Y-134747000D01*
X65354845Y-134747000D01*
X65233524Y-134976890D01*
X65278175Y-135124099D01*
X65403359Y-135386920D01*
X65577412Y-135620269D01*
X65793645Y-135815178D01*
X65910534Y-135884805D01*
X65728368Y-136006525D01*
X65521525Y-136213368D01*
X65359010Y-136456589D01*
X65247068Y-136726842D01*
X65190000Y-137013740D01*
X65190000Y-137306260D01*
X65247068Y-137593158D01*
X65359010Y-137863411D01*
X65521525Y-138106632D01*
X65728368Y-138313475D01*
X65971589Y-138475990D01*
X66241842Y-138587932D01*
X66528740Y-138645000D01*
X66821260Y-138645000D01*
X66893960Y-138630539D01*
X67376470Y-139113049D01*
X67404183Y-139146817D01*
X67437951Y-139174530D01*
X67437953Y-139174532D01*
X67471424Y-139202001D01*
X67538941Y-139257411D01*
X67692687Y-139339589D01*
X67859510Y-139390195D01*
X67989523Y-139403000D01*
X67989533Y-139403000D01*
X68032999Y-139407281D01*
X68076466Y-139403000D01*
X68351254Y-139403000D01*
X68315000Y-139585261D01*
X68315000Y-139789139D01*
X68354774Y-139989098D01*
X68432795Y-140177456D01*
X68546063Y-140346974D01*
X68590001Y-140390912D01*
X68590001Y-141076890D01*
X68509774Y-140996663D01*
X68340256Y-140883395D01*
X68151898Y-140805374D01*
X67951939Y-140765600D01*
X67748061Y-140765600D01*
X67548102Y-140805374D01*
X67359744Y-140883395D01*
X67190226Y-140996663D01*
X67046063Y-141140826D01*
X66932795Y-141310344D01*
X66854774Y-141498702D01*
X66815000Y-141698661D01*
X66815000Y-141902539D01*
X66854774Y-142102498D01*
X66932795Y-142290856D01*
X66965000Y-142339054D01*
X66965001Y-147637500D01*
X65685000Y-147637500D01*
X65685000Y-146933646D01*
X65688314Y-146900000D01*
X65675088Y-146765717D01*
X65635919Y-146636594D01*
X65572312Y-146517593D01*
X65486711Y-146413289D01*
X65382407Y-146327688D01*
X65263406Y-146264081D01*
X65134283Y-146224912D01*
X65033647Y-146215000D01*
X65000000Y-146211686D01*
X64966353Y-146215000D01*
X64585000Y-146215000D01*
X64585000Y-144533646D01*
X64588314Y-144500000D01*
X64575088Y-144365717D01*
X64535919Y-144236594D01*
X64472312Y-144117593D01*
X64386711Y-144013289D01*
X64282407Y-143927688D01*
X64163406Y-143864081D01*
X64034283Y-143824912D01*
X63933647Y-143815000D01*
X63900000Y-143811686D01*
X63866353Y-143815000D01*
X63785000Y-143815000D01*
X63785000Y-102234601D01*
X66201401Y-104651003D01*
G37*
%TD.AperFunction*%
D25*
X75334500Y-126873000D02*
X75354500Y-126873000D01*
X75354500Y-127127000D01*
X75334500Y-127127000D01*
X75334500Y-128176250D01*
X75362900Y-128204650D01*
X75362901Y-130875349D01*
X75334500Y-130903750D01*
X75334500Y-131953000D01*
X75354500Y-131953000D01*
X75354500Y-132207000D01*
X75334500Y-132207000D01*
X75334500Y-132227000D01*
X75080500Y-132227000D01*
X75080500Y-132207000D01*
X75060500Y-132207000D01*
X75060500Y-131953000D01*
X75080500Y-131953000D01*
X75080500Y-130903750D01*
X75030000Y-130853250D01*
X75030000Y-128226750D01*
X75080500Y-128176250D01*
X75080500Y-127127000D01*
X75060500Y-127127000D01*
X75060500Y-126873000D01*
X75080500Y-126873000D01*
X75080500Y-126853000D01*
X75334500Y-126853000D01*
X75334500Y-126873000D01*
%TA.AperFunction,Conductor*%
D26*
G36*
X75334500Y-126873000D02*
G01*
X75354500Y-126873000D01*
X75354500Y-127127000D01*
X75334500Y-127127000D01*
X75334500Y-128176250D01*
X75362900Y-128204650D01*
X75362901Y-130875349D01*
X75334500Y-130903750D01*
X75334500Y-131953000D01*
X75354500Y-131953000D01*
X75354500Y-132207000D01*
X75334500Y-132207000D01*
X75334500Y-132227000D01*
X75080500Y-132227000D01*
X75080500Y-132207000D01*
X75060500Y-132207000D01*
X75060500Y-131953000D01*
X75080500Y-131953000D01*
X75080500Y-130903750D01*
X75030000Y-130853250D01*
X75030000Y-128226750D01*
X75080500Y-128176250D01*
X75080500Y-127127000D01*
X75060500Y-127127000D01*
X75060500Y-126873000D01*
X75080500Y-126873000D01*
X75080500Y-126853000D01*
X75334500Y-126853000D01*
X75334500Y-126873000D01*
G37*
%TD.AperFunction*%
D25*
X80754626Y-105930337D02*
X80924144Y-106043605D01*
X81112502Y-106121626D01*
X81312461Y-106161400D01*
X81374599Y-106161400D01*
X81980501Y-106767303D01*
X81980500Y-111785862D01*
X81974982Y-111784188D01*
X81850500Y-111771928D01*
X81090500Y-111771928D01*
X80966018Y-111784188D01*
X80846320Y-111820498D01*
X80835500Y-111826282D01*
X80824680Y-111820498D01*
X80704982Y-111784188D01*
X80580500Y-111771928D01*
X80486250Y-111775000D01*
X80327500Y-111933750D01*
X80327500Y-113433000D01*
X80347500Y-113433000D01*
X80347500Y-113687000D01*
X80327500Y-113687000D01*
X80327500Y-115186250D01*
X80486250Y-115345000D01*
X80580500Y-115348072D01*
X80704982Y-115335812D01*
X80762197Y-115318456D01*
X80764954Y-115327546D01*
X80835526Y-115459576D01*
X80905436Y-115544761D01*
X80930500Y-115575301D01*
X80959498Y-115599099D01*
X84599237Y-119238839D01*
X84623874Y-119362698D01*
X84701895Y-119551056D01*
X84815163Y-119720574D01*
X84959326Y-119864737D01*
X85089601Y-119951784D01*
X85089600Y-128241299D01*
X78860520Y-122012219D01*
X78920000Y-122013072D01*
X79044482Y-122000812D01*
X79164180Y-121964502D01*
X79274494Y-121905537D01*
X79371185Y-121826185D01*
X79450537Y-121729494D01*
X79509502Y-121619180D01*
X79545812Y-121499482D01*
X79558072Y-121375000D01*
X79555000Y-120935750D01*
X79396250Y-120777000D01*
X78547000Y-120777000D01*
X78547000Y-120797000D01*
X78301200Y-120797000D01*
X78301200Y-120503000D01*
X78547000Y-120503000D01*
X78547000Y-120523000D01*
X79396250Y-120523000D01*
X79555000Y-120364250D01*
X79558072Y-119925000D01*
X79545812Y-119800518D01*
X79509502Y-119680820D01*
X79450537Y-119570506D01*
X79371185Y-119473815D01*
X79274494Y-119394463D01*
X79164180Y-119335498D01*
X79081795Y-119310507D01*
X79441504Y-118950798D01*
X79470501Y-118927001D01*
X79519723Y-118867024D01*
X79565474Y-118811277D01*
X79636046Y-118679247D01*
X79647190Y-118642509D01*
X79679503Y-118535986D01*
X79690500Y-118424333D01*
X79690500Y-118424323D01*
X79694176Y-118387000D01*
X79690500Y-118349677D01*
X79690500Y-115334138D01*
X79696018Y-115335812D01*
X79820500Y-115348072D01*
X79914750Y-115345000D01*
X80073500Y-115186250D01*
X80073500Y-113687000D01*
X80053500Y-113687000D01*
X80053500Y-113433000D01*
X80073500Y-113433000D01*
X80073500Y-111933750D01*
X79965500Y-111825750D01*
X79965500Y-111691761D01*
X79925726Y-111491802D01*
X79847705Y-111303444D01*
X79734437Y-111133926D01*
X79590274Y-110989763D01*
X79420756Y-110876495D01*
X79232398Y-110798474D01*
X79032439Y-110758700D01*
X78939512Y-110758700D01*
X79047656Y-110713905D01*
X79217174Y-110600637D01*
X79361337Y-110456474D01*
X79474605Y-110286956D01*
X79552626Y-110098598D01*
X79592400Y-109898639D01*
X79592400Y-109694761D01*
X79552626Y-109494802D01*
X79474605Y-109306444D01*
X79361337Y-109136926D01*
X79217174Y-108992763D01*
X79047656Y-108879495D01*
X78859298Y-108801474D01*
X78659339Y-108761700D01*
X78455461Y-108761700D01*
X78255502Y-108801474D01*
X78178345Y-108833434D01*
X80358849Y-106652930D01*
X80392617Y-106625217D01*
X80434416Y-106574286D01*
X80503210Y-106490460D01*
X80505434Y-106486300D01*
X80585389Y-106336713D01*
X80635995Y-106169890D01*
X80648800Y-106039877D01*
X80648800Y-106039867D01*
X80653081Y-105996401D01*
X80648800Y-105952934D01*
X80648800Y-105824511D01*
X80754626Y-105930337D01*
%TA.AperFunction,Conductor*%
D26*
G36*
X80754626Y-105930337D02*
G01*
X80924144Y-106043605D01*
X81112502Y-106121626D01*
X81312461Y-106161400D01*
X81374599Y-106161400D01*
X81980501Y-106767303D01*
X81980500Y-111785862D01*
X81974982Y-111784188D01*
X81850500Y-111771928D01*
X81090500Y-111771928D01*
X80966018Y-111784188D01*
X80846320Y-111820498D01*
X80835500Y-111826282D01*
X80824680Y-111820498D01*
X80704982Y-111784188D01*
X80580500Y-111771928D01*
X80486250Y-111775000D01*
X80327500Y-111933750D01*
X80327500Y-113433000D01*
X80347500Y-113433000D01*
X80347500Y-113687000D01*
X80327500Y-113687000D01*
X80327500Y-115186250D01*
X80486250Y-115345000D01*
X80580500Y-115348072D01*
X80704982Y-115335812D01*
X80762197Y-115318456D01*
X80764954Y-115327546D01*
X80835526Y-115459576D01*
X80905436Y-115544761D01*
X80930500Y-115575301D01*
X80959498Y-115599099D01*
X84599237Y-119238839D01*
X84623874Y-119362698D01*
X84701895Y-119551056D01*
X84815163Y-119720574D01*
X84959326Y-119864737D01*
X85089601Y-119951784D01*
X85089600Y-128241299D01*
X78860520Y-122012219D01*
X78920000Y-122013072D01*
X79044482Y-122000812D01*
X79164180Y-121964502D01*
X79274494Y-121905537D01*
X79371185Y-121826185D01*
X79450537Y-121729494D01*
X79509502Y-121619180D01*
X79545812Y-121499482D01*
X79558072Y-121375000D01*
X79555000Y-120935750D01*
X79396250Y-120777000D01*
X78547000Y-120777000D01*
X78547000Y-120797000D01*
X78301200Y-120797000D01*
X78301200Y-120503000D01*
X78547000Y-120503000D01*
X78547000Y-120523000D01*
X79396250Y-120523000D01*
X79555000Y-120364250D01*
X79558072Y-119925000D01*
X79545812Y-119800518D01*
X79509502Y-119680820D01*
X79450537Y-119570506D01*
X79371185Y-119473815D01*
X79274494Y-119394463D01*
X79164180Y-119335498D01*
X79081795Y-119310507D01*
X79441504Y-118950798D01*
X79470501Y-118927001D01*
X79519723Y-118867024D01*
X79565474Y-118811277D01*
X79636046Y-118679247D01*
X79647190Y-118642509D01*
X79679503Y-118535986D01*
X79690500Y-118424333D01*
X79690500Y-118424323D01*
X79694176Y-118387000D01*
X79690500Y-118349677D01*
X79690500Y-115334138D01*
X79696018Y-115335812D01*
X79820500Y-115348072D01*
X79914750Y-115345000D01*
X80073500Y-115186250D01*
X80073500Y-113687000D01*
X80053500Y-113687000D01*
X80053500Y-113433000D01*
X80073500Y-113433000D01*
X80073500Y-111933750D01*
X79965500Y-111825750D01*
X79965500Y-111691761D01*
X79925726Y-111491802D01*
X79847705Y-111303444D01*
X79734437Y-111133926D01*
X79590274Y-110989763D01*
X79420756Y-110876495D01*
X79232398Y-110798474D01*
X79032439Y-110758700D01*
X78939512Y-110758700D01*
X79047656Y-110713905D01*
X79217174Y-110600637D01*
X79361337Y-110456474D01*
X79474605Y-110286956D01*
X79552626Y-110098598D01*
X79592400Y-109898639D01*
X79592400Y-109694761D01*
X79552626Y-109494802D01*
X79474605Y-109306444D01*
X79361337Y-109136926D01*
X79217174Y-108992763D01*
X79047656Y-108879495D01*
X78859298Y-108801474D01*
X78659339Y-108761700D01*
X78455461Y-108761700D01*
X78255502Y-108801474D01*
X78178345Y-108833434D01*
X80358849Y-106652930D01*
X80392617Y-106625217D01*
X80434416Y-106574286D01*
X80503210Y-106490460D01*
X80505434Y-106486300D01*
X80585389Y-106336713D01*
X80635995Y-106169890D01*
X80648800Y-106039877D01*
X80648800Y-106039867D01*
X80653081Y-105996401D01*
X80648800Y-105952934D01*
X80648800Y-105824511D01*
X80754626Y-105930337D01*
G37*
%TD.AperFunction*%
D25*
X93297563Y-101702574D02*
X93341501Y-101746512D01*
X93341500Y-104141277D01*
X93337824Y-104178600D01*
X93341500Y-104215922D01*
X93341500Y-104215932D01*
X93352497Y-104327585D01*
X93386748Y-104440498D01*
X93395954Y-104470846D01*
X93466526Y-104602876D01*
X93499089Y-104642554D01*
X93561499Y-104718601D01*
X93590503Y-104742404D01*
X94873928Y-106025830D01*
X94873928Y-106200000D01*
X94889167Y-106354721D01*
X94934297Y-106503496D01*
X95000486Y-106627326D01*
X94981463Y-106650506D01*
X94922498Y-106760820D01*
X94886188Y-106880518D01*
X94873928Y-107005000D01*
X94877000Y-107029250D01*
X95035750Y-107188000D01*
X96585000Y-107188000D01*
X96585000Y-107168000D01*
X96839000Y-107168000D01*
X96839000Y-107188000D01*
X96859000Y-107188000D01*
X96859000Y-107442000D01*
X96839000Y-107442000D01*
X96839000Y-107462000D01*
X96585000Y-107462000D01*
X96585000Y-107442000D01*
X95035750Y-107442000D01*
X94877000Y-107600750D01*
X94873928Y-107625000D01*
X94886188Y-107749482D01*
X94922498Y-107869180D01*
X94981463Y-107979494D01*
X95000486Y-108002674D01*
X94934297Y-108126504D01*
X94889167Y-108275279D01*
X94873928Y-108430000D01*
X94873928Y-108740000D01*
X94889167Y-108894721D01*
X94934297Y-109043496D01*
X95007585Y-109180607D01*
X95039914Y-109220000D01*
X95007585Y-109259393D01*
X94934297Y-109396504D01*
X94889167Y-109545279D01*
X94873928Y-109700000D01*
X94873928Y-110010000D01*
X94889167Y-110164721D01*
X94934297Y-110313496D01*
X95007585Y-110450607D01*
X95039914Y-110490000D01*
X95007585Y-110529393D01*
X94934297Y-110666504D01*
X94889167Y-110815279D01*
X94886548Y-110841874D01*
X94374256Y-111354166D01*
X94340483Y-111381883D01*
X94229889Y-111516642D01*
X94147711Y-111670388D01*
X94117207Y-111770944D01*
X94099043Y-111830824D01*
X94097105Y-111837211D01*
X94084300Y-111967224D01*
X94084300Y-111967231D01*
X94080019Y-112010700D01*
X94084300Y-112054169D01*
X94084301Y-119288085D01*
X93950750Y-119290000D01*
X93792000Y-119448750D01*
X93792000Y-120523000D01*
X93812000Y-120523000D01*
X93812000Y-120777000D01*
X93792000Y-120777000D01*
X93792000Y-120797000D01*
X93538000Y-120797000D01*
X93538000Y-120777000D01*
X93518000Y-120777000D01*
X93518000Y-120523000D01*
X93538000Y-120523000D01*
X93538000Y-119448750D01*
X93379250Y-119290000D01*
X93218300Y-119287692D01*
X93218300Y-101583948D01*
X93297563Y-101702574D01*
%TA.AperFunction,Conductor*%
D26*
G36*
X93297563Y-101702574D02*
G01*
X93341501Y-101746512D01*
X93341500Y-104141277D01*
X93337824Y-104178600D01*
X93341500Y-104215922D01*
X93341500Y-104215932D01*
X93352497Y-104327585D01*
X93386748Y-104440498D01*
X93395954Y-104470846D01*
X93466526Y-104602876D01*
X93499089Y-104642554D01*
X93561499Y-104718601D01*
X93590503Y-104742404D01*
X94873928Y-106025830D01*
X94873928Y-106200000D01*
X94889167Y-106354721D01*
X94934297Y-106503496D01*
X95000486Y-106627326D01*
X94981463Y-106650506D01*
X94922498Y-106760820D01*
X94886188Y-106880518D01*
X94873928Y-107005000D01*
X94877000Y-107029250D01*
X95035750Y-107188000D01*
X96585000Y-107188000D01*
X96585000Y-107168000D01*
X96839000Y-107168000D01*
X96839000Y-107188000D01*
X96859000Y-107188000D01*
X96859000Y-107442000D01*
X96839000Y-107442000D01*
X96839000Y-107462000D01*
X96585000Y-107462000D01*
X96585000Y-107442000D01*
X95035750Y-107442000D01*
X94877000Y-107600750D01*
X94873928Y-107625000D01*
X94886188Y-107749482D01*
X94922498Y-107869180D01*
X94981463Y-107979494D01*
X95000486Y-108002674D01*
X94934297Y-108126504D01*
X94889167Y-108275279D01*
X94873928Y-108430000D01*
X94873928Y-108740000D01*
X94889167Y-108894721D01*
X94934297Y-109043496D01*
X95007585Y-109180607D01*
X95039914Y-109220000D01*
X95007585Y-109259393D01*
X94934297Y-109396504D01*
X94889167Y-109545279D01*
X94873928Y-109700000D01*
X94873928Y-110010000D01*
X94889167Y-110164721D01*
X94934297Y-110313496D01*
X95007585Y-110450607D01*
X95039914Y-110490000D01*
X95007585Y-110529393D01*
X94934297Y-110666504D01*
X94889167Y-110815279D01*
X94886548Y-110841874D01*
X94374256Y-111354166D01*
X94340483Y-111381883D01*
X94229889Y-111516642D01*
X94147711Y-111670388D01*
X94117207Y-111770944D01*
X94099043Y-111830824D01*
X94097105Y-111837211D01*
X94084300Y-111967224D01*
X94084300Y-111967231D01*
X94080019Y-112010700D01*
X94084300Y-112054169D01*
X94084301Y-119288085D01*
X93950750Y-119290000D01*
X93792000Y-119448750D01*
X93792000Y-120523000D01*
X93812000Y-120523000D01*
X93812000Y-120777000D01*
X93792000Y-120777000D01*
X93792000Y-120797000D01*
X93538000Y-120797000D01*
X93538000Y-120777000D01*
X93518000Y-120777000D01*
X93518000Y-120523000D01*
X93538000Y-120523000D01*
X93538000Y-119448750D01*
X93379250Y-119290000D01*
X93218300Y-119287692D01*
X93218300Y-101583948D01*
X93297563Y-101702574D01*
G37*
%TD.AperFunction*%
D25*
X73224188Y-40715518D02*
X73211928Y-40840000D01*
X73211928Y-44340000D01*
X73224188Y-44464482D01*
X73260498Y-44584180D01*
X73319463Y-44694494D01*
X73398815Y-44791185D01*
X73495506Y-44870537D01*
X73605820Y-44929502D01*
X73725518Y-44965812D01*
X73850000Y-44978072D01*
X79350000Y-44978072D01*
X79474482Y-44965812D01*
X79594180Y-44929502D01*
X79704494Y-44870537D01*
X79801185Y-44791185D01*
X79880537Y-44694494D01*
X79939502Y-44584180D01*
X79975812Y-44464482D01*
X79988072Y-44340000D01*
X79988072Y-40840000D01*
X79975812Y-40715518D01*
X79966554Y-40685000D01*
X99233446Y-40685000D01*
X99224188Y-40715518D01*
X99211928Y-40840000D01*
X99211928Y-44340000D01*
X99224188Y-44464482D01*
X99260498Y-44584180D01*
X99319463Y-44694494D01*
X99398815Y-44791185D01*
X99495506Y-44870537D01*
X99605820Y-44929502D01*
X99725518Y-44965812D01*
X99850000Y-44978072D01*
X105350000Y-44978072D01*
X105474482Y-44965812D01*
X105594180Y-44929502D01*
X105704494Y-44870537D01*
X105801185Y-44791185D01*
X105880537Y-44694494D01*
X105939502Y-44584180D01*
X105975812Y-44464482D01*
X105988072Y-44340000D01*
X105988072Y-40840000D01*
X105975812Y-40715518D01*
X105966554Y-40685000D01*
X116665000Y-40685000D01*
X116665001Y-90915000D01*
X111888801Y-90915000D01*
X113775002Y-89028800D01*
X113837139Y-89028800D01*
X114037098Y-88989026D01*
X114225456Y-88911005D01*
X114394974Y-88797737D01*
X114539137Y-88653574D01*
X114652405Y-88484056D01*
X114730426Y-88295698D01*
X114770200Y-88095739D01*
X114770200Y-87891861D01*
X114730426Y-87691902D01*
X114652405Y-87503544D01*
X114539137Y-87334026D01*
X114394974Y-87189863D01*
X114225456Y-87076595D01*
X114037098Y-86998574D01*
X113837139Y-86958800D01*
X113633261Y-86958800D01*
X113433302Y-86998574D01*
X113244944Y-87076595D01*
X113075426Y-87189863D01*
X112931263Y-87334026D01*
X112817995Y-87503544D01*
X112739974Y-87691902D01*
X112700200Y-87891861D01*
X112700200Y-87953998D01*
X111663800Y-88990399D01*
X111663800Y-88819823D01*
X111667476Y-88782500D01*
X111663800Y-88745177D01*
X111663800Y-88745167D01*
X111652803Y-88633514D01*
X111609346Y-88490253D01*
X111571762Y-88419939D01*
X113296203Y-86695499D01*
X113325201Y-86671701D01*
X113420174Y-86555976D01*
X113490746Y-86423947D01*
X113534203Y-86280686D01*
X113545200Y-86169033D01*
X113545200Y-86169024D01*
X113548876Y-86131701D01*
X113545200Y-86094378D01*
X113545200Y-82310311D01*
X113589137Y-82266374D01*
X113702405Y-82096856D01*
X113780426Y-81908498D01*
X113820200Y-81708539D01*
X113820200Y-81504661D01*
X113780426Y-81304702D01*
X113702405Y-81116344D01*
X113589137Y-80946826D01*
X113484231Y-80841920D01*
X113507454Y-80813624D01*
X113589410Y-80713760D01*
X113589411Y-80713759D01*
X113671589Y-80560013D01*
X113722195Y-80393190D01*
X113735000Y-80263177D01*
X113735000Y-80263167D01*
X113739281Y-80219701D01*
X113735000Y-80176235D01*
X113735000Y-66845501D01*
X113801185Y-66791185D01*
X113880537Y-66694494D01*
X113939502Y-66584180D01*
X113975812Y-66464482D01*
X113988072Y-66340000D01*
X113988072Y-61340000D01*
X113975812Y-61215518D01*
X113939502Y-61095820D01*
X113880537Y-60985506D01*
X113801185Y-60888815D01*
X113704494Y-60809463D01*
X113594180Y-60750498D01*
X113474482Y-60714188D01*
X113350000Y-60701928D01*
X112350000Y-60701928D01*
X112225518Y-60714188D01*
X112105820Y-60750498D01*
X112100000Y-60753609D01*
X112094180Y-60750498D01*
X111974482Y-60714188D01*
X111850000Y-60701928D01*
X110850000Y-60701928D01*
X110725518Y-60714188D01*
X110605820Y-60750498D01*
X110600000Y-60753609D01*
X110594180Y-60750498D01*
X110474482Y-60714188D01*
X110350000Y-60701928D01*
X109350000Y-60701928D01*
X109225518Y-60714188D01*
X109105820Y-60750498D01*
X109100000Y-60753609D01*
X109094180Y-60750498D01*
X108974482Y-60714188D01*
X108850000Y-60701928D01*
X107850000Y-60701928D01*
X107725518Y-60714188D01*
X107605820Y-60750498D01*
X107600000Y-60753609D01*
X107594180Y-60750498D01*
X107474482Y-60714188D01*
X107350000Y-60701928D01*
X106350000Y-60701928D01*
X106225518Y-60714188D01*
X106105820Y-60750498D01*
X106100000Y-60753609D01*
X106094180Y-60750498D01*
X105974482Y-60714188D01*
X105850000Y-60701928D01*
X104850000Y-60701928D01*
X104725518Y-60714188D01*
X104605820Y-60750498D01*
X104600000Y-60753609D01*
X104594180Y-60750498D01*
X104474482Y-60714188D01*
X104350000Y-60701928D01*
X103350000Y-60701928D01*
X103225518Y-60714188D01*
X103105820Y-60750498D01*
X103100000Y-60753609D01*
X103094180Y-60750498D01*
X102974482Y-60714188D01*
X102850000Y-60701928D01*
X101850000Y-60701928D01*
X101725518Y-60714188D01*
X101605820Y-60750498D01*
X101600000Y-60753609D01*
X101594180Y-60750498D01*
X101474482Y-60714188D01*
X101350000Y-60701928D01*
X100350000Y-60701928D01*
X100225518Y-60714188D01*
X100105820Y-60750498D01*
X100100000Y-60753609D01*
X100094180Y-60750498D01*
X99974482Y-60714188D01*
X99850000Y-60701928D01*
X98850000Y-60701928D01*
X98725518Y-60714188D01*
X98605820Y-60750498D01*
X98600000Y-60753609D01*
X98594180Y-60750498D01*
X98474482Y-60714188D01*
X98350000Y-60701928D01*
X97350000Y-60701928D01*
X97225518Y-60714188D01*
X97105820Y-60750498D01*
X97100000Y-60753609D01*
X97094180Y-60750498D01*
X96974482Y-60714188D01*
X96850000Y-60701928D01*
X95850000Y-60701928D01*
X95725518Y-60714188D01*
X95605820Y-60750498D01*
X95600000Y-60753609D01*
X95594180Y-60750498D01*
X95474482Y-60714188D01*
X95350000Y-60701928D01*
X94350000Y-60701928D01*
X94225518Y-60714188D01*
X94105820Y-60750498D01*
X94100000Y-60753609D01*
X94094180Y-60750498D01*
X93974482Y-60714188D01*
X93850000Y-60701928D01*
X92850000Y-60701928D01*
X92725518Y-60714188D01*
X92605820Y-60750498D01*
X92600000Y-60753609D01*
X92594180Y-60750498D01*
X92474482Y-60714188D01*
X92350000Y-60701928D01*
X91350000Y-60701928D01*
X91225518Y-60714188D01*
X91105820Y-60750498D01*
X91100000Y-60753609D01*
X91094180Y-60750498D01*
X90974482Y-60714188D01*
X90850000Y-60701928D01*
X89850000Y-60701928D01*
X89725518Y-60714188D01*
X89605820Y-60750498D01*
X89600000Y-60753609D01*
X89594180Y-60750498D01*
X89474482Y-60714188D01*
X89350000Y-60701928D01*
X88350000Y-60701928D01*
X88225518Y-60714188D01*
X88105820Y-60750498D01*
X88100000Y-60753609D01*
X88094180Y-60750498D01*
X87974482Y-60714188D01*
X87850000Y-60701928D01*
X86850000Y-60701928D01*
X86725518Y-60714188D01*
X86605820Y-60750498D01*
X86600000Y-60753609D01*
X86594180Y-60750498D01*
X86474482Y-60714188D01*
X86350000Y-60701928D01*
X85350000Y-60701928D01*
X85225518Y-60714188D01*
X85105820Y-60750498D01*
X85100000Y-60753609D01*
X85094180Y-60750498D01*
X84974482Y-60714188D01*
X84850000Y-60701928D01*
X83850000Y-60701928D01*
X83725518Y-60714188D01*
X83605820Y-60750498D01*
X83600000Y-60753609D01*
X83594180Y-60750498D01*
X83474482Y-60714188D01*
X83350000Y-60701928D01*
X82350000Y-60701928D01*
X82225518Y-60714188D01*
X82105820Y-60750498D01*
X82100000Y-60753609D01*
X82094180Y-60750498D01*
X81974482Y-60714188D01*
X81850000Y-60701928D01*
X80850000Y-60701928D01*
X80725518Y-60714188D01*
X80605820Y-60750498D01*
X80600000Y-60753609D01*
X80594180Y-60750498D01*
X80474482Y-60714188D01*
X80350000Y-60701928D01*
X79350000Y-60701928D01*
X79225518Y-60714188D01*
X79105820Y-60750498D01*
X79100000Y-60753609D01*
X79094180Y-60750498D01*
X78974482Y-60714188D01*
X78850000Y-60701928D01*
X77850000Y-60701928D01*
X77725518Y-60714188D01*
X77605820Y-60750498D01*
X77600000Y-60753609D01*
X77594180Y-60750498D01*
X77474482Y-60714188D01*
X77350000Y-60701928D01*
X76350000Y-60701928D01*
X76225518Y-60714188D01*
X76105820Y-60750498D01*
X76100000Y-60753609D01*
X76094180Y-60750498D01*
X75974482Y-60714188D01*
X75850000Y-60701928D01*
X74850000Y-60701928D01*
X74725518Y-60714188D01*
X74605820Y-60750498D01*
X74600000Y-60753609D01*
X74594180Y-60750498D01*
X74474482Y-60714188D01*
X74350000Y-60701928D01*
X73350000Y-60701928D01*
X73225518Y-60714188D01*
X73105820Y-60750498D01*
X73100000Y-60753609D01*
X73094180Y-60750498D01*
X72974482Y-60714188D01*
X72850000Y-60701928D01*
X71850000Y-60701928D01*
X71725518Y-60714188D01*
X71605820Y-60750498D01*
X71600000Y-60753609D01*
X71594180Y-60750498D01*
X71474482Y-60714188D01*
X71350000Y-60701928D01*
X70350000Y-60701928D01*
X70225518Y-60714188D01*
X70105820Y-60750498D01*
X70100000Y-60753609D01*
X70094180Y-60750498D01*
X69974482Y-60714188D01*
X69850000Y-60701928D01*
X68850000Y-60701928D01*
X68725518Y-60714188D01*
X68605820Y-60750498D01*
X68600000Y-60753609D01*
X68594180Y-60750498D01*
X68474482Y-60714188D01*
X68350000Y-60701928D01*
X67350000Y-60701928D01*
X67225518Y-60714188D01*
X67105820Y-60750498D01*
X67100000Y-60753609D01*
X67094180Y-60750498D01*
X66974482Y-60714188D01*
X66850000Y-60701928D01*
X66635750Y-60705000D01*
X66477000Y-60863750D01*
X66477000Y-63713000D01*
X66497000Y-63713000D01*
X66497000Y-63967000D01*
X66477000Y-63967000D01*
X66477000Y-66816250D01*
X66635750Y-66975000D01*
X66850000Y-66978072D01*
X66965001Y-66966746D01*
X66965001Y-69022444D01*
X66932795Y-69070644D01*
X66854774Y-69259002D01*
X66815000Y-69458961D01*
X66815000Y-69662839D01*
X66854774Y-69862798D01*
X66932795Y-70051156D01*
X67046063Y-70220674D01*
X67190226Y-70364837D01*
X67359744Y-70478105D01*
X67548102Y-70556126D01*
X67748061Y-70595900D01*
X67951939Y-70595900D01*
X68151898Y-70556126D01*
X68340256Y-70478105D01*
X68509774Y-70364837D01*
X68590001Y-70284610D01*
X68590001Y-70973168D01*
X68586324Y-71010500D01*
X68590001Y-71047833D01*
X68600998Y-71159486D01*
X68614180Y-71202942D01*
X68644454Y-71302746D01*
X68715026Y-71434776D01*
X68786201Y-71521502D01*
X68810000Y-71550501D01*
X68838998Y-71574299D01*
X71769700Y-74505002D01*
X71769701Y-85040488D01*
X71725763Y-85084426D01*
X71612495Y-85253944D01*
X71534474Y-85442302D01*
X71494700Y-85642261D01*
X71494700Y-85846139D01*
X71534474Y-86046098D01*
X71612495Y-86234456D01*
X71725763Y-86403974D01*
X71869926Y-86548137D01*
X72039444Y-86661405D01*
X72227802Y-86739426D01*
X72427761Y-86779200D01*
X72631639Y-86779200D01*
X72831598Y-86739426D01*
X73019956Y-86661405D01*
X73189474Y-86548137D01*
X73333637Y-86403974D01*
X73446905Y-86234456D01*
X73524926Y-86046098D01*
X73564700Y-85846139D01*
X73564700Y-85642261D01*
X73524926Y-85442302D01*
X73446905Y-85253944D01*
X73333637Y-85084426D01*
X73289700Y-85040489D01*
X73289700Y-74227523D01*
X73293376Y-74190200D01*
X73289700Y-74152877D01*
X73289700Y-74152867D01*
X73278703Y-74041214D01*
X73235246Y-73897953D01*
X73164674Y-73765924D01*
X73069701Y-73650199D01*
X73040704Y-73626402D01*
X71569256Y-72154955D01*
X71653937Y-72070274D01*
X71767205Y-71900756D01*
X71845226Y-71712398D01*
X71885000Y-71512439D01*
X71885000Y-71308561D01*
X71845226Y-71108602D01*
X71767205Y-70920244D01*
X71653937Y-70750726D01*
X71610000Y-70706789D01*
X71610000Y-70221011D01*
X71670626Y-70281637D01*
X71840144Y-70394905D01*
X72028502Y-70472926D01*
X72228461Y-70512700D01*
X72432339Y-70512700D01*
X72632298Y-70472926D01*
X72820656Y-70394905D01*
X72990174Y-70281637D01*
X73134337Y-70137474D01*
X73247605Y-69967956D01*
X73325626Y-69779598D01*
X73365400Y-69579639D01*
X73365400Y-69375761D01*
X73325626Y-69175802D01*
X73247605Y-68987444D01*
X73134337Y-68817926D01*
X73110000Y-68793589D01*
X73110000Y-68444762D01*
X73114180Y-68458542D01*
X73144454Y-68558346D01*
X73215026Y-68690376D01*
X73270834Y-68758377D01*
X73310000Y-68806101D01*
X73338998Y-68829899D01*
X95860508Y-91351410D01*
X95815000Y-91346928D01*
X95348606Y-91346928D01*
X94887734Y-90886056D01*
X94860017Y-90852283D01*
X94725259Y-90741689D01*
X94571513Y-90659511D01*
X94404690Y-90608905D01*
X94274677Y-90596100D01*
X94274669Y-90596100D01*
X94231200Y-90591819D01*
X94187731Y-90596100D01*
X93146769Y-90596100D01*
X93103300Y-90591819D01*
X93059831Y-90596100D01*
X93059823Y-90596100D01*
X92929810Y-90608905D01*
X92762987Y-90659511D01*
X92634152Y-90728374D01*
X92609241Y-90741689D01*
X92508253Y-90824568D01*
X92508251Y-90824570D01*
X92474483Y-90852283D01*
X92446770Y-90886051D01*
X89105091Y-94227731D01*
X89091490Y-94223605D01*
X88961477Y-94210800D01*
X88961469Y-94210800D01*
X88918000Y-94206519D01*
X88874531Y-94210800D01*
X82060264Y-94210800D01*
X82063200Y-94196039D01*
X82063200Y-93992161D01*
X82023426Y-93792202D01*
X81945405Y-93603844D01*
X81832137Y-93434326D01*
X81687974Y-93290163D01*
X81518456Y-93176895D01*
X81330098Y-93098874D01*
X81130139Y-93059100D01*
X80926261Y-93059100D01*
X80726302Y-93098874D01*
X80537944Y-93176895D01*
X80368426Y-93290163D01*
X80224263Y-93434326D01*
X80110995Y-93603844D01*
X80032974Y-93792202D01*
X79993200Y-93992161D01*
X79993200Y-94196039D01*
X80032974Y-94395998D01*
X80110995Y-94584356D01*
X80197131Y-94713268D01*
X79689498Y-95220901D01*
X79660500Y-95244699D01*
X79636702Y-95273697D01*
X79636701Y-95273698D01*
X79565526Y-95360424D01*
X79494954Y-95492454D01*
X79492197Y-95501544D01*
X79434982Y-95484188D01*
X79310500Y-95471928D01*
X79138323Y-95471928D01*
X79233256Y-95432605D01*
X79402774Y-95319337D01*
X79546937Y-95175174D01*
X79660205Y-95005656D01*
X79738226Y-94817298D01*
X79778000Y-94617339D01*
X79778000Y-94413461D01*
X79738226Y-94213502D01*
X79660205Y-94025144D01*
X79546937Y-93855626D01*
X79402774Y-93711463D01*
X79233256Y-93598195D01*
X79044898Y-93520174D01*
X78844939Y-93480400D01*
X78641061Y-93480400D01*
X78441102Y-93520174D01*
X78252744Y-93598195D01*
X78083226Y-93711463D01*
X78039289Y-93755400D01*
X77697122Y-93755400D01*
X77659799Y-93751724D01*
X77622476Y-93755400D01*
X77622467Y-93755400D01*
X77510814Y-93766397D01*
X77367553Y-93809854D01*
X77235524Y-93880426D01*
X77119799Y-93975399D01*
X77096001Y-94004397D01*
X75879498Y-95220901D01*
X75850500Y-95244699D01*
X75826702Y-95273697D01*
X75826701Y-95273698D01*
X75755526Y-95360424D01*
X75684954Y-95492454D01*
X75682197Y-95501544D01*
X75624982Y-95484188D01*
X75500500Y-95471928D01*
X75406250Y-95475000D01*
X75247500Y-95633750D01*
X75247500Y-97133000D01*
X75267500Y-97133000D01*
X75267500Y-97387000D01*
X75247500Y-97387000D01*
X75247500Y-98886250D01*
X75406250Y-99045000D01*
X75500500Y-99048072D01*
X75624982Y-99035812D01*
X75744680Y-98999502D01*
X75755500Y-98993718D01*
X75766320Y-98999502D01*
X75886018Y-99035812D01*
X76010500Y-99048072D01*
X76770500Y-99048072D01*
X76894982Y-99035812D01*
X77014680Y-98999502D01*
X77025500Y-98993718D01*
X77036320Y-98999502D01*
X77156018Y-99035812D01*
X77280500Y-99048072D01*
X78040500Y-99048072D01*
X78164982Y-99035812D01*
X78170501Y-99034138D01*
X78170500Y-105363298D01*
X77851205Y-105682594D01*
X77777674Y-105609063D01*
X77608156Y-105495795D01*
X77419798Y-105417774D01*
X77219839Y-105378000D01*
X77015961Y-105378000D01*
X76816002Y-105417774D01*
X76627644Y-105495795D01*
X76458126Y-105609063D01*
X76313963Y-105753226D01*
X76200695Y-105922744D01*
X76122674Y-106111102D01*
X76106181Y-106194017D01*
X72069503Y-110230696D01*
X72040499Y-110254499D01*
X72000358Y-110303412D01*
X71945526Y-110370224D01*
X71900425Y-110454602D01*
X71874954Y-110502254D01*
X71831497Y-110645515D01*
X71820500Y-110757168D01*
X71820500Y-110757178D01*
X71816824Y-110794500D01*
X71820500Y-110831823D01*
X71820500Y-111785862D01*
X71814982Y-111784188D01*
X71690500Y-111771928D01*
X70994062Y-111771928D01*
X71007826Y-111738698D01*
X71047600Y-111538739D01*
X71047600Y-111334861D01*
X71007826Y-111134902D01*
X70929805Y-110946544D01*
X70915824Y-110925619D01*
X70925756Y-110921505D01*
X71095274Y-110808237D01*
X71239437Y-110664074D01*
X71352705Y-110494556D01*
X71430726Y-110306198D01*
X71470500Y-110106239D01*
X71470500Y-109902361D01*
X71430726Y-109702402D01*
X71352705Y-109514044D01*
X71239437Y-109344526D01*
X71095274Y-109200363D01*
X70925756Y-109087095D01*
X70924165Y-109086436D01*
X70950702Y-109059900D01*
X71012839Y-109059900D01*
X71212798Y-109020126D01*
X71401156Y-108942105D01*
X71570674Y-108828837D01*
X71714837Y-108684674D01*
X71828105Y-108515156D01*
X71906126Y-108326798D01*
X71945900Y-108126839D01*
X71945900Y-107922961D01*
X71906126Y-107723002D01*
X71828105Y-107534644D01*
X71714837Y-107365126D01*
X71570674Y-107220963D01*
X71401156Y-107107695D01*
X71212798Y-107029674D01*
X71012839Y-106989900D01*
X70808961Y-106989900D01*
X70609002Y-107029674D01*
X70420644Y-107107695D01*
X70259729Y-107215215D01*
X70279604Y-107190997D01*
X71283902Y-106186700D01*
X73365078Y-106186700D01*
X73402400Y-106190376D01*
X73439722Y-106186700D01*
X73439733Y-106186700D01*
X73551386Y-106175703D01*
X73694647Y-106132246D01*
X73826676Y-106061674D01*
X73942401Y-105966701D01*
X73966204Y-105937698D01*
X74385801Y-105518100D01*
X74447939Y-105518100D01*
X74647898Y-105478326D01*
X74836256Y-105400305D01*
X75005774Y-105287037D01*
X75149937Y-105142874D01*
X75263205Y-104973356D01*
X75341226Y-104784998D01*
X75381000Y-104585039D01*
X75381000Y-104381161D01*
X75341226Y-104181202D01*
X75263205Y-103992844D01*
X75149937Y-103823326D01*
X75005774Y-103679163D01*
X74836256Y-103565895D01*
X74647898Y-103487874D01*
X74447939Y-103448100D01*
X74244061Y-103448100D01*
X74044102Y-103487874D01*
X73855744Y-103565895D01*
X73686226Y-103679163D01*
X73572600Y-103792789D01*
X73557574Y-103777763D01*
X73388056Y-103664495D01*
X73199698Y-103586474D01*
X72999739Y-103546700D01*
X72795861Y-103546700D01*
X72595902Y-103586474D01*
X72407544Y-103664495D01*
X72238026Y-103777763D01*
X72194089Y-103821700D01*
X70581422Y-103821700D01*
X70544099Y-103818024D01*
X70506776Y-103821700D01*
X70506767Y-103821700D01*
X70395114Y-103832697D01*
X70256317Y-103874800D01*
X70251853Y-103876154D01*
X70119823Y-103946726D01*
X70065504Y-103991305D01*
X70028572Y-104021615D01*
X70028572Y-103760000D01*
X70016312Y-103635518D01*
X69980002Y-103515820D01*
X69974218Y-103505000D01*
X69980002Y-103494180D01*
X70016312Y-103374482D01*
X70028572Y-103250000D01*
X70028572Y-102490000D01*
X70016312Y-102365518D01*
X69980002Y-102245820D01*
X69974218Y-102235000D01*
X69980002Y-102224180D01*
X70016312Y-102104482D01*
X70028572Y-101980000D01*
X70028572Y-101717574D01*
X70368801Y-102057803D01*
X70392599Y-102086801D01*
X70421597Y-102110599D01*
X70508323Y-102181774D01*
X70628144Y-102245820D01*
X70640353Y-102252346D01*
X70783614Y-102295803D01*
X70895267Y-102306800D01*
X70895276Y-102306800D01*
X70932599Y-102310476D01*
X70969922Y-102306800D01*
X74040189Y-102306800D01*
X74084126Y-102350737D01*
X74253644Y-102464005D01*
X74442002Y-102542026D01*
X74641961Y-102581800D01*
X74845839Y-102581800D01*
X75045798Y-102542026D01*
X75234156Y-102464005D01*
X75403674Y-102350737D01*
X75547837Y-102206574D01*
X75661105Y-102037056D01*
X75739126Y-101848698D01*
X75778900Y-101648739D01*
X75778900Y-101444861D01*
X75739126Y-101244902D01*
X75661105Y-101056544D01*
X75547837Y-100887026D01*
X75480347Y-100819536D01*
X75514400Y-100648339D01*
X75514400Y-100444461D01*
X75474626Y-100244502D01*
X75396605Y-100056144D01*
X75283337Y-99886626D01*
X75139174Y-99742463D01*
X74969656Y-99629195D01*
X74781298Y-99551174D01*
X74581339Y-99511400D01*
X74377461Y-99511400D01*
X74177502Y-99551174D01*
X73989144Y-99629195D01*
X73819626Y-99742463D01*
X73675463Y-99886626D01*
X73588951Y-100016100D01*
X73551100Y-100016100D01*
X73551100Y-99936761D01*
X73511326Y-99736802D01*
X73433305Y-99548444D01*
X73320037Y-99378926D01*
X73175874Y-99234763D01*
X73006356Y-99121495D01*
X72829098Y-99048072D01*
X72960500Y-99048072D01*
X73084982Y-99035812D01*
X73204680Y-98999502D01*
X73215500Y-98993718D01*
X73226320Y-98999502D01*
X73346018Y-99035812D01*
X73470500Y-99048072D01*
X74230500Y-99048072D01*
X74354982Y-99035812D01*
X74474680Y-98999502D01*
X74485500Y-98993718D01*
X74496320Y-98999502D01*
X74616018Y-99035812D01*
X74740500Y-99048072D01*
X74834750Y-99045000D01*
X74993500Y-98886250D01*
X74993500Y-97387000D01*
X74973500Y-97387000D01*
X74973500Y-97133000D01*
X74993500Y-97133000D01*
X74993500Y-95665658D01*
X75023546Y-95609447D01*
X75067003Y-95466186D01*
X75078000Y-95354533D01*
X75078000Y-95354523D01*
X75081676Y-95317200D01*
X75078000Y-95279877D01*
X75078000Y-94658111D01*
X75121937Y-94614174D01*
X75235205Y-94444656D01*
X75313226Y-94256298D01*
X75353000Y-94056339D01*
X75353000Y-93852461D01*
X75313226Y-93652502D01*
X75235205Y-93464144D01*
X75143696Y-93327191D01*
X75225905Y-93204156D01*
X75303926Y-93015798D01*
X75343700Y-92815839D01*
X75343700Y-92611961D01*
X75303926Y-92412002D01*
X75225905Y-92223644D01*
X75112637Y-92054126D01*
X74968474Y-91909963D01*
X74798956Y-91796695D01*
X74610598Y-91718674D01*
X74410639Y-91678900D01*
X74206761Y-91678900D01*
X74006802Y-91718674D01*
X73818444Y-91796695D01*
X73648926Y-91909963D01*
X73604989Y-91953900D01*
X73148622Y-91953900D01*
X73111299Y-91950224D01*
X73073977Y-91953900D01*
X73073967Y-91953900D01*
X72962314Y-91964897D01*
X72819053Y-92008354D01*
X72687023Y-92078926D01*
X72642731Y-92115276D01*
X72571299Y-92173899D01*
X72547501Y-92202897D01*
X69529498Y-95220901D01*
X69500500Y-95244699D01*
X69476702Y-95273697D01*
X69476701Y-95273698D01*
X69405526Y-95360424D01*
X69334954Y-95492454D01*
X69309056Y-95577833D01*
X69306006Y-95579463D01*
X69209315Y-95658815D01*
X69129963Y-95755506D01*
X69070998Y-95865820D01*
X69034688Y-95985518D01*
X69022428Y-96110000D01*
X69022428Y-98041928D01*
X67090500Y-98041928D01*
X66966018Y-98054188D01*
X66846320Y-98090498D01*
X66736006Y-98149463D01*
X66639315Y-98228815D01*
X66630000Y-98240165D01*
X66630000Y-84185685D01*
X66667104Y-84130155D01*
X66745125Y-83941797D01*
X66784899Y-83741838D01*
X66784899Y-83537960D01*
X66745125Y-83338001D01*
X66667104Y-83149643D01*
X66553836Y-82980125D01*
X66409673Y-82835962D01*
X66240155Y-82722694D01*
X66051797Y-82644673D01*
X66008033Y-82635968D01*
X68164804Y-80479198D01*
X68193801Y-80455401D01*
X68242670Y-80395854D01*
X68288774Y-80339677D01*
X68359346Y-80207647D01*
X68359346Y-80207646D01*
X68402803Y-80064386D01*
X68413800Y-79952733D01*
X68413800Y-79952724D01*
X68417476Y-79915401D01*
X68413800Y-79878078D01*
X68413800Y-77872500D01*
X68664970Y-77872500D01*
X68772038Y-78002962D01*
X68906613Y-78113405D01*
X69060148Y-78195472D01*
X69226744Y-78246008D01*
X69399998Y-78263072D01*
X70300002Y-78263072D01*
X70473256Y-78246008D01*
X70639852Y-78195472D01*
X70793387Y-78113405D01*
X70927962Y-78002962D01*
X71038405Y-77868387D01*
X71120472Y-77714852D01*
X71171008Y-77548256D01*
X71188072Y-77375002D01*
X71188072Y-76849998D01*
X71171008Y-76676744D01*
X71120472Y-76510148D01*
X71038405Y-76356613D01*
X70971724Y-76275363D01*
X71001185Y-76251185D01*
X71080537Y-76154494D01*
X71139502Y-76044180D01*
X71175812Y-75924482D01*
X71188072Y-75800000D01*
X71185000Y-75573250D01*
X71026250Y-75414500D01*
X69977000Y-75414500D01*
X69977000Y-75434500D01*
X69723000Y-75434500D01*
X69723000Y-75414500D01*
X68673750Y-75414500D01*
X68515000Y-75573250D01*
X68511928Y-75800000D01*
X68524188Y-75924482D01*
X68560498Y-76044180D01*
X68619463Y-76154494D01*
X68698815Y-76251185D01*
X68728276Y-76275363D01*
X68664970Y-76352500D01*
X67968602Y-76352500D01*
X67305103Y-75689002D01*
X67281301Y-75659999D01*
X67165576Y-75565026D01*
X67033547Y-75494454D01*
X66890286Y-75450997D01*
X66778633Y-75440000D01*
X66778622Y-75440000D01*
X66741300Y-75436324D01*
X66703978Y-75440000D01*
X66440901Y-75440000D01*
X66418932Y-75398899D01*
X66255700Y-75200000D01*
X66418932Y-75001101D01*
X66539785Y-74775000D01*
X68511928Y-74775000D01*
X68515000Y-75001750D01*
X68673750Y-75160500D01*
X69723000Y-75160500D01*
X69723000Y-74298750D01*
X69977000Y-74298750D01*
X69977000Y-75160500D01*
X71026250Y-75160500D01*
X71185000Y-75001750D01*
X71188072Y-74775000D01*
X71175812Y-74650518D01*
X71139502Y-74530820D01*
X71080537Y-74420506D01*
X71001185Y-74323815D01*
X70904494Y-74244463D01*
X70794180Y-74185498D01*
X70674482Y-74149188D01*
X70550000Y-74136928D01*
X70135750Y-74140000D01*
X69977000Y-74298750D01*
X69723000Y-74298750D01*
X69564250Y-74140000D01*
X69150000Y-74136928D01*
X69025518Y-74149188D01*
X68905820Y-74185498D01*
X68795506Y-74244463D01*
X68698815Y-74323815D01*
X68619463Y-74420506D01*
X68560498Y-74530820D01*
X68524188Y-74650518D01*
X68511928Y-74775000D01*
X66539785Y-74775000D01*
X66552182Y-74751808D01*
X66634236Y-74481309D01*
X66661943Y-74200000D01*
X66634236Y-73918691D01*
X66552182Y-73648192D01*
X66418932Y-73398899D01*
X66332282Y-73293315D01*
X66431714Y-73211714D01*
X66636031Y-72962752D01*
X66787852Y-72678715D01*
X66881343Y-72370516D01*
X66912911Y-72050000D01*
X66881343Y-71729484D01*
X66787852Y-71421285D01*
X66636031Y-71137248D01*
X66431714Y-70888286D01*
X66182752Y-70683969D01*
X65898715Y-70532148D01*
X65590516Y-70438657D01*
X65350322Y-70415000D01*
X64189678Y-70415000D01*
X63949484Y-70438657D01*
X63641285Y-70532148D01*
X63357248Y-70683969D01*
X63108286Y-70888286D01*
X62903969Y-71137248D01*
X62752148Y-71421285D01*
X62658657Y-71729484D01*
X62627089Y-72050000D01*
X62658657Y-72370516D01*
X62752148Y-72678715D01*
X62903969Y-72962752D01*
X63108286Y-73211714D01*
X63207718Y-73293315D01*
X63121068Y-73398899D01*
X62987818Y-73648192D01*
X62905764Y-73918691D01*
X62878057Y-74200000D01*
X62905764Y-74481309D01*
X62987818Y-74751808D01*
X63121068Y-75001101D01*
X63284300Y-75200000D01*
X63121068Y-75398899D01*
X62987818Y-75648192D01*
X62905764Y-75918691D01*
X62878057Y-76200000D01*
X62905764Y-76481309D01*
X62987818Y-76751808D01*
X63085710Y-76934950D01*
X63068815Y-76948815D01*
X62989463Y-77045506D01*
X62930498Y-77155820D01*
X62894188Y-77275518D01*
X62881928Y-77400000D01*
X62881928Y-79000000D01*
X62894188Y-79124482D01*
X62930498Y-79244180D01*
X62982529Y-79341522D01*
X62903969Y-79437248D01*
X62752148Y-79721285D01*
X62658657Y-80029484D01*
X62627089Y-80350000D01*
X62658657Y-80670516D01*
X62752148Y-80978715D01*
X62903969Y-81262752D01*
X63108286Y-81511714D01*
X63357248Y-81716031D01*
X63641285Y-81867852D01*
X63949484Y-81961343D01*
X64189678Y-81985000D01*
X64509399Y-81985000D01*
X64058198Y-82436201D01*
X64029200Y-82459999D01*
X64005402Y-82488997D01*
X64005401Y-82488998D01*
X63934226Y-82575724D01*
X63863654Y-82707754D01*
X63845405Y-82767915D01*
X63820198Y-82851014D01*
X63810824Y-82946185D01*
X63805524Y-83000000D01*
X63809201Y-83037333D01*
X63809201Y-85909700D01*
X63675161Y-85909700D01*
X63475202Y-85949474D01*
X63286844Y-86027495D01*
X63117326Y-86140763D01*
X62973163Y-86284926D01*
X62859895Y-86454444D01*
X62781874Y-86642802D01*
X62742100Y-86842761D01*
X62742100Y-87046639D01*
X62781874Y-87246598D01*
X62859895Y-87434956D01*
X62973163Y-87604474D01*
X63017101Y-87648412D01*
X63017101Y-90915000D01*
X62535000Y-90915000D01*
X62535000Y-66340000D01*
X65211928Y-66340000D01*
X65224188Y-66464482D01*
X65260498Y-66584180D01*
X65319463Y-66694494D01*
X65398815Y-66791185D01*
X65495506Y-66870537D01*
X65605820Y-66929502D01*
X65725518Y-66965812D01*
X65850000Y-66978072D01*
X66064250Y-66975000D01*
X66223000Y-66816250D01*
X66223000Y-63967000D01*
X65373750Y-63967000D01*
X65215000Y-64125750D01*
X65211928Y-66340000D01*
X62535000Y-66340000D01*
X62535000Y-61340000D01*
X65211928Y-61340000D01*
X65215000Y-63554250D01*
X65373750Y-63713000D01*
X66223000Y-63713000D01*
X66223000Y-60863750D01*
X66064250Y-60705000D01*
X65850000Y-60701928D01*
X65725518Y-60714188D01*
X65605820Y-60750498D01*
X65495506Y-60809463D01*
X65398815Y-60888815D01*
X65319463Y-60985506D01*
X65260498Y-61095820D01*
X65224188Y-61215518D01*
X65211928Y-61340000D01*
X62535000Y-61340000D01*
X62535000Y-55169117D01*
X74865000Y-55169117D01*
X74865000Y-55510883D01*
X74931675Y-55846081D01*
X75062463Y-56161831D01*
X75252337Y-56445998D01*
X75494002Y-56687663D01*
X75778169Y-56877537D01*
X76093919Y-57008325D01*
X76429117Y-57075000D01*
X76770883Y-57075000D01*
X77106081Y-57008325D01*
X77421831Y-56877537D01*
X77705998Y-56687663D01*
X77947663Y-56445998D01*
X78137537Y-56161831D01*
X78268325Y-55846081D01*
X78335000Y-55510883D01*
X78335000Y-55169117D01*
X100865000Y-55169117D01*
X100865000Y-55510883D01*
X100931675Y-55846081D01*
X101062463Y-56161831D01*
X101252337Y-56445998D01*
X101494002Y-56687663D01*
X101778169Y-56877537D01*
X102093919Y-57008325D01*
X102429117Y-57075000D01*
X102770883Y-57075000D01*
X103106081Y-57008325D01*
X103421831Y-56877537D01*
X103705998Y-56687663D01*
X103947663Y-56445998D01*
X104137537Y-56161831D01*
X104268325Y-55846081D01*
X104335000Y-55510883D01*
X104335000Y-55169117D01*
X104268325Y-54833919D01*
X104137537Y-54518169D01*
X103947663Y-54234002D01*
X103705998Y-53992337D01*
X103421831Y-53802463D01*
X103106081Y-53671675D01*
X102770883Y-53605000D01*
X102429117Y-53605000D01*
X102093919Y-53671675D01*
X101778169Y-53802463D01*
X101494002Y-53992337D01*
X101252337Y-54234002D01*
X101062463Y-54518169D01*
X100931675Y-54833919D01*
X100865000Y-55169117D01*
X78335000Y-55169117D01*
X78268325Y-54833919D01*
X78137537Y-54518169D01*
X77947663Y-54234002D01*
X77705998Y-53992337D01*
X77421831Y-53802463D01*
X77106081Y-53671675D01*
X76770883Y-53605000D01*
X76429117Y-53605000D01*
X76093919Y-53671675D01*
X75778169Y-53802463D01*
X75494002Y-53992337D01*
X75252337Y-54234002D01*
X75062463Y-54518169D01*
X74931675Y-54833919D01*
X74865000Y-55169117D01*
X62535000Y-55169117D01*
X62535000Y-40685000D01*
X73233446Y-40685000D01*
X73224188Y-40715518D01*
%TA.AperFunction,Conductor*%
D26*
G36*
X73224188Y-40715518D02*
G01*
X73211928Y-40840000D01*
X73211928Y-44340000D01*
X73224188Y-44464482D01*
X73260498Y-44584180D01*
X73319463Y-44694494D01*
X73398815Y-44791185D01*
X73495506Y-44870537D01*
X73605820Y-44929502D01*
X73725518Y-44965812D01*
X73850000Y-44978072D01*
X79350000Y-44978072D01*
X79474482Y-44965812D01*
X79594180Y-44929502D01*
X79704494Y-44870537D01*
X79801185Y-44791185D01*
X79880537Y-44694494D01*
X79939502Y-44584180D01*
X79975812Y-44464482D01*
X79988072Y-44340000D01*
X79988072Y-40840000D01*
X79975812Y-40715518D01*
X79966554Y-40685000D01*
X99233446Y-40685000D01*
X99224188Y-40715518D01*
X99211928Y-40840000D01*
X99211928Y-44340000D01*
X99224188Y-44464482D01*
X99260498Y-44584180D01*
X99319463Y-44694494D01*
X99398815Y-44791185D01*
X99495506Y-44870537D01*
X99605820Y-44929502D01*
X99725518Y-44965812D01*
X99850000Y-44978072D01*
X105350000Y-44978072D01*
X105474482Y-44965812D01*
X105594180Y-44929502D01*
X105704494Y-44870537D01*
X105801185Y-44791185D01*
X105880537Y-44694494D01*
X105939502Y-44584180D01*
X105975812Y-44464482D01*
X105988072Y-44340000D01*
X105988072Y-40840000D01*
X105975812Y-40715518D01*
X105966554Y-40685000D01*
X116665000Y-40685000D01*
X116665001Y-90915000D01*
X111888801Y-90915000D01*
X113775002Y-89028800D01*
X113837139Y-89028800D01*
X114037098Y-88989026D01*
X114225456Y-88911005D01*
X114394974Y-88797737D01*
X114539137Y-88653574D01*
X114652405Y-88484056D01*
X114730426Y-88295698D01*
X114770200Y-88095739D01*
X114770200Y-87891861D01*
X114730426Y-87691902D01*
X114652405Y-87503544D01*
X114539137Y-87334026D01*
X114394974Y-87189863D01*
X114225456Y-87076595D01*
X114037098Y-86998574D01*
X113837139Y-86958800D01*
X113633261Y-86958800D01*
X113433302Y-86998574D01*
X113244944Y-87076595D01*
X113075426Y-87189863D01*
X112931263Y-87334026D01*
X112817995Y-87503544D01*
X112739974Y-87691902D01*
X112700200Y-87891861D01*
X112700200Y-87953998D01*
X111663800Y-88990399D01*
X111663800Y-88819823D01*
X111667476Y-88782500D01*
X111663800Y-88745177D01*
X111663800Y-88745167D01*
X111652803Y-88633514D01*
X111609346Y-88490253D01*
X111571762Y-88419939D01*
X113296203Y-86695499D01*
X113325201Y-86671701D01*
X113420174Y-86555976D01*
X113490746Y-86423947D01*
X113534203Y-86280686D01*
X113545200Y-86169033D01*
X113545200Y-86169024D01*
X113548876Y-86131701D01*
X113545200Y-86094378D01*
X113545200Y-82310311D01*
X113589137Y-82266374D01*
X113702405Y-82096856D01*
X113780426Y-81908498D01*
X113820200Y-81708539D01*
X113820200Y-81504661D01*
X113780426Y-81304702D01*
X113702405Y-81116344D01*
X113589137Y-80946826D01*
X113484231Y-80841920D01*
X113507454Y-80813624D01*
X113589410Y-80713760D01*
X113589411Y-80713759D01*
X113671589Y-80560013D01*
X113722195Y-80393190D01*
X113735000Y-80263177D01*
X113735000Y-80263167D01*
X113739281Y-80219701D01*
X113735000Y-80176235D01*
X113735000Y-66845501D01*
X113801185Y-66791185D01*
X113880537Y-66694494D01*
X113939502Y-66584180D01*
X113975812Y-66464482D01*
X113988072Y-66340000D01*
X113988072Y-61340000D01*
X113975812Y-61215518D01*
X113939502Y-61095820D01*
X113880537Y-60985506D01*
X113801185Y-60888815D01*
X113704494Y-60809463D01*
X113594180Y-60750498D01*
X113474482Y-60714188D01*
X113350000Y-60701928D01*
X112350000Y-60701928D01*
X112225518Y-60714188D01*
X112105820Y-60750498D01*
X112100000Y-60753609D01*
X112094180Y-60750498D01*
X111974482Y-60714188D01*
X111850000Y-60701928D01*
X110850000Y-60701928D01*
X110725518Y-60714188D01*
X110605820Y-60750498D01*
X110600000Y-60753609D01*
X110594180Y-60750498D01*
X110474482Y-60714188D01*
X110350000Y-60701928D01*
X109350000Y-60701928D01*
X109225518Y-60714188D01*
X109105820Y-60750498D01*
X109100000Y-60753609D01*
X109094180Y-60750498D01*
X108974482Y-60714188D01*
X108850000Y-60701928D01*
X107850000Y-60701928D01*
X107725518Y-60714188D01*
X107605820Y-60750498D01*
X107600000Y-60753609D01*
X107594180Y-60750498D01*
X107474482Y-60714188D01*
X107350000Y-60701928D01*
X106350000Y-60701928D01*
X106225518Y-60714188D01*
X106105820Y-60750498D01*
X106100000Y-60753609D01*
X106094180Y-60750498D01*
X105974482Y-60714188D01*
X105850000Y-60701928D01*
X104850000Y-60701928D01*
X104725518Y-60714188D01*
X104605820Y-60750498D01*
X104600000Y-60753609D01*
X104594180Y-60750498D01*
X104474482Y-60714188D01*
X104350000Y-60701928D01*
X103350000Y-60701928D01*
X103225518Y-60714188D01*
X103105820Y-60750498D01*
X103100000Y-60753609D01*
X103094180Y-60750498D01*
X102974482Y-60714188D01*
X102850000Y-60701928D01*
X101850000Y-60701928D01*
X101725518Y-60714188D01*
X101605820Y-60750498D01*
X101600000Y-60753609D01*
X101594180Y-60750498D01*
X101474482Y-60714188D01*
X101350000Y-60701928D01*
X100350000Y-60701928D01*
X100225518Y-60714188D01*
X100105820Y-60750498D01*
X100100000Y-60753609D01*
X100094180Y-60750498D01*
X99974482Y-60714188D01*
X99850000Y-60701928D01*
X98850000Y-60701928D01*
X98725518Y-60714188D01*
X98605820Y-60750498D01*
X98600000Y-60753609D01*
X98594180Y-60750498D01*
X98474482Y-60714188D01*
X98350000Y-60701928D01*
X97350000Y-60701928D01*
X97225518Y-60714188D01*
X97105820Y-60750498D01*
X97100000Y-60753609D01*
X97094180Y-60750498D01*
X96974482Y-60714188D01*
X96850000Y-60701928D01*
X95850000Y-60701928D01*
X95725518Y-60714188D01*
X95605820Y-60750498D01*
X95600000Y-60753609D01*
X95594180Y-60750498D01*
X95474482Y-60714188D01*
X95350000Y-60701928D01*
X94350000Y-60701928D01*
X94225518Y-60714188D01*
X94105820Y-60750498D01*
X94100000Y-60753609D01*
X94094180Y-60750498D01*
X93974482Y-60714188D01*
X93850000Y-60701928D01*
X92850000Y-60701928D01*
X92725518Y-60714188D01*
X92605820Y-60750498D01*
X92600000Y-60753609D01*
X92594180Y-60750498D01*
X92474482Y-60714188D01*
X92350000Y-60701928D01*
X91350000Y-60701928D01*
X91225518Y-60714188D01*
X91105820Y-60750498D01*
X91100000Y-60753609D01*
X91094180Y-60750498D01*
X90974482Y-60714188D01*
X90850000Y-60701928D01*
X89850000Y-60701928D01*
X89725518Y-60714188D01*
X89605820Y-60750498D01*
X89600000Y-60753609D01*
X89594180Y-60750498D01*
X89474482Y-60714188D01*
X89350000Y-60701928D01*
X88350000Y-60701928D01*
X88225518Y-60714188D01*
X88105820Y-60750498D01*
X88100000Y-60753609D01*
X88094180Y-60750498D01*
X87974482Y-60714188D01*
X87850000Y-60701928D01*
X86850000Y-60701928D01*
X86725518Y-60714188D01*
X86605820Y-60750498D01*
X86600000Y-60753609D01*
X86594180Y-60750498D01*
X86474482Y-60714188D01*
X86350000Y-60701928D01*
X85350000Y-60701928D01*
X85225518Y-60714188D01*
X85105820Y-60750498D01*
X85100000Y-60753609D01*
X85094180Y-60750498D01*
X84974482Y-60714188D01*
X84850000Y-60701928D01*
X83850000Y-60701928D01*
X83725518Y-60714188D01*
X83605820Y-60750498D01*
X83600000Y-60753609D01*
X83594180Y-60750498D01*
X83474482Y-60714188D01*
X83350000Y-60701928D01*
X82350000Y-60701928D01*
X82225518Y-60714188D01*
X82105820Y-60750498D01*
X82100000Y-60753609D01*
X82094180Y-60750498D01*
X81974482Y-60714188D01*
X81850000Y-60701928D01*
X80850000Y-60701928D01*
X80725518Y-60714188D01*
X80605820Y-60750498D01*
X80600000Y-60753609D01*
X80594180Y-60750498D01*
X80474482Y-60714188D01*
X80350000Y-60701928D01*
X79350000Y-60701928D01*
X79225518Y-60714188D01*
X79105820Y-60750498D01*
X79100000Y-60753609D01*
X79094180Y-60750498D01*
X78974482Y-60714188D01*
X78850000Y-60701928D01*
X77850000Y-60701928D01*
X77725518Y-60714188D01*
X77605820Y-60750498D01*
X77600000Y-60753609D01*
X77594180Y-60750498D01*
X77474482Y-60714188D01*
X77350000Y-60701928D01*
X76350000Y-60701928D01*
X76225518Y-60714188D01*
X76105820Y-60750498D01*
X76100000Y-60753609D01*
X76094180Y-60750498D01*
X75974482Y-60714188D01*
X75850000Y-60701928D01*
X74850000Y-60701928D01*
X74725518Y-60714188D01*
X74605820Y-60750498D01*
X74600000Y-60753609D01*
X74594180Y-60750498D01*
X74474482Y-60714188D01*
X74350000Y-60701928D01*
X73350000Y-60701928D01*
X73225518Y-60714188D01*
X73105820Y-60750498D01*
X73100000Y-60753609D01*
X73094180Y-60750498D01*
X72974482Y-60714188D01*
X72850000Y-60701928D01*
X71850000Y-60701928D01*
X71725518Y-60714188D01*
X71605820Y-60750498D01*
X71600000Y-60753609D01*
X71594180Y-60750498D01*
X71474482Y-60714188D01*
X71350000Y-60701928D01*
X70350000Y-60701928D01*
X70225518Y-60714188D01*
X70105820Y-60750498D01*
X70100000Y-60753609D01*
X70094180Y-60750498D01*
X69974482Y-60714188D01*
X69850000Y-60701928D01*
X68850000Y-60701928D01*
X68725518Y-60714188D01*
X68605820Y-60750498D01*
X68600000Y-60753609D01*
X68594180Y-60750498D01*
X68474482Y-60714188D01*
X68350000Y-60701928D01*
X67350000Y-60701928D01*
X67225518Y-60714188D01*
X67105820Y-60750498D01*
X67100000Y-60753609D01*
X67094180Y-60750498D01*
X66974482Y-60714188D01*
X66850000Y-60701928D01*
X66635750Y-60705000D01*
X66477000Y-60863750D01*
X66477000Y-63713000D01*
X66497000Y-63713000D01*
X66497000Y-63967000D01*
X66477000Y-63967000D01*
X66477000Y-66816250D01*
X66635750Y-66975000D01*
X66850000Y-66978072D01*
X66965001Y-66966746D01*
X66965001Y-69022444D01*
X66932795Y-69070644D01*
X66854774Y-69259002D01*
X66815000Y-69458961D01*
X66815000Y-69662839D01*
X66854774Y-69862798D01*
X66932795Y-70051156D01*
X67046063Y-70220674D01*
X67190226Y-70364837D01*
X67359744Y-70478105D01*
X67548102Y-70556126D01*
X67748061Y-70595900D01*
X67951939Y-70595900D01*
X68151898Y-70556126D01*
X68340256Y-70478105D01*
X68509774Y-70364837D01*
X68590001Y-70284610D01*
X68590001Y-70973168D01*
X68586324Y-71010500D01*
X68590001Y-71047833D01*
X68600998Y-71159486D01*
X68614180Y-71202942D01*
X68644454Y-71302746D01*
X68715026Y-71434776D01*
X68786201Y-71521502D01*
X68810000Y-71550501D01*
X68838998Y-71574299D01*
X71769700Y-74505002D01*
X71769701Y-85040488D01*
X71725763Y-85084426D01*
X71612495Y-85253944D01*
X71534474Y-85442302D01*
X71494700Y-85642261D01*
X71494700Y-85846139D01*
X71534474Y-86046098D01*
X71612495Y-86234456D01*
X71725763Y-86403974D01*
X71869926Y-86548137D01*
X72039444Y-86661405D01*
X72227802Y-86739426D01*
X72427761Y-86779200D01*
X72631639Y-86779200D01*
X72831598Y-86739426D01*
X73019956Y-86661405D01*
X73189474Y-86548137D01*
X73333637Y-86403974D01*
X73446905Y-86234456D01*
X73524926Y-86046098D01*
X73564700Y-85846139D01*
X73564700Y-85642261D01*
X73524926Y-85442302D01*
X73446905Y-85253944D01*
X73333637Y-85084426D01*
X73289700Y-85040489D01*
X73289700Y-74227523D01*
X73293376Y-74190200D01*
X73289700Y-74152877D01*
X73289700Y-74152867D01*
X73278703Y-74041214D01*
X73235246Y-73897953D01*
X73164674Y-73765924D01*
X73069701Y-73650199D01*
X73040704Y-73626402D01*
X71569256Y-72154955D01*
X71653937Y-72070274D01*
X71767205Y-71900756D01*
X71845226Y-71712398D01*
X71885000Y-71512439D01*
X71885000Y-71308561D01*
X71845226Y-71108602D01*
X71767205Y-70920244D01*
X71653937Y-70750726D01*
X71610000Y-70706789D01*
X71610000Y-70221011D01*
X71670626Y-70281637D01*
X71840144Y-70394905D01*
X72028502Y-70472926D01*
X72228461Y-70512700D01*
X72432339Y-70512700D01*
X72632298Y-70472926D01*
X72820656Y-70394905D01*
X72990174Y-70281637D01*
X73134337Y-70137474D01*
X73247605Y-69967956D01*
X73325626Y-69779598D01*
X73365400Y-69579639D01*
X73365400Y-69375761D01*
X73325626Y-69175802D01*
X73247605Y-68987444D01*
X73134337Y-68817926D01*
X73110000Y-68793589D01*
X73110000Y-68444762D01*
X73114180Y-68458542D01*
X73144454Y-68558346D01*
X73215026Y-68690376D01*
X73270834Y-68758377D01*
X73310000Y-68806101D01*
X73338998Y-68829899D01*
X95860508Y-91351410D01*
X95815000Y-91346928D01*
X95348606Y-91346928D01*
X94887734Y-90886056D01*
X94860017Y-90852283D01*
X94725259Y-90741689D01*
X94571513Y-90659511D01*
X94404690Y-90608905D01*
X94274677Y-90596100D01*
X94274669Y-90596100D01*
X94231200Y-90591819D01*
X94187731Y-90596100D01*
X93146769Y-90596100D01*
X93103300Y-90591819D01*
X93059831Y-90596100D01*
X93059823Y-90596100D01*
X92929810Y-90608905D01*
X92762987Y-90659511D01*
X92634152Y-90728374D01*
X92609241Y-90741689D01*
X92508253Y-90824568D01*
X92508251Y-90824570D01*
X92474483Y-90852283D01*
X92446770Y-90886051D01*
X89105091Y-94227731D01*
X89091490Y-94223605D01*
X88961477Y-94210800D01*
X88961469Y-94210800D01*
X88918000Y-94206519D01*
X88874531Y-94210800D01*
X82060264Y-94210800D01*
X82063200Y-94196039D01*
X82063200Y-93992161D01*
X82023426Y-93792202D01*
X81945405Y-93603844D01*
X81832137Y-93434326D01*
X81687974Y-93290163D01*
X81518456Y-93176895D01*
X81330098Y-93098874D01*
X81130139Y-93059100D01*
X80926261Y-93059100D01*
X80726302Y-93098874D01*
X80537944Y-93176895D01*
X80368426Y-93290163D01*
X80224263Y-93434326D01*
X80110995Y-93603844D01*
X80032974Y-93792202D01*
X79993200Y-93992161D01*
X79993200Y-94196039D01*
X80032974Y-94395998D01*
X80110995Y-94584356D01*
X80197131Y-94713268D01*
X79689498Y-95220901D01*
X79660500Y-95244699D01*
X79636702Y-95273697D01*
X79636701Y-95273698D01*
X79565526Y-95360424D01*
X79494954Y-95492454D01*
X79492197Y-95501544D01*
X79434982Y-95484188D01*
X79310500Y-95471928D01*
X79138323Y-95471928D01*
X79233256Y-95432605D01*
X79402774Y-95319337D01*
X79546937Y-95175174D01*
X79660205Y-95005656D01*
X79738226Y-94817298D01*
X79778000Y-94617339D01*
X79778000Y-94413461D01*
X79738226Y-94213502D01*
X79660205Y-94025144D01*
X79546937Y-93855626D01*
X79402774Y-93711463D01*
X79233256Y-93598195D01*
X79044898Y-93520174D01*
X78844939Y-93480400D01*
X78641061Y-93480400D01*
X78441102Y-93520174D01*
X78252744Y-93598195D01*
X78083226Y-93711463D01*
X78039289Y-93755400D01*
X77697122Y-93755400D01*
X77659799Y-93751724D01*
X77622476Y-93755400D01*
X77622467Y-93755400D01*
X77510814Y-93766397D01*
X77367553Y-93809854D01*
X77235524Y-93880426D01*
X77119799Y-93975399D01*
X77096001Y-94004397D01*
X75879498Y-95220901D01*
X75850500Y-95244699D01*
X75826702Y-95273697D01*
X75826701Y-95273698D01*
X75755526Y-95360424D01*
X75684954Y-95492454D01*
X75682197Y-95501544D01*
X75624982Y-95484188D01*
X75500500Y-95471928D01*
X75406250Y-95475000D01*
X75247500Y-95633750D01*
X75247500Y-97133000D01*
X75267500Y-97133000D01*
X75267500Y-97387000D01*
X75247500Y-97387000D01*
X75247500Y-98886250D01*
X75406250Y-99045000D01*
X75500500Y-99048072D01*
X75624982Y-99035812D01*
X75744680Y-98999502D01*
X75755500Y-98993718D01*
X75766320Y-98999502D01*
X75886018Y-99035812D01*
X76010500Y-99048072D01*
X76770500Y-99048072D01*
X76894982Y-99035812D01*
X77014680Y-98999502D01*
X77025500Y-98993718D01*
X77036320Y-98999502D01*
X77156018Y-99035812D01*
X77280500Y-99048072D01*
X78040500Y-99048072D01*
X78164982Y-99035812D01*
X78170501Y-99034138D01*
X78170500Y-105363298D01*
X77851205Y-105682594D01*
X77777674Y-105609063D01*
X77608156Y-105495795D01*
X77419798Y-105417774D01*
X77219839Y-105378000D01*
X77015961Y-105378000D01*
X76816002Y-105417774D01*
X76627644Y-105495795D01*
X76458126Y-105609063D01*
X76313963Y-105753226D01*
X76200695Y-105922744D01*
X76122674Y-106111102D01*
X76106181Y-106194017D01*
X72069503Y-110230696D01*
X72040499Y-110254499D01*
X72000358Y-110303412D01*
X71945526Y-110370224D01*
X71900425Y-110454602D01*
X71874954Y-110502254D01*
X71831497Y-110645515D01*
X71820500Y-110757168D01*
X71820500Y-110757178D01*
X71816824Y-110794500D01*
X71820500Y-110831823D01*
X71820500Y-111785862D01*
X71814982Y-111784188D01*
X71690500Y-111771928D01*
X70994062Y-111771928D01*
X71007826Y-111738698D01*
X71047600Y-111538739D01*
X71047600Y-111334861D01*
X71007826Y-111134902D01*
X70929805Y-110946544D01*
X70915824Y-110925619D01*
X70925756Y-110921505D01*
X71095274Y-110808237D01*
X71239437Y-110664074D01*
X71352705Y-110494556D01*
X71430726Y-110306198D01*
X71470500Y-110106239D01*
X71470500Y-109902361D01*
X71430726Y-109702402D01*
X71352705Y-109514044D01*
X71239437Y-109344526D01*
X71095274Y-109200363D01*
X70925756Y-109087095D01*
X70924165Y-109086436D01*
X70950702Y-109059900D01*
X71012839Y-109059900D01*
X71212798Y-109020126D01*
X71401156Y-108942105D01*
X71570674Y-108828837D01*
X71714837Y-108684674D01*
X71828105Y-108515156D01*
X71906126Y-108326798D01*
X71945900Y-108126839D01*
X71945900Y-107922961D01*
X71906126Y-107723002D01*
X71828105Y-107534644D01*
X71714837Y-107365126D01*
X71570674Y-107220963D01*
X71401156Y-107107695D01*
X71212798Y-107029674D01*
X71012839Y-106989900D01*
X70808961Y-106989900D01*
X70609002Y-107029674D01*
X70420644Y-107107695D01*
X70259729Y-107215215D01*
X70279604Y-107190997D01*
X71283902Y-106186700D01*
X73365078Y-106186700D01*
X73402400Y-106190376D01*
X73439722Y-106186700D01*
X73439733Y-106186700D01*
X73551386Y-106175703D01*
X73694647Y-106132246D01*
X73826676Y-106061674D01*
X73942401Y-105966701D01*
X73966204Y-105937698D01*
X74385801Y-105518100D01*
X74447939Y-105518100D01*
X74647898Y-105478326D01*
X74836256Y-105400305D01*
X75005774Y-105287037D01*
X75149937Y-105142874D01*
X75263205Y-104973356D01*
X75341226Y-104784998D01*
X75381000Y-104585039D01*
X75381000Y-104381161D01*
X75341226Y-104181202D01*
X75263205Y-103992844D01*
X75149937Y-103823326D01*
X75005774Y-103679163D01*
X74836256Y-103565895D01*
X74647898Y-103487874D01*
X74447939Y-103448100D01*
X74244061Y-103448100D01*
X74044102Y-103487874D01*
X73855744Y-103565895D01*
X73686226Y-103679163D01*
X73572600Y-103792789D01*
X73557574Y-103777763D01*
X73388056Y-103664495D01*
X73199698Y-103586474D01*
X72999739Y-103546700D01*
X72795861Y-103546700D01*
X72595902Y-103586474D01*
X72407544Y-103664495D01*
X72238026Y-103777763D01*
X72194089Y-103821700D01*
X70581422Y-103821700D01*
X70544099Y-103818024D01*
X70506776Y-103821700D01*
X70506767Y-103821700D01*
X70395114Y-103832697D01*
X70256317Y-103874800D01*
X70251853Y-103876154D01*
X70119823Y-103946726D01*
X70065504Y-103991305D01*
X70028572Y-104021615D01*
X70028572Y-103760000D01*
X70016312Y-103635518D01*
X69980002Y-103515820D01*
X69974218Y-103505000D01*
X69980002Y-103494180D01*
X70016312Y-103374482D01*
X70028572Y-103250000D01*
X70028572Y-102490000D01*
X70016312Y-102365518D01*
X69980002Y-102245820D01*
X69974218Y-102235000D01*
X69980002Y-102224180D01*
X70016312Y-102104482D01*
X70028572Y-101980000D01*
X70028572Y-101717574D01*
X70368801Y-102057803D01*
X70392599Y-102086801D01*
X70421597Y-102110599D01*
X70508323Y-102181774D01*
X70628144Y-102245820D01*
X70640353Y-102252346D01*
X70783614Y-102295803D01*
X70895267Y-102306800D01*
X70895276Y-102306800D01*
X70932599Y-102310476D01*
X70969922Y-102306800D01*
X74040189Y-102306800D01*
X74084126Y-102350737D01*
X74253644Y-102464005D01*
X74442002Y-102542026D01*
X74641961Y-102581800D01*
X74845839Y-102581800D01*
X75045798Y-102542026D01*
X75234156Y-102464005D01*
X75403674Y-102350737D01*
X75547837Y-102206574D01*
X75661105Y-102037056D01*
X75739126Y-101848698D01*
X75778900Y-101648739D01*
X75778900Y-101444861D01*
X75739126Y-101244902D01*
X75661105Y-101056544D01*
X75547837Y-100887026D01*
X75480347Y-100819536D01*
X75514400Y-100648339D01*
X75514400Y-100444461D01*
X75474626Y-100244502D01*
X75396605Y-100056144D01*
X75283337Y-99886626D01*
X75139174Y-99742463D01*
X74969656Y-99629195D01*
X74781298Y-99551174D01*
X74581339Y-99511400D01*
X74377461Y-99511400D01*
X74177502Y-99551174D01*
X73989144Y-99629195D01*
X73819626Y-99742463D01*
X73675463Y-99886626D01*
X73588951Y-100016100D01*
X73551100Y-100016100D01*
X73551100Y-99936761D01*
X73511326Y-99736802D01*
X73433305Y-99548444D01*
X73320037Y-99378926D01*
X73175874Y-99234763D01*
X73006356Y-99121495D01*
X72829098Y-99048072D01*
X72960500Y-99048072D01*
X73084982Y-99035812D01*
X73204680Y-98999502D01*
X73215500Y-98993718D01*
X73226320Y-98999502D01*
X73346018Y-99035812D01*
X73470500Y-99048072D01*
X74230500Y-99048072D01*
X74354982Y-99035812D01*
X74474680Y-98999502D01*
X74485500Y-98993718D01*
X74496320Y-98999502D01*
X74616018Y-99035812D01*
X74740500Y-99048072D01*
X74834750Y-99045000D01*
X74993500Y-98886250D01*
X74993500Y-97387000D01*
X74973500Y-97387000D01*
X74973500Y-97133000D01*
X74993500Y-97133000D01*
X74993500Y-95665658D01*
X75023546Y-95609447D01*
X75067003Y-95466186D01*
X75078000Y-95354533D01*
X75078000Y-95354523D01*
X75081676Y-95317200D01*
X75078000Y-95279877D01*
X75078000Y-94658111D01*
X75121937Y-94614174D01*
X75235205Y-94444656D01*
X75313226Y-94256298D01*
X75353000Y-94056339D01*
X75353000Y-93852461D01*
X75313226Y-93652502D01*
X75235205Y-93464144D01*
X75143696Y-93327191D01*
X75225905Y-93204156D01*
X75303926Y-93015798D01*
X75343700Y-92815839D01*
X75343700Y-92611961D01*
X75303926Y-92412002D01*
X75225905Y-92223644D01*
X75112637Y-92054126D01*
X74968474Y-91909963D01*
X74798956Y-91796695D01*
X74610598Y-91718674D01*
X74410639Y-91678900D01*
X74206761Y-91678900D01*
X74006802Y-91718674D01*
X73818444Y-91796695D01*
X73648926Y-91909963D01*
X73604989Y-91953900D01*
X73148622Y-91953900D01*
X73111299Y-91950224D01*
X73073977Y-91953900D01*
X73073967Y-91953900D01*
X72962314Y-91964897D01*
X72819053Y-92008354D01*
X72687023Y-92078926D01*
X72642731Y-92115276D01*
X72571299Y-92173899D01*
X72547501Y-92202897D01*
X69529498Y-95220901D01*
X69500500Y-95244699D01*
X69476702Y-95273697D01*
X69476701Y-95273698D01*
X69405526Y-95360424D01*
X69334954Y-95492454D01*
X69309056Y-95577833D01*
X69306006Y-95579463D01*
X69209315Y-95658815D01*
X69129963Y-95755506D01*
X69070998Y-95865820D01*
X69034688Y-95985518D01*
X69022428Y-96110000D01*
X69022428Y-98041928D01*
X67090500Y-98041928D01*
X66966018Y-98054188D01*
X66846320Y-98090498D01*
X66736006Y-98149463D01*
X66639315Y-98228815D01*
X66630000Y-98240165D01*
X66630000Y-84185685D01*
X66667104Y-84130155D01*
X66745125Y-83941797D01*
X66784899Y-83741838D01*
X66784899Y-83537960D01*
X66745125Y-83338001D01*
X66667104Y-83149643D01*
X66553836Y-82980125D01*
X66409673Y-82835962D01*
X66240155Y-82722694D01*
X66051797Y-82644673D01*
X66008033Y-82635968D01*
X68164804Y-80479198D01*
X68193801Y-80455401D01*
X68242670Y-80395854D01*
X68288774Y-80339677D01*
X68359346Y-80207647D01*
X68359346Y-80207646D01*
X68402803Y-80064386D01*
X68413800Y-79952733D01*
X68413800Y-79952724D01*
X68417476Y-79915401D01*
X68413800Y-79878078D01*
X68413800Y-77872500D01*
X68664970Y-77872500D01*
X68772038Y-78002962D01*
X68906613Y-78113405D01*
X69060148Y-78195472D01*
X69226744Y-78246008D01*
X69399998Y-78263072D01*
X70300002Y-78263072D01*
X70473256Y-78246008D01*
X70639852Y-78195472D01*
X70793387Y-78113405D01*
X70927962Y-78002962D01*
X71038405Y-77868387D01*
X71120472Y-77714852D01*
X71171008Y-77548256D01*
X71188072Y-77375002D01*
X71188072Y-76849998D01*
X71171008Y-76676744D01*
X71120472Y-76510148D01*
X71038405Y-76356613D01*
X70971724Y-76275363D01*
X71001185Y-76251185D01*
X71080537Y-76154494D01*
X71139502Y-76044180D01*
X71175812Y-75924482D01*
X71188072Y-75800000D01*
X71185000Y-75573250D01*
X71026250Y-75414500D01*
X69977000Y-75414500D01*
X69977000Y-75434500D01*
X69723000Y-75434500D01*
X69723000Y-75414500D01*
X68673750Y-75414500D01*
X68515000Y-75573250D01*
X68511928Y-75800000D01*
X68524188Y-75924482D01*
X68560498Y-76044180D01*
X68619463Y-76154494D01*
X68698815Y-76251185D01*
X68728276Y-76275363D01*
X68664970Y-76352500D01*
X67968602Y-76352500D01*
X67305103Y-75689002D01*
X67281301Y-75659999D01*
X67165576Y-75565026D01*
X67033547Y-75494454D01*
X66890286Y-75450997D01*
X66778633Y-75440000D01*
X66778622Y-75440000D01*
X66741300Y-75436324D01*
X66703978Y-75440000D01*
X66440901Y-75440000D01*
X66418932Y-75398899D01*
X66255700Y-75200000D01*
X66418932Y-75001101D01*
X66539785Y-74775000D01*
X68511928Y-74775000D01*
X68515000Y-75001750D01*
X68673750Y-75160500D01*
X69723000Y-75160500D01*
X69723000Y-74298750D01*
X69977000Y-74298750D01*
X69977000Y-75160500D01*
X71026250Y-75160500D01*
X71185000Y-75001750D01*
X71188072Y-74775000D01*
X71175812Y-74650518D01*
X71139502Y-74530820D01*
X71080537Y-74420506D01*
X71001185Y-74323815D01*
X70904494Y-74244463D01*
X70794180Y-74185498D01*
X70674482Y-74149188D01*
X70550000Y-74136928D01*
X70135750Y-74140000D01*
X69977000Y-74298750D01*
X69723000Y-74298750D01*
X69564250Y-74140000D01*
X69150000Y-74136928D01*
X69025518Y-74149188D01*
X68905820Y-74185498D01*
X68795506Y-74244463D01*
X68698815Y-74323815D01*
X68619463Y-74420506D01*
X68560498Y-74530820D01*
X68524188Y-74650518D01*
X68511928Y-74775000D01*
X66539785Y-74775000D01*
X66552182Y-74751808D01*
X66634236Y-74481309D01*
X66661943Y-74200000D01*
X66634236Y-73918691D01*
X66552182Y-73648192D01*
X66418932Y-73398899D01*
X66332282Y-73293315D01*
X66431714Y-73211714D01*
X66636031Y-72962752D01*
X66787852Y-72678715D01*
X66881343Y-72370516D01*
X66912911Y-72050000D01*
X66881343Y-71729484D01*
X66787852Y-71421285D01*
X66636031Y-71137248D01*
X66431714Y-70888286D01*
X66182752Y-70683969D01*
X65898715Y-70532148D01*
X65590516Y-70438657D01*
X65350322Y-70415000D01*
X64189678Y-70415000D01*
X63949484Y-70438657D01*
X63641285Y-70532148D01*
X63357248Y-70683969D01*
X63108286Y-70888286D01*
X62903969Y-71137248D01*
X62752148Y-71421285D01*
X62658657Y-71729484D01*
X62627089Y-72050000D01*
X62658657Y-72370516D01*
X62752148Y-72678715D01*
X62903969Y-72962752D01*
X63108286Y-73211714D01*
X63207718Y-73293315D01*
X63121068Y-73398899D01*
X62987818Y-73648192D01*
X62905764Y-73918691D01*
X62878057Y-74200000D01*
X62905764Y-74481309D01*
X62987818Y-74751808D01*
X63121068Y-75001101D01*
X63284300Y-75200000D01*
X63121068Y-75398899D01*
X62987818Y-75648192D01*
X62905764Y-75918691D01*
X62878057Y-76200000D01*
X62905764Y-76481309D01*
X62987818Y-76751808D01*
X63085710Y-76934950D01*
X63068815Y-76948815D01*
X62989463Y-77045506D01*
X62930498Y-77155820D01*
X62894188Y-77275518D01*
X62881928Y-77400000D01*
X62881928Y-79000000D01*
X62894188Y-79124482D01*
X62930498Y-79244180D01*
X62982529Y-79341522D01*
X62903969Y-79437248D01*
X62752148Y-79721285D01*
X62658657Y-80029484D01*
X62627089Y-80350000D01*
X62658657Y-80670516D01*
X62752148Y-80978715D01*
X62903969Y-81262752D01*
X63108286Y-81511714D01*
X63357248Y-81716031D01*
X63641285Y-81867852D01*
X63949484Y-81961343D01*
X64189678Y-81985000D01*
X64509399Y-81985000D01*
X64058198Y-82436201D01*
X64029200Y-82459999D01*
X64005402Y-82488997D01*
X64005401Y-82488998D01*
X63934226Y-82575724D01*
X63863654Y-82707754D01*
X63845405Y-82767915D01*
X63820198Y-82851014D01*
X63810824Y-82946185D01*
X63805524Y-83000000D01*
X63809201Y-83037333D01*
X63809201Y-85909700D01*
X63675161Y-85909700D01*
X63475202Y-85949474D01*
X63286844Y-86027495D01*
X63117326Y-86140763D01*
X62973163Y-86284926D01*
X62859895Y-86454444D01*
X62781874Y-86642802D01*
X62742100Y-86842761D01*
X62742100Y-87046639D01*
X62781874Y-87246598D01*
X62859895Y-87434956D01*
X62973163Y-87604474D01*
X63017101Y-87648412D01*
X63017101Y-90915000D01*
X62535000Y-90915000D01*
X62535000Y-66340000D01*
X65211928Y-66340000D01*
X65224188Y-66464482D01*
X65260498Y-66584180D01*
X65319463Y-66694494D01*
X65398815Y-66791185D01*
X65495506Y-66870537D01*
X65605820Y-66929502D01*
X65725518Y-66965812D01*
X65850000Y-66978072D01*
X66064250Y-66975000D01*
X66223000Y-66816250D01*
X66223000Y-63967000D01*
X65373750Y-63967000D01*
X65215000Y-64125750D01*
X65211928Y-66340000D01*
X62535000Y-66340000D01*
X62535000Y-61340000D01*
X65211928Y-61340000D01*
X65215000Y-63554250D01*
X65373750Y-63713000D01*
X66223000Y-63713000D01*
X66223000Y-60863750D01*
X66064250Y-60705000D01*
X65850000Y-60701928D01*
X65725518Y-60714188D01*
X65605820Y-60750498D01*
X65495506Y-60809463D01*
X65398815Y-60888815D01*
X65319463Y-60985506D01*
X65260498Y-61095820D01*
X65224188Y-61215518D01*
X65211928Y-61340000D01*
X62535000Y-61340000D01*
X62535000Y-55169117D01*
X74865000Y-55169117D01*
X74865000Y-55510883D01*
X74931675Y-55846081D01*
X75062463Y-56161831D01*
X75252337Y-56445998D01*
X75494002Y-56687663D01*
X75778169Y-56877537D01*
X76093919Y-57008325D01*
X76429117Y-57075000D01*
X76770883Y-57075000D01*
X77106081Y-57008325D01*
X77421831Y-56877537D01*
X77705998Y-56687663D01*
X77947663Y-56445998D01*
X78137537Y-56161831D01*
X78268325Y-55846081D01*
X78335000Y-55510883D01*
X78335000Y-55169117D01*
X100865000Y-55169117D01*
X100865000Y-55510883D01*
X100931675Y-55846081D01*
X101062463Y-56161831D01*
X101252337Y-56445998D01*
X101494002Y-56687663D01*
X101778169Y-56877537D01*
X102093919Y-57008325D01*
X102429117Y-57075000D01*
X102770883Y-57075000D01*
X103106081Y-57008325D01*
X103421831Y-56877537D01*
X103705998Y-56687663D01*
X103947663Y-56445998D01*
X104137537Y-56161831D01*
X104268325Y-55846081D01*
X104335000Y-55510883D01*
X104335000Y-55169117D01*
X104268325Y-54833919D01*
X104137537Y-54518169D01*
X103947663Y-54234002D01*
X103705998Y-53992337D01*
X103421831Y-53802463D01*
X103106081Y-53671675D01*
X102770883Y-53605000D01*
X102429117Y-53605000D01*
X102093919Y-53671675D01*
X101778169Y-53802463D01*
X101494002Y-53992337D01*
X101252337Y-54234002D01*
X101062463Y-54518169D01*
X100931675Y-54833919D01*
X100865000Y-55169117D01*
X78335000Y-55169117D01*
X78268325Y-54833919D01*
X78137537Y-54518169D01*
X77947663Y-54234002D01*
X77705998Y-53992337D01*
X77421831Y-53802463D01*
X77106081Y-53671675D01*
X76770883Y-53605000D01*
X76429117Y-53605000D01*
X76093919Y-53671675D01*
X75778169Y-53802463D01*
X75494002Y-53992337D01*
X75252337Y-54234002D01*
X75062463Y-54518169D01*
X74931675Y-54833919D01*
X74865000Y-55169117D01*
X62535000Y-55169117D01*
X62535000Y-40685000D01*
X73233446Y-40685000D01*
X73224188Y-40715518D01*
G37*
%TD.AperFunction*%
D25*
X69895784Y-107822998D02*
X69866752Y-107822998D01*
X69902992Y-107786758D01*
X69895784Y-107822998D01*
%TA.AperFunction,Conductor*%
D26*
G36*
X69895784Y-107822998D02*
G01*
X69866752Y-107822998D01*
X69902992Y-107786758D01*
X69895784Y-107822998D01*
G37*
%TD.AperFunction*%
D25*
X84667500Y-105283000D02*
X84687500Y-105283000D01*
X84687500Y-105537000D01*
X84667500Y-105537000D01*
X84667500Y-105557000D01*
X84413500Y-105557000D01*
X84413500Y-105537000D01*
X84393500Y-105537000D01*
X84393500Y-105283000D01*
X84413500Y-105283000D01*
X84413500Y-105263000D01*
X84667500Y-105263000D01*
X84667500Y-105283000D01*
%TA.AperFunction,Conductor*%
D26*
G36*
X84667500Y-105283000D02*
G01*
X84687500Y-105283000D01*
X84687500Y-105537000D01*
X84667500Y-105537000D01*
X84667500Y-105557000D01*
X84413500Y-105557000D01*
X84413500Y-105537000D01*
X84393500Y-105537000D01*
X84393500Y-105283000D01*
X84413500Y-105283000D01*
X84413500Y-105263000D01*
X84667500Y-105263000D01*
X84667500Y-105283000D01*
G37*
%TD.AperFunction*%
D25*
X82360500Y-99048072D02*
X82752428Y-99048072D01*
X82752428Y-99440000D01*
X82764688Y-99564482D01*
X82800998Y-99684180D01*
X82806782Y-99695000D01*
X82800998Y-99705820D01*
X82764688Y-99825518D01*
X82752428Y-99950000D01*
X82752428Y-100710000D01*
X82764688Y-100834482D01*
X82800998Y-100954180D01*
X82806782Y-100965000D01*
X82800998Y-100975820D01*
X82764688Y-101095518D01*
X82752428Y-101220000D01*
X82752428Y-101980000D01*
X82764688Y-102104482D01*
X82800998Y-102224180D01*
X82806782Y-102235000D01*
X82800998Y-102245820D01*
X82764688Y-102365518D01*
X82752428Y-102490000D01*
X82752428Y-103250000D01*
X82764688Y-103374482D01*
X82800998Y-103494180D01*
X82806782Y-103505000D01*
X82800998Y-103515820D01*
X82764688Y-103635518D01*
X82752428Y-103760000D01*
X82752428Y-104520000D01*
X82764688Y-104644482D01*
X82800998Y-104764180D01*
X82806782Y-104775000D01*
X82800998Y-104785820D01*
X82764688Y-104905518D01*
X82752428Y-105030000D01*
X82755500Y-105124250D01*
X82914248Y-105282998D01*
X82755500Y-105282998D01*
X82755500Y-105392698D01*
X82449400Y-105086599D01*
X82449400Y-105024461D01*
X82409626Y-104824502D01*
X82331605Y-104636144D01*
X82218337Y-104466626D01*
X82074174Y-104322463D01*
X81904656Y-104209195D01*
X81716298Y-104131174D01*
X81516339Y-104091400D01*
X81312461Y-104091400D01*
X81112502Y-104131174D01*
X80924144Y-104209195D01*
X80754626Y-104322463D01*
X80648800Y-104428289D01*
X80648800Y-100983578D01*
X82065549Y-99566830D01*
X82099317Y-99539117D01*
X82129945Y-99501798D01*
X82197515Y-99419463D01*
X82209911Y-99404359D01*
X82292089Y-99250613D01*
X82342695Y-99083790D01*
X82346350Y-99046678D01*
X82360500Y-99048072D01*
%TA.AperFunction,Conductor*%
D26*
G36*
X82360500Y-99048072D02*
G01*
X82752428Y-99048072D01*
X82752428Y-99440000D01*
X82764688Y-99564482D01*
X82800998Y-99684180D01*
X82806782Y-99695000D01*
X82800998Y-99705820D01*
X82764688Y-99825518D01*
X82752428Y-99950000D01*
X82752428Y-100710000D01*
X82764688Y-100834482D01*
X82800998Y-100954180D01*
X82806782Y-100965000D01*
X82800998Y-100975820D01*
X82764688Y-101095518D01*
X82752428Y-101220000D01*
X82752428Y-101980000D01*
X82764688Y-102104482D01*
X82800998Y-102224180D01*
X82806782Y-102235000D01*
X82800998Y-102245820D01*
X82764688Y-102365518D01*
X82752428Y-102490000D01*
X82752428Y-103250000D01*
X82764688Y-103374482D01*
X82800998Y-103494180D01*
X82806782Y-103505000D01*
X82800998Y-103515820D01*
X82764688Y-103635518D01*
X82752428Y-103760000D01*
X82752428Y-104520000D01*
X82764688Y-104644482D01*
X82800998Y-104764180D01*
X82806782Y-104775000D01*
X82800998Y-104785820D01*
X82764688Y-104905518D01*
X82752428Y-105030000D01*
X82755500Y-105124250D01*
X82914248Y-105282998D01*
X82755500Y-105282998D01*
X82755500Y-105392698D01*
X82449400Y-105086599D01*
X82449400Y-105024461D01*
X82409626Y-104824502D01*
X82331605Y-104636144D01*
X82218337Y-104466626D01*
X82074174Y-104322463D01*
X81904656Y-104209195D01*
X81716298Y-104131174D01*
X81516339Y-104091400D01*
X81312461Y-104091400D01*
X81112502Y-104131174D01*
X80924144Y-104209195D01*
X80754626Y-104322463D01*
X80648800Y-104428289D01*
X80648800Y-100983578D01*
X82065549Y-99566830D01*
X82099317Y-99539117D01*
X82129945Y-99501798D01*
X82197515Y-99419463D01*
X82209911Y-99404359D01*
X82292089Y-99250613D01*
X82342695Y-99083790D01*
X82346350Y-99046678D01*
X82360500Y-99048072D01*
G37*
%TD.AperFunction*%
D25*
X93792000Y-92583000D02*
X93812000Y-92583000D01*
X93812000Y-92837000D01*
X93792000Y-92837000D01*
X93792000Y-93911250D01*
X93899101Y-94018351D01*
X93899100Y-100027783D01*
X93799602Y-100047574D01*
X93611244Y-100125595D01*
X93441726Y-100238863D01*
X93297563Y-100383026D01*
X93218300Y-100501652D01*
X93218300Y-95474411D01*
X93262237Y-95430474D01*
X93375505Y-95260956D01*
X93453526Y-95072598D01*
X93493300Y-94872639D01*
X93493300Y-94668761D01*
X93453526Y-94468802D01*
X93375505Y-94280444D01*
X93262237Y-94110926D01*
X93223544Y-94072233D01*
X93379250Y-94070000D01*
X93538000Y-93911250D01*
X93538000Y-92837000D01*
X93518000Y-92837000D01*
X93518000Y-92583000D01*
X93538000Y-92583000D01*
X93538000Y-92563000D01*
X93792000Y-92563000D01*
X93792000Y-92583000D01*
%TA.AperFunction,Conductor*%
D26*
G36*
X93792000Y-92583000D02*
G01*
X93812000Y-92583000D01*
X93812000Y-92837000D01*
X93792000Y-92837000D01*
X93792000Y-93911250D01*
X93899101Y-94018351D01*
X93899100Y-100027783D01*
X93799602Y-100047574D01*
X93611244Y-100125595D01*
X93441726Y-100238863D01*
X93297563Y-100383026D01*
X93218300Y-100501652D01*
X93218300Y-95474411D01*
X93262237Y-95430474D01*
X93375505Y-95260956D01*
X93453526Y-95072598D01*
X93493300Y-94872639D01*
X93493300Y-94668761D01*
X93453526Y-94468802D01*
X93375505Y-94280444D01*
X93262237Y-94110926D01*
X93223544Y-94072233D01*
X93379250Y-94070000D01*
X93538000Y-93911250D01*
X93538000Y-92837000D01*
X93518000Y-92837000D01*
X93518000Y-92583000D01*
X93538000Y-92583000D01*
X93538000Y-92563000D01*
X93792000Y-92563000D01*
X93792000Y-92583000D01*
G37*
%TD.AperFunction*%
D25*
X99478700Y-81241302D02*
X99478700Y-81983077D01*
X99319598Y-81917174D01*
X99119639Y-81877400D01*
X98915761Y-81877400D01*
X98715802Y-81917174D01*
X98550072Y-81985822D01*
X98550072Y-81760000D01*
X98534833Y-81605279D01*
X98489703Y-81456504D01*
X98416415Y-81319393D01*
X98384086Y-81280000D01*
X98416415Y-81240607D01*
X98489703Y-81103496D01*
X98534833Y-80954721D01*
X98550072Y-80800000D01*
X98550072Y-80490000D01*
X98534833Y-80335279D01*
X98518354Y-80280956D01*
X99478700Y-81241302D01*
%TA.AperFunction,Conductor*%
D26*
G36*
X99478700Y-81241302D02*
G01*
X99478700Y-81983077D01*
X99319598Y-81917174D01*
X99119639Y-81877400D01*
X98915761Y-81877400D01*
X98715802Y-81917174D01*
X98550072Y-81985822D01*
X98550072Y-81760000D01*
X98534833Y-81605279D01*
X98489703Y-81456504D01*
X98416415Y-81319393D01*
X98384086Y-81280000D01*
X98416415Y-81240607D01*
X98489703Y-81103496D01*
X98534833Y-80954721D01*
X98550072Y-80800000D01*
X98550072Y-80490000D01*
X98534833Y-80335279D01*
X98518354Y-80280956D01*
X99478700Y-81241302D01*
G37*
%TD.AperFunction*%
D25*
X85139000Y-66939567D02*
X85144454Y-66957546D01*
X85215026Y-67089576D01*
X85286201Y-67176302D01*
X85310000Y-67205301D01*
X85338998Y-67229099D01*
X91171300Y-73061402D01*
X91195099Y-73090401D01*
X91310824Y-73185374D01*
X91442853Y-73255946D01*
X91586114Y-73299403D01*
X91697767Y-73310400D01*
X91697776Y-73310400D01*
X91735099Y-73314076D01*
X91772422Y-73310400D01*
X97476800Y-73310400D01*
X97476800Y-73441839D01*
X97516574Y-73641798D01*
X97561025Y-73749112D01*
X97537297Y-73793504D01*
X97492167Y-73942279D01*
X97476928Y-74097000D01*
X97476928Y-75886928D01*
X95667000Y-75886928D01*
X95512279Y-75902167D01*
X95363504Y-75947297D01*
X95226393Y-76020585D01*
X95106213Y-76119213D01*
X95010328Y-76236050D01*
X94938499Y-76294999D01*
X94914701Y-76323997D01*
X94854098Y-76384600D01*
X94791961Y-76384600D01*
X94592002Y-76424374D01*
X94403644Y-76502395D01*
X94234126Y-76615663D01*
X94089963Y-76759826D01*
X93976695Y-76929344D01*
X93898674Y-77117702D01*
X93858900Y-77317661D01*
X93858900Y-77521539D01*
X93898674Y-77721498D01*
X93976695Y-77909856D01*
X94089963Y-78079374D01*
X94234126Y-78223537D01*
X94403644Y-78336805D01*
X94592002Y-78414826D01*
X94791961Y-78454600D01*
X94901264Y-78454600D01*
X94934297Y-78563496D01*
X95000486Y-78687326D01*
X94981463Y-78710506D01*
X94922498Y-78820820D01*
X94886188Y-78940518D01*
X94873928Y-79065000D01*
X94877000Y-79089250D01*
X95035750Y-79248000D01*
X96585000Y-79248000D01*
X96585000Y-79228000D01*
X96839000Y-79228000D01*
X96839000Y-79248000D01*
X96859000Y-79248000D01*
X96859000Y-79502000D01*
X96839000Y-79502000D01*
X96839000Y-79522000D01*
X96585000Y-79522000D01*
X96585000Y-79502000D01*
X95035750Y-79502000D01*
X94917512Y-79620238D01*
X94866039Y-79610000D01*
X94662161Y-79610000D01*
X94462202Y-79649774D01*
X94273844Y-79727795D01*
X94104326Y-79841063D01*
X93960163Y-79985226D01*
X93846895Y-80154744D01*
X93768874Y-80343102D01*
X93729251Y-80542300D01*
X93708561Y-80542300D01*
X93508602Y-80582074D01*
X93320244Y-80660095D01*
X93150726Y-80773363D01*
X93068145Y-80855944D01*
X91691700Y-79479499D01*
X91691700Y-75995811D01*
X91735637Y-75951874D01*
X91848905Y-75782356D01*
X91926926Y-75593998D01*
X91966700Y-75394039D01*
X91966700Y-75190161D01*
X91926926Y-74990202D01*
X91848905Y-74801844D01*
X91735637Y-74632326D01*
X91591474Y-74488163D01*
X91421956Y-74374895D01*
X91233598Y-74296874D01*
X91033639Y-74257100D01*
X90829761Y-74257100D01*
X90629802Y-74296874D01*
X90441444Y-74374895D01*
X90271926Y-74488163D01*
X90127763Y-74632326D01*
X90014495Y-74801844D01*
X89936474Y-74990202D01*
X89896700Y-75190161D01*
X89896700Y-75394039D01*
X89936474Y-75593998D01*
X90014495Y-75782356D01*
X90127763Y-75951874D01*
X90171701Y-75995812D01*
X90171700Y-78752999D01*
X85110000Y-73691299D01*
X85110000Y-66930770D01*
X85139000Y-66939567D01*
%TA.AperFunction,Conductor*%
D26*
G36*
X85139000Y-66939567D02*
G01*
X85144454Y-66957546D01*
X85215026Y-67089576D01*
X85286201Y-67176302D01*
X85310000Y-67205301D01*
X85338998Y-67229099D01*
X91171300Y-73061402D01*
X91195099Y-73090401D01*
X91310824Y-73185374D01*
X91442853Y-73255946D01*
X91586114Y-73299403D01*
X91697767Y-73310400D01*
X91697776Y-73310400D01*
X91735099Y-73314076D01*
X91772422Y-73310400D01*
X97476800Y-73310400D01*
X97476800Y-73441839D01*
X97516574Y-73641798D01*
X97561025Y-73749112D01*
X97537297Y-73793504D01*
X97492167Y-73942279D01*
X97476928Y-74097000D01*
X97476928Y-75886928D01*
X95667000Y-75886928D01*
X95512279Y-75902167D01*
X95363504Y-75947297D01*
X95226393Y-76020585D01*
X95106213Y-76119213D01*
X95010328Y-76236050D01*
X94938499Y-76294999D01*
X94914701Y-76323997D01*
X94854098Y-76384600D01*
X94791961Y-76384600D01*
X94592002Y-76424374D01*
X94403644Y-76502395D01*
X94234126Y-76615663D01*
X94089963Y-76759826D01*
X93976695Y-76929344D01*
X93898674Y-77117702D01*
X93858900Y-77317661D01*
X93858900Y-77521539D01*
X93898674Y-77721498D01*
X93976695Y-77909856D01*
X94089963Y-78079374D01*
X94234126Y-78223537D01*
X94403644Y-78336805D01*
X94592002Y-78414826D01*
X94791961Y-78454600D01*
X94901264Y-78454600D01*
X94934297Y-78563496D01*
X95000486Y-78687326D01*
X94981463Y-78710506D01*
X94922498Y-78820820D01*
X94886188Y-78940518D01*
X94873928Y-79065000D01*
X94877000Y-79089250D01*
X95035750Y-79248000D01*
X96585000Y-79248000D01*
X96585000Y-79228000D01*
X96839000Y-79228000D01*
X96839000Y-79248000D01*
X96859000Y-79248000D01*
X96859000Y-79502000D01*
X96839000Y-79502000D01*
X96839000Y-79522000D01*
X96585000Y-79522000D01*
X96585000Y-79502000D01*
X95035750Y-79502000D01*
X94917512Y-79620238D01*
X94866039Y-79610000D01*
X94662161Y-79610000D01*
X94462202Y-79649774D01*
X94273844Y-79727795D01*
X94104326Y-79841063D01*
X93960163Y-79985226D01*
X93846895Y-80154744D01*
X93768874Y-80343102D01*
X93729251Y-80542300D01*
X93708561Y-80542300D01*
X93508602Y-80582074D01*
X93320244Y-80660095D01*
X93150726Y-80773363D01*
X93068145Y-80855944D01*
X91691700Y-79479499D01*
X91691700Y-75995811D01*
X91735637Y-75951874D01*
X91848905Y-75782356D01*
X91926926Y-75593998D01*
X91966700Y-75394039D01*
X91966700Y-75190161D01*
X91926926Y-74990202D01*
X91848905Y-74801844D01*
X91735637Y-74632326D01*
X91591474Y-74488163D01*
X91421956Y-74374895D01*
X91233598Y-74296874D01*
X91033639Y-74257100D01*
X90829761Y-74257100D01*
X90629802Y-74296874D01*
X90441444Y-74374895D01*
X90271926Y-74488163D01*
X90127763Y-74632326D01*
X90014495Y-74801844D01*
X89936474Y-74990202D01*
X89896700Y-75190161D01*
X89896700Y-75394039D01*
X89936474Y-75593998D01*
X90014495Y-75782356D01*
X90127763Y-75951874D01*
X90171701Y-75995812D01*
X90171700Y-78752999D01*
X85110000Y-73691299D01*
X85110000Y-66930770D01*
X85139000Y-66939567D01*
G37*
%TD.AperFunction*%
%TD*%
M02*
