M48
; DRILL file {KiCad (5.1.10-1-10_14)} date Friday, March 17, 2023 at 10:16:40 PM
; FORMAT={-:-/ absolute / metric / decimal}
; #@! TF.CreationDate,2023-03-17T22:16:40+08:00
; #@! TF.GenerationSoftware,Kicad,Pcbnew,(5.1.10-1-10_14)
FMAT,2
METRIC
T1C0.400
T2C1.000
T3C2.200
%
G90
G05
T1
X63.777Y-86.945
X65.75Y-83.64
X67.85Y-69.561
X67.85Y-141.801
X69.35Y-139.687
X70.013Y-111.437
X70.435Y-110.004
X70.675Y-115.729
X70.85Y-71.41
X70.85Y-139.541
X70.911Y-108.025
X72.33Y-69.478
X72.516Y-100.039
X72.53Y-85.744
X72.898Y-104.582
X73.46Y-119.235
X73.509Y-94.92
X74.309Y-92.714
X74.318Y-93.954
X74.346Y-104.483
X74.479Y-100.546
X74.744Y-101.547
X75.037Y-120.488
X75.514Y-119.188
X76.128Y-108.332
X76.272Y-100.083
X77.118Y-106.413
X77.999Y-95.496
X78.332Y-139.028
X78.557Y-109.797
X78.743Y-94.515
X78.93Y-111.794
X79.08Y-138.28
X79.718Y-137.145
X80.472Y-135.471
X80.848Y-132.888
X81.028Y-94.094
X81.414Y-105.126
X81.618Y-131.881
X81.627Y-134.564
X82.162Y-100.083
X82.299Y-131.148
X84.674Y-135.051
X84.707Y-98.01
X85.619Y-119.061
X86.016Y-97.791
X86.99Y-96.026
X87.209Y-104.542
X88.042Y-96.007
X88.385Y-104.304
X90.932Y-75.292
X90.94Y-69.21
X92.458Y-94.771
X93.58Y-96.71
X93.81Y-81.577
X94.102Y-101.043
X94.145Y-122.061
X94.764Y-80.645
X94.778Y-126.974
X94.894Y-77.42
X94.91Y-82.668
X95.216Y-70.85
X95.451Y-68.488
X95.625Y-69.938
X95.684Y-99.165
X96.216Y-70.846
X96.347Y-99.917
X96.546Y-113.31
X97.501Y-115.647
X97.576Y-97.491
X97.655Y-88.438
X97.713Y-123.444
X97.831Y-94.007
X97.831Y-95.007
X97.85Y-69.97
X98.44Y-99.097
X98.512Y-73.34
X98.534Y-84.044
X98.566Y-80.532
X98.731Y-77.643
X99.018Y-82.912
X99.35Y-70.044
X99.59Y-98.335
X99.937Y-112.226
X100.144Y-99.797
X100.239Y-84.135
X100.945Y-105.451
X100.955Y-100.463
X100.964Y-83.437
X101.358Y-88.466
X101.367Y-71.955
X102.235Y-111.827
X102.295Y-82.316
X102.569Y-83.316
X102.714Y-89.162
X102.801Y-72.656
X102.863Y-84.345
X102.924Y-68.568
X103.505Y-88.37
X103.505Y-112.234
X103.573Y-77.476
X104.159Y-68.569
X104.478Y-89.082
X104.712Y-90.511
X104.775Y-112.261
X105.232Y-78.506
X105.287Y-91.352
X105.335Y-83.722
X105.437Y-73.477
X105.988Y-112.081
X106.926Y-88.194
X107.006Y-112.255
X107.236Y-84.345
X107.63Y-69.603
X108.116Y-109.944
X108.128Y-104.91
X108.28Y-112.267
X108.487Y-81.101
X108.491Y-79.213
X108.508Y-100.059
X109.35Y-70.25
X109.508Y-75.241
X109.689Y-113.385
X110.178Y-89.126
X110.26Y-73.316
X111.19Y-75.789
X112.106Y-107.307
X112.107Y-111.111
X112.785Y-81.607
X113.0Y-145.804
X113.034Y-99.2
X113.735Y-87.994
T2
X64.77Y-74.2
X64.77Y-76.2
X64.77Y-78.2
X66.675Y-127.0
X66.675Y-129.54
X66.675Y-132.08
X66.675Y-134.62
X66.675Y-137.16
X69.215Y-127.0
X69.215Y-129.54
X69.215Y-132.08
X69.215Y-134.62
X69.215Y-137.16
T3
X76.6Y-55.34
X102.6Y-55.34
T2
G00X64.37Y-72.05
M15
G01X65.17Y-72.05
M16
G05
G00X64.37Y-80.35
M15
G01X65.17Y-80.35
M16
G05
T0
M30
