%TF.GenerationSoftware,KiCad,Pcbnew,(5.1.10-1-10_14)*%
%TF.CreationDate,2023-03-17T22:16:36+08:00*%
%TF.ProjectId,GB_MemoryBackup_Mainboard,47425f4d-656d-46f7-9279-4261636b7570,1.2*%
%TF.SameCoordinates,Original*%
%TF.FileFunction,Legend,Top*%
%TF.FilePolarity,Positive*%
%FSLAX46Y46*%
G04 Gerber Fmt 4.6, Leading zero omitted, Abs format (unit mm)*
G04 Created by KiCad (PCBNEW (5.1.10-1-10_14)) date 2023-03-17 22:16:36*
%MOMM*%
%LPD*%
G01*
G04 APERTURE LIST*
%ADD10C,0.150000*%
%ADD11C,0.100000*%
%ADD12C,0.120000*%
%ADD13C,0.010000*%
%ADD14C,0.040000*%
G04 APERTURE END LIST*
D10*
X85504571Y-132597000D02*
X85409333Y-132549380D01*
X85266476Y-132549380D01*
X85123619Y-132597000D01*
X85028380Y-132692238D01*
X84980761Y-132787476D01*
X84933142Y-132977952D01*
X84933142Y-133120809D01*
X84980761Y-133311285D01*
X85028380Y-133406523D01*
X85123619Y-133501761D01*
X85266476Y-133549380D01*
X85361714Y-133549380D01*
X85504571Y-133501761D01*
X85552190Y-133454142D01*
X85552190Y-133120809D01*
X85361714Y-133120809D01*
X86409333Y-133549380D02*
X86409333Y-133025571D01*
X86361714Y-132930333D01*
X86266476Y-132882714D01*
X86075999Y-132882714D01*
X85980761Y-132930333D01*
X86409333Y-133501761D02*
X86314095Y-133549380D01*
X86075999Y-133549380D01*
X85980761Y-133501761D01*
X85933142Y-133406523D01*
X85933142Y-133311285D01*
X85980761Y-133216047D01*
X86075999Y-133168428D01*
X86314095Y-133168428D01*
X86409333Y-133120809D01*
X86885523Y-133549380D02*
X86885523Y-132882714D01*
X86885523Y-132977952D02*
X86933142Y-132930333D01*
X87028380Y-132882714D01*
X87171238Y-132882714D01*
X87266476Y-132930333D01*
X87314095Y-133025571D01*
X87314095Y-133549380D01*
X87314095Y-133025571D02*
X87361714Y-132930333D01*
X87456952Y-132882714D01*
X87599809Y-132882714D01*
X87695047Y-132930333D01*
X87742666Y-133025571D01*
X87742666Y-133549380D01*
X88599809Y-133501761D02*
X88504571Y-133549380D01*
X88314095Y-133549380D01*
X88218857Y-133501761D01*
X88171238Y-133406523D01*
X88171238Y-133025571D01*
X88218857Y-132930333D01*
X88314095Y-132882714D01*
X88504571Y-132882714D01*
X88599809Y-132930333D01*
X88647428Y-133025571D01*
X88647428Y-133120809D01*
X88171238Y-133216047D01*
X89075999Y-133549380D02*
X89075999Y-132549380D01*
X89075999Y-132930333D02*
X89171238Y-132882714D01*
X89361714Y-132882714D01*
X89456952Y-132930333D01*
X89504571Y-132977952D01*
X89552190Y-133073190D01*
X89552190Y-133358904D01*
X89504571Y-133454142D01*
X89456952Y-133501761D01*
X89361714Y-133549380D01*
X89171238Y-133549380D01*
X89075999Y-133501761D01*
X90123619Y-133549380D02*
X90028380Y-133501761D01*
X89980761Y-133454142D01*
X89933142Y-133358904D01*
X89933142Y-133073190D01*
X89980761Y-132977952D01*
X90028380Y-132930333D01*
X90123619Y-132882714D01*
X90266476Y-132882714D01*
X90361714Y-132930333D01*
X90409333Y-132977952D01*
X90456952Y-133073190D01*
X90456952Y-133358904D01*
X90409333Y-133454142D01*
X90361714Y-133501761D01*
X90266476Y-133549380D01*
X90123619Y-133549380D01*
X90790285Y-132882714D02*
X91028380Y-133549380D01*
X91266476Y-132882714D02*
X91028380Y-133549380D01*
X90933142Y-133787476D01*
X90885523Y-133835095D01*
X90790285Y-133882714D01*
X92409333Y-133549380D02*
X92409333Y-132549380D01*
X92742666Y-133263666D01*
X93075999Y-132549380D01*
X93075999Y-133549380D01*
X93933142Y-133501761D02*
X93837904Y-133549380D01*
X93647428Y-133549380D01*
X93552190Y-133501761D01*
X93504571Y-133406523D01*
X93504571Y-133025571D01*
X93552190Y-132930333D01*
X93647428Y-132882714D01*
X93837904Y-132882714D01*
X93933142Y-132930333D01*
X93980761Y-133025571D01*
X93980761Y-133120809D01*
X93504571Y-133216047D01*
X94409333Y-133549380D02*
X94409333Y-132882714D01*
X94409333Y-132977952D02*
X94456952Y-132930333D01*
X94552190Y-132882714D01*
X94695047Y-132882714D01*
X94790285Y-132930333D01*
X94837904Y-133025571D01*
X94837904Y-133549380D01*
X94837904Y-133025571D02*
X94885523Y-132930333D01*
X94980761Y-132882714D01*
X95123619Y-132882714D01*
X95218857Y-132930333D01*
X95266476Y-133025571D01*
X95266476Y-133549380D01*
X95885523Y-133549380D02*
X95790285Y-133501761D01*
X95742666Y-133454142D01*
X95695047Y-133358904D01*
X95695047Y-133073190D01*
X95742666Y-132977952D01*
X95790285Y-132930333D01*
X95885523Y-132882714D01*
X96028380Y-132882714D01*
X96123619Y-132930333D01*
X96171238Y-132977952D01*
X96218857Y-133073190D01*
X96218857Y-133358904D01*
X96171238Y-133454142D01*
X96123619Y-133501761D01*
X96028380Y-133549380D01*
X95885523Y-133549380D01*
X96647428Y-133549380D02*
X96647428Y-132882714D01*
X96647428Y-133073190D02*
X96695047Y-132977952D01*
X96742666Y-132930333D01*
X96837904Y-132882714D01*
X96933142Y-132882714D01*
X97171238Y-132882714D02*
X97409333Y-133549380D01*
X97647428Y-132882714D02*
X97409333Y-133549380D01*
X97314095Y-133787476D01*
X97266476Y-133835095D01*
X97171238Y-133882714D01*
X98361714Y-133025571D02*
X98504571Y-133073190D01*
X98552190Y-133120809D01*
X98599809Y-133216047D01*
X98599809Y-133358904D01*
X98552190Y-133454142D01*
X98504571Y-133501761D01*
X98409333Y-133549380D01*
X98028380Y-133549380D01*
X98028380Y-132549380D01*
X98361714Y-132549380D01*
X98456952Y-132597000D01*
X98504571Y-132644619D01*
X98552190Y-132739857D01*
X98552190Y-132835095D01*
X98504571Y-132930333D01*
X98456952Y-132977952D01*
X98361714Y-133025571D01*
X98028380Y-133025571D01*
X99456952Y-133549380D02*
X99456952Y-133025571D01*
X99409333Y-132930333D01*
X99314095Y-132882714D01*
X99123619Y-132882714D01*
X99028380Y-132930333D01*
X99456952Y-133501761D02*
X99361714Y-133549380D01*
X99123619Y-133549380D01*
X99028380Y-133501761D01*
X98980761Y-133406523D01*
X98980761Y-133311285D01*
X99028380Y-133216047D01*
X99123619Y-133168428D01*
X99361714Y-133168428D01*
X99456952Y-133120809D01*
X100361714Y-133501761D02*
X100266476Y-133549380D01*
X100075999Y-133549380D01*
X99980761Y-133501761D01*
X99933142Y-133454142D01*
X99885523Y-133358904D01*
X99885523Y-133073190D01*
X99933142Y-132977952D01*
X99980761Y-132930333D01*
X100075999Y-132882714D01*
X100266476Y-132882714D01*
X100361714Y-132930333D01*
X100790285Y-133549380D02*
X100790285Y-132549380D01*
X100885523Y-133168428D02*
X101171238Y-133549380D01*
X101171238Y-132882714D02*
X100790285Y-133263666D01*
X102028380Y-132882714D02*
X102028380Y-133549380D01*
X101599809Y-132882714D02*
X101599809Y-133406523D01*
X101647428Y-133501761D01*
X101742666Y-133549380D01*
X101885523Y-133549380D01*
X101980761Y-133501761D01*
X102028380Y-133454142D01*
X102504571Y-132882714D02*
X102504571Y-133882714D01*
X102504571Y-132930333D02*
X102599809Y-132882714D01*
X102790285Y-132882714D01*
X102885523Y-132930333D01*
X102933142Y-132977952D01*
X102980761Y-133073190D01*
X102980761Y-133358904D01*
X102933142Y-133454142D01*
X102885523Y-133501761D01*
X102790285Y-133549380D01*
X102599809Y-133549380D01*
X102504571Y-133501761D01*
X104171238Y-133549380D02*
X104171238Y-132549380D01*
X104171238Y-133025571D02*
X104742666Y-133025571D01*
X104742666Y-133549380D02*
X104742666Y-132549380D01*
X105361714Y-133549380D02*
X105266476Y-133501761D01*
X105218857Y-133454142D01*
X105171238Y-133358904D01*
X105171238Y-133073190D01*
X105218857Y-132977952D01*
X105266476Y-132930333D01*
X105361714Y-132882714D01*
X105504571Y-132882714D01*
X105599809Y-132930333D01*
X105647428Y-132977952D01*
X105695047Y-133073190D01*
X105695047Y-133358904D01*
X105647428Y-133454142D01*
X105599809Y-133501761D01*
X105504571Y-133549380D01*
X105361714Y-133549380D01*
X106123619Y-133549380D02*
X106123619Y-132882714D01*
X106123619Y-132977952D02*
X106171238Y-132930333D01*
X106266476Y-132882714D01*
X106409333Y-132882714D01*
X106504571Y-132930333D01*
X106552190Y-133025571D01*
X106552190Y-133549380D01*
X106552190Y-133025571D02*
X106599809Y-132930333D01*
X106695047Y-132882714D01*
X106837904Y-132882714D01*
X106933142Y-132930333D01*
X106980761Y-133025571D01*
X106980761Y-133549380D01*
X107837904Y-133501761D02*
X107742666Y-133549380D01*
X107552190Y-133549380D01*
X107456952Y-133501761D01*
X107409333Y-133406523D01*
X107409333Y-133025571D01*
X107456952Y-132930333D01*
X107552190Y-132882714D01*
X107742666Y-132882714D01*
X107837904Y-132930333D01*
X107885523Y-133025571D01*
X107885523Y-133120809D01*
X107409333Y-133216047D01*
X108314095Y-133549380D02*
X108314095Y-132549380D01*
X108314095Y-132930333D02*
X108409333Y-132882714D01*
X108599809Y-132882714D01*
X108695047Y-132930333D01*
X108742666Y-132977952D01*
X108790285Y-133073190D01*
X108790285Y-133358904D01*
X108742666Y-133454142D01*
X108695047Y-133501761D01*
X108599809Y-133549380D01*
X108409333Y-133549380D01*
X108314095Y-133501761D01*
X109218857Y-133549380D02*
X109218857Y-132882714D01*
X109218857Y-133073190D02*
X109266476Y-132977952D01*
X109314095Y-132930333D01*
X109409333Y-132882714D01*
X109504571Y-132882714D01*
X110218857Y-133501761D02*
X110123619Y-133549380D01*
X109933142Y-133549380D01*
X109837904Y-133501761D01*
X109790285Y-133406523D01*
X109790285Y-133025571D01*
X109837904Y-132930333D01*
X109933142Y-132882714D01*
X110123619Y-132882714D01*
X110218857Y-132930333D01*
X110266476Y-133025571D01*
X110266476Y-133120809D01*
X109790285Y-133216047D01*
X110599809Y-132882714D02*
X110790285Y-133549380D01*
X110980761Y-133073190D01*
X111171238Y-133549380D01*
X111361714Y-132882714D01*
X112409333Y-132882714D02*
X112647428Y-133549380D01*
X112885523Y-132882714D01*
X113790285Y-133549380D02*
X113218857Y-133549380D01*
X113504571Y-133549380D02*
X113504571Y-132549380D01*
X113409333Y-132692238D01*
X113314095Y-132787476D01*
X113218857Y-132835095D01*
X114218857Y-133454142D02*
X114266476Y-133501761D01*
X114218857Y-133549380D01*
X114171238Y-133501761D01*
X114218857Y-133454142D01*
X114218857Y-133549380D01*
X114647428Y-132644619D02*
X114695047Y-132597000D01*
X114790285Y-132549380D01*
X115028380Y-132549380D01*
X115123619Y-132597000D01*
X115171238Y-132644619D01*
X115218857Y-132739857D01*
X115218857Y-132835095D01*
X115171238Y-132977952D01*
X114599809Y-133549380D01*
X115218857Y-133549380D01*
X87004571Y-135199380D02*
X87004571Y-134199380D01*
X87242666Y-134199380D01*
X87385523Y-134247000D01*
X87480761Y-134342238D01*
X87528380Y-134437476D01*
X87576000Y-134627952D01*
X87576000Y-134770809D01*
X87528380Y-134961285D01*
X87480761Y-135056523D01*
X87385523Y-135151761D01*
X87242666Y-135199380D01*
X87004571Y-135199380D01*
X88385523Y-135151761D02*
X88290285Y-135199380D01*
X88099809Y-135199380D01*
X88004571Y-135151761D01*
X87956952Y-135056523D01*
X87956952Y-134675571D01*
X88004571Y-134580333D01*
X88099809Y-134532714D01*
X88290285Y-134532714D01*
X88385523Y-134580333D01*
X88433142Y-134675571D01*
X88433142Y-134770809D01*
X87956952Y-134866047D01*
X88814095Y-135151761D02*
X88909333Y-135199380D01*
X89099809Y-135199380D01*
X89195047Y-135151761D01*
X89242666Y-135056523D01*
X89242666Y-135008904D01*
X89195047Y-134913666D01*
X89099809Y-134866047D01*
X88956952Y-134866047D01*
X88861714Y-134818428D01*
X88814095Y-134723190D01*
X88814095Y-134675571D01*
X88861714Y-134580333D01*
X88956952Y-134532714D01*
X89099809Y-134532714D01*
X89195047Y-134580333D01*
X89671238Y-135199380D02*
X89671238Y-134532714D01*
X89671238Y-134199380D02*
X89623619Y-134247000D01*
X89671238Y-134294619D01*
X89718857Y-134247000D01*
X89671238Y-134199380D01*
X89671238Y-134294619D01*
X90576000Y-134532714D02*
X90576000Y-135342238D01*
X90528380Y-135437476D01*
X90480761Y-135485095D01*
X90385523Y-135532714D01*
X90242666Y-135532714D01*
X90147428Y-135485095D01*
X90576000Y-135151761D02*
X90480761Y-135199380D01*
X90290285Y-135199380D01*
X90195047Y-135151761D01*
X90147428Y-135104142D01*
X90099809Y-135008904D01*
X90099809Y-134723190D01*
X90147428Y-134627952D01*
X90195047Y-134580333D01*
X90290285Y-134532714D01*
X90480761Y-134532714D01*
X90576000Y-134580333D01*
X91052190Y-134532714D02*
X91052190Y-135199380D01*
X91052190Y-134627952D02*
X91099809Y-134580333D01*
X91195047Y-134532714D01*
X91337904Y-134532714D01*
X91433142Y-134580333D01*
X91480761Y-134675571D01*
X91480761Y-135199380D01*
X92337904Y-135151761D02*
X92242666Y-135199380D01*
X92052190Y-135199380D01*
X91956952Y-135151761D01*
X91909333Y-135056523D01*
X91909333Y-134675571D01*
X91956952Y-134580333D01*
X92052190Y-134532714D01*
X92242666Y-134532714D01*
X92337904Y-134580333D01*
X92385523Y-134675571D01*
X92385523Y-134770809D01*
X91909333Y-134866047D01*
X93242666Y-135199380D02*
X93242666Y-134199380D01*
X93242666Y-135151761D02*
X93147428Y-135199380D01*
X92956952Y-135199380D01*
X92861714Y-135151761D01*
X92814095Y-135104142D01*
X92766476Y-135008904D01*
X92766476Y-134723190D01*
X92814095Y-134627952D01*
X92861714Y-134580333D01*
X92956952Y-134532714D01*
X93147428Y-134532714D01*
X93242666Y-134580333D01*
X94480761Y-135199380D02*
X94480761Y-134532714D01*
X94480761Y-134199380D02*
X94433142Y-134247000D01*
X94480761Y-134294619D01*
X94528380Y-134247000D01*
X94480761Y-134199380D01*
X94480761Y-134294619D01*
X94956952Y-134532714D02*
X94956952Y-135199380D01*
X94956952Y-134627952D02*
X95004571Y-134580333D01*
X95099809Y-134532714D01*
X95242666Y-134532714D01*
X95337904Y-134580333D01*
X95385523Y-134675571D01*
X95385523Y-135199380D01*
X96576000Y-135151761D02*
X96718857Y-135199380D01*
X96956952Y-135199380D01*
X97052190Y-135151761D01*
X97099809Y-135104142D01*
X97147428Y-135008904D01*
X97147428Y-134913666D01*
X97099809Y-134818428D01*
X97052190Y-134770809D01*
X96956952Y-134723190D01*
X96766476Y-134675571D01*
X96671238Y-134627952D01*
X96623619Y-134580333D01*
X96576000Y-134485095D01*
X96576000Y-134389857D01*
X96623619Y-134294619D01*
X96671238Y-134247000D01*
X96766476Y-134199380D01*
X97004571Y-134199380D01*
X97147428Y-134247000D01*
X97576000Y-135199380D02*
X97576000Y-134199380D01*
X98004571Y-135199380D02*
X98004571Y-134675571D01*
X97956952Y-134580333D01*
X97861714Y-134532714D01*
X97718857Y-134532714D01*
X97623619Y-134580333D01*
X97576000Y-134627952D01*
X98909333Y-135199380D02*
X98909333Y-134675571D01*
X98861714Y-134580333D01*
X98766476Y-134532714D01*
X98576000Y-134532714D01*
X98480761Y-134580333D01*
X98909333Y-135151761D02*
X98814095Y-135199380D01*
X98576000Y-135199380D01*
X98480761Y-135151761D01*
X98433142Y-135056523D01*
X98433142Y-134961285D01*
X98480761Y-134866047D01*
X98576000Y-134818428D01*
X98814095Y-134818428D01*
X98909333Y-134770809D01*
X99385523Y-134532714D02*
X99385523Y-135199380D01*
X99385523Y-134627952D02*
X99433142Y-134580333D01*
X99528380Y-134532714D01*
X99671238Y-134532714D01*
X99766476Y-134580333D01*
X99814095Y-134675571D01*
X99814095Y-135199380D01*
X100718857Y-134532714D02*
X100718857Y-135342238D01*
X100671238Y-135437476D01*
X100623619Y-135485095D01*
X100528380Y-135532714D01*
X100385523Y-135532714D01*
X100290285Y-135485095D01*
X100718857Y-135151761D02*
X100623619Y-135199380D01*
X100433142Y-135199380D01*
X100337904Y-135151761D01*
X100290285Y-135104142D01*
X100242666Y-135008904D01*
X100242666Y-134723190D01*
X100290285Y-134627952D01*
X100337904Y-134580333D01*
X100433142Y-134532714D01*
X100623619Y-134532714D01*
X100718857Y-134580333D01*
X101195047Y-135199380D02*
X101195047Y-134199380D01*
X101623619Y-135199380D02*
X101623619Y-134675571D01*
X101576000Y-134580333D01*
X101480761Y-134532714D01*
X101337904Y-134532714D01*
X101242666Y-134580333D01*
X101195047Y-134627952D01*
X102528380Y-135199380D02*
X102528380Y-134675571D01*
X102480761Y-134580333D01*
X102385523Y-134532714D01*
X102195047Y-134532714D01*
X102099809Y-134580333D01*
X102528380Y-135151761D02*
X102433142Y-135199380D01*
X102195047Y-135199380D01*
X102099809Y-135151761D01*
X102052190Y-135056523D01*
X102052190Y-134961285D01*
X102099809Y-134866047D01*
X102195047Y-134818428D01*
X102433142Y-134818428D01*
X102528380Y-134770809D01*
X103004571Y-135199380D02*
X103004571Y-134532714D01*
X103004571Y-134199380D02*
X102956952Y-134247000D01*
X103004571Y-134294619D01*
X103052190Y-134247000D01*
X103004571Y-134199380D01*
X103004571Y-134294619D01*
X103528380Y-135151761D02*
X103528380Y-135199380D01*
X103480761Y-135294619D01*
X103433142Y-135342238D01*
X104718857Y-135199380D02*
X104718857Y-134199380D01*
X104718857Y-134580333D02*
X104814095Y-134532714D01*
X105004571Y-134532714D01*
X105099809Y-134580333D01*
X105147428Y-134627952D01*
X105195047Y-134723190D01*
X105195047Y-135008904D01*
X105147428Y-135104142D01*
X105099809Y-135151761D01*
X105004571Y-135199380D01*
X104814095Y-135199380D01*
X104718857Y-135151761D01*
X105528380Y-134532714D02*
X105766476Y-135199380D01*
X106004571Y-134532714D02*
X105766476Y-135199380D01*
X105671238Y-135437476D01*
X105623619Y-135485095D01*
X105528380Y-135532714D01*
X107099809Y-135151761D02*
X107242666Y-135199380D01*
X107480761Y-135199380D01*
X107576000Y-135151761D01*
X107623619Y-135104142D01*
X107671238Y-135008904D01*
X107671238Y-134913666D01*
X107623619Y-134818428D01*
X107576000Y-134770809D01*
X107480761Y-134723190D01*
X107290285Y-134675571D01*
X107195047Y-134627952D01*
X107147428Y-134580333D01*
X107099809Y-134485095D01*
X107099809Y-134389857D01*
X107147428Y-134294619D01*
X107195047Y-134247000D01*
X107290285Y-134199380D01*
X107528380Y-134199380D01*
X107671238Y-134247000D01*
X108290285Y-134199380D02*
X108480761Y-134199380D01*
X108576000Y-134247000D01*
X108671238Y-134342238D01*
X108718857Y-134532714D01*
X108718857Y-134866047D01*
X108671238Y-135056523D01*
X108576000Y-135151761D01*
X108480761Y-135199380D01*
X108290285Y-135199380D01*
X108195047Y-135151761D01*
X108099809Y-135056523D01*
X108052190Y-134866047D01*
X108052190Y-134532714D01*
X108099809Y-134342238D01*
X108195047Y-134247000D01*
X108290285Y-134199380D01*
X109147428Y-135199380D02*
X109147428Y-134199380D01*
X109718857Y-135199380D01*
X109718857Y-134199380D01*
X110195047Y-135199380D02*
X110195047Y-134199380D01*
X111242666Y-135104142D02*
X111195047Y-135151761D01*
X111052190Y-135199380D01*
X110956952Y-135199380D01*
X110814095Y-135151761D01*
X110718857Y-135056523D01*
X110671238Y-134961285D01*
X110623619Y-134770809D01*
X110623619Y-134627952D01*
X110671238Y-134437476D01*
X110718857Y-134342238D01*
X110814095Y-134247000D01*
X110956952Y-134199380D01*
X111052190Y-134199380D01*
X111195047Y-134247000D01*
X111242666Y-134294619D01*
X111576000Y-134199380D02*
X112195047Y-134199380D01*
X111861714Y-134580333D01*
X112004571Y-134580333D01*
X112099809Y-134627952D01*
X112147428Y-134675571D01*
X112195047Y-134770809D01*
X112195047Y-135008904D01*
X112147428Y-135104142D01*
X112099809Y-135151761D01*
X112004571Y-135199380D01*
X111718857Y-135199380D01*
X111623619Y-135151761D01*
X111576000Y-135104142D01*
X112623619Y-135199380D02*
X112623619Y-134199380D01*
X112861714Y-134199380D01*
X113004571Y-134247000D01*
X113099809Y-134342238D01*
X113147428Y-134437476D01*
X113195047Y-134627952D01*
X113195047Y-134770809D01*
X113147428Y-134961285D01*
X113099809Y-135056523D01*
X113004571Y-135151761D01*
X112861714Y-135199380D01*
X112623619Y-135199380D01*
X95599809Y-135944619D02*
X95647428Y-135897000D01*
X95742666Y-135849380D01*
X95980761Y-135849380D01*
X96076000Y-135897000D01*
X96123619Y-135944619D01*
X96171238Y-136039857D01*
X96171238Y-136135095D01*
X96123619Y-136277952D01*
X95552190Y-136849380D01*
X96171238Y-136849380D01*
X96790285Y-135849380D02*
X96885523Y-135849380D01*
X96980761Y-135897000D01*
X97028380Y-135944619D01*
X97076000Y-136039857D01*
X97123619Y-136230333D01*
X97123619Y-136468428D01*
X97076000Y-136658904D01*
X97028380Y-136754142D01*
X96980761Y-136801761D01*
X96885523Y-136849380D01*
X96790285Y-136849380D01*
X96695047Y-136801761D01*
X96647428Y-136754142D01*
X96599809Y-136658904D01*
X96552190Y-136468428D01*
X96552190Y-136230333D01*
X96599809Y-136039857D01*
X96647428Y-135944619D01*
X96695047Y-135897000D01*
X96790285Y-135849380D01*
X97504571Y-135944619D02*
X97552190Y-135897000D01*
X97647428Y-135849380D01*
X97885523Y-135849380D01*
X97980761Y-135897000D01*
X98028380Y-135944619D01*
X98076000Y-136039857D01*
X98076000Y-136135095D01*
X98028380Y-136277952D01*
X97456952Y-136849380D01*
X98076000Y-136849380D01*
X98409333Y-135849380D02*
X99028380Y-135849380D01*
X98695047Y-136230333D01*
X98837904Y-136230333D01*
X98933142Y-136277952D01*
X98980761Y-136325571D01*
X99028380Y-136420809D01*
X99028380Y-136658904D01*
X98980761Y-136754142D01*
X98933142Y-136801761D01*
X98837904Y-136849380D01*
X98552190Y-136849380D01*
X98456952Y-136801761D01*
X98409333Y-136754142D01*
X99456952Y-136754142D02*
X99504571Y-136801761D01*
X99456952Y-136849380D01*
X99409333Y-136801761D01*
X99456952Y-136754142D01*
X99456952Y-136849380D01*
X99933142Y-136849380D02*
X99933142Y-135849380D01*
X100266476Y-136563666D01*
X100599809Y-135849380D01*
X100599809Y-136849380D01*
X101504571Y-136849380D02*
X101504571Y-136325571D01*
X101456952Y-136230333D01*
X101361714Y-136182714D01*
X101171238Y-136182714D01*
X101076000Y-136230333D01*
X101504571Y-136801761D02*
X101409333Y-136849380D01*
X101171238Y-136849380D01*
X101076000Y-136801761D01*
X101028380Y-136706523D01*
X101028380Y-136611285D01*
X101076000Y-136516047D01*
X101171238Y-136468428D01*
X101409333Y-136468428D01*
X101504571Y-136420809D01*
X101980761Y-136849380D02*
X101980761Y-136182714D01*
X101980761Y-136373190D02*
X102028380Y-136277952D01*
X102076000Y-136230333D01*
X102171238Y-136182714D01*
X102266476Y-136182714D01*
X102599809Y-136754142D02*
X102647428Y-136801761D01*
X102599809Y-136849380D01*
X102552190Y-136801761D01*
X102599809Y-136754142D01*
X102599809Y-136849380D01*
X103599809Y-136849380D02*
X103028380Y-136849380D01*
X103314095Y-136849380D02*
X103314095Y-135849380D01*
X103218857Y-135992238D01*
X103123619Y-136087476D01*
X103028380Y-136135095D01*
X103933142Y-135849380D02*
X104599809Y-135849380D01*
X104171238Y-136849380D01*
D11*
X64900000Y-92100000D02*
X110850000Y-92100000D01*
X61500000Y-118000000D02*
X117700000Y-118000000D01*
D12*
%TO.C,U2*%
X98711155Y-80645000D02*
G75*
G03*
X98711155Y-80645000I-206155J0D01*
G01*
X96410000Y-76275000D02*
X96410000Y-74820000D01*
X96410000Y-74820000D02*
X97865000Y-74820000D01*
X110600000Y-85015000D02*
X110600000Y-86470000D01*
X110600000Y-86470000D02*
X109145000Y-86470000D01*
X110600000Y-76275000D02*
X110600000Y-74820000D01*
X110600000Y-74820000D02*
X109145000Y-74820000D01*
X96410000Y-85015000D02*
X96410000Y-85297782D01*
X96410000Y-85297782D02*
X97582218Y-86470000D01*
X97582218Y-86470000D02*
X97865000Y-86470000D01*
X113855000Y-89595000D02*
X95100000Y-89595000D01*
X113855000Y-71695000D02*
X113855000Y-89595000D01*
X93155000Y-71695000D02*
X113855000Y-71695000D01*
X93155000Y-87830000D02*
X93155000Y-71695000D01*
X95100000Y-89595000D02*
X93155000Y-87830000D01*
%TO.C,U1*%
X98711155Y-108585000D02*
G75*
G03*
X98711155Y-108585000I-206155J0D01*
G01*
X96410000Y-104215000D02*
X96410000Y-102760000D01*
X96410000Y-102760000D02*
X97865000Y-102760000D01*
X110600000Y-112955000D02*
X110600000Y-114410000D01*
X110600000Y-114410000D02*
X109145000Y-114410000D01*
X110600000Y-104215000D02*
X110600000Y-102760000D01*
X110600000Y-102760000D02*
X109145000Y-102760000D01*
X96410000Y-112955000D02*
X96410000Y-113237782D01*
X96410000Y-113237782D02*
X97582218Y-114410000D01*
X97582218Y-114410000D02*
X97865000Y-114410000D01*
X113855000Y-117535000D02*
X95100000Y-117535000D01*
X113855000Y-99635000D02*
X113855000Y-117535000D01*
X93155000Y-99635000D02*
X113855000Y-99635000D01*
X93155000Y-115770000D02*
X93155000Y-99635000D01*
X95100000Y-117535000D02*
X93155000Y-115770000D01*
D13*
%TO.C,G\u002A\u002A\u002A*%
G36*
X110103111Y-125357286D02*
G01*
X110148184Y-125377532D01*
X110149739Y-125403118D01*
X110130111Y-125439625D01*
X110104074Y-125427471D01*
X110078737Y-125398417D01*
X110059641Y-125363521D01*
X110094527Y-125356727D01*
X110103111Y-125357286D01*
G37*
X110103111Y-125357286D02*
X110148184Y-125377532D01*
X110149739Y-125403118D01*
X110130111Y-125439625D01*
X110104074Y-125427471D01*
X110078737Y-125398417D01*
X110059641Y-125363521D01*
X110094527Y-125356727D01*
X110103111Y-125357286D01*
G36*
X110806577Y-126357410D02*
G01*
X110807500Y-126365000D01*
X110783339Y-126395827D01*
X110775750Y-126396750D01*
X110744922Y-126372589D01*
X110744000Y-126365000D01*
X110768160Y-126334172D01*
X110775750Y-126333250D01*
X110806577Y-126357410D01*
G37*
X110806577Y-126357410D02*
X110807500Y-126365000D01*
X110783339Y-126395827D01*
X110775750Y-126396750D01*
X110744922Y-126372589D01*
X110744000Y-126365000D01*
X110768160Y-126334172D01*
X110775750Y-126333250D01*
X110806577Y-126357410D01*
G36*
X110643844Y-127774843D02*
G01*
X110677929Y-127806812D01*
X110670937Y-127825190D01*
X110666498Y-127825500D01*
X110639644Y-127802948D01*
X110629843Y-127788844D01*
X110626100Y-127767117D01*
X110643844Y-127774843D01*
G37*
X110643844Y-127774843D02*
X110677929Y-127806812D01*
X110670937Y-127825190D01*
X110666498Y-127825500D01*
X110639644Y-127802948D01*
X110629843Y-127788844D01*
X110626100Y-127767117D01*
X110643844Y-127774843D01*
G36*
X109535026Y-125213959D02*
G01*
X109534782Y-125222000D01*
X109521116Y-125290065D01*
X109505750Y-125333125D01*
X109478463Y-125396625D01*
X109476717Y-125333125D01*
X109490315Y-125255180D01*
X109505750Y-125222000D01*
X109530234Y-125190396D01*
X109535026Y-125213959D01*
G37*
X109535026Y-125213959D02*
X109534782Y-125222000D01*
X109521116Y-125290065D01*
X109505750Y-125333125D01*
X109478463Y-125396625D01*
X109476717Y-125333125D01*
X109490315Y-125255180D01*
X109505750Y-125222000D01*
X109530234Y-125190396D01*
X109535026Y-125213959D01*
G36*
X109950250Y-125428375D02*
G01*
X109934375Y-125444250D01*
X109918500Y-125428375D01*
X109934375Y-125412500D01*
X109950250Y-125428375D01*
G37*
X109950250Y-125428375D02*
X109934375Y-125444250D01*
X109918500Y-125428375D01*
X109934375Y-125412500D01*
X109950250Y-125428375D01*
G36*
X110267311Y-125660017D02*
G01*
X110279231Y-125682375D01*
X110291583Y-125722405D01*
X110290566Y-125727493D01*
X110259532Y-125715243D01*
X110243937Y-125708972D01*
X110209215Y-125677561D01*
X110209872Y-125643938D01*
X110232603Y-125634750D01*
X110267311Y-125660017D01*
G37*
X110267311Y-125660017D02*
X110279231Y-125682375D01*
X110291583Y-125722405D01*
X110290566Y-125727493D01*
X110259532Y-125715243D01*
X110243937Y-125708972D01*
X110209215Y-125677561D01*
X110209872Y-125643938D01*
X110232603Y-125634750D01*
X110267311Y-125660017D01*
G36*
X109783037Y-125808533D02*
G01*
X109791500Y-125825250D01*
X109786623Y-125852973D01*
X109759138Y-125844728D01*
X109728000Y-125825250D01*
X109698811Y-125800644D01*
X109728819Y-125794088D01*
X109735937Y-125793986D01*
X109783037Y-125808533D01*
G37*
X109783037Y-125808533D02*
X109791500Y-125825250D01*
X109786623Y-125852973D01*
X109759138Y-125844728D01*
X109728000Y-125825250D01*
X109698811Y-125800644D01*
X109728819Y-125794088D01*
X109735937Y-125793986D01*
X109783037Y-125808533D01*
G36*
X110167587Y-125786637D02*
G01*
X110214766Y-125811650D01*
X110246475Y-125807053D01*
X110290544Y-125804153D01*
X110299500Y-125818150D01*
X110273437Y-125849365D01*
X110217986Y-125870261D01*
X110167256Y-125869717D01*
X110158463Y-125864130D01*
X110142870Y-125820294D01*
X110141236Y-125796145D01*
X110148216Y-125765315D01*
X110167587Y-125786637D01*
G37*
X110167587Y-125786637D02*
X110214766Y-125811650D01*
X110246475Y-125807053D01*
X110290544Y-125804153D01*
X110299500Y-125818150D01*
X110273437Y-125849365D01*
X110217986Y-125870261D01*
X110167256Y-125869717D01*
X110158463Y-125864130D01*
X110142870Y-125820294D01*
X110141236Y-125796145D01*
X110148216Y-125765315D01*
X110167587Y-125786637D01*
G36*
X109814957Y-125901624D02*
G01*
X109818987Y-125935884D01*
X109785349Y-125962766D01*
X109742858Y-125963341D01*
X109702707Y-125965287D01*
X109696250Y-125980603D01*
X109674034Y-126014121D01*
X109664500Y-126015750D01*
X109633795Y-125991482D01*
X109632750Y-125983214D01*
X109658546Y-125951729D01*
X109716812Y-125919278D01*
X109778863Y-125898707D01*
X109814957Y-125901624D01*
G37*
X109814957Y-125901624D02*
X109818987Y-125935884D01*
X109785349Y-125962766D01*
X109742858Y-125963341D01*
X109702707Y-125965287D01*
X109696250Y-125980603D01*
X109674034Y-126014121D01*
X109664500Y-126015750D01*
X109633795Y-125991482D01*
X109632750Y-125983214D01*
X109658546Y-125951729D01*
X109716812Y-125919278D01*
X109778863Y-125898707D01*
X109814957Y-125901624D01*
G36*
X109852002Y-125058629D02*
G01*
X109913701Y-125086059D01*
X109987996Y-125132844D01*
X110079647Y-125206983D01*
X110175754Y-125295729D01*
X110263418Y-125386337D01*
X110329740Y-125466058D01*
X110361819Y-125522146D01*
X110363000Y-125530031D01*
X110380408Y-125568022D01*
X110391391Y-125571250D01*
X110411133Y-125598286D01*
X110415203Y-125650602D01*
X110400636Y-125716468D01*
X110371317Y-125724829D01*
X110344931Y-125694700D01*
X110347072Y-125649806D01*
X110362322Y-125635168D01*
X110382203Y-125604458D01*
X110369101Y-125590895D01*
X110332022Y-125595727D01*
X110323250Y-125610739D01*
X110302521Y-125634522D01*
X110260746Y-125610127D01*
X110218285Y-125587182D01*
X110193263Y-125617708D01*
X110191420Y-125622386D01*
X110171537Y-125657508D01*
X110141423Y-125647028D01*
X110113775Y-125623196D01*
X110036325Y-125577917D01*
X109969190Y-125581134D01*
X109928538Y-125631789D01*
X109927524Y-125635419D01*
X109904587Y-125678381D01*
X109870704Y-125666358D01*
X109830964Y-125653728D01*
X109812079Y-125681564D01*
X109771376Y-125724281D01*
X109747629Y-125730000D01*
X109719756Y-125719087D01*
X109721150Y-125675815D01*
X109735571Y-125626812D01*
X109761739Y-125544439D01*
X109778950Y-125485847D01*
X109779442Y-125483937D01*
X109815128Y-125448329D01*
X109837132Y-125444250D01*
X109870361Y-125465608D01*
X109867714Y-125488663D01*
X109867703Y-125537800D01*
X109878163Y-125550068D01*
X109928829Y-125552474D01*
X109969731Y-125506235D01*
X109987873Y-125426123D01*
X109987893Y-125425336D01*
X109987610Y-125324523D01*
X109978456Y-125272455D01*
X109956958Y-125254606D01*
X109946853Y-125253750D01*
X109925623Y-125276845D01*
X109929981Y-125301375D01*
X109925051Y-125340013D01*
X109882311Y-125349000D01*
X109835512Y-125337635D01*
X109831213Y-125291736D01*
X109835378Y-125273248D01*
X109836556Y-125236562D01*
X110024333Y-125236562D01*
X110046641Y-125265157D01*
X110074604Y-125261214D01*
X110106832Y-125253336D01*
X110096655Y-125275633D01*
X110073529Y-125303928D01*
X110026928Y-125381412D01*
X110030650Y-125435759D01*
X110082616Y-125457820D01*
X110108237Y-125456669D01*
X110197683Y-125472819D01*
X110236954Y-125509074D01*
X110283137Y-125558916D01*
X110313272Y-125568120D01*
X110314646Y-125534187D01*
X110310981Y-125523625D01*
X110278784Y-125481586D01*
X110262479Y-125476000D01*
X110247980Y-125455768D01*
X110254906Y-125439344D01*
X110258669Y-125417321D01*
X110244515Y-125423112D01*
X110212144Y-125414016D01*
X110194121Y-125377198D01*
X110166114Y-125331335D01*
X110137491Y-125335138D01*
X110111546Y-125339289D01*
X110118297Y-125307067D01*
X110111689Y-125249556D01*
X110081359Y-125224199D01*
X110035337Y-125210728D01*
X110024333Y-125236562D01*
X109836556Y-125236562D01*
X109837377Y-125211029D01*
X109794353Y-125181825D01*
X109791151Y-125180959D01*
X109748370Y-125178954D01*
X109745704Y-125193210D01*
X109739495Y-125219898D01*
X109727227Y-125222000D01*
X109701833Y-125244644D01*
X109703910Y-125260855D01*
X109699903Y-125315533D01*
X109675199Y-125379917D01*
X109653353Y-125439835D01*
X109659720Y-125468983D01*
X109670630Y-125502493D01*
X109668961Y-125577775D01*
X109662816Y-125627733D01*
X109651711Y-125720183D01*
X109649739Y-125784638D01*
X109652632Y-125799243D01*
X109643001Y-125832556D01*
X109630759Y-125842355D01*
X109611223Y-125890027D01*
X109613887Y-125991369D01*
X109617345Y-126019174D01*
X109625855Y-126123013D01*
X109617444Y-126169601D01*
X109596229Y-126161603D01*
X109566324Y-126101682D01*
X109531844Y-125992504D01*
X109523065Y-125958127D01*
X109498115Y-125828179D01*
X109484213Y-125696549D01*
X109481399Y-125577660D01*
X109489712Y-125485932D01*
X109509192Y-125435788D01*
X109521625Y-125430632D01*
X109551218Y-125459344D01*
X109561042Y-125494132D01*
X109564613Y-125535680D01*
X109553393Y-125519739D01*
X109541005Y-125491875D01*
X109523408Y-125463546D01*
X109514556Y-125487444D01*
X109511834Y-125555375D01*
X109514828Y-125688509D01*
X109525864Y-125790749D01*
X109542984Y-125852240D01*
X109564232Y-125863129D01*
X109571279Y-125854803D01*
X109593269Y-125788297D01*
X109598282Y-125730000D01*
X109594820Y-125677086D01*
X109583169Y-125683601D01*
X109569250Y-125714125D01*
X109547871Y-125750258D01*
X109539347Y-125737436D01*
X109543305Y-125688811D01*
X109559376Y-125617535D01*
X109573218Y-125573512D01*
X109592969Y-125473973D01*
X109572029Y-125390047D01*
X109550369Y-125326043D01*
X109551504Y-125292662D01*
X109573490Y-125305371D01*
X109598305Y-125352327D01*
X109621113Y-125396257D01*
X109630513Y-125379139D01*
X109630737Y-125374686D01*
X109614451Y-125316382D01*
X109598234Y-125299665D01*
X109576542Y-125255365D01*
X109579386Y-125218416D01*
X109576854Y-125169661D01*
X109558340Y-125158290D01*
X109557000Y-125143508D01*
X109564617Y-125136952D01*
X109631649Y-125136952D01*
X109659015Y-125148857D01*
X109704252Y-125132795D01*
X109711347Y-125127395D01*
X109758698Y-125104612D01*
X109813989Y-125125582D01*
X109831177Y-125137080D01*
X109900529Y-125176781D01*
X109947974Y-125189368D01*
X109961250Y-125174560D01*
X109935742Y-125139456D01*
X109874646Y-125106734D01*
X109787011Y-125087647D01*
X109701070Y-125085571D01*
X109645059Y-125103881D01*
X109644306Y-125104610D01*
X109631649Y-125136952D01*
X109564617Y-125136952D01*
X109599362Y-125107049D01*
X109616875Y-125095000D01*
X109699751Y-125047828D01*
X109769355Y-125035969D01*
X109852002Y-125058629D01*
G37*
X109852002Y-125058629D02*
X109913701Y-125086059D01*
X109987996Y-125132844D01*
X110079647Y-125206983D01*
X110175754Y-125295729D01*
X110263418Y-125386337D01*
X110329740Y-125466058D01*
X110361819Y-125522146D01*
X110363000Y-125530031D01*
X110380408Y-125568022D01*
X110391391Y-125571250D01*
X110411133Y-125598286D01*
X110415203Y-125650602D01*
X110400636Y-125716468D01*
X110371317Y-125724829D01*
X110344931Y-125694700D01*
X110347072Y-125649806D01*
X110362322Y-125635168D01*
X110382203Y-125604458D01*
X110369101Y-125590895D01*
X110332022Y-125595727D01*
X110323250Y-125610739D01*
X110302521Y-125634522D01*
X110260746Y-125610127D01*
X110218285Y-125587182D01*
X110193263Y-125617708D01*
X110191420Y-125622386D01*
X110171537Y-125657508D01*
X110141423Y-125647028D01*
X110113775Y-125623196D01*
X110036325Y-125577917D01*
X109969190Y-125581134D01*
X109928538Y-125631789D01*
X109927524Y-125635419D01*
X109904587Y-125678381D01*
X109870704Y-125666358D01*
X109830964Y-125653728D01*
X109812079Y-125681564D01*
X109771376Y-125724281D01*
X109747629Y-125730000D01*
X109719756Y-125719087D01*
X109721150Y-125675815D01*
X109735571Y-125626812D01*
X109761739Y-125544439D01*
X109778950Y-125485847D01*
X109779442Y-125483937D01*
X109815128Y-125448329D01*
X109837132Y-125444250D01*
X109870361Y-125465608D01*
X109867714Y-125488663D01*
X109867703Y-125537800D01*
X109878163Y-125550068D01*
X109928829Y-125552474D01*
X109969731Y-125506235D01*
X109987873Y-125426123D01*
X109987893Y-125425336D01*
X109987610Y-125324523D01*
X109978456Y-125272455D01*
X109956958Y-125254606D01*
X109946853Y-125253750D01*
X109925623Y-125276845D01*
X109929981Y-125301375D01*
X109925051Y-125340013D01*
X109882311Y-125349000D01*
X109835512Y-125337635D01*
X109831213Y-125291736D01*
X109835378Y-125273248D01*
X109836556Y-125236562D01*
X110024333Y-125236562D01*
X110046641Y-125265157D01*
X110074604Y-125261214D01*
X110106832Y-125253336D01*
X110096655Y-125275633D01*
X110073529Y-125303928D01*
X110026928Y-125381412D01*
X110030650Y-125435759D01*
X110082616Y-125457820D01*
X110108237Y-125456669D01*
X110197683Y-125472819D01*
X110236954Y-125509074D01*
X110283137Y-125558916D01*
X110313272Y-125568120D01*
X110314646Y-125534187D01*
X110310981Y-125523625D01*
X110278784Y-125481586D01*
X110262479Y-125476000D01*
X110247980Y-125455768D01*
X110254906Y-125439344D01*
X110258669Y-125417321D01*
X110244515Y-125423112D01*
X110212144Y-125414016D01*
X110194121Y-125377198D01*
X110166114Y-125331335D01*
X110137491Y-125335138D01*
X110111546Y-125339289D01*
X110118297Y-125307067D01*
X110111689Y-125249556D01*
X110081359Y-125224199D01*
X110035337Y-125210728D01*
X110024333Y-125236562D01*
X109836556Y-125236562D01*
X109837377Y-125211029D01*
X109794353Y-125181825D01*
X109791151Y-125180959D01*
X109748370Y-125178954D01*
X109745704Y-125193210D01*
X109739495Y-125219898D01*
X109727227Y-125222000D01*
X109701833Y-125244644D01*
X109703910Y-125260855D01*
X109699903Y-125315533D01*
X109675199Y-125379917D01*
X109653353Y-125439835D01*
X109659720Y-125468983D01*
X109670630Y-125502493D01*
X109668961Y-125577775D01*
X109662816Y-125627733D01*
X109651711Y-125720183D01*
X109649739Y-125784638D01*
X109652632Y-125799243D01*
X109643001Y-125832556D01*
X109630759Y-125842355D01*
X109611223Y-125890027D01*
X109613887Y-125991369D01*
X109617345Y-126019174D01*
X109625855Y-126123013D01*
X109617444Y-126169601D01*
X109596229Y-126161603D01*
X109566324Y-126101682D01*
X109531844Y-125992504D01*
X109523065Y-125958127D01*
X109498115Y-125828179D01*
X109484213Y-125696549D01*
X109481399Y-125577660D01*
X109489712Y-125485932D01*
X109509192Y-125435788D01*
X109521625Y-125430632D01*
X109551218Y-125459344D01*
X109561042Y-125494132D01*
X109564613Y-125535680D01*
X109553393Y-125519739D01*
X109541005Y-125491875D01*
X109523408Y-125463546D01*
X109514556Y-125487444D01*
X109511834Y-125555375D01*
X109514828Y-125688509D01*
X109525864Y-125790749D01*
X109542984Y-125852240D01*
X109564232Y-125863129D01*
X109571279Y-125854803D01*
X109593269Y-125788297D01*
X109598282Y-125730000D01*
X109594820Y-125677086D01*
X109583169Y-125683601D01*
X109569250Y-125714125D01*
X109547871Y-125750258D01*
X109539347Y-125737436D01*
X109543305Y-125688811D01*
X109559376Y-125617535D01*
X109573218Y-125573512D01*
X109592969Y-125473973D01*
X109572029Y-125390047D01*
X109550369Y-125326043D01*
X109551504Y-125292662D01*
X109573490Y-125305371D01*
X109598305Y-125352327D01*
X109621113Y-125396257D01*
X109630513Y-125379139D01*
X109630737Y-125374686D01*
X109614451Y-125316382D01*
X109598234Y-125299665D01*
X109576542Y-125255365D01*
X109579386Y-125218416D01*
X109576854Y-125169661D01*
X109558340Y-125158290D01*
X109557000Y-125143508D01*
X109564617Y-125136952D01*
X109631649Y-125136952D01*
X109659015Y-125148857D01*
X109704252Y-125132795D01*
X109711347Y-125127395D01*
X109758698Y-125104612D01*
X109813989Y-125125582D01*
X109831177Y-125137080D01*
X109900529Y-125176781D01*
X109947974Y-125189368D01*
X109961250Y-125174560D01*
X109935742Y-125139456D01*
X109874646Y-125106734D01*
X109787011Y-125087647D01*
X109701070Y-125085571D01*
X109645059Y-125103881D01*
X109644306Y-125104610D01*
X109631649Y-125136952D01*
X109564617Y-125136952D01*
X109599362Y-125107049D01*
X109616875Y-125095000D01*
X109699751Y-125047828D01*
X109769355Y-125035969D01*
X109852002Y-125058629D01*
G36*
X109622166Y-126248583D02*
G01*
X109625966Y-126286263D01*
X109622166Y-126290916D01*
X109603291Y-126286558D01*
X109601000Y-126269750D01*
X109612616Y-126243616D01*
X109622166Y-126248583D01*
G37*
X109622166Y-126248583D02*
X109625966Y-126286263D01*
X109622166Y-126290916D01*
X109603291Y-126286558D01*
X109601000Y-126269750D01*
X109612616Y-126243616D01*
X109622166Y-126248583D01*
G36*
X109950250Y-126761875D02*
G01*
X109934375Y-126777750D01*
X109918500Y-126761875D01*
X109934375Y-126746000D01*
X109950250Y-126761875D01*
G37*
X109950250Y-126761875D02*
X109934375Y-126777750D01*
X109918500Y-126761875D01*
X109934375Y-126746000D01*
X109950250Y-126761875D01*
G36*
X110173207Y-126244456D02*
G01*
X110197540Y-126260366D01*
X110273505Y-126338076D01*
X110356249Y-126453872D01*
X110432579Y-126585566D01*
X110489301Y-126710967D01*
X110511056Y-126787657D01*
X110519343Y-126864666D01*
X110505224Y-126897765D01*
X110462334Y-126904750D01*
X110402269Y-126882653D01*
X110324718Y-126826354D01*
X110282588Y-126785984D01*
X110204443Y-126689240D01*
X110128343Y-126572043D01*
X110064596Y-126453080D01*
X110023511Y-126351037D01*
X110013750Y-126298662D01*
X110037545Y-126241588D01*
X110096776Y-126222253D01*
X110173207Y-126244456D01*
G37*
X110173207Y-126244456D02*
X110197540Y-126260366D01*
X110273505Y-126338076D01*
X110356249Y-126453872D01*
X110432579Y-126585566D01*
X110489301Y-126710967D01*
X110511056Y-126787657D01*
X110519343Y-126864666D01*
X110505224Y-126897765D01*
X110462334Y-126904750D01*
X110402269Y-126882653D01*
X110324718Y-126826354D01*
X110282588Y-126785984D01*
X110204443Y-126689240D01*
X110128343Y-126572043D01*
X110064596Y-126453080D01*
X110023511Y-126351037D01*
X110013750Y-126298662D01*
X110037545Y-126241588D01*
X110096776Y-126222253D01*
X110173207Y-126244456D01*
G36*
X110108645Y-127022910D02*
G01*
X110137126Y-127053744D01*
X110128054Y-127086779D01*
X110111012Y-127079807D01*
X110108513Y-127060854D01*
X110102659Y-127032486D01*
X110080732Y-127058952D01*
X110048111Y-127081996D01*
X110033776Y-127070216D01*
X110040148Y-127033612D01*
X110060540Y-127020588D01*
X110108645Y-127022910D01*
G37*
X110108645Y-127022910D02*
X110137126Y-127053744D01*
X110128054Y-127086779D01*
X110111012Y-127079807D01*
X110108513Y-127060854D01*
X110102659Y-127032486D01*
X110080732Y-127058952D01*
X110048111Y-127081996D01*
X110033776Y-127070216D01*
X110040148Y-127033612D01*
X110060540Y-127020588D01*
X110108645Y-127022910D01*
G36*
X111052510Y-126678913D02*
G01*
X111080259Y-126750942D01*
X111107505Y-126848145D01*
X111128544Y-126951830D01*
X111134074Y-126992062D01*
X111135001Y-127061968D01*
X111121686Y-127094879D01*
X111119501Y-127095250D01*
X111094701Y-127070326D01*
X111093250Y-127058208D01*
X111081873Y-127035369D01*
X111074838Y-127039578D01*
X111077261Y-127075875D01*
X111108710Y-127137780D01*
X111109573Y-127139102D01*
X111143640Y-127208481D01*
X111149951Y-127258519D01*
X111129964Y-127255641D01*
X111092433Y-127206986D01*
X111063303Y-127156349D01*
X111026077Y-127067593D01*
X111002795Y-126984125D01*
X111029750Y-126984125D01*
X111045625Y-127000000D01*
X111061500Y-126984125D01*
X111045625Y-126968250D01*
X111029750Y-126984125D01*
X111002795Y-126984125D01*
X110998576Y-126969001D01*
X110982857Y-126875916D01*
X110982320Y-126855251D01*
X111029750Y-126855251D01*
X111046326Y-126898692D01*
X111061500Y-126904750D01*
X111092341Y-126881962D01*
X111093250Y-126874873D01*
X111070170Y-126831873D01*
X111061500Y-126825375D01*
X111034318Y-126832572D01*
X111029750Y-126855251D01*
X110982320Y-126855251D01*
X110980977Y-126803681D01*
X110994993Y-126767638D01*
X111011446Y-126769500D01*
X111023233Y-126766989D01*
X111006212Y-126741235D01*
X110989303Y-126698375D01*
X110998000Y-126698375D01*
X111013875Y-126714250D01*
X111029750Y-126698375D01*
X111013875Y-126682500D01*
X110998000Y-126698375D01*
X110989303Y-126698375D01*
X110984718Y-126686756D01*
X111010850Y-126653534D01*
X111029959Y-126650750D01*
X111052510Y-126678913D01*
G37*
X111052510Y-126678913D02*
X111080259Y-126750942D01*
X111107505Y-126848145D01*
X111128544Y-126951830D01*
X111134074Y-126992062D01*
X111135001Y-127061968D01*
X111121686Y-127094879D01*
X111119501Y-127095250D01*
X111094701Y-127070326D01*
X111093250Y-127058208D01*
X111081873Y-127035369D01*
X111074838Y-127039578D01*
X111077261Y-127075875D01*
X111108710Y-127137780D01*
X111109573Y-127139102D01*
X111143640Y-127208481D01*
X111149951Y-127258519D01*
X111129964Y-127255641D01*
X111092433Y-127206986D01*
X111063303Y-127156349D01*
X111026077Y-127067593D01*
X111002795Y-126984125D01*
X111029750Y-126984125D01*
X111045625Y-127000000D01*
X111061500Y-126984125D01*
X111045625Y-126968250D01*
X111029750Y-126984125D01*
X111002795Y-126984125D01*
X110998576Y-126969001D01*
X110982857Y-126875916D01*
X110982320Y-126855251D01*
X111029750Y-126855251D01*
X111046326Y-126898692D01*
X111061500Y-126904750D01*
X111092341Y-126881962D01*
X111093250Y-126874873D01*
X111070170Y-126831873D01*
X111061500Y-126825375D01*
X111034318Y-126832572D01*
X111029750Y-126855251D01*
X110982320Y-126855251D01*
X110980977Y-126803681D01*
X110994993Y-126767638D01*
X111011446Y-126769500D01*
X111023233Y-126766989D01*
X111006212Y-126741235D01*
X110989303Y-126698375D01*
X110998000Y-126698375D01*
X111013875Y-126714250D01*
X111029750Y-126698375D01*
X111013875Y-126682500D01*
X110998000Y-126698375D01*
X110989303Y-126698375D01*
X110984718Y-126686756D01*
X111010850Y-126653534D01*
X111029959Y-126650750D01*
X111052510Y-126678913D01*
G36*
X110479051Y-125660472D02*
G01*
X110527347Y-125729151D01*
X110588798Y-125828052D01*
X110615221Y-125873401D01*
X110679794Y-125983116D01*
X110734442Y-126070238D01*
X110770369Y-126120963D01*
X110777317Y-126127843D01*
X110802791Y-126165817D01*
X110834021Y-126240264D01*
X110841534Y-126262254D01*
X110871665Y-126342072D01*
X110898078Y-126391800D01*
X110902920Y-126396750D01*
X110931532Y-126433486D01*
X110971560Y-126502423D01*
X110976909Y-126512716D01*
X111008255Y-126580867D01*
X111007905Y-126614199D01*
X110978045Y-126632047D01*
X110943256Y-126669438D01*
X110944599Y-126694773D01*
X110939681Y-126752827D01*
X110924346Y-126775203D01*
X110905559Y-126814206D01*
X110930697Y-126838900D01*
X110961350Y-126884752D01*
X110959856Y-126908056D01*
X110938881Y-126903553D01*
X110896019Y-126853450D01*
X110839656Y-126767967D01*
X110826052Y-126745041D01*
X110758113Y-126633755D01*
X110693187Y-126536323D01*
X110644896Y-126473144D01*
X110643428Y-126471537D01*
X110604427Y-126412243D01*
X110614612Y-126382350D01*
X110647002Y-126339209D01*
X110648750Y-126327488D01*
X110631359Y-126313417D01*
X110603102Y-126331609D01*
X110566440Y-126347234D01*
X110532592Y-126316975D01*
X110507523Y-126272937D01*
X110506844Y-126271957D01*
X110541066Y-126271957D01*
X110543461Y-126289384D01*
X110571934Y-126318271D01*
X110593334Y-126306115D01*
X110647619Y-126287389D01*
X110668493Y-126291502D01*
X110705413Y-126287781D01*
X110708750Y-126254467D01*
X110680215Y-126221949D01*
X110623142Y-126211337D01*
X110568165Y-126232245D01*
X110541066Y-126271957D01*
X110506844Y-126271957D01*
X110453460Y-126194975D01*
X110392789Y-126141706D01*
X110391958Y-126141256D01*
X110345032Y-126093876D01*
X110345028Y-126078645D01*
X110363000Y-126078645D01*
X110390943Y-126110241D01*
X110459833Y-126132402D01*
X110547259Y-126139940D01*
X110604004Y-126134428D01*
X110672424Y-126141069D01*
X110713193Y-126195707D01*
X110728475Y-126302830D01*
X110726617Y-126388976D01*
X110727919Y-126476074D01*
X110740478Y-126533058D01*
X110747296Y-126541662D01*
X110771474Y-126532232D01*
X110775750Y-126507875D01*
X110788484Y-126472022D01*
X110802469Y-126473015D01*
X110819685Y-126513193D01*
X110823448Y-126586014D01*
X110827570Y-126653291D01*
X110845460Y-126682465D01*
X110846228Y-126682500D01*
X110860413Y-126702253D01*
X110855125Y-126714250D01*
X110857642Y-126743507D01*
X110869126Y-126746000D01*
X110901561Y-126735824D01*
X110902750Y-126732191D01*
X110892670Y-126695600D01*
X110871095Y-126635127D01*
X110864825Y-126613671D01*
X110906452Y-126613671D01*
X110911114Y-126641436D01*
X110934500Y-126634875D01*
X110962125Y-126589564D01*
X110965763Y-126561563D01*
X110960625Y-126526031D01*
X110938676Y-126549110D01*
X110934500Y-126555500D01*
X110906452Y-126613671D01*
X110864825Y-126613671D01*
X110854579Y-126578617D01*
X110868767Y-126570537D01*
X110876491Y-126574768D01*
X110900239Y-126576180D01*
X110893267Y-126544833D01*
X110892904Y-126499656D01*
X110911683Y-126491034D01*
X110920952Y-126478088D01*
X110894812Y-126457706D01*
X110848568Y-126407869D01*
X110839250Y-126374149D01*
X110826006Y-126321142D01*
X110792784Y-126248073D01*
X110749348Y-126171075D01*
X110705461Y-126106279D01*
X110670887Y-126069820D01*
X110656434Y-126072072D01*
X110618539Y-126101535D01*
X110562841Y-126111000D01*
X110508605Y-126105291D01*
X110508162Y-126081309D01*
X110521015Y-126064260D01*
X110542232Y-126016770D01*
X110511295Y-125969010D01*
X110473334Y-125937337D01*
X110593461Y-125937337D01*
X110599819Y-125950137D01*
X110630094Y-125982962D01*
X110635663Y-125959813D01*
X110627956Y-125935005D01*
X110604581Y-125900428D01*
X110594023Y-125901143D01*
X110593461Y-125937337D01*
X110473334Y-125937337D01*
X110459689Y-125925953D01*
X110441334Y-125935745D01*
X110449050Y-125984000D01*
X110446933Y-126036026D01*
X110414328Y-126047500D01*
X110369747Y-126063257D01*
X110363000Y-126078645D01*
X110345028Y-126078645D01*
X110345022Y-126057404D01*
X110345705Y-126022929D01*
X110316751Y-126026703D01*
X110266692Y-126028465D01*
X110253242Y-126017962D01*
X110206028Y-125988926D01*
X110124524Y-125970363D01*
X110037557Y-125965773D01*
X109973953Y-125978655D01*
X109967062Y-125983222D01*
X109938745Y-126029354D01*
X109917944Y-126100936D01*
X109908366Y-126174529D01*
X109913722Y-126226690D01*
X109926749Y-126238000D01*
X109939904Y-126257744D01*
X109934780Y-126269093D01*
X109932767Y-126318997D01*
X109948757Y-126362211D01*
X109963701Y-126413139D01*
X109927141Y-126441286D01*
X109912540Y-126446266D01*
X109864745Y-126466330D01*
X109874177Y-126489970D01*
X109898589Y-126508850D01*
X109933021Y-126547978D01*
X109916850Y-126572394D01*
X109870858Y-126570436D01*
X109851936Y-126551630D01*
X109828827Y-126526800D01*
X109823736Y-126547873D01*
X109845468Y-126597380D01*
X109885123Y-126640849D01*
X109926738Y-126692610D01*
X109924460Y-126727248D01*
X109880769Y-126729191D01*
X109871548Y-126725990D01*
X109843664Y-126723026D01*
X109850250Y-126757260D01*
X109863715Y-126787336D01*
X109893777Y-126839758D01*
X109919914Y-126839093D01*
X109943044Y-126813897D01*
X109971754Y-126783736D01*
X109974297Y-126804729D01*
X109966252Y-126841250D01*
X109956156Y-126892542D01*
X109967143Y-126887580D01*
X109982991Y-126863400D01*
X110000856Y-126795399D01*
X109989137Y-126768150D01*
X109975220Y-126730125D01*
X110013750Y-126730125D01*
X110029625Y-126746000D01*
X110045500Y-126730125D01*
X110029625Y-126714250D01*
X110013750Y-126730125D01*
X109975220Y-126730125D01*
X109968097Y-126710664D01*
X109961153Y-126638451D01*
X109992913Y-126638451D01*
X109997875Y-126650750D01*
X110026405Y-126681038D01*
X110031498Y-126682500D01*
X110045135Y-126657935D01*
X110045500Y-126650750D01*
X110021092Y-126620220D01*
X110011876Y-126619000D01*
X109992913Y-126638451D01*
X109961153Y-126638451D01*
X109960652Y-126633246D01*
X109954179Y-126551445D01*
X109938273Y-126498308D01*
X109933686Y-126464637D01*
X109945058Y-126460250D01*
X109976713Y-126486576D01*
X110018093Y-126550817D01*
X110058197Y-126630864D01*
X110086023Y-126704609D01*
X110090570Y-126749944D01*
X110089872Y-126751263D01*
X110094612Y-126776657D01*
X110102029Y-126777750D01*
X110133424Y-126803759D01*
X110167919Y-126865062D01*
X110191321Y-126922632D01*
X110186144Y-126927091D01*
X110153857Y-126888875D01*
X110117141Y-126845849D01*
X110111873Y-126854544D01*
X110123730Y-126896812D01*
X110128735Y-126953390D01*
X110098236Y-126968250D01*
X110065587Y-126947556D01*
X110069035Y-126896812D01*
X110075444Y-126849001D01*
X110066780Y-126843177D01*
X110045737Y-126886329D01*
X110037361Y-126922552D01*
X110015677Y-126997373D01*
X110001137Y-127026859D01*
X109999402Y-127083969D01*
X110025868Y-127120975D01*
X110064855Y-127153411D01*
X110077211Y-127137942D01*
X110077736Y-127125866D01*
X110082985Y-127096062D01*
X110105474Y-127121589D01*
X110109000Y-127127000D01*
X110130067Y-127154756D01*
X110141823Y-127146158D01*
X110149343Y-127090675D01*
X110153658Y-127034350D01*
X110182586Y-126984650D01*
X110200928Y-126974648D01*
X110229764Y-126978559D01*
X110227749Y-127027551D01*
X110223965Y-127043625D01*
X110227681Y-127151352D01*
X110251346Y-127201112D01*
X110280383Y-127260905D01*
X110280272Y-127294393D01*
X110284132Y-127329979D01*
X110318166Y-127393657D01*
X110329932Y-127410900D01*
X110377690Y-127506340D01*
X110378881Y-127571478D01*
X110348198Y-127623850D01*
X110315558Y-127630603D01*
X110299532Y-127588456D01*
X110299500Y-127585501D01*
X110315972Y-127553368D01*
X110333872Y-127557245D01*
X110346890Y-127552237D01*
X110333010Y-127512060D01*
X110301462Y-127453768D01*
X110261477Y-127394412D01*
X110222286Y-127351044D01*
X110222218Y-127350987D01*
X110181445Y-127325996D01*
X110175305Y-127341525D01*
X110201270Y-127386599D01*
X110241416Y-127434390D01*
X110282861Y-127490819D01*
X110289792Y-127528079D01*
X110288713Y-127529369D01*
X110256009Y-127526199D01*
X110213757Y-127480128D01*
X110174145Y-127407918D01*
X110152373Y-127341827D01*
X110130944Y-127284517D01*
X110107846Y-127270588D01*
X110076173Y-127258151D01*
X110047145Y-127222250D01*
X110077250Y-127222250D01*
X110088866Y-127248383D01*
X110098416Y-127243416D01*
X110101768Y-127210174D01*
X110159386Y-127210174D01*
X110184849Y-127253558D01*
X110230097Y-127281569D01*
X110247825Y-127283243D01*
X110261289Y-127273869D01*
X110243937Y-127264722D01*
X110207893Y-127222878D01*
X110204250Y-127201855D01*
X110187453Y-127171579D01*
X110170958Y-127175577D01*
X110159386Y-127210174D01*
X110101768Y-127210174D01*
X110102216Y-127205736D01*
X110098416Y-127201083D01*
X110079541Y-127205441D01*
X110077250Y-127222250D01*
X110047145Y-127222250D01*
X110034208Y-127206250D01*
X109993485Y-127135048D01*
X109965541Y-127064713D01*
X109961894Y-127015449D01*
X109960004Y-126979395D01*
X109944252Y-126976568D01*
X109914694Y-126953608D01*
X109871906Y-126886193D01*
X109827276Y-126793625D01*
X109783005Y-126693513D01*
X109770152Y-126666625D01*
X109791500Y-126666625D01*
X109807375Y-126682500D01*
X109823250Y-126666625D01*
X109807375Y-126650750D01*
X109791500Y-126666625D01*
X109770152Y-126666625D01*
X109747314Y-126618850D01*
X109728943Y-126587250D01*
X109702391Y-126539625D01*
X109759750Y-126539625D01*
X109775625Y-126555500D01*
X109791500Y-126539625D01*
X109775625Y-126523750D01*
X109759750Y-126539625D01*
X109702391Y-126539625D01*
X109692830Y-126522476D01*
X109668756Y-126423419D01*
X109664080Y-126347301D01*
X109737145Y-126347301D01*
X109742860Y-126393553D01*
X109767484Y-126451288D01*
X109783998Y-126446726D01*
X109791258Y-126380690D01*
X109791500Y-126358650D01*
X109787257Y-126311249D01*
X109826879Y-126311249D01*
X109844416Y-126343833D01*
X109866483Y-126362014D01*
X109874712Y-126340892D01*
X109878020Y-126301500D01*
X109869533Y-126250075D01*
X109853026Y-126238000D01*
X109827319Y-126262002D01*
X109826879Y-126311249D01*
X109787257Y-126311249D01*
X109785626Y-126293031D01*
X109765958Y-126284130D01*
X109756596Y-126291953D01*
X109737145Y-126347301D01*
X109664080Y-126347301D01*
X109662339Y-126318972D01*
X109667752Y-126272564D01*
X109673643Y-126222125D01*
X109728000Y-126222125D01*
X109743875Y-126238000D01*
X109759750Y-126222125D01*
X109743875Y-126206250D01*
X109728000Y-126222125D01*
X109673643Y-126222125D01*
X109678078Y-126184164D01*
X109672471Y-126116753D01*
X109671468Y-126113814D01*
X109663273Y-126081015D01*
X109686635Y-126090378D01*
X109714117Y-126111000D01*
X109771149Y-126160468D01*
X109797711Y-126189455D01*
X109832477Y-126204056D01*
X109841896Y-126198186D01*
X109836050Y-126165261D01*
X109791740Y-126115571D01*
X109788060Y-126112438D01*
X109739526Y-126064908D01*
X109738961Y-126045626D01*
X109823250Y-126045626D01*
X109846297Y-126077957D01*
X109855000Y-126079250D01*
X109885924Y-126068417D01*
X109886750Y-126065248D01*
X109864501Y-126038141D01*
X109855000Y-126031625D01*
X109825742Y-126034142D01*
X109823250Y-126045626D01*
X109738961Y-126045626D01*
X109738641Y-126034713D01*
X109759750Y-126016881D01*
X109832093Y-125988920D01*
X109870875Y-125984000D01*
X109912773Y-125978411D01*
X109896041Y-125957515D01*
X109886750Y-125951118D01*
X109859989Y-125922424D01*
X109878178Y-125888750D01*
X109918500Y-125888750D01*
X109945092Y-125914546D01*
X109982000Y-125920500D01*
X110033592Y-125907203D01*
X110045500Y-125888750D01*
X110018907Y-125862953D01*
X109982000Y-125857000D01*
X109930407Y-125870296D01*
X109918500Y-125888750D01*
X109878178Y-125888750D01*
X109878619Y-125887934D01*
X109910562Y-125859203D01*
X109970038Y-125796627D01*
X109972884Y-125758376D01*
X109919485Y-125747113D01*
X109894687Y-125749137D01*
X109849929Y-125751915D01*
X109864377Y-125743540D01*
X109870875Y-125741652D01*
X109937946Y-125713590D01*
X109964537Y-125695168D01*
X110017620Y-125672463D01*
X110088325Y-125667746D01*
X110142967Y-125681893D01*
X110151418Y-125690312D01*
X110143600Y-125728448D01*
X110121542Y-125755064D01*
X110085401Y-125775228D01*
X110077250Y-125763001D01*
X110053844Y-125731163D01*
X110045500Y-125730000D01*
X110017332Y-125755716D01*
X110013750Y-125777625D01*
X110035222Y-125819802D01*
X110053737Y-125825250D01*
X110100117Y-125849561D01*
X110134082Y-125889871D01*
X110168963Y-125933308D01*
X110207044Y-125929543D01*
X110244033Y-125905746D01*
X110311617Y-125866678D01*
X110347246Y-125860470D01*
X110341494Y-125884634D01*
X110303920Y-125921556D01*
X110254622Y-125965007D01*
X110252860Y-125981446D01*
X110295982Y-125984000D01*
X110359675Y-125987393D01*
X110383648Y-125991937D01*
X110405080Y-125975635D01*
X110414701Y-125925469D01*
X110410522Y-125870312D01*
X110394063Y-125840700D01*
X110386903Y-125806291D01*
X110411893Y-125771820D01*
X110462279Y-125739583D01*
X110484653Y-125753693D01*
X110463899Y-125802321D01*
X110458886Y-125808607D01*
X110439212Y-125847579D01*
X110450965Y-125857000D01*
X110521750Y-125857000D01*
X110533366Y-125883133D01*
X110542916Y-125878166D01*
X110546716Y-125840486D01*
X110542916Y-125835833D01*
X110524041Y-125840191D01*
X110521750Y-125857000D01*
X110450965Y-125857000D01*
X110492189Y-125832194D01*
X110506250Y-125777639D01*
X110488055Y-125723129D01*
X110475853Y-125711462D01*
X110432348Y-125667212D01*
X110434311Y-125638690D01*
X110452587Y-125634750D01*
X110479051Y-125660472D01*
G37*
X110479051Y-125660472D02*
X110527347Y-125729151D01*
X110588798Y-125828052D01*
X110615221Y-125873401D01*
X110679794Y-125983116D01*
X110734442Y-126070238D01*
X110770369Y-126120963D01*
X110777317Y-126127843D01*
X110802791Y-126165817D01*
X110834021Y-126240264D01*
X110841534Y-126262254D01*
X110871665Y-126342072D01*
X110898078Y-126391800D01*
X110902920Y-126396750D01*
X110931532Y-126433486D01*
X110971560Y-126502423D01*
X110976909Y-126512716D01*
X111008255Y-126580867D01*
X111007905Y-126614199D01*
X110978045Y-126632047D01*
X110943256Y-126669438D01*
X110944599Y-126694773D01*
X110939681Y-126752827D01*
X110924346Y-126775203D01*
X110905559Y-126814206D01*
X110930697Y-126838900D01*
X110961350Y-126884752D01*
X110959856Y-126908056D01*
X110938881Y-126903553D01*
X110896019Y-126853450D01*
X110839656Y-126767967D01*
X110826052Y-126745041D01*
X110758113Y-126633755D01*
X110693187Y-126536323D01*
X110644896Y-126473144D01*
X110643428Y-126471537D01*
X110604427Y-126412243D01*
X110614612Y-126382350D01*
X110647002Y-126339209D01*
X110648750Y-126327488D01*
X110631359Y-126313417D01*
X110603102Y-126331609D01*
X110566440Y-126347234D01*
X110532592Y-126316975D01*
X110507523Y-126272937D01*
X110506844Y-126271957D01*
X110541066Y-126271957D01*
X110543461Y-126289384D01*
X110571934Y-126318271D01*
X110593334Y-126306115D01*
X110647619Y-126287389D01*
X110668493Y-126291502D01*
X110705413Y-126287781D01*
X110708750Y-126254467D01*
X110680215Y-126221949D01*
X110623142Y-126211337D01*
X110568165Y-126232245D01*
X110541066Y-126271957D01*
X110506844Y-126271957D01*
X110453460Y-126194975D01*
X110392789Y-126141706D01*
X110391958Y-126141256D01*
X110345032Y-126093876D01*
X110345028Y-126078645D01*
X110363000Y-126078645D01*
X110390943Y-126110241D01*
X110459833Y-126132402D01*
X110547259Y-126139940D01*
X110604004Y-126134428D01*
X110672424Y-126141069D01*
X110713193Y-126195707D01*
X110728475Y-126302830D01*
X110726617Y-126388976D01*
X110727919Y-126476074D01*
X110740478Y-126533058D01*
X110747296Y-126541662D01*
X110771474Y-126532232D01*
X110775750Y-126507875D01*
X110788484Y-126472022D01*
X110802469Y-126473015D01*
X110819685Y-126513193D01*
X110823448Y-126586014D01*
X110827570Y-126653291D01*
X110845460Y-126682465D01*
X110846228Y-126682500D01*
X110860413Y-126702253D01*
X110855125Y-126714250D01*
X110857642Y-126743507D01*
X110869126Y-126746000D01*
X110901561Y-126735824D01*
X110902750Y-126732191D01*
X110892670Y-126695600D01*
X110871095Y-126635127D01*
X110864825Y-126613671D01*
X110906452Y-126613671D01*
X110911114Y-126641436D01*
X110934500Y-126634875D01*
X110962125Y-126589564D01*
X110965763Y-126561563D01*
X110960625Y-126526031D01*
X110938676Y-126549110D01*
X110934500Y-126555500D01*
X110906452Y-126613671D01*
X110864825Y-126613671D01*
X110854579Y-126578617D01*
X110868767Y-126570537D01*
X110876491Y-126574768D01*
X110900239Y-126576180D01*
X110893267Y-126544833D01*
X110892904Y-126499656D01*
X110911683Y-126491034D01*
X110920952Y-126478088D01*
X110894812Y-126457706D01*
X110848568Y-126407869D01*
X110839250Y-126374149D01*
X110826006Y-126321142D01*
X110792784Y-126248073D01*
X110749348Y-126171075D01*
X110705461Y-126106279D01*
X110670887Y-126069820D01*
X110656434Y-126072072D01*
X110618539Y-126101535D01*
X110562841Y-126111000D01*
X110508605Y-126105291D01*
X110508162Y-126081309D01*
X110521015Y-126064260D01*
X110542232Y-126016770D01*
X110511295Y-125969010D01*
X110473334Y-125937337D01*
X110593461Y-125937337D01*
X110599819Y-125950137D01*
X110630094Y-125982962D01*
X110635663Y-125959813D01*
X110627956Y-125935005D01*
X110604581Y-125900428D01*
X110594023Y-125901143D01*
X110593461Y-125937337D01*
X110473334Y-125937337D01*
X110459689Y-125925953D01*
X110441334Y-125935745D01*
X110449050Y-125984000D01*
X110446933Y-126036026D01*
X110414328Y-126047500D01*
X110369747Y-126063257D01*
X110363000Y-126078645D01*
X110345028Y-126078645D01*
X110345022Y-126057404D01*
X110345705Y-126022929D01*
X110316751Y-126026703D01*
X110266692Y-126028465D01*
X110253242Y-126017962D01*
X110206028Y-125988926D01*
X110124524Y-125970363D01*
X110037557Y-125965773D01*
X109973953Y-125978655D01*
X109967062Y-125983222D01*
X109938745Y-126029354D01*
X109917944Y-126100936D01*
X109908366Y-126174529D01*
X109913722Y-126226690D01*
X109926749Y-126238000D01*
X109939904Y-126257744D01*
X109934780Y-126269093D01*
X109932767Y-126318997D01*
X109948757Y-126362211D01*
X109963701Y-126413139D01*
X109927141Y-126441286D01*
X109912540Y-126446266D01*
X109864745Y-126466330D01*
X109874177Y-126489970D01*
X109898589Y-126508850D01*
X109933021Y-126547978D01*
X109916850Y-126572394D01*
X109870858Y-126570436D01*
X109851936Y-126551630D01*
X109828827Y-126526800D01*
X109823736Y-126547873D01*
X109845468Y-126597380D01*
X109885123Y-126640849D01*
X109926738Y-126692610D01*
X109924460Y-126727248D01*
X109880769Y-126729191D01*
X109871548Y-126725990D01*
X109843664Y-126723026D01*
X109850250Y-126757260D01*
X109863715Y-126787336D01*
X109893777Y-126839758D01*
X109919914Y-126839093D01*
X109943044Y-126813897D01*
X109971754Y-126783736D01*
X109974297Y-126804729D01*
X109966252Y-126841250D01*
X109956156Y-126892542D01*
X109967143Y-126887580D01*
X109982991Y-126863400D01*
X110000856Y-126795399D01*
X109989137Y-126768150D01*
X109975220Y-126730125D01*
X110013750Y-126730125D01*
X110029625Y-126746000D01*
X110045500Y-126730125D01*
X110029625Y-126714250D01*
X110013750Y-126730125D01*
X109975220Y-126730125D01*
X109968097Y-126710664D01*
X109961153Y-126638451D01*
X109992913Y-126638451D01*
X109997875Y-126650750D01*
X110026405Y-126681038D01*
X110031498Y-126682500D01*
X110045135Y-126657935D01*
X110045500Y-126650750D01*
X110021092Y-126620220D01*
X110011876Y-126619000D01*
X109992913Y-126638451D01*
X109961153Y-126638451D01*
X109960652Y-126633246D01*
X109954179Y-126551445D01*
X109938273Y-126498308D01*
X109933686Y-126464637D01*
X109945058Y-126460250D01*
X109976713Y-126486576D01*
X110018093Y-126550817D01*
X110058197Y-126630864D01*
X110086023Y-126704609D01*
X110090570Y-126749944D01*
X110089872Y-126751263D01*
X110094612Y-126776657D01*
X110102029Y-126777750D01*
X110133424Y-126803759D01*
X110167919Y-126865062D01*
X110191321Y-126922632D01*
X110186144Y-126927091D01*
X110153857Y-126888875D01*
X110117141Y-126845849D01*
X110111873Y-126854544D01*
X110123730Y-126896812D01*
X110128735Y-126953390D01*
X110098236Y-126968250D01*
X110065587Y-126947556D01*
X110069035Y-126896812D01*
X110075444Y-126849001D01*
X110066780Y-126843177D01*
X110045737Y-126886329D01*
X110037361Y-126922552D01*
X110015677Y-126997373D01*
X110001137Y-127026859D01*
X109999402Y-127083969D01*
X110025868Y-127120975D01*
X110064855Y-127153411D01*
X110077211Y-127137942D01*
X110077736Y-127125866D01*
X110082985Y-127096062D01*
X110105474Y-127121589D01*
X110109000Y-127127000D01*
X110130067Y-127154756D01*
X110141823Y-127146158D01*
X110149343Y-127090675D01*
X110153658Y-127034350D01*
X110182586Y-126984650D01*
X110200928Y-126974648D01*
X110229764Y-126978559D01*
X110227749Y-127027551D01*
X110223965Y-127043625D01*
X110227681Y-127151352D01*
X110251346Y-127201112D01*
X110280383Y-127260905D01*
X110280272Y-127294393D01*
X110284132Y-127329979D01*
X110318166Y-127393657D01*
X110329932Y-127410900D01*
X110377690Y-127506340D01*
X110378881Y-127571478D01*
X110348198Y-127623850D01*
X110315558Y-127630603D01*
X110299532Y-127588456D01*
X110299500Y-127585501D01*
X110315972Y-127553368D01*
X110333872Y-127557245D01*
X110346890Y-127552237D01*
X110333010Y-127512060D01*
X110301462Y-127453768D01*
X110261477Y-127394412D01*
X110222286Y-127351044D01*
X110222218Y-127350987D01*
X110181445Y-127325996D01*
X110175305Y-127341525D01*
X110201270Y-127386599D01*
X110241416Y-127434390D01*
X110282861Y-127490819D01*
X110289792Y-127528079D01*
X110288713Y-127529369D01*
X110256009Y-127526199D01*
X110213757Y-127480128D01*
X110174145Y-127407918D01*
X110152373Y-127341827D01*
X110130944Y-127284517D01*
X110107846Y-127270588D01*
X110076173Y-127258151D01*
X110047145Y-127222250D01*
X110077250Y-127222250D01*
X110088866Y-127248383D01*
X110098416Y-127243416D01*
X110101768Y-127210174D01*
X110159386Y-127210174D01*
X110184849Y-127253558D01*
X110230097Y-127281569D01*
X110247825Y-127283243D01*
X110261289Y-127273869D01*
X110243937Y-127264722D01*
X110207893Y-127222878D01*
X110204250Y-127201855D01*
X110187453Y-127171579D01*
X110170958Y-127175577D01*
X110159386Y-127210174D01*
X110101768Y-127210174D01*
X110102216Y-127205736D01*
X110098416Y-127201083D01*
X110079541Y-127205441D01*
X110077250Y-127222250D01*
X110047145Y-127222250D01*
X110034208Y-127206250D01*
X109993485Y-127135048D01*
X109965541Y-127064713D01*
X109961894Y-127015449D01*
X109960004Y-126979395D01*
X109944252Y-126976568D01*
X109914694Y-126953608D01*
X109871906Y-126886193D01*
X109827276Y-126793625D01*
X109783005Y-126693513D01*
X109770152Y-126666625D01*
X109791500Y-126666625D01*
X109807375Y-126682500D01*
X109823250Y-126666625D01*
X109807375Y-126650750D01*
X109791500Y-126666625D01*
X109770152Y-126666625D01*
X109747314Y-126618850D01*
X109728943Y-126587250D01*
X109702391Y-126539625D01*
X109759750Y-126539625D01*
X109775625Y-126555500D01*
X109791500Y-126539625D01*
X109775625Y-126523750D01*
X109759750Y-126539625D01*
X109702391Y-126539625D01*
X109692830Y-126522476D01*
X109668756Y-126423419D01*
X109664080Y-126347301D01*
X109737145Y-126347301D01*
X109742860Y-126393553D01*
X109767484Y-126451288D01*
X109783998Y-126446726D01*
X109791258Y-126380690D01*
X109791500Y-126358650D01*
X109787257Y-126311249D01*
X109826879Y-126311249D01*
X109844416Y-126343833D01*
X109866483Y-126362014D01*
X109874712Y-126340892D01*
X109878020Y-126301500D01*
X109869533Y-126250075D01*
X109853026Y-126238000D01*
X109827319Y-126262002D01*
X109826879Y-126311249D01*
X109787257Y-126311249D01*
X109785626Y-126293031D01*
X109765958Y-126284130D01*
X109756596Y-126291953D01*
X109737145Y-126347301D01*
X109664080Y-126347301D01*
X109662339Y-126318972D01*
X109667752Y-126272564D01*
X109673643Y-126222125D01*
X109728000Y-126222125D01*
X109743875Y-126238000D01*
X109759750Y-126222125D01*
X109743875Y-126206250D01*
X109728000Y-126222125D01*
X109673643Y-126222125D01*
X109678078Y-126184164D01*
X109672471Y-126116753D01*
X109671468Y-126113814D01*
X109663273Y-126081015D01*
X109686635Y-126090378D01*
X109714117Y-126111000D01*
X109771149Y-126160468D01*
X109797711Y-126189455D01*
X109832477Y-126204056D01*
X109841896Y-126198186D01*
X109836050Y-126165261D01*
X109791740Y-126115571D01*
X109788060Y-126112438D01*
X109739526Y-126064908D01*
X109738961Y-126045626D01*
X109823250Y-126045626D01*
X109846297Y-126077957D01*
X109855000Y-126079250D01*
X109885924Y-126068417D01*
X109886750Y-126065248D01*
X109864501Y-126038141D01*
X109855000Y-126031625D01*
X109825742Y-126034142D01*
X109823250Y-126045626D01*
X109738961Y-126045626D01*
X109738641Y-126034713D01*
X109759750Y-126016881D01*
X109832093Y-125988920D01*
X109870875Y-125984000D01*
X109912773Y-125978411D01*
X109896041Y-125957515D01*
X109886750Y-125951118D01*
X109859989Y-125922424D01*
X109878178Y-125888750D01*
X109918500Y-125888750D01*
X109945092Y-125914546D01*
X109982000Y-125920500D01*
X110033592Y-125907203D01*
X110045500Y-125888750D01*
X110018907Y-125862953D01*
X109982000Y-125857000D01*
X109930407Y-125870296D01*
X109918500Y-125888750D01*
X109878178Y-125888750D01*
X109878619Y-125887934D01*
X109910562Y-125859203D01*
X109970038Y-125796627D01*
X109972884Y-125758376D01*
X109919485Y-125747113D01*
X109894687Y-125749137D01*
X109849929Y-125751915D01*
X109864377Y-125743540D01*
X109870875Y-125741652D01*
X109937946Y-125713590D01*
X109964537Y-125695168D01*
X110017620Y-125672463D01*
X110088325Y-125667746D01*
X110142967Y-125681893D01*
X110151418Y-125690312D01*
X110143600Y-125728448D01*
X110121542Y-125755064D01*
X110085401Y-125775228D01*
X110077250Y-125763001D01*
X110053844Y-125731163D01*
X110045500Y-125730000D01*
X110017332Y-125755716D01*
X110013750Y-125777625D01*
X110035222Y-125819802D01*
X110053737Y-125825250D01*
X110100117Y-125849561D01*
X110134082Y-125889871D01*
X110168963Y-125933308D01*
X110207044Y-125929543D01*
X110244033Y-125905746D01*
X110311617Y-125866678D01*
X110347246Y-125860470D01*
X110341494Y-125884634D01*
X110303920Y-125921556D01*
X110254622Y-125965007D01*
X110252860Y-125981446D01*
X110295982Y-125984000D01*
X110359675Y-125987393D01*
X110383648Y-125991937D01*
X110405080Y-125975635D01*
X110414701Y-125925469D01*
X110410522Y-125870312D01*
X110394063Y-125840700D01*
X110386903Y-125806291D01*
X110411893Y-125771820D01*
X110462279Y-125739583D01*
X110484653Y-125753693D01*
X110463899Y-125802321D01*
X110458886Y-125808607D01*
X110439212Y-125847579D01*
X110450965Y-125857000D01*
X110521750Y-125857000D01*
X110533366Y-125883133D01*
X110542916Y-125878166D01*
X110546716Y-125840486D01*
X110542916Y-125835833D01*
X110524041Y-125840191D01*
X110521750Y-125857000D01*
X110450965Y-125857000D01*
X110492189Y-125832194D01*
X110506250Y-125777639D01*
X110488055Y-125723129D01*
X110475853Y-125711462D01*
X110432348Y-125667212D01*
X110434311Y-125638690D01*
X110452587Y-125634750D01*
X110479051Y-125660472D01*
G36*
X110934500Y-128031875D02*
G01*
X110918625Y-128047750D01*
X110902750Y-128031875D01*
X110918625Y-128016000D01*
X110934500Y-128031875D01*
G37*
X110934500Y-128031875D02*
X110918625Y-128047750D01*
X110902750Y-128031875D01*
X110918625Y-128016000D01*
X110934500Y-128031875D01*
G36*
X110298534Y-127087698D02*
G01*
X110299500Y-127095524D01*
X110320488Y-127150611D01*
X110376805Y-127237832D01*
X110458481Y-127344819D01*
X110555543Y-127459209D01*
X110658022Y-127568635D01*
X110753715Y-127658812D01*
X110862694Y-127734178D01*
X110966259Y-127761459D01*
X110984838Y-127762000D01*
X111096466Y-127762000D01*
X111090676Y-128048167D01*
X111086517Y-128183668D01*
X111079483Y-128265127D01*
X111067679Y-128301993D01*
X111049211Y-128303715D01*
X111040675Y-128297642D01*
X110993847Y-128276327D01*
X110975738Y-128281678D01*
X110981091Y-128313481D01*
X111012624Y-128344534D01*
X111053291Y-128390238D01*
X111057931Y-128418952D01*
X111031965Y-128413840D01*
X110974538Y-128370846D01*
X110897168Y-128298832D01*
X110882488Y-128283959D01*
X110782643Y-128180484D01*
X110725211Y-128114596D01*
X110711316Y-128085338D01*
X110792779Y-128085338D01*
X110795352Y-128120651D01*
X110833791Y-128176178D01*
X110836057Y-128178637D01*
X110883225Y-128236859D01*
X110902750Y-128275986D01*
X110914297Y-128301673D01*
X110915266Y-128301750D01*
X110923107Y-128274588D01*
X110923203Y-128222397D01*
X110907040Y-128162668D01*
X110881583Y-128143022D01*
X110878665Y-128141330D01*
X110970759Y-128141330D01*
X110971781Y-128204537D01*
X111003775Y-128248031D01*
X111005937Y-128248972D01*
X111044362Y-128265240D01*
X111048737Y-128267493D01*
X111050776Y-128239595D01*
X111053339Y-128163507D01*
X111055931Y-128054530D01*
X111056375Y-128031875D01*
X111055167Y-127918089D01*
X111047850Y-127833899D01*
X111035923Y-127794802D01*
X111033351Y-127793750D01*
X111019953Y-127821788D01*
X111018109Y-127892592D01*
X111021437Y-127932487D01*
X111024045Y-128031139D01*
X111007436Y-128087972D01*
X111001662Y-128093111D01*
X110970759Y-128141330D01*
X110878665Y-128141330D01*
X110838132Y-128117830D01*
X110830367Y-128103312D01*
X110804270Y-128079878D01*
X110792779Y-128085338D01*
X110711316Y-128085338D01*
X110708106Y-128078579D01*
X110729242Y-128064719D01*
X110786534Y-128065301D01*
X110824185Y-128068271D01*
X110911756Y-128072601D01*
X110953277Y-128061260D01*
X110965663Y-128026799D01*
X110966250Y-128005719D01*
X110945536Y-127946464D01*
X110894384Y-127931883D01*
X110829280Y-127963863D01*
X110805461Y-127987298D01*
X110744766Y-128028842D01*
X110700624Y-128035765D01*
X110641086Y-128008195D01*
X110577752Y-127953181D01*
X110527129Y-127889305D01*
X110521596Y-127875306D01*
X110559634Y-127875306D01*
X110592749Y-127921615D01*
X110650771Y-127950321D01*
X110671909Y-127952500D01*
X110725761Y-127946857D01*
X110725752Y-127922710D01*
X110712250Y-127904875D01*
X110690998Y-127865423D01*
X110708362Y-127857250D01*
X110739628Y-127831471D01*
X110744000Y-127807824D01*
X110749739Y-127776148D01*
X110778195Y-127783603D01*
X110814564Y-127807824D01*
X110892157Y-127848788D01*
X110947419Y-127853025D01*
X110966250Y-127823626D01*
X110946351Y-127805690D01*
X110930950Y-127811818D01*
X110885958Y-127814815D01*
X110875387Y-127805755D01*
X110831129Y-127764982D01*
X110774299Y-127733269D01*
X110727435Y-127720789D01*
X110712250Y-127732120D01*
X110687548Y-127751849D01*
X110648750Y-127746125D01*
X110597536Y-127737758D01*
X110589855Y-127765021D01*
X110618117Y-127827587D01*
X110634767Y-127878133D01*
X110618117Y-127889000D01*
X110587112Y-127864223D01*
X110585250Y-127851958D01*
X110574883Y-127828021D01*
X110568627Y-127831539D01*
X110559634Y-127875306D01*
X110521596Y-127875306D01*
X110505725Y-127835151D01*
X110509142Y-127820213D01*
X110512504Y-127798599D01*
X110498378Y-127804446D01*
X110459770Y-127795910D01*
X110414097Y-127746969D01*
X110373648Y-127681295D01*
X110368880Y-127652599D01*
X110399272Y-127645688D01*
X110410625Y-127645583D01*
X110452777Y-127668274D01*
X110458250Y-127687916D01*
X110478585Y-127726633D01*
X110492328Y-127730250D01*
X110515604Y-127705143D01*
X110514924Y-127674687D01*
X110482677Y-127629223D01*
X110455446Y-127622476D01*
X110420537Y-127603364D01*
X110407717Y-127533549D01*
X110407450Y-127515568D01*
X110390538Y-127418610D01*
X110387196Y-127413851D01*
X110427465Y-127413851D01*
X110447461Y-127470018D01*
X110497516Y-127543161D01*
X110560304Y-127612872D01*
X110618497Y-127658745D01*
X110641907Y-127666419D01*
X110647607Y-127647813D01*
X110613655Y-127600645D01*
X110591149Y-127577267D01*
X110522157Y-127503245D01*
X110469970Y-127436022D01*
X110464020Y-127426454D01*
X110436787Y-127389415D01*
X110427623Y-127408950D01*
X110427465Y-127413851D01*
X110387196Y-127413851D01*
X110353475Y-127365842D01*
X110309581Y-127323152D01*
X110299500Y-127301141D01*
X110319032Y-127300654D01*
X110363000Y-127333375D01*
X110410950Y-127369332D01*
X110423403Y-127362059D01*
X110402692Y-127319325D01*
X110351154Y-127248899D01*
X110329959Y-127223449D01*
X110260880Y-127134887D01*
X110238035Y-127083245D01*
X110259626Y-127063907D01*
X110267750Y-127063500D01*
X110298534Y-127087698D01*
G37*
X110298534Y-127087698D02*
X110299500Y-127095524D01*
X110320488Y-127150611D01*
X110376805Y-127237832D01*
X110458481Y-127344819D01*
X110555543Y-127459209D01*
X110658022Y-127568635D01*
X110753715Y-127658812D01*
X110862694Y-127734178D01*
X110966259Y-127761459D01*
X110984838Y-127762000D01*
X111096466Y-127762000D01*
X111090676Y-128048167D01*
X111086517Y-128183668D01*
X111079483Y-128265127D01*
X111067679Y-128301993D01*
X111049211Y-128303715D01*
X111040675Y-128297642D01*
X110993847Y-128276327D01*
X110975738Y-128281678D01*
X110981091Y-128313481D01*
X111012624Y-128344534D01*
X111053291Y-128390238D01*
X111057931Y-128418952D01*
X111031965Y-128413840D01*
X110974538Y-128370846D01*
X110897168Y-128298832D01*
X110882488Y-128283959D01*
X110782643Y-128180484D01*
X110725211Y-128114596D01*
X110711316Y-128085338D01*
X110792779Y-128085338D01*
X110795352Y-128120651D01*
X110833791Y-128176178D01*
X110836057Y-128178637D01*
X110883225Y-128236859D01*
X110902750Y-128275986D01*
X110914297Y-128301673D01*
X110915266Y-128301750D01*
X110923107Y-128274588D01*
X110923203Y-128222397D01*
X110907040Y-128162668D01*
X110881583Y-128143022D01*
X110878665Y-128141330D01*
X110970759Y-128141330D01*
X110971781Y-128204537D01*
X111003775Y-128248031D01*
X111005937Y-128248972D01*
X111044362Y-128265240D01*
X111048737Y-128267493D01*
X111050776Y-128239595D01*
X111053339Y-128163507D01*
X111055931Y-128054530D01*
X111056375Y-128031875D01*
X111055167Y-127918089D01*
X111047850Y-127833899D01*
X111035923Y-127794802D01*
X111033351Y-127793750D01*
X111019953Y-127821788D01*
X111018109Y-127892592D01*
X111021437Y-127932487D01*
X111024045Y-128031139D01*
X111007436Y-128087972D01*
X111001662Y-128093111D01*
X110970759Y-128141330D01*
X110878665Y-128141330D01*
X110838132Y-128117830D01*
X110830367Y-128103312D01*
X110804270Y-128079878D01*
X110792779Y-128085338D01*
X110711316Y-128085338D01*
X110708106Y-128078579D01*
X110729242Y-128064719D01*
X110786534Y-128065301D01*
X110824185Y-128068271D01*
X110911756Y-128072601D01*
X110953277Y-128061260D01*
X110965663Y-128026799D01*
X110966250Y-128005719D01*
X110945536Y-127946464D01*
X110894384Y-127931883D01*
X110829280Y-127963863D01*
X110805461Y-127987298D01*
X110744766Y-128028842D01*
X110700624Y-128035765D01*
X110641086Y-128008195D01*
X110577752Y-127953181D01*
X110527129Y-127889305D01*
X110521596Y-127875306D01*
X110559634Y-127875306D01*
X110592749Y-127921615D01*
X110650771Y-127950321D01*
X110671909Y-127952500D01*
X110725761Y-127946857D01*
X110725752Y-127922710D01*
X110712250Y-127904875D01*
X110690998Y-127865423D01*
X110708362Y-127857250D01*
X110739628Y-127831471D01*
X110744000Y-127807824D01*
X110749739Y-127776148D01*
X110778195Y-127783603D01*
X110814564Y-127807824D01*
X110892157Y-127848788D01*
X110947419Y-127853025D01*
X110966250Y-127823626D01*
X110946351Y-127805690D01*
X110930950Y-127811818D01*
X110885958Y-127814815D01*
X110875387Y-127805755D01*
X110831129Y-127764982D01*
X110774299Y-127733269D01*
X110727435Y-127720789D01*
X110712250Y-127732120D01*
X110687548Y-127751849D01*
X110648750Y-127746125D01*
X110597536Y-127737758D01*
X110589855Y-127765021D01*
X110618117Y-127827587D01*
X110634767Y-127878133D01*
X110618117Y-127889000D01*
X110587112Y-127864223D01*
X110585250Y-127851958D01*
X110574883Y-127828021D01*
X110568627Y-127831539D01*
X110559634Y-127875306D01*
X110521596Y-127875306D01*
X110505725Y-127835151D01*
X110509142Y-127820213D01*
X110512504Y-127798599D01*
X110498378Y-127804446D01*
X110459770Y-127795910D01*
X110414097Y-127746969D01*
X110373648Y-127681295D01*
X110368880Y-127652599D01*
X110399272Y-127645688D01*
X110410625Y-127645583D01*
X110452777Y-127668274D01*
X110458250Y-127687916D01*
X110478585Y-127726633D01*
X110492328Y-127730250D01*
X110515604Y-127705143D01*
X110514924Y-127674687D01*
X110482677Y-127629223D01*
X110455446Y-127622476D01*
X110420537Y-127603364D01*
X110407717Y-127533549D01*
X110407450Y-127515568D01*
X110390538Y-127418610D01*
X110387196Y-127413851D01*
X110427465Y-127413851D01*
X110447461Y-127470018D01*
X110497516Y-127543161D01*
X110560304Y-127612872D01*
X110618497Y-127658745D01*
X110641907Y-127666419D01*
X110647607Y-127647813D01*
X110613655Y-127600645D01*
X110591149Y-127577267D01*
X110522157Y-127503245D01*
X110469970Y-127436022D01*
X110464020Y-127426454D01*
X110436787Y-127389415D01*
X110427623Y-127408950D01*
X110427465Y-127413851D01*
X110387196Y-127413851D01*
X110353475Y-127365842D01*
X110309581Y-127323152D01*
X110299500Y-127301141D01*
X110319032Y-127300654D01*
X110363000Y-127333375D01*
X110410950Y-127369332D01*
X110423403Y-127362059D01*
X110402692Y-127319325D01*
X110351154Y-127248899D01*
X110329959Y-127223449D01*
X110260880Y-127134887D01*
X110238035Y-127083245D01*
X110259626Y-127063907D01*
X110267750Y-127063500D01*
X110298534Y-127087698D01*
G36*
X114102202Y-125799737D02*
G01*
X114353843Y-125885658D01*
X114398108Y-125906933D01*
X114576036Y-126023490D01*
X114696771Y-126167231D01*
X114761387Y-126340103D01*
X114770963Y-126544054D01*
X114767869Y-126576119D01*
X114749144Y-126688352D01*
X114716392Y-126746093D01*
X114656744Y-126756767D01*
X114557330Y-126727802D01*
X114525961Y-126715712D01*
X114368614Y-126674225D01*
X114178687Y-126654686D01*
X113983695Y-126658525D01*
X113839625Y-126680051D01*
X113788725Y-126693519D01*
X113784588Y-126703839D01*
X113833175Y-126715494D01*
X113901877Y-126726868D01*
X114070879Y-126764398D01*
X114235829Y-126819581D01*
X114377662Y-126884810D01*
X114477310Y-126952477D01*
X114484432Y-126959296D01*
X114533082Y-127019647D01*
X114550570Y-127085983D01*
X114545513Y-127180311D01*
X114520171Y-127307073D01*
X114473774Y-127378608D01*
X114397774Y-127401945D01*
X114294298Y-127386873D01*
X114182023Y-127370558D01*
X114046156Y-127366905D01*
X113970215Y-127371490D01*
X113783682Y-127390742D01*
X113875153Y-127437268D01*
X114002221Y-127519314D01*
X114093783Y-127613596D01*
X114138599Y-127707599D01*
X114141250Y-127733593D01*
X114133648Y-127835293D01*
X114101753Y-127892042D01*
X114031930Y-127916319D01*
X113936769Y-127920750D01*
X113839437Y-127924135D01*
X113770618Y-127932807D01*
X113751692Y-127939890D01*
X113760142Y-127970670D01*
X113805683Y-128021620D01*
X113816697Y-128031409D01*
X113860818Y-128078116D01*
X113877059Y-128126561D01*
X113861639Y-128185805D01*
X113810776Y-128264906D01*
X113720687Y-128372924D01*
X113634268Y-128468413D01*
X113551083Y-128552167D01*
X113443019Y-128651508D01*
X113320598Y-128757862D01*
X113194341Y-128862657D01*
X113074770Y-128957320D01*
X112972406Y-129033276D01*
X112897769Y-129081953D01*
X112864691Y-129095500D01*
X112868105Y-129069042D01*
X112895006Y-128997566D01*
X112940611Y-128892914D01*
X112983237Y-128801812D01*
X113129346Y-128441038D01*
X113246626Y-128029104D01*
X113331072Y-127587043D01*
X113364261Y-127326124D01*
X113375390Y-127111166D01*
X113362333Y-126927839D01*
X113322962Y-126761811D01*
X113255147Y-126598754D01*
X113158949Y-126427875D01*
X113032015Y-126222125D01*
X113179287Y-126085075D01*
X113395933Y-125919612D01*
X113622479Y-125816827D01*
X113858158Y-125776831D01*
X114102202Y-125799737D01*
G37*
X114102202Y-125799737D02*
X114353843Y-125885658D01*
X114398108Y-125906933D01*
X114576036Y-126023490D01*
X114696771Y-126167231D01*
X114761387Y-126340103D01*
X114770963Y-126544054D01*
X114767869Y-126576119D01*
X114749144Y-126688352D01*
X114716392Y-126746093D01*
X114656744Y-126756767D01*
X114557330Y-126727802D01*
X114525961Y-126715712D01*
X114368614Y-126674225D01*
X114178687Y-126654686D01*
X113983695Y-126658525D01*
X113839625Y-126680051D01*
X113788725Y-126693519D01*
X113784588Y-126703839D01*
X113833175Y-126715494D01*
X113901877Y-126726868D01*
X114070879Y-126764398D01*
X114235829Y-126819581D01*
X114377662Y-126884810D01*
X114477310Y-126952477D01*
X114484432Y-126959296D01*
X114533082Y-127019647D01*
X114550570Y-127085983D01*
X114545513Y-127180311D01*
X114520171Y-127307073D01*
X114473774Y-127378608D01*
X114397774Y-127401945D01*
X114294298Y-127386873D01*
X114182023Y-127370558D01*
X114046156Y-127366905D01*
X113970215Y-127371490D01*
X113783682Y-127390742D01*
X113875153Y-127437268D01*
X114002221Y-127519314D01*
X114093783Y-127613596D01*
X114138599Y-127707599D01*
X114141250Y-127733593D01*
X114133648Y-127835293D01*
X114101753Y-127892042D01*
X114031930Y-127916319D01*
X113936769Y-127920750D01*
X113839437Y-127924135D01*
X113770618Y-127932807D01*
X113751692Y-127939890D01*
X113760142Y-127970670D01*
X113805683Y-128021620D01*
X113816697Y-128031409D01*
X113860818Y-128078116D01*
X113877059Y-128126561D01*
X113861639Y-128185805D01*
X113810776Y-128264906D01*
X113720687Y-128372924D01*
X113634268Y-128468413D01*
X113551083Y-128552167D01*
X113443019Y-128651508D01*
X113320598Y-128757862D01*
X113194341Y-128862657D01*
X113074770Y-128957320D01*
X112972406Y-129033276D01*
X112897769Y-129081953D01*
X112864691Y-129095500D01*
X112868105Y-129069042D01*
X112895006Y-128997566D01*
X112940611Y-128892914D01*
X112983237Y-128801812D01*
X113129346Y-128441038D01*
X113246626Y-128029104D01*
X113331072Y-127587043D01*
X113364261Y-127326124D01*
X113375390Y-127111166D01*
X113362333Y-126927839D01*
X113322962Y-126761811D01*
X113255147Y-126598754D01*
X113158949Y-126427875D01*
X113032015Y-126222125D01*
X113179287Y-126085075D01*
X113395933Y-125919612D01*
X113622479Y-125816827D01*
X113858158Y-125776831D01*
X114102202Y-125799737D01*
G36*
X107092750Y-130102300D02*
G01*
X107144220Y-130127431D01*
X107156250Y-130146953D01*
X107149572Y-130171546D01*
X107148312Y-130171316D01*
X107115148Y-130161282D01*
X107084812Y-130153113D01*
X107037754Y-130128385D01*
X107029250Y-130112144D01*
X107054594Y-130097665D01*
X107092750Y-130102300D01*
G37*
X107092750Y-130102300D02*
X107144220Y-130127431D01*
X107156250Y-130146953D01*
X107149572Y-130171546D01*
X107148312Y-130171316D01*
X107115148Y-130161282D01*
X107084812Y-130153113D01*
X107037754Y-130128385D01*
X107029250Y-130112144D01*
X107054594Y-130097665D01*
X107092750Y-130102300D01*
G36*
X106978971Y-130054429D02*
G01*
X106989022Y-130119334D01*
X106985617Y-130147100D01*
X106981883Y-130214210D01*
X107000167Y-130238500D01*
X107016883Y-130218353D01*
X107010040Y-130201354D01*
X107008464Y-130177752D01*
X107042513Y-130185479D01*
X107099975Y-130203857D01*
X107119159Y-130207236D01*
X107116162Y-130220829D01*
X107095100Y-130236375D01*
X107053147Y-130288775D01*
X107039432Y-130356895D01*
X107058778Y-130410521D01*
X107066349Y-130416430D01*
X107087625Y-130419712D01*
X107080062Y-130402407D01*
X107075726Y-130347837D01*
X107090066Y-130310188D01*
X107112176Y-130281895D01*
X107121661Y-130305141D01*
X107123534Y-130355688D01*
X107113315Y-130440793D01*
X107085542Y-130476556D01*
X107047622Y-130457191D01*
X107029374Y-130429233D01*
X107009371Y-130366050D01*
X107013780Y-130333093D01*
X107011366Y-130304280D01*
X107000648Y-130302000D01*
X106973329Y-130274780D01*
X106943009Y-130209332D01*
X106917673Y-130129969D01*
X106914361Y-130111500D01*
X106934000Y-130111500D01*
X106945616Y-130137633D01*
X106955166Y-130132666D01*
X106958966Y-130094986D01*
X106955166Y-130090333D01*
X106936291Y-130094691D01*
X106934000Y-130111500D01*
X106914361Y-130111500D01*
X106905302Y-130061004D01*
X106910925Y-130028740D01*
X106949309Y-130018480D01*
X106978971Y-130054429D01*
G37*
X106978971Y-130054429D02*
X106989022Y-130119334D01*
X106985617Y-130147100D01*
X106981883Y-130214210D01*
X107000167Y-130238500D01*
X107016883Y-130218353D01*
X107010040Y-130201354D01*
X107008464Y-130177752D01*
X107042513Y-130185479D01*
X107099975Y-130203857D01*
X107119159Y-130207236D01*
X107116162Y-130220829D01*
X107095100Y-130236375D01*
X107053147Y-130288775D01*
X107039432Y-130356895D01*
X107058778Y-130410521D01*
X107066349Y-130416430D01*
X107087625Y-130419712D01*
X107080062Y-130402407D01*
X107075726Y-130347837D01*
X107090066Y-130310188D01*
X107112176Y-130281895D01*
X107121661Y-130305141D01*
X107123534Y-130355688D01*
X107113315Y-130440793D01*
X107085542Y-130476556D01*
X107047622Y-130457191D01*
X107029374Y-130429233D01*
X107009371Y-130366050D01*
X107013780Y-130333093D01*
X107011366Y-130304280D01*
X107000648Y-130302000D01*
X106973329Y-130274780D01*
X106943009Y-130209332D01*
X106917673Y-130129969D01*
X106914361Y-130111500D01*
X106934000Y-130111500D01*
X106945616Y-130137633D01*
X106955166Y-130132666D01*
X106958966Y-130094986D01*
X106955166Y-130090333D01*
X106936291Y-130094691D01*
X106934000Y-130111500D01*
X106914361Y-130111500D01*
X106905302Y-130061004D01*
X106910925Y-130028740D01*
X106949309Y-130018480D01*
X106978971Y-130054429D01*
G36*
X109070722Y-121312382D02*
G01*
X109312352Y-121424329D01*
X109548077Y-121594553D01*
X109775476Y-121820450D01*
X109992126Y-122099411D01*
X110195606Y-122428832D01*
X110383495Y-122806106D01*
X110484885Y-123047125D01*
X110582411Y-123299046D01*
X110667648Y-123531832D01*
X110744189Y-123757514D01*
X110815630Y-123988122D01*
X110885566Y-124235687D01*
X110957590Y-124512240D01*
X111035299Y-124829812D01*
X111101504Y-125110875D01*
X111149428Y-125319881D01*
X111184240Y-125483763D01*
X111208028Y-125619052D01*
X111222879Y-125742278D01*
X111230881Y-125869972D01*
X111234120Y-126018665D01*
X111234686Y-126165606D01*
X111232454Y-126370859D01*
X111225831Y-126529108D01*
X111215177Y-126634915D01*
X111200849Y-126682840D01*
X111200578Y-126683121D01*
X111174308Y-126680920D01*
X111132756Y-126632010D01*
X111072774Y-126531972D01*
X111014518Y-126422140D01*
X110783886Y-125988749D01*
X110568619Y-125616212D01*
X110368102Y-125303929D01*
X110181721Y-125051297D01*
X110008862Y-124857716D01*
X109848910Y-124722582D01*
X109701251Y-124645295D01*
X109565269Y-124625253D01*
X109440351Y-124661854D01*
X109325882Y-124754497D01*
X109319011Y-124762191D01*
X109239777Y-124874786D01*
X109186050Y-125008902D01*
X109154575Y-125177049D01*
X109142100Y-125391733D01*
X109141588Y-125444250D01*
X109150338Y-125670219D01*
X109180937Y-125881684D01*
X109237645Y-126093958D01*
X109324728Y-126322351D01*
X109446447Y-126582175D01*
X109473057Y-126634822D01*
X109762477Y-127151082D01*
X110079977Y-127617938D01*
X110432773Y-128045959D01*
X110446884Y-128061502D01*
X110619942Y-128252626D01*
X110754131Y-128404366D01*
X110854231Y-128523457D01*
X110925022Y-128616632D01*
X110971286Y-128690628D01*
X110997803Y-128752177D01*
X111009352Y-128808016D01*
X111010970Y-128856154D01*
X110979511Y-129032212D01*
X110897276Y-129220101D01*
X110771567Y-129405984D01*
X110651223Y-129537617D01*
X110497301Y-129670693D01*
X110327566Y-129784760D01*
X110127580Y-129888009D01*
X109882905Y-129988631D01*
X109807375Y-130016388D01*
X109546615Y-130119760D01*
X109293345Y-130237712D01*
X109061684Y-130362712D01*
X108865750Y-130487226D01*
X108737885Y-130587015D01*
X108650843Y-130663310D01*
X108583740Y-130719720D01*
X108549036Y-130745823D01*
X108547195Y-130746500D01*
X108523093Y-130723555D01*
X108472357Y-130663943D01*
X108417860Y-130595687D01*
X108300280Y-130444875D01*
X108371202Y-130397652D01*
X108545136Y-130247033D01*
X108665087Y-130064642D01*
X108729707Y-129854230D01*
X108737646Y-129619551D01*
X108711021Y-129452497D01*
X108687793Y-129384584D01*
X108640328Y-129270517D01*
X108573312Y-129120673D01*
X108491431Y-128945429D01*
X108399373Y-128755161D01*
X108361883Y-128679445D01*
X108067176Y-128070931D01*
X107811479Y-127504960D01*
X107592761Y-126975622D01*
X107408995Y-126477003D01*
X107258150Y-126003191D01*
X107138196Y-125548274D01*
X107047105Y-125106340D01*
X106982847Y-124671476D01*
X106981121Y-124656841D01*
X106940668Y-124126414D01*
X106946862Y-123629759D01*
X106999194Y-123168836D01*
X107097158Y-122745609D01*
X107240244Y-122362039D01*
X107427945Y-122020089D01*
X107659753Y-121721720D01*
X107770153Y-121609863D01*
X107995511Y-121439762D01*
X108251359Y-121324112D01*
X108533122Y-121264423D01*
X108825609Y-121261321D01*
X109070722Y-121312382D01*
G37*
X109070722Y-121312382D02*
X109312352Y-121424329D01*
X109548077Y-121594553D01*
X109775476Y-121820450D01*
X109992126Y-122099411D01*
X110195606Y-122428832D01*
X110383495Y-122806106D01*
X110484885Y-123047125D01*
X110582411Y-123299046D01*
X110667648Y-123531832D01*
X110744189Y-123757514D01*
X110815630Y-123988122D01*
X110885566Y-124235687D01*
X110957590Y-124512240D01*
X111035299Y-124829812D01*
X111101504Y-125110875D01*
X111149428Y-125319881D01*
X111184240Y-125483763D01*
X111208028Y-125619052D01*
X111222879Y-125742278D01*
X111230881Y-125869972D01*
X111234120Y-126018665D01*
X111234686Y-126165606D01*
X111232454Y-126370859D01*
X111225831Y-126529108D01*
X111215177Y-126634915D01*
X111200849Y-126682840D01*
X111200578Y-126683121D01*
X111174308Y-126680920D01*
X111132756Y-126632010D01*
X111072774Y-126531972D01*
X111014518Y-126422140D01*
X110783886Y-125988749D01*
X110568619Y-125616212D01*
X110368102Y-125303929D01*
X110181721Y-125051297D01*
X110008862Y-124857716D01*
X109848910Y-124722582D01*
X109701251Y-124645295D01*
X109565269Y-124625253D01*
X109440351Y-124661854D01*
X109325882Y-124754497D01*
X109319011Y-124762191D01*
X109239777Y-124874786D01*
X109186050Y-125008902D01*
X109154575Y-125177049D01*
X109142100Y-125391733D01*
X109141588Y-125444250D01*
X109150338Y-125670219D01*
X109180937Y-125881684D01*
X109237645Y-126093958D01*
X109324728Y-126322351D01*
X109446447Y-126582175D01*
X109473057Y-126634822D01*
X109762477Y-127151082D01*
X110079977Y-127617938D01*
X110432773Y-128045959D01*
X110446884Y-128061502D01*
X110619942Y-128252626D01*
X110754131Y-128404366D01*
X110854231Y-128523457D01*
X110925022Y-128616632D01*
X110971286Y-128690628D01*
X110997803Y-128752177D01*
X111009352Y-128808016D01*
X111010970Y-128856154D01*
X110979511Y-129032212D01*
X110897276Y-129220101D01*
X110771567Y-129405984D01*
X110651223Y-129537617D01*
X110497301Y-129670693D01*
X110327566Y-129784760D01*
X110127580Y-129888009D01*
X109882905Y-129988631D01*
X109807375Y-130016388D01*
X109546615Y-130119760D01*
X109293345Y-130237712D01*
X109061684Y-130362712D01*
X108865750Y-130487226D01*
X108737885Y-130587015D01*
X108650843Y-130663310D01*
X108583740Y-130719720D01*
X108549036Y-130745823D01*
X108547195Y-130746500D01*
X108523093Y-130723555D01*
X108472357Y-130663943D01*
X108417860Y-130595687D01*
X108300280Y-130444875D01*
X108371202Y-130397652D01*
X108545136Y-130247033D01*
X108665087Y-130064642D01*
X108729707Y-129854230D01*
X108737646Y-129619551D01*
X108711021Y-129452497D01*
X108687793Y-129384584D01*
X108640328Y-129270517D01*
X108573312Y-129120673D01*
X108491431Y-128945429D01*
X108399373Y-128755161D01*
X108361883Y-128679445D01*
X108067176Y-128070931D01*
X107811479Y-127504960D01*
X107592761Y-126975622D01*
X107408995Y-126477003D01*
X107258150Y-126003191D01*
X107138196Y-125548274D01*
X107047105Y-125106340D01*
X106982847Y-124671476D01*
X106981121Y-124656841D01*
X106940668Y-124126414D01*
X106946862Y-123629759D01*
X106999194Y-123168836D01*
X107097158Y-122745609D01*
X107240244Y-122362039D01*
X107427945Y-122020089D01*
X107659753Y-121721720D01*
X107770153Y-121609863D01*
X107995511Y-121439762D01*
X108251359Y-121324112D01*
X108533122Y-121264423D01*
X108825609Y-121261321D01*
X109070722Y-121312382D01*
G36*
X107545337Y-130453196D02*
G01*
X107617728Y-130515054D01*
X107688598Y-130598476D01*
X107745774Y-130687365D01*
X107777082Y-130765624D01*
X107773728Y-130812664D01*
X107740894Y-130839009D01*
X107690100Y-130824454D01*
X107620272Y-130775446D01*
X107547124Y-130702496D01*
X107489650Y-130617543D01*
X107453420Y-130534710D01*
X107444007Y-130468119D01*
X107466981Y-130431892D01*
X107483597Y-130429000D01*
X107545337Y-130453196D01*
G37*
X107545337Y-130453196D02*
X107617728Y-130515054D01*
X107688598Y-130598476D01*
X107745774Y-130687365D01*
X107777082Y-130765624D01*
X107773728Y-130812664D01*
X107740894Y-130839009D01*
X107690100Y-130824454D01*
X107620272Y-130775446D01*
X107547124Y-130702496D01*
X107489650Y-130617543D01*
X107453420Y-130534710D01*
X107444007Y-130468119D01*
X107466981Y-130431892D01*
X107483597Y-130429000D01*
X107545337Y-130453196D01*
G36*
X107839474Y-130390108D02*
G01*
X107905775Y-130420004D01*
X107959694Y-130455187D01*
X107968895Y-130464088D01*
X108028674Y-130510473D01*
X108072114Y-130524250D01*
X108098329Y-130516524D01*
X108072865Y-130487417D01*
X108059255Y-130476615D01*
X108017249Y-130442559D01*
X108027058Y-130440073D01*
X108063784Y-130452802D01*
X108123870Y-130490517D01*
X108199124Y-130558247D01*
X108231673Y-130593310D01*
X108296876Y-130680646D01*
X108298230Y-130684968D01*
X108280513Y-130694512D01*
X108259912Y-130710409D01*
X108225062Y-130757992D01*
X108230089Y-130798686D01*
X108258790Y-130810000D01*
X108261686Y-130794182D01*
X108257192Y-130789108D01*
X108256762Y-130750863D01*
X108275712Y-130717671D01*
X108298450Y-130685669D01*
X108318374Y-130749258D01*
X108313964Y-130787444D01*
X108312630Y-130854969D01*
X108349003Y-130885798D01*
X108384784Y-130893721D01*
X108369742Y-130866052D01*
X108369057Y-130865224D01*
X108352348Y-130805711D01*
X108361095Y-130780927D01*
X108385665Y-130760137D01*
X108406438Y-130797655D01*
X108407623Y-130801332D01*
X108414683Y-130872236D01*
X108399276Y-130937006D01*
X108368334Y-130968478D01*
X108364896Y-130968750D01*
X108335856Y-130945721D01*
X108278133Y-130884312D01*
X108202319Y-130796037D01*
X108171786Y-130758849D01*
X108075894Y-130649064D01*
X108030250Y-130603047D01*
X108127081Y-130603047D01*
X108127334Y-130635349D01*
X108130825Y-130649435D01*
X108150961Y-130705830D01*
X108172197Y-130705580D01*
X108185901Y-130686597D01*
X108179940Y-130645856D01*
X108158523Y-130621282D01*
X108127081Y-130603047D01*
X108030250Y-130603047D01*
X107976776Y-130549137D01*
X107893225Y-130477777D01*
X107880492Y-130468880D01*
X107808578Y-130419860D01*
X107765239Y-130387559D01*
X107759500Y-130381558D01*
X107783234Y-130374344D01*
X107839474Y-130390108D01*
G37*
X107839474Y-130390108D02*
X107905775Y-130420004D01*
X107959694Y-130455187D01*
X107968895Y-130464088D01*
X108028674Y-130510473D01*
X108072114Y-130524250D01*
X108098329Y-130516524D01*
X108072865Y-130487417D01*
X108059255Y-130476615D01*
X108017249Y-130442559D01*
X108027058Y-130440073D01*
X108063784Y-130452802D01*
X108123870Y-130490517D01*
X108199124Y-130558247D01*
X108231673Y-130593310D01*
X108296876Y-130680646D01*
X108298230Y-130684968D01*
X108280513Y-130694512D01*
X108259912Y-130710409D01*
X108225062Y-130757992D01*
X108230089Y-130798686D01*
X108258790Y-130810000D01*
X108261686Y-130794182D01*
X108257192Y-130789108D01*
X108256762Y-130750863D01*
X108275712Y-130717671D01*
X108298450Y-130685669D01*
X108318374Y-130749258D01*
X108313964Y-130787444D01*
X108312630Y-130854969D01*
X108349003Y-130885798D01*
X108384784Y-130893721D01*
X108369742Y-130866052D01*
X108369057Y-130865224D01*
X108352348Y-130805711D01*
X108361095Y-130780927D01*
X108385665Y-130760137D01*
X108406438Y-130797655D01*
X108407623Y-130801332D01*
X108414683Y-130872236D01*
X108399276Y-130937006D01*
X108368334Y-130968478D01*
X108364896Y-130968750D01*
X108335856Y-130945721D01*
X108278133Y-130884312D01*
X108202319Y-130796037D01*
X108171786Y-130758849D01*
X108075894Y-130649064D01*
X108030250Y-130603047D01*
X108127081Y-130603047D01*
X108127334Y-130635349D01*
X108130825Y-130649435D01*
X108150961Y-130705830D01*
X108172197Y-130705580D01*
X108185901Y-130686597D01*
X108179940Y-130645856D01*
X108158523Y-130621282D01*
X108127081Y-130603047D01*
X108030250Y-130603047D01*
X107976776Y-130549137D01*
X107893225Y-130477777D01*
X107880492Y-130468880D01*
X107808578Y-130419860D01*
X107765239Y-130387559D01*
X107759500Y-130381558D01*
X107783234Y-130374344D01*
X107839474Y-130390108D01*
G36*
X107232307Y-130188948D02*
G01*
X107222978Y-130195090D01*
X107205620Y-130233984D01*
X107207914Y-130293384D01*
X107206619Y-130384318D01*
X107184888Y-130468262D01*
X107163460Y-130539877D01*
X107179180Y-130588079D01*
X107202867Y-130613649D01*
X107241936Y-130648554D01*
X107242215Y-130635517D01*
X107225674Y-130601914D01*
X107209509Y-130533025D01*
X107218548Y-130494443D01*
X107245029Y-130484930D01*
X107289941Y-130521857D01*
X107356656Y-130606503D01*
X107413327Y-130693504D01*
X107446587Y-130762459D01*
X107450232Y-130793348D01*
X107448517Y-130809237D01*
X107457800Y-130802337D01*
X107500426Y-130799321D01*
X107526782Y-130814488D01*
X107552895Y-130856388D01*
X107532637Y-130894933D01*
X107512740Y-130943227D01*
X107536918Y-130978033D01*
X107565765Y-130997848D01*
X107560445Y-130965570D01*
X107558794Y-130960812D01*
X107553943Y-130913577D01*
X107587314Y-130914061D01*
X107655624Y-130961927D01*
X107667329Y-130971987D01*
X107739519Y-131031058D01*
X107834221Y-131103586D01*
X107877556Y-131135397D01*
X107949502Y-131194991D01*
X107989689Y-131243660D01*
X107992642Y-131262561D01*
X108000866Y-131279070D01*
X108041273Y-131271636D01*
X108095423Y-131266968D01*
X108108750Y-131284110D01*
X108084506Y-131315394D01*
X108020007Y-131314065D01*
X107927603Y-131283081D01*
X107819641Y-131225397D01*
X107794094Y-131208789D01*
X107657061Y-131111393D01*
X107538238Y-131017771D01*
X107611333Y-131017771D01*
X107626039Y-131059159D01*
X107637791Y-131064000D01*
X107648741Y-131053850D01*
X107696000Y-131053850D01*
X107718564Y-131088247D01*
X107773115Y-131142453D01*
X107839937Y-131199411D01*
X107899314Y-131242062D01*
X107927823Y-131254425D01*
X107923641Y-131236444D01*
X107881817Y-131191599D01*
X107864323Y-131175618D01*
X107776559Y-131098523D01*
X107725893Y-131056886D01*
X107702381Y-131043511D01*
X107696076Y-131051204D01*
X107696000Y-131053850D01*
X107648741Y-131053850D01*
X107663742Y-131039945D01*
X107664250Y-131034123D01*
X107641503Y-130990484D01*
X107637791Y-130987895D01*
X107614599Y-130997608D01*
X107611333Y-131017771D01*
X107538238Y-131017771D01*
X107533912Y-131014363D01*
X107434662Y-130926513D01*
X107412842Y-130903182D01*
X107449784Y-130903182D01*
X107454127Y-130905250D01*
X107483101Y-130882898D01*
X107489625Y-130873500D01*
X107497715Y-130843817D01*
X107493372Y-130841750D01*
X107464398Y-130864101D01*
X107457875Y-130873500D01*
X107449784Y-130903182D01*
X107412842Y-130903182D01*
X107370234Y-130857625D01*
X107378500Y-130857625D01*
X107394375Y-130873500D01*
X107410250Y-130857625D01*
X107394375Y-130841750D01*
X107378500Y-130857625D01*
X107370234Y-130857625D01*
X107369328Y-130856657D01*
X107347791Y-130816063D01*
X107327540Y-130790847D01*
X107311832Y-130796082D01*
X107293693Y-130796546D01*
X107307930Y-130762375D01*
X107378500Y-130762375D01*
X107394375Y-130778250D01*
X107410250Y-130762375D01*
X107394375Y-130746500D01*
X107378500Y-130762375D01*
X107307930Y-130762375D01*
X107312949Y-130750331D01*
X107326626Y-130685386D01*
X107315503Y-130614419D01*
X107286256Y-130564576D01*
X107265140Y-130556000D01*
X107265649Y-130579464D01*
X107285074Y-130622908D01*
X107308817Y-130691593D01*
X107293294Y-130720607D01*
X107249820Y-130708673D01*
X107189707Y-130654514D01*
X107174306Y-130635413D01*
X107122435Y-130560433D01*
X107108418Y-130512808D01*
X107127054Y-130473219D01*
X107129733Y-130469901D01*
X107158997Y-130403539D01*
X107172077Y-130312961D01*
X107172125Y-130307638D01*
X107182771Y-130228225D01*
X107209970Y-130189072D01*
X107212606Y-130188316D01*
X107232307Y-130188948D01*
G37*
X107232307Y-130188948D02*
X107222978Y-130195090D01*
X107205620Y-130233984D01*
X107207914Y-130293384D01*
X107206619Y-130384318D01*
X107184888Y-130468262D01*
X107163460Y-130539877D01*
X107179180Y-130588079D01*
X107202867Y-130613649D01*
X107241936Y-130648554D01*
X107242215Y-130635517D01*
X107225674Y-130601914D01*
X107209509Y-130533025D01*
X107218548Y-130494443D01*
X107245029Y-130484930D01*
X107289941Y-130521857D01*
X107356656Y-130606503D01*
X107413327Y-130693504D01*
X107446587Y-130762459D01*
X107450232Y-130793348D01*
X107448517Y-130809237D01*
X107457800Y-130802337D01*
X107500426Y-130799321D01*
X107526782Y-130814488D01*
X107552895Y-130856388D01*
X107532637Y-130894933D01*
X107512740Y-130943227D01*
X107536918Y-130978033D01*
X107565765Y-130997848D01*
X107560445Y-130965570D01*
X107558794Y-130960812D01*
X107553943Y-130913577D01*
X107587314Y-130914061D01*
X107655624Y-130961927D01*
X107667329Y-130971987D01*
X107739519Y-131031058D01*
X107834221Y-131103586D01*
X107877556Y-131135397D01*
X107949502Y-131194991D01*
X107989689Y-131243660D01*
X107992642Y-131262561D01*
X108000866Y-131279070D01*
X108041273Y-131271636D01*
X108095423Y-131266968D01*
X108108750Y-131284110D01*
X108084506Y-131315394D01*
X108020007Y-131314065D01*
X107927603Y-131283081D01*
X107819641Y-131225397D01*
X107794094Y-131208789D01*
X107657061Y-131111393D01*
X107538238Y-131017771D01*
X107611333Y-131017771D01*
X107626039Y-131059159D01*
X107637791Y-131064000D01*
X107648741Y-131053850D01*
X107696000Y-131053850D01*
X107718564Y-131088247D01*
X107773115Y-131142453D01*
X107839937Y-131199411D01*
X107899314Y-131242062D01*
X107927823Y-131254425D01*
X107923641Y-131236444D01*
X107881817Y-131191599D01*
X107864323Y-131175618D01*
X107776559Y-131098523D01*
X107725893Y-131056886D01*
X107702381Y-131043511D01*
X107696076Y-131051204D01*
X107696000Y-131053850D01*
X107648741Y-131053850D01*
X107663742Y-131039945D01*
X107664250Y-131034123D01*
X107641503Y-130990484D01*
X107637791Y-130987895D01*
X107614599Y-130997608D01*
X107611333Y-131017771D01*
X107538238Y-131017771D01*
X107533912Y-131014363D01*
X107434662Y-130926513D01*
X107412842Y-130903182D01*
X107449784Y-130903182D01*
X107454127Y-130905250D01*
X107483101Y-130882898D01*
X107489625Y-130873500D01*
X107497715Y-130843817D01*
X107493372Y-130841750D01*
X107464398Y-130864101D01*
X107457875Y-130873500D01*
X107449784Y-130903182D01*
X107412842Y-130903182D01*
X107370234Y-130857625D01*
X107378500Y-130857625D01*
X107394375Y-130873500D01*
X107410250Y-130857625D01*
X107394375Y-130841750D01*
X107378500Y-130857625D01*
X107370234Y-130857625D01*
X107369328Y-130856657D01*
X107347791Y-130816063D01*
X107327540Y-130790847D01*
X107311832Y-130796082D01*
X107293693Y-130796546D01*
X107307930Y-130762375D01*
X107378500Y-130762375D01*
X107394375Y-130778250D01*
X107410250Y-130762375D01*
X107394375Y-130746500D01*
X107378500Y-130762375D01*
X107307930Y-130762375D01*
X107312949Y-130750331D01*
X107326626Y-130685386D01*
X107315503Y-130614419D01*
X107286256Y-130564576D01*
X107265140Y-130556000D01*
X107265649Y-130579464D01*
X107285074Y-130622908D01*
X107308817Y-130691593D01*
X107293294Y-130720607D01*
X107249820Y-130708673D01*
X107189707Y-130654514D01*
X107174306Y-130635413D01*
X107122435Y-130560433D01*
X107108418Y-130512808D01*
X107127054Y-130473219D01*
X107129733Y-130469901D01*
X107158997Y-130403539D01*
X107172077Y-130312961D01*
X107172125Y-130307638D01*
X107182771Y-130228225D01*
X107209970Y-130189072D01*
X107212606Y-130188316D01*
X107232307Y-130188948D01*
G36*
X105601490Y-128989539D02*
G01*
X105673345Y-129048073D01*
X105774954Y-129137224D01*
X105898482Y-129250114D01*
X106036093Y-129379865D01*
X106038638Y-129382300D01*
X106178803Y-129513959D01*
X106307535Y-129630209D01*
X106416342Y-129723748D01*
X106496733Y-129787275D01*
X106539910Y-129813411D01*
X106583295Y-129837442D01*
X106615334Y-129893278D01*
X106643698Y-129995396D01*
X106648823Y-130018951D01*
X106723887Y-130245840D01*
X106853342Y-130486303D01*
X107031954Y-130732074D01*
X107252774Y-130973192D01*
X107370257Y-131085694D01*
X107481147Y-131186337D01*
X107572583Y-131263778D01*
X107629622Y-131305475D01*
X107700105Y-131355569D01*
X107727141Y-131393121D01*
X107705912Y-131409592D01*
X107688062Y-131409007D01*
X107635164Y-131401896D01*
X107544962Y-131388546D01*
X107489625Y-131380039D01*
X107357078Y-131363961D01*
X107218590Y-131353803D01*
X107180409Y-131352531D01*
X107098199Y-131346475D01*
X107029533Y-131325782D01*
X106955889Y-131281385D01*
X106858744Y-131204221D01*
X106833059Y-131182524D01*
X106662333Y-131020648D01*
X106484705Y-130822156D01*
X106306251Y-130596686D01*
X106133046Y-130353872D01*
X105971164Y-130103350D01*
X105826680Y-129854756D01*
X105705671Y-129617724D01*
X105614211Y-129401891D01*
X105558374Y-129216892D01*
X105545922Y-129141026D01*
X105539459Y-129033863D01*
X105548980Y-128979664D01*
X105567224Y-128968500D01*
X105601490Y-128989539D01*
G37*
X105601490Y-128989539D02*
X105673345Y-129048073D01*
X105774954Y-129137224D01*
X105898482Y-129250114D01*
X106036093Y-129379865D01*
X106038638Y-129382300D01*
X106178803Y-129513959D01*
X106307535Y-129630209D01*
X106416342Y-129723748D01*
X106496733Y-129787275D01*
X106539910Y-129813411D01*
X106583295Y-129837442D01*
X106615334Y-129893278D01*
X106643698Y-129995396D01*
X106648823Y-130018951D01*
X106723887Y-130245840D01*
X106853342Y-130486303D01*
X107031954Y-130732074D01*
X107252774Y-130973192D01*
X107370257Y-131085694D01*
X107481147Y-131186337D01*
X107572583Y-131263778D01*
X107629622Y-131305475D01*
X107700105Y-131355569D01*
X107727141Y-131393121D01*
X107705912Y-131409592D01*
X107688062Y-131409007D01*
X107635164Y-131401896D01*
X107544962Y-131388546D01*
X107489625Y-131380039D01*
X107357078Y-131363961D01*
X107218590Y-131353803D01*
X107180409Y-131352531D01*
X107098199Y-131346475D01*
X107029533Y-131325782D01*
X106955889Y-131281385D01*
X106858744Y-131204221D01*
X106833059Y-131182524D01*
X106662333Y-131020648D01*
X106484705Y-130822156D01*
X106306251Y-130596686D01*
X106133046Y-130353872D01*
X105971164Y-130103350D01*
X105826680Y-129854756D01*
X105705671Y-129617724D01*
X105614211Y-129401891D01*
X105558374Y-129216892D01*
X105545922Y-129141026D01*
X105539459Y-129033863D01*
X105548980Y-128979664D01*
X105567224Y-128968500D01*
X105601490Y-128989539D01*
D12*
%TO.C,U3*%
X66190500Y-105410000D02*
G75*
G03*
X66190500Y-105410000I-400000J0D01*
G01*
X64600500Y-106410000D02*
X64600500Y-116200000D01*
X64600500Y-116200000D02*
X65600500Y-117200000D01*
X65600500Y-117200000D02*
X88180500Y-117200000D01*
X88180500Y-117200000D02*
X88180500Y-93620000D01*
X88180500Y-93620000D02*
X64600500Y-93620000D01*
X64600500Y-93620000D02*
X64600500Y-104410000D01*
D11*
X67415500Y-112735000D02*
X67415500Y-113235000D01*
X67415500Y-113235000D02*
X68565500Y-114385000D01*
X68565500Y-114385000D02*
X69065500Y-114385000D01*
X67415500Y-98085000D02*
X67415500Y-96435000D01*
X67415500Y-96435000D02*
X69065500Y-96435000D01*
X85365500Y-112735000D02*
X85365500Y-114385000D01*
X85365500Y-114385000D02*
X83715500Y-114385000D01*
X85365500Y-98085000D02*
X85365500Y-96435000D01*
X85365500Y-96435000D02*
X83715500Y-96435000D01*
D12*
%TO.C,R13*%
X74067936Y-136425000D02*
X74522064Y-136425000D01*
X74067936Y-137895000D02*
X74522064Y-137895000D01*
%TO.C,R12*%
X74067936Y-126265000D02*
X74522064Y-126265000D01*
X74067936Y-127735000D02*
X74522064Y-127735000D01*
%TO.C,R11*%
X74067936Y-131345000D02*
X74522064Y-131345000D01*
X74067936Y-132815000D02*
X74522064Y-132815000D01*
%TO.C,R1*%
X70585000Y-75972936D02*
X70585000Y-76427064D01*
X69115000Y-75972936D02*
X69115000Y-76427064D01*
D14*
%TO.C,J3*%
X71195000Y-129830000D02*
X72345000Y-129830000D01*
X71195000Y-134330000D02*
X71195000Y-129830000D01*
X72345000Y-134330000D02*
X71195000Y-134330000D01*
D12*
X70545000Y-138490000D02*
X69215000Y-138490000D01*
X70545000Y-137160000D02*
X70545000Y-138490000D01*
X67945000Y-138490000D02*
X65345000Y-138490000D01*
X67945000Y-135890000D02*
X67945000Y-138490000D01*
X70545000Y-135890000D02*
X67945000Y-135890000D01*
X65345000Y-138490000D02*
X65345000Y-125670000D01*
X70545000Y-135890000D02*
X70545000Y-125670000D01*
X70545000Y-125670000D02*
X65345000Y-125670000D01*
D14*
X72345000Y-142180000D02*
X72345000Y-121980000D01*
X72345000Y-121980000D02*
X63545000Y-121980000D01*
X63545000Y-121980000D02*
X63545000Y-142180000D01*
X63545000Y-142180000D02*
X72345000Y-142180000D01*
D12*
%TO.C,C3*%
X77208748Y-119915000D02*
X77731252Y-119915000D01*
X77208748Y-121385000D02*
X77731252Y-121385000D01*
%TO.C,C2*%
X94876252Y-93445000D02*
X94353748Y-93445000D01*
X94876252Y-91975000D02*
X94353748Y-91975000D01*
%TO.C,C1*%
X94876252Y-121385000D02*
X94353748Y-121385000D01*
X94876252Y-119915000D02*
X94353748Y-119915000D01*
%TO.C,U2*%
D10*
X91957380Y-81406904D02*
X92766904Y-81406904D01*
X92862142Y-81359285D01*
X92909761Y-81311666D01*
X92957380Y-81216428D01*
X92957380Y-81025952D01*
X92909761Y-80930714D01*
X92862142Y-80883095D01*
X92766904Y-80835476D01*
X91957380Y-80835476D01*
X92052619Y-80406904D02*
X92005000Y-80359285D01*
X91957380Y-80264047D01*
X91957380Y-80025952D01*
X92005000Y-79930714D01*
X92052619Y-79883095D01*
X92147857Y-79835476D01*
X92243095Y-79835476D01*
X92385952Y-79883095D01*
X92957380Y-80454523D01*
X92957380Y-79835476D01*
%TO.C,U1*%
X91957380Y-109346904D02*
X92766904Y-109346904D01*
X92862142Y-109299285D01*
X92909761Y-109251666D01*
X92957380Y-109156428D01*
X92957380Y-108965952D01*
X92909761Y-108870714D01*
X92862142Y-108823095D01*
X92766904Y-108775476D01*
X91957380Y-108775476D01*
X92957380Y-107775476D02*
X92957380Y-108346904D01*
X92957380Y-108061190D02*
X91957380Y-108061190D01*
X92100238Y-108156428D01*
X92195476Y-108251666D01*
X92243095Y-108346904D01*
%TO.C,J1*%
X89266666Y-144952380D02*
X89266666Y-145666666D01*
X89219047Y-145809523D01*
X89123809Y-145904761D01*
X88980952Y-145952380D01*
X88885714Y-145952380D01*
X90266666Y-145952380D02*
X89695238Y-145952380D01*
X89980952Y-145952380D02*
X89980952Y-144952380D01*
X89885714Y-145095238D01*
X89790476Y-145190476D01*
X89695238Y-145238095D01*
X111990476Y-146452380D02*
X112609523Y-146452380D01*
X112276190Y-146833333D01*
X112419047Y-146833333D01*
X112514285Y-146880952D01*
X112561904Y-146928571D01*
X112609523Y-147023809D01*
X112609523Y-147261904D01*
X112561904Y-147357142D01*
X112514285Y-147404761D01*
X112419047Y-147452380D01*
X112133333Y-147452380D01*
X112038095Y-147404761D01*
X111990476Y-147357142D01*
X112990476Y-146547619D02*
X113038095Y-146500000D01*
X113133333Y-146452380D01*
X113371428Y-146452380D01*
X113466666Y-146500000D01*
X113514285Y-146547619D01*
X113561904Y-146642857D01*
X113561904Y-146738095D01*
X113514285Y-146880952D01*
X112942857Y-147452380D01*
X113561904Y-147452380D01*
X66185714Y-147452380D02*
X65614285Y-147452380D01*
X65900000Y-147452380D02*
X65900000Y-146452380D01*
X65804761Y-146595238D01*
X65709523Y-146690476D01*
X65614285Y-146738095D01*
%TO.C,U3*%
X63202880Y-106171904D02*
X64012404Y-106171904D01*
X64107642Y-106124285D01*
X64155261Y-106076666D01*
X64202880Y-105981428D01*
X64202880Y-105790952D01*
X64155261Y-105695714D01*
X64107642Y-105648095D01*
X64012404Y-105600476D01*
X63202880Y-105600476D01*
X63202880Y-105219523D02*
X63202880Y-104600476D01*
X63583833Y-104933809D01*
X63583833Y-104790952D01*
X63631452Y-104695714D01*
X63679071Y-104648095D01*
X63774309Y-104600476D01*
X64012404Y-104600476D01*
X64107642Y-104648095D01*
X64155261Y-104695714D01*
X64202880Y-104790952D01*
X64202880Y-105076666D01*
X64155261Y-105171904D01*
X64107642Y-105219523D01*
%TO.C,R13*%
X73652142Y-135962380D02*
X73318809Y-135486190D01*
X73080714Y-135962380D02*
X73080714Y-134962380D01*
X73461666Y-134962380D01*
X73556904Y-135010000D01*
X73604523Y-135057619D01*
X73652142Y-135152857D01*
X73652142Y-135295714D01*
X73604523Y-135390952D01*
X73556904Y-135438571D01*
X73461666Y-135486190D01*
X73080714Y-135486190D01*
X74604523Y-135962380D02*
X74033095Y-135962380D01*
X74318809Y-135962380D02*
X74318809Y-134962380D01*
X74223571Y-135105238D01*
X74128333Y-135200476D01*
X74033095Y-135248095D01*
X74937857Y-134962380D02*
X75556904Y-134962380D01*
X75223571Y-135343333D01*
X75366428Y-135343333D01*
X75461666Y-135390952D01*
X75509285Y-135438571D01*
X75556904Y-135533809D01*
X75556904Y-135771904D01*
X75509285Y-135867142D01*
X75461666Y-135914761D01*
X75366428Y-135962380D01*
X75080714Y-135962380D01*
X74985476Y-135914761D01*
X74937857Y-135867142D01*
%TO.C,R12*%
X73652142Y-125802380D02*
X73318809Y-125326190D01*
X73080714Y-125802380D02*
X73080714Y-124802380D01*
X73461666Y-124802380D01*
X73556904Y-124850000D01*
X73604523Y-124897619D01*
X73652142Y-124992857D01*
X73652142Y-125135714D01*
X73604523Y-125230952D01*
X73556904Y-125278571D01*
X73461666Y-125326190D01*
X73080714Y-125326190D01*
X74604523Y-125802380D02*
X74033095Y-125802380D01*
X74318809Y-125802380D02*
X74318809Y-124802380D01*
X74223571Y-124945238D01*
X74128333Y-125040476D01*
X74033095Y-125088095D01*
X74985476Y-124897619D02*
X75033095Y-124850000D01*
X75128333Y-124802380D01*
X75366428Y-124802380D01*
X75461666Y-124850000D01*
X75509285Y-124897619D01*
X75556904Y-124992857D01*
X75556904Y-125088095D01*
X75509285Y-125230952D01*
X74937857Y-125802380D01*
X75556904Y-125802380D01*
%TO.C,R11*%
X73652142Y-130882380D02*
X73318809Y-130406190D01*
X73080714Y-130882380D02*
X73080714Y-129882380D01*
X73461666Y-129882380D01*
X73556904Y-129930000D01*
X73604523Y-129977619D01*
X73652142Y-130072857D01*
X73652142Y-130215714D01*
X73604523Y-130310952D01*
X73556904Y-130358571D01*
X73461666Y-130406190D01*
X73080714Y-130406190D01*
X74604523Y-130882380D02*
X74033095Y-130882380D01*
X74318809Y-130882380D02*
X74318809Y-129882380D01*
X74223571Y-130025238D01*
X74128333Y-130120476D01*
X74033095Y-130168095D01*
X75556904Y-130882380D02*
X74985476Y-130882380D01*
X75271190Y-130882380D02*
X75271190Y-129882380D01*
X75175952Y-130025238D01*
X75080714Y-130120476D01*
X74985476Y-130168095D01*
%TO.C,R1*%
X71952380Y-76366666D02*
X71476190Y-76700000D01*
X71952380Y-76938095D02*
X70952380Y-76938095D01*
X70952380Y-76557142D01*
X71000000Y-76461904D01*
X71047619Y-76414285D01*
X71142857Y-76366666D01*
X71285714Y-76366666D01*
X71380952Y-76414285D01*
X71428571Y-76461904D01*
X71476190Y-76557142D01*
X71476190Y-76938095D01*
X71952380Y-75414285D02*
X71952380Y-75985714D01*
X71952380Y-75700000D02*
X70952380Y-75700000D01*
X71095238Y-75795238D01*
X71190476Y-75890476D01*
X71238095Y-75985714D01*
%TO.C,J3*%
X67611666Y-138942380D02*
X67611666Y-139656666D01*
X67564047Y-139799523D01*
X67468809Y-139894761D01*
X67325952Y-139942380D01*
X67230714Y-139942380D01*
X67992619Y-138942380D02*
X68611666Y-138942380D01*
X68278333Y-139323333D01*
X68421190Y-139323333D01*
X68516428Y-139370952D01*
X68564047Y-139418571D01*
X68611666Y-139513809D01*
X68611666Y-139751904D01*
X68564047Y-139847142D01*
X68516428Y-139894761D01*
X68421190Y-139942380D01*
X68135476Y-139942380D01*
X68040238Y-139894761D01*
X67992619Y-139847142D01*
%TO.C,J2*%
X111940357Y-59582380D02*
X112559404Y-59582380D01*
X112226071Y-59963333D01*
X112368928Y-59963333D01*
X112464166Y-60010952D01*
X112511785Y-60058571D01*
X112559404Y-60153809D01*
X112559404Y-60391904D01*
X112511785Y-60487142D01*
X112464166Y-60534761D01*
X112368928Y-60582380D01*
X112083214Y-60582380D01*
X111987976Y-60534761D01*
X111940357Y-60487142D01*
X112940357Y-59677619D02*
X112987976Y-59630000D01*
X113083214Y-59582380D01*
X113321309Y-59582380D01*
X113416547Y-59630000D01*
X113464166Y-59677619D01*
X113511785Y-59772857D01*
X113511785Y-59868095D01*
X113464166Y-60010952D01*
X112892738Y-60582380D01*
X113511785Y-60582380D01*
X66779404Y-60582380D02*
X66207976Y-60582380D01*
X66493690Y-60582380D02*
X66493690Y-59582380D01*
X66398452Y-59725238D01*
X66303214Y-59820476D01*
X66207976Y-59868095D01*
%TO.C,C3*%
X77303333Y-119327142D02*
X77255714Y-119374761D01*
X77112857Y-119422380D01*
X77017619Y-119422380D01*
X76874761Y-119374761D01*
X76779523Y-119279523D01*
X76731904Y-119184285D01*
X76684285Y-118993809D01*
X76684285Y-118850952D01*
X76731904Y-118660476D01*
X76779523Y-118565238D01*
X76874761Y-118470000D01*
X77017619Y-118422380D01*
X77112857Y-118422380D01*
X77255714Y-118470000D01*
X77303333Y-118517619D01*
X77636666Y-118422380D02*
X78255714Y-118422380D01*
X77922380Y-118803333D01*
X78065238Y-118803333D01*
X78160476Y-118850952D01*
X78208095Y-118898571D01*
X78255714Y-118993809D01*
X78255714Y-119231904D01*
X78208095Y-119327142D01*
X78160476Y-119374761D01*
X78065238Y-119422380D01*
X77779523Y-119422380D01*
X77684285Y-119374761D01*
X77636666Y-119327142D01*
%TO.C,C2*%
X94448333Y-94747142D02*
X94400714Y-94794761D01*
X94257857Y-94842380D01*
X94162619Y-94842380D01*
X94019761Y-94794761D01*
X93924523Y-94699523D01*
X93876904Y-94604285D01*
X93829285Y-94413809D01*
X93829285Y-94270952D01*
X93876904Y-94080476D01*
X93924523Y-93985238D01*
X94019761Y-93890000D01*
X94162619Y-93842380D01*
X94257857Y-93842380D01*
X94400714Y-93890000D01*
X94448333Y-93937619D01*
X94829285Y-93937619D02*
X94876904Y-93890000D01*
X94972142Y-93842380D01*
X95210238Y-93842380D01*
X95305476Y-93890000D01*
X95353095Y-93937619D01*
X95400714Y-94032857D01*
X95400714Y-94128095D01*
X95353095Y-94270952D01*
X94781666Y-94842380D01*
X95400714Y-94842380D01*
%TO.C,C1*%
X94448333Y-122687142D02*
X94400714Y-122734761D01*
X94257857Y-122782380D01*
X94162619Y-122782380D01*
X94019761Y-122734761D01*
X93924523Y-122639523D01*
X93876904Y-122544285D01*
X93829285Y-122353809D01*
X93829285Y-122210952D01*
X93876904Y-122020476D01*
X93924523Y-121925238D01*
X94019761Y-121830000D01*
X94162619Y-121782380D01*
X94257857Y-121782380D01*
X94400714Y-121830000D01*
X94448333Y-121877619D01*
X95400714Y-122782380D02*
X94829285Y-122782380D01*
X95115000Y-122782380D02*
X95115000Y-121782380D01*
X95019761Y-121925238D01*
X94924523Y-122020476D01*
X94829285Y-122068095D01*
%TD*%
M02*
