%TF.GenerationSoftware,KiCad,Pcbnew,(5.1.10-1-10_14)*%
%TF.CreationDate,2023-08-18T21:43:18+08:00*%
%TF.ProjectId,GB_MemoryBackup_Subboard_A,47425f4d-656d-46f7-9279-4261636b7570,1.1*%
%TF.SameCoordinates,Original*%
%TF.FileFunction,Legend,Top*%
%TF.FilePolarity,Positive*%
%FSLAX46Y46*%
G04 Gerber Fmt 4.6, Leading zero omitted, Abs format (unit mm)*
G04 Created by KiCad (PCBNEW (5.1.10-1-10_14)) date 2023-08-18 21:43:18*
%MOMM*%
%LPD*%
G01*
G04 APERTURE LIST*
%ADD10C,0.100000*%
%ADD11C,0.150000*%
%ADD12C,0.120000*%
%ADD13C,0.010000*%
G04 APERTURE END LIST*
D10*
X165849761Y-101161904D02*
X165849761Y-101733333D01*
X165811666Y-101847619D01*
X165735476Y-101923809D01*
X165621190Y-101961904D01*
X165545000Y-101961904D01*
X166611666Y-101961904D02*
X166230714Y-101961904D01*
X166230714Y-101161904D01*
X167335476Y-101885714D02*
X167297380Y-101923809D01*
X167183095Y-101961904D01*
X167106904Y-101961904D01*
X166992619Y-101923809D01*
X166916428Y-101847619D01*
X166878333Y-101771428D01*
X166840238Y-101619047D01*
X166840238Y-101504761D01*
X166878333Y-101352380D01*
X166916428Y-101276190D01*
X166992619Y-101200000D01*
X167106904Y-101161904D01*
X167183095Y-101161904D01*
X167297380Y-101200000D01*
X167335476Y-101238095D01*
X167906904Y-101161904D02*
X167906904Y-101733333D01*
X167868809Y-101847619D01*
X167792619Y-101923809D01*
X167678333Y-101961904D01*
X167602142Y-101961904D01*
X168668809Y-101961904D02*
X168287857Y-101961904D01*
X168287857Y-101161904D01*
X169392619Y-101885714D02*
X169354523Y-101923809D01*
X169240238Y-101961904D01*
X169164047Y-101961904D01*
X169049761Y-101923809D01*
X168973571Y-101847619D01*
X168935476Y-101771428D01*
X168897380Y-101619047D01*
X168897380Y-101504761D01*
X168935476Y-101352380D01*
X168973571Y-101276190D01*
X169049761Y-101200000D01*
X169164047Y-101161904D01*
X169240238Y-101161904D01*
X169354523Y-101200000D01*
X169392619Y-101238095D01*
X169964047Y-101161904D02*
X169964047Y-101733333D01*
X169925952Y-101847619D01*
X169849761Y-101923809D01*
X169735476Y-101961904D01*
X169659285Y-101961904D01*
X170725952Y-101961904D02*
X170345000Y-101961904D01*
X170345000Y-101161904D01*
X171449761Y-101885714D02*
X171411666Y-101923809D01*
X171297380Y-101961904D01*
X171221190Y-101961904D01*
X171106904Y-101923809D01*
X171030714Y-101847619D01*
X170992619Y-101771428D01*
X170954523Y-101619047D01*
X170954523Y-101504761D01*
X170992619Y-101352380D01*
X171030714Y-101276190D01*
X171106904Y-101200000D01*
X171221190Y-101161904D01*
X171297380Y-101161904D01*
X171411666Y-101200000D01*
X171449761Y-101238095D01*
X172021190Y-101161904D02*
X172021190Y-101733333D01*
X171983095Y-101847619D01*
X171906904Y-101923809D01*
X171792619Y-101961904D01*
X171716428Y-101961904D01*
X172783095Y-101961904D02*
X172402142Y-101961904D01*
X172402142Y-101161904D01*
X173506904Y-101885714D02*
X173468809Y-101923809D01*
X173354523Y-101961904D01*
X173278333Y-101961904D01*
X173164047Y-101923809D01*
X173087857Y-101847619D01*
X173049761Y-101771428D01*
X173011666Y-101619047D01*
X173011666Y-101504761D01*
X173049761Y-101352380D01*
X173087857Y-101276190D01*
X173164047Y-101200000D01*
X173278333Y-101161904D01*
X173354523Y-101161904D01*
X173468809Y-101200000D01*
X173506904Y-101238095D01*
D11*
X154338571Y-103705000D02*
X154243333Y-103657380D01*
X154100476Y-103657380D01*
X153957619Y-103705000D01*
X153862380Y-103800238D01*
X153814761Y-103895476D01*
X153767142Y-104085952D01*
X153767142Y-104228809D01*
X153814761Y-104419285D01*
X153862380Y-104514523D01*
X153957619Y-104609761D01*
X154100476Y-104657380D01*
X154195714Y-104657380D01*
X154338571Y-104609761D01*
X154386190Y-104562142D01*
X154386190Y-104228809D01*
X154195714Y-104228809D01*
X155243333Y-104657380D02*
X155243333Y-104133571D01*
X155195714Y-104038333D01*
X155100476Y-103990714D01*
X154910000Y-103990714D01*
X154814761Y-104038333D01*
X155243333Y-104609761D02*
X155148095Y-104657380D01*
X154910000Y-104657380D01*
X154814761Y-104609761D01*
X154767142Y-104514523D01*
X154767142Y-104419285D01*
X154814761Y-104324047D01*
X154910000Y-104276428D01*
X155148095Y-104276428D01*
X155243333Y-104228809D01*
X155719523Y-104657380D02*
X155719523Y-103990714D01*
X155719523Y-104085952D02*
X155767142Y-104038333D01*
X155862380Y-103990714D01*
X156005238Y-103990714D01*
X156100476Y-104038333D01*
X156148095Y-104133571D01*
X156148095Y-104657380D01*
X156148095Y-104133571D02*
X156195714Y-104038333D01*
X156290952Y-103990714D01*
X156433809Y-103990714D01*
X156529047Y-104038333D01*
X156576666Y-104133571D01*
X156576666Y-104657380D01*
X157433809Y-104609761D02*
X157338571Y-104657380D01*
X157148095Y-104657380D01*
X157052857Y-104609761D01*
X157005238Y-104514523D01*
X157005238Y-104133571D01*
X157052857Y-104038333D01*
X157148095Y-103990714D01*
X157338571Y-103990714D01*
X157433809Y-104038333D01*
X157481428Y-104133571D01*
X157481428Y-104228809D01*
X157005238Y-104324047D01*
X157910000Y-104657380D02*
X157910000Y-103657380D01*
X157910000Y-104038333D02*
X158005238Y-103990714D01*
X158195714Y-103990714D01*
X158290952Y-104038333D01*
X158338571Y-104085952D01*
X158386190Y-104181190D01*
X158386190Y-104466904D01*
X158338571Y-104562142D01*
X158290952Y-104609761D01*
X158195714Y-104657380D01*
X158005238Y-104657380D01*
X157910000Y-104609761D01*
X158957619Y-104657380D02*
X158862380Y-104609761D01*
X158814761Y-104562142D01*
X158767142Y-104466904D01*
X158767142Y-104181190D01*
X158814761Y-104085952D01*
X158862380Y-104038333D01*
X158957619Y-103990714D01*
X159100476Y-103990714D01*
X159195714Y-104038333D01*
X159243333Y-104085952D01*
X159290952Y-104181190D01*
X159290952Y-104466904D01*
X159243333Y-104562142D01*
X159195714Y-104609761D01*
X159100476Y-104657380D01*
X158957619Y-104657380D01*
X159624285Y-103990714D02*
X159862380Y-104657380D01*
X160100476Y-103990714D02*
X159862380Y-104657380D01*
X159767142Y-104895476D01*
X159719523Y-104943095D01*
X159624285Y-104990714D01*
X161243333Y-104657380D02*
X161243333Y-103657380D01*
X161576666Y-104371666D01*
X161910000Y-103657380D01*
X161910000Y-104657380D01*
X162767142Y-104609761D02*
X162671904Y-104657380D01*
X162481428Y-104657380D01*
X162386190Y-104609761D01*
X162338571Y-104514523D01*
X162338571Y-104133571D01*
X162386190Y-104038333D01*
X162481428Y-103990714D01*
X162671904Y-103990714D01*
X162767142Y-104038333D01*
X162814761Y-104133571D01*
X162814761Y-104228809D01*
X162338571Y-104324047D01*
X163243333Y-104657380D02*
X163243333Y-103990714D01*
X163243333Y-104085952D02*
X163290952Y-104038333D01*
X163386190Y-103990714D01*
X163529047Y-103990714D01*
X163624285Y-104038333D01*
X163671904Y-104133571D01*
X163671904Y-104657380D01*
X163671904Y-104133571D02*
X163719523Y-104038333D01*
X163814761Y-103990714D01*
X163957619Y-103990714D01*
X164052857Y-104038333D01*
X164100476Y-104133571D01*
X164100476Y-104657380D01*
X164719523Y-104657380D02*
X164624285Y-104609761D01*
X164576666Y-104562142D01*
X164529047Y-104466904D01*
X164529047Y-104181190D01*
X164576666Y-104085952D01*
X164624285Y-104038333D01*
X164719523Y-103990714D01*
X164862380Y-103990714D01*
X164957619Y-104038333D01*
X165005238Y-104085952D01*
X165052857Y-104181190D01*
X165052857Y-104466904D01*
X165005238Y-104562142D01*
X164957619Y-104609761D01*
X164862380Y-104657380D01*
X164719523Y-104657380D01*
X165481428Y-104657380D02*
X165481428Y-103990714D01*
X165481428Y-104181190D02*
X165529047Y-104085952D01*
X165576666Y-104038333D01*
X165671904Y-103990714D01*
X165767142Y-103990714D01*
X166005238Y-103990714D02*
X166243333Y-104657380D01*
X166481428Y-103990714D02*
X166243333Y-104657380D01*
X166148095Y-104895476D01*
X166100476Y-104943095D01*
X166005238Y-104990714D01*
X167195714Y-104133571D02*
X167338571Y-104181190D01*
X167386190Y-104228809D01*
X167433809Y-104324047D01*
X167433809Y-104466904D01*
X167386190Y-104562142D01*
X167338571Y-104609761D01*
X167243333Y-104657380D01*
X166862380Y-104657380D01*
X166862380Y-103657380D01*
X167195714Y-103657380D01*
X167290952Y-103705000D01*
X167338571Y-103752619D01*
X167386190Y-103847857D01*
X167386190Y-103943095D01*
X167338571Y-104038333D01*
X167290952Y-104085952D01*
X167195714Y-104133571D01*
X166862380Y-104133571D01*
X168290952Y-104657380D02*
X168290952Y-104133571D01*
X168243333Y-104038333D01*
X168148095Y-103990714D01*
X167957619Y-103990714D01*
X167862380Y-104038333D01*
X168290952Y-104609761D02*
X168195714Y-104657380D01*
X167957619Y-104657380D01*
X167862380Y-104609761D01*
X167814761Y-104514523D01*
X167814761Y-104419285D01*
X167862380Y-104324047D01*
X167957619Y-104276428D01*
X168195714Y-104276428D01*
X168290952Y-104228809D01*
X169195714Y-104609761D02*
X169100476Y-104657380D01*
X168910000Y-104657380D01*
X168814761Y-104609761D01*
X168767142Y-104562142D01*
X168719523Y-104466904D01*
X168719523Y-104181190D01*
X168767142Y-104085952D01*
X168814761Y-104038333D01*
X168910000Y-103990714D01*
X169100476Y-103990714D01*
X169195714Y-104038333D01*
X169624285Y-104657380D02*
X169624285Y-103657380D01*
X169719523Y-104276428D02*
X170005238Y-104657380D01*
X170005238Y-103990714D02*
X169624285Y-104371666D01*
X170862380Y-103990714D02*
X170862380Y-104657380D01*
X170433809Y-103990714D02*
X170433809Y-104514523D01*
X170481428Y-104609761D01*
X170576666Y-104657380D01*
X170719523Y-104657380D01*
X170814761Y-104609761D01*
X170862380Y-104562142D01*
X171338571Y-103990714D02*
X171338571Y-104990714D01*
X171338571Y-104038333D02*
X171433809Y-103990714D01*
X171624285Y-103990714D01*
X171719523Y-104038333D01*
X171767142Y-104085952D01*
X171814761Y-104181190D01*
X171814761Y-104466904D01*
X171767142Y-104562142D01*
X171719523Y-104609761D01*
X171624285Y-104657380D01*
X171433809Y-104657380D01*
X171338571Y-104609761D01*
X173005238Y-104657380D02*
X173005238Y-103657380D01*
X173005238Y-104133571D02*
X173576666Y-104133571D01*
X173576666Y-104657380D02*
X173576666Y-103657380D01*
X174195714Y-104657380D02*
X174100476Y-104609761D01*
X174052857Y-104562142D01*
X174005238Y-104466904D01*
X174005238Y-104181190D01*
X174052857Y-104085952D01*
X174100476Y-104038333D01*
X174195714Y-103990714D01*
X174338571Y-103990714D01*
X174433809Y-104038333D01*
X174481428Y-104085952D01*
X174529047Y-104181190D01*
X174529047Y-104466904D01*
X174481428Y-104562142D01*
X174433809Y-104609761D01*
X174338571Y-104657380D01*
X174195714Y-104657380D01*
X174957619Y-104657380D02*
X174957619Y-103990714D01*
X174957619Y-104085952D02*
X175005238Y-104038333D01*
X175100476Y-103990714D01*
X175243333Y-103990714D01*
X175338571Y-104038333D01*
X175386190Y-104133571D01*
X175386190Y-104657380D01*
X175386190Y-104133571D02*
X175433809Y-104038333D01*
X175529047Y-103990714D01*
X175671904Y-103990714D01*
X175767142Y-104038333D01*
X175814761Y-104133571D01*
X175814761Y-104657380D01*
X176671904Y-104609761D02*
X176576666Y-104657380D01*
X176386190Y-104657380D01*
X176290952Y-104609761D01*
X176243333Y-104514523D01*
X176243333Y-104133571D01*
X176290952Y-104038333D01*
X176386190Y-103990714D01*
X176576666Y-103990714D01*
X176671904Y-104038333D01*
X176719523Y-104133571D01*
X176719523Y-104228809D01*
X176243333Y-104324047D01*
X177148095Y-104657380D02*
X177148095Y-103657380D01*
X177148095Y-104038333D02*
X177243333Y-103990714D01*
X177433809Y-103990714D01*
X177529047Y-104038333D01*
X177576666Y-104085952D01*
X177624285Y-104181190D01*
X177624285Y-104466904D01*
X177576666Y-104562142D01*
X177529047Y-104609761D01*
X177433809Y-104657380D01*
X177243333Y-104657380D01*
X177148095Y-104609761D01*
X178052857Y-104657380D02*
X178052857Y-103990714D01*
X178052857Y-104181190D02*
X178100476Y-104085952D01*
X178148095Y-104038333D01*
X178243333Y-103990714D01*
X178338571Y-103990714D01*
X179052857Y-104609761D02*
X178957619Y-104657380D01*
X178767142Y-104657380D01*
X178671904Y-104609761D01*
X178624285Y-104514523D01*
X178624285Y-104133571D01*
X178671904Y-104038333D01*
X178767142Y-103990714D01*
X178957619Y-103990714D01*
X179052857Y-104038333D01*
X179100476Y-104133571D01*
X179100476Y-104228809D01*
X178624285Y-104324047D01*
X179433809Y-103990714D02*
X179624285Y-104657380D01*
X179814761Y-104181190D01*
X180005238Y-104657380D01*
X180195714Y-103990714D01*
X181243333Y-103990714D02*
X181481428Y-104657380D01*
X181719523Y-103990714D01*
X182624285Y-104657380D02*
X182052857Y-104657380D01*
X182338571Y-104657380D02*
X182338571Y-103657380D01*
X182243333Y-103800238D01*
X182148095Y-103895476D01*
X182052857Y-103943095D01*
X183052857Y-104562142D02*
X183100476Y-104609761D01*
X183052857Y-104657380D01*
X183005238Y-104609761D01*
X183052857Y-104562142D01*
X183052857Y-104657380D01*
X183433809Y-103657380D02*
X184052857Y-103657380D01*
X183719523Y-104038333D01*
X183862380Y-104038333D01*
X183957619Y-104085952D01*
X184005238Y-104133571D01*
X184052857Y-104228809D01*
X184052857Y-104466904D01*
X184005238Y-104562142D01*
X183957619Y-104609761D01*
X183862380Y-104657380D01*
X183576666Y-104657380D01*
X183481428Y-104609761D01*
X183433809Y-104562142D01*
X162838571Y-106259761D02*
X162981428Y-106307380D01*
X163219523Y-106307380D01*
X163314761Y-106259761D01*
X163362380Y-106212142D01*
X163410000Y-106116904D01*
X163410000Y-106021666D01*
X163362380Y-105926428D01*
X163314761Y-105878809D01*
X163219523Y-105831190D01*
X163029047Y-105783571D01*
X162933809Y-105735952D01*
X162886190Y-105688333D01*
X162838571Y-105593095D01*
X162838571Y-105497857D01*
X162886190Y-105402619D01*
X162933809Y-105355000D01*
X163029047Y-105307380D01*
X163267142Y-105307380D01*
X163410000Y-105355000D01*
X164267142Y-105640714D02*
X164267142Y-106307380D01*
X163838571Y-105640714D02*
X163838571Y-106164523D01*
X163886190Y-106259761D01*
X163981428Y-106307380D01*
X164124285Y-106307380D01*
X164219523Y-106259761D01*
X164267142Y-106212142D01*
X164743333Y-106307380D02*
X164743333Y-105307380D01*
X164743333Y-105688333D02*
X164838571Y-105640714D01*
X165029047Y-105640714D01*
X165124285Y-105688333D01*
X165171904Y-105735952D01*
X165219523Y-105831190D01*
X165219523Y-106116904D01*
X165171904Y-106212142D01*
X165124285Y-106259761D01*
X165029047Y-106307380D01*
X164838571Y-106307380D01*
X164743333Y-106259761D01*
X165648095Y-106307380D02*
X165648095Y-105307380D01*
X165648095Y-105688333D02*
X165743333Y-105640714D01*
X165933809Y-105640714D01*
X166029047Y-105688333D01*
X166076666Y-105735952D01*
X166124285Y-105831190D01*
X166124285Y-106116904D01*
X166076666Y-106212142D01*
X166029047Y-106259761D01*
X165933809Y-106307380D01*
X165743333Y-106307380D01*
X165648095Y-106259761D01*
X166695714Y-106307380D02*
X166600476Y-106259761D01*
X166552857Y-106212142D01*
X166505238Y-106116904D01*
X166505238Y-105831190D01*
X166552857Y-105735952D01*
X166600476Y-105688333D01*
X166695714Y-105640714D01*
X166838571Y-105640714D01*
X166933809Y-105688333D01*
X166981428Y-105735952D01*
X167029047Y-105831190D01*
X167029047Y-106116904D01*
X166981428Y-106212142D01*
X166933809Y-106259761D01*
X166838571Y-106307380D01*
X166695714Y-106307380D01*
X167886190Y-106307380D02*
X167886190Y-105783571D01*
X167838571Y-105688333D01*
X167743333Y-105640714D01*
X167552857Y-105640714D01*
X167457619Y-105688333D01*
X167886190Y-106259761D02*
X167790952Y-106307380D01*
X167552857Y-106307380D01*
X167457619Y-106259761D01*
X167410000Y-106164523D01*
X167410000Y-106069285D01*
X167457619Y-105974047D01*
X167552857Y-105926428D01*
X167790952Y-105926428D01*
X167886190Y-105878809D01*
X168362380Y-106307380D02*
X168362380Y-105640714D01*
X168362380Y-105831190D02*
X168410000Y-105735952D01*
X168457619Y-105688333D01*
X168552857Y-105640714D01*
X168648095Y-105640714D01*
X169410000Y-106307380D02*
X169410000Y-105307380D01*
X169410000Y-106259761D02*
X169314761Y-106307380D01*
X169124285Y-106307380D01*
X169029047Y-106259761D01*
X168981428Y-106212142D01*
X168933809Y-106116904D01*
X168933809Y-105831190D01*
X168981428Y-105735952D01*
X169029047Y-105688333D01*
X169124285Y-105640714D01*
X169314761Y-105640714D01*
X169410000Y-105688333D01*
X170600476Y-106021666D02*
X171076666Y-106021666D01*
X170505238Y-106307380D02*
X170838571Y-105307380D01*
X171171904Y-106307380D01*
X172171904Y-105640714D02*
X172410000Y-106307380D01*
X172648095Y-105640714D01*
X173552857Y-106307380D02*
X172981428Y-106307380D01*
X173267142Y-106307380D02*
X173267142Y-105307380D01*
X173171904Y-105450238D01*
X173076666Y-105545476D01*
X172981428Y-105593095D01*
X173981428Y-106212142D02*
X174029047Y-106259761D01*
X173981428Y-106307380D01*
X173933809Y-106259761D01*
X173981428Y-106212142D01*
X173981428Y-106307380D01*
X174981428Y-106307380D02*
X174409999Y-106307380D01*
X174695714Y-106307380D02*
X174695714Y-105307380D01*
X174600476Y-105450238D01*
X174505238Y-105545476D01*
X174409999Y-105593095D01*
X155838571Y-107957380D02*
X155838571Y-106957380D01*
X156076666Y-106957380D01*
X156219523Y-107005000D01*
X156314761Y-107100238D01*
X156362380Y-107195476D01*
X156410000Y-107385952D01*
X156410000Y-107528809D01*
X156362380Y-107719285D01*
X156314761Y-107814523D01*
X156219523Y-107909761D01*
X156076666Y-107957380D01*
X155838571Y-107957380D01*
X157219523Y-107909761D02*
X157124285Y-107957380D01*
X156933809Y-107957380D01*
X156838571Y-107909761D01*
X156790952Y-107814523D01*
X156790952Y-107433571D01*
X156838571Y-107338333D01*
X156933809Y-107290714D01*
X157124285Y-107290714D01*
X157219523Y-107338333D01*
X157267142Y-107433571D01*
X157267142Y-107528809D01*
X156790952Y-107624047D01*
X157648095Y-107909761D02*
X157743333Y-107957380D01*
X157933809Y-107957380D01*
X158029047Y-107909761D01*
X158076666Y-107814523D01*
X158076666Y-107766904D01*
X158029047Y-107671666D01*
X157933809Y-107624047D01*
X157790952Y-107624047D01*
X157695714Y-107576428D01*
X157648095Y-107481190D01*
X157648095Y-107433571D01*
X157695714Y-107338333D01*
X157790952Y-107290714D01*
X157933809Y-107290714D01*
X158029047Y-107338333D01*
X158505238Y-107957380D02*
X158505238Y-107290714D01*
X158505238Y-106957380D02*
X158457619Y-107005000D01*
X158505238Y-107052619D01*
X158552857Y-107005000D01*
X158505238Y-106957380D01*
X158505238Y-107052619D01*
X159410000Y-107290714D02*
X159410000Y-108100238D01*
X159362380Y-108195476D01*
X159314761Y-108243095D01*
X159219523Y-108290714D01*
X159076666Y-108290714D01*
X158981428Y-108243095D01*
X159410000Y-107909761D02*
X159314761Y-107957380D01*
X159124285Y-107957380D01*
X159029047Y-107909761D01*
X158981428Y-107862142D01*
X158933809Y-107766904D01*
X158933809Y-107481190D01*
X158981428Y-107385952D01*
X159029047Y-107338333D01*
X159124285Y-107290714D01*
X159314761Y-107290714D01*
X159410000Y-107338333D01*
X159886190Y-107290714D02*
X159886190Y-107957380D01*
X159886190Y-107385952D02*
X159933809Y-107338333D01*
X160029047Y-107290714D01*
X160171904Y-107290714D01*
X160267142Y-107338333D01*
X160314761Y-107433571D01*
X160314761Y-107957380D01*
X161171904Y-107909761D02*
X161076666Y-107957380D01*
X160886190Y-107957380D01*
X160790952Y-107909761D01*
X160743333Y-107814523D01*
X160743333Y-107433571D01*
X160790952Y-107338333D01*
X160886190Y-107290714D01*
X161076666Y-107290714D01*
X161171904Y-107338333D01*
X161219523Y-107433571D01*
X161219523Y-107528809D01*
X160743333Y-107624047D01*
X162076666Y-107957380D02*
X162076666Y-106957380D01*
X162076666Y-107909761D02*
X161981428Y-107957380D01*
X161790952Y-107957380D01*
X161695714Y-107909761D01*
X161648095Y-107862142D01*
X161600476Y-107766904D01*
X161600476Y-107481190D01*
X161648095Y-107385952D01*
X161695714Y-107338333D01*
X161790952Y-107290714D01*
X161981428Y-107290714D01*
X162076666Y-107338333D01*
X163314761Y-107957380D02*
X163314761Y-107290714D01*
X163314761Y-106957380D02*
X163267142Y-107005000D01*
X163314761Y-107052619D01*
X163362380Y-107005000D01*
X163314761Y-106957380D01*
X163314761Y-107052619D01*
X163790952Y-107290714D02*
X163790952Y-107957380D01*
X163790952Y-107385952D02*
X163838571Y-107338333D01*
X163933809Y-107290714D01*
X164076666Y-107290714D01*
X164171904Y-107338333D01*
X164219523Y-107433571D01*
X164219523Y-107957380D01*
X165410000Y-107909761D02*
X165552857Y-107957380D01*
X165790952Y-107957380D01*
X165886190Y-107909761D01*
X165933809Y-107862142D01*
X165981428Y-107766904D01*
X165981428Y-107671666D01*
X165933809Y-107576428D01*
X165886190Y-107528809D01*
X165790952Y-107481190D01*
X165600476Y-107433571D01*
X165505238Y-107385952D01*
X165457619Y-107338333D01*
X165410000Y-107243095D01*
X165410000Y-107147857D01*
X165457619Y-107052619D01*
X165505238Y-107005000D01*
X165600476Y-106957380D01*
X165838571Y-106957380D01*
X165981428Y-107005000D01*
X166410000Y-107957380D02*
X166410000Y-106957380D01*
X166838571Y-107957380D02*
X166838571Y-107433571D01*
X166790952Y-107338333D01*
X166695714Y-107290714D01*
X166552857Y-107290714D01*
X166457619Y-107338333D01*
X166410000Y-107385952D01*
X167743333Y-107957380D02*
X167743333Y-107433571D01*
X167695714Y-107338333D01*
X167600476Y-107290714D01*
X167410000Y-107290714D01*
X167314761Y-107338333D01*
X167743333Y-107909761D02*
X167648095Y-107957380D01*
X167410000Y-107957380D01*
X167314761Y-107909761D01*
X167267142Y-107814523D01*
X167267142Y-107719285D01*
X167314761Y-107624047D01*
X167410000Y-107576428D01*
X167648095Y-107576428D01*
X167743333Y-107528809D01*
X168219523Y-107290714D02*
X168219523Y-107957380D01*
X168219523Y-107385952D02*
X168267142Y-107338333D01*
X168362380Y-107290714D01*
X168505238Y-107290714D01*
X168600476Y-107338333D01*
X168648095Y-107433571D01*
X168648095Y-107957380D01*
X169552857Y-107290714D02*
X169552857Y-108100238D01*
X169505238Y-108195476D01*
X169457619Y-108243095D01*
X169362380Y-108290714D01*
X169219523Y-108290714D01*
X169124285Y-108243095D01*
X169552857Y-107909761D02*
X169457619Y-107957380D01*
X169267142Y-107957380D01*
X169171904Y-107909761D01*
X169124285Y-107862142D01*
X169076666Y-107766904D01*
X169076666Y-107481190D01*
X169124285Y-107385952D01*
X169171904Y-107338333D01*
X169267142Y-107290714D01*
X169457619Y-107290714D01*
X169552857Y-107338333D01*
X170029047Y-107957380D02*
X170029047Y-106957380D01*
X170457619Y-107957380D02*
X170457619Y-107433571D01*
X170410000Y-107338333D01*
X170314761Y-107290714D01*
X170171904Y-107290714D01*
X170076666Y-107338333D01*
X170029047Y-107385952D01*
X171362380Y-107957380D02*
X171362380Y-107433571D01*
X171314761Y-107338333D01*
X171219523Y-107290714D01*
X171029047Y-107290714D01*
X170933809Y-107338333D01*
X171362380Y-107909761D02*
X171267142Y-107957380D01*
X171029047Y-107957380D01*
X170933809Y-107909761D01*
X170886190Y-107814523D01*
X170886190Y-107719285D01*
X170933809Y-107624047D01*
X171029047Y-107576428D01*
X171267142Y-107576428D01*
X171362380Y-107528809D01*
X171838571Y-107957380D02*
X171838571Y-107290714D01*
X171838571Y-106957380D02*
X171790952Y-107005000D01*
X171838571Y-107052619D01*
X171886190Y-107005000D01*
X171838571Y-106957380D01*
X171838571Y-107052619D01*
X172362380Y-107909761D02*
X172362380Y-107957380D01*
X172314761Y-108052619D01*
X172267142Y-108100238D01*
X173552857Y-107957380D02*
X173552857Y-106957380D01*
X173552857Y-107338333D02*
X173648095Y-107290714D01*
X173838571Y-107290714D01*
X173933809Y-107338333D01*
X173981428Y-107385952D01*
X174029047Y-107481190D01*
X174029047Y-107766904D01*
X173981428Y-107862142D01*
X173933809Y-107909761D01*
X173838571Y-107957380D01*
X173648095Y-107957380D01*
X173552857Y-107909761D01*
X174362380Y-107290714D02*
X174600476Y-107957380D01*
X174838571Y-107290714D02*
X174600476Y-107957380D01*
X174505238Y-108195476D01*
X174457619Y-108243095D01*
X174362380Y-108290714D01*
X175933809Y-107909761D02*
X176076666Y-107957380D01*
X176314761Y-107957380D01*
X176410000Y-107909761D01*
X176457619Y-107862142D01*
X176505238Y-107766904D01*
X176505238Y-107671666D01*
X176457619Y-107576428D01*
X176410000Y-107528809D01*
X176314761Y-107481190D01*
X176124285Y-107433571D01*
X176029047Y-107385952D01*
X175981428Y-107338333D01*
X175933809Y-107243095D01*
X175933809Y-107147857D01*
X175981428Y-107052619D01*
X176029047Y-107005000D01*
X176124285Y-106957380D01*
X176362380Y-106957380D01*
X176505238Y-107005000D01*
X177124285Y-106957380D02*
X177314761Y-106957380D01*
X177409999Y-107005000D01*
X177505238Y-107100238D01*
X177552857Y-107290714D01*
X177552857Y-107624047D01*
X177505238Y-107814523D01*
X177409999Y-107909761D01*
X177314761Y-107957380D01*
X177124285Y-107957380D01*
X177029047Y-107909761D01*
X176933809Y-107814523D01*
X176886190Y-107624047D01*
X176886190Y-107290714D01*
X176933809Y-107100238D01*
X177029047Y-107005000D01*
X177124285Y-106957380D01*
X177981428Y-107957380D02*
X177981428Y-106957380D01*
X178552857Y-107957380D01*
X178552857Y-106957380D01*
X179029047Y-107957380D02*
X179029047Y-106957380D01*
X180076666Y-107862142D02*
X180029047Y-107909761D01*
X179886190Y-107957380D01*
X179790952Y-107957380D01*
X179648095Y-107909761D01*
X179552857Y-107814523D01*
X179505238Y-107719285D01*
X179457619Y-107528809D01*
X179457619Y-107385952D01*
X179505238Y-107195476D01*
X179552857Y-107100238D01*
X179648095Y-107005000D01*
X179790952Y-106957380D01*
X179886190Y-106957380D01*
X180029047Y-107005000D01*
X180076666Y-107052619D01*
X180410000Y-106957380D02*
X181029047Y-106957380D01*
X180695714Y-107338333D01*
X180838571Y-107338333D01*
X180933809Y-107385952D01*
X180981428Y-107433571D01*
X181029047Y-107528809D01*
X181029047Y-107766904D01*
X180981428Y-107862142D01*
X180933809Y-107909761D01*
X180838571Y-107957380D01*
X180552857Y-107957380D01*
X180457619Y-107909761D01*
X180410000Y-107862142D01*
X181457619Y-107957380D02*
X181457619Y-106957380D01*
X181695714Y-106957380D01*
X181838571Y-107005000D01*
X181933809Y-107100238D01*
X181981428Y-107195476D01*
X182029047Y-107385952D01*
X182029047Y-107528809D01*
X181981428Y-107719285D01*
X181933809Y-107814523D01*
X181838571Y-107909761D01*
X181695714Y-107957380D01*
X181457619Y-107957380D01*
X164433809Y-108702619D02*
X164481428Y-108655000D01*
X164576666Y-108607380D01*
X164814761Y-108607380D01*
X164910000Y-108655000D01*
X164957619Y-108702619D01*
X165005238Y-108797857D01*
X165005238Y-108893095D01*
X164957619Y-109035952D01*
X164386190Y-109607380D01*
X165005238Y-109607380D01*
X165624285Y-108607380D02*
X165719523Y-108607380D01*
X165814761Y-108655000D01*
X165862380Y-108702619D01*
X165910000Y-108797857D01*
X165957619Y-108988333D01*
X165957619Y-109226428D01*
X165910000Y-109416904D01*
X165862380Y-109512142D01*
X165814761Y-109559761D01*
X165719523Y-109607380D01*
X165624285Y-109607380D01*
X165529047Y-109559761D01*
X165481428Y-109512142D01*
X165433809Y-109416904D01*
X165386190Y-109226428D01*
X165386190Y-108988333D01*
X165433809Y-108797857D01*
X165481428Y-108702619D01*
X165529047Y-108655000D01*
X165624285Y-108607380D01*
X166338571Y-108702619D02*
X166386190Y-108655000D01*
X166481428Y-108607380D01*
X166719523Y-108607380D01*
X166814761Y-108655000D01*
X166862380Y-108702619D01*
X166910000Y-108797857D01*
X166910000Y-108893095D01*
X166862380Y-109035952D01*
X166290952Y-109607380D01*
X166910000Y-109607380D01*
X167243333Y-108607380D02*
X167862380Y-108607380D01*
X167529047Y-108988333D01*
X167671904Y-108988333D01*
X167767142Y-109035952D01*
X167814761Y-109083571D01*
X167862380Y-109178809D01*
X167862380Y-109416904D01*
X167814761Y-109512142D01*
X167767142Y-109559761D01*
X167671904Y-109607380D01*
X167386190Y-109607380D01*
X167290952Y-109559761D01*
X167243333Y-109512142D01*
X168290952Y-109512142D02*
X168338571Y-109559761D01*
X168290952Y-109607380D01*
X168243333Y-109559761D01*
X168290952Y-109512142D01*
X168290952Y-109607380D01*
X168719523Y-109321666D02*
X169195714Y-109321666D01*
X168624285Y-109607380D02*
X168957619Y-108607380D01*
X169290952Y-109607380D01*
X170052857Y-108940714D02*
X170052857Y-109607380D01*
X169624285Y-108940714D02*
X169624285Y-109464523D01*
X169671904Y-109559761D01*
X169767142Y-109607380D01*
X169910000Y-109607380D01*
X170005238Y-109559761D01*
X170052857Y-109512142D01*
X170957619Y-108940714D02*
X170957619Y-109750238D01*
X170910000Y-109845476D01*
X170862380Y-109893095D01*
X170767142Y-109940714D01*
X170624285Y-109940714D01*
X170529047Y-109893095D01*
X170957619Y-109559761D02*
X170862380Y-109607380D01*
X170671904Y-109607380D01*
X170576666Y-109559761D01*
X170529047Y-109512142D01*
X170481428Y-109416904D01*
X170481428Y-109131190D01*
X170529047Y-109035952D01*
X170576666Y-108988333D01*
X170671904Y-108940714D01*
X170862380Y-108940714D01*
X170957619Y-108988333D01*
X171433809Y-109512142D02*
X171481428Y-109559761D01*
X171433809Y-109607380D01*
X171386190Y-109559761D01*
X171433809Y-109512142D01*
X171433809Y-109607380D01*
X172433809Y-109607380D02*
X171862380Y-109607380D01*
X172148095Y-109607380D02*
X172148095Y-108607380D01*
X172052857Y-108750238D01*
X171957619Y-108845476D01*
X171862380Y-108893095D01*
X173005238Y-109035952D02*
X172910000Y-108988333D01*
X172862380Y-108940714D01*
X172814761Y-108845476D01*
X172814761Y-108797857D01*
X172862380Y-108702619D01*
X172910000Y-108655000D01*
X173005238Y-108607380D01*
X173195714Y-108607380D01*
X173290952Y-108655000D01*
X173338571Y-108702619D01*
X173386190Y-108797857D01*
X173386190Y-108845476D01*
X173338571Y-108940714D01*
X173290952Y-108988333D01*
X173195714Y-109035952D01*
X173005238Y-109035952D01*
X172910000Y-109083571D01*
X172862380Y-109131190D01*
X172814761Y-109226428D01*
X172814761Y-109416904D01*
X172862380Y-109512142D01*
X172910000Y-109559761D01*
X173005238Y-109607380D01*
X173195714Y-109607380D01*
X173290952Y-109559761D01*
X173338571Y-109512142D01*
X173386190Y-109416904D01*
X173386190Y-109226428D01*
X173338571Y-109131190D01*
X173290952Y-109083571D01*
X173195714Y-109035952D01*
D12*
%TO.C,R1*%
X144880000Y-85952064D02*
X144880000Y-85497936D01*
X143410000Y-85952064D02*
X143410000Y-85497936D01*
%TO.C,LED1*%
X145105000Y-91220000D02*
X145105000Y-88535000D01*
X143185000Y-91220000D02*
X145105000Y-91220000D01*
X143185000Y-88535000D02*
X143185000Y-91220000D01*
%TO.C,JP1*%
X191705000Y-83455000D02*
X193105000Y-83455000D01*
X193805000Y-84155000D02*
X193805000Y-84755000D01*
X193105000Y-85455000D02*
X191705000Y-85455000D01*
X191005000Y-84755000D02*
X191005000Y-84155000D01*
X191005000Y-84155000D02*
G75*
G02*
X191705000Y-83455000I700000J0D01*
G01*
X191705000Y-85455000D02*
G75*
G02*
X191005000Y-84755000I0J700000D01*
G01*
X193805000Y-84755000D02*
G75*
G02*
X193105000Y-85455000I-700000J0D01*
G01*
X193105000Y-83455000D02*
G75*
G02*
X193805000Y-84155000I0J-700000D01*
G01*
%TO.C,D1*%
X193905000Y-87845000D02*
X191355000Y-87845000D01*
X193905000Y-86145000D02*
X191355000Y-86145000D01*
X193905000Y-87845000D02*
X193905000Y-86145000D01*
D13*
%TO.C,G\u002A\u002A\u002A*%
G36*
X189668611Y-104910286D02*
G01*
X189713684Y-104930532D01*
X189715239Y-104956118D01*
X189695611Y-104992625D01*
X189669574Y-104980471D01*
X189644237Y-104951417D01*
X189625141Y-104916521D01*
X189660027Y-104909727D01*
X189668611Y-104910286D01*
G37*
X189668611Y-104910286D02*
X189713684Y-104930532D01*
X189715239Y-104956118D01*
X189695611Y-104992625D01*
X189669574Y-104980471D01*
X189644237Y-104951417D01*
X189625141Y-104916521D01*
X189660027Y-104909727D01*
X189668611Y-104910286D01*
G36*
X190372077Y-105910410D02*
G01*
X190373000Y-105918000D01*
X190348839Y-105948827D01*
X190341250Y-105949750D01*
X190310422Y-105925589D01*
X190309500Y-105918000D01*
X190333660Y-105887172D01*
X190341250Y-105886250D01*
X190372077Y-105910410D01*
G37*
X190372077Y-105910410D02*
X190373000Y-105918000D01*
X190348839Y-105948827D01*
X190341250Y-105949750D01*
X190310422Y-105925589D01*
X190309500Y-105918000D01*
X190333660Y-105887172D01*
X190341250Y-105886250D01*
X190372077Y-105910410D01*
G36*
X190209344Y-107327843D02*
G01*
X190243429Y-107359812D01*
X190236437Y-107378190D01*
X190231998Y-107378500D01*
X190205144Y-107355948D01*
X190195343Y-107341844D01*
X190191600Y-107320117D01*
X190209344Y-107327843D01*
G37*
X190209344Y-107327843D02*
X190243429Y-107359812D01*
X190236437Y-107378190D01*
X190231998Y-107378500D01*
X190205144Y-107355948D01*
X190195343Y-107341844D01*
X190191600Y-107320117D01*
X190209344Y-107327843D01*
G36*
X189100526Y-104766959D02*
G01*
X189100282Y-104775000D01*
X189086616Y-104843065D01*
X189071250Y-104886125D01*
X189043963Y-104949625D01*
X189042217Y-104886125D01*
X189055815Y-104808180D01*
X189071250Y-104775000D01*
X189095734Y-104743396D01*
X189100526Y-104766959D01*
G37*
X189100526Y-104766959D02*
X189100282Y-104775000D01*
X189086616Y-104843065D01*
X189071250Y-104886125D01*
X189043963Y-104949625D01*
X189042217Y-104886125D01*
X189055815Y-104808180D01*
X189071250Y-104775000D01*
X189095734Y-104743396D01*
X189100526Y-104766959D01*
G36*
X189515750Y-104981375D02*
G01*
X189499875Y-104997250D01*
X189484000Y-104981375D01*
X189499875Y-104965500D01*
X189515750Y-104981375D01*
G37*
X189515750Y-104981375D02*
X189499875Y-104997250D01*
X189484000Y-104981375D01*
X189499875Y-104965500D01*
X189515750Y-104981375D01*
G36*
X189832811Y-105213017D02*
G01*
X189844731Y-105235375D01*
X189857083Y-105275405D01*
X189856066Y-105280493D01*
X189825032Y-105268243D01*
X189809437Y-105261972D01*
X189774715Y-105230561D01*
X189775372Y-105196938D01*
X189798103Y-105187750D01*
X189832811Y-105213017D01*
G37*
X189832811Y-105213017D02*
X189844731Y-105235375D01*
X189857083Y-105275405D01*
X189856066Y-105280493D01*
X189825032Y-105268243D01*
X189809437Y-105261972D01*
X189774715Y-105230561D01*
X189775372Y-105196938D01*
X189798103Y-105187750D01*
X189832811Y-105213017D01*
G36*
X189348537Y-105361533D02*
G01*
X189357000Y-105378250D01*
X189352123Y-105405973D01*
X189324638Y-105397728D01*
X189293500Y-105378250D01*
X189264311Y-105353644D01*
X189294319Y-105347088D01*
X189301437Y-105346986D01*
X189348537Y-105361533D01*
G37*
X189348537Y-105361533D02*
X189357000Y-105378250D01*
X189352123Y-105405973D01*
X189324638Y-105397728D01*
X189293500Y-105378250D01*
X189264311Y-105353644D01*
X189294319Y-105347088D01*
X189301437Y-105346986D01*
X189348537Y-105361533D01*
G36*
X189733087Y-105339637D02*
G01*
X189780266Y-105364650D01*
X189811975Y-105360053D01*
X189856044Y-105357153D01*
X189865000Y-105371150D01*
X189838937Y-105402365D01*
X189783486Y-105423261D01*
X189732756Y-105422717D01*
X189723963Y-105417130D01*
X189708370Y-105373294D01*
X189706736Y-105349145D01*
X189713716Y-105318315D01*
X189733087Y-105339637D01*
G37*
X189733087Y-105339637D02*
X189780266Y-105364650D01*
X189811975Y-105360053D01*
X189856044Y-105357153D01*
X189865000Y-105371150D01*
X189838937Y-105402365D01*
X189783486Y-105423261D01*
X189732756Y-105422717D01*
X189723963Y-105417130D01*
X189708370Y-105373294D01*
X189706736Y-105349145D01*
X189713716Y-105318315D01*
X189733087Y-105339637D01*
G36*
X189380457Y-105454624D02*
G01*
X189384487Y-105488884D01*
X189350849Y-105515766D01*
X189308358Y-105516341D01*
X189268207Y-105518287D01*
X189261750Y-105533603D01*
X189239534Y-105567121D01*
X189230000Y-105568750D01*
X189199295Y-105544482D01*
X189198250Y-105536214D01*
X189224046Y-105504729D01*
X189282312Y-105472278D01*
X189344363Y-105451707D01*
X189380457Y-105454624D01*
G37*
X189380457Y-105454624D02*
X189384487Y-105488884D01*
X189350849Y-105515766D01*
X189308358Y-105516341D01*
X189268207Y-105518287D01*
X189261750Y-105533603D01*
X189239534Y-105567121D01*
X189230000Y-105568750D01*
X189199295Y-105544482D01*
X189198250Y-105536214D01*
X189224046Y-105504729D01*
X189282312Y-105472278D01*
X189344363Y-105451707D01*
X189380457Y-105454624D01*
G36*
X189417502Y-104611629D02*
G01*
X189479201Y-104639059D01*
X189553496Y-104685844D01*
X189645147Y-104759983D01*
X189741254Y-104848729D01*
X189828918Y-104939337D01*
X189895240Y-105019058D01*
X189927319Y-105075146D01*
X189928500Y-105083031D01*
X189945908Y-105121022D01*
X189956891Y-105124250D01*
X189976633Y-105151286D01*
X189980703Y-105203602D01*
X189966136Y-105269468D01*
X189936817Y-105277829D01*
X189910431Y-105247700D01*
X189912572Y-105202806D01*
X189927822Y-105188168D01*
X189947703Y-105157458D01*
X189934601Y-105143895D01*
X189897522Y-105148727D01*
X189888750Y-105163739D01*
X189868021Y-105187522D01*
X189826246Y-105163127D01*
X189783785Y-105140182D01*
X189758763Y-105170708D01*
X189756920Y-105175386D01*
X189737037Y-105210508D01*
X189706923Y-105200028D01*
X189679275Y-105176196D01*
X189601825Y-105130917D01*
X189534690Y-105134134D01*
X189494038Y-105184789D01*
X189493024Y-105188419D01*
X189470087Y-105231381D01*
X189436204Y-105219358D01*
X189396464Y-105206728D01*
X189377579Y-105234564D01*
X189336876Y-105277281D01*
X189313129Y-105283000D01*
X189285256Y-105272087D01*
X189286650Y-105228815D01*
X189301071Y-105179812D01*
X189327239Y-105097439D01*
X189344450Y-105038847D01*
X189344942Y-105036937D01*
X189380628Y-105001329D01*
X189402632Y-104997250D01*
X189435861Y-105018608D01*
X189433214Y-105041663D01*
X189433203Y-105090800D01*
X189443663Y-105103068D01*
X189494329Y-105105474D01*
X189535231Y-105059235D01*
X189553373Y-104979123D01*
X189553393Y-104978336D01*
X189553110Y-104877523D01*
X189543956Y-104825455D01*
X189522458Y-104807606D01*
X189512353Y-104806750D01*
X189491123Y-104829845D01*
X189495481Y-104854375D01*
X189490551Y-104893013D01*
X189447811Y-104902000D01*
X189401012Y-104890635D01*
X189396713Y-104844736D01*
X189400878Y-104826248D01*
X189402056Y-104789562D01*
X189589833Y-104789562D01*
X189612141Y-104818157D01*
X189640104Y-104814214D01*
X189672332Y-104806336D01*
X189662155Y-104828633D01*
X189639029Y-104856928D01*
X189592428Y-104934412D01*
X189596150Y-104988759D01*
X189648116Y-105010820D01*
X189673737Y-105009669D01*
X189763183Y-105025819D01*
X189802454Y-105062074D01*
X189848637Y-105111916D01*
X189878772Y-105121120D01*
X189880146Y-105087187D01*
X189876481Y-105076625D01*
X189844284Y-105034586D01*
X189827979Y-105029000D01*
X189813480Y-105008768D01*
X189820406Y-104992344D01*
X189824169Y-104970321D01*
X189810015Y-104976112D01*
X189777644Y-104967016D01*
X189759621Y-104930198D01*
X189731614Y-104884335D01*
X189702991Y-104888138D01*
X189677046Y-104892289D01*
X189683797Y-104860067D01*
X189677189Y-104802556D01*
X189646859Y-104777199D01*
X189600837Y-104763728D01*
X189589833Y-104789562D01*
X189402056Y-104789562D01*
X189402877Y-104764029D01*
X189359853Y-104734825D01*
X189356651Y-104733959D01*
X189313870Y-104731954D01*
X189311204Y-104746210D01*
X189304995Y-104772898D01*
X189292727Y-104775000D01*
X189267333Y-104797644D01*
X189269410Y-104813855D01*
X189265403Y-104868533D01*
X189240699Y-104932917D01*
X189218853Y-104992835D01*
X189225220Y-105021983D01*
X189236130Y-105055493D01*
X189234461Y-105130775D01*
X189228316Y-105180733D01*
X189217211Y-105273183D01*
X189215239Y-105337638D01*
X189218132Y-105352243D01*
X189208501Y-105385556D01*
X189196259Y-105395355D01*
X189176723Y-105443027D01*
X189179387Y-105544369D01*
X189182845Y-105572174D01*
X189191355Y-105676013D01*
X189182944Y-105722601D01*
X189161729Y-105714603D01*
X189131824Y-105654682D01*
X189097344Y-105545504D01*
X189088565Y-105511127D01*
X189063615Y-105381179D01*
X189049713Y-105249549D01*
X189046899Y-105130660D01*
X189055212Y-105038932D01*
X189074692Y-104988788D01*
X189087125Y-104983632D01*
X189116718Y-105012344D01*
X189126542Y-105047132D01*
X189130113Y-105088680D01*
X189118893Y-105072739D01*
X189106505Y-105044875D01*
X189088908Y-105016546D01*
X189080056Y-105040444D01*
X189077334Y-105108375D01*
X189080328Y-105241509D01*
X189091364Y-105343749D01*
X189108484Y-105405240D01*
X189129732Y-105416129D01*
X189136779Y-105407803D01*
X189158769Y-105341297D01*
X189163782Y-105283000D01*
X189160320Y-105230086D01*
X189148669Y-105236601D01*
X189134750Y-105267125D01*
X189113371Y-105303258D01*
X189104847Y-105290436D01*
X189108805Y-105241811D01*
X189124876Y-105170535D01*
X189138718Y-105126512D01*
X189158469Y-105026973D01*
X189137529Y-104943047D01*
X189115869Y-104879043D01*
X189117004Y-104845662D01*
X189138990Y-104858371D01*
X189163805Y-104905327D01*
X189186613Y-104949257D01*
X189196013Y-104932139D01*
X189196237Y-104927686D01*
X189179951Y-104869382D01*
X189163734Y-104852665D01*
X189142042Y-104808365D01*
X189144886Y-104771416D01*
X189142354Y-104722661D01*
X189123840Y-104711290D01*
X189122500Y-104696508D01*
X189130117Y-104689952D01*
X189197149Y-104689952D01*
X189224515Y-104701857D01*
X189269752Y-104685795D01*
X189276847Y-104680395D01*
X189324198Y-104657612D01*
X189379489Y-104678582D01*
X189396677Y-104690080D01*
X189466029Y-104729781D01*
X189513474Y-104742368D01*
X189526750Y-104727560D01*
X189501242Y-104692456D01*
X189440146Y-104659734D01*
X189352511Y-104640647D01*
X189266570Y-104638571D01*
X189210559Y-104656881D01*
X189209806Y-104657610D01*
X189197149Y-104689952D01*
X189130117Y-104689952D01*
X189164862Y-104660049D01*
X189182375Y-104648000D01*
X189265251Y-104600828D01*
X189334855Y-104588969D01*
X189417502Y-104611629D01*
G37*
X189417502Y-104611629D02*
X189479201Y-104639059D01*
X189553496Y-104685844D01*
X189645147Y-104759983D01*
X189741254Y-104848729D01*
X189828918Y-104939337D01*
X189895240Y-105019058D01*
X189927319Y-105075146D01*
X189928500Y-105083031D01*
X189945908Y-105121022D01*
X189956891Y-105124250D01*
X189976633Y-105151286D01*
X189980703Y-105203602D01*
X189966136Y-105269468D01*
X189936817Y-105277829D01*
X189910431Y-105247700D01*
X189912572Y-105202806D01*
X189927822Y-105188168D01*
X189947703Y-105157458D01*
X189934601Y-105143895D01*
X189897522Y-105148727D01*
X189888750Y-105163739D01*
X189868021Y-105187522D01*
X189826246Y-105163127D01*
X189783785Y-105140182D01*
X189758763Y-105170708D01*
X189756920Y-105175386D01*
X189737037Y-105210508D01*
X189706923Y-105200028D01*
X189679275Y-105176196D01*
X189601825Y-105130917D01*
X189534690Y-105134134D01*
X189494038Y-105184789D01*
X189493024Y-105188419D01*
X189470087Y-105231381D01*
X189436204Y-105219358D01*
X189396464Y-105206728D01*
X189377579Y-105234564D01*
X189336876Y-105277281D01*
X189313129Y-105283000D01*
X189285256Y-105272087D01*
X189286650Y-105228815D01*
X189301071Y-105179812D01*
X189327239Y-105097439D01*
X189344450Y-105038847D01*
X189344942Y-105036937D01*
X189380628Y-105001329D01*
X189402632Y-104997250D01*
X189435861Y-105018608D01*
X189433214Y-105041663D01*
X189433203Y-105090800D01*
X189443663Y-105103068D01*
X189494329Y-105105474D01*
X189535231Y-105059235D01*
X189553373Y-104979123D01*
X189553393Y-104978336D01*
X189553110Y-104877523D01*
X189543956Y-104825455D01*
X189522458Y-104807606D01*
X189512353Y-104806750D01*
X189491123Y-104829845D01*
X189495481Y-104854375D01*
X189490551Y-104893013D01*
X189447811Y-104902000D01*
X189401012Y-104890635D01*
X189396713Y-104844736D01*
X189400878Y-104826248D01*
X189402056Y-104789562D01*
X189589833Y-104789562D01*
X189612141Y-104818157D01*
X189640104Y-104814214D01*
X189672332Y-104806336D01*
X189662155Y-104828633D01*
X189639029Y-104856928D01*
X189592428Y-104934412D01*
X189596150Y-104988759D01*
X189648116Y-105010820D01*
X189673737Y-105009669D01*
X189763183Y-105025819D01*
X189802454Y-105062074D01*
X189848637Y-105111916D01*
X189878772Y-105121120D01*
X189880146Y-105087187D01*
X189876481Y-105076625D01*
X189844284Y-105034586D01*
X189827979Y-105029000D01*
X189813480Y-105008768D01*
X189820406Y-104992344D01*
X189824169Y-104970321D01*
X189810015Y-104976112D01*
X189777644Y-104967016D01*
X189759621Y-104930198D01*
X189731614Y-104884335D01*
X189702991Y-104888138D01*
X189677046Y-104892289D01*
X189683797Y-104860067D01*
X189677189Y-104802556D01*
X189646859Y-104777199D01*
X189600837Y-104763728D01*
X189589833Y-104789562D01*
X189402056Y-104789562D01*
X189402877Y-104764029D01*
X189359853Y-104734825D01*
X189356651Y-104733959D01*
X189313870Y-104731954D01*
X189311204Y-104746210D01*
X189304995Y-104772898D01*
X189292727Y-104775000D01*
X189267333Y-104797644D01*
X189269410Y-104813855D01*
X189265403Y-104868533D01*
X189240699Y-104932917D01*
X189218853Y-104992835D01*
X189225220Y-105021983D01*
X189236130Y-105055493D01*
X189234461Y-105130775D01*
X189228316Y-105180733D01*
X189217211Y-105273183D01*
X189215239Y-105337638D01*
X189218132Y-105352243D01*
X189208501Y-105385556D01*
X189196259Y-105395355D01*
X189176723Y-105443027D01*
X189179387Y-105544369D01*
X189182845Y-105572174D01*
X189191355Y-105676013D01*
X189182944Y-105722601D01*
X189161729Y-105714603D01*
X189131824Y-105654682D01*
X189097344Y-105545504D01*
X189088565Y-105511127D01*
X189063615Y-105381179D01*
X189049713Y-105249549D01*
X189046899Y-105130660D01*
X189055212Y-105038932D01*
X189074692Y-104988788D01*
X189087125Y-104983632D01*
X189116718Y-105012344D01*
X189126542Y-105047132D01*
X189130113Y-105088680D01*
X189118893Y-105072739D01*
X189106505Y-105044875D01*
X189088908Y-105016546D01*
X189080056Y-105040444D01*
X189077334Y-105108375D01*
X189080328Y-105241509D01*
X189091364Y-105343749D01*
X189108484Y-105405240D01*
X189129732Y-105416129D01*
X189136779Y-105407803D01*
X189158769Y-105341297D01*
X189163782Y-105283000D01*
X189160320Y-105230086D01*
X189148669Y-105236601D01*
X189134750Y-105267125D01*
X189113371Y-105303258D01*
X189104847Y-105290436D01*
X189108805Y-105241811D01*
X189124876Y-105170535D01*
X189138718Y-105126512D01*
X189158469Y-105026973D01*
X189137529Y-104943047D01*
X189115869Y-104879043D01*
X189117004Y-104845662D01*
X189138990Y-104858371D01*
X189163805Y-104905327D01*
X189186613Y-104949257D01*
X189196013Y-104932139D01*
X189196237Y-104927686D01*
X189179951Y-104869382D01*
X189163734Y-104852665D01*
X189142042Y-104808365D01*
X189144886Y-104771416D01*
X189142354Y-104722661D01*
X189123840Y-104711290D01*
X189122500Y-104696508D01*
X189130117Y-104689952D01*
X189197149Y-104689952D01*
X189224515Y-104701857D01*
X189269752Y-104685795D01*
X189276847Y-104680395D01*
X189324198Y-104657612D01*
X189379489Y-104678582D01*
X189396677Y-104690080D01*
X189466029Y-104729781D01*
X189513474Y-104742368D01*
X189526750Y-104727560D01*
X189501242Y-104692456D01*
X189440146Y-104659734D01*
X189352511Y-104640647D01*
X189266570Y-104638571D01*
X189210559Y-104656881D01*
X189209806Y-104657610D01*
X189197149Y-104689952D01*
X189130117Y-104689952D01*
X189164862Y-104660049D01*
X189182375Y-104648000D01*
X189265251Y-104600828D01*
X189334855Y-104588969D01*
X189417502Y-104611629D01*
G36*
X189187666Y-105801583D02*
G01*
X189191466Y-105839263D01*
X189187666Y-105843916D01*
X189168791Y-105839558D01*
X189166500Y-105822750D01*
X189178116Y-105796616D01*
X189187666Y-105801583D01*
G37*
X189187666Y-105801583D02*
X189191466Y-105839263D01*
X189187666Y-105843916D01*
X189168791Y-105839558D01*
X189166500Y-105822750D01*
X189178116Y-105796616D01*
X189187666Y-105801583D01*
G36*
X189515750Y-106314875D02*
G01*
X189499875Y-106330750D01*
X189484000Y-106314875D01*
X189499875Y-106299000D01*
X189515750Y-106314875D01*
G37*
X189515750Y-106314875D02*
X189499875Y-106330750D01*
X189484000Y-106314875D01*
X189499875Y-106299000D01*
X189515750Y-106314875D01*
G36*
X189738707Y-105797456D02*
G01*
X189763040Y-105813366D01*
X189839005Y-105891076D01*
X189921749Y-106006872D01*
X189998079Y-106138566D01*
X190054801Y-106263967D01*
X190076556Y-106340657D01*
X190084843Y-106417666D01*
X190070724Y-106450765D01*
X190027834Y-106457750D01*
X189967769Y-106435653D01*
X189890218Y-106379354D01*
X189848088Y-106338984D01*
X189769943Y-106242240D01*
X189693843Y-106125043D01*
X189630096Y-106006080D01*
X189589011Y-105904037D01*
X189579250Y-105851662D01*
X189603045Y-105794588D01*
X189662276Y-105775253D01*
X189738707Y-105797456D01*
G37*
X189738707Y-105797456D02*
X189763040Y-105813366D01*
X189839005Y-105891076D01*
X189921749Y-106006872D01*
X189998079Y-106138566D01*
X190054801Y-106263967D01*
X190076556Y-106340657D01*
X190084843Y-106417666D01*
X190070724Y-106450765D01*
X190027834Y-106457750D01*
X189967769Y-106435653D01*
X189890218Y-106379354D01*
X189848088Y-106338984D01*
X189769943Y-106242240D01*
X189693843Y-106125043D01*
X189630096Y-106006080D01*
X189589011Y-105904037D01*
X189579250Y-105851662D01*
X189603045Y-105794588D01*
X189662276Y-105775253D01*
X189738707Y-105797456D01*
G36*
X189674145Y-106575910D02*
G01*
X189702626Y-106606744D01*
X189693554Y-106639779D01*
X189676512Y-106632807D01*
X189674013Y-106613854D01*
X189668159Y-106585486D01*
X189646232Y-106611952D01*
X189613611Y-106634996D01*
X189599276Y-106623216D01*
X189605648Y-106586612D01*
X189626040Y-106573588D01*
X189674145Y-106575910D01*
G37*
X189674145Y-106575910D02*
X189702626Y-106606744D01*
X189693554Y-106639779D01*
X189676512Y-106632807D01*
X189674013Y-106613854D01*
X189668159Y-106585486D01*
X189646232Y-106611952D01*
X189613611Y-106634996D01*
X189599276Y-106623216D01*
X189605648Y-106586612D01*
X189626040Y-106573588D01*
X189674145Y-106575910D01*
G36*
X190618010Y-106231913D02*
G01*
X190645759Y-106303942D01*
X190673005Y-106401145D01*
X190694044Y-106504830D01*
X190699574Y-106545062D01*
X190700501Y-106614968D01*
X190687186Y-106647879D01*
X190685001Y-106648250D01*
X190660201Y-106623326D01*
X190658750Y-106611208D01*
X190647373Y-106588369D01*
X190640338Y-106592578D01*
X190642761Y-106628875D01*
X190674210Y-106690780D01*
X190675073Y-106692102D01*
X190709140Y-106761481D01*
X190715451Y-106811519D01*
X190695464Y-106808641D01*
X190657933Y-106759986D01*
X190628803Y-106709349D01*
X190591577Y-106620593D01*
X190568295Y-106537125D01*
X190595250Y-106537125D01*
X190611125Y-106553000D01*
X190627000Y-106537125D01*
X190611125Y-106521250D01*
X190595250Y-106537125D01*
X190568295Y-106537125D01*
X190564076Y-106522001D01*
X190548357Y-106428916D01*
X190547820Y-106408251D01*
X190595250Y-106408251D01*
X190611826Y-106451692D01*
X190627000Y-106457750D01*
X190657841Y-106434962D01*
X190658750Y-106427873D01*
X190635670Y-106384873D01*
X190627000Y-106378375D01*
X190599818Y-106385572D01*
X190595250Y-106408251D01*
X190547820Y-106408251D01*
X190546477Y-106356681D01*
X190560493Y-106320638D01*
X190576946Y-106322500D01*
X190588733Y-106319989D01*
X190571712Y-106294235D01*
X190554803Y-106251375D01*
X190563500Y-106251375D01*
X190579375Y-106267250D01*
X190595250Y-106251375D01*
X190579375Y-106235500D01*
X190563500Y-106251375D01*
X190554803Y-106251375D01*
X190550218Y-106239756D01*
X190576350Y-106206534D01*
X190595459Y-106203750D01*
X190618010Y-106231913D01*
G37*
X190618010Y-106231913D02*
X190645759Y-106303942D01*
X190673005Y-106401145D01*
X190694044Y-106504830D01*
X190699574Y-106545062D01*
X190700501Y-106614968D01*
X190687186Y-106647879D01*
X190685001Y-106648250D01*
X190660201Y-106623326D01*
X190658750Y-106611208D01*
X190647373Y-106588369D01*
X190640338Y-106592578D01*
X190642761Y-106628875D01*
X190674210Y-106690780D01*
X190675073Y-106692102D01*
X190709140Y-106761481D01*
X190715451Y-106811519D01*
X190695464Y-106808641D01*
X190657933Y-106759986D01*
X190628803Y-106709349D01*
X190591577Y-106620593D01*
X190568295Y-106537125D01*
X190595250Y-106537125D01*
X190611125Y-106553000D01*
X190627000Y-106537125D01*
X190611125Y-106521250D01*
X190595250Y-106537125D01*
X190568295Y-106537125D01*
X190564076Y-106522001D01*
X190548357Y-106428916D01*
X190547820Y-106408251D01*
X190595250Y-106408251D01*
X190611826Y-106451692D01*
X190627000Y-106457750D01*
X190657841Y-106434962D01*
X190658750Y-106427873D01*
X190635670Y-106384873D01*
X190627000Y-106378375D01*
X190599818Y-106385572D01*
X190595250Y-106408251D01*
X190547820Y-106408251D01*
X190546477Y-106356681D01*
X190560493Y-106320638D01*
X190576946Y-106322500D01*
X190588733Y-106319989D01*
X190571712Y-106294235D01*
X190554803Y-106251375D01*
X190563500Y-106251375D01*
X190579375Y-106267250D01*
X190595250Y-106251375D01*
X190579375Y-106235500D01*
X190563500Y-106251375D01*
X190554803Y-106251375D01*
X190550218Y-106239756D01*
X190576350Y-106206534D01*
X190595459Y-106203750D01*
X190618010Y-106231913D01*
G36*
X190044551Y-105213472D02*
G01*
X190092847Y-105282151D01*
X190154298Y-105381052D01*
X190180721Y-105426401D01*
X190245294Y-105536116D01*
X190299942Y-105623238D01*
X190335869Y-105673963D01*
X190342817Y-105680843D01*
X190368291Y-105718817D01*
X190399521Y-105793264D01*
X190407034Y-105815254D01*
X190437165Y-105895072D01*
X190463578Y-105944800D01*
X190468420Y-105949750D01*
X190497032Y-105986486D01*
X190537060Y-106055423D01*
X190542409Y-106065716D01*
X190573755Y-106133867D01*
X190573405Y-106167199D01*
X190543545Y-106185047D01*
X190508756Y-106222438D01*
X190510099Y-106247773D01*
X190505181Y-106305827D01*
X190489846Y-106328203D01*
X190471059Y-106367206D01*
X190496197Y-106391900D01*
X190526850Y-106437752D01*
X190525356Y-106461056D01*
X190504381Y-106456553D01*
X190461519Y-106406450D01*
X190405156Y-106320967D01*
X190391552Y-106298041D01*
X190323613Y-106186755D01*
X190258687Y-106089323D01*
X190210396Y-106026144D01*
X190208928Y-106024537D01*
X190169927Y-105965243D01*
X190180112Y-105935350D01*
X190212502Y-105892209D01*
X190214250Y-105880488D01*
X190196859Y-105866417D01*
X190168602Y-105884609D01*
X190131940Y-105900234D01*
X190098092Y-105869975D01*
X190073023Y-105825937D01*
X190072344Y-105824957D01*
X190106566Y-105824957D01*
X190108961Y-105842384D01*
X190137434Y-105871271D01*
X190158834Y-105859115D01*
X190213119Y-105840389D01*
X190233993Y-105844502D01*
X190270913Y-105840781D01*
X190274250Y-105807467D01*
X190245715Y-105774949D01*
X190188642Y-105764337D01*
X190133665Y-105785245D01*
X190106566Y-105824957D01*
X190072344Y-105824957D01*
X190018960Y-105747975D01*
X189958289Y-105694706D01*
X189957458Y-105694256D01*
X189910532Y-105646876D01*
X189910528Y-105631645D01*
X189928500Y-105631645D01*
X189956443Y-105663241D01*
X190025333Y-105685402D01*
X190112759Y-105692940D01*
X190169504Y-105687428D01*
X190237924Y-105694069D01*
X190278693Y-105748707D01*
X190293975Y-105855830D01*
X190292117Y-105941976D01*
X190293419Y-106029074D01*
X190305978Y-106086058D01*
X190312796Y-106094662D01*
X190336974Y-106085232D01*
X190341250Y-106060875D01*
X190353984Y-106025022D01*
X190367969Y-106026015D01*
X190385185Y-106066193D01*
X190388948Y-106139014D01*
X190393070Y-106206291D01*
X190410960Y-106235465D01*
X190411728Y-106235500D01*
X190425913Y-106255253D01*
X190420625Y-106267250D01*
X190423142Y-106296507D01*
X190434626Y-106299000D01*
X190467061Y-106288824D01*
X190468250Y-106285191D01*
X190458170Y-106248600D01*
X190436595Y-106188127D01*
X190430325Y-106166671D01*
X190471952Y-106166671D01*
X190476614Y-106194436D01*
X190500000Y-106187875D01*
X190527625Y-106142564D01*
X190531263Y-106114563D01*
X190526125Y-106079031D01*
X190504176Y-106102110D01*
X190500000Y-106108500D01*
X190471952Y-106166671D01*
X190430325Y-106166671D01*
X190420079Y-106131617D01*
X190434267Y-106123537D01*
X190441991Y-106127768D01*
X190465739Y-106129180D01*
X190458767Y-106097833D01*
X190458404Y-106052656D01*
X190477183Y-106044034D01*
X190486452Y-106031088D01*
X190460312Y-106010706D01*
X190414068Y-105960869D01*
X190404750Y-105927149D01*
X190391506Y-105874142D01*
X190358284Y-105801073D01*
X190314848Y-105724075D01*
X190270961Y-105659279D01*
X190236387Y-105622820D01*
X190221934Y-105625072D01*
X190184039Y-105654535D01*
X190128341Y-105664000D01*
X190074105Y-105658291D01*
X190073662Y-105634309D01*
X190086515Y-105617260D01*
X190107732Y-105569770D01*
X190076795Y-105522010D01*
X190038834Y-105490337D01*
X190158961Y-105490337D01*
X190165319Y-105503137D01*
X190195594Y-105535962D01*
X190201163Y-105512813D01*
X190193456Y-105488005D01*
X190170081Y-105453428D01*
X190159523Y-105454143D01*
X190158961Y-105490337D01*
X190038834Y-105490337D01*
X190025189Y-105478953D01*
X190006834Y-105488745D01*
X190014550Y-105537000D01*
X190012433Y-105589026D01*
X189979828Y-105600500D01*
X189935247Y-105616257D01*
X189928500Y-105631645D01*
X189910528Y-105631645D01*
X189910522Y-105610404D01*
X189911205Y-105575929D01*
X189882251Y-105579703D01*
X189832192Y-105581465D01*
X189818742Y-105570962D01*
X189771528Y-105541926D01*
X189690024Y-105523363D01*
X189603057Y-105518773D01*
X189539453Y-105531655D01*
X189532562Y-105536222D01*
X189504245Y-105582354D01*
X189483444Y-105653936D01*
X189473866Y-105727529D01*
X189479222Y-105779690D01*
X189492249Y-105791000D01*
X189505404Y-105810744D01*
X189500280Y-105822093D01*
X189498267Y-105871997D01*
X189514257Y-105915211D01*
X189529201Y-105966139D01*
X189492641Y-105994286D01*
X189478040Y-105999266D01*
X189430245Y-106019330D01*
X189439677Y-106042970D01*
X189464089Y-106061850D01*
X189498521Y-106100978D01*
X189482350Y-106125394D01*
X189436358Y-106123436D01*
X189417436Y-106104630D01*
X189394327Y-106079800D01*
X189389236Y-106100873D01*
X189410968Y-106150380D01*
X189450623Y-106193849D01*
X189492238Y-106245610D01*
X189489960Y-106280248D01*
X189446269Y-106282191D01*
X189437048Y-106278990D01*
X189409164Y-106276026D01*
X189415750Y-106310260D01*
X189429215Y-106340336D01*
X189459277Y-106392758D01*
X189485414Y-106392093D01*
X189508544Y-106366897D01*
X189537254Y-106336736D01*
X189539797Y-106357729D01*
X189531752Y-106394250D01*
X189521656Y-106445542D01*
X189532643Y-106440580D01*
X189548491Y-106416400D01*
X189566356Y-106348399D01*
X189554637Y-106321150D01*
X189540720Y-106283125D01*
X189579250Y-106283125D01*
X189595125Y-106299000D01*
X189611000Y-106283125D01*
X189595125Y-106267250D01*
X189579250Y-106283125D01*
X189540720Y-106283125D01*
X189533597Y-106263664D01*
X189526653Y-106191451D01*
X189558413Y-106191451D01*
X189563375Y-106203750D01*
X189591905Y-106234038D01*
X189596998Y-106235500D01*
X189610635Y-106210935D01*
X189611000Y-106203750D01*
X189586592Y-106173220D01*
X189577376Y-106172000D01*
X189558413Y-106191451D01*
X189526653Y-106191451D01*
X189526152Y-106186246D01*
X189519679Y-106104445D01*
X189503773Y-106051308D01*
X189499186Y-106017637D01*
X189510558Y-106013250D01*
X189542213Y-106039576D01*
X189583593Y-106103817D01*
X189623697Y-106183864D01*
X189651523Y-106257609D01*
X189656070Y-106302944D01*
X189655372Y-106304263D01*
X189660112Y-106329657D01*
X189667529Y-106330750D01*
X189698924Y-106356759D01*
X189733419Y-106418062D01*
X189756821Y-106475632D01*
X189751644Y-106480091D01*
X189719357Y-106441875D01*
X189682641Y-106398849D01*
X189677373Y-106407544D01*
X189689230Y-106449812D01*
X189694235Y-106506390D01*
X189663736Y-106521250D01*
X189631087Y-106500556D01*
X189634535Y-106449812D01*
X189640944Y-106402001D01*
X189632280Y-106396177D01*
X189611237Y-106439329D01*
X189602861Y-106475552D01*
X189581177Y-106550373D01*
X189566637Y-106579859D01*
X189564902Y-106636969D01*
X189591368Y-106673975D01*
X189630355Y-106706411D01*
X189642711Y-106690942D01*
X189643236Y-106678866D01*
X189648485Y-106649062D01*
X189670974Y-106674589D01*
X189674500Y-106680000D01*
X189695567Y-106707756D01*
X189707323Y-106699158D01*
X189714843Y-106643675D01*
X189719158Y-106587350D01*
X189748086Y-106537650D01*
X189766428Y-106527648D01*
X189795264Y-106531559D01*
X189793249Y-106580551D01*
X189789465Y-106596625D01*
X189793181Y-106704352D01*
X189816846Y-106754112D01*
X189845883Y-106813905D01*
X189845772Y-106847393D01*
X189849632Y-106882979D01*
X189883666Y-106946657D01*
X189895432Y-106963900D01*
X189943190Y-107059340D01*
X189944381Y-107124478D01*
X189913698Y-107176850D01*
X189881058Y-107183603D01*
X189865032Y-107141456D01*
X189865000Y-107138501D01*
X189881472Y-107106368D01*
X189899372Y-107110245D01*
X189912390Y-107105237D01*
X189898510Y-107065060D01*
X189866962Y-107006768D01*
X189826977Y-106947412D01*
X189787786Y-106904044D01*
X189787718Y-106903987D01*
X189746945Y-106878996D01*
X189740805Y-106894525D01*
X189766770Y-106939599D01*
X189806916Y-106987390D01*
X189848361Y-107043819D01*
X189855292Y-107081079D01*
X189854213Y-107082369D01*
X189821509Y-107079199D01*
X189779257Y-107033128D01*
X189739645Y-106960918D01*
X189717873Y-106894827D01*
X189696444Y-106837517D01*
X189673346Y-106823588D01*
X189641673Y-106811151D01*
X189612645Y-106775250D01*
X189642750Y-106775250D01*
X189654366Y-106801383D01*
X189663916Y-106796416D01*
X189667268Y-106763174D01*
X189724886Y-106763174D01*
X189750349Y-106806558D01*
X189795597Y-106834569D01*
X189813325Y-106836243D01*
X189826789Y-106826869D01*
X189809437Y-106817722D01*
X189773393Y-106775878D01*
X189769750Y-106754855D01*
X189752953Y-106724579D01*
X189736458Y-106728577D01*
X189724886Y-106763174D01*
X189667268Y-106763174D01*
X189667716Y-106758736D01*
X189663916Y-106754083D01*
X189645041Y-106758441D01*
X189642750Y-106775250D01*
X189612645Y-106775250D01*
X189599708Y-106759250D01*
X189558985Y-106688048D01*
X189531041Y-106617713D01*
X189527394Y-106568449D01*
X189525504Y-106532395D01*
X189509752Y-106529568D01*
X189480194Y-106506608D01*
X189437406Y-106439193D01*
X189392776Y-106346625D01*
X189348505Y-106246513D01*
X189335652Y-106219625D01*
X189357000Y-106219625D01*
X189372875Y-106235500D01*
X189388750Y-106219625D01*
X189372875Y-106203750D01*
X189357000Y-106219625D01*
X189335652Y-106219625D01*
X189312814Y-106171850D01*
X189294443Y-106140250D01*
X189267891Y-106092625D01*
X189325250Y-106092625D01*
X189341125Y-106108500D01*
X189357000Y-106092625D01*
X189341125Y-106076750D01*
X189325250Y-106092625D01*
X189267891Y-106092625D01*
X189258330Y-106075476D01*
X189234256Y-105976419D01*
X189229580Y-105900301D01*
X189302645Y-105900301D01*
X189308360Y-105946553D01*
X189332984Y-106004288D01*
X189349498Y-105999726D01*
X189356758Y-105933690D01*
X189357000Y-105911650D01*
X189352757Y-105864249D01*
X189392379Y-105864249D01*
X189409916Y-105896833D01*
X189431983Y-105915014D01*
X189440212Y-105893892D01*
X189443520Y-105854500D01*
X189435033Y-105803075D01*
X189418526Y-105791000D01*
X189392819Y-105815002D01*
X189392379Y-105864249D01*
X189352757Y-105864249D01*
X189351126Y-105846031D01*
X189331458Y-105837130D01*
X189322096Y-105844953D01*
X189302645Y-105900301D01*
X189229580Y-105900301D01*
X189227839Y-105871972D01*
X189233252Y-105825564D01*
X189239143Y-105775125D01*
X189293500Y-105775125D01*
X189309375Y-105791000D01*
X189325250Y-105775125D01*
X189309375Y-105759250D01*
X189293500Y-105775125D01*
X189239143Y-105775125D01*
X189243578Y-105737164D01*
X189237971Y-105669753D01*
X189236968Y-105666814D01*
X189228773Y-105634015D01*
X189252135Y-105643378D01*
X189279617Y-105664000D01*
X189336649Y-105713468D01*
X189363211Y-105742455D01*
X189397977Y-105757056D01*
X189407396Y-105751186D01*
X189401550Y-105718261D01*
X189357240Y-105668571D01*
X189353560Y-105665438D01*
X189305026Y-105617908D01*
X189304461Y-105598626D01*
X189388750Y-105598626D01*
X189411797Y-105630957D01*
X189420500Y-105632250D01*
X189451424Y-105621417D01*
X189452250Y-105618248D01*
X189430001Y-105591141D01*
X189420500Y-105584625D01*
X189391242Y-105587142D01*
X189388750Y-105598626D01*
X189304461Y-105598626D01*
X189304141Y-105587713D01*
X189325250Y-105569881D01*
X189397593Y-105541920D01*
X189436375Y-105537000D01*
X189478273Y-105531411D01*
X189461541Y-105510515D01*
X189452250Y-105504118D01*
X189425489Y-105475424D01*
X189443678Y-105441750D01*
X189484000Y-105441750D01*
X189510592Y-105467546D01*
X189547500Y-105473500D01*
X189599092Y-105460203D01*
X189611000Y-105441750D01*
X189584407Y-105415953D01*
X189547500Y-105410000D01*
X189495907Y-105423296D01*
X189484000Y-105441750D01*
X189443678Y-105441750D01*
X189444119Y-105440934D01*
X189476062Y-105412203D01*
X189535538Y-105349627D01*
X189538384Y-105311376D01*
X189484985Y-105300113D01*
X189460187Y-105302137D01*
X189415429Y-105304915D01*
X189429877Y-105296540D01*
X189436375Y-105294652D01*
X189503446Y-105266590D01*
X189530037Y-105248168D01*
X189583120Y-105225463D01*
X189653825Y-105220746D01*
X189708467Y-105234893D01*
X189716918Y-105243312D01*
X189709100Y-105281448D01*
X189687042Y-105308064D01*
X189650901Y-105328228D01*
X189642750Y-105316001D01*
X189619344Y-105284163D01*
X189611000Y-105283000D01*
X189582832Y-105308716D01*
X189579250Y-105330625D01*
X189600722Y-105372802D01*
X189619237Y-105378250D01*
X189665617Y-105402561D01*
X189699582Y-105442871D01*
X189734463Y-105486308D01*
X189772544Y-105482543D01*
X189809533Y-105458746D01*
X189877117Y-105419678D01*
X189912746Y-105413470D01*
X189906994Y-105437634D01*
X189869420Y-105474556D01*
X189820122Y-105518007D01*
X189818360Y-105534446D01*
X189861482Y-105537000D01*
X189925175Y-105540393D01*
X189949148Y-105544937D01*
X189970580Y-105528635D01*
X189980201Y-105478469D01*
X189976022Y-105423312D01*
X189959563Y-105393700D01*
X189952403Y-105359291D01*
X189977393Y-105324820D01*
X190027779Y-105292583D01*
X190050153Y-105306693D01*
X190029399Y-105355321D01*
X190024386Y-105361607D01*
X190004712Y-105400579D01*
X190016465Y-105410000D01*
X190087250Y-105410000D01*
X190098866Y-105436133D01*
X190108416Y-105431166D01*
X190112216Y-105393486D01*
X190108416Y-105388833D01*
X190089541Y-105393191D01*
X190087250Y-105410000D01*
X190016465Y-105410000D01*
X190057689Y-105385194D01*
X190071750Y-105330639D01*
X190053555Y-105276129D01*
X190041353Y-105264462D01*
X189997848Y-105220212D01*
X189999811Y-105191690D01*
X190018087Y-105187750D01*
X190044551Y-105213472D01*
G37*
X190044551Y-105213472D02*
X190092847Y-105282151D01*
X190154298Y-105381052D01*
X190180721Y-105426401D01*
X190245294Y-105536116D01*
X190299942Y-105623238D01*
X190335869Y-105673963D01*
X190342817Y-105680843D01*
X190368291Y-105718817D01*
X190399521Y-105793264D01*
X190407034Y-105815254D01*
X190437165Y-105895072D01*
X190463578Y-105944800D01*
X190468420Y-105949750D01*
X190497032Y-105986486D01*
X190537060Y-106055423D01*
X190542409Y-106065716D01*
X190573755Y-106133867D01*
X190573405Y-106167199D01*
X190543545Y-106185047D01*
X190508756Y-106222438D01*
X190510099Y-106247773D01*
X190505181Y-106305827D01*
X190489846Y-106328203D01*
X190471059Y-106367206D01*
X190496197Y-106391900D01*
X190526850Y-106437752D01*
X190525356Y-106461056D01*
X190504381Y-106456553D01*
X190461519Y-106406450D01*
X190405156Y-106320967D01*
X190391552Y-106298041D01*
X190323613Y-106186755D01*
X190258687Y-106089323D01*
X190210396Y-106026144D01*
X190208928Y-106024537D01*
X190169927Y-105965243D01*
X190180112Y-105935350D01*
X190212502Y-105892209D01*
X190214250Y-105880488D01*
X190196859Y-105866417D01*
X190168602Y-105884609D01*
X190131940Y-105900234D01*
X190098092Y-105869975D01*
X190073023Y-105825937D01*
X190072344Y-105824957D01*
X190106566Y-105824957D01*
X190108961Y-105842384D01*
X190137434Y-105871271D01*
X190158834Y-105859115D01*
X190213119Y-105840389D01*
X190233993Y-105844502D01*
X190270913Y-105840781D01*
X190274250Y-105807467D01*
X190245715Y-105774949D01*
X190188642Y-105764337D01*
X190133665Y-105785245D01*
X190106566Y-105824957D01*
X190072344Y-105824957D01*
X190018960Y-105747975D01*
X189958289Y-105694706D01*
X189957458Y-105694256D01*
X189910532Y-105646876D01*
X189910528Y-105631645D01*
X189928500Y-105631645D01*
X189956443Y-105663241D01*
X190025333Y-105685402D01*
X190112759Y-105692940D01*
X190169504Y-105687428D01*
X190237924Y-105694069D01*
X190278693Y-105748707D01*
X190293975Y-105855830D01*
X190292117Y-105941976D01*
X190293419Y-106029074D01*
X190305978Y-106086058D01*
X190312796Y-106094662D01*
X190336974Y-106085232D01*
X190341250Y-106060875D01*
X190353984Y-106025022D01*
X190367969Y-106026015D01*
X190385185Y-106066193D01*
X190388948Y-106139014D01*
X190393070Y-106206291D01*
X190410960Y-106235465D01*
X190411728Y-106235500D01*
X190425913Y-106255253D01*
X190420625Y-106267250D01*
X190423142Y-106296507D01*
X190434626Y-106299000D01*
X190467061Y-106288824D01*
X190468250Y-106285191D01*
X190458170Y-106248600D01*
X190436595Y-106188127D01*
X190430325Y-106166671D01*
X190471952Y-106166671D01*
X190476614Y-106194436D01*
X190500000Y-106187875D01*
X190527625Y-106142564D01*
X190531263Y-106114563D01*
X190526125Y-106079031D01*
X190504176Y-106102110D01*
X190500000Y-106108500D01*
X190471952Y-106166671D01*
X190430325Y-106166671D01*
X190420079Y-106131617D01*
X190434267Y-106123537D01*
X190441991Y-106127768D01*
X190465739Y-106129180D01*
X190458767Y-106097833D01*
X190458404Y-106052656D01*
X190477183Y-106044034D01*
X190486452Y-106031088D01*
X190460312Y-106010706D01*
X190414068Y-105960869D01*
X190404750Y-105927149D01*
X190391506Y-105874142D01*
X190358284Y-105801073D01*
X190314848Y-105724075D01*
X190270961Y-105659279D01*
X190236387Y-105622820D01*
X190221934Y-105625072D01*
X190184039Y-105654535D01*
X190128341Y-105664000D01*
X190074105Y-105658291D01*
X190073662Y-105634309D01*
X190086515Y-105617260D01*
X190107732Y-105569770D01*
X190076795Y-105522010D01*
X190038834Y-105490337D01*
X190158961Y-105490337D01*
X190165319Y-105503137D01*
X190195594Y-105535962D01*
X190201163Y-105512813D01*
X190193456Y-105488005D01*
X190170081Y-105453428D01*
X190159523Y-105454143D01*
X190158961Y-105490337D01*
X190038834Y-105490337D01*
X190025189Y-105478953D01*
X190006834Y-105488745D01*
X190014550Y-105537000D01*
X190012433Y-105589026D01*
X189979828Y-105600500D01*
X189935247Y-105616257D01*
X189928500Y-105631645D01*
X189910528Y-105631645D01*
X189910522Y-105610404D01*
X189911205Y-105575929D01*
X189882251Y-105579703D01*
X189832192Y-105581465D01*
X189818742Y-105570962D01*
X189771528Y-105541926D01*
X189690024Y-105523363D01*
X189603057Y-105518773D01*
X189539453Y-105531655D01*
X189532562Y-105536222D01*
X189504245Y-105582354D01*
X189483444Y-105653936D01*
X189473866Y-105727529D01*
X189479222Y-105779690D01*
X189492249Y-105791000D01*
X189505404Y-105810744D01*
X189500280Y-105822093D01*
X189498267Y-105871997D01*
X189514257Y-105915211D01*
X189529201Y-105966139D01*
X189492641Y-105994286D01*
X189478040Y-105999266D01*
X189430245Y-106019330D01*
X189439677Y-106042970D01*
X189464089Y-106061850D01*
X189498521Y-106100978D01*
X189482350Y-106125394D01*
X189436358Y-106123436D01*
X189417436Y-106104630D01*
X189394327Y-106079800D01*
X189389236Y-106100873D01*
X189410968Y-106150380D01*
X189450623Y-106193849D01*
X189492238Y-106245610D01*
X189489960Y-106280248D01*
X189446269Y-106282191D01*
X189437048Y-106278990D01*
X189409164Y-106276026D01*
X189415750Y-106310260D01*
X189429215Y-106340336D01*
X189459277Y-106392758D01*
X189485414Y-106392093D01*
X189508544Y-106366897D01*
X189537254Y-106336736D01*
X189539797Y-106357729D01*
X189531752Y-106394250D01*
X189521656Y-106445542D01*
X189532643Y-106440580D01*
X189548491Y-106416400D01*
X189566356Y-106348399D01*
X189554637Y-106321150D01*
X189540720Y-106283125D01*
X189579250Y-106283125D01*
X189595125Y-106299000D01*
X189611000Y-106283125D01*
X189595125Y-106267250D01*
X189579250Y-106283125D01*
X189540720Y-106283125D01*
X189533597Y-106263664D01*
X189526653Y-106191451D01*
X189558413Y-106191451D01*
X189563375Y-106203750D01*
X189591905Y-106234038D01*
X189596998Y-106235500D01*
X189610635Y-106210935D01*
X189611000Y-106203750D01*
X189586592Y-106173220D01*
X189577376Y-106172000D01*
X189558413Y-106191451D01*
X189526653Y-106191451D01*
X189526152Y-106186246D01*
X189519679Y-106104445D01*
X189503773Y-106051308D01*
X189499186Y-106017637D01*
X189510558Y-106013250D01*
X189542213Y-106039576D01*
X189583593Y-106103817D01*
X189623697Y-106183864D01*
X189651523Y-106257609D01*
X189656070Y-106302944D01*
X189655372Y-106304263D01*
X189660112Y-106329657D01*
X189667529Y-106330750D01*
X189698924Y-106356759D01*
X189733419Y-106418062D01*
X189756821Y-106475632D01*
X189751644Y-106480091D01*
X189719357Y-106441875D01*
X189682641Y-106398849D01*
X189677373Y-106407544D01*
X189689230Y-106449812D01*
X189694235Y-106506390D01*
X189663736Y-106521250D01*
X189631087Y-106500556D01*
X189634535Y-106449812D01*
X189640944Y-106402001D01*
X189632280Y-106396177D01*
X189611237Y-106439329D01*
X189602861Y-106475552D01*
X189581177Y-106550373D01*
X189566637Y-106579859D01*
X189564902Y-106636969D01*
X189591368Y-106673975D01*
X189630355Y-106706411D01*
X189642711Y-106690942D01*
X189643236Y-106678866D01*
X189648485Y-106649062D01*
X189670974Y-106674589D01*
X189674500Y-106680000D01*
X189695567Y-106707756D01*
X189707323Y-106699158D01*
X189714843Y-106643675D01*
X189719158Y-106587350D01*
X189748086Y-106537650D01*
X189766428Y-106527648D01*
X189795264Y-106531559D01*
X189793249Y-106580551D01*
X189789465Y-106596625D01*
X189793181Y-106704352D01*
X189816846Y-106754112D01*
X189845883Y-106813905D01*
X189845772Y-106847393D01*
X189849632Y-106882979D01*
X189883666Y-106946657D01*
X189895432Y-106963900D01*
X189943190Y-107059340D01*
X189944381Y-107124478D01*
X189913698Y-107176850D01*
X189881058Y-107183603D01*
X189865032Y-107141456D01*
X189865000Y-107138501D01*
X189881472Y-107106368D01*
X189899372Y-107110245D01*
X189912390Y-107105237D01*
X189898510Y-107065060D01*
X189866962Y-107006768D01*
X189826977Y-106947412D01*
X189787786Y-106904044D01*
X189787718Y-106903987D01*
X189746945Y-106878996D01*
X189740805Y-106894525D01*
X189766770Y-106939599D01*
X189806916Y-106987390D01*
X189848361Y-107043819D01*
X189855292Y-107081079D01*
X189854213Y-107082369D01*
X189821509Y-107079199D01*
X189779257Y-107033128D01*
X189739645Y-106960918D01*
X189717873Y-106894827D01*
X189696444Y-106837517D01*
X189673346Y-106823588D01*
X189641673Y-106811151D01*
X189612645Y-106775250D01*
X189642750Y-106775250D01*
X189654366Y-106801383D01*
X189663916Y-106796416D01*
X189667268Y-106763174D01*
X189724886Y-106763174D01*
X189750349Y-106806558D01*
X189795597Y-106834569D01*
X189813325Y-106836243D01*
X189826789Y-106826869D01*
X189809437Y-106817722D01*
X189773393Y-106775878D01*
X189769750Y-106754855D01*
X189752953Y-106724579D01*
X189736458Y-106728577D01*
X189724886Y-106763174D01*
X189667268Y-106763174D01*
X189667716Y-106758736D01*
X189663916Y-106754083D01*
X189645041Y-106758441D01*
X189642750Y-106775250D01*
X189612645Y-106775250D01*
X189599708Y-106759250D01*
X189558985Y-106688048D01*
X189531041Y-106617713D01*
X189527394Y-106568449D01*
X189525504Y-106532395D01*
X189509752Y-106529568D01*
X189480194Y-106506608D01*
X189437406Y-106439193D01*
X189392776Y-106346625D01*
X189348505Y-106246513D01*
X189335652Y-106219625D01*
X189357000Y-106219625D01*
X189372875Y-106235500D01*
X189388750Y-106219625D01*
X189372875Y-106203750D01*
X189357000Y-106219625D01*
X189335652Y-106219625D01*
X189312814Y-106171850D01*
X189294443Y-106140250D01*
X189267891Y-106092625D01*
X189325250Y-106092625D01*
X189341125Y-106108500D01*
X189357000Y-106092625D01*
X189341125Y-106076750D01*
X189325250Y-106092625D01*
X189267891Y-106092625D01*
X189258330Y-106075476D01*
X189234256Y-105976419D01*
X189229580Y-105900301D01*
X189302645Y-105900301D01*
X189308360Y-105946553D01*
X189332984Y-106004288D01*
X189349498Y-105999726D01*
X189356758Y-105933690D01*
X189357000Y-105911650D01*
X189352757Y-105864249D01*
X189392379Y-105864249D01*
X189409916Y-105896833D01*
X189431983Y-105915014D01*
X189440212Y-105893892D01*
X189443520Y-105854500D01*
X189435033Y-105803075D01*
X189418526Y-105791000D01*
X189392819Y-105815002D01*
X189392379Y-105864249D01*
X189352757Y-105864249D01*
X189351126Y-105846031D01*
X189331458Y-105837130D01*
X189322096Y-105844953D01*
X189302645Y-105900301D01*
X189229580Y-105900301D01*
X189227839Y-105871972D01*
X189233252Y-105825564D01*
X189239143Y-105775125D01*
X189293500Y-105775125D01*
X189309375Y-105791000D01*
X189325250Y-105775125D01*
X189309375Y-105759250D01*
X189293500Y-105775125D01*
X189239143Y-105775125D01*
X189243578Y-105737164D01*
X189237971Y-105669753D01*
X189236968Y-105666814D01*
X189228773Y-105634015D01*
X189252135Y-105643378D01*
X189279617Y-105664000D01*
X189336649Y-105713468D01*
X189363211Y-105742455D01*
X189397977Y-105757056D01*
X189407396Y-105751186D01*
X189401550Y-105718261D01*
X189357240Y-105668571D01*
X189353560Y-105665438D01*
X189305026Y-105617908D01*
X189304461Y-105598626D01*
X189388750Y-105598626D01*
X189411797Y-105630957D01*
X189420500Y-105632250D01*
X189451424Y-105621417D01*
X189452250Y-105618248D01*
X189430001Y-105591141D01*
X189420500Y-105584625D01*
X189391242Y-105587142D01*
X189388750Y-105598626D01*
X189304461Y-105598626D01*
X189304141Y-105587713D01*
X189325250Y-105569881D01*
X189397593Y-105541920D01*
X189436375Y-105537000D01*
X189478273Y-105531411D01*
X189461541Y-105510515D01*
X189452250Y-105504118D01*
X189425489Y-105475424D01*
X189443678Y-105441750D01*
X189484000Y-105441750D01*
X189510592Y-105467546D01*
X189547500Y-105473500D01*
X189599092Y-105460203D01*
X189611000Y-105441750D01*
X189584407Y-105415953D01*
X189547500Y-105410000D01*
X189495907Y-105423296D01*
X189484000Y-105441750D01*
X189443678Y-105441750D01*
X189444119Y-105440934D01*
X189476062Y-105412203D01*
X189535538Y-105349627D01*
X189538384Y-105311376D01*
X189484985Y-105300113D01*
X189460187Y-105302137D01*
X189415429Y-105304915D01*
X189429877Y-105296540D01*
X189436375Y-105294652D01*
X189503446Y-105266590D01*
X189530037Y-105248168D01*
X189583120Y-105225463D01*
X189653825Y-105220746D01*
X189708467Y-105234893D01*
X189716918Y-105243312D01*
X189709100Y-105281448D01*
X189687042Y-105308064D01*
X189650901Y-105328228D01*
X189642750Y-105316001D01*
X189619344Y-105284163D01*
X189611000Y-105283000D01*
X189582832Y-105308716D01*
X189579250Y-105330625D01*
X189600722Y-105372802D01*
X189619237Y-105378250D01*
X189665617Y-105402561D01*
X189699582Y-105442871D01*
X189734463Y-105486308D01*
X189772544Y-105482543D01*
X189809533Y-105458746D01*
X189877117Y-105419678D01*
X189912746Y-105413470D01*
X189906994Y-105437634D01*
X189869420Y-105474556D01*
X189820122Y-105518007D01*
X189818360Y-105534446D01*
X189861482Y-105537000D01*
X189925175Y-105540393D01*
X189949148Y-105544937D01*
X189970580Y-105528635D01*
X189980201Y-105478469D01*
X189976022Y-105423312D01*
X189959563Y-105393700D01*
X189952403Y-105359291D01*
X189977393Y-105324820D01*
X190027779Y-105292583D01*
X190050153Y-105306693D01*
X190029399Y-105355321D01*
X190024386Y-105361607D01*
X190004712Y-105400579D01*
X190016465Y-105410000D01*
X190087250Y-105410000D01*
X190098866Y-105436133D01*
X190108416Y-105431166D01*
X190112216Y-105393486D01*
X190108416Y-105388833D01*
X190089541Y-105393191D01*
X190087250Y-105410000D01*
X190016465Y-105410000D01*
X190057689Y-105385194D01*
X190071750Y-105330639D01*
X190053555Y-105276129D01*
X190041353Y-105264462D01*
X189997848Y-105220212D01*
X189999811Y-105191690D01*
X190018087Y-105187750D01*
X190044551Y-105213472D01*
G36*
X190500000Y-107584875D02*
G01*
X190484125Y-107600750D01*
X190468250Y-107584875D01*
X190484125Y-107569000D01*
X190500000Y-107584875D01*
G37*
X190500000Y-107584875D02*
X190484125Y-107600750D01*
X190468250Y-107584875D01*
X190484125Y-107569000D01*
X190500000Y-107584875D01*
G36*
X189864034Y-106640698D02*
G01*
X189865000Y-106648524D01*
X189885988Y-106703611D01*
X189942305Y-106790832D01*
X190023981Y-106897819D01*
X190121043Y-107012209D01*
X190223522Y-107121635D01*
X190319215Y-107211812D01*
X190428194Y-107287178D01*
X190531759Y-107314459D01*
X190550338Y-107315000D01*
X190661966Y-107315000D01*
X190656176Y-107601167D01*
X190652017Y-107736668D01*
X190644983Y-107818127D01*
X190633179Y-107854993D01*
X190614711Y-107856715D01*
X190606175Y-107850642D01*
X190559347Y-107829327D01*
X190541238Y-107834678D01*
X190546591Y-107866481D01*
X190578124Y-107897534D01*
X190618791Y-107943238D01*
X190623431Y-107971952D01*
X190597465Y-107966840D01*
X190540038Y-107923846D01*
X190462668Y-107851832D01*
X190447988Y-107836959D01*
X190348143Y-107733484D01*
X190290711Y-107667596D01*
X190276816Y-107638338D01*
X190358279Y-107638338D01*
X190360852Y-107673651D01*
X190399291Y-107729178D01*
X190401557Y-107731637D01*
X190448725Y-107789859D01*
X190468250Y-107828986D01*
X190479797Y-107854673D01*
X190480766Y-107854750D01*
X190488607Y-107827588D01*
X190488703Y-107775397D01*
X190472540Y-107715668D01*
X190447083Y-107696022D01*
X190444165Y-107694330D01*
X190536259Y-107694330D01*
X190537281Y-107757537D01*
X190569275Y-107801031D01*
X190571437Y-107801972D01*
X190609862Y-107818240D01*
X190614237Y-107820493D01*
X190616276Y-107792595D01*
X190618839Y-107716507D01*
X190621431Y-107607530D01*
X190621875Y-107584875D01*
X190620667Y-107471089D01*
X190613350Y-107386899D01*
X190601423Y-107347802D01*
X190598851Y-107346750D01*
X190585453Y-107374788D01*
X190583609Y-107445592D01*
X190586937Y-107485487D01*
X190589545Y-107584139D01*
X190572936Y-107640972D01*
X190567162Y-107646111D01*
X190536259Y-107694330D01*
X190444165Y-107694330D01*
X190403632Y-107670830D01*
X190395867Y-107656312D01*
X190369770Y-107632878D01*
X190358279Y-107638338D01*
X190276816Y-107638338D01*
X190273606Y-107631579D01*
X190294742Y-107617719D01*
X190352034Y-107618301D01*
X190389685Y-107621271D01*
X190477256Y-107625601D01*
X190518777Y-107614260D01*
X190531163Y-107579799D01*
X190531750Y-107558719D01*
X190511036Y-107499464D01*
X190459884Y-107484883D01*
X190394780Y-107516863D01*
X190370961Y-107540298D01*
X190310266Y-107581842D01*
X190266124Y-107588765D01*
X190206586Y-107561195D01*
X190143252Y-107506181D01*
X190092629Y-107442305D01*
X190087096Y-107428306D01*
X190125134Y-107428306D01*
X190158249Y-107474615D01*
X190216271Y-107503321D01*
X190237409Y-107505500D01*
X190291261Y-107499857D01*
X190291252Y-107475710D01*
X190277750Y-107457875D01*
X190256498Y-107418423D01*
X190273862Y-107410250D01*
X190305128Y-107384471D01*
X190309500Y-107360824D01*
X190315239Y-107329148D01*
X190343695Y-107336603D01*
X190380064Y-107360824D01*
X190457657Y-107401788D01*
X190512919Y-107406025D01*
X190531750Y-107376626D01*
X190511851Y-107358690D01*
X190496450Y-107364818D01*
X190451458Y-107367815D01*
X190440887Y-107358755D01*
X190396629Y-107317982D01*
X190339799Y-107286269D01*
X190292935Y-107273789D01*
X190277750Y-107285120D01*
X190253048Y-107304849D01*
X190214250Y-107299125D01*
X190163036Y-107290758D01*
X190155355Y-107318021D01*
X190183617Y-107380587D01*
X190200267Y-107431133D01*
X190183617Y-107442000D01*
X190152612Y-107417223D01*
X190150750Y-107404958D01*
X190140383Y-107381021D01*
X190134127Y-107384539D01*
X190125134Y-107428306D01*
X190087096Y-107428306D01*
X190071225Y-107388151D01*
X190074642Y-107373213D01*
X190078004Y-107351599D01*
X190063878Y-107357446D01*
X190025270Y-107348910D01*
X189979597Y-107299969D01*
X189939148Y-107234295D01*
X189934380Y-107205599D01*
X189964772Y-107198688D01*
X189976125Y-107198583D01*
X190018277Y-107221274D01*
X190023750Y-107240916D01*
X190044085Y-107279633D01*
X190057828Y-107283250D01*
X190081104Y-107258143D01*
X190080424Y-107227687D01*
X190048177Y-107182223D01*
X190020946Y-107175476D01*
X189986037Y-107156364D01*
X189973217Y-107086549D01*
X189972950Y-107068568D01*
X189956038Y-106971610D01*
X189952696Y-106966851D01*
X189992965Y-106966851D01*
X190012961Y-107023018D01*
X190063016Y-107096161D01*
X190125804Y-107165872D01*
X190183997Y-107211745D01*
X190207407Y-107219419D01*
X190213107Y-107200813D01*
X190179155Y-107153645D01*
X190156649Y-107130267D01*
X190087657Y-107056245D01*
X190035470Y-106989022D01*
X190029520Y-106979454D01*
X190002287Y-106942415D01*
X189993123Y-106961950D01*
X189992965Y-106966851D01*
X189952696Y-106966851D01*
X189918975Y-106918842D01*
X189875081Y-106876152D01*
X189865000Y-106854141D01*
X189884532Y-106853654D01*
X189928500Y-106886375D01*
X189976450Y-106922332D01*
X189988903Y-106915059D01*
X189968192Y-106872325D01*
X189916654Y-106801899D01*
X189895459Y-106776449D01*
X189826380Y-106687887D01*
X189803535Y-106636245D01*
X189825126Y-106616907D01*
X189833250Y-106616500D01*
X189864034Y-106640698D01*
G37*
X189864034Y-106640698D02*
X189865000Y-106648524D01*
X189885988Y-106703611D01*
X189942305Y-106790832D01*
X190023981Y-106897819D01*
X190121043Y-107012209D01*
X190223522Y-107121635D01*
X190319215Y-107211812D01*
X190428194Y-107287178D01*
X190531759Y-107314459D01*
X190550338Y-107315000D01*
X190661966Y-107315000D01*
X190656176Y-107601167D01*
X190652017Y-107736668D01*
X190644983Y-107818127D01*
X190633179Y-107854993D01*
X190614711Y-107856715D01*
X190606175Y-107850642D01*
X190559347Y-107829327D01*
X190541238Y-107834678D01*
X190546591Y-107866481D01*
X190578124Y-107897534D01*
X190618791Y-107943238D01*
X190623431Y-107971952D01*
X190597465Y-107966840D01*
X190540038Y-107923846D01*
X190462668Y-107851832D01*
X190447988Y-107836959D01*
X190348143Y-107733484D01*
X190290711Y-107667596D01*
X190276816Y-107638338D01*
X190358279Y-107638338D01*
X190360852Y-107673651D01*
X190399291Y-107729178D01*
X190401557Y-107731637D01*
X190448725Y-107789859D01*
X190468250Y-107828986D01*
X190479797Y-107854673D01*
X190480766Y-107854750D01*
X190488607Y-107827588D01*
X190488703Y-107775397D01*
X190472540Y-107715668D01*
X190447083Y-107696022D01*
X190444165Y-107694330D01*
X190536259Y-107694330D01*
X190537281Y-107757537D01*
X190569275Y-107801031D01*
X190571437Y-107801972D01*
X190609862Y-107818240D01*
X190614237Y-107820493D01*
X190616276Y-107792595D01*
X190618839Y-107716507D01*
X190621431Y-107607530D01*
X190621875Y-107584875D01*
X190620667Y-107471089D01*
X190613350Y-107386899D01*
X190601423Y-107347802D01*
X190598851Y-107346750D01*
X190585453Y-107374788D01*
X190583609Y-107445592D01*
X190586937Y-107485487D01*
X190589545Y-107584139D01*
X190572936Y-107640972D01*
X190567162Y-107646111D01*
X190536259Y-107694330D01*
X190444165Y-107694330D01*
X190403632Y-107670830D01*
X190395867Y-107656312D01*
X190369770Y-107632878D01*
X190358279Y-107638338D01*
X190276816Y-107638338D01*
X190273606Y-107631579D01*
X190294742Y-107617719D01*
X190352034Y-107618301D01*
X190389685Y-107621271D01*
X190477256Y-107625601D01*
X190518777Y-107614260D01*
X190531163Y-107579799D01*
X190531750Y-107558719D01*
X190511036Y-107499464D01*
X190459884Y-107484883D01*
X190394780Y-107516863D01*
X190370961Y-107540298D01*
X190310266Y-107581842D01*
X190266124Y-107588765D01*
X190206586Y-107561195D01*
X190143252Y-107506181D01*
X190092629Y-107442305D01*
X190087096Y-107428306D01*
X190125134Y-107428306D01*
X190158249Y-107474615D01*
X190216271Y-107503321D01*
X190237409Y-107505500D01*
X190291261Y-107499857D01*
X190291252Y-107475710D01*
X190277750Y-107457875D01*
X190256498Y-107418423D01*
X190273862Y-107410250D01*
X190305128Y-107384471D01*
X190309500Y-107360824D01*
X190315239Y-107329148D01*
X190343695Y-107336603D01*
X190380064Y-107360824D01*
X190457657Y-107401788D01*
X190512919Y-107406025D01*
X190531750Y-107376626D01*
X190511851Y-107358690D01*
X190496450Y-107364818D01*
X190451458Y-107367815D01*
X190440887Y-107358755D01*
X190396629Y-107317982D01*
X190339799Y-107286269D01*
X190292935Y-107273789D01*
X190277750Y-107285120D01*
X190253048Y-107304849D01*
X190214250Y-107299125D01*
X190163036Y-107290758D01*
X190155355Y-107318021D01*
X190183617Y-107380587D01*
X190200267Y-107431133D01*
X190183617Y-107442000D01*
X190152612Y-107417223D01*
X190150750Y-107404958D01*
X190140383Y-107381021D01*
X190134127Y-107384539D01*
X190125134Y-107428306D01*
X190087096Y-107428306D01*
X190071225Y-107388151D01*
X190074642Y-107373213D01*
X190078004Y-107351599D01*
X190063878Y-107357446D01*
X190025270Y-107348910D01*
X189979597Y-107299969D01*
X189939148Y-107234295D01*
X189934380Y-107205599D01*
X189964772Y-107198688D01*
X189976125Y-107198583D01*
X190018277Y-107221274D01*
X190023750Y-107240916D01*
X190044085Y-107279633D01*
X190057828Y-107283250D01*
X190081104Y-107258143D01*
X190080424Y-107227687D01*
X190048177Y-107182223D01*
X190020946Y-107175476D01*
X189986037Y-107156364D01*
X189973217Y-107086549D01*
X189972950Y-107068568D01*
X189956038Y-106971610D01*
X189952696Y-106966851D01*
X189992965Y-106966851D01*
X190012961Y-107023018D01*
X190063016Y-107096161D01*
X190125804Y-107165872D01*
X190183997Y-107211745D01*
X190207407Y-107219419D01*
X190213107Y-107200813D01*
X190179155Y-107153645D01*
X190156649Y-107130267D01*
X190087657Y-107056245D01*
X190035470Y-106989022D01*
X190029520Y-106979454D01*
X190002287Y-106942415D01*
X189993123Y-106961950D01*
X189992965Y-106966851D01*
X189952696Y-106966851D01*
X189918975Y-106918842D01*
X189875081Y-106876152D01*
X189865000Y-106854141D01*
X189884532Y-106853654D01*
X189928500Y-106886375D01*
X189976450Y-106922332D01*
X189988903Y-106915059D01*
X189968192Y-106872325D01*
X189916654Y-106801899D01*
X189895459Y-106776449D01*
X189826380Y-106687887D01*
X189803535Y-106636245D01*
X189825126Y-106616907D01*
X189833250Y-106616500D01*
X189864034Y-106640698D01*
G36*
X193667702Y-105352737D02*
G01*
X193919343Y-105438658D01*
X193963608Y-105459933D01*
X194141536Y-105576490D01*
X194262271Y-105720231D01*
X194326887Y-105893103D01*
X194336463Y-106097054D01*
X194333369Y-106129119D01*
X194314644Y-106241352D01*
X194281892Y-106299093D01*
X194222244Y-106309767D01*
X194122830Y-106280802D01*
X194091461Y-106268712D01*
X193934114Y-106227225D01*
X193744187Y-106207686D01*
X193549195Y-106211525D01*
X193405125Y-106233051D01*
X193354225Y-106246519D01*
X193350088Y-106256839D01*
X193398675Y-106268494D01*
X193467377Y-106279868D01*
X193636379Y-106317398D01*
X193801329Y-106372581D01*
X193943162Y-106437810D01*
X194042810Y-106505477D01*
X194049932Y-106512296D01*
X194098582Y-106572647D01*
X194116070Y-106638983D01*
X194111013Y-106733311D01*
X194085671Y-106860073D01*
X194039274Y-106931608D01*
X193963274Y-106954945D01*
X193859798Y-106939873D01*
X193747523Y-106923558D01*
X193611656Y-106919905D01*
X193535715Y-106924490D01*
X193349182Y-106943742D01*
X193440653Y-106990268D01*
X193567721Y-107072314D01*
X193659283Y-107166596D01*
X193704099Y-107260599D01*
X193706750Y-107286593D01*
X193699148Y-107388293D01*
X193667253Y-107445042D01*
X193597430Y-107469319D01*
X193502269Y-107473750D01*
X193404937Y-107477135D01*
X193336118Y-107485807D01*
X193317192Y-107492890D01*
X193325642Y-107523670D01*
X193371183Y-107574620D01*
X193382197Y-107584409D01*
X193426318Y-107631116D01*
X193442559Y-107679561D01*
X193427139Y-107738805D01*
X193376276Y-107817906D01*
X193286187Y-107925924D01*
X193199768Y-108021413D01*
X193116583Y-108105167D01*
X193008519Y-108204508D01*
X192886098Y-108310862D01*
X192759841Y-108415657D01*
X192640270Y-108510320D01*
X192537906Y-108586276D01*
X192463269Y-108634953D01*
X192430191Y-108648500D01*
X192433605Y-108622042D01*
X192460506Y-108550566D01*
X192506111Y-108445914D01*
X192548737Y-108354812D01*
X192694846Y-107994038D01*
X192812126Y-107582104D01*
X192896572Y-107140043D01*
X192929761Y-106879124D01*
X192940890Y-106664166D01*
X192927833Y-106480839D01*
X192888462Y-106314811D01*
X192820647Y-106151754D01*
X192724449Y-105980875D01*
X192597515Y-105775125D01*
X192744787Y-105638075D01*
X192961433Y-105472612D01*
X193187979Y-105369827D01*
X193423658Y-105329831D01*
X193667702Y-105352737D01*
G37*
X193667702Y-105352737D02*
X193919343Y-105438658D01*
X193963608Y-105459933D01*
X194141536Y-105576490D01*
X194262271Y-105720231D01*
X194326887Y-105893103D01*
X194336463Y-106097054D01*
X194333369Y-106129119D01*
X194314644Y-106241352D01*
X194281892Y-106299093D01*
X194222244Y-106309767D01*
X194122830Y-106280802D01*
X194091461Y-106268712D01*
X193934114Y-106227225D01*
X193744187Y-106207686D01*
X193549195Y-106211525D01*
X193405125Y-106233051D01*
X193354225Y-106246519D01*
X193350088Y-106256839D01*
X193398675Y-106268494D01*
X193467377Y-106279868D01*
X193636379Y-106317398D01*
X193801329Y-106372581D01*
X193943162Y-106437810D01*
X194042810Y-106505477D01*
X194049932Y-106512296D01*
X194098582Y-106572647D01*
X194116070Y-106638983D01*
X194111013Y-106733311D01*
X194085671Y-106860073D01*
X194039274Y-106931608D01*
X193963274Y-106954945D01*
X193859798Y-106939873D01*
X193747523Y-106923558D01*
X193611656Y-106919905D01*
X193535715Y-106924490D01*
X193349182Y-106943742D01*
X193440653Y-106990268D01*
X193567721Y-107072314D01*
X193659283Y-107166596D01*
X193704099Y-107260599D01*
X193706750Y-107286593D01*
X193699148Y-107388293D01*
X193667253Y-107445042D01*
X193597430Y-107469319D01*
X193502269Y-107473750D01*
X193404937Y-107477135D01*
X193336118Y-107485807D01*
X193317192Y-107492890D01*
X193325642Y-107523670D01*
X193371183Y-107574620D01*
X193382197Y-107584409D01*
X193426318Y-107631116D01*
X193442559Y-107679561D01*
X193427139Y-107738805D01*
X193376276Y-107817906D01*
X193286187Y-107925924D01*
X193199768Y-108021413D01*
X193116583Y-108105167D01*
X193008519Y-108204508D01*
X192886098Y-108310862D01*
X192759841Y-108415657D01*
X192640270Y-108510320D01*
X192537906Y-108586276D01*
X192463269Y-108634953D01*
X192430191Y-108648500D01*
X192433605Y-108622042D01*
X192460506Y-108550566D01*
X192506111Y-108445914D01*
X192548737Y-108354812D01*
X192694846Y-107994038D01*
X192812126Y-107582104D01*
X192896572Y-107140043D01*
X192929761Y-106879124D01*
X192940890Y-106664166D01*
X192927833Y-106480839D01*
X192888462Y-106314811D01*
X192820647Y-106151754D01*
X192724449Y-105980875D01*
X192597515Y-105775125D01*
X192744787Y-105638075D01*
X192961433Y-105472612D01*
X193187979Y-105369827D01*
X193423658Y-105329831D01*
X193667702Y-105352737D01*
G36*
X186658250Y-109655300D02*
G01*
X186709720Y-109680431D01*
X186721750Y-109699953D01*
X186715072Y-109724546D01*
X186713812Y-109724316D01*
X186680648Y-109714282D01*
X186650312Y-109706113D01*
X186603254Y-109681385D01*
X186594750Y-109665144D01*
X186620094Y-109650665D01*
X186658250Y-109655300D01*
G37*
X186658250Y-109655300D02*
X186709720Y-109680431D01*
X186721750Y-109699953D01*
X186715072Y-109724546D01*
X186713812Y-109724316D01*
X186680648Y-109714282D01*
X186650312Y-109706113D01*
X186603254Y-109681385D01*
X186594750Y-109665144D01*
X186620094Y-109650665D01*
X186658250Y-109655300D01*
G36*
X186544471Y-109607429D02*
G01*
X186554522Y-109672334D01*
X186551117Y-109700100D01*
X186547383Y-109767210D01*
X186565667Y-109791500D01*
X186582383Y-109771353D01*
X186575540Y-109754354D01*
X186573964Y-109730752D01*
X186608013Y-109738479D01*
X186665475Y-109756857D01*
X186684659Y-109760236D01*
X186681662Y-109773829D01*
X186660600Y-109789375D01*
X186618647Y-109841775D01*
X186604932Y-109909895D01*
X186624278Y-109963521D01*
X186631849Y-109969430D01*
X186653125Y-109972712D01*
X186645562Y-109955407D01*
X186641226Y-109900837D01*
X186655566Y-109863188D01*
X186677676Y-109834895D01*
X186687161Y-109858141D01*
X186689034Y-109908688D01*
X186678815Y-109993793D01*
X186651042Y-110029556D01*
X186613122Y-110010191D01*
X186594874Y-109982233D01*
X186574871Y-109919050D01*
X186579280Y-109886093D01*
X186576866Y-109857280D01*
X186566148Y-109855000D01*
X186538829Y-109827780D01*
X186508509Y-109762332D01*
X186483173Y-109682969D01*
X186479861Y-109664500D01*
X186499500Y-109664500D01*
X186511116Y-109690633D01*
X186520666Y-109685666D01*
X186524466Y-109647986D01*
X186520666Y-109643333D01*
X186501791Y-109647691D01*
X186499500Y-109664500D01*
X186479861Y-109664500D01*
X186470802Y-109614004D01*
X186476425Y-109581740D01*
X186514809Y-109571480D01*
X186544471Y-109607429D01*
G37*
X186544471Y-109607429D02*
X186554522Y-109672334D01*
X186551117Y-109700100D01*
X186547383Y-109767210D01*
X186565667Y-109791500D01*
X186582383Y-109771353D01*
X186575540Y-109754354D01*
X186573964Y-109730752D01*
X186608013Y-109738479D01*
X186665475Y-109756857D01*
X186684659Y-109760236D01*
X186681662Y-109773829D01*
X186660600Y-109789375D01*
X186618647Y-109841775D01*
X186604932Y-109909895D01*
X186624278Y-109963521D01*
X186631849Y-109969430D01*
X186653125Y-109972712D01*
X186645562Y-109955407D01*
X186641226Y-109900837D01*
X186655566Y-109863188D01*
X186677676Y-109834895D01*
X186687161Y-109858141D01*
X186689034Y-109908688D01*
X186678815Y-109993793D01*
X186651042Y-110029556D01*
X186613122Y-110010191D01*
X186594874Y-109982233D01*
X186574871Y-109919050D01*
X186579280Y-109886093D01*
X186576866Y-109857280D01*
X186566148Y-109855000D01*
X186538829Y-109827780D01*
X186508509Y-109762332D01*
X186483173Y-109682969D01*
X186479861Y-109664500D01*
X186499500Y-109664500D01*
X186511116Y-109690633D01*
X186520666Y-109685666D01*
X186524466Y-109647986D01*
X186520666Y-109643333D01*
X186501791Y-109647691D01*
X186499500Y-109664500D01*
X186479861Y-109664500D01*
X186470802Y-109614004D01*
X186476425Y-109581740D01*
X186514809Y-109571480D01*
X186544471Y-109607429D01*
G36*
X188636222Y-100865382D02*
G01*
X188877852Y-100977329D01*
X189113577Y-101147553D01*
X189340976Y-101373450D01*
X189557626Y-101652411D01*
X189761106Y-101981832D01*
X189948995Y-102359106D01*
X190050385Y-102600125D01*
X190147911Y-102852046D01*
X190233148Y-103084832D01*
X190309689Y-103310514D01*
X190381130Y-103541122D01*
X190451066Y-103788687D01*
X190523090Y-104065240D01*
X190600799Y-104382812D01*
X190667004Y-104663875D01*
X190714928Y-104872881D01*
X190749740Y-105036763D01*
X190773528Y-105172052D01*
X190788379Y-105295278D01*
X190796381Y-105422972D01*
X190799620Y-105571665D01*
X190800186Y-105718606D01*
X190797954Y-105923859D01*
X190791331Y-106082108D01*
X190780677Y-106187915D01*
X190766349Y-106235840D01*
X190766078Y-106236121D01*
X190739808Y-106233920D01*
X190698256Y-106185010D01*
X190638274Y-106084972D01*
X190580018Y-105975140D01*
X190349386Y-105541749D01*
X190134119Y-105169212D01*
X189933602Y-104856929D01*
X189747221Y-104604297D01*
X189574362Y-104410716D01*
X189414410Y-104275582D01*
X189266751Y-104198295D01*
X189130769Y-104178253D01*
X189005851Y-104214854D01*
X188891382Y-104307497D01*
X188884511Y-104315191D01*
X188805277Y-104427786D01*
X188751550Y-104561902D01*
X188720075Y-104730049D01*
X188707600Y-104944733D01*
X188707088Y-104997250D01*
X188715838Y-105223219D01*
X188746437Y-105434684D01*
X188803145Y-105646958D01*
X188890228Y-105875351D01*
X189011947Y-106135175D01*
X189038557Y-106187822D01*
X189327977Y-106704082D01*
X189645477Y-107170938D01*
X189998273Y-107598959D01*
X190012384Y-107614502D01*
X190185442Y-107805626D01*
X190319631Y-107957366D01*
X190419731Y-108076457D01*
X190490522Y-108169632D01*
X190536786Y-108243628D01*
X190563303Y-108305177D01*
X190574852Y-108361016D01*
X190576470Y-108409154D01*
X190545011Y-108585212D01*
X190462776Y-108773101D01*
X190337067Y-108958984D01*
X190216723Y-109090617D01*
X190062801Y-109223693D01*
X189893066Y-109337760D01*
X189693080Y-109441009D01*
X189448405Y-109541631D01*
X189372875Y-109569388D01*
X189112115Y-109672760D01*
X188858845Y-109790712D01*
X188627184Y-109915712D01*
X188431250Y-110040226D01*
X188303385Y-110140015D01*
X188216343Y-110216310D01*
X188149240Y-110272720D01*
X188114536Y-110298823D01*
X188112695Y-110299500D01*
X188088593Y-110276555D01*
X188037857Y-110216943D01*
X187983360Y-110148687D01*
X187865780Y-109997875D01*
X187936702Y-109950652D01*
X188110636Y-109800033D01*
X188230587Y-109617642D01*
X188295207Y-109407230D01*
X188303146Y-109172551D01*
X188276521Y-109005497D01*
X188253293Y-108937584D01*
X188205828Y-108823517D01*
X188138812Y-108673673D01*
X188056931Y-108498429D01*
X187964873Y-108308161D01*
X187927383Y-108232445D01*
X187632676Y-107623931D01*
X187376979Y-107057960D01*
X187158261Y-106528622D01*
X186974495Y-106030003D01*
X186823650Y-105556191D01*
X186703696Y-105101274D01*
X186612605Y-104659340D01*
X186548347Y-104224476D01*
X186546621Y-104209841D01*
X186506168Y-103679414D01*
X186512362Y-103182759D01*
X186564694Y-102721836D01*
X186662658Y-102298609D01*
X186805744Y-101915039D01*
X186993445Y-101573089D01*
X187225253Y-101274720D01*
X187335653Y-101162863D01*
X187561011Y-100992762D01*
X187816859Y-100877112D01*
X188098622Y-100817423D01*
X188391109Y-100814321D01*
X188636222Y-100865382D01*
G37*
X188636222Y-100865382D02*
X188877852Y-100977329D01*
X189113577Y-101147553D01*
X189340976Y-101373450D01*
X189557626Y-101652411D01*
X189761106Y-101981832D01*
X189948995Y-102359106D01*
X190050385Y-102600125D01*
X190147911Y-102852046D01*
X190233148Y-103084832D01*
X190309689Y-103310514D01*
X190381130Y-103541122D01*
X190451066Y-103788687D01*
X190523090Y-104065240D01*
X190600799Y-104382812D01*
X190667004Y-104663875D01*
X190714928Y-104872881D01*
X190749740Y-105036763D01*
X190773528Y-105172052D01*
X190788379Y-105295278D01*
X190796381Y-105422972D01*
X190799620Y-105571665D01*
X190800186Y-105718606D01*
X190797954Y-105923859D01*
X190791331Y-106082108D01*
X190780677Y-106187915D01*
X190766349Y-106235840D01*
X190766078Y-106236121D01*
X190739808Y-106233920D01*
X190698256Y-106185010D01*
X190638274Y-106084972D01*
X190580018Y-105975140D01*
X190349386Y-105541749D01*
X190134119Y-105169212D01*
X189933602Y-104856929D01*
X189747221Y-104604297D01*
X189574362Y-104410716D01*
X189414410Y-104275582D01*
X189266751Y-104198295D01*
X189130769Y-104178253D01*
X189005851Y-104214854D01*
X188891382Y-104307497D01*
X188884511Y-104315191D01*
X188805277Y-104427786D01*
X188751550Y-104561902D01*
X188720075Y-104730049D01*
X188707600Y-104944733D01*
X188707088Y-104997250D01*
X188715838Y-105223219D01*
X188746437Y-105434684D01*
X188803145Y-105646958D01*
X188890228Y-105875351D01*
X189011947Y-106135175D01*
X189038557Y-106187822D01*
X189327977Y-106704082D01*
X189645477Y-107170938D01*
X189998273Y-107598959D01*
X190012384Y-107614502D01*
X190185442Y-107805626D01*
X190319631Y-107957366D01*
X190419731Y-108076457D01*
X190490522Y-108169632D01*
X190536786Y-108243628D01*
X190563303Y-108305177D01*
X190574852Y-108361016D01*
X190576470Y-108409154D01*
X190545011Y-108585212D01*
X190462776Y-108773101D01*
X190337067Y-108958984D01*
X190216723Y-109090617D01*
X190062801Y-109223693D01*
X189893066Y-109337760D01*
X189693080Y-109441009D01*
X189448405Y-109541631D01*
X189372875Y-109569388D01*
X189112115Y-109672760D01*
X188858845Y-109790712D01*
X188627184Y-109915712D01*
X188431250Y-110040226D01*
X188303385Y-110140015D01*
X188216343Y-110216310D01*
X188149240Y-110272720D01*
X188114536Y-110298823D01*
X188112695Y-110299500D01*
X188088593Y-110276555D01*
X188037857Y-110216943D01*
X187983360Y-110148687D01*
X187865780Y-109997875D01*
X187936702Y-109950652D01*
X188110636Y-109800033D01*
X188230587Y-109617642D01*
X188295207Y-109407230D01*
X188303146Y-109172551D01*
X188276521Y-109005497D01*
X188253293Y-108937584D01*
X188205828Y-108823517D01*
X188138812Y-108673673D01*
X188056931Y-108498429D01*
X187964873Y-108308161D01*
X187927383Y-108232445D01*
X187632676Y-107623931D01*
X187376979Y-107057960D01*
X187158261Y-106528622D01*
X186974495Y-106030003D01*
X186823650Y-105556191D01*
X186703696Y-105101274D01*
X186612605Y-104659340D01*
X186548347Y-104224476D01*
X186546621Y-104209841D01*
X186506168Y-103679414D01*
X186512362Y-103182759D01*
X186564694Y-102721836D01*
X186662658Y-102298609D01*
X186805744Y-101915039D01*
X186993445Y-101573089D01*
X187225253Y-101274720D01*
X187335653Y-101162863D01*
X187561011Y-100992762D01*
X187816859Y-100877112D01*
X188098622Y-100817423D01*
X188391109Y-100814321D01*
X188636222Y-100865382D01*
G36*
X187110837Y-110006196D02*
G01*
X187183228Y-110068054D01*
X187254098Y-110151476D01*
X187311274Y-110240365D01*
X187342582Y-110318624D01*
X187339228Y-110365664D01*
X187306394Y-110392009D01*
X187255600Y-110377454D01*
X187185772Y-110328446D01*
X187112624Y-110255496D01*
X187055150Y-110170543D01*
X187018920Y-110087710D01*
X187009507Y-110021119D01*
X187032481Y-109984892D01*
X187049097Y-109982000D01*
X187110837Y-110006196D01*
G37*
X187110837Y-110006196D02*
X187183228Y-110068054D01*
X187254098Y-110151476D01*
X187311274Y-110240365D01*
X187342582Y-110318624D01*
X187339228Y-110365664D01*
X187306394Y-110392009D01*
X187255600Y-110377454D01*
X187185772Y-110328446D01*
X187112624Y-110255496D01*
X187055150Y-110170543D01*
X187018920Y-110087710D01*
X187009507Y-110021119D01*
X187032481Y-109984892D01*
X187049097Y-109982000D01*
X187110837Y-110006196D01*
G36*
X187404974Y-109943108D02*
G01*
X187471275Y-109973004D01*
X187525194Y-110008187D01*
X187534395Y-110017088D01*
X187594174Y-110063473D01*
X187637614Y-110077250D01*
X187663829Y-110069524D01*
X187638365Y-110040417D01*
X187624755Y-110029615D01*
X187582749Y-109995559D01*
X187592558Y-109993073D01*
X187629284Y-110005802D01*
X187689370Y-110043517D01*
X187764624Y-110111247D01*
X187797173Y-110146310D01*
X187862376Y-110233646D01*
X187863730Y-110237968D01*
X187846013Y-110247512D01*
X187825412Y-110263409D01*
X187790562Y-110310992D01*
X187795589Y-110351686D01*
X187824290Y-110363000D01*
X187827186Y-110347182D01*
X187822692Y-110342108D01*
X187822262Y-110303863D01*
X187841212Y-110270671D01*
X187863950Y-110238669D01*
X187883874Y-110302258D01*
X187879464Y-110340444D01*
X187878130Y-110407969D01*
X187914503Y-110438798D01*
X187950284Y-110446721D01*
X187935242Y-110419052D01*
X187934557Y-110418224D01*
X187917848Y-110358711D01*
X187926595Y-110333927D01*
X187951165Y-110313137D01*
X187971938Y-110350655D01*
X187973123Y-110354332D01*
X187980183Y-110425236D01*
X187964776Y-110490006D01*
X187933834Y-110521478D01*
X187930396Y-110521750D01*
X187901356Y-110498721D01*
X187843633Y-110437312D01*
X187767819Y-110349037D01*
X187737286Y-110311849D01*
X187641394Y-110202064D01*
X187595750Y-110156047D01*
X187692581Y-110156047D01*
X187692834Y-110188349D01*
X187696325Y-110202435D01*
X187716461Y-110258830D01*
X187737697Y-110258580D01*
X187751401Y-110239597D01*
X187745440Y-110198856D01*
X187724023Y-110174282D01*
X187692581Y-110156047D01*
X187595750Y-110156047D01*
X187542276Y-110102137D01*
X187458725Y-110030777D01*
X187445992Y-110021880D01*
X187374078Y-109972860D01*
X187330739Y-109940559D01*
X187325000Y-109934558D01*
X187348734Y-109927344D01*
X187404974Y-109943108D01*
G37*
X187404974Y-109943108D02*
X187471275Y-109973004D01*
X187525194Y-110008187D01*
X187534395Y-110017088D01*
X187594174Y-110063473D01*
X187637614Y-110077250D01*
X187663829Y-110069524D01*
X187638365Y-110040417D01*
X187624755Y-110029615D01*
X187582749Y-109995559D01*
X187592558Y-109993073D01*
X187629284Y-110005802D01*
X187689370Y-110043517D01*
X187764624Y-110111247D01*
X187797173Y-110146310D01*
X187862376Y-110233646D01*
X187863730Y-110237968D01*
X187846013Y-110247512D01*
X187825412Y-110263409D01*
X187790562Y-110310992D01*
X187795589Y-110351686D01*
X187824290Y-110363000D01*
X187827186Y-110347182D01*
X187822692Y-110342108D01*
X187822262Y-110303863D01*
X187841212Y-110270671D01*
X187863950Y-110238669D01*
X187883874Y-110302258D01*
X187879464Y-110340444D01*
X187878130Y-110407969D01*
X187914503Y-110438798D01*
X187950284Y-110446721D01*
X187935242Y-110419052D01*
X187934557Y-110418224D01*
X187917848Y-110358711D01*
X187926595Y-110333927D01*
X187951165Y-110313137D01*
X187971938Y-110350655D01*
X187973123Y-110354332D01*
X187980183Y-110425236D01*
X187964776Y-110490006D01*
X187933834Y-110521478D01*
X187930396Y-110521750D01*
X187901356Y-110498721D01*
X187843633Y-110437312D01*
X187767819Y-110349037D01*
X187737286Y-110311849D01*
X187641394Y-110202064D01*
X187595750Y-110156047D01*
X187692581Y-110156047D01*
X187692834Y-110188349D01*
X187696325Y-110202435D01*
X187716461Y-110258830D01*
X187737697Y-110258580D01*
X187751401Y-110239597D01*
X187745440Y-110198856D01*
X187724023Y-110174282D01*
X187692581Y-110156047D01*
X187595750Y-110156047D01*
X187542276Y-110102137D01*
X187458725Y-110030777D01*
X187445992Y-110021880D01*
X187374078Y-109972860D01*
X187330739Y-109940559D01*
X187325000Y-109934558D01*
X187348734Y-109927344D01*
X187404974Y-109943108D01*
G36*
X186797807Y-109741948D02*
G01*
X186788478Y-109748090D01*
X186771120Y-109786984D01*
X186773414Y-109846384D01*
X186772119Y-109937318D01*
X186750388Y-110021262D01*
X186728960Y-110092877D01*
X186744680Y-110141079D01*
X186768367Y-110166649D01*
X186807436Y-110201554D01*
X186807715Y-110188517D01*
X186791174Y-110154914D01*
X186775009Y-110086025D01*
X186784048Y-110047443D01*
X186810529Y-110037930D01*
X186855441Y-110074857D01*
X186922156Y-110159503D01*
X186978827Y-110246504D01*
X187012087Y-110315459D01*
X187015732Y-110346348D01*
X187014017Y-110362237D01*
X187023300Y-110355337D01*
X187065926Y-110352321D01*
X187092282Y-110367488D01*
X187118395Y-110409388D01*
X187098137Y-110447933D01*
X187078240Y-110496227D01*
X187102418Y-110531033D01*
X187131265Y-110550848D01*
X187125945Y-110518570D01*
X187124294Y-110513812D01*
X187119443Y-110466577D01*
X187152814Y-110467061D01*
X187221124Y-110514927D01*
X187232829Y-110524987D01*
X187305019Y-110584058D01*
X187399721Y-110656586D01*
X187443056Y-110688397D01*
X187515002Y-110747991D01*
X187555189Y-110796660D01*
X187558142Y-110815561D01*
X187566366Y-110832070D01*
X187606773Y-110824636D01*
X187660923Y-110819968D01*
X187674250Y-110837110D01*
X187650006Y-110868394D01*
X187585507Y-110867065D01*
X187493103Y-110836081D01*
X187385141Y-110778397D01*
X187359594Y-110761789D01*
X187222561Y-110664393D01*
X187103738Y-110570771D01*
X187176833Y-110570771D01*
X187191539Y-110612159D01*
X187203291Y-110617000D01*
X187214241Y-110606850D01*
X187261500Y-110606850D01*
X187284064Y-110641247D01*
X187338615Y-110695453D01*
X187405437Y-110752411D01*
X187464814Y-110795062D01*
X187493323Y-110807425D01*
X187489141Y-110789444D01*
X187447317Y-110744599D01*
X187429823Y-110728618D01*
X187342059Y-110651523D01*
X187291393Y-110609886D01*
X187267881Y-110596511D01*
X187261576Y-110604204D01*
X187261500Y-110606850D01*
X187214241Y-110606850D01*
X187229242Y-110592945D01*
X187229750Y-110587123D01*
X187207003Y-110543484D01*
X187203291Y-110540895D01*
X187180099Y-110550608D01*
X187176833Y-110570771D01*
X187103738Y-110570771D01*
X187099412Y-110567363D01*
X187000162Y-110479513D01*
X186978342Y-110456182D01*
X187015284Y-110456182D01*
X187019627Y-110458250D01*
X187048601Y-110435898D01*
X187055125Y-110426500D01*
X187063215Y-110396817D01*
X187058872Y-110394750D01*
X187029898Y-110417101D01*
X187023375Y-110426500D01*
X187015284Y-110456182D01*
X186978342Y-110456182D01*
X186935734Y-110410625D01*
X186944000Y-110410625D01*
X186959875Y-110426500D01*
X186975750Y-110410625D01*
X186959875Y-110394750D01*
X186944000Y-110410625D01*
X186935734Y-110410625D01*
X186934828Y-110409657D01*
X186913291Y-110369063D01*
X186893040Y-110343847D01*
X186877332Y-110349082D01*
X186859193Y-110349546D01*
X186873430Y-110315375D01*
X186944000Y-110315375D01*
X186959875Y-110331250D01*
X186975750Y-110315375D01*
X186959875Y-110299500D01*
X186944000Y-110315375D01*
X186873430Y-110315375D01*
X186878449Y-110303331D01*
X186892126Y-110238386D01*
X186881003Y-110167419D01*
X186851756Y-110117576D01*
X186830640Y-110109000D01*
X186831149Y-110132464D01*
X186850574Y-110175908D01*
X186874317Y-110244593D01*
X186858794Y-110273607D01*
X186815320Y-110261673D01*
X186755207Y-110207514D01*
X186739806Y-110188413D01*
X186687935Y-110113433D01*
X186673918Y-110065808D01*
X186692554Y-110026219D01*
X186695233Y-110022901D01*
X186724497Y-109956539D01*
X186737577Y-109865961D01*
X186737625Y-109860638D01*
X186748271Y-109781225D01*
X186775470Y-109742072D01*
X186778106Y-109741316D01*
X186797807Y-109741948D01*
G37*
X186797807Y-109741948D02*
X186788478Y-109748090D01*
X186771120Y-109786984D01*
X186773414Y-109846384D01*
X186772119Y-109937318D01*
X186750388Y-110021262D01*
X186728960Y-110092877D01*
X186744680Y-110141079D01*
X186768367Y-110166649D01*
X186807436Y-110201554D01*
X186807715Y-110188517D01*
X186791174Y-110154914D01*
X186775009Y-110086025D01*
X186784048Y-110047443D01*
X186810529Y-110037930D01*
X186855441Y-110074857D01*
X186922156Y-110159503D01*
X186978827Y-110246504D01*
X187012087Y-110315459D01*
X187015732Y-110346348D01*
X187014017Y-110362237D01*
X187023300Y-110355337D01*
X187065926Y-110352321D01*
X187092282Y-110367488D01*
X187118395Y-110409388D01*
X187098137Y-110447933D01*
X187078240Y-110496227D01*
X187102418Y-110531033D01*
X187131265Y-110550848D01*
X187125945Y-110518570D01*
X187124294Y-110513812D01*
X187119443Y-110466577D01*
X187152814Y-110467061D01*
X187221124Y-110514927D01*
X187232829Y-110524987D01*
X187305019Y-110584058D01*
X187399721Y-110656586D01*
X187443056Y-110688397D01*
X187515002Y-110747991D01*
X187555189Y-110796660D01*
X187558142Y-110815561D01*
X187566366Y-110832070D01*
X187606773Y-110824636D01*
X187660923Y-110819968D01*
X187674250Y-110837110D01*
X187650006Y-110868394D01*
X187585507Y-110867065D01*
X187493103Y-110836081D01*
X187385141Y-110778397D01*
X187359594Y-110761789D01*
X187222561Y-110664393D01*
X187103738Y-110570771D01*
X187176833Y-110570771D01*
X187191539Y-110612159D01*
X187203291Y-110617000D01*
X187214241Y-110606850D01*
X187261500Y-110606850D01*
X187284064Y-110641247D01*
X187338615Y-110695453D01*
X187405437Y-110752411D01*
X187464814Y-110795062D01*
X187493323Y-110807425D01*
X187489141Y-110789444D01*
X187447317Y-110744599D01*
X187429823Y-110728618D01*
X187342059Y-110651523D01*
X187291393Y-110609886D01*
X187267881Y-110596511D01*
X187261576Y-110604204D01*
X187261500Y-110606850D01*
X187214241Y-110606850D01*
X187229242Y-110592945D01*
X187229750Y-110587123D01*
X187207003Y-110543484D01*
X187203291Y-110540895D01*
X187180099Y-110550608D01*
X187176833Y-110570771D01*
X187103738Y-110570771D01*
X187099412Y-110567363D01*
X187000162Y-110479513D01*
X186978342Y-110456182D01*
X187015284Y-110456182D01*
X187019627Y-110458250D01*
X187048601Y-110435898D01*
X187055125Y-110426500D01*
X187063215Y-110396817D01*
X187058872Y-110394750D01*
X187029898Y-110417101D01*
X187023375Y-110426500D01*
X187015284Y-110456182D01*
X186978342Y-110456182D01*
X186935734Y-110410625D01*
X186944000Y-110410625D01*
X186959875Y-110426500D01*
X186975750Y-110410625D01*
X186959875Y-110394750D01*
X186944000Y-110410625D01*
X186935734Y-110410625D01*
X186934828Y-110409657D01*
X186913291Y-110369063D01*
X186893040Y-110343847D01*
X186877332Y-110349082D01*
X186859193Y-110349546D01*
X186873430Y-110315375D01*
X186944000Y-110315375D01*
X186959875Y-110331250D01*
X186975750Y-110315375D01*
X186959875Y-110299500D01*
X186944000Y-110315375D01*
X186873430Y-110315375D01*
X186878449Y-110303331D01*
X186892126Y-110238386D01*
X186881003Y-110167419D01*
X186851756Y-110117576D01*
X186830640Y-110109000D01*
X186831149Y-110132464D01*
X186850574Y-110175908D01*
X186874317Y-110244593D01*
X186858794Y-110273607D01*
X186815320Y-110261673D01*
X186755207Y-110207514D01*
X186739806Y-110188413D01*
X186687935Y-110113433D01*
X186673918Y-110065808D01*
X186692554Y-110026219D01*
X186695233Y-110022901D01*
X186724497Y-109956539D01*
X186737577Y-109865961D01*
X186737625Y-109860638D01*
X186748271Y-109781225D01*
X186775470Y-109742072D01*
X186778106Y-109741316D01*
X186797807Y-109741948D01*
G36*
X185166990Y-108542539D02*
G01*
X185238845Y-108601073D01*
X185340454Y-108690224D01*
X185463982Y-108803114D01*
X185601593Y-108932865D01*
X185604138Y-108935300D01*
X185744303Y-109066959D01*
X185873035Y-109183209D01*
X185981842Y-109276748D01*
X186062233Y-109340275D01*
X186105410Y-109366411D01*
X186148795Y-109390442D01*
X186180834Y-109446278D01*
X186209198Y-109548396D01*
X186214323Y-109571951D01*
X186289387Y-109798840D01*
X186418842Y-110039303D01*
X186597454Y-110285074D01*
X186818274Y-110526192D01*
X186935757Y-110638694D01*
X187046647Y-110739337D01*
X187138083Y-110816778D01*
X187195122Y-110858475D01*
X187265605Y-110908569D01*
X187292641Y-110946121D01*
X187271412Y-110962592D01*
X187253562Y-110962007D01*
X187200664Y-110954896D01*
X187110462Y-110941546D01*
X187055125Y-110933039D01*
X186922578Y-110916961D01*
X186784090Y-110906803D01*
X186745909Y-110905531D01*
X186663699Y-110899475D01*
X186595033Y-110878782D01*
X186521389Y-110834385D01*
X186424244Y-110757221D01*
X186398559Y-110735524D01*
X186227833Y-110573648D01*
X186050205Y-110375156D01*
X185871751Y-110149686D01*
X185698546Y-109906872D01*
X185536664Y-109656350D01*
X185392180Y-109407756D01*
X185271171Y-109170724D01*
X185179711Y-108954891D01*
X185123874Y-108769892D01*
X185111422Y-108694026D01*
X185104959Y-108586863D01*
X185114480Y-108532664D01*
X185132724Y-108521500D01*
X185166990Y-108542539D01*
G37*
X185166990Y-108542539D02*
X185238845Y-108601073D01*
X185340454Y-108690224D01*
X185463982Y-108803114D01*
X185601593Y-108932865D01*
X185604138Y-108935300D01*
X185744303Y-109066959D01*
X185873035Y-109183209D01*
X185981842Y-109276748D01*
X186062233Y-109340275D01*
X186105410Y-109366411D01*
X186148795Y-109390442D01*
X186180834Y-109446278D01*
X186209198Y-109548396D01*
X186214323Y-109571951D01*
X186289387Y-109798840D01*
X186418842Y-110039303D01*
X186597454Y-110285074D01*
X186818274Y-110526192D01*
X186935757Y-110638694D01*
X187046647Y-110739337D01*
X187138083Y-110816778D01*
X187195122Y-110858475D01*
X187265605Y-110908569D01*
X187292641Y-110946121D01*
X187271412Y-110962592D01*
X187253562Y-110962007D01*
X187200664Y-110954896D01*
X187110462Y-110941546D01*
X187055125Y-110933039D01*
X186922578Y-110916961D01*
X186784090Y-110906803D01*
X186745909Y-110905531D01*
X186663699Y-110899475D01*
X186595033Y-110878782D01*
X186521389Y-110834385D01*
X186424244Y-110757221D01*
X186398559Y-110735524D01*
X186227833Y-110573648D01*
X186050205Y-110375156D01*
X185871751Y-110149686D01*
X185698546Y-109906872D01*
X185536664Y-109656350D01*
X185392180Y-109407756D01*
X185271171Y-109170724D01*
X185179711Y-108954891D01*
X185123874Y-108769892D01*
X185111422Y-108694026D01*
X185104959Y-108586863D01*
X185114480Y-108532664D01*
X185132724Y-108521500D01*
X185166990Y-108542539D01*
%TO.C,R1*%
D11*
X142947380Y-85891666D02*
X142471190Y-86225000D01*
X142947380Y-86463095D02*
X141947380Y-86463095D01*
X141947380Y-86082142D01*
X141995000Y-85986904D01*
X142042619Y-85939285D01*
X142137857Y-85891666D01*
X142280714Y-85891666D01*
X142375952Y-85939285D01*
X142423571Y-85986904D01*
X142471190Y-86082142D01*
X142471190Y-86463095D01*
X142947380Y-84939285D02*
X142947380Y-85510714D01*
X142947380Y-85225000D02*
X141947380Y-85225000D01*
X142090238Y-85320238D01*
X142185476Y-85415476D01*
X142233095Y-85510714D01*
%TO.C,LED1*%
X142947380Y-90654047D02*
X142947380Y-91130238D01*
X141947380Y-91130238D01*
X142423571Y-90320714D02*
X142423571Y-89987380D01*
X142947380Y-89844523D02*
X142947380Y-90320714D01*
X141947380Y-90320714D01*
X141947380Y-89844523D01*
X142947380Y-89415952D02*
X141947380Y-89415952D01*
X141947380Y-89177857D01*
X141995000Y-89035000D01*
X142090238Y-88939761D01*
X142185476Y-88892142D01*
X142375952Y-88844523D01*
X142518809Y-88844523D01*
X142709285Y-88892142D01*
X142804523Y-88939761D01*
X142899761Y-89035000D01*
X142947380Y-89177857D01*
X142947380Y-89415952D01*
X142947380Y-87892142D02*
X142947380Y-88463571D01*
X142947380Y-88177857D02*
X141947380Y-88177857D01*
X142090238Y-88273095D01*
X142185476Y-88368333D01*
X142233095Y-88463571D01*
%TO.C,JP1*%
X191571666Y-82107380D02*
X191571666Y-82821666D01*
X191524047Y-82964523D01*
X191428809Y-83059761D01*
X191285952Y-83107380D01*
X191190714Y-83107380D01*
X192047857Y-83107380D02*
X192047857Y-82107380D01*
X192428809Y-82107380D01*
X192524047Y-82155000D01*
X192571666Y-82202619D01*
X192619285Y-82297857D01*
X192619285Y-82440714D01*
X192571666Y-82535952D01*
X192524047Y-82583571D01*
X192428809Y-82631190D01*
X192047857Y-82631190D01*
X193571666Y-83107380D02*
X193000238Y-83107380D01*
X193285952Y-83107380D02*
X193285952Y-82107380D01*
X193190714Y-82250238D01*
X193095476Y-82345476D01*
X193000238Y-82393095D01*
%TO.C,D1*%
X191666904Y-89297380D02*
X191666904Y-88297380D01*
X191905000Y-88297380D01*
X192047857Y-88345000D01*
X192143095Y-88440238D01*
X192190714Y-88535476D01*
X192238333Y-88725952D01*
X192238333Y-88868809D01*
X192190714Y-89059285D01*
X192143095Y-89154523D01*
X192047857Y-89249761D01*
X191905000Y-89297380D01*
X191666904Y-89297380D01*
X193190714Y-89297380D02*
X192619285Y-89297380D01*
X192905000Y-89297380D02*
X192905000Y-88297380D01*
X192809761Y-88440238D01*
X192714523Y-88535476D01*
X192619285Y-88583095D01*
%TO.C,J2*%
X145520595Y-96107380D02*
X146139642Y-96107380D01*
X145806309Y-96488333D01*
X145949166Y-96488333D01*
X146044404Y-96535952D01*
X146092023Y-96583571D01*
X146139642Y-96678809D01*
X146139642Y-96916904D01*
X146092023Y-97012142D01*
X146044404Y-97059761D01*
X145949166Y-97107380D01*
X145663452Y-97107380D01*
X145568214Y-97059761D01*
X145520595Y-97012142D01*
X146520595Y-96202619D02*
X146568214Y-96155000D01*
X146663452Y-96107380D01*
X146901547Y-96107380D01*
X146996785Y-96155000D01*
X147044404Y-96202619D01*
X147092023Y-96297857D01*
X147092023Y-96393095D01*
X147044404Y-96535952D01*
X146472976Y-97107380D01*
X147092023Y-97107380D01*
X192872023Y-97107380D02*
X192300595Y-97107380D01*
X192586309Y-97107380D02*
X192586309Y-96107380D01*
X192491071Y-96250238D01*
X192395833Y-96345476D01*
X192300595Y-96393095D01*
%TD*%
M02*
