%TF.GenerationSoftware,KiCad,Pcbnew,(5.1.10-1-10_14)*%
%TF.CreationDate,2023-08-18T21:43:18+08:00*%
%TF.ProjectId,GB_MemoryBackup_Subboard_A,47425f4d-656d-46f7-9279-4261636b7570,1.1*%
%TF.SameCoordinates,Original*%
%TF.FileFunction,Paste,Top*%
%TF.FilePolarity,Positive*%
%FSLAX46Y46*%
G04 Gerber Fmt 4.6, Leading zero omitted, Abs format (unit mm)*
G04 Created by KiCad (PCBNEW (5.1.10-1-10_14)) date 2023-08-18 21:43:18*
%MOMM*%
%LPD*%
G01*
G04 APERTURE LIST*
%ADD10R,0.600000X0.450000*%
%ADD11R,5.500000X3.500000*%
%ADD12R,1.000000X5.000000*%
G04 APERTURE END LIST*
%TO.C,R1*%
G36*
G01*
X144595001Y-85325000D02*
X143694999Y-85325000D01*
G75*
G02*
X143445000Y-85075001I0J249999D01*
G01*
X143445000Y-84549999D01*
G75*
G02*
X143694999Y-84300000I249999J0D01*
G01*
X144595001Y-84300000D01*
G75*
G02*
X144845000Y-84549999I0J-249999D01*
G01*
X144845000Y-85075001D01*
G75*
G02*
X144595001Y-85325000I-249999J0D01*
G01*
G37*
G36*
G01*
X144595001Y-87150000D02*
X143694999Y-87150000D01*
G75*
G02*
X143445000Y-86900001I0J249999D01*
G01*
X143445000Y-86374999D01*
G75*
G02*
X143694999Y-86125000I249999J0D01*
G01*
X144595001Y-86125000D01*
G75*
G02*
X144845000Y-86374999I0J-249999D01*
G01*
X144845000Y-86900001D01*
G75*
G02*
X144595001Y-87150000I-249999J0D01*
G01*
G37*
%TD*%
%TO.C,LED1*%
G36*
G01*
X144601250Y-89085000D02*
X143688750Y-89085000D01*
G75*
G02*
X143445000Y-88841250I0J243750D01*
G01*
X143445000Y-88353750D01*
G75*
G02*
X143688750Y-88110000I243750J0D01*
G01*
X144601250Y-88110000D01*
G75*
G02*
X144845000Y-88353750I0J-243750D01*
G01*
X144845000Y-88841250D01*
G75*
G02*
X144601250Y-89085000I-243750J0D01*
G01*
G37*
G36*
G01*
X144601250Y-90960000D02*
X143688750Y-90960000D01*
G75*
G02*
X143445000Y-90716250I0J243750D01*
G01*
X143445000Y-90228750D01*
G75*
G02*
X143688750Y-89985000I243750J0D01*
G01*
X144601250Y-89985000D01*
G75*
G02*
X144845000Y-90228750I0J-243750D01*
G01*
X144845000Y-90716250D01*
G75*
G02*
X144601250Y-90960000I-243750J0D01*
G01*
G37*
%TD*%
D10*
%TO.C,D1*%
X191355000Y-86995000D03*
X193455000Y-86995000D03*
%TD*%
D11*
%TO.C,J2*%
X156480000Y-114090000D03*
X182480000Y-114090000D03*
D12*
X146230000Y-92840000D03*
X147730000Y-92840000D03*
X149230000Y-92840000D03*
X150730000Y-92840000D03*
X152230000Y-92840000D03*
X153730000Y-92840000D03*
X155230000Y-92840000D03*
X156730000Y-92840000D03*
X158230000Y-92840000D03*
X159730000Y-92840000D03*
X161230000Y-92840000D03*
X162730000Y-92840000D03*
X164230000Y-92840000D03*
X165730000Y-92840000D03*
X167230000Y-92840000D03*
X168730000Y-92840000D03*
X170230000Y-92840000D03*
X171730000Y-92840000D03*
X173230000Y-92840000D03*
X174730000Y-92840000D03*
X176230000Y-92840000D03*
X177730000Y-92840000D03*
X179230000Y-92840000D03*
X180730000Y-92840000D03*
X182230000Y-92840000D03*
X183730000Y-92840000D03*
X185230000Y-92840000D03*
X186730000Y-92840000D03*
X188230000Y-92840000D03*
X189730000Y-92840000D03*
X191230000Y-92840000D03*
X192730000Y-92840000D03*
%TD*%
M02*
