%TF.GenerationSoftware,KiCad,Pcbnew,(5.1.10-1-10_14)*%
%TF.CreationDate,2023-03-17T01:48:03+08:00*%
%TF.ProjectId,GB_MemoryBackup_Mainboard,47425f4d-656d-46f7-9279-4261636b7570,1.1*%
%TF.SameCoordinates,Original*%
%TF.FileFunction,Copper,L2,Bot*%
%TF.FilePolarity,Positive*%
%FSLAX46Y46*%
G04 Gerber Fmt 4.6, Leading zero omitted, Abs format (unit mm)*
G04 Created by KiCad (PCBNEW (5.1.10-1-10_14)) date 2023-03-17 01:48:03*
%MOMM*%
%LPD*%
G01*
G04 APERTURE LIST*
%TA.AperFunction,ComponentPad*%
%ADD10C,1.600000*%
%TD*%
%TA.AperFunction,ComponentPad*%
%ADD11O,3.000000X2.000000*%
%TD*%
%TA.AperFunction,ComponentPad*%
%ADD12O,2.500000X1.600000*%
%TD*%
%TA.AperFunction,ComponentPad*%
%ADD13R,2.500000X1.600000*%
%TD*%
%TA.AperFunction,ComponentPad*%
%ADD14R,1.700000X1.700000*%
%TD*%
%TA.AperFunction,ComponentPad*%
%ADD15O,1.700000X1.700000*%
%TD*%
%TA.AperFunction,ViaPad*%
%ADD16C,0.800000*%
%TD*%
%TA.AperFunction,Conductor*%
%ADD17C,0.500000*%
%TD*%
%TA.AperFunction,Conductor*%
%ADD18C,0.400000*%
%TD*%
%TA.AperFunction,Conductor*%
%ADD19C,0.250000*%
%TD*%
%TA.AperFunction,Conductor*%
%ADD20C,0.254000*%
%TD*%
%TA.AperFunction,Conductor*%
%ADD21C,0.100000*%
%TD*%
G04 APERTURE END LIST*
D10*
%TO.P,SW2,3*%
%TO.N,N/C*%
X63795000Y-85090000D03*
%TO.P,SW2,1*%
%TO.N,/~SW_2*%
X65745000Y-83541000D03*
%TO.P,SW2,2*%
%TO.N,GND*%
X65745000Y-86639000D03*
%TD*%
D11*
%TO.P,SW1,4*%
%TO.N,N/C*%
X64770000Y-72050000D03*
%TO.P,SW1,5*%
X64770000Y-80350000D03*
D12*
%TO.P,SW1,3*%
X64770000Y-74200000D03*
%TO.P,SW1,2*%
%TO.N,/~SW_1*%
X64770000Y-76200000D03*
D13*
%TO.P,SW1,1*%
%TO.N,GND*%
X64770000Y-78200000D03*
%TD*%
D14*
%TO.P,J3,1*%
%TO.N,/TCK*%
X69215000Y-137160000D03*
D15*
%TO.P,J3,2*%
%TO.N,GND*%
X66675000Y-137160000D03*
%TO.P,J3,3*%
%TO.N,/TDO*%
X69215000Y-134620000D03*
%TO.P,J3,4*%
%TO.N,+5V*%
X66675000Y-134620000D03*
%TO.P,J3,5*%
%TO.N,/TMS*%
X69215000Y-132080000D03*
%TO.P,J3,6*%
%TO.N,N/C*%
X66675000Y-132080000D03*
%TO.P,J3,7*%
X69215000Y-129540000D03*
%TO.P,J3,8*%
X66675000Y-129540000D03*
%TO.P,J3,9*%
%TO.N,/TDI*%
X69215000Y-127000000D03*
%TO.P,J3,10*%
%TO.N,GND*%
X66675000Y-127000000D03*
%TD*%
D16*
%TO.N,+5V*%
X76271900Y-100082800D03*
X82162000Y-100082800D03*
X93580400Y-96710000D03*
X98566000Y-80532000D03*
%TO.N,GND*%
X113000000Y-145804500D03*
X75036700Y-120488500D03*
X73460200Y-119235100D03*
%TO.N,/AAudioIn*%
X111350000Y-142874000D03*
X111189700Y-75788800D03*
%TO.N,/AD7*%
X112785200Y-81606600D03*
X110260500Y-73316200D03*
X84706600Y-98009900D03*
X97830600Y-95007100D03*
%TO.N,/AD6*%
X86015800Y-97790700D03*
X97830600Y-94006700D03*
X110178200Y-89126000D03*
X109508000Y-75241300D03*
X107629700Y-69603000D03*
%TO.N,/AD5*%
X102800800Y-72656000D03*
X105232100Y-78505800D03*
X108127900Y-104909800D03*
X86989800Y-96025900D03*
%TO.N,/AD4*%
X104159100Y-68568900D03*
X108490600Y-79213200D03*
X112105600Y-107307500D03*
X88385200Y-104303900D03*
X100944700Y-105451300D03*
%TO.N,/AD3*%
X102923700Y-68568400D03*
X108487400Y-81101400D03*
X87208700Y-104542200D03*
X112107100Y-111110500D03*
%TO.N,/AD2*%
X101367200Y-71955300D03*
X108116000Y-109943600D03*
X105334600Y-83722500D03*
X88042100Y-96007100D03*
%TO.N,/AD1*%
X99350000Y-68740300D03*
X107235600Y-84345400D03*
X109688600Y-113385200D03*
%TO.N,/AD0*%
X97850000Y-69144200D03*
X97712800Y-123444400D03*
X106926300Y-88194400D03*
X108279900Y-112266600D03*
%TO.N,/AA14*%
X94777600Y-126974500D03*
X95568100Y-59066400D03*
%TO.N,/AA13*%
X98511800Y-73339900D03*
X81414400Y-105126400D03*
X96347200Y-99916900D03*
X95019100Y-68573800D03*
%TO.N,/AA12*%
X98533800Y-84044400D03*
X90931700Y-75292100D03*
X92957700Y-68567000D03*
X85619100Y-119060800D03*
X96546300Y-113310200D03*
%TO.N,/AA11*%
X78930500Y-111793700D03*
X102295000Y-82316000D03*
X100955200Y-100463300D03*
%TO.N,/AA10*%
X90900700Y-68553200D03*
X108508000Y-100059300D03*
X84674000Y-135051000D03*
X105436700Y-73477200D03*
%TO.N,/AA9*%
X78557400Y-109796700D03*
X102863200Y-84344800D03*
X100144500Y-99797500D03*
%TO.N,/AA8*%
X77117900Y-106413000D03*
X98439800Y-99097500D03*
X100964000Y-83436900D03*
%TO.N,/AA7*%
X82299200Y-131147500D03*
X99017700Y-82912400D03*
X97501100Y-115646700D03*
%TO.N,/AA6*%
X81618300Y-131881400D03*
X101357500Y-88466200D03*
X99937200Y-112225900D03*
%TO.N,/AA5*%
X92458300Y-94770700D03*
X97655300Y-88437700D03*
X81626600Y-134564400D03*
X94145000Y-122061300D03*
%TO.N,/AA4*%
X102713600Y-89161700D03*
X80847900Y-132888300D03*
X102235000Y-111827000D03*
%TO.N,/AA3*%
X103505000Y-88370500D03*
X80472300Y-135470600D03*
X103505000Y-112234400D03*
%TO.N,/AA2*%
X79718200Y-137145300D03*
X104478300Y-89081700D03*
X104775000Y-112261200D03*
%TO.N,/AA1*%
X79079900Y-138280500D03*
X104712300Y-90511400D03*
X105987700Y-112081100D03*
%TO.N,/AA0*%
X78332200Y-139028200D03*
X105286900Y-91351600D03*
X107006200Y-112255100D03*
%TO.N,/~ASRAM_CS*%
X70675500Y-115729400D03*
X72330400Y-69477700D03*
%TO.N,/~ARD*%
X74346000Y-104483100D03*
X70850000Y-139540900D03*
X99590500Y-98334600D03*
X102568800Y-83316400D03*
%TO.N,/~AWR*%
X72897800Y-104581700D03*
X100238700Y-84135300D03*
X94101500Y-101042800D03*
X69350000Y-139687200D03*
%TO.N,/ACLK*%
X67850000Y-141800600D03*
X67850000Y-69560900D03*
%TO.N,/AA15_T*%
X70910900Y-108024900D03*
X96215700Y-70845700D03*
%TO.N,/~ARD_T*%
X70012600Y-111436800D03*
X70850000Y-71410500D03*
%TO.N,/~AWR_T*%
X70435500Y-110004300D03*
X72529700Y-85744200D03*
%TO.N,/TCK*%
X76127800Y-108331800D03*
%TO.N,/TDO*%
X72516100Y-100038700D03*
%TO.N,/TMS*%
X75513800Y-119188200D03*
%TO.N,/~SW_2*%
X63777100Y-86944700D03*
%TO.N,/F010_A14*%
X95684400Y-99164900D03*
X74743900Y-101546800D03*
%TO.N,/~F_CE_010*%
X97575900Y-97491000D03*
X74479400Y-100546400D03*
%TO.N,/F040_A17*%
X94893900Y-77419600D03*
X74318000Y-93954400D03*
%TO.N,/F040_A14*%
X98730800Y-77643100D03*
X81028200Y-94094100D03*
%TO.N,/~F_CE_040*%
X103573200Y-77476200D03*
X74308700Y-92713900D03*
%TO.N,/F040_A15*%
X94909700Y-82667700D03*
X77998600Y-95496000D03*
%TO.N,/F040_A16*%
X93810500Y-81577300D03*
X78743000Y-94515400D03*
%TO.N,/F040_A18*%
X94764100Y-80645000D03*
X73509400Y-94920000D03*
%TD*%
D17*
%TO.N,+5V*%
X86083300Y-96450300D02*
X84913300Y-96450300D01*
X84913300Y-96450300D02*
X82162000Y-99201600D01*
X82162000Y-99201600D02*
X82162000Y-100082800D01*
X82162000Y-100082800D02*
X76271900Y-100082800D01*
X86083300Y-96450300D02*
X86559300Y-96926300D01*
X86559300Y-96926300D02*
X93364100Y-96926300D01*
X93364100Y-96926300D02*
X93580400Y-96710000D01*
X98566000Y-80532000D02*
X86083300Y-93014700D01*
X86083300Y-93014700D02*
X86083300Y-96450300D01*
%TO.N,GND*%
X73571700Y-120488500D02*
X73571700Y-119346600D01*
X73571700Y-119346600D02*
X73460200Y-119235100D01*
X66675000Y-127000000D02*
X67060200Y-127000000D01*
X67060200Y-127000000D02*
X73571700Y-120488500D01*
X73571700Y-120488500D02*
X75036700Y-120488500D01*
X69134700Y-141937000D02*
X68296100Y-142775600D01*
X68296100Y-142775600D02*
X67372100Y-142775600D01*
X67372100Y-142775600D02*
X63610400Y-139013900D01*
X63610400Y-139013900D02*
X63610400Y-88773600D01*
X63610400Y-88773600D02*
X65745000Y-86639000D01*
X113000000Y-145804500D02*
X73002200Y-145804500D01*
X73002200Y-145804500D02*
X69134700Y-141937000D01*
X66675000Y-138510300D02*
X69134700Y-140970000D01*
X69134700Y-140970000D02*
X69134700Y-141937000D01*
X66675000Y-127000000D02*
X65324600Y-128350400D01*
X65324600Y-128350400D02*
X65324600Y-135809600D01*
X65324600Y-135809600D02*
X66675000Y-137160000D01*
X66675000Y-137160000D02*
X66675000Y-138510300D01*
X66520300Y-78200000D02*
X67045500Y-78725200D01*
X67045500Y-78725200D02*
X67045500Y-85338500D01*
X67045500Y-85338500D02*
X65745000Y-86639000D01*
X64770000Y-78200000D02*
X66520300Y-78200000D01*
D18*
%TO.N,/AAudioIn*%
X111350000Y-142874000D02*
X113034500Y-141189500D01*
X113034500Y-141189500D02*
X113034500Y-99199900D01*
X113034500Y-99199900D02*
X110604600Y-96770000D01*
X110604600Y-96770000D02*
X110604600Y-90344500D01*
X110604600Y-90344500D02*
X111189700Y-89759400D01*
X111189700Y-89759400D02*
X111189700Y-75788800D01*
D19*
%TO.N,/AD7*%
X112785200Y-81606600D02*
X112785200Y-75840900D01*
X112785200Y-75840900D02*
X110260500Y-73316200D01*
X84706600Y-98009900D02*
X85212700Y-98516000D01*
X85212700Y-98516000D02*
X94321700Y-98516000D01*
X94321700Y-98516000D02*
X97830600Y-95007100D01*
%TO.N,/AD6*%
X109508000Y-75241300D02*
X110178200Y-75911500D01*
X110178200Y-75911500D02*
X110178200Y-89126000D01*
X107629700Y-69603000D02*
X109508000Y-71481300D01*
X109508000Y-71481300D02*
X109508000Y-75241300D01*
X86015800Y-97790700D02*
X93697000Y-97790700D01*
X93697000Y-97790700D02*
X97481000Y-94006700D01*
X97481000Y-94006700D02*
X97830600Y-94006700D01*
%TO.N,/AD5*%
X102800800Y-72656000D02*
X102800800Y-73514100D01*
X102800800Y-73514100D02*
X105369600Y-76082900D01*
X105369600Y-76082900D02*
X105369600Y-78505800D01*
X86989800Y-96025900D02*
X86989800Y-93212900D01*
X86989800Y-93212900D02*
X102001200Y-78201500D01*
X102001200Y-78201500D02*
X103873800Y-78201500D01*
X103873800Y-78201500D02*
X104354700Y-77720600D01*
X104354700Y-77720600D02*
X104354700Y-76923200D01*
X104354700Y-76923200D02*
X100626500Y-73195000D01*
X100626500Y-73195000D02*
X100626500Y-71670300D01*
X100626500Y-71670300D02*
X101078000Y-71218800D01*
X101078000Y-71218800D02*
X101656600Y-71218800D01*
X101656600Y-71218800D02*
X102800800Y-72363000D01*
X102800800Y-72363000D02*
X102800800Y-72656000D01*
X105369600Y-78505800D02*
X105232100Y-78505800D01*
X108127900Y-104909800D02*
X106462500Y-103244400D01*
X106462500Y-103244400D02*
X106462500Y-90864500D01*
X106462500Y-90864500D02*
X106060000Y-90462000D01*
X106060000Y-90462000D02*
X106060000Y-83290700D01*
X106060000Y-83290700D02*
X105661800Y-82892500D01*
X105661800Y-82892500D02*
X105661800Y-80801100D01*
X105661800Y-80801100D02*
X105369600Y-80508900D01*
X105369600Y-80508900D02*
X105369600Y-78505800D01*
%TO.N,/AD4*%
X108490600Y-79213200D02*
X108490600Y-72900400D01*
X108490600Y-72900400D02*
X104159100Y-68568900D01*
X100944700Y-105451300D02*
X89532600Y-105451300D01*
X89532600Y-105451300D02*
X88385200Y-104303900D01*
X108490600Y-79213200D02*
X109452900Y-80175500D01*
X109452900Y-80175500D02*
X109452900Y-89426400D01*
X109452900Y-89426400D02*
X109882500Y-89856000D01*
X109882500Y-89856000D02*
X109882600Y-89856000D01*
X109882600Y-89856000D02*
X109882600Y-96960700D01*
X109882600Y-96960700D02*
X112105600Y-99183700D01*
X112105600Y-99183700D02*
X112105600Y-107307500D01*
%TO.N,/AD3*%
X112107100Y-111110500D02*
X112107100Y-113266500D01*
X112107100Y-113266500D02*
X97714400Y-127659200D01*
X97714400Y-127659200D02*
X95118700Y-127659200D01*
X95118700Y-127659200D02*
X83004000Y-139773900D01*
X83004000Y-139773900D02*
X78032500Y-139773900D01*
X78032500Y-139773900D02*
X77594300Y-139335700D01*
X77594300Y-139335700D02*
X77594300Y-125093400D01*
X77594300Y-125093400D02*
X87208700Y-115479000D01*
X87208700Y-115479000D02*
X87208700Y-104542200D01*
X102923700Y-68568400D02*
X107758700Y-73403400D01*
X107758700Y-73403400D02*
X107758700Y-79600800D01*
X107758700Y-79600800D02*
X108487400Y-80329500D01*
X108487400Y-80329500D02*
X108487400Y-81101400D01*
X108487400Y-81101400D02*
X109002600Y-81616600D01*
X109002600Y-81616600D02*
X109002600Y-97466700D01*
X109002600Y-97466700D02*
X111337800Y-99801900D01*
X111337800Y-99801900D02*
X111337800Y-110341200D01*
X111337800Y-110341200D02*
X112107100Y-111110500D01*
%TO.N,/AD2*%
X101367200Y-71955300D02*
X101367200Y-73226300D01*
X101367200Y-73226300D02*
X104861900Y-76721000D01*
X104861900Y-76721000D02*
X104861900Y-77850300D01*
X104861900Y-77850300D02*
X102932900Y-79779300D01*
X102932900Y-79779300D02*
X102932900Y-80621000D01*
X102932900Y-80621000D02*
X105077300Y-82765400D01*
X105077300Y-82765400D02*
X105077300Y-83465200D01*
X105077300Y-83465200D02*
X105334600Y-83722500D01*
X108116000Y-109943600D02*
X106012200Y-107839800D01*
X106012200Y-107839800D02*
X106012200Y-91051100D01*
X106012200Y-91051100D02*
X105458600Y-90497500D01*
X105458600Y-90497500D02*
X105458600Y-83846500D01*
X105458600Y-83846500D02*
X105334600Y-83722500D01*
X88042100Y-96007100D02*
X88042100Y-92862300D01*
X88042100Y-92862300D02*
X100283400Y-80621000D01*
X100283400Y-80621000D02*
X102932900Y-80621000D01*
%TO.N,/AD1*%
X99350000Y-68740300D02*
X100548000Y-68740300D01*
X100548000Y-68740300D02*
X104196800Y-72389100D01*
X104196800Y-72389100D02*
X104196800Y-73556700D01*
X104196800Y-73556700D02*
X106407800Y-75767700D01*
X106407800Y-75767700D02*
X106407800Y-80273300D01*
X106407800Y-80273300D02*
X106837400Y-80702900D01*
X106837400Y-80702900D02*
X106837400Y-82101500D01*
X106837400Y-82101500D02*
X107235600Y-82499700D01*
X107235600Y-82499700D02*
X107235600Y-84345400D01*
X107235600Y-84345400D02*
X107651700Y-84761500D01*
X107651700Y-84761500D02*
X107651700Y-100228700D01*
X107651700Y-100228700D02*
X109688600Y-102265600D01*
X109688600Y-102265600D02*
X109688600Y-113385200D01*
%TO.N,/AD0*%
X97850000Y-69144200D02*
X99219800Y-70514000D01*
X99219800Y-70514000D02*
X101684800Y-70514000D01*
X101684800Y-70514000D02*
X103746500Y-72575700D01*
X103746500Y-72575700D02*
X103746500Y-73822800D01*
X103746500Y-73822800D02*
X105957500Y-76033800D01*
X105957500Y-76033800D02*
X105957500Y-80459900D01*
X105957500Y-80459900D02*
X106387100Y-80889500D01*
X106387100Y-80889500D02*
X106387100Y-82288100D01*
X106387100Y-82288100D02*
X106510300Y-82411300D01*
X106510300Y-82411300D02*
X106510300Y-87778400D01*
X106510300Y-87778400D02*
X106926300Y-88194400D01*
X108279900Y-112266600D02*
X108853700Y-111692800D01*
X108853700Y-111692800D02*
X108853700Y-102067600D01*
X108853700Y-102067600D02*
X106926300Y-100140200D01*
X106926300Y-100140200D02*
X106926300Y-88194400D01*
X108279900Y-112266600D02*
X97712800Y-122833700D01*
X97712800Y-122833700D02*
X97712800Y-123444400D01*
%TO.N,/AA14*%
X95568100Y-59066400D02*
X95568100Y-62486600D01*
X95568100Y-62486600D02*
X107308400Y-74226900D01*
X107308400Y-74226900D02*
X107308400Y-79900100D01*
X107308400Y-79900100D02*
X107758700Y-80350400D01*
X107758700Y-80350400D02*
X107758700Y-81748900D01*
X107758700Y-81748900D02*
X108552300Y-82542500D01*
X108552300Y-82542500D02*
X108552300Y-98028500D01*
X108552300Y-98028500D02*
X110887400Y-100363600D01*
X110887400Y-100363600D02*
X110887400Y-113849300D01*
X110887400Y-113849300D02*
X97762200Y-126974500D01*
X97762200Y-126974500D02*
X94777600Y-126974500D01*
%TO.N,/AA13*%
X96946800Y-73339900D02*
X98511800Y-73339900D01*
X96946800Y-73339900D02*
X95719200Y-73339900D01*
X95719200Y-73339900D02*
X77070500Y-91988600D01*
X77070500Y-91988600D02*
X74008300Y-91988600D01*
X74008300Y-91988600D02*
X72784100Y-93212800D01*
X72784100Y-93212800D02*
X72784100Y-95220400D01*
X72784100Y-95220400D02*
X73754000Y-96190300D01*
X73754000Y-96190300D02*
X73754000Y-101582800D01*
X73754000Y-101582800D02*
X76766300Y-104595100D01*
X76766300Y-104595100D02*
X80883100Y-104595100D01*
X80883100Y-104595100D02*
X81414400Y-105126400D01*
X96347200Y-99916900D02*
X95954400Y-100309700D01*
X95954400Y-100309700D02*
X86231100Y-100309700D01*
X86231100Y-100309700D02*
X81414400Y-105126400D01*
X95019100Y-68573800D02*
X96946800Y-70501500D01*
X96946800Y-70501500D02*
X96946800Y-73339900D01*
%TO.N,/AA12*%
X98533800Y-84044400D02*
X98911500Y-84044400D01*
X98911500Y-84044400D02*
X101365100Y-81590800D01*
X101365100Y-81590800D02*
X101365100Y-81590700D01*
X101365100Y-81590700D02*
X102605700Y-81590700D01*
X102605700Y-81590700D02*
X104038800Y-83023800D01*
X104038800Y-83023800D02*
X104038800Y-84831900D01*
X104038800Y-84831900D02*
X101129800Y-87740900D01*
X101129800Y-87740900D02*
X101057100Y-87740900D01*
X101057100Y-87740900D02*
X100632200Y-88165800D01*
X100632200Y-88165800D02*
X100632200Y-88766600D01*
X100632200Y-88766600D02*
X101076200Y-89210600D01*
X101076200Y-89210600D02*
X101076200Y-93618100D01*
X101076200Y-93618100D02*
X101680600Y-94222500D01*
X101680600Y-94222500D02*
X101680600Y-106021800D01*
X101680600Y-106021800D02*
X96546300Y-111156100D01*
X96546300Y-111156100D02*
X96546300Y-113310200D01*
X92957700Y-68567000D02*
X92957700Y-73266100D01*
X92957700Y-73266100D02*
X90931700Y-75292100D01*
X85619100Y-119060800D02*
X90795700Y-119060800D01*
X90795700Y-119060800D02*
X96546300Y-113310200D01*
%TO.N,/AA11*%
X100955200Y-100463300D02*
X98297300Y-103121200D01*
X98297300Y-103121200D02*
X87603000Y-103121200D01*
X87603000Y-103121200D02*
X78930500Y-111793700D01*
X102295000Y-82316000D02*
X102633200Y-82316000D01*
X102633200Y-82316000D02*
X103588500Y-83271300D01*
X103588500Y-83271300D02*
X103588500Y-84645300D01*
X103588500Y-84645300D02*
X100943200Y-87290600D01*
X100943200Y-87290600D02*
X100870500Y-87290600D01*
X100870500Y-87290600D02*
X100181900Y-87979200D01*
X100181900Y-87979200D02*
X100181900Y-88953200D01*
X100181900Y-88953200D02*
X100611200Y-89382500D01*
X100611200Y-89382500D02*
X100611200Y-93790000D01*
X100611200Y-93790000D02*
X100955200Y-94134000D01*
X100955200Y-94134000D02*
X100955200Y-100463300D01*
%TO.N,/AA10*%
X108508000Y-100059300D02*
X110437100Y-101988400D01*
X110437100Y-101988400D02*
X110437100Y-113662700D01*
X110437100Y-113662700D02*
X98042900Y-126056900D01*
X98042900Y-126056900D02*
X93668100Y-126056900D01*
X93668100Y-126056900D02*
X84674000Y-135051000D01*
X105436700Y-73477200D02*
X105436700Y-72992100D01*
X105436700Y-72992100D02*
X100277300Y-67832700D01*
X100277300Y-67832700D02*
X91621200Y-67832700D01*
X91621200Y-67832700D02*
X90900700Y-68553200D01*
X105436700Y-73477200D02*
X106858100Y-74898600D01*
X106858100Y-74898600D02*
X106858100Y-80086700D01*
X106858100Y-80086700D02*
X107308300Y-80536900D01*
X107308300Y-80536900D02*
X107308300Y-81935500D01*
X107308300Y-81935500D02*
X108102000Y-82729200D01*
X108102000Y-82729200D02*
X108102000Y-99653300D01*
X108102000Y-99653300D02*
X108508000Y-100059300D01*
%TO.N,/AA9*%
X100144500Y-99797500D02*
X97273300Y-102668700D01*
X97273300Y-102668700D02*
X86809000Y-102668700D01*
X86809000Y-102668700D02*
X79681000Y-109796700D01*
X79681000Y-109796700D02*
X78557400Y-109796700D01*
X102863200Y-84344800D02*
X102863200Y-84661000D01*
X102863200Y-84661000D02*
X99731600Y-87792600D01*
X99731600Y-87792600D02*
X99731600Y-89139800D01*
X99731600Y-89139800D02*
X100101700Y-89509900D01*
X100101700Y-89509900D02*
X100101700Y-97544900D01*
X100101700Y-97544900D02*
X100367700Y-97810900D01*
X100367700Y-97810900D02*
X100367700Y-99574300D01*
X100367700Y-99574300D02*
X100144500Y-99797500D01*
%TO.N,/AA8*%
X98439800Y-99097500D02*
X98439800Y-99554500D01*
X98439800Y-99554500D02*
X96226200Y-101768100D01*
X96226200Y-101768100D02*
X86435700Y-101768100D01*
X86435700Y-101768100D02*
X81790800Y-106413000D01*
X81790800Y-106413000D02*
X77117900Y-106413000D01*
X100964000Y-83436900D02*
X100964000Y-85286400D01*
X100964000Y-85286400D02*
X98831000Y-87419400D01*
X98831000Y-87419400D02*
X98831000Y-89513000D01*
X98831000Y-89513000D02*
X99006300Y-89688300D01*
X99006300Y-89688300D02*
X99006300Y-97859000D01*
X99006300Y-97859000D02*
X98865100Y-98000200D01*
X98865100Y-98000200D02*
X98865100Y-98672200D01*
X98865100Y-98672200D02*
X98439800Y-99097500D01*
%TO.N,/AA7*%
X97501100Y-115646700D02*
X97501100Y-115945600D01*
X97501100Y-115945600D02*
X82299200Y-131147500D01*
X99017700Y-82912400D02*
X100821500Y-81108600D01*
X100821500Y-81108600D02*
X102764000Y-81108600D01*
X102764000Y-81108600D02*
X104489100Y-82833700D01*
X104489100Y-82833700D02*
X104489100Y-86360500D01*
X104489100Y-86360500D02*
X101988300Y-88861300D01*
X101988300Y-88861300D02*
X101988300Y-93256400D01*
X101988300Y-93256400D02*
X102581200Y-93849300D01*
X102581200Y-93849300D02*
X102581200Y-106395000D01*
X102581200Y-106395000D02*
X100810500Y-108165700D01*
X100810500Y-108165700D02*
X100810500Y-112448100D01*
X100810500Y-112448100D02*
X97611900Y-115646700D01*
X97611900Y-115646700D02*
X97501100Y-115646700D01*
%TO.N,/AA6*%
X99937200Y-112225900D02*
X99830700Y-112225900D01*
X99830700Y-112225900D02*
X81573900Y-130482700D01*
X81573900Y-130482700D02*
X81573900Y-131837000D01*
X81573900Y-131837000D02*
X81618300Y-131881400D01*
X101357500Y-88466200D02*
X101538000Y-88646700D01*
X101538000Y-88646700D02*
X101538000Y-93443000D01*
X101538000Y-93443000D02*
X102130900Y-94035900D01*
X102130900Y-94035900D02*
X102130900Y-106208400D01*
X102130900Y-106208400D02*
X99937200Y-108402100D01*
X99937200Y-108402100D02*
X99937200Y-112225900D01*
%TO.N,/AA5*%
X92458300Y-94770700D02*
X97655300Y-89573700D01*
X97655300Y-89573700D02*
X97655300Y-88437700D01*
X94145000Y-122061300D02*
X81641900Y-134564400D01*
X81641900Y-134564400D02*
X81626600Y-134564400D01*
%TO.N,/AA4*%
X102235000Y-111827000D02*
X103032100Y-111029900D01*
X103032100Y-111029900D02*
X103032100Y-89480200D01*
X103032100Y-89480200D02*
X102713600Y-89161700D01*
X80847900Y-132888300D02*
X81637500Y-132888300D01*
X81637500Y-132888300D02*
X102235000Y-112290800D01*
X102235000Y-112290800D02*
X102235000Y-111827000D01*
%TO.N,/AA3*%
X103505000Y-112234400D02*
X103505000Y-88370500D01*
X103505000Y-112234400D02*
X102928300Y-112234400D01*
X102928300Y-112234400D02*
X80472300Y-134690400D01*
X80472300Y-134690400D02*
X80472300Y-135470600D01*
%TO.N,/AA2*%
X104744400Y-112261200D02*
X104744400Y-112527400D01*
X104744400Y-112527400D02*
X80126500Y-137145300D01*
X80126500Y-137145300D02*
X79718200Y-137145300D01*
X104478300Y-89081700D02*
X103955400Y-89604600D01*
X103955400Y-89604600D02*
X103955400Y-111472200D01*
X103955400Y-111472200D02*
X104744400Y-112261200D01*
X104775000Y-112261200D02*
X104744400Y-112261200D01*
%TO.N,/AA1*%
X79079900Y-138280500D02*
X79628200Y-138280500D01*
X79628200Y-138280500D02*
X84033300Y-133875400D01*
X84033300Y-133875400D02*
X84247400Y-133875400D01*
X84247400Y-133875400D02*
X105975000Y-112147800D01*
X105975000Y-112147800D02*
X105975000Y-112081100D01*
X105975000Y-112081100D02*
X104538900Y-110645000D01*
X104538900Y-110645000D02*
X104538900Y-90684800D01*
X104538900Y-90684800D02*
X104712300Y-90511400D01*
X105975000Y-112081100D02*
X105987700Y-112081100D01*
%TO.N,/AA0*%
X78332200Y-139028200D02*
X79534400Y-139028200D01*
X79534400Y-139028200D02*
X84236900Y-134325700D01*
X84236900Y-134325700D02*
X84434000Y-134325700D01*
X84434000Y-134325700D02*
X105953200Y-112806500D01*
X105953200Y-112806500D02*
X106454800Y-112806500D01*
X106454800Y-112806500D02*
X107006200Y-112255100D01*
X107006200Y-112255100D02*
X107006200Y-112012500D01*
X107006200Y-112012500D02*
X105286900Y-110293200D01*
X105286900Y-110293200D02*
X105286900Y-91351600D01*
%TO.N,/~ASRAM_CS*%
X72330400Y-69477700D02*
X71733600Y-69477700D01*
X71733600Y-69477700D02*
X69208800Y-72002500D01*
X69208800Y-72002500D02*
X69208800Y-114262700D01*
X69208800Y-114262700D02*
X70675500Y-115729400D01*
%TO.N,/~ARD*%
X99590500Y-98334600D02*
X99590500Y-99093900D01*
X99590500Y-99093900D02*
X96466000Y-102218400D01*
X96466000Y-102218400D02*
X86622300Y-102218400D01*
X86622300Y-102218400D02*
X80673400Y-108167300D01*
X80673400Y-108167300D02*
X77813500Y-108167300D01*
X77813500Y-108167300D02*
X74346100Y-104699900D01*
X74346100Y-104699900D02*
X74346100Y-104483100D01*
X74346100Y-104483100D02*
X74346000Y-104483100D01*
X77813500Y-108167300D02*
X77813500Y-122544500D01*
X77813500Y-122544500D02*
X77143900Y-123214100D01*
X77143900Y-123214100D02*
X77143900Y-133247000D01*
X77143900Y-133247000D02*
X70850000Y-139540900D01*
X102568800Y-83316400D02*
X102137800Y-83747400D01*
X102137800Y-83747400D02*
X102137800Y-84749500D01*
X102137800Y-84749500D02*
X99281300Y-87606000D01*
X99281300Y-87606000D02*
X99281300Y-89326400D01*
X99281300Y-89326400D02*
X99590500Y-89635600D01*
X99590500Y-89635600D02*
X99590500Y-98334600D01*
%TO.N,/~AWR*%
X69350000Y-139687200D02*
X75328200Y-133709000D01*
X75328200Y-133709000D02*
X75328300Y-133709000D01*
X75328300Y-133709000D02*
X75328300Y-124235100D01*
X75328300Y-124235100D02*
X77162900Y-122400500D01*
X77162900Y-122400500D02*
X77162900Y-108326000D01*
X77162900Y-108326000D02*
X73418600Y-104581700D01*
X72897800Y-104581700D02*
X73418600Y-104581700D01*
X94101500Y-101042800D02*
X86524100Y-101042800D01*
X86524100Y-101042800D02*
X81712800Y-105854100D01*
X81712800Y-105854100D02*
X77803700Y-105854100D01*
X77803700Y-105854100D02*
X76995000Y-105045400D01*
X76995000Y-105045400D02*
X76062300Y-105045400D01*
X76062300Y-105045400D02*
X74745400Y-103728500D01*
X74745400Y-103728500D02*
X74058500Y-103728500D01*
X74058500Y-103728500D02*
X73418600Y-104368400D01*
X73418600Y-104368400D02*
X73418600Y-104581700D01*
X100238700Y-84135300D02*
X98380700Y-85993300D01*
X98380700Y-85993300D02*
X98380700Y-89699600D01*
X98380700Y-89699600D02*
X98556000Y-89874900D01*
X98556000Y-89874900D02*
X98556000Y-97127100D01*
X98556000Y-97127100D02*
X98301300Y-97381800D01*
X98301300Y-97381800D02*
X98301300Y-98018600D01*
X98301300Y-98018600D02*
X97264200Y-99055700D01*
X97264200Y-99055700D02*
X97264200Y-100040100D01*
X97264200Y-100040100D02*
X96261500Y-101042800D01*
X96261500Y-101042800D02*
X94101500Y-101042800D01*
D17*
%TO.N,/ACLK*%
X67850000Y-141800600D02*
X64480400Y-138431000D01*
X64480400Y-138431000D02*
X64480400Y-121184600D01*
X64480400Y-121184600D02*
X67939500Y-117725500D01*
X67939500Y-117725500D02*
X67939500Y-69650400D01*
X67939500Y-69650400D02*
X67850000Y-69560900D01*
D19*
%TO.N,/AA15_T*%
X96215700Y-70845700D02*
X96215700Y-71126500D01*
X96215700Y-71126500D02*
X75803900Y-91538300D01*
X75803900Y-91538300D02*
X73821700Y-91538300D01*
X73821700Y-91538300D02*
X70910900Y-94449100D01*
X70910900Y-94449100D02*
X70910900Y-108024900D01*
%TO.N,/~ARD_T*%
X70012600Y-111436800D02*
X69706100Y-111130300D01*
X69706100Y-111130300D02*
X69706100Y-72554400D01*
X69706100Y-72554400D02*
X70850000Y-71410500D01*
%TO.N,/~AWR_T*%
X72529700Y-85744200D02*
X70156400Y-88117500D01*
X70156400Y-88117500D02*
X70156400Y-109725200D01*
X70156400Y-109725200D02*
X70435500Y-110004300D01*
%TO.N,/TCK*%
X69215000Y-135984700D02*
X69582300Y-135984700D01*
X69582300Y-135984700D02*
X73226700Y-132340300D01*
X73226700Y-132340300D02*
X73226700Y-125699800D01*
X73226700Y-125699800D02*
X76712600Y-122213900D01*
X76712600Y-122213900D02*
X76712600Y-108916600D01*
X76712600Y-108916600D02*
X76127800Y-108331800D01*
X69215000Y-137160000D02*
X69215000Y-135984700D01*
%TO.N,/TDO*%
X69215000Y-133444700D02*
X69582400Y-133444700D01*
X69582400Y-133444700D02*
X72512700Y-130514400D01*
X72512700Y-130514400D02*
X72512700Y-125776900D01*
X72512700Y-125776900D02*
X76262300Y-122027300D01*
X76262300Y-122027300D02*
X76262300Y-117954100D01*
X76262300Y-117954100D02*
X72172500Y-113864300D01*
X72172500Y-113864300D02*
X72172500Y-100382300D01*
X72172500Y-100382300D02*
X72516100Y-100038700D01*
X69215000Y-134620000D02*
X69215000Y-133444700D01*
%TO.N,/TMS*%
X69215000Y-130904700D02*
X69582400Y-130904700D01*
X69582400Y-130904700D02*
X70390300Y-130096800D01*
X70390300Y-130096800D02*
X70390300Y-126231400D01*
X70390300Y-126231400D02*
X75812000Y-120809700D01*
X75812000Y-120809700D02*
X75812000Y-119486400D01*
X75812000Y-119486400D02*
X75513800Y-119188200D01*
X69215000Y-132080000D02*
X69215000Y-130904700D01*
%TO.N,/~SW_2*%
X65745000Y-83541000D02*
X65745000Y-84976800D01*
X65745000Y-84976800D02*
X63777100Y-86944700D01*
%TO.N,/F010_A14*%
X95684400Y-99164900D02*
X95297300Y-99552000D01*
X95297300Y-99552000D02*
X85871800Y-99552000D01*
X85871800Y-99552000D02*
X83877000Y-101546800D01*
X83877000Y-101546800D02*
X74743900Y-101546800D01*
%TO.N,/~F_CE_010*%
X74479400Y-100546400D02*
X75639100Y-100546400D01*
X75639100Y-100546400D02*
X75980000Y-100887300D01*
X75980000Y-100887300D02*
X82625800Y-100887300D01*
X82625800Y-100887300D02*
X84490800Y-99022300D01*
X84490800Y-99022300D02*
X94801400Y-99022300D01*
X94801400Y-99022300D02*
X94801400Y-99022200D01*
X94801400Y-99022200D02*
X96332600Y-97491000D01*
X96332600Y-97491000D02*
X97575900Y-97491000D01*
%TO.N,/F040_A17*%
X74318000Y-93954400D02*
X77287500Y-93954400D01*
X77287500Y-93954400D02*
X93822300Y-77419600D01*
X93822300Y-77419600D02*
X94893900Y-77419600D01*
%TO.N,/F040_A14*%
X98730800Y-77643100D02*
X98730800Y-77704100D01*
X98730800Y-77704100D02*
X82340800Y-94094100D01*
X82340800Y-94094100D02*
X81028200Y-94094100D01*
%TO.N,/~F_CE_040*%
X103573200Y-77476200D02*
X102777400Y-76680400D01*
X102777400Y-76680400D02*
X93287700Y-76680400D01*
X93287700Y-76680400D02*
X77254200Y-92713900D01*
X77254200Y-92713900D02*
X74308700Y-92713900D01*
%TO.N,/F040_A15*%
X94909700Y-82667700D02*
X82081400Y-95496000D01*
X82081400Y-95496000D02*
X77998600Y-95496000D01*
%TO.N,/F040_A16*%
X78743000Y-94515400D02*
X91681100Y-81577300D01*
X91681100Y-81577300D02*
X93810500Y-81577300D01*
%TO.N,/F040_A18*%
X73509400Y-94920000D02*
X77309800Y-94920000D01*
X77309800Y-94920000D02*
X91584800Y-80645000D01*
X91584800Y-80645000D02*
X94764100Y-80645000D01*
%TD*%
D20*
%TO.N,GND*%
X115415001Y-143815000D02*
X115333647Y-143815000D01*
X115300000Y-143811686D01*
X115266353Y-143815000D01*
X115165717Y-143824912D01*
X115036594Y-143864081D01*
X114917593Y-143927688D01*
X114813289Y-144013289D01*
X114727688Y-144117593D01*
X114664081Y-144236594D01*
X114624912Y-144365717D01*
X114611686Y-144500000D01*
X114615001Y-144533657D01*
X114615000Y-146215000D01*
X114233647Y-146215000D01*
X114200000Y-146211686D01*
X114166353Y-146215000D01*
X114065717Y-146224912D01*
X113936594Y-146264081D01*
X113817593Y-146327688D01*
X113713289Y-146413289D01*
X113627688Y-146517593D01*
X113564081Y-146636594D01*
X113524912Y-146765717D01*
X113511686Y-146900000D01*
X113515001Y-146933657D01*
X113515001Y-147637500D01*
X65685000Y-147637500D01*
X65685000Y-146933646D01*
X65688314Y-146900000D01*
X65675088Y-146765717D01*
X65635919Y-146636594D01*
X65572312Y-146517593D01*
X65486711Y-146413289D01*
X65382407Y-146327688D01*
X65263406Y-146264081D01*
X65134283Y-146224912D01*
X65033647Y-146215000D01*
X65000000Y-146211686D01*
X64966353Y-146215000D01*
X64585000Y-146215000D01*
X64585000Y-144533646D01*
X64588314Y-144500000D01*
X64575088Y-144365717D01*
X64535919Y-144236594D01*
X64472312Y-144117593D01*
X64386711Y-144013289D01*
X64282407Y-143927688D01*
X64163406Y-143864081D01*
X64034283Y-143824912D01*
X63933647Y-143815000D01*
X63900000Y-143811686D01*
X63866353Y-143815000D01*
X63785000Y-143815000D01*
X63785000Y-138978685D01*
X63851583Y-139059817D01*
X63885356Y-139087534D01*
X66843465Y-142045644D01*
X66854774Y-142102498D01*
X66932795Y-142290856D01*
X67046063Y-142460374D01*
X67190226Y-142604537D01*
X67359744Y-142717805D01*
X67548102Y-142795826D01*
X67748061Y-142835600D01*
X67951939Y-142835600D01*
X68151898Y-142795826D01*
X68340256Y-142717805D01*
X68509774Y-142604537D01*
X68653937Y-142460374D01*
X68767205Y-142290856D01*
X68845226Y-142102498D01*
X68885000Y-141902539D01*
X68885000Y-141698661D01*
X68845226Y-141498702D01*
X68767205Y-141310344D01*
X68653937Y-141140826D01*
X68509774Y-140996663D01*
X68340256Y-140883395D01*
X68151898Y-140805374D01*
X68095044Y-140794065D01*
X65365400Y-138064422D01*
X65365400Y-137847226D01*
X65403359Y-137926920D01*
X65577412Y-138160269D01*
X65793645Y-138355178D01*
X66043748Y-138504157D01*
X66318109Y-138601481D01*
X66548000Y-138480814D01*
X66548000Y-137287000D01*
X66528000Y-137287000D01*
X66528000Y-137033000D01*
X66548000Y-137033000D01*
X66548000Y-137013000D01*
X66802000Y-137013000D01*
X66802000Y-137033000D01*
X66822000Y-137033000D01*
X66822000Y-137287000D01*
X66802000Y-137287000D01*
X66802000Y-138480814D01*
X67031891Y-138601481D01*
X67306252Y-138504157D01*
X67556355Y-138355178D01*
X67752502Y-138178374D01*
X67775498Y-138254180D01*
X67834463Y-138364494D01*
X67913815Y-138461185D01*
X68010506Y-138540537D01*
X68120820Y-138599502D01*
X68240518Y-138635812D01*
X68365000Y-138648072D01*
X69314327Y-138648072D01*
X69310199Y-138652200D01*
X69248061Y-138652200D01*
X69048102Y-138691974D01*
X68859744Y-138769995D01*
X68690226Y-138883263D01*
X68546063Y-139027426D01*
X68432795Y-139196944D01*
X68354774Y-139385302D01*
X68315000Y-139585261D01*
X68315000Y-139789139D01*
X68354774Y-139989098D01*
X68432795Y-140177456D01*
X68546063Y-140346974D01*
X68690226Y-140491137D01*
X68859744Y-140604405D01*
X69048102Y-140682426D01*
X69248061Y-140722200D01*
X69451939Y-140722200D01*
X69651898Y-140682426D01*
X69840256Y-140604405D01*
X70009774Y-140491137D01*
X70153937Y-140346974D01*
X70169328Y-140323939D01*
X70190226Y-140344837D01*
X70359744Y-140458105D01*
X70548102Y-140536126D01*
X70748061Y-140575900D01*
X70951939Y-140575900D01*
X71151898Y-140536126D01*
X71340256Y-140458105D01*
X71509774Y-140344837D01*
X71653937Y-140200674D01*
X71767205Y-140031156D01*
X71845226Y-139842798D01*
X71885000Y-139642839D01*
X71885000Y-139580701D01*
X76834300Y-134631402D01*
X76834300Y-139298378D01*
X76830624Y-139335700D01*
X76834300Y-139373022D01*
X76834300Y-139373032D01*
X76845297Y-139484685D01*
X76870631Y-139568201D01*
X76888754Y-139627946D01*
X76959326Y-139759976D01*
X76982489Y-139788200D01*
X77054299Y-139875701D01*
X77083302Y-139899503D01*
X77468700Y-140284902D01*
X77492499Y-140313901D01*
X77608224Y-140408874D01*
X77740253Y-140479446D01*
X77883514Y-140522903D01*
X77995167Y-140533900D01*
X77995176Y-140533900D01*
X78032499Y-140537576D01*
X78069822Y-140533900D01*
X82966678Y-140533900D01*
X83004000Y-140537576D01*
X83041322Y-140533900D01*
X83041333Y-140533900D01*
X83152986Y-140522903D01*
X83296247Y-140479446D01*
X83428276Y-140408874D01*
X83544001Y-140313901D01*
X83567804Y-140284897D01*
X85676944Y-138175757D01*
X85480372Y-138650324D01*
X85315730Y-139478036D01*
X85315730Y-140321964D01*
X85480372Y-141149676D01*
X85803329Y-141929363D01*
X86272190Y-142631063D01*
X86868937Y-143227810D01*
X87570637Y-143696671D01*
X88350324Y-144019628D01*
X89178036Y-144184270D01*
X90021964Y-144184270D01*
X90849676Y-144019628D01*
X91629363Y-143696671D01*
X92331063Y-143227810D01*
X92927810Y-142631063D01*
X93396671Y-141929363D01*
X93719628Y-141149676D01*
X93884270Y-140321964D01*
X93884270Y-139478036D01*
X93719628Y-138650324D01*
X93396671Y-137870637D01*
X92927810Y-137168937D01*
X92331063Y-136572190D01*
X91629363Y-136103329D01*
X90849676Y-135780372D01*
X90021964Y-135615730D01*
X89178036Y-135615730D01*
X88350324Y-135780372D01*
X87875757Y-135976944D01*
X95433502Y-128419200D01*
X97677078Y-128419200D01*
X97714400Y-128422876D01*
X97751722Y-128419200D01*
X97751733Y-128419200D01*
X97863386Y-128408203D01*
X98006647Y-128364746D01*
X98138676Y-128294174D01*
X98254401Y-128199201D01*
X98278204Y-128170197D01*
X112199501Y-114248901D01*
X112199500Y-140843631D01*
X111193225Y-141849907D01*
X111048102Y-141878774D01*
X110859744Y-141956795D01*
X110690226Y-142070063D01*
X110546063Y-142214226D01*
X110432795Y-142383744D01*
X110354774Y-142572102D01*
X110315000Y-142772061D01*
X110315000Y-142975939D01*
X110354774Y-143175898D01*
X110432795Y-143364256D01*
X110546063Y-143533774D01*
X110690226Y-143677937D01*
X110859744Y-143791205D01*
X111048102Y-143869226D01*
X111248061Y-143909000D01*
X111451939Y-143909000D01*
X111651898Y-143869226D01*
X111840256Y-143791205D01*
X112009774Y-143677937D01*
X112153937Y-143533774D01*
X112267205Y-143364256D01*
X112345226Y-143175898D01*
X112374093Y-143030775D01*
X113595933Y-141808936D01*
X113627791Y-141782791D01*
X113655313Y-141749256D01*
X113732136Y-141655646D01*
X113809672Y-141510587D01*
X113813277Y-141498702D01*
X113857418Y-141353189D01*
X113869500Y-141230519D01*
X113869500Y-141230518D01*
X113873540Y-141189500D01*
X113869500Y-141148482D01*
X113869500Y-99240918D01*
X113873540Y-99199900D01*
X113865818Y-99121495D01*
X113857418Y-99036211D01*
X113809672Y-98878813D01*
X113732136Y-98733754D01*
X113627791Y-98606609D01*
X113595932Y-98580463D01*
X112300468Y-97285000D01*
X115415000Y-97285000D01*
X115415001Y-143815000D01*
%TA.AperFunction,Conductor*%
D21*
G36*
X115415001Y-143815000D02*
G01*
X115333647Y-143815000D01*
X115300000Y-143811686D01*
X115266353Y-143815000D01*
X115165717Y-143824912D01*
X115036594Y-143864081D01*
X114917593Y-143927688D01*
X114813289Y-144013289D01*
X114727688Y-144117593D01*
X114664081Y-144236594D01*
X114624912Y-144365717D01*
X114611686Y-144500000D01*
X114615001Y-144533657D01*
X114615000Y-146215000D01*
X114233647Y-146215000D01*
X114200000Y-146211686D01*
X114166353Y-146215000D01*
X114065717Y-146224912D01*
X113936594Y-146264081D01*
X113817593Y-146327688D01*
X113713289Y-146413289D01*
X113627688Y-146517593D01*
X113564081Y-146636594D01*
X113524912Y-146765717D01*
X113511686Y-146900000D01*
X113515001Y-146933657D01*
X113515001Y-147637500D01*
X65685000Y-147637500D01*
X65685000Y-146933646D01*
X65688314Y-146900000D01*
X65675088Y-146765717D01*
X65635919Y-146636594D01*
X65572312Y-146517593D01*
X65486711Y-146413289D01*
X65382407Y-146327688D01*
X65263406Y-146264081D01*
X65134283Y-146224912D01*
X65033647Y-146215000D01*
X65000000Y-146211686D01*
X64966353Y-146215000D01*
X64585000Y-146215000D01*
X64585000Y-144533646D01*
X64588314Y-144500000D01*
X64575088Y-144365717D01*
X64535919Y-144236594D01*
X64472312Y-144117593D01*
X64386711Y-144013289D01*
X64282407Y-143927688D01*
X64163406Y-143864081D01*
X64034283Y-143824912D01*
X63933647Y-143815000D01*
X63900000Y-143811686D01*
X63866353Y-143815000D01*
X63785000Y-143815000D01*
X63785000Y-138978685D01*
X63851583Y-139059817D01*
X63885356Y-139087534D01*
X66843465Y-142045644D01*
X66854774Y-142102498D01*
X66932795Y-142290856D01*
X67046063Y-142460374D01*
X67190226Y-142604537D01*
X67359744Y-142717805D01*
X67548102Y-142795826D01*
X67748061Y-142835600D01*
X67951939Y-142835600D01*
X68151898Y-142795826D01*
X68340256Y-142717805D01*
X68509774Y-142604537D01*
X68653937Y-142460374D01*
X68767205Y-142290856D01*
X68845226Y-142102498D01*
X68885000Y-141902539D01*
X68885000Y-141698661D01*
X68845226Y-141498702D01*
X68767205Y-141310344D01*
X68653937Y-141140826D01*
X68509774Y-140996663D01*
X68340256Y-140883395D01*
X68151898Y-140805374D01*
X68095044Y-140794065D01*
X65365400Y-138064422D01*
X65365400Y-137847226D01*
X65403359Y-137926920D01*
X65577412Y-138160269D01*
X65793645Y-138355178D01*
X66043748Y-138504157D01*
X66318109Y-138601481D01*
X66548000Y-138480814D01*
X66548000Y-137287000D01*
X66528000Y-137287000D01*
X66528000Y-137033000D01*
X66548000Y-137033000D01*
X66548000Y-137013000D01*
X66802000Y-137013000D01*
X66802000Y-137033000D01*
X66822000Y-137033000D01*
X66822000Y-137287000D01*
X66802000Y-137287000D01*
X66802000Y-138480814D01*
X67031891Y-138601481D01*
X67306252Y-138504157D01*
X67556355Y-138355178D01*
X67752502Y-138178374D01*
X67775498Y-138254180D01*
X67834463Y-138364494D01*
X67913815Y-138461185D01*
X68010506Y-138540537D01*
X68120820Y-138599502D01*
X68240518Y-138635812D01*
X68365000Y-138648072D01*
X69314327Y-138648072D01*
X69310199Y-138652200D01*
X69248061Y-138652200D01*
X69048102Y-138691974D01*
X68859744Y-138769995D01*
X68690226Y-138883263D01*
X68546063Y-139027426D01*
X68432795Y-139196944D01*
X68354774Y-139385302D01*
X68315000Y-139585261D01*
X68315000Y-139789139D01*
X68354774Y-139989098D01*
X68432795Y-140177456D01*
X68546063Y-140346974D01*
X68690226Y-140491137D01*
X68859744Y-140604405D01*
X69048102Y-140682426D01*
X69248061Y-140722200D01*
X69451939Y-140722200D01*
X69651898Y-140682426D01*
X69840256Y-140604405D01*
X70009774Y-140491137D01*
X70153937Y-140346974D01*
X70169328Y-140323939D01*
X70190226Y-140344837D01*
X70359744Y-140458105D01*
X70548102Y-140536126D01*
X70748061Y-140575900D01*
X70951939Y-140575900D01*
X71151898Y-140536126D01*
X71340256Y-140458105D01*
X71509774Y-140344837D01*
X71653937Y-140200674D01*
X71767205Y-140031156D01*
X71845226Y-139842798D01*
X71885000Y-139642839D01*
X71885000Y-139580701D01*
X76834300Y-134631402D01*
X76834300Y-139298378D01*
X76830624Y-139335700D01*
X76834300Y-139373022D01*
X76834300Y-139373032D01*
X76845297Y-139484685D01*
X76870631Y-139568201D01*
X76888754Y-139627946D01*
X76959326Y-139759976D01*
X76982489Y-139788200D01*
X77054299Y-139875701D01*
X77083302Y-139899503D01*
X77468700Y-140284902D01*
X77492499Y-140313901D01*
X77608224Y-140408874D01*
X77740253Y-140479446D01*
X77883514Y-140522903D01*
X77995167Y-140533900D01*
X77995176Y-140533900D01*
X78032499Y-140537576D01*
X78069822Y-140533900D01*
X82966678Y-140533900D01*
X83004000Y-140537576D01*
X83041322Y-140533900D01*
X83041333Y-140533900D01*
X83152986Y-140522903D01*
X83296247Y-140479446D01*
X83428276Y-140408874D01*
X83544001Y-140313901D01*
X83567804Y-140284897D01*
X85676944Y-138175757D01*
X85480372Y-138650324D01*
X85315730Y-139478036D01*
X85315730Y-140321964D01*
X85480372Y-141149676D01*
X85803329Y-141929363D01*
X86272190Y-142631063D01*
X86868937Y-143227810D01*
X87570637Y-143696671D01*
X88350324Y-144019628D01*
X89178036Y-144184270D01*
X90021964Y-144184270D01*
X90849676Y-144019628D01*
X91629363Y-143696671D01*
X92331063Y-143227810D01*
X92927810Y-142631063D01*
X93396671Y-141929363D01*
X93719628Y-141149676D01*
X93884270Y-140321964D01*
X93884270Y-139478036D01*
X93719628Y-138650324D01*
X93396671Y-137870637D01*
X92927810Y-137168937D01*
X92331063Y-136572190D01*
X91629363Y-136103329D01*
X90849676Y-135780372D01*
X90021964Y-135615730D01*
X89178036Y-135615730D01*
X88350324Y-135780372D01*
X87875757Y-135976944D01*
X95433502Y-128419200D01*
X97677078Y-128419200D01*
X97714400Y-128422876D01*
X97751722Y-128419200D01*
X97751733Y-128419200D01*
X97863386Y-128408203D01*
X98006647Y-128364746D01*
X98138676Y-128294174D01*
X98254401Y-128199201D01*
X98278204Y-128170197D01*
X112199501Y-114248901D01*
X112199500Y-140843631D01*
X111193225Y-141849907D01*
X111048102Y-141878774D01*
X110859744Y-141956795D01*
X110690226Y-142070063D01*
X110546063Y-142214226D01*
X110432795Y-142383744D01*
X110354774Y-142572102D01*
X110315000Y-142772061D01*
X110315000Y-142975939D01*
X110354774Y-143175898D01*
X110432795Y-143364256D01*
X110546063Y-143533774D01*
X110690226Y-143677937D01*
X110859744Y-143791205D01*
X111048102Y-143869226D01*
X111248061Y-143909000D01*
X111451939Y-143909000D01*
X111651898Y-143869226D01*
X111840256Y-143791205D01*
X112009774Y-143677937D01*
X112153937Y-143533774D01*
X112267205Y-143364256D01*
X112345226Y-143175898D01*
X112374093Y-143030775D01*
X113595933Y-141808936D01*
X113627791Y-141782791D01*
X113655313Y-141749256D01*
X113732136Y-141655646D01*
X113809672Y-141510587D01*
X113813277Y-141498702D01*
X113857418Y-141353189D01*
X113869500Y-141230519D01*
X113869500Y-141230518D01*
X113873540Y-141189500D01*
X113869500Y-141148482D01*
X113869500Y-99240918D01*
X113873540Y-99199900D01*
X113865818Y-99121495D01*
X113857418Y-99036211D01*
X113809672Y-98878813D01*
X113732136Y-98733754D01*
X113627791Y-98606609D01*
X113595932Y-98580463D01*
X112300468Y-97285000D01*
X115415000Y-97285000D01*
X115415001Y-143815000D01*
G37*
%TD.AperFunction*%
D20*
X65521525Y-135566632D02*
X65728368Y-135773475D01*
X65910534Y-135895195D01*
X65793645Y-135964822D01*
X65577412Y-136159731D01*
X65403359Y-136393080D01*
X65365400Y-136472774D01*
X65365400Y-135332974D01*
X65521525Y-135566632D01*
%TA.AperFunction,Conductor*%
D21*
G36*
X65521525Y-135566632D02*
G01*
X65728368Y-135773475D01*
X65910534Y-135895195D01*
X65793645Y-135964822D01*
X65577412Y-136159731D01*
X65403359Y-136393080D01*
X65365400Y-136472774D01*
X65365400Y-135332974D01*
X65521525Y-135566632D01*
G37*
%TD.AperFunction*%
D20*
X65403359Y-127766920D02*
X65577412Y-128000269D01*
X65793645Y-128195178D01*
X65910534Y-128264805D01*
X65728368Y-128386525D01*
X65521525Y-128593368D01*
X65365400Y-128827026D01*
X65365400Y-127687226D01*
X65403359Y-127766920D01*
%TA.AperFunction,Conductor*%
D21*
G36*
X65403359Y-127766920D02*
G01*
X65577412Y-128000269D01*
X65793645Y-128195178D01*
X65910534Y-128264805D01*
X65728368Y-128386525D01*
X65521525Y-128593368D01*
X65365400Y-128827026D01*
X65365400Y-127687226D01*
X65403359Y-127766920D01*
G37*
%TD.AperFunction*%
D20*
X71412500Y-113826978D02*
X71408824Y-113864300D01*
X71412500Y-113901622D01*
X71412500Y-113901632D01*
X71423497Y-114013285D01*
X71462404Y-114141547D01*
X71466954Y-114156546D01*
X71537526Y-114288576D01*
X71551355Y-114305426D01*
X71632499Y-114404301D01*
X71661503Y-114428104D01*
X75390789Y-118157391D01*
X75211902Y-118192974D01*
X75023544Y-118270995D01*
X74854026Y-118384263D01*
X74709863Y-118528426D01*
X74596595Y-118697944D01*
X74518574Y-118886302D01*
X74478800Y-119086261D01*
X74478800Y-119290139D01*
X74518574Y-119490098D01*
X74596595Y-119678456D01*
X74709863Y-119847974D01*
X74854026Y-119992137D01*
X75023544Y-120105405D01*
X75052001Y-120117192D01*
X75052000Y-120494898D01*
X69879298Y-125667601D01*
X69879130Y-125667739D01*
X69648158Y-125572068D01*
X69361260Y-125515000D01*
X69068740Y-125515000D01*
X68781842Y-125572068D01*
X68511589Y-125684010D01*
X68268368Y-125846525D01*
X68061525Y-126053368D01*
X67943900Y-126229406D01*
X67772588Y-125999731D01*
X67556355Y-125804822D01*
X67306252Y-125655843D01*
X67031891Y-125558519D01*
X66802000Y-125679186D01*
X66802000Y-126873000D01*
X66822000Y-126873000D01*
X66822000Y-127127000D01*
X66802000Y-127127000D01*
X66802000Y-127147000D01*
X66548000Y-127147000D01*
X66548000Y-127127000D01*
X66528000Y-127127000D01*
X66528000Y-126873000D01*
X66548000Y-126873000D01*
X66548000Y-125679186D01*
X66318109Y-125558519D01*
X66043748Y-125655843D01*
X65793645Y-125804822D01*
X65577412Y-125999731D01*
X65403359Y-126233080D01*
X65365400Y-126312774D01*
X65365400Y-121551178D01*
X68534550Y-118382029D01*
X68568317Y-118354317D01*
X68678911Y-118219559D01*
X68761089Y-118065813D01*
X68811695Y-117898990D01*
X68824500Y-117768977D01*
X68824500Y-117768967D01*
X68828781Y-117725501D01*
X68824500Y-117682035D01*
X68824500Y-114953201D01*
X69640500Y-115769202D01*
X69640500Y-115831339D01*
X69680274Y-116031298D01*
X69758295Y-116219656D01*
X69871563Y-116389174D01*
X70015726Y-116533337D01*
X70185244Y-116646605D01*
X70373602Y-116724626D01*
X70573561Y-116764400D01*
X70777439Y-116764400D01*
X70977398Y-116724626D01*
X71165756Y-116646605D01*
X71335274Y-116533337D01*
X71479437Y-116389174D01*
X71592705Y-116219656D01*
X71670726Y-116031298D01*
X71710500Y-115831339D01*
X71710500Y-115627461D01*
X71670726Y-115427502D01*
X71592705Y-115239144D01*
X71479437Y-115069626D01*
X71335274Y-114925463D01*
X71165756Y-114812195D01*
X70977398Y-114734174D01*
X70777439Y-114694400D01*
X70715302Y-114694400D01*
X69968800Y-113947899D01*
X69968800Y-112471800D01*
X70114539Y-112471800D01*
X70314498Y-112432026D01*
X70502856Y-112354005D01*
X70672374Y-112240737D01*
X70816537Y-112096574D01*
X70929805Y-111927056D01*
X71007826Y-111738698D01*
X71047600Y-111538739D01*
X71047600Y-111334861D01*
X71007826Y-111134902D01*
X70929805Y-110946544D01*
X70915824Y-110925619D01*
X70925756Y-110921505D01*
X71095274Y-110808237D01*
X71239437Y-110664074D01*
X71352705Y-110494556D01*
X71412500Y-110350199D01*
X71412500Y-113826978D01*
%TA.AperFunction,Conductor*%
D21*
G36*
X71412500Y-113826978D02*
G01*
X71408824Y-113864300D01*
X71412500Y-113901622D01*
X71412500Y-113901632D01*
X71423497Y-114013285D01*
X71462404Y-114141547D01*
X71466954Y-114156546D01*
X71537526Y-114288576D01*
X71551355Y-114305426D01*
X71632499Y-114404301D01*
X71661503Y-114428104D01*
X75390789Y-118157391D01*
X75211902Y-118192974D01*
X75023544Y-118270995D01*
X74854026Y-118384263D01*
X74709863Y-118528426D01*
X74596595Y-118697944D01*
X74518574Y-118886302D01*
X74478800Y-119086261D01*
X74478800Y-119290139D01*
X74518574Y-119490098D01*
X74596595Y-119678456D01*
X74709863Y-119847974D01*
X74854026Y-119992137D01*
X75023544Y-120105405D01*
X75052001Y-120117192D01*
X75052000Y-120494898D01*
X69879298Y-125667601D01*
X69879130Y-125667739D01*
X69648158Y-125572068D01*
X69361260Y-125515000D01*
X69068740Y-125515000D01*
X68781842Y-125572068D01*
X68511589Y-125684010D01*
X68268368Y-125846525D01*
X68061525Y-126053368D01*
X67943900Y-126229406D01*
X67772588Y-125999731D01*
X67556355Y-125804822D01*
X67306252Y-125655843D01*
X67031891Y-125558519D01*
X66802000Y-125679186D01*
X66802000Y-126873000D01*
X66822000Y-126873000D01*
X66822000Y-127127000D01*
X66802000Y-127127000D01*
X66802000Y-127147000D01*
X66548000Y-127147000D01*
X66548000Y-127127000D01*
X66528000Y-127127000D01*
X66528000Y-126873000D01*
X66548000Y-126873000D01*
X66548000Y-125679186D01*
X66318109Y-125558519D01*
X66043748Y-125655843D01*
X65793645Y-125804822D01*
X65577412Y-125999731D01*
X65403359Y-126233080D01*
X65365400Y-126312774D01*
X65365400Y-121551178D01*
X68534550Y-118382029D01*
X68568317Y-118354317D01*
X68678911Y-118219559D01*
X68761089Y-118065813D01*
X68811695Y-117898990D01*
X68824500Y-117768977D01*
X68824500Y-117768967D01*
X68828781Y-117725501D01*
X68824500Y-117682035D01*
X68824500Y-114953201D01*
X69640500Y-115769202D01*
X69640500Y-115831339D01*
X69680274Y-116031298D01*
X69758295Y-116219656D01*
X69871563Y-116389174D01*
X70015726Y-116533337D01*
X70185244Y-116646605D01*
X70373602Y-116724626D01*
X70573561Y-116764400D01*
X70777439Y-116764400D01*
X70977398Y-116724626D01*
X71165756Y-116646605D01*
X71335274Y-116533337D01*
X71479437Y-116389174D01*
X71592705Y-116219656D01*
X71670726Y-116031298D01*
X71710500Y-115831339D01*
X71710500Y-115627461D01*
X71670726Y-115427502D01*
X71592705Y-115239144D01*
X71479437Y-115069626D01*
X71335274Y-114925463D01*
X71165756Y-114812195D01*
X70977398Y-114734174D01*
X70777439Y-114694400D01*
X70715302Y-114694400D01*
X69968800Y-113947899D01*
X69968800Y-112471800D01*
X70114539Y-112471800D01*
X70314498Y-112432026D01*
X70502856Y-112354005D01*
X70672374Y-112240737D01*
X70816537Y-112096574D01*
X70929805Y-111927056D01*
X71007826Y-111738698D01*
X71047600Y-111538739D01*
X71047600Y-111334861D01*
X71007826Y-111134902D01*
X70929805Y-110946544D01*
X70915824Y-110925619D01*
X70925756Y-110921505D01*
X71095274Y-110808237D01*
X71239437Y-110664074D01*
X71352705Y-110494556D01*
X71412500Y-110350199D01*
X71412500Y-113826978D01*
G37*
%TD.AperFunction*%
D20*
X67054501Y-86039200D02*
X67048603Y-86022708D01*
X66981671Y-85897486D01*
X66737702Y-85825903D01*
X65924605Y-86639000D01*
X66737702Y-87452097D01*
X66981671Y-87380514D01*
X67054501Y-87226596D01*
X67054500Y-117358921D01*
X63885351Y-120528071D01*
X63851584Y-120555783D01*
X63823871Y-120589551D01*
X63823868Y-120589554D01*
X63785000Y-120636915D01*
X63785000Y-91633646D01*
X63788314Y-91600000D01*
X63775088Y-91465717D01*
X63735919Y-91336594D01*
X63672312Y-91217593D01*
X63586711Y-91113289D01*
X63482407Y-91027688D01*
X63363406Y-90964081D01*
X63234283Y-90924912D01*
X63133647Y-90915000D01*
X63100000Y-90911686D01*
X63066353Y-90915000D01*
X62535000Y-90915000D01*
X62535000Y-85787207D01*
X62680363Y-86004759D01*
X62880241Y-86204637D01*
X62984074Y-86274015D01*
X62973163Y-86284926D01*
X62859895Y-86454444D01*
X62781874Y-86642802D01*
X62742100Y-86842761D01*
X62742100Y-87046639D01*
X62781874Y-87246598D01*
X62859895Y-87434956D01*
X62973163Y-87604474D01*
X63117326Y-87748637D01*
X63286844Y-87861905D01*
X63475202Y-87939926D01*
X63675161Y-87979700D01*
X63879039Y-87979700D01*
X64078998Y-87939926D01*
X64267356Y-87861905D01*
X64436874Y-87748637D01*
X64553809Y-87631702D01*
X64931903Y-87631702D01*
X65003486Y-87875671D01*
X65258996Y-87996571D01*
X65533184Y-88065300D01*
X65815512Y-88079217D01*
X66095130Y-88037787D01*
X66361292Y-87942603D01*
X66486514Y-87875671D01*
X66558097Y-87631702D01*
X65745000Y-86818605D01*
X64931903Y-87631702D01*
X64553809Y-87631702D01*
X64581037Y-87604474D01*
X64694235Y-87435061D01*
X64752298Y-87452097D01*
X65565395Y-86639000D01*
X65551253Y-86624858D01*
X65730858Y-86445253D01*
X65745000Y-86459395D01*
X66558097Y-85646298D01*
X66486514Y-85402329D01*
X66400946Y-85361841D01*
X66450546Y-85269047D01*
X66494003Y-85125786D01*
X66505000Y-85014133D01*
X66505000Y-85014123D01*
X66508676Y-84976800D01*
X66505000Y-84939477D01*
X66505000Y-84759043D01*
X66659759Y-84655637D01*
X66859637Y-84455759D01*
X67016680Y-84220727D01*
X67054501Y-84129420D01*
X67054501Y-86039200D01*
%TA.AperFunction,Conductor*%
D21*
G36*
X67054501Y-86039200D02*
G01*
X67048603Y-86022708D01*
X66981671Y-85897486D01*
X66737702Y-85825903D01*
X65924605Y-86639000D01*
X66737702Y-87452097D01*
X66981671Y-87380514D01*
X67054501Y-87226596D01*
X67054500Y-117358921D01*
X63885351Y-120528071D01*
X63851584Y-120555783D01*
X63823871Y-120589551D01*
X63823868Y-120589554D01*
X63785000Y-120636915D01*
X63785000Y-91633646D01*
X63788314Y-91600000D01*
X63775088Y-91465717D01*
X63735919Y-91336594D01*
X63672312Y-91217593D01*
X63586711Y-91113289D01*
X63482407Y-91027688D01*
X63363406Y-90964081D01*
X63234283Y-90924912D01*
X63133647Y-90915000D01*
X63100000Y-90911686D01*
X63066353Y-90915000D01*
X62535000Y-90915000D01*
X62535000Y-85787207D01*
X62680363Y-86004759D01*
X62880241Y-86204637D01*
X62984074Y-86274015D01*
X62973163Y-86284926D01*
X62859895Y-86454444D01*
X62781874Y-86642802D01*
X62742100Y-86842761D01*
X62742100Y-87046639D01*
X62781874Y-87246598D01*
X62859895Y-87434956D01*
X62973163Y-87604474D01*
X63117326Y-87748637D01*
X63286844Y-87861905D01*
X63475202Y-87939926D01*
X63675161Y-87979700D01*
X63879039Y-87979700D01*
X64078998Y-87939926D01*
X64267356Y-87861905D01*
X64436874Y-87748637D01*
X64553809Y-87631702D01*
X64931903Y-87631702D01*
X65003486Y-87875671D01*
X65258996Y-87996571D01*
X65533184Y-88065300D01*
X65815512Y-88079217D01*
X66095130Y-88037787D01*
X66361292Y-87942603D01*
X66486514Y-87875671D01*
X66558097Y-87631702D01*
X65745000Y-86818605D01*
X64931903Y-87631702D01*
X64553809Y-87631702D01*
X64581037Y-87604474D01*
X64694235Y-87435061D01*
X64752298Y-87452097D01*
X65565395Y-86639000D01*
X65551253Y-86624858D01*
X65730858Y-86445253D01*
X65745000Y-86459395D01*
X66558097Y-85646298D01*
X66486514Y-85402329D01*
X66400946Y-85361841D01*
X66450546Y-85269047D01*
X66494003Y-85125786D01*
X66505000Y-85014133D01*
X66505000Y-85014123D01*
X66508676Y-84976800D01*
X66505000Y-84939477D01*
X66505000Y-84759043D01*
X66659759Y-84655637D01*
X66859637Y-84455759D01*
X67016680Y-84220727D01*
X67054501Y-84129420D01*
X67054501Y-86039200D01*
G37*
%TD.AperFunction*%
D20*
X116665001Y-90915000D02*
X111439600Y-90915000D01*
X111439600Y-90690367D01*
X111751127Y-90378841D01*
X111782991Y-90352691D01*
X111887336Y-90225546D01*
X111964872Y-90080487D01*
X112012618Y-89923089D01*
X112024700Y-89800419D01*
X112024700Y-89800409D01*
X112028739Y-89759401D01*
X112024700Y-89718393D01*
X112024700Y-82309811D01*
X112125426Y-82410537D01*
X112294944Y-82523805D01*
X112483302Y-82601826D01*
X112683261Y-82641600D01*
X112887139Y-82641600D01*
X113087098Y-82601826D01*
X113275456Y-82523805D01*
X113444974Y-82410537D01*
X113589137Y-82266374D01*
X113702405Y-82096856D01*
X113780426Y-81908498D01*
X113820200Y-81708539D01*
X113820200Y-81504661D01*
X113780426Y-81304702D01*
X113702405Y-81116344D01*
X113589137Y-80946826D01*
X113545200Y-80902889D01*
X113545200Y-75878222D01*
X113548876Y-75840900D01*
X113545200Y-75803577D01*
X113545200Y-75803567D01*
X113534203Y-75691914D01*
X113490746Y-75548653D01*
X113487670Y-75542899D01*
X113420174Y-75416623D01*
X113348999Y-75329897D01*
X113325201Y-75300899D01*
X113296203Y-75277101D01*
X111295500Y-73276399D01*
X111295500Y-73214261D01*
X111255726Y-73014302D01*
X111177705Y-72825944D01*
X111064437Y-72656426D01*
X110920274Y-72512263D01*
X110750756Y-72398995D01*
X110562398Y-72320974D01*
X110362439Y-72281200D01*
X110268000Y-72281200D01*
X110268000Y-71518622D01*
X110271676Y-71481299D01*
X110268000Y-71443976D01*
X110268000Y-71443967D01*
X110257003Y-71332314D01*
X110213546Y-71189053D01*
X110142974Y-71057024D01*
X110048001Y-70941299D01*
X110019004Y-70917502D01*
X108664700Y-69563199D01*
X108664700Y-69501061D01*
X108624926Y-69301102D01*
X108546905Y-69112744D01*
X108433637Y-68943226D01*
X108289474Y-68799063D01*
X108119956Y-68685795D01*
X107931598Y-68607774D01*
X107731639Y-68568000D01*
X107527761Y-68568000D01*
X107327802Y-68607774D01*
X107139444Y-68685795D01*
X106969926Y-68799063D01*
X106825763Y-68943226D01*
X106712495Y-69112744D01*
X106634474Y-69301102D01*
X106594700Y-69501061D01*
X106594700Y-69704939D01*
X106634474Y-69904898D01*
X106680136Y-70015134D01*
X105194100Y-68529099D01*
X105194100Y-68466961D01*
X105154326Y-68267002D01*
X105076305Y-68078644D01*
X104963037Y-67909126D01*
X104818874Y-67764963D01*
X104649356Y-67651695D01*
X104460998Y-67573674D01*
X104261039Y-67533900D01*
X104057161Y-67533900D01*
X103857202Y-67573674D01*
X103668844Y-67651695D01*
X103541774Y-67736600D01*
X103413956Y-67651195D01*
X103225598Y-67573174D01*
X103025639Y-67533400D01*
X102821761Y-67533400D01*
X102621802Y-67573174D01*
X102433444Y-67651195D01*
X102263926Y-67764463D01*
X102119763Y-67908626D01*
X102097799Y-67941497D01*
X96328100Y-62171799D01*
X96328100Y-59770111D01*
X96372037Y-59726174D01*
X96485305Y-59556656D01*
X96563326Y-59368298D01*
X96603100Y-59168339D01*
X96603100Y-58964461D01*
X96563326Y-58764502D01*
X96485305Y-58576144D01*
X96372037Y-58406626D01*
X96227874Y-58262463D01*
X96058356Y-58149195D01*
X95869998Y-58071174D01*
X95670039Y-58031400D01*
X95466161Y-58031400D01*
X95266202Y-58071174D01*
X95077844Y-58149195D01*
X94908326Y-58262463D01*
X94764163Y-58406626D01*
X94650895Y-58576144D01*
X94572874Y-58764502D01*
X94533100Y-58964461D01*
X94533100Y-59168339D01*
X94572874Y-59368298D01*
X94650895Y-59556656D01*
X94764163Y-59726174D01*
X94808100Y-59770111D01*
X94808101Y-62449268D01*
X94804424Y-62486600D01*
X94819098Y-62635585D01*
X94862554Y-62778846D01*
X94933126Y-62910876D01*
X95004301Y-62997602D01*
X95028100Y-63026601D01*
X95057098Y-63050399D01*
X99079398Y-67072700D01*
X91658523Y-67072700D01*
X91621200Y-67069024D01*
X91583877Y-67072700D01*
X91583867Y-67072700D01*
X91472214Y-67083697D01*
X91328953Y-67127154D01*
X91196924Y-67197726D01*
X91081199Y-67292699D01*
X91057401Y-67321698D01*
X90860898Y-67518200D01*
X90798761Y-67518200D01*
X90598802Y-67557974D01*
X90410444Y-67635995D01*
X90240926Y-67749263D01*
X90096763Y-67893426D01*
X89983495Y-68062944D01*
X89905474Y-68251302D01*
X89865700Y-68451261D01*
X89865700Y-68655139D01*
X89905474Y-68855098D01*
X89983495Y-69043456D01*
X90096763Y-69212974D01*
X90240926Y-69357137D01*
X90410444Y-69470405D01*
X90598802Y-69548426D01*
X90798761Y-69588200D01*
X91002639Y-69588200D01*
X91202598Y-69548426D01*
X91390956Y-69470405D01*
X91560474Y-69357137D01*
X91704637Y-69212974D01*
X91817905Y-69043456D01*
X91895926Y-68855098D01*
X91927828Y-68694717D01*
X91962474Y-68868898D01*
X92040495Y-69057256D01*
X92153763Y-69226774D01*
X92197700Y-69270711D01*
X92197701Y-72951297D01*
X90891899Y-74257100D01*
X90829761Y-74257100D01*
X90629802Y-74296874D01*
X90441444Y-74374895D01*
X90271926Y-74488163D01*
X90127763Y-74632326D01*
X90014495Y-74801844D01*
X89936474Y-74990202D01*
X89896700Y-75190161D01*
X89896700Y-75394039D01*
X89936474Y-75593998D01*
X90014495Y-75782356D01*
X90127763Y-75951874D01*
X90221643Y-76045754D01*
X75489099Y-90778300D01*
X73859023Y-90778300D01*
X73821700Y-90774624D01*
X73784377Y-90778300D01*
X73784367Y-90778300D01*
X73672714Y-90789297D01*
X73529453Y-90832754D01*
X73397424Y-90903326D01*
X73281699Y-90998299D01*
X73257901Y-91027297D01*
X70916400Y-93368799D01*
X70916400Y-88432301D01*
X72569502Y-86779200D01*
X72631639Y-86779200D01*
X72831598Y-86739426D01*
X73019956Y-86661405D01*
X73189474Y-86548137D01*
X73333637Y-86403974D01*
X73446905Y-86234456D01*
X73524926Y-86046098D01*
X73564700Y-85846139D01*
X73564700Y-85642261D01*
X73524926Y-85442302D01*
X73446905Y-85253944D01*
X73333637Y-85084426D01*
X73189474Y-84940263D01*
X73019956Y-84826995D01*
X72831598Y-84748974D01*
X72631639Y-84709200D01*
X72427761Y-84709200D01*
X72227802Y-84748974D01*
X72039444Y-84826995D01*
X71869926Y-84940263D01*
X71725763Y-85084426D01*
X71612495Y-85253944D01*
X71534474Y-85442302D01*
X71494700Y-85642261D01*
X71494700Y-85704398D01*
X70466100Y-86732999D01*
X70466100Y-72869201D01*
X70889802Y-72445500D01*
X70951939Y-72445500D01*
X71151898Y-72405726D01*
X71340256Y-72327705D01*
X71509774Y-72214437D01*
X71653937Y-72070274D01*
X71767205Y-71900756D01*
X71845226Y-71712398D01*
X71885000Y-71512439D01*
X71885000Y-71308561D01*
X71845226Y-71108602D01*
X71767205Y-70920244D01*
X71653937Y-70750726D01*
X71594657Y-70691446D01*
X71876244Y-70409858D01*
X72028502Y-70472926D01*
X72228461Y-70512700D01*
X72432339Y-70512700D01*
X72632298Y-70472926D01*
X72820656Y-70394905D01*
X72990174Y-70281637D01*
X73134337Y-70137474D01*
X73247605Y-69967956D01*
X73325626Y-69779598D01*
X73365400Y-69579639D01*
X73365400Y-69375761D01*
X73325626Y-69175802D01*
X73247605Y-68987444D01*
X73134337Y-68817926D01*
X72990174Y-68673763D01*
X72820656Y-68560495D01*
X72632298Y-68482474D01*
X72432339Y-68442700D01*
X72228461Y-68442700D01*
X72028502Y-68482474D01*
X71840144Y-68560495D01*
X71670626Y-68673763D01*
X71619087Y-68725302D01*
X71584614Y-68728697D01*
X71441353Y-68772154D01*
X71309324Y-68842726D01*
X71309322Y-68842727D01*
X71309323Y-68842727D01*
X71222596Y-68913901D01*
X71222592Y-68913905D01*
X71193599Y-68937699D01*
X71169805Y-68966692D01*
X68824500Y-71311999D01*
X68824500Y-69912835D01*
X68845226Y-69862798D01*
X68885000Y-69662839D01*
X68885000Y-69458961D01*
X68845226Y-69259002D01*
X68767205Y-69070644D01*
X68653937Y-68901126D01*
X68509774Y-68756963D01*
X68340256Y-68643695D01*
X68151898Y-68565674D01*
X67951939Y-68525900D01*
X67748061Y-68525900D01*
X67548102Y-68565674D01*
X67359744Y-68643695D01*
X67190226Y-68756963D01*
X67046063Y-68901126D01*
X66932795Y-69070644D01*
X66854774Y-69259002D01*
X66815000Y-69458961D01*
X66815000Y-69662839D01*
X66854774Y-69862798D01*
X66932795Y-70051156D01*
X67046063Y-70220674D01*
X67054501Y-70229112D01*
X67054501Y-82952580D01*
X67016680Y-82861273D01*
X66859637Y-82626241D01*
X66659759Y-82426363D01*
X66424727Y-82269320D01*
X66163574Y-82161147D01*
X65886335Y-82106000D01*
X65603665Y-82106000D01*
X65326426Y-82161147D01*
X65065273Y-82269320D01*
X64830241Y-82426363D01*
X64630363Y-82626241D01*
X64473320Y-82861273D01*
X64365147Y-83122426D01*
X64310000Y-83399665D01*
X64310000Y-83682335D01*
X64324687Y-83756172D01*
X64213574Y-83710147D01*
X63936335Y-83655000D01*
X63653665Y-83655000D01*
X63376426Y-83710147D01*
X63115273Y-83818320D01*
X62880241Y-83975363D01*
X62680363Y-84175241D01*
X62535000Y-84392793D01*
X62535000Y-80350000D01*
X62627089Y-80350000D01*
X62658657Y-80670516D01*
X62752148Y-80978715D01*
X62903969Y-81262752D01*
X63108286Y-81511714D01*
X63357248Y-81716031D01*
X63641285Y-81867852D01*
X63949484Y-81961343D01*
X64189678Y-81985000D01*
X65350322Y-81985000D01*
X65590516Y-81961343D01*
X65898715Y-81867852D01*
X66182752Y-81716031D01*
X66431714Y-81511714D01*
X66636031Y-81262752D01*
X66787852Y-80978715D01*
X66881343Y-80670516D01*
X66912911Y-80350000D01*
X66881343Y-80029484D01*
X66787852Y-79721285D01*
X66636031Y-79437248D01*
X66557471Y-79341522D01*
X66609502Y-79244180D01*
X66645812Y-79124482D01*
X66658072Y-79000000D01*
X66655000Y-78485750D01*
X66496250Y-78327000D01*
X64897000Y-78327000D01*
X64897000Y-78347000D01*
X64643000Y-78347000D01*
X64643000Y-78327000D01*
X63043750Y-78327000D01*
X62885000Y-78485750D01*
X62881928Y-79000000D01*
X62894188Y-79124482D01*
X62930498Y-79244180D01*
X62982529Y-79341522D01*
X62903969Y-79437248D01*
X62752148Y-79721285D01*
X62658657Y-80029484D01*
X62627089Y-80350000D01*
X62535000Y-80350000D01*
X62535000Y-72050000D01*
X62627089Y-72050000D01*
X62658657Y-72370516D01*
X62752148Y-72678715D01*
X62903969Y-72962752D01*
X63108286Y-73211714D01*
X63207718Y-73293315D01*
X63121068Y-73398899D01*
X62987818Y-73648192D01*
X62905764Y-73918691D01*
X62878057Y-74200000D01*
X62905764Y-74481309D01*
X62987818Y-74751808D01*
X63121068Y-75001101D01*
X63284300Y-75200000D01*
X63121068Y-75398899D01*
X62987818Y-75648192D01*
X62905764Y-75918691D01*
X62878057Y-76200000D01*
X62905764Y-76481309D01*
X62987818Y-76751808D01*
X63085710Y-76934950D01*
X63068815Y-76948815D01*
X62989463Y-77045506D01*
X62930498Y-77155820D01*
X62894188Y-77275518D01*
X62881928Y-77400000D01*
X62885000Y-77914250D01*
X63043750Y-78073000D01*
X64643000Y-78073000D01*
X64643000Y-78053000D01*
X64897000Y-78053000D01*
X64897000Y-78073000D01*
X66496250Y-78073000D01*
X66655000Y-77914250D01*
X66658072Y-77400000D01*
X66645812Y-77275518D01*
X66609502Y-77155820D01*
X66550537Y-77045506D01*
X66471185Y-76948815D01*
X66454290Y-76934950D01*
X66552182Y-76751808D01*
X66634236Y-76481309D01*
X66661943Y-76200000D01*
X66634236Y-75918691D01*
X66552182Y-75648192D01*
X66418932Y-75398899D01*
X66255700Y-75200000D01*
X66418932Y-75001101D01*
X66552182Y-74751808D01*
X66634236Y-74481309D01*
X66661943Y-74200000D01*
X66634236Y-73918691D01*
X66552182Y-73648192D01*
X66418932Y-73398899D01*
X66332282Y-73293315D01*
X66431714Y-73211714D01*
X66636031Y-72962752D01*
X66787852Y-72678715D01*
X66881343Y-72370516D01*
X66912911Y-72050000D01*
X66881343Y-71729484D01*
X66787852Y-71421285D01*
X66636031Y-71137248D01*
X66431714Y-70888286D01*
X66182752Y-70683969D01*
X65898715Y-70532148D01*
X65590516Y-70438657D01*
X65350322Y-70415000D01*
X64189678Y-70415000D01*
X63949484Y-70438657D01*
X63641285Y-70532148D01*
X63357248Y-70683969D01*
X63108286Y-70888286D01*
X62903969Y-71137248D01*
X62752148Y-71421285D01*
X62658657Y-71729484D01*
X62627089Y-72050000D01*
X62535000Y-72050000D01*
X62535000Y-55169117D01*
X74865000Y-55169117D01*
X74865000Y-55510883D01*
X74931675Y-55846081D01*
X75062463Y-56161831D01*
X75252337Y-56445998D01*
X75494002Y-56687663D01*
X75778169Y-56877537D01*
X76093919Y-57008325D01*
X76429117Y-57075000D01*
X76770883Y-57075000D01*
X77106081Y-57008325D01*
X77421831Y-56877537D01*
X77705998Y-56687663D01*
X77947663Y-56445998D01*
X78137537Y-56161831D01*
X78268325Y-55846081D01*
X78335000Y-55510883D01*
X78335000Y-55169117D01*
X100865000Y-55169117D01*
X100865000Y-55510883D01*
X100931675Y-55846081D01*
X101062463Y-56161831D01*
X101252337Y-56445998D01*
X101494002Y-56687663D01*
X101778169Y-56877537D01*
X102093919Y-57008325D01*
X102429117Y-57075000D01*
X102770883Y-57075000D01*
X103106081Y-57008325D01*
X103421831Y-56877537D01*
X103705998Y-56687663D01*
X103947663Y-56445998D01*
X104137537Y-56161831D01*
X104268325Y-55846081D01*
X104335000Y-55510883D01*
X104335000Y-55169117D01*
X104268325Y-54833919D01*
X104137537Y-54518169D01*
X103947663Y-54234002D01*
X103705998Y-53992337D01*
X103421831Y-53802463D01*
X103106081Y-53671675D01*
X102770883Y-53605000D01*
X102429117Y-53605000D01*
X102093919Y-53671675D01*
X101778169Y-53802463D01*
X101494002Y-53992337D01*
X101252337Y-54234002D01*
X101062463Y-54518169D01*
X100931675Y-54833919D01*
X100865000Y-55169117D01*
X78335000Y-55169117D01*
X78268325Y-54833919D01*
X78137537Y-54518169D01*
X77947663Y-54234002D01*
X77705998Y-53992337D01*
X77421831Y-53802463D01*
X77106081Y-53671675D01*
X76770883Y-53605000D01*
X76429117Y-53605000D01*
X76093919Y-53671675D01*
X75778169Y-53802463D01*
X75494002Y-53992337D01*
X75252337Y-54234002D01*
X75062463Y-54518169D01*
X74931675Y-54833919D01*
X74865000Y-55169117D01*
X62535000Y-55169117D01*
X62535000Y-40685000D01*
X116665000Y-40685000D01*
X116665001Y-90915000D01*
%TA.AperFunction,Conductor*%
D21*
G36*
X116665001Y-90915000D02*
G01*
X111439600Y-90915000D01*
X111439600Y-90690367D01*
X111751127Y-90378841D01*
X111782991Y-90352691D01*
X111887336Y-90225546D01*
X111964872Y-90080487D01*
X112012618Y-89923089D01*
X112024700Y-89800419D01*
X112024700Y-89800409D01*
X112028739Y-89759401D01*
X112024700Y-89718393D01*
X112024700Y-82309811D01*
X112125426Y-82410537D01*
X112294944Y-82523805D01*
X112483302Y-82601826D01*
X112683261Y-82641600D01*
X112887139Y-82641600D01*
X113087098Y-82601826D01*
X113275456Y-82523805D01*
X113444974Y-82410537D01*
X113589137Y-82266374D01*
X113702405Y-82096856D01*
X113780426Y-81908498D01*
X113820200Y-81708539D01*
X113820200Y-81504661D01*
X113780426Y-81304702D01*
X113702405Y-81116344D01*
X113589137Y-80946826D01*
X113545200Y-80902889D01*
X113545200Y-75878222D01*
X113548876Y-75840900D01*
X113545200Y-75803577D01*
X113545200Y-75803567D01*
X113534203Y-75691914D01*
X113490746Y-75548653D01*
X113487670Y-75542899D01*
X113420174Y-75416623D01*
X113348999Y-75329897D01*
X113325201Y-75300899D01*
X113296203Y-75277101D01*
X111295500Y-73276399D01*
X111295500Y-73214261D01*
X111255726Y-73014302D01*
X111177705Y-72825944D01*
X111064437Y-72656426D01*
X110920274Y-72512263D01*
X110750756Y-72398995D01*
X110562398Y-72320974D01*
X110362439Y-72281200D01*
X110268000Y-72281200D01*
X110268000Y-71518622D01*
X110271676Y-71481299D01*
X110268000Y-71443976D01*
X110268000Y-71443967D01*
X110257003Y-71332314D01*
X110213546Y-71189053D01*
X110142974Y-71057024D01*
X110048001Y-70941299D01*
X110019004Y-70917502D01*
X108664700Y-69563199D01*
X108664700Y-69501061D01*
X108624926Y-69301102D01*
X108546905Y-69112744D01*
X108433637Y-68943226D01*
X108289474Y-68799063D01*
X108119956Y-68685795D01*
X107931598Y-68607774D01*
X107731639Y-68568000D01*
X107527761Y-68568000D01*
X107327802Y-68607774D01*
X107139444Y-68685795D01*
X106969926Y-68799063D01*
X106825763Y-68943226D01*
X106712495Y-69112744D01*
X106634474Y-69301102D01*
X106594700Y-69501061D01*
X106594700Y-69704939D01*
X106634474Y-69904898D01*
X106680136Y-70015134D01*
X105194100Y-68529099D01*
X105194100Y-68466961D01*
X105154326Y-68267002D01*
X105076305Y-68078644D01*
X104963037Y-67909126D01*
X104818874Y-67764963D01*
X104649356Y-67651695D01*
X104460998Y-67573674D01*
X104261039Y-67533900D01*
X104057161Y-67533900D01*
X103857202Y-67573674D01*
X103668844Y-67651695D01*
X103541774Y-67736600D01*
X103413956Y-67651195D01*
X103225598Y-67573174D01*
X103025639Y-67533400D01*
X102821761Y-67533400D01*
X102621802Y-67573174D01*
X102433444Y-67651195D01*
X102263926Y-67764463D01*
X102119763Y-67908626D01*
X102097799Y-67941497D01*
X96328100Y-62171799D01*
X96328100Y-59770111D01*
X96372037Y-59726174D01*
X96485305Y-59556656D01*
X96563326Y-59368298D01*
X96603100Y-59168339D01*
X96603100Y-58964461D01*
X96563326Y-58764502D01*
X96485305Y-58576144D01*
X96372037Y-58406626D01*
X96227874Y-58262463D01*
X96058356Y-58149195D01*
X95869998Y-58071174D01*
X95670039Y-58031400D01*
X95466161Y-58031400D01*
X95266202Y-58071174D01*
X95077844Y-58149195D01*
X94908326Y-58262463D01*
X94764163Y-58406626D01*
X94650895Y-58576144D01*
X94572874Y-58764502D01*
X94533100Y-58964461D01*
X94533100Y-59168339D01*
X94572874Y-59368298D01*
X94650895Y-59556656D01*
X94764163Y-59726174D01*
X94808100Y-59770111D01*
X94808101Y-62449268D01*
X94804424Y-62486600D01*
X94819098Y-62635585D01*
X94862554Y-62778846D01*
X94933126Y-62910876D01*
X95004301Y-62997602D01*
X95028100Y-63026601D01*
X95057098Y-63050399D01*
X99079398Y-67072700D01*
X91658523Y-67072700D01*
X91621200Y-67069024D01*
X91583877Y-67072700D01*
X91583867Y-67072700D01*
X91472214Y-67083697D01*
X91328953Y-67127154D01*
X91196924Y-67197726D01*
X91081199Y-67292699D01*
X91057401Y-67321698D01*
X90860898Y-67518200D01*
X90798761Y-67518200D01*
X90598802Y-67557974D01*
X90410444Y-67635995D01*
X90240926Y-67749263D01*
X90096763Y-67893426D01*
X89983495Y-68062944D01*
X89905474Y-68251302D01*
X89865700Y-68451261D01*
X89865700Y-68655139D01*
X89905474Y-68855098D01*
X89983495Y-69043456D01*
X90096763Y-69212974D01*
X90240926Y-69357137D01*
X90410444Y-69470405D01*
X90598802Y-69548426D01*
X90798761Y-69588200D01*
X91002639Y-69588200D01*
X91202598Y-69548426D01*
X91390956Y-69470405D01*
X91560474Y-69357137D01*
X91704637Y-69212974D01*
X91817905Y-69043456D01*
X91895926Y-68855098D01*
X91927828Y-68694717D01*
X91962474Y-68868898D01*
X92040495Y-69057256D01*
X92153763Y-69226774D01*
X92197700Y-69270711D01*
X92197701Y-72951297D01*
X90891899Y-74257100D01*
X90829761Y-74257100D01*
X90629802Y-74296874D01*
X90441444Y-74374895D01*
X90271926Y-74488163D01*
X90127763Y-74632326D01*
X90014495Y-74801844D01*
X89936474Y-74990202D01*
X89896700Y-75190161D01*
X89896700Y-75394039D01*
X89936474Y-75593998D01*
X90014495Y-75782356D01*
X90127763Y-75951874D01*
X90221643Y-76045754D01*
X75489099Y-90778300D01*
X73859023Y-90778300D01*
X73821700Y-90774624D01*
X73784377Y-90778300D01*
X73784367Y-90778300D01*
X73672714Y-90789297D01*
X73529453Y-90832754D01*
X73397424Y-90903326D01*
X73281699Y-90998299D01*
X73257901Y-91027297D01*
X70916400Y-93368799D01*
X70916400Y-88432301D01*
X72569502Y-86779200D01*
X72631639Y-86779200D01*
X72831598Y-86739426D01*
X73019956Y-86661405D01*
X73189474Y-86548137D01*
X73333637Y-86403974D01*
X73446905Y-86234456D01*
X73524926Y-86046098D01*
X73564700Y-85846139D01*
X73564700Y-85642261D01*
X73524926Y-85442302D01*
X73446905Y-85253944D01*
X73333637Y-85084426D01*
X73189474Y-84940263D01*
X73019956Y-84826995D01*
X72831598Y-84748974D01*
X72631639Y-84709200D01*
X72427761Y-84709200D01*
X72227802Y-84748974D01*
X72039444Y-84826995D01*
X71869926Y-84940263D01*
X71725763Y-85084426D01*
X71612495Y-85253944D01*
X71534474Y-85442302D01*
X71494700Y-85642261D01*
X71494700Y-85704398D01*
X70466100Y-86732999D01*
X70466100Y-72869201D01*
X70889802Y-72445500D01*
X70951939Y-72445500D01*
X71151898Y-72405726D01*
X71340256Y-72327705D01*
X71509774Y-72214437D01*
X71653937Y-72070274D01*
X71767205Y-71900756D01*
X71845226Y-71712398D01*
X71885000Y-71512439D01*
X71885000Y-71308561D01*
X71845226Y-71108602D01*
X71767205Y-70920244D01*
X71653937Y-70750726D01*
X71594657Y-70691446D01*
X71876244Y-70409858D01*
X72028502Y-70472926D01*
X72228461Y-70512700D01*
X72432339Y-70512700D01*
X72632298Y-70472926D01*
X72820656Y-70394905D01*
X72990174Y-70281637D01*
X73134337Y-70137474D01*
X73247605Y-69967956D01*
X73325626Y-69779598D01*
X73365400Y-69579639D01*
X73365400Y-69375761D01*
X73325626Y-69175802D01*
X73247605Y-68987444D01*
X73134337Y-68817926D01*
X72990174Y-68673763D01*
X72820656Y-68560495D01*
X72632298Y-68482474D01*
X72432339Y-68442700D01*
X72228461Y-68442700D01*
X72028502Y-68482474D01*
X71840144Y-68560495D01*
X71670626Y-68673763D01*
X71619087Y-68725302D01*
X71584614Y-68728697D01*
X71441353Y-68772154D01*
X71309324Y-68842726D01*
X71309322Y-68842727D01*
X71309323Y-68842727D01*
X71222596Y-68913901D01*
X71222592Y-68913905D01*
X71193599Y-68937699D01*
X71169805Y-68966692D01*
X68824500Y-71311999D01*
X68824500Y-69912835D01*
X68845226Y-69862798D01*
X68885000Y-69662839D01*
X68885000Y-69458961D01*
X68845226Y-69259002D01*
X68767205Y-69070644D01*
X68653937Y-68901126D01*
X68509774Y-68756963D01*
X68340256Y-68643695D01*
X68151898Y-68565674D01*
X67951939Y-68525900D01*
X67748061Y-68525900D01*
X67548102Y-68565674D01*
X67359744Y-68643695D01*
X67190226Y-68756963D01*
X67046063Y-68901126D01*
X66932795Y-69070644D01*
X66854774Y-69259002D01*
X66815000Y-69458961D01*
X66815000Y-69662839D01*
X66854774Y-69862798D01*
X66932795Y-70051156D01*
X67046063Y-70220674D01*
X67054501Y-70229112D01*
X67054501Y-82952580D01*
X67016680Y-82861273D01*
X66859637Y-82626241D01*
X66659759Y-82426363D01*
X66424727Y-82269320D01*
X66163574Y-82161147D01*
X65886335Y-82106000D01*
X65603665Y-82106000D01*
X65326426Y-82161147D01*
X65065273Y-82269320D01*
X64830241Y-82426363D01*
X64630363Y-82626241D01*
X64473320Y-82861273D01*
X64365147Y-83122426D01*
X64310000Y-83399665D01*
X64310000Y-83682335D01*
X64324687Y-83756172D01*
X64213574Y-83710147D01*
X63936335Y-83655000D01*
X63653665Y-83655000D01*
X63376426Y-83710147D01*
X63115273Y-83818320D01*
X62880241Y-83975363D01*
X62680363Y-84175241D01*
X62535000Y-84392793D01*
X62535000Y-80350000D01*
X62627089Y-80350000D01*
X62658657Y-80670516D01*
X62752148Y-80978715D01*
X62903969Y-81262752D01*
X63108286Y-81511714D01*
X63357248Y-81716031D01*
X63641285Y-81867852D01*
X63949484Y-81961343D01*
X64189678Y-81985000D01*
X65350322Y-81985000D01*
X65590516Y-81961343D01*
X65898715Y-81867852D01*
X66182752Y-81716031D01*
X66431714Y-81511714D01*
X66636031Y-81262752D01*
X66787852Y-80978715D01*
X66881343Y-80670516D01*
X66912911Y-80350000D01*
X66881343Y-80029484D01*
X66787852Y-79721285D01*
X66636031Y-79437248D01*
X66557471Y-79341522D01*
X66609502Y-79244180D01*
X66645812Y-79124482D01*
X66658072Y-79000000D01*
X66655000Y-78485750D01*
X66496250Y-78327000D01*
X64897000Y-78327000D01*
X64897000Y-78347000D01*
X64643000Y-78347000D01*
X64643000Y-78327000D01*
X63043750Y-78327000D01*
X62885000Y-78485750D01*
X62881928Y-79000000D01*
X62894188Y-79124482D01*
X62930498Y-79244180D01*
X62982529Y-79341522D01*
X62903969Y-79437248D01*
X62752148Y-79721285D01*
X62658657Y-80029484D01*
X62627089Y-80350000D01*
X62535000Y-80350000D01*
X62535000Y-72050000D01*
X62627089Y-72050000D01*
X62658657Y-72370516D01*
X62752148Y-72678715D01*
X62903969Y-72962752D01*
X63108286Y-73211714D01*
X63207718Y-73293315D01*
X63121068Y-73398899D01*
X62987818Y-73648192D01*
X62905764Y-73918691D01*
X62878057Y-74200000D01*
X62905764Y-74481309D01*
X62987818Y-74751808D01*
X63121068Y-75001101D01*
X63284300Y-75200000D01*
X63121068Y-75398899D01*
X62987818Y-75648192D01*
X62905764Y-75918691D01*
X62878057Y-76200000D01*
X62905764Y-76481309D01*
X62987818Y-76751808D01*
X63085710Y-76934950D01*
X63068815Y-76948815D01*
X62989463Y-77045506D01*
X62930498Y-77155820D01*
X62894188Y-77275518D01*
X62881928Y-77400000D01*
X62885000Y-77914250D01*
X63043750Y-78073000D01*
X64643000Y-78073000D01*
X64643000Y-78053000D01*
X64897000Y-78053000D01*
X64897000Y-78073000D01*
X66496250Y-78073000D01*
X66655000Y-77914250D01*
X66658072Y-77400000D01*
X66645812Y-77275518D01*
X66609502Y-77155820D01*
X66550537Y-77045506D01*
X66471185Y-76948815D01*
X66454290Y-76934950D01*
X66552182Y-76751808D01*
X66634236Y-76481309D01*
X66661943Y-76200000D01*
X66634236Y-75918691D01*
X66552182Y-75648192D01*
X66418932Y-75398899D01*
X66255700Y-75200000D01*
X66418932Y-75001101D01*
X66552182Y-74751808D01*
X66634236Y-74481309D01*
X66661943Y-74200000D01*
X66634236Y-73918691D01*
X66552182Y-73648192D01*
X66418932Y-73398899D01*
X66332282Y-73293315D01*
X66431714Y-73211714D01*
X66636031Y-72962752D01*
X66787852Y-72678715D01*
X66881343Y-72370516D01*
X66912911Y-72050000D01*
X66881343Y-71729484D01*
X66787852Y-71421285D01*
X66636031Y-71137248D01*
X66431714Y-70888286D01*
X66182752Y-70683969D01*
X65898715Y-70532148D01*
X65590516Y-70438657D01*
X65350322Y-70415000D01*
X64189678Y-70415000D01*
X63949484Y-70438657D01*
X63641285Y-70532148D01*
X63357248Y-70683969D01*
X63108286Y-70888286D01*
X62903969Y-71137248D01*
X62752148Y-71421285D01*
X62658657Y-71729484D01*
X62627089Y-72050000D01*
X62535000Y-72050000D01*
X62535000Y-55169117D01*
X74865000Y-55169117D01*
X74865000Y-55510883D01*
X74931675Y-55846081D01*
X75062463Y-56161831D01*
X75252337Y-56445998D01*
X75494002Y-56687663D01*
X75778169Y-56877537D01*
X76093919Y-57008325D01*
X76429117Y-57075000D01*
X76770883Y-57075000D01*
X77106081Y-57008325D01*
X77421831Y-56877537D01*
X77705998Y-56687663D01*
X77947663Y-56445998D01*
X78137537Y-56161831D01*
X78268325Y-55846081D01*
X78335000Y-55510883D01*
X78335000Y-55169117D01*
X100865000Y-55169117D01*
X100865000Y-55510883D01*
X100931675Y-55846081D01*
X101062463Y-56161831D01*
X101252337Y-56445998D01*
X101494002Y-56687663D01*
X101778169Y-56877537D01*
X102093919Y-57008325D01*
X102429117Y-57075000D01*
X102770883Y-57075000D01*
X103106081Y-57008325D01*
X103421831Y-56877537D01*
X103705998Y-56687663D01*
X103947663Y-56445998D01*
X104137537Y-56161831D01*
X104268325Y-55846081D01*
X104335000Y-55510883D01*
X104335000Y-55169117D01*
X104268325Y-54833919D01*
X104137537Y-54518169D01*
X103947663Y-54234002D01*
X103705998Y-53992337D01*
X103421831Y-53802463D01*
X103106081Y-53671675D01*
X102770883Y-53605000D01*
X102429117Y-53605000D01*
X102093919Y-53671675D01*
X101778169Y-53802463D01*
X101494002Y-53992337D01*
X101252337Y-54234002D01*
X101062463Y-54518169D01*
X100931675Y-54833919D01*
X100865000Y-55169117D01*
X78335000Y-55169117D01*
X78268325Y-54833919D01*
X78137537Y-54518169D01*
X77947663Y-54234002D01*
X77705998Y-53992337D01*
X77421831Y-53802463D01*
X77106081Y-53671675D01*
X76770883Y-53605000D01*
X76429117Y-53605000D01*
X76093919Y-53671675D01*
X75778169Y-53802463D01*
X75494002Y-53992337D01*
X75252337Y-54234002D01*
X75062463Y-54518169D01*
X74931675Y-54833919D01*
X74865000Y-55169117D01*
X62535000Y-55169117D01*
X62535000Y-40685000D01*
X116665000Y-40685000D01*
X116665001Y-90915000D01*
G37*
%TD.AperFunction*%
%TD*%
M02*
