%TF.GenerationSoftware,KiCad,Pcbnew,(5.1.10-1-10_14)*%
%TF.CreationDate,2023-03-17T01:48:03+08:00*%
%TF.ProjectId,GB_MemoryBackup_Mainboard,47425f4d-656d-46f7-9279-4261636b7570,1.1*%
%TF.SameCoordinates,Original*%
%TF.FileFunction,Legend,Bot*%
%TF.FilePolarity,Positive*%
%FSLAX46Y46*%
G04 Gerber Fmt 4.6, Leading zero omitted, Abs format (unit mm)*
G04 Created by KiCad (PCBNEW (5.1.10-1-10_14)) date 2023-03-17 01:48:03*
%MOMM*%
%LPD*%
G01*
G04 APERTURE LIST*
%ADD10C,0.150000*%
%ADD11C,0.120000*%
%ADD12C,0.125000*%
G04 APERTURE END LIST*
D10*
X68032380Y-71938095D02*
X68032380Y-72128571D01*
X68080000Y-72223809D01*
X68175238Y-72319047D01*
X68365714Y-72366666D01*
X68699047Y-72366666D01*
X68889523Y-72319047D01*
X68984761Y-72223809D01*
X69032380Y-72128571D01*
X69032380Y-71938095D01*
X68984761Y-71842857D01*
X68889523Y-71747619D01*
X68699047Y-71700000D01*
X68365714Y-71700000D01*
X68175238Y-71747619D01*
X68080000Y-71842857D01*
X68032380Y-71938095D01*
X68365714Y-72652380D02*
X68365714Y-73033333D01*
X69032380Y-72795238D02*
X68175238Y-72795238D01*
X68080000Y-72842857D01*
X68032380Y-72938095D01*
X68032380Y-73033333D01*
X68365714Y-73223809D02*
X68365714Y-73604761D01*
X69032380Y-73366666D02*
X68175238Y-73366666D01*
X68080000Y-73414285D01*
X68032380Y-73509523D01*
X68032380Y-73604761D01*
X68365714Y-75461904D02*
X68651428Y-74700000D01*
X68937142Y-75461904D01*
X68651428Y-75938095D02*
X68651428Y-76700000D01*
X68365714Y-77176190D02*
X68651428Y-77938095D01*
X68937142Y-77176190D01*
X68032380Y-79366666D02*
X68032380Y-79557142D01*
X68080000Y-79652380D01*
X68175238Y-79747619D01*
X68365714Y-79795238D01*
X68699047Y-79795238D01*
X68889523Y-79747619D01*
X68984761Y-79652380D01*
X69032380Y-79557142D01*
X69032380Y-79366666D01*
X68984761Y-79271428D01*
X68889523Y-79176190D01*
X68699047Y-79128571D01*
X68365714Y-79128571D01*
X68175238Y-79176190D01*
X68080000Y-79271428D01*
X68032380Y-79366666D01*
X68365714Y-80223809D02*
X69032380Y-80223809D01*
X68460952Y-80223809D02*
X68413333Y-80271428D01*
X68365714Y-80366666D01*
X68365714Y-80509523D01*
X68413333Y-80604761D01*
X68508571Y-80652380D01*
X69032380Y-80652380D01*
D11*
%TO.C,SW2*%
X63520000Y-82840000D02*
X65025000Y-82840000D01*
X63520000Y-84126000D02*
X63520000Y-82840000D01*
X63520000Y-87376000D02*
X63520000Y-86090000D01*
X66360000Y-84368000D02*
X66360000Y-85812000D01*
X63520000Y-87376000D02*
X65025000Y-87376000D01*
D10*
%TO.C,SW1*%
X62470000Y-74200000D02*
X62470000Y-71900000D01*
X62470000Y-80500000D02*
X62470000Y-78300000D01*
X67070000Y-80500000D02*
X67070000Y-71900000D01*
%TO.C,SW2*%
D12*
X65607380Y-84423333D02*
X65631190Y-84494761D01*
X65631190Y-84613809D01*
X65607380Y-84661428D01*
X65583571Y-84685238D01*
X65535952Y-84709047D01*
X65488333Y-84709047D01*
X65440714Y-84685238D01*
X65416904Y-84661428D01*
X65393095Y-84613809D01*
X65369285Y-84518571D01*
X65345476Y-84470952D01*
X65321666Y-84447142D01*
X65274047Y-84423333D01*
X65226428Y-84423333D01*
X65178809Y-84447142D01*
X65155000Y-84470952D01*
X65131190Y-84518571D01*
X65131190Y-84637619D01*
X65155000Y-84709047D01*
X65131190Y-84875714D02*
X65631190Y-84994761D01*
X65274047Y-85090000D01*
X65631190Y-85185238D01*
X65131190Y-85304285D01*
X65178809Y-85470952D02*
X65155000Y-85494761D01*
X65131190Y-85542380D01*
X65131190Y-85661428D01*
X65155000Y-85709047D01*
X65178809Y-85732857D01*
X65226428Y-85756666D01*
X65274047Y-85756666D01*
X65345476Y-85732857D01*
X65631190Y-85447142D01*
X65631190Y-85756666D01*
%TO.C,SW1*%
X63067380Y-75533333D02*
X63091190Y-75604761D01*
X63091190Y-75723809D01*
X63067380Y-75771428D01*
X63043571Y-75795238D01*
X62995952Y-75819047D01*
X62948333Y-75819047D01*
X62900714Y-75795238D01*
X62876904Y-75771428D01*
X62853095Y-75723809D01*
X62829285Y-75628571D01*
X62805476Y-75580952D01*
X62781666Y-75557142D01*
X62734047Y-75533333D01*
X62686428Y-75533333D01*
X62638809Y-75557142D01*
X62615000Y-75580952D01*
X62591190Y-75628571D01*
X62591190Y-75747619D01*
X62615000Y-75819047D01*
X62591190Y-75985714D02*
X63091190Y-76104761D01*
X62734047Y-76200000D01*
X63091190Y-76295238D01*
X62591190Y-76414285D01*
X63091190Y-76866666D02*
X63091190Y-76580952D01*
X63091190Y-76723809D02*
X62591190Y-76723809D01*
X62662619Y-76676190D01*
X62710238Y-76628571D01*
X62734047Y-76580952D01*
%TD*%
M02*
