%TF.GenerationSoftware,KiCad,Pcbnew,(5.1.10-1-10_14)*%
%TF.CreationDate,2023-03-17T01:48:03+08:00*%
%TF.ProjectId,GB_MemoryBackup_Mainboard,47425f4d-656d-46f7-9279-4261636b7570,1.1*%
%TF.SameCoordinates,Original*%
%TF.FileFunction,Soldermask,Bot*%
%TF.FilePolarity,Negative*%
%FSLAX46Y46*%
G04 Gerber Fmt 4.6, Leading zero omitted, Abs format (unit mm)*
G04 Created by KiCad (PCBNEW (5.1.10-1-10_14)) date 2023-03-17 01:48:03*
%MOMM*%
%LPD*%
G01*
G04 APERTURE LIST*
%ADD10C,0.150000*%
%ADD11C,0.010000*%
%ADD12C,1.702000*%
%ADD13O,3.102000X2.102000*%
%ADD14O,2.602000X1.702000*%
%ADD15R,1.700000X1.700000*%
%ADD16O,1.700000X1.700000*%
%ADD17C,2.200000*%
G04 APERTURE END LIST*
D10*
X114075595Y-48460000D02*
X114170833Y-48412380D01*
X114313690Y-48412380D01*
X114456547Y-48460000D01*
X114551785Y-48555238D01*
X114599404Y-48650476D01*
X114647023Y-48840952D01*
X114647023Y-48983809D01*
X114599404Y-49174285D01*
X114551785Y-49269523D01*
X114456547Y-49364761D01*
X114313690Y-49412380D01*
X114218452Y-49412380D01*
X114075595Y-49364761D01*
X114027976Y-49317142D01*
X114027976Y-48983809D01*
X114218452Y-48983809D01*
X113170833Y-49412380D02*
X113170833Y-48888571D01*
X113218452Y-48793333D01*
X113313690Y-48745714D01*
X113504166Y-48745714D01*
X113599404Y-48793333D01*
X113170833Y-49364761D02*
X113266071Y-49412380D01*
X113504166Y-49412380D01*
X113599404Y-49364761D01*
X113647023Y-49269523D01*
X113647023Y-49174285D01*
X113599404Y-49079047D01*
X113504166Y-49031428D01*
X113266071Y-49031428D01*
X113170833Y-48983809D01*
X112694642Y-49412380D02*
X112694642Y-48745714D01*
X112694642Y-48840952D02*
X112647023Y-48793333D01*
X112551785Y-48745714D01*
X112408928Y-48745714D01*
X112313690Y-48793333D01*
X112266071Y-48888571D01*
X112266071Y-49412380D01*
X112266071Y-48888571D02*
X112218452Y-48793333D01*
X112123214Y-48745714D01*
X111980357Y-48745714D01*
X111885119Y-48793333D01*
X111837500Y-48888571D01*
X111837500Y-49412380D01*
X110980357Y-49364761D02*
X111075595Y-49412380D01*
X111266071Y-49412380D01*
X111361309Y-49364761D01*
X111408928Y-49269523D01*
X111408928Y-48888571D01*
X111361309Y-48793333D01*
X111266071Y-48745714D01*
X111075595Y-48745714D01*
X110980357Y-48793333D01*
X110932738Y-48888571D01*
X110932738Y-48983809D01*
X111408928Y-49079047D01*
X110504166Y-49412380D02*
X110504166Y-48412380D01*
X110504166Y-48793333D02*
X110408928Y-48745714D01*
X110218452Y-48745714D01*
X110123214Y-48793333D01*
X110075595Y-48840952D01*
X110027976Y-48936190D01*
X110027976Y-49221904D01*
X110075595Y-49317142D01*
X110123214Y-49364761D01*
X110218452Y-49412380D01*
X110408928Y-49412380D01*
X110504166Y-49364761D01*
X109456547Y-49412380D02*
X109551785Y-49364761D01*
X109599404Y-49317142D01*
X109647023Y-49221904D01*
X109647023Y-48936190D01*
X109599404Y-48840952D01*
X109551785Y-48793333D01*
X109456547Y-48745714D01*
X109313690Y-48745714D01*
X109218452Y-48793333D01*
X109170833Y-48840952D01*
X109123214Y-48936190D01*
X109123214Y-49221904D01*
X109170833Y-49317142D01*
X109218452Y-49364761D01*
X109313690Y-49412380D01*
X109456547Y-49412380D01*
X108789880Y-48745714D02*
X108551785Y-49412380D01*
X108313690Y-48745714D02*
X108551785Y-49412380D01*
X108647023Y-49650476D01*
X108694642Y-49698095D01*
X108789880Y-49745714D01*
X107170833Y-49412380D02*
X107170833Y-48412380D01*
X106837500Y-49126666D01*
X106504166Y-48412380D01*
X106504166Y-49412380D01*
X105647023Y-49364761D02*
X105742261Y-49412380D01*
X105932738Y-49412380D01*
X106027976Y-49364761D01*
X106075595Y-49269523D01*
X106075595Y-48888571D01*
X106027976Y-48793333D01*
X105932738Y-48745714D01*
X105742261Y-48745714D01*
X105647023Y-48793333D01*
X105599404Y-48888571D01*
X105599404Y-48983809D01*
X106075595Y-49079047D01*
X105170833Y-49412380D02*
X105170833Y-48745714D01*
X105170833Y-48840952D02*
X105123214Y-48793333D01*
X105027976Y-48745714D01*
X104885119Y-48745714D01*
X104789880Y-48793333D01*
X104742261Y-48888571D01*
X104742261Y-49412380D01*
X104742261Y-48888571D02*
X104694642Y-48793333D01*
X104599404Y-48745714D01*
X104456547Y-48745714D01*
X104361309Y-48793333D01*
X104313690Y-48888571D01*
X104313690Y-49412380D01*
X103694642Y-49412380D02*
X103789880Y-49364761D01*
X103837500Y-49317142D01*
X103885119Y-49221904D01*
X103885119Y-48936190D01*
X103837500Y-48840952D01*
X103789880Y-48793333D01*
X103694642Y-48745714D01*
X103551785Y-48745714D01*
X103456547Y-48793333D01*
X103408928Y-48840952D01*
X103361309Y-48936190D01*
X103361309Y-49221904D01*
X103408928Y-49317142D01*
X103456547Y-49364761D01*
X103551785Y-49412380D01*
X103694642Y-49412380D01*
X102932738Y-49412380D02*
X102932738Y-48745714D01*
X102932738Y-48936190D02*
X102885119Y-48840952D01*
X102837500Y-48793333D01*
X102742261Y-48745714D01*
X102647023Y-48745714D01*
X102408928Y-48745714D02*
X102170833Y-49412380D01*
X101932738Y-48745714D02*
X102170833Y-49412380D01*
X102266071Y-49650476D01*
X102313690Y-49698095D01*
X102408928Y-49745714D01*
X101218452Y-48888571D02*
X101075595Y-48936190D01*
X101027976Y-48983809D01*
X100980357Y-49079047D01*
X100980357Y-49221904D01*
X101027976Y-49317142D01*
X101075595Y-49364761D01*
X101170833Y-49412380D01*
X101551785Y-49412380D01*
X101551785Y-48412380D01*
X101218452Y-48412380D01*
X101123214Y-48460000D01*
X101075595Y-48507619D01*
X101027976Y-48602857D01*
X101027976Y-48698095D01*
X101075595Y-48793333D01*
X101123214Y-48840952D01*
X101218452Y-48888571D01*
X101551785Y-48888571D01*
X100123214Y-49412380D02*
X100123214Y-48888571D01*
X100170833Y-48793333D01*
X100266071Y-48745714D01*
X100456547Y-48745714D01*
X100551785Y-48793333D01*
X100123214Y-49364761D02*
X100218452Y-49412380D01*
X100456547Y-49412380D01*
X100551785Y-49364761D01*
X100599404Y-49269523D01*
X100599404Y-49174285D01*
X100551785Y-49079047D01*
X100456547Y-49031428D01*
X100218452Y-49031428D01*
X100123214Y-48983809D01*
X99218452Y-49364761D02*
X99313690Y-49412380D01*
X99504166Y-49412380D01*
X99599404Y-49364761D01*
X99647023Y-49317142D01*
X99694642Y-49221904D01*
X99694642Y-48936190D01*
X99647023Y-48840952D01*
X99599404Y-48793333D01*
X99504166Y-48745714D01*
X99313690Y-48745714D01*
X99218452Y-48793333D01*
X98789880Y-49412380D02*
X98789880Y-48412380D01*
X98694642Y-49031428D02*
X98408928Y-49412380D01*
X98408928Y-48745714D02*
X98789880Y-49126666D01*
X97551785Y-48745714D02*
X97551785Y-49412380D01*
X97980357Y-48745714D02*
X97980357Y-49269523D01*
X97932738Y-49364761D01*
X97837500Y-49412380D01*
X97694642Y-49412380D01*
X97599404Y-49364761D01*
X97551785Y-49317142D01*
X97075595Y-48745714D02*
X97075595Y-49745714D01*
X97075595Y-48793333D02*
X96980357Y-48745714D01*
X96789880Y-48745714D01*
X96694642Y-48793333D01*
X96647023Y-48840952D01*
X96599404Y-48936190D01*
X96599404Y-49221904D01*
X96647023Y-49317142D01*
X96694642Y-49364761D01*
X96789880Y-49412380D01*
X96980357Y-49412380D01*
X97075595Y-49364761D01*
X95408928Y-49412380D02*
X95408928Y-48412380D01*
X95408928Y-48888571D02*
X94837500Y-48888571D01*
X94837500Y-49412380D02*
X94837500Y-48412380D01*
X94218452Y-49412380D02*
X94313690Y-49364761D01*
X94361309Y-49317142D01*
X94408928Y-49221904D01*
X94408928Y-48936190D01*
X94361309Y-48840952D01*
X94313690Y-48793333D01*
X94218452Y-48745714D01*
X94075595Y-48745714D01*
X93980357Y-48793333D01*
X93932738Y-48840952D01*
X93885119Y-48936190D01*
X93885119Y-49221904D01*
X93932738Y-49317142D01*
X93980357Y-49364761D01*
X94075595Y-49412380D01*
X94218452Y-49412380D01*
X93456547Y-49412380D02*
X93456547Y-48745714D01*
X93456547Y-48840952D02*
X93408928Y-48793333D01*
X93313690Y-48745714D01*
X93170833Y-48745714D01*
X93075595Y-48793333D01*
X93027976Y-48888571D01*
X93027976Y-49412380D01*
X93027976Y-48888571D02*
X92980357Y-48793333D01*
X92885119Y-48745714D01*
X92742261Y-48745714D01*
X92647023Y-48793333D01*
X92599404Y-48888571D01*
X92599404Y-49412380D01*
X91742261Y-49364761D02*
X91837500Y-49412380D01*
X92027976Y-49412380D01*
X92123214Y-49364761D01*
X92170833Y-49269523D01*
X92170833Y-48888571D01*
X92123214Y-48793333D01*
X92027976Y-48745714D01*
X91837500Y-48745714D01*
X91742261Y-48793333D01*
X91694642Y-48888571D01*
X91694642Y-48983809D01*
X92170833Y-49079047D01*
X91266071Y-49412380D02*
X91266071Y-48412380D01*
X91266071Y-48793333D02*
X91170833Y-48745714D01*
X90980357Y-48745714D01*
X90885119Y-48793333D01*
X90837500Y-48840952D01*
X90789880Y-48936190D01*
X90789880Y-49221904D01*
X90837500Y-49317142D01*
X90885119Y-49364761D01*
X90980357Y-49412380D01*
X91170833Y-49412380D01*
X91266071Y-49364761D01*
X90361309Y-49412380D02*
X90361309Y-48745714D01*
X90361309Y-48936190D02*
X90313690Y-48840952D01*
X90266071Y-48793333D01*
X90170833Y-48745714D01*
X90075595Y-48745714D01*
X89361309Y-49364761D02*
X89456547Y-49412380D01*
X89647023Y-49412380D01*
X89742261Y-49364761D01*
X89789880Y-49269523D01*
X89789880Y-48888571D01*
X89742261Y-48793333D01*
X89647023Y-48745714D01*
X89456547Y-48745714D01*
X89361309Y-48793333D01*
X89313690Y-48888571D01*
X89313690Y-48983809D01*
X89789880Y-49079047D01*
X88980357Y-48745714D02*
X88789880Y-49412380D01*
X88599404Y-48936190D01*
X88408928Y-49412380D01*
X88218452Y-48745714D01*
X87170833Y-48745714D02*
X86932738Y-49412380D01*
X86694642Y-48745714D01*
X85789880Y-49412380D02*
X86361309Y-49412380D01*
X86075595Y-49412380D02*
X86075595Y-48412380D01*
X86170833Y-48555238D01*
X86266071Y-48650476D01*
X86361309Y-48698095D01*
X85361309Y-49317142D02*
X85313690Y-49364761D01*
X85361309Y-49412380D01*
X85408928Y-49364761D01*
X85361309Y-49317142D01*
X85361309Y-49412380D01*
X84361309Y-49412380D02*
X84932738Y-49412380D01*
X84647023Y-49412380D02*
X84647023Y-48412380D01*
X84742261Y-48555238D01*
X84837500Y-48650476D01*
X84932738Y-48698095D01*
X114599404Y-51062380D02*
X114599404Y-50062380D01*
X114170833Y-51062380D02*
X114170833Y-50538571D01*
X114218452Y-50443333D01*
X114313690Y-50395714D01*
X114456547Y-50395714D01*
X114551785Y-50443333D01*
X114599404Y-50490952D01*
X113837500Y-50395714D02*
X113456547Y-50395714D01*
X113694642Y-50062380D02*
X113694642Y-50919523D01*
X113647023Y-51014761D01*
X113551785Y-51062380D01*
X113456547Y-51062380D01*
X113266071Y-50395714D02*
X112885119Y-50395714D01*
X113123214Y-50062380D02*
X113123214Y-50919523D01*
X113075595Y-51014761D01*
X112980357Y-51062380D01*
X112885119Y-51062380D01*
X112551785Y-50395714D02*
X112551785Y-51395714D01*
X112551785Y-50443333D02*
X112456547Y-50395714D01*
X112266071Y-50395714D01*
X112170833Y-50443333D01*
X112123214Y-50490952D01*
X112075595Y-50586190D01*
X112075595Y-50871904D01*
X112123214Y-50967142D01*
X112170833Y-51014761D01*
X112266071Y-51062380D01*
X112456547Y-51062380D01*
X112551785Y-51014761D01*
X111694642Y-51014761D02*
X111599404Y-51062380D01*
X111408928Y-51062380D01*
X111313690Y-51014761D01*
X111266071Y-50919523D01*
X111266071Y-50871904D01*
X111313690Y-50776666D01*
X111408928Y-50729047D01*
X111551785Y-50729047D01*
X111647023Y-50681428D01*
X111694642Y-50586190D01*
X111694642Y-50538571D01*
X111647023Y-50443333D01*
X111551785Y-50395714D01*
X111408928Y-50395714D01*
X111313690Y-50443333D01*
X110837500Y-50967142D02*
X110789880Y-51014761D01*
X110837500Y-51062380D01*
X110885119Y-51014761D01*
X110837500Y-50967142D01*
X110837500Y-51062380D01*
X110837500Y-50443333D02*
X110789880Y-50490952D01*
X110837500Y-50538571D01*
X110885119Y-50490952D01*
X110837500Y-50443333D01*
X110837500Y-50538571D01*
X109647023Y-50014761D02*
X110504166Y-51300476D01*
X108599404Y-50014761D02*
X109456547Y-51300476D01*
X107837500Y-50395714D02*
X107837500Y-51205238D01*
X107885119Y-51300476D01*
X107932738Y-51348095D01*
X108027976Y-51395714D01*
X108170833Y-51395714D01*
X108266071Y-51348095D01*
X107837500Y-51014761D02*
X107932738Y-51062380D01*
X108123214Y-51062380D01*
X108218452Y-51014761D01*
X108266071Y-50967142D01*
X108313690Y-50871904D01*
X108313690Y-50586190D01*
X108266071Y-50490952D01*
X108218452Y-50443333D01*
X108123214Y-50395714D01*
X107932738Y-50395714D01*
X107837500Y-50443333D01*
X107361309Y-51062380D02*
X107361309Y-50395714D01*
X107361309Y-50062380D02*
X107408928Y-50110000D01*
X107361309Y-50157619D01*
X107313690Y-50110000D01*
X107361309Y-50062380D01*
X107361309Y-50157619D01*
X107027976Y-50395714D02*
X106647023Y-50395714D01*
X106885119Y-50062380D02*
X106885119Y-50919523D01*
X106837500Y-51014761D01*
X106742261Y-51062380D01*
X106647023Y-51062380D01*
X106313690Y-51062380D02*
X106313690Y-50062380D01*
X105885119Y-51062380D02*
X105885119Y-50538571D01*
X105932738Y-50443333D01*
X106027976Y-50395714D01*
X106170833Y-50395714D01*
X106266071Y-50443333D01*
X106313690Y-50490952D01*
X104980357Y-50395714D02*
X104980357Y-51062380D01*
X105408928Y-50395714D02*
X105408928Y-50919523D01*
X105361309Y-51014761D01*
X105266071Y-51062380D01*
X105123214Y-51062380D01*
X105027976Y-51014761D01*
X104980357Y-50967142D01*
X104504166Y-51062380D02*
X104504166Y-50062380D01*
X104504166Y-50443333D02*
X104408928Y-50395714D01*
X104218452Y-50395714D01*
X104123214Y-50443333D01*
X104075595Y-50490952D01*
X104027976Y-50586190D01*
X104027976Y-50871904D01*
X104075595Y-50967142D01*
X104123214Y-51014761D01*
X104218452Y-51062380D01*
X104408928Y-51062380D01*
X104504166Y-51014761D01*
X103599404Y-50967142D02*
X103551785Y-51014761D01*
X103599404Y-51062380D01*
X103647023Y-51014761D01*
X103599404Y-50967142D01*
X103599404Y-51062380D01*
X102694642Y-51014761D02*
X102789880Y-51062380D01*
X102980357Y-51062380D01*
X103075595Y-51014761D01*
X103123214Y-50967142D01*
X103170833Y-50871904D01*
X103170833Y-50586190D01*
X103123214Y-50490952D01*
X103075595Y-50443333D01*
X102980357Y-50395714D01*
X102789880Y-50395714D01*
X102694642Y-50443333D01*
X102123214Y-51062380D02*
X102218452Y-51014761D01*
X102266071Y-50967142D01*
X102313690Y-50871904D01*
X102313690Y-50586190D01*
X102266071Y-50490952D01*
X102218452Y-50443333D01*
X102123214Y-50395714D01*
X101980357Y-50395714D01*
X101885119Y-50443333D01*
X101837500Y-50490952D01*
X101789880Y-50586190D01*
X101789880Y-50871904D01*
X101837500Y-50967142D01*
X101885119Y-51014761D01*
X101980357Y-51062380D01*
X102123214Y-51062380D01*
X101361309Y-51062380D02*
X101361309Y-50395714D01*
X101361309Y-50490952D02*
X101313690Y-50443333D01*
X101218452Y-50395714D01*
X101075595Y-50395714D01*
X100980357Y-50443333D01*
X100932738Y-50538571D01*
X100932738Y-51062380D01*
X100932738Y-50538571D02*
X100885119Y-50443333D01*
X100789880Y-50395714D01*
X100647023Y-50395714D01*
X100551785Y-50443333D01*
X100504166Y-50538571D01*
X100504166Y-51062380D01*
X99313690Y-50014761D02*
X100170833Y-51300476D01*
X99027976Y-51014761D02*
X98885119Y-51062380D01*
X98647023Y-51062380D01*
X98551785Y-51014761D01*
X98504166Y-50967142D01*
X98456547Y-50871904D01*
X98456547Y-50776666D01*
X98504166Y-50681428D01*
X98551785Y-50633809D01*
X98647023Y-50586190D01*
X98837500Y-50538571D01*
X98932738Y-50490952D01*
X98980357Y-50443333D01*
X99027976Y-50348095D01*
X99027976Y-50252857D01*
X98980357Y-50157619D01*
X98932738Y-50110000D01*
X98837500Y-50062380D01*
X98599404Y-50062380D01*
X98456547Y-50110000D01*
X97837500Y-50062380D02*
X97647023Y-50062380D01*
X97551785Y-50110000D01*
X97456547Y-50205238D01*
X97408928Y-50395714D01*
X97408928Y-50729047D01*
X97456547Y-50919523D01*
X97551785Y-51014761D01*
X97647023Y-51062380D01*
X97837500Y-51062380D01*
X97932738Y-51014761D01*
X98027976Y-50919523D01*
X98075595Y-50729047D01*
X98075595Y-50395714D01*
X98027976Y-50205238D01*
X97932738Y-50110000D01*
X97837500Y-50062380D01*
X96980357Y-51062380D02*
X96980357Y-50062380D01*
X96408928Y-51062380D01*
X96408928Y-50062380D01*
X95932738Y-51062380D02*
X95932738Y-50062380D01*
X94885119Y-50967142D02*
X94932738Y-51014761D01*
X95075595Y-51062380D01*
X95170833Y-51062380D01*
X95313690Y-51014761D01*
X95408928Y-50919523D01*
X95456547Y-50824285D01*
X95504166Y-50633809D01*
X95504166Y-50490952D01*
X95456547Y-50300476D01*
X95408928Y-50205238D01*
X95313690Y-50110000D01*
X95170833Y-50062380D01*
X95075595Y-50062380D01*
X94932738Y-50110000D01*
X94885119Y-50157619D01*
X94551785Y-50062380D02*
X93932738Y-50062380D01*
X94266071Y-50443333D01*
X94123214Y-50443333D01*
X94027976Y-50490952D01*
X93980357Y-50538571D01*
X93932738Y-50633809D01*
X93932738Y-50871904D01*
X93980357Y-50967142D01*
X94027976Y-51014761D01*
X94123214Y-51062380D01*
X94408928Y-51062380D01*
X94504166Y-51014761D01*
X94551785Y-50967142D01*
X93504166Y-51062380D02*
X93504166Y-50062380D01*
X93266071Y-50062380D01*
X93123214Y-50110000D01*
X93027976Y-50205238D01*
X92980357Y-50300476D01*
X92932738Y-50490952D01*
X92932738Y-50633809D01*
X92980357Y-50824285D01*
X93027976Y-50919523D01*
X93123214Y-51014761D01*
X93266071Y-51062380D01*
X93504166Y-51062380D01*
X91789880Y-50014761D02*
X92647023Y-51300476D01*
X91027976Y-50395714D02*
X91027976Y-51205238D01*
X91075595Y-51300476D01*
X91123214Y-51348095D01*
X91218452Y-51395714D01*
X91361309Y-51395714D01*
X91456547Y-51348095D01*
X91027976Y-51014761D02*
X91123214Y-51062380D01*
X91313690Y-51062380D01*
X91408928Y-51014761D01*
X91456547Y-50967142D01*
X91504166Y-50871904D01*
X91504166Y-50586190D01*
X91456547Y-50490952D01*
X91408928Y-50443333D01*
X91313690Y-50395714D01*
X91123214Y-50395714D01*
X91027976Y-50443333D01*
X90123214Y-51062380D02*
X90123214Y-50538571D01*
X90170833Y-50443333D01*
X90266071Y-50395714D01*
X90456547Y-50395714D01*
X90551785Y-50443333D01*
X90123214Y-51014761D02*
X90218452Y-51062380D01*
X90456547Y-51062380D01*
X90551785Y-51014761D01*
X90599404Y-50919523D01*
X90599404Y-50824285D01*
X90551785Y-50729047D01*
X90456547Y-50681428D01*
X90218452Y-50681428D01*
X90123214Y-50633809D01*
X89647023Y-51062380D02*
X89647023Y-50395714D01*
X89647023Y-50490952D02*
X89599404Y-50443333D01*
X89504166Y-50395714D01*
X89361309Y-50395714D01*
X89266071Y-50443333D01*
X89218452Y-50538571D01*
X89218452Y-51062380D01*
X89218452Y-50538571D02*
X89170833Y-50443333D01*
X89075595Y-50395714D01*
X88932738Y-50395714D01*
X88837500Y-50443333D01*
X88789880Y-50538571D01*
X88789880Y-51062380D01*
X87932738Y-51014761D02*
X88027976Y-51062380D01*
X88218452Y-51062380D01*
X88313690Y-51014761D01*
X88361309Y-50919523D01*
X88361309Y-50538571D01*
X88313690Y-50443333D01*
X88218452Y-50395714D01*
X88027976Y-50395714D01*
X87932738Y-50443333D01*
X87885119Y-50538571D01*
X87885119Y-50633809D01*
X88361309Y-50729047D01*
X87456547Y-51062380D02*
X87456547Y-50062380D01*
X87456547Y-50443333D02*
X87361309Y-50395714D01*
X87170833Y-50395714D01*
X87075595Y-50443333D01*
X87027976Y-50490952D01*
X86980357Y-50586190D01*
X86980357Y-50871904D01*
X87027976Y-50967142D01*
X87075595Y-51014761D01*
X87170833Y-51062380D01*
X87361309Y-51062380D01*
X87456547Y-51014761D01*
X86408928Y-51062380D02*
X86504166Y-51014761D01*
X86551785Y-50967142D01*
X86599404Y-50871904D01*
X86599404Y-50586190D01*
X86551785Y-50490952D01*
X86504166Y-50443333D01*
X86408928Y-50395714D01*
X86266071Y-50395714D01*
X86170833Y-50443333D01*
X86123214Y-50490952D01*
X86075595Y-50586190D01*
X86075595Y-50871904D01*
X86123214Y-50967142D01*
X86170833Y-51014761D01*
X86266071Y-51062380D01*
X86408928Y-51062380D01*
X85742261Y-50395714D02*
X85504166Y-51062380D01*
X85266071Y-50395714D02*
X85504166Y-51062380D01*
X85599404Y-51300476D01*
X85647023Y-51348095D01*
X85742261Y-51395714D01*
X84885119Y-50681428D02*
X84123214Y-50681428D01*
X83647023Y-51062380D02*
X83647023Y-50395714D01*
X83647023Y-50490952D02*
X83599404Y-50443333D01*
X83504166Y-50395714D01*
X83361309Y-50395714D01*
X83266071Y-50443333D01*
X83218452Y-50538571D01*
X83218452Y-51062380D01*
X83218452Y-50538571D02*
X83170833Y-50443333D01*
X83075595Y-50395714D01*
X82932738Y-50395714D01*
X82837500Y-50443333D01*
X82789880Y-50538571D01*
X82789880Y-51062380D01*
X81932738Y-51014761D02*
X82027976Y-51062380D01*
X82218452Y-51062380D01*
X82313690Y-51014761D01*
X82361309Y-50919523D01*
X82361309Y-50538571D01*
X82313690Y-50443333D01*
X82218452Y-50395714D01*
X82027976Y-50395714D01*
X81932738Y-50443333D01*
X81885119Y-50538571D01*
X81885119Y-50633809D01*
X82361309Y-50729047D01*
X81456547Y-51062380D02*
X81456547Y-50395714D01*
X81456547Y-50490952D02*
X81408928Y-50443333D01*
X81313690Y-50395714D01*
X81170833Y-50395714D01*
X81075595Y-50443333D01*
X81027976Y-50538571D01*
X81027976Y-51062380D01*
X81027976Y-50538571D02*
X80980357Y-50443333D01*
X80885119Y-50395714D01*
X80742261Y-50395714D01*
X80647023Y-50443333D01*
X80599404Y-50538571D01*
X80599404Y-51062380D01*
X79980357Y-51062380D02*
X80075595Y-51014761D01*
X80123214Y-50967142D01*
X80170833Y-50871904D01*
X80170833Y-50586190D01*
X80123214Y-50490952D01*
X80075595Y-50443333D01*
X79980357Y-50395714D01*
X79837500Y-50395714D01*
X79742261Y-50443333D01*
X79694642Y-50490952D01*
X79647023Y-50586190D01*
X79647023Y-50871904D01*
X79694642Y-50967142D01*
X79742261Y-51014761D01*
X79837500Y-51062380D01*
X79980357Y-51062380D01*
X79218452Y-51062380D02*
X79218452Y-50395714D01*
X79218452Y-50586190D02*
X79170833Y-50490952D01*
X79123214Y-50443333D01*
X79027976Y-50395714D01*
X78932738Y-50395714D01*
X78694642Y-50395714D02*
X78456547Y-51062380D01*
X78218452Y-50395714D02*
X78456547Y-51062380D01*
X78551785Y-51300476D01*
X78599404Y-51348095D01*
X78694642Y-51395714D01*
X77837500Y-51062380D02*
X77837500Y-50062380D01*
X77837500Y-50443333D02*
X77742261Y-50395714D01*
X77551785Y-50395714D01*
X77456547Y-50443333D01*
X77408928Y-50490952D01*
X77361309Y-50586190D01*
X77361309Y-50871904D01*
X77408928Y-50967142D01*
X77456547Y-51014761D01*
X77551785Y-51062380D01*
X77742261Y-51062380D01*
X77837500Y-51014761D01*
X76504166Y-51062380D02*
X76504166Y-50538571D01*
X76551785Y-50443333D01*
X76647023Y-50395714D01*
X76837500Y-50395714D01*
X76932738Y-50443333D01*
X76504166Y-51014761D02*
X76599404Y-51062380D01*
X76837500Y-51062380D01*
X76932738Y-51014761D01*
X76980357Y-50919523D01*
X76980357Y-50824285D01*
X76932738Y-50729047D01*
X76837500Y-50681428D01*
X76599404Y-50681428D01*
X76504166Y-50633809D01*
X75599404Y-51014761D02*
X75694642Y-51062380D01*
X75885119Y-51062380D01*
X75980357Y-51014761D01*
X76027976Y-50967142D01*
X76075595Y-50871904D01*
X76075595Y-50586190D01*
X76027976Y-50490952D01*
X75980357Y-50443333D01*
X75885119Y-50395714D01*
X75694642Y-50395714D01*
X75599404Y-50443333D01*
X75170833Y-51062380D02*
X75170833Y-50062380D01*
X75075595Y-50681428D02*
X74789880Y-51062380D01*
X74789880Y-50395714D02*
X75170833Y-50776666D01*
X73932738Y-50395714D02*
X73932738Y-51062380D01*
X74361309Y-50395714D02*
X74361309Y-50919523D01*
X74313690Y-51014761D01*
X74218452Y-51062380D01*
X74075595Y-51062380D01*
X73980357Y-51014761D01*
X73932738Y-50967142D01*
X73456547Y-50395714D02*
X73456547Y-51395714D01*
X73456547Y-50443333D02*
X73361309Y-50395714D01*
X73170833Y-50395714D01*
X73075595Y-50443333D01*
X73027976Y-50490952D01*
X72980357Y-50586190D01*
X72980357Y-50871904D01*
X73027976Y-50967142D01*
X73075595Y-51014761D01*
X73170833Y-51062380D01*
X73361309Y-51062380D01*
X73456547Y-51014761D01*
X114599404Y-52712380D02*
X114599404Y-51712380D01*
X114361309Y-51712380D01*
X114218452Y-51760000D01*
X114123214Y-51855238D01*
X114075595Y-51950476D01*
X114027976Y-52140952D01*
X114027976Y-52283809D01*
X114075595Y-52474285D01*
X114123214Y-52569523D01*
X114218452Y-52664761D01*
X114361309Y-52712380D01*
X114599404Y-52712380D01*
X113218452Y-52664761D02*
X113313690Y-52712380D01*
X113504166Y-52712380D01*
X113599404Y-52664761D01*
X113647023Y-52569523D01*
X113647023Y-52188571D01*
X113599404Y-52093333D01*
X113504166Y-52045714D01*
X113313690Y-52045714D01*
X113218452Y-52093333D01*
X113170833Y-52188571D01*
X113170833Y-52283809D01*
X113647023Y-52379047D01*
X112789880Y-52664761D02*
X112694642Y-52712380D01*
X112504166Y-52712380D01*
X112408928Y-52664761D01*
X112361309Y-52569523D01*
X112361309Y-52521904D01*
X112408928Y-52426666D01*
X112504166Y-52379047D01*
X112647023Y-52379047D01*
X112742261Y-52331428D01*
X112789880Y-52236190D01*
X112789880Y-52188571D01*
X112742261Y-52093333D01*
X112647023Y-52045714D01*
X112504166Y-52045714D01*
X112408928Y-52093333D01*
X111932738Y-52712380D02*
X111932738Y-52045714D01*
X111932738Y-51712380D02*
X111980357Y-51760000D01*
X111932738Y-51807619D01*
X111885119Y-51760000D01*
X111932738Y-51712380D01*
X111932738Y-51807619D01*
X111027976Y-52045714D02*
X111027976Y-52855238D01*
X111075595Y-52950476D01*
X111123214Y-52998095D01*
X111218452Y-53045714D01*
X111361309Y-53045714D01*
X111456547Y-52998095D01*
X111027976Y-52664761D02*
X111123214Y-52712380D01*
X111313690Y-52712380D01*
X111408928Y-52664761D01*
X111456547Y-52617142D01*
X111504166Y-52521904D01*
X111504166Y-52236190D01*
X111456547Y-52140952D01*
X111408928Y-52093333D01*
X111313690Y-52045714D01*
X111123214Y-52045714D01*
X111027976Y-52093333D01*
X110551785Y-52045714D02*
X110551785Y-52712380D01*
X110551785Y-52140952D02*
X110504166Y-52093333D01*
X110408928Y-52045714D01*
X110266071Y-52045714D01*
X110170833Y-52093333D01*
X110123214Y-52188571D01*
X110123214Y-52712380D01*
X109266071Y-52664761D02*
X109361309Y-52712380D01*
X109551785Y-52712380D01*
X109647023Y-52664761D01*
X109694642Y-52569523D01*
X109694642Y-52188571D01*
X109647023Y-52093333D01*
X109551785Y-52045714D01*
X109361309Y-52045714D01*
X109266071Y-52093333D01*
X109218452Y-52188571D01*
X109218452Y-52283809D01*
X109694642Y-52379047D01*
X108361309Y-52712380D02*
X108361309Y-51712380D01*
X108361309Y-52664761D02*
X108456547Y-52712380D01*
X108647023Y-52712380D01*
X108742261Y-52664761D01*
X108789880Y-52617142D01*
X108837500Y-52521904D01*
X108837500Y-52236190D01*
X108789880Y-52140952D01*
X108742261Y-52093333D01*
X108647023Y-52045714D01*
X108456547Y-52045714D01*
X108361309Y-52093333D01*
X107123214Y-52712380D02*
X107123214Y-52045714D01*
X107123214Y-51712380D02*
X107170833Y-51760000D01*
X107123214Y-51807619D01*
X107075595Y-51760000D01*
X107123214Y-51712380D01*
X107123214Y-51807619D01*
X106647023Y-52045714D02*
X106647023Y-52712380D01*
X106647023Y-52140952D02*
X106599404Y-52093333D01*
X106504166Y-52045714D01*
X106361309Y-52045714D01*
X106266071Y-52093333D01*
X106218452Y-52188571D01*
X106218452Y-52712380D01*
X105027976Y-52664761D02*
X104885119Y-52712380D01*
X104647023Y-52712380D01*
X104551785Y-52664761D01*
X104504166Y-52617142D01*
X104456547Y-52521904D01*
X104456547Y-52426666D01*
X104504166Y-52331428D01*
X104551785Y-52283809D01*
X104647023Y-52236190D01*
X104837500Y-52188571D01*
X104932738Y-52140952D01*
X104980357Y-52093333D01*
X105027976Y-51998095D01*
X105027976Y-51902857D01*
X104980357Y-51807619D01*
X104932738Y-51760000D01*
X104837500Y-51712380D01*
X104599404Y-51712380D01*
X104456547Y-51760000D01*
X104027976Y-52712380D02*
X104027976Y-51712380D01*
X103599404Y-52712380D02*
X103599404Y-52188571D01*
X103647023Y-52093333D01*
X103742261Y-52045714D01*
X103885119Y-52045714D01*
X103980357Y-52093333D01*
X104027976Y-52140952D01*
X102694642Y-52712380D02*
X102694642Y-52188571D01*
X102742261Y-52093333D01*
X102837500Y-52045714D01*
X103027976Y-52045714D01*
X103123214Y-52093333D01*
X102694642Y-52664761D02*
X102789880Y-52712380D01*
X103027976Y-52712380D01*
X103123214Y-52664761D01*
X103170833Y-52569523D01*
X103170833Y-52474285D01*
X103123214Y-52379047D01*
X103027976Y-52331428D01*
X102789880Y-52331428D01*
X102694642Y-52283809D01*
X102218452Y-52045714D02*
X102218452Y-52712380D01*
X102218452Y-52140952D02*
X102170833Y-52093333D01*
X102075595Y-52045714D01*
X101932738Y-52045714D01*
X101837500Y-52093333D01*
X101789880Y-52188571D01*
X101789880Y-52712380D01*
X100885119Y-52045714D02*
X100885119Y-52855238D01*
X100932738Y-52950476D01*
X100980357Y-52998095D01*
X101075595Y-53045714D01*
X101218452Y-53045714D01*
X101313690Y-52998095D01*
X100885119Y-52664761D02*
X100980357Y-52712380D01*
X101170833Y-52712380D01*
X101266071Y-52664761D01*
X101313690Y-52617142D01*
X101361309Y-52521904D01*
X101361309Y-52236190D01*
X101313690Y-52140952D01*
X101266071Y-52093333D01*
X101170833Y-52045714D01*
X100980357Y-52045714D01*
X100885119Y-52093333D01*
X100408928Y-52712380D02*
X100408928Y-51712380D01*
X99980357Y-52712380D02*
X99980357Y-52188571D01*
X100027976Y-52093333D01*
X100123214Y-52045714D01*
X100266071Y-52045714D01*
X100361309Y-52093333D01*
X100408928Y-52140952D01*
X99075595Y-52712380D02*
X99075595Y-52188571D01*
X99123214Y-52093333D01*
X99218452Y-52045714D01*
X99408928Y-52045714D01*
X99504166Y-52093333D01*
X99075595Y-52664761D02*
X99170833Y-52712380D01*
X99408928Y-52712380D01*
X99504166Y-52664761D01*
X99551785Y-52569523D01*
X99551785Y-52474285D01*
X99504166Y-52379047D01*
X99408928Y-52331428D01*
X99170833Y-52331428D01*
X99075595Y-52283809D01*
X98599404Y-52712380D02*
X98599404Y-52045714D01*
X98599404Y-51712380D02*
X98647023Y-51760000D01*
X98599404Y-51807619D01*
X98551785Y-51760000D01*
X98599404Y-51712380D01*
X98599404Y-51807619D01*
X98075595Y-52664761D02*
X98075595Y-52712380D01*
X98123214Y-52807619D01*
X98170833Y-52855238D01*
X96885119Y-52712380D02*
X96885119Y-51712380D01*
X96885119Y-52093333D02*
X96789880Y-52045714D01*
X96599404Y-52045714D01*
X96504166Y-52093333D01*
X96456547Y-52140952D01*
X96408928Y-52236190D01*
X96408928Y-52521904D01*
X96456547Y-52617142D01*
X96504166Y-52664761D01*
X96599404Y-52712380D01*
X96789880Y-52712380D01*
X96885119Y-52664761D01*
X96075595Y-52045714D02*
X95837500Y-52712380D01*
X95599404Y-52045714D02*
X95837500Y-52712380D01*
X95932738Y-52950476D01*
X95980357Y-52998095D01*
X96075595Y-53045714D01*
X94504166Y-52664761D02*
X94361309Y-52712380D01*
X94123214Y-52712380D01*
X94027976Y-52664761D01*
X93980357Y-52617142D01*
X93932738Y-52521904D01*
X93932738Y-52426666D01*
X93980357Y-52331428D01*
X94027976Y-52283809D01*
X94123214Y-52236190D01*
X94313690Y-52188571D01*
X94408928Y-52140952D01*
X94456547Y-52093333D01*
X94504166Y-51998095D01*
X94504166Y-51902857D01*
X94456547Y-51807619D01*
X94408928Y-51760000D01*
X94313690Y-51712380D01*
X94075595Y-51712380D01*
X93932738Y-51760000D01*
X93313690Y-51712380D02*
X93123214Y-51712380D01*
X93027976Y-51760000D01*
X92932738Y-51855238D01*
X92885119Y-52045714D01*
X92885119Y-52379047D01*
X92932738Y-52569523D01*
X93027976Y-52664761D01*
X93123214Y-52712380D01*
X93313690Y-52712380D01*
X93408928Y-52664761D01*
X93504166Y-52569523D01*
X93551785Y-52379047D01*
X93551785Y-52045714D01*
X93504166Y-51855238D01*
X93408928Y-51760000D01*
X93313690Y-51712380D01*
X92456547Y-52712380D02*
X92456547Y-51712380D01*
X91885119Y-52712380D01*
X91885119Y-51712380D01*
X91408928Y-52712380D02*
X91408928Y-51712380D01*
X90361309Y-52617142D02*
X90408928Y-52664761D01*
X90551785Y-52712380D01*
X90647023Y-52712380D01*
X90789880Y-52664761D01*
X90885119Y-52569523D01*
X90932738Y-52474285D01*
X90980357Y-52283809D01*
X90980357Y-52140952D01*
X90932738Y-51950476D01*
X90885119Y-51855238D01*
X90789880Y-51760000D01*
X90647023Y-51712380D01*
X90551785Y-51712380D01*
X90408928Y-51760000D01*
X90361309Y-51807619D01*
X90027976Y-51712380D02*
X89408928Y-51712380D01*
X89742261Y-52093333D01*
X89599404Y-52093333D01*
X89504166Y-52140952D01*
X89456547Y-52188571D01*
X89408928Y-52283809D01*
X89408928Y-52521904D01*
X89456547Y-52617142D01*
X89504166Y-52664761D01*
X89599404Y-52712380D01*
X89885119Y-52712380D01*
X89980357Y-52664761D01*
X90027976Y-52617142D01*
X88980357Y-52712380D02*
X88980357Y-51712380D01*
X88742261Y-51712380D01*
X88599404Y-51760000D01*
X88504166Y-51855238D01*
X88456547Y-51950476D01*
X88408928Y-52140952D01*
X88408928Y-52283809D01*
X88456547Y-52474285D01*
X88504166Y-52569523D01*
X88599404Y-52664761D01*
X88742261Y-52712380D01*
X88980357Y-52712380D01*
X114647023Y-53457619D02*
X114599404Y-53410000D01*
X114504166Y-53362380D01*
X114266071Y-53362380D01*
X114170833Y-53410000D01*
X114123214Y-53457619D01*
X114075595Y-53552857D01*
X114075595Y-53648095D01*
X114123214Y-53790952D01*
X114694642Y-54362380D01*
X114075595Y-54362380D01*
X113456547Y-53362380D02*
X113361309Y-53362380D01*
X113266071Y-53410000D01*
X113218452Y-53457619D01*
X113170833Y-53552857D01*
X113123214Y-53743333D01*
X113123214Y-53981428D01*
X113170833Y-54171904D01*
X113218452Y-54267142D01*
X113266071Y-54314761D01*
X113361309Y-54362380D01*
X113456547Y-54362380D01*
X113551785Y-54314761D01*
X113599404Y-54267142D01*
X113647023Y-54171904D01*
X113694642Y-53981428D01*
X113694642Y-53743333D01*
X113647023Y-53552857D01*
X113599404Y-53457619D01*
X113551785Y-53410000D01*
X113456547Y-53362380D01*
X112742261Y-53457619D02*
X112694642Y-53410000D01*
X112599404Y-53362380D01*
X112361309Y-53362380D01*
X112266071Y-53410000D01*
X112218452Y-53457619D01*
X112170833Y-53552857D01*
X112170833Y-53648095D01*
X112218452Y-53790952D01*
X112789880Y-54362380D01*
X112170833Y-54362380D01*
X111837500Y-53362380D02*
X111218452Y-53362380D01*
X111551785Y-53743333D01*
X111408928Y-53743333D01*
X111313690Y-53790952D01*
X111266071Y-53838571D01*
X111218452Y-53933809D01*
X111218452Y-54171904D01*
X111266071Y-54267142D01*
X111313690Y-54314761D01*
X111408928Y-54362380D01*
X111694642Y-54362380D01*
X111789880Y-54314761D01*
X111837500Y-54267142D01*
X110789880Y-54267142D02*
X110742261Y-54314761D01*
X110789880Y-54362380D01*
X110837500Y-54314761D01*
X110789880Y-54267142D01*
X110789880Y-54362380D01*
X110313690Y-54362380D02*
X110313690Y-53362380D01*
X109980357Y-54076666D01*
X109647023Y-53362380D01*
X109647023Y-54362380D01*
X108742261Y-54362380D02*
X108742261Y-53838571D01*
X108789880Y-53743333D01*
X108885119Y-53695714D01*
X109075595Y-53695714D01*
X109170833Y-53743333D01*
X108742261Y-54314761D02*
X108837500Y-54362380D01*
X109075595Y-54362380D01*
X109170833Y-54314761D01*
X109218452Y-54219523D01*
X109218452Y-54124285D01*
X109170833Y-54029047D01*
X109075595Y-53981428D01*
X108837500Y-53981428D01*
X108742261Y-53933809D01*
X108266071Y-54362380D02*
X108266071Y-53695714D01*
X108266071Y-53886190D02*
X108218452Y-53790952D01*
X108170833Y-53743333D01*
X108075595Y-53695714D01*
X107980357Y-53695714D01*
X107647023Y-54267142D02*
X107599404Y-54314761D01*
X107647023Y-54362380D01*
X107694642Y-54314761D01*
X107647023Y-54267142D01*
X107647023Y-54362380D01*
X106647023Y-54362380D02*
X107218452Y-54362380D01*
X106932738Y-54362380D02*
X106932738Y-53362380D01*
X107027976Y-53505238D01*
X107123214Y-53600476D01*
X107218452Y-53648095D01*
X105742261Y-53362380D02*
X106218452Y-53362380D01*
X106266071Y-53838571D01*
X106218452Y-53790952D01*
X106123214Y-53743333D01*
X105885119Y-53743333D01*
X105789880Y-53790952D01*
X105742261Y-53838571D01*
X105694642Y-53933809D01*
X105694642Y-54171904D01*
X105742261Y-54267142D01*
X105789880Y-54314761D01*
X105885119Y-54362380D01*
X106123214Y-54362380D01*
X106218452Y-54314761D01*
X106266071Y-54267142D01*
D11*
%TO.C,G\u002A\u002A\u002A*%
G36*
X73151010Y-53297539D02*
G01*
X73079155Y-53356073D01*
X72977546Y-53445224D01*
X72854018Y-53558114D01*
X72716407Y-53687865D01*
X72713862Y-53690300D01*
X72573697Y-53821959D01*
X72444965Y-53938209D01*
X72336158Y-54031748D01*
X72255767Y-54095275D01*
X72212590Y-54121411D01*
X72169205Y-54145442D01*
X72137166Y-54201278D01*
X72108802Y-54303396D01*
X72103677Y-54326951D01*
X72028613Y-54553840D01*
X71899158Y-54794303D01*
X71720546Y-55040074D01*
X71499726Y-55281192D01*
X71382243Y-55393694D01*
X71271353Y-55494337D01*
X71179917Y-55571778D01*
X71122878Y-55613475D01*
X71052395Y-55663569D01*
X71025359Y-55701121D01*
X71046588Y-55717592D01*
X71064438Y-55717007D01*
X71117336Y-55709896D01*
X71207538Y-55696546D01*
X71262875Y-55688039D01*
X71395422Y-55671961D01*
X71533910Y-55661803D01*
X71572091Y-55660531D01*
X71654301Y-55654475D01*
X71722967Y-55633782D01*
X71796611Y-55589385D01*
X71893756Y-55512221D01*
X71919441Y-55490524D01*
X72090167Y-55328648D01*
X72267795Y-55130156D01*
X72446249Y-54904686D01*
X72619454Y-54661872D01*
X72781336Y-54411350D01*
X72925820Y-54162756D01*
X73046829Y-53925724D01*
X73138289Y-53709891D01*
X73194126Y-53524892D01*
X73206578Y-53449026D01*
X73213041Y-53341863D01*
X73203520Y-53287664D01*
X73185276Y-53276500D01*
X73151010Y-53297539D01*
G37*
X73151010Y-53297539D02*
X73079155Y-53356073D01*
X72977546Y-53445224D01*
X72854018Y-53558114D01*
X72716407Y-53687865D01*
X72713862Y-53690300D01*
X72573697Y-53821959D01*
X72444965Y-53938209D01*
X72336158Y-54031748D01*
X72255767Y-54095275D01*
X72212590Y-54121411D01*
X72169205Y-54145442D01*
X72137166Y-54201278D01*
X72108802Y-54303396D01*
X72103677Y-54326951D01*
X72028613Y-54553840D01*
X71899158Y-54794303D01*
X71720546Y-55040074D01*
X71499726Y-55281192D01*
X71382243Y-55393694D01*
X71271353Y-55494337D01*
X71179917Y-55571778D01*
X71122878Y-55613475D01*
X71052395Y-55663569D01*
X71025359Y-55701121D01*
X71046588Y-55717592D01*
X71064438Y-55717007D01*
X71117336Y-55709896D01*
X71207538Y-55696546D01*
X71262875Y-55688039D01*
X71395422Y-55671961D01*
X71533910Y-55661803D01*
X71572091Y-55660531D01*
X71654301Y-55654475D01*
X71722967Y-55633782D01*
X71796611Y-55589385D01*
X71893756Y-55512221D01*
X71919441Y-55490524D01*
X72090167Y-55328648D01*
X72267795Y-55130156D01*
X72446249Y-54904686D01*
X72619454Y-54661872D01*
X72781336Y-54411350D01*
X72925820Y-54162756D01*
X73046829Y-53925724D01*
X73138289Y-53709891D01*
X73194126Y-53524892D01*
X73206578Y-53449026D01*
X73213041Y-53341863D01*
X73203520Y-53287664D01*
X73185276Y-53276500D01*
X73151010Y-53297539D01*
G36*
X71520193Y-54496948D02*
G01*
X71529522Y-54503090D01*
X71546880Y-54541984D01*
X71544586Y-54601384D01*
X71545881Y-54692318D01*
X71567612Y-54776262D01*
X71589040Y-54847877D01*
X71573320Y-54896079D01*
X71549633Y-54921649D01*
X71510564Y-54956554D01*
X71510285Y-54943517D01*
X71526826Y-54909914D01*
X71542991Y-54841025D01*
X71533952Y-54802443D01*
X71507471Y-54792930D01*
X71462559Y-54829857D01*
X71395844Y-54914503D01*
X71339173Y-55001504D01*
X71305913Y-55070459D01*
X71302268Y-55101348D01*
X71303983Y-55117237D01*
X71294700Y-55110337D01*
X71252074Y-55107321D01*
X71225718Y-55122488D01*
X71199605Y-55164388D01*
X71219863Y-55202933D01*
X71239760Y-55251227D01*
X71215582Y-55286033D01*
X71186735Y-55305848D01*
X71192055Y-55273570D01*
X71193706Y-55268812D01*
X71198557Y-55221577D01*
X71165186Y-55222061D01*
X71096876Y-55269927D01*
X71085171Y-55279987D01*
X71012981Y-55339058D01*
X70918279Y-55411586D01*
X70874944Y-55443397D01*
X70802998Y-55502991D01*
X70762811Y-55551660D01*
X70759858Y-55570561D01*
X70751634Y-55587070D01*
X70711227Y-55579636D01*
X70657077Y-55574968D01*
X70643750Y-55592110D01*
X70667994Y-55623394D01*
X70732493Y-55622065D01*
X70824897Y-55591081D01*
X70932859Y-55533397D01*
X70958406Y-55516789D01*
X71095439Y-55419393D01*
X71214262Y-55325771D01*
X71141167Y-55325771D01*
X71126461Y-55367159D01*
X71114709Y-55372000D01*
X71103759Y-55361850D01*
X71056500Y-55361850D01*
X71033936Y-55396247D01*
X70979385Y-55450453D01*
X70912563Y-55507411D01*
X70853186Y-55550062D01*
X70824677Y-55562425D01*
X70828859Y-55544444D01*
X70870683Y-55499599D01*
X70888177Y-55483618D01*
X70975941Y-55406523D01*
X71026607Y-55364886D01*
X71050119Y-55351511D01*
X71056424Y-55359204D01*
X71056500Y-55361850D01*
X71103759Y-55361850D01*
X71088758Y-55347945D01*
X71088250Y-55342123D01*
X71110997Y-55298484D01*
X71114709Y-55295895D01*
X71137901Y-55305608D01*
X71141167Y-55325771D01*
X71214262Y-55325771D01*
X71218588Y-55322363D01*
X71317838Y-55234513D01*
X71339658Y-55211182D01*
X71302716Y-55211182D01*
X71298373Y-55213250D01*
X71269399Y-55190898D01*
X71262875Y-55181500D01*
X71254785Y-55151817D01*
X71259128Y-55149750D01*
X71288102Y-55172101D01*
X71294625Y-55181500D01*
X71302716Y-55211182D01*
X71339658Y-55211182D01*
X71382266Y-55165625D01*
X71374000Y-55165625D01*
X71358125Y-55181500D01*
X71342250Y-55165625D01*
X71358125Y-55149750D01*
X71374000Y-55165625D01*
X71382266Y-55165625D01*
X71383172Y-55164657D01*
X71404709Y-55124063D01*
X71424960Y-55098847D01*
X71440668Y-55104082D01*
X71458807Y-55104546D01*
X71444570Y-55070375D01*
X71374000Y-55070375D01*
X71358125Y-55086250D01*
X71342250Y-55070375D01*
X71358125Y-55054500D01*
X71374000Y-55070375D01*
X71444570Y-55070375D01*
X71439551Y-55058331D01*
X71425874Y-54993386D01*
X71436997Y-54922419D01*
X71466244Y-54872576D01*
X71487360Y-54864000D01*
X71486851Y-54887464D01*
X71467426Y-54930908D01*
X71443683Y-54999593D01*
X71459206Y-55028607D01*
X71502680Y-55016673D01*
X71562793Y-54962514D01*
X71578194Y-54943413D01*
X71630065Y-54868433D01*
X71644082Y-54820808D01*
X71625446Y-54781219D01*
X71622767Y-54777901D01*
X71593503Y-54711539D01*
X71580423Y-54620961D01*
X71580375Y-54615638D01*
X71569729Y-54536225D01*
X71542530Y-54497072D01*
X71539894Y-54496316D01*
X71520193Y-54496948D01*
G37*
X71520193Y-54496948D02*
X71529522Y-54503090D01*
X71546880Y-54541984D01*
X71544586Y-54601384D01*
X71545881Y-54692318D01*
X71567612Y-54776262D01*
X71589040Y-54847877D01*
X71573320Y-54896079D01*
X71549633Y-54921649D01*
X71510564Y-54956554D01*
X71510285Y-54943517D01*
X71526826Y-54909914D01*
X71542991Y-54841025D01*
X71533952Y-54802443D01*
X71507471Y-54792930D01*
X71462559Y-54829857D01*
X71395844Y-54914503D01*
X71339173Y-55001504D01*
X71305913Y-55070459D01*
X71302268Y-55101348D01*
X71303983Y-55117237D01*
X71294700Y-55110337D01*
X71252074Y-55107321D01*
X71225718Y-55122488D01*
X71199605Y-55164388D01*
X71219863Y-55202933D01*
X71239760Y-55251227D01*
X71215582Y-55286033D01*
X71186735Y-55305848D01*
X71192055Y-55273570D01*
X71193706Y-55268812D01*
X71198557Y-55221577D01*
X71165186Y-55222061D01*
X71096876Y-55269927D01*
X71085171Y-55279987D01*
X71012981Y-55339058D01*
X70918279Y-55411586D01*
X70874944Y-55443397D01*
X70802998Y-55502991D01*
X70762811Y-55551660D01*
X70759858Y-55570561D01*
X70751634Y-55587070D01*
X70711227Y-55579636D01*
X70657077Y-55574968D01*
X70643750Y-55592110D01*
X70667994Y-55623394D01*
X70732493Y-55622065D01*
X70824897Y-55591081D01*
X70932859Y-55533397D01*
X70958406Y-55516789D01*
X71095439Y-55419393D01*
X71214262Y-55325771D01*
X71141167Y-55325771D01*
X71126461Y-55367159D01*
X71114709Y-55372000D01*
X71103759Y-55361850D01*
X71056500Y-55361850D01*
X71033936Y-55396247D01*
X70979385Y-55450453D01*
X70912563Y-55507411D01*
X70853186Y-55550062D01*
X70824677Y-55562425D01*
X70828859Y-55544444D01*
X70870683Y-55499599D01*
X70888177Y-55483618D01*
X70975941Y-55406523D01*
X71026607Y-55364886D01*
X71050119Y-55351511D01*
X71056424Y-55359204D01*
X71056500Y-55361850D01*
X71103759Y-55361850D01*
X71088758Y-55347945D01*
X71088250Y-55342123D01*
X71110997Y-55298484D01*
X71114709Y-55295895D01*
X71137901Y-55305608D01*
X71141167Y-55325771D01*
X71214262Y-55325771D01*
X71218588Y-55322363D01*
X71317838Y-55234513D01*
X71339658Y-55211182D01*
X71302716Y-55211182D01*
X71298373Y-55213250D01*
X71269399Y-55190898D01*
X71262875Y-55181500D01*
X71254785Y-55151817D01*
X71259128Y-55149750D01*
X71288102Y-55172101D01*
X71294625Y-55181500D01*
X71302716Y-55211182D01*
X71339658Y-55211182D01*
X71382266Y-55165625D01*
X71374000Y-55165625D01*
X71358125Y-55181500D01*
X71342250Y-55165625D01*
X71358125Y-55149750D01*
X71374000Y-55165625D01*
X71382266Y-55165625D01*
X71383172Y-55164657D01*
X71404709Y-55124063D01*
X71424960Y-55098847D01*
X71440668Y-55104082D01*
X71458807Y-55104546D01*
X71444570Y-55070375D01*
X71374000Y-55070375D01*
X71358125Y-55086250D01*
X71342250Y-55070375D01*
X71358125Y-55054500D01*
X71374000Y-55070375D01*
X71444570Y-55070375D01*
X71439551Y-55058331D01*
X71425874Y-54993386D01*
X71436997Y-54922419D01*
X71466244Y-54872576D01*
X71487360Y-54864000D01*
X71486851Y-54887464D01*
X71467426Y-54930908D01*
X71443683Y-54999593D01*
X71459206Y-55028607D01*
X71502680Y-55016673D01*
X71562793Y-54962514D01*
X71578194Y-54943413D01*
X71630065Y-54868433D01*
X71644082Y-54820808D01*
X71625446Y-54781219D01*
X71622767Y-54777901D01*
X71593503Y-54711539D01*
X71580423Y-54620961D01*
X71580375Y-54615638D01*
X71569729Y-54536225D01*
X71542530Y-54497072D01*
X71539894Y-54496316D01*
X71520193Y-54496948D01*
G36*
X70913026Y-54698108D02*
G01*
X70846725Y-54728004D01*
X70792806Y-54763187D01*
X70783605Y-54772088D01*
X70723826Y-54818473D01*
X70680386Y-54832250D01*
X70654171Y-54824524D01*
X70679635Y-54795417D01*
X70693245Y-54784615D01*
X70735251Y-54750559D01*
X70725442Y-54748073D01*
X70688716Y-54760802D01*
X70628630Y-54798517D01*
X70553376Y-54866247D01*
X70520827Y-54901310D01*
X70455624Y-54988646D01*
X70454270Y-54992968D01*
X70471987Y-55002512D01*
X70492588Y-55018409D01*
X70527438Y-55065992D01*
X70522411Y-55106686D01*
X70493710Y-55118000D01*
X70490814Y-55102182D01*
X70495308Y-55097108D01*
X70495738Y-55058863D01*
X70476788Y-55025671D01*
X70454050Y-54993669D01*
X70434126Y-55057258D01*
X70438536Y-55095444D01*
X70439870Y-55162969D01*
X70403497Y-55193798D01*
X70367716Y-55201721D01*
X70382758Y-55174052D01*
X70383443Y-55173224D01*
X70400152Y-55113711D01*
X70391405Y-55088927D01*
X70366835Y-55068137D01*
X70346062Y-55105655D01*
X70344877Y-55109332D01*
X70337817Y-55180236D01*
X70353224Y-55245006D01*
X70384166Y-55276478D01*
X70387604Y-55276750D01*
X70416644Y-55253721D01*
X70474367Y-55192312D01*
X70550181Y-55104037D01*
X70580714Y-55066849D01*
X70676606Y-54957064D01*
X70722250Y-54911047D01*
X70625419Y-54911047D01*
X70625166Y-54943349D01*
X70621675Y-54957435D01*
X70601539Y-55013830D01*
X70580303Y-55013580D01*
X70566599Y-54994597D01*
X70572560Y-54953856D01*
X70593977Y-54929282D01*
X70625419Y-54911047D01*
X70722250Y-54911047D01*
X70775724Y-54857137D01*
X70859275Y-54785777D01*
X70872008Y-54776880D01*
X70943922Y-54727860D01*
X70987261Y-54695559D01*
X70993000Y-54689558D01*
X70969266Y-54682344D01*
X70913026Y-54698108D01*
G37*
X70913026Y-54698108D02*
X70846725Y-54728004D01*
X70792806Y-54763187D01*
X70783605Y-54772088D01*
X70723826Y-54818473D01*
X70680386Y-54832250D01*
X70654171Y-54824524D01*
X70679635Y-54795417D01*
X70693245Y-54784615D01*
X70735251Y-54750559D01*
X70725442Y-54748073D01*
X70688716Y-54760802D01*
X70628630Y-54798517D01*
X70553376Y-54866247D01*
X70520827Y-54901310D01*
X70455624Y-54988646D01*
X70454270Y-54992968D01*
X70471987Y-55002512D01*
X70492588Y-55018409D01*
X70527438Y-55065992D01*
X70522411Y-55106686D01*
X70493710Y-55118000D01*
X70490814Y-55102182D01*
X70495308Y-55097108D01*
X70495738Y-55058863D01*
X70476788Y-55025671D01*
X70454050Y-54993669D01*
X70434126Y-55057258D01*
X70438536Y-55095444D01*
X70439870Y-55162969D01*
X70403497Y-55193798D01*
X70367716Y-55201721D01*
X70382758Y-55174052D01*
X70383443Y-55173224D01*
X70400152Y-55113711D01*
X70391405Y-55088927D01*
X70366835Y-55068137D01*
X70346062Y-55105655D01*
X70344877Y-55109332D01*
X70337817Y-55180236D01*
X70353224Y-55245006D01*
X70384166Y-55276478D01*
X70387604Y-55276750D01*
X70416644Y-55253721D01*
X70474367Y-55192312D01*
X70550181Y-55104037D01*
X70580714Y-55066849D01*
X70676606Y-54957064D01*
X70722250Y-54911047D01*
X70625419Y-54911047D01*
X70625166Y-54943349D01*
X70621675Y-54957435D01*
X70601539Y-55013830D01*
X70580303Y-55013580D01*
X70566599Y-54994597D01*
X70572560Y-54953856D01*
X70593977Y-54929282D01*
X70625419Y-54911047D01*
X70722250Y-54911047D01*
X70775724Y-54857137D01*
X70859275Y-54785777D01*
X70872008Y-54776880D01*
X70943922Y-54727860D01*
X70987261Y-54695559D01*
X70993000Y-54689558D01*
X70969266Y-54682344D01*
X70913026Y-54698108D01*
G36*
X71207163Y-54761196D02*
G01*
X71134772Y-54823054D01*
X71063902Y-54906476D01*
X71006726Y-54995365D01*
X70975418Y-55073624D01*
X70978772Y-55120664D01*
X71011606Y-55147009D01*
X71062400Y-55132454D01*
X71132228Y-55083446D01*
X71205376Y-55010496D01*
X71262850Y-54925543D01*
X71299080Y-54842710D01*
X71308493Y-54776119D01*
X71285519Y-54739892D01*
X71268903Y-54737000D01*
X71207163Y-54761196D01*
G37*
X71207163Y-54761196D02*
X71134772Y-54823054D01*
X71063902Y-54906476D01*
X71006726Y-54995365D01*
X70975418Y-55073624D01*
X70978772Y-55120664D01*
X71011606Y-55147009D01*
X71062400Y-55132454D01*
X71132228Y-55083446D01*
X71205376Y-55010496D01*
X71262850Y-54925543D01*
X71299080Y-54842710D01*
X71308493Y-54776119D01*
X71285519Y-54739892D01*
X71268903Y-54737000D01*
X71207163Y-54761196D01*
G36*
X69681778Y-45620382D02*
G01*
X69440148Y-45732329D01*
X69204423Y-45902553D01*
X68977024Y-46128450D01*
X68760374Y-46407411D01*
X68556894Y-46736832D01*
X68369005Y-47114106D01*
X68267615Y-47355125D01*
X68170089Y-47607046D01*
X68084852Y-47839832D01*
X68008311Y-48065514D01*
X67936870Y-48296122D01*
X67866934Y-48543687D01*
X67794910Y-48820240D01*
X67717201Y-49137812D01*
X67650996Y-49418875D01*
X67603072Y-49627881D01*
X67568260Y-49791763D01*
X67544472Y-49927052D01*
X67529621Y-50050278D01*
X67521619Y-50177972D01*
X67518380Y-50326665D01*
X67517814Y-50473606D01*
X67520046Y-50678859D01*
X67526669Y-50837108D01*
X67537323Y-50942915D01*
X67551651Y-50990840D01*
X67551922Y-50991121D01*
X67578192Y-50988920D01*
X67619744Y-50940010D01*
X67679726Y-50839972D01*
X67737982Y-50730140D01*
X67968614Y-50296749D01*
X68183881Y-49924212D01*
X68384398Y-49611929D01*
X68570779Y-49359297D01*
X68743638Y-49165716D01*
X68903590Y-49030582D01*
X69051249Y-48953295D01*
X69187231Y-48933253D01*
X69312149Y-48969854D01*
X69426618Y-49062497D01*
X69433489Y-49070191D01*
X69512723Y-49182786D01*
X69566450Y-49316902D01*
X69597925Y-49485049D01*
X69610400Y-49699733D01*
X69610912Y-49752250D01*
X69602162Y-49978219D01*
X69571563Y-50189684D01*
X69514855Y-50401958D01*
X69427772Y-50630351D01*
X69306053Y-50890175D01*
X69279443Y-50942822D01*
X68990023Y-51459082D01*
X68672523Y-51925938D01*
X68319727Y-52353959D01*
X68305616Y-52369502D01*
X68132558Y-52560626D01*
X67998369Y-52712366D01*
X67898269Y-52831457D01*
X67827478Y-52924632D01*
X67781214Y-52998628D01*
X67754697Y-53060177D01*
X67743148Y-53116016D01*
X67741530Y-53164154D01*
X67772989Y-53340212D01*
X67855224Y-53528101D01*
X67980933Y-53713984D01*
X68101277Y-53845617D01*
X68255199Y-53978693D01*
X68424934Y-54092760D01*
X68624920Y-54196009D01*
X68869595Y-54296631D01*
X68945125Y-54324388D01*
X69205885Y-54427760D01*
X69459155Y-54545712D01*
X69690816Y-54670712D01*
X69886750Y-54795226D01*
X70014615Y-54895015D01*
X70101657Y-54971310D01*
X70168760Y-55027720D01*
X70203464Y-55053823D01*
X70205305Y-55054500D01*
X70229407Y-55031555D01*
X70280143Y-54971943D01*
X70334640Y-54903687D01*
X70452220Y-54752875D01*
X70381298Y-54705652D01*
X70207364Y-54555033D01*
X70087413Y-54372642D01*
X70022793Y-54162230D01*
X70014854Y-53927551D01*
X70041479Y-53760497D01*
X70064707Y-53692584D01*
X70112172Y-53578517D01*
X70179188Y-53428673D01*
X70261069Y-53253429D01*
X70353127Y-53063161D01*
X70390617Y-52987445D01*
X70685324Y-52378931D01*
X70941021Y-51812960D01*
X71159739Y-51283622D01*
X71343505Y-50785003D01*
X71494350Y-50311191D01*
X71614304Y-49856274D01*
X71705395Y-49414340D01*
X71769653Y-48979476D01*
X71771379Y-48964841D01*
X71811832Y-48434414D01*
X71805638Y-47937759D01*
X71753306Y-47476836D01*
X71655342Y-47053609D01*
X71512256Y-46670039D01*
X71324555Y-46328089D01*
X71092747Y-46029720D01*
X70982347Y-45917863D01*
X70756989Y-45747762D01*
X70501141Y-45632112D01*
X70219378Y-45572423D01*
X69926891Y-45569321D01*
X69681778Y-45620382D01*
G37*
X69681778Y-45620382D02*
X69440148Y-45732329D01*
X69204423Y-45902553D01*
X68977024Y-46128450D01*
X68760374Y-46407411D01*
X68556894Y-46736832D01*
X68369005Y-47114106D01*
X68267615Y-47355125D01*
X68170089Y-47607046D01*
X68084852Y-47839832D01*
X68008311Y-48065514D01*
X67936870Y-48296122D01*
X67866934Y-48543687D01*
X67794910Y-48820240D01*
X67717201Y-49137812D01*
X67650996Y-49418875D01*
X67603072Y-49627881D01*
X67568260Y-49791763D01*
X67544472Y-49927052D01*
X67529621Y-50050278D01*
X67521619Y-50177972D01*
X67518380Y-50326665D01*
X67517814Y-50473606D01*
X67520046Y-50678859D01*
X67526669Y-50837108D01*
X67537323Y-50942915D01*
X67551651Y-50990840D01*
X67551922Y-50991121D01*
X67578192Y-50988920D01*
X67619744Y-50940010D01*
X67679726Y-50839972D01*
X67737982Y-50730140D01*
X67968614Y-50296749D01*
X68183881Y-49924212D01*
X68384398Y-49611929D01*
X68570779Y-49359297D01*
X68743638Y-49165716D01*
X68903590Y-49030582D01*
X69051249Y-48953295D01*
X69187231Y-48933253D01*
X69312149Y-48969854D01*
X69426618Y-49062497D01*
X69433489Y-49070191D01*
X69512723Y-49182786D01*
X69566450Y-49316902D01*
X69597925Y-49485049D01*
X69610400Y-49699733D01*
X69610912Y-49752250D01*
X69602162Y-49978219D01*
X69571563Y-50189684D01*
X69514855Y-50401958D01*
X69427772Y-50630351D01*
X69306053Y-50890175D01*
X69279443Y-50942822D01*
X68990023Y-51459082D01*
X68672523Y-51925938D01*
X68319727Y-52353959D01*
X68305616Y-52369502D01*
X68132558Y-52560626D01*
X67998369Y-52712366D01*
X67898269Y-52831457D01*
X67827478Y-52924632D01*
X67781214Y-52998628D01*
X67754697Y-53060177D01*
X67743148Y-53116016D01*
X67741530Y-53164154D01*
X67772989Y-53340212D01*
X67855224Y-53528101D01*
X67980933Y-53713984D01*
X68101277Y-53845617D01*
X68255199Y-53978693D01*
X68424934Y-54092760D01*
X68624920Y-54196009D01*
X68869595Y-54296631D01*
X68945125Y-54324388D01*
X69205885Y-54427760D01*
X69459155Y-54545712D01*
X69690816Y-54670712D01*
X69886750Y-54795226D01*
X70014615Y-54895015D01*
X70101657Y-54971310D01*
X70168760Y-55027720D01*
X70203464Y-55053823D01*
X70205305Y-55054500D01*
X70229407Y-55031555D01*
X70280143Y-54971943D01*
X70334640Y-54903687D01*
X70452220Y-54752875D01*
X70381298Y-54705652D01*
X70207364Y-54555033D01*
X70087413Y-54372642D01*
X70022793Y-54162230D01*
X70014854Y-53927551D01*
X70041479Y-53760497D01*
X70064707Y-53692584D01*
X70112172Y-53578517D01*
X70179188Y-53428673D01*
X70261069Y-53253429D01*
X70353127Y-53063161D01*
X70390617Y-52987445D01*
X70685324Y-52378931D01*
X70941021Y-51812960D01*
X71159739Y-51283622D01*
X71343505Y-50785003D01*
X71494350Y-50311191D01*
X71614304Y-49856274D01*
X71705395Y-49414340D01*
X71769653Y-48979476D01*
X71771379Y-48964841D01*
X71811832Y-48434414D01*
X71805638Y-47937759D01*
X71753306Y-47476836D01*
X71655342Y-47053609D01*
X71512256Y-46670039D01*
X71324555Y-46328089D01*
X71092747Y-46029720D01*
X70982347Y-45917863D01*
X70756989Y-45747762D01*
X70501141Y-45632112D01*
X70219378Y-45572423D01*
X69926891Y-45569321D01*
X69681778Y-45620382D01*
G36*
X71773529Y-54362429D02*
G01*
X71763478Y-54427334D01*
X71766883Y-54455100D01*
X71770617Y-54522210D01*
X71752333Y-54546500D01*
X71735617Y-54526353D01*
X71742460Y-54509354D01*
X71744036Y-54485752D01*
X71709987Y-54493479D01*
X71652525Y-54511857D01*
X71633341Y-54515236D01*
X71636338Y-54528829D01*
X71657400Y-54544375D01*
X71699353Y-54596775D01*
X71713068Y-54664895D01*
X71693722Y-54718521D01*
X71686151Y-54724430D01*
X71664875Y-54727712D01*
X71672438Y-54710407D01*
X71676774Y-54655837D01*
X71662434Y-54618188D01*
X71640324Y-54589895D01*
X71630839Y-54613141D01*
X71628966Y-54663688D01*
X71639185Y-54748793D01*
X71666958Y-54784556D01*
X71704878Y-54765191D01*
X71723126Y-54737233D01*
X71743129Y-54674050D01*
X71738720Y-54641093D01*
X71741134Y-54612280D01*
X71751852Y-54610000D01*
X71779171Y-54582780D01*
X71809491Y-54517332D01*
X71834827Y-54437969D01*
X71838139Y-54419500D01*
X71818500Y-54419500D01*
X71806884Y-54445633D01*
X71797334Y-54440666D01*
X71793534Y-54402986D01*
X71797334Y-54398333D01*
X71816209Y-54402691D01*
X71818500Y-54419500D01*
X71838139Y-54419500D01*
X71847198Y-54369004D01*
X71841575Y-54336740D01*
X71803191Y-54326480D01*
X71773529Y-54362429D01*
G37*
X71773529Y-54362429D02*
X71763478Y-54427334D01*
X71766883Y-54455100D01*
X71770617Y-54522210D01*
X71752333Y-54546500D01*
X71735617Y-54526353D01*
X71742460Y-54509354D01*
X71744036Y-54485752D01*
X71709987Y-54493479D01*
X71652525Y-54511857D01*
X71633341Y-54515236D01*
X71636338Y-54528829D01*
X71657400Y-54544375D01*
X71699353Y-54596775D01*
X71713068Y-54664895D01*
X71693722Y-54718521D01*
X71686151Y-54724430D01*
X71664875Y-54727712D01*
X71672438Y-54710407D01*
X71676774Y-54655837D01*
X71662434Y-54618188D01*
X71640324Y-54589895D01*
X71630839Y-54613141D01*
X71628966Y-54663688D01*
X71639185Y-54748793D01*
X71666958Y-54784556D01*
X71704878Y-54765191D01*
X71723126Y-54737233D01*
X71743129Y-54674050D01*
X71738720Y-54641093D01*
X71741134Y-54612280D01*
X71751852Y-54610000D01*
X71779171Y-54582780D01*
X71809491Y-54517332D01*
X71834827Y-54437969D01*
X71838139Y-54419500D01*
X71818500Y-54419500D01*
X71806884Y-54445633D01*
X71797334Y-54440666D01*
X71793534Y-54402986D01*
X71797334Y-54398333D01*
X71816209Y-54402691D01*
X71818500Y-54419500D01*
X71838139Y-54419500D01*
X71847198Y-54369004D01*
X71841575Y-54336740D01*
X71803191Y-54326480D01*
X71773529Y-54362429D01*
G36*
X71659750Y-54410300D02*
G01*
X71608280Y-54435431D01*
X71596250Y-54454953D01*
X71602928Y-54479546D01*
X71604188Y-54479316D01*
X71637352Y-54469282D01*
X71667688Y-54461113D01*
X71714746Y-54436385D01*
X71723250Y-54420144D01*
X71697906Y-54405665D01*
X71659750Y-54410300D01*
G37*
X71659750Y-54410300D02*
X71608280Y-54435431D01*
X71596250Y-54454953D01*
X71602928Y-54479546D01*
X71604188Y-54479316D01*
X71637352Y-54469282D01*
X71667688Y-54461113D01*
X71714746Y-54436385D01*
X71723250Y-54420144D01*
X71697906Y-54405665D01*
X71659750Y-54410300D01*
G36*
X64650298Y-50107737D02*
G01*
X64398657Y-50193658D01*
X64354392Y-50214933D01*
X64176464Y-50331490D01*
X64055729Y-50475231D01*
X63991113Y-50648103D01*
X63981537Y-50852054D01*
X63984631Y-50884119D01*
X64003356Y-50996352D01*
X64036108Y-51054093D01*
X64095756Y-51064767D01*
X64195170Y-51035802D01*
X64226539Y-51023712D01*
X64383886Y-50982225D01*
X64573813Y-50962686D01*
X64768805Y-50966525D01*
X64912875Y-50988051D01*
X64963775Y-51001519D01*
X64967912Y-51011839D01*
X64919325Y-51023494D01*
X64850623Y-51034868D01*
X64681621Y-51072398D01*
X64516671Y-51127581D01*
X64374838Y-51192810D01*
X64275190Y-51260477D01*
X64268068Y-51267296D01*
X64219418Y-51327647D01*
X64201930Y-51393983D01*
X64206987Y-51488311D01*
X64232329Y-51615073D01*
X64278726Y-51686608D01*
X64354726Y-51709945D01*
X64458202Y-51694873D01*
X64570477Y-51678558D01*
X64706344Y-51674905D01*
X64782285Y-51679490D01*
X64968818Y-51698742D01*
X64877347Y-51745268D01*
X64750279Y-51827314D01*
X64658717Y-51921596D01*
X64613901Y-52015599D01*
X64611250Y-52041593D01*
X64618852Y-52143293D01*
X64650747Y-52200042D01*
X64720570Y-52224319D01*
X64815731Y-52228750D01*
X64913063Y-52232135D01*
X64981882Y-52240807D01*
X65000808Y-52247890D01*
X64992358Y-52278670D01*
X64946817Y-52329620D01*
X64935803Y-52339409D01*
X64891682Y-52386116D01*
X64875441Y-52434561D01*
X64890861Y-52493805D01*
X64941724Y-52572906D01*
X65031813Y-52680924D01*
X65118232Y-52776413D01*
X65201417Y-52860167D01*
X65309481Y-52959508D01*
X65431902Y-53065862D01*
X65558159Y-53170657D01*
X65677730Y-53265320D01*
X65780094Y-53341276D01*
X65854731Y-53389953D01*
X65887809Y-53403500D01*
X65884395Y-53377042D01*
X65857494Y-53305566D01*
X65811889Y-53200914D01*
X65769263Y-53109812D01*
X65623154Y-52749038D01*
X65505874Y-52337104D01*
X65421428Y-51895043D01*
X65388239Y-51634124D01*
X65377110Y-51419166D01*
X65390167Y-51235839D01*
X65429538Y-51069811D01*
X65497353Y-50906754D01*
X65593551Y-50735875D01*
X65720485Y-50530125D01*
X65573213Y-50393075D01*
X65356567Y-50227612D01*
X65130021Y-50124827D01*
X64894342Y-50084831D01*
X64650298Y-50107737D01*
G37*
X64650298Y-50107737D02*
X64398657Y-50193658D01*
X64354392Y-50214933D01*
X64176464Y-50331490D01*
X64055729Y-50475231D01*
X63991113Y-50648103D01*
X63981537Y-50852054D01*
X63984631Y-50884119D01*
X64003356Y-50996352D01*
X64036108Y-51054093D01*
X64095756Y-51064767D01*
X64195170Y-51035802D01*
X64226539Y-51023712D01*
X64383886Y-50982225D01*
X64573813Y-50962686D01*
X64768805Y-50966525D01*
X64912875Y-50988051D01*
X64963775Y-51001519D01*
X64967912Y-51011839D01*
X64919325Y-51023494D01*
X64850623Y-51034868D01*
X64681621Y-51072398D01*
X64516671Y-51127581D01*
X64374838Y-51192810D01*
X64275190Y-51260477D01*
X64268068Y-51267296D01*
X64219418Y-51327647D01*
X64201930Y-51393983D01*
X64206987Y-51488311D01*
X64232329Y-51615073D01*
X64278726Y-51686608D01*
X64354726Y-51709945D01*
X64458202Y-51694873D01*
X64570477Y-51678558D01*
X64706344Y-51674905D01*
X64782285Y-51679490D01*
X64968818Y-51698742D01*
X64877347Y-51745268D01*
X64750279Y-51827314D01*
X64658717Y-51921596D01*
X64613901Y-52015599D01*
X64611250Y-52041593D01*
X64618852Y-52143293D01*
X64650747Y-52200042D01*
X64720570Y-52224319D01*
X64815731Y-52228750D01*
X64913063Y-52232135D01*
X64981882Y-52240807D01*
X65000808Y-52247890D01*
X64992358Y-52278670D01*
X64946817Y-52329620D01*
X64935803Y-52339409D01*
X64891682Y-52386116D01*
X64875441Y-52434561D01*
X64890861Y-52493805D01*
X64941724Y-52572906D01*
X65031813Y-52680924D01*
X65118232Y-52776413D01*
X65201417Y-52860167D01*
X65309481Y-52959508D01*
X65431902Y-53065862D01*
X65558159Y-53170657D01*
X65677730Y-53265320D01*
X65780094Y-53341276D01*
X65854731Y-53389953D01*
X65887809Y-53403500D01*
X65884395Y-53377042D01*
X65857494Y-53305566D01*
X65811889Y-53200914D01*
X65769263Y-53109812D01*
X65623154Y-52749038D01*
X65505874Y-52337104D01*
X65421428Y-51895043D01*
X65388239Y-51634124D01*
X65377110Y-51419166D01*
X65390167Y-51235839D01*
X65429538Y-51069811D01*
X65497353Y-50906754D01*
X65593551Y-50735875D01*
X65720485Y-50530125D01*
X65573213Y-50393075D01*
X65356567Y-50227612D01*
X65130021Y-50124827D01*
X64894342Y-50084831D01*
X64650298Y-50107737D01*
G36*
X68453966Y-51395698D02*
G01*
X68453000Y-51403524D01*
X68432012Y-51458611D01*
X68375695Y-51545832D01*
X68294019Y-51652819D01*
X68196957Y-51767209D01*
X68094478Y-51876635D01*
X67998785Y-51966812D01*
X67889806Y-52042178D01*
X67786241Y-52069459D01*
X67767662Y-52070000D01*
X67656034Y-52070000D01*
X67661824Y-52356167D01*
X67665983Y-52491668D01*
X67673017Y-52573127D01*
X67684821Y-52609993D01*
X67703289Y-52611715D01*
X67711825Y-52605642D01*
X67758653Y-52584327D01*
X67776762Y-52589678D01*
X67771409Y-52621481D01*
X67739876Y-52652534D01*
X67699209Y-52698238D01*
X67694569Y-52726952D01*
X67720535Y-52721840D01*
X67777962Y-52678846D01*
X67855332Y-52606832D01*
X67870012Y-52591959D01*
X67969857Y-52488484D01*
X68027289Y-52422596D01*
X68041184Y-52393338D01*
X67959721Y-52393338D01*
X67957148Y-52428651D01*
X67918709Y-52484178D01*
X67916443Y-52486637D01*
X67869275Y-52544859D01*
X67849750Y-52583986D01*
X67838203Y-52609673D01*
X67837234Y-52609750D01*
X67829393Y-52582588D01*
X67829297Y-52530397D01*
X67845460Y-52470668D01*
X67870917Y-52451022D01*
X67873835Y-52449330D01*
X67781741Y-52449330D01*
X67780719Y-52512537D01*
X67748725Y-52556031D01*
X67746563Y-52556972D01*
X67708138Y-52573240D01*
X67703763Y-52575493D01*
X67701724Y-52547595D01*
X67699161Y-52471507D01*
X67696569Y-52362530D01*
X67696125Y-52339875D01*
X67697333Y-52226089D01*
X67704650Y-52141899D01*
X67716577Y-52102802D01*
X67719149Y-52101750D01*
X67732547Y-52129788D01*
X67734391Y-52200592D01*
X67731063Y-52240487D01*
X67728455Y-52339139D01*
X67745064Y-52395972D01*
X67750838Y-52401111D01*
X67781741Y-52449330D01*
X67873835Y-52449330D01*
X67914368Y-52425830D01*
X67922133Y-52411312D01*
X67948230Y-52387878D01*
X67959721Y-52393338D01*
X68041184Y-52393338D01*
X68044394Y-52386579D01*
X68023258Y-52372719D01*
X67965966Y-52373301D01*
X67928315Y-52376271D01*
X67840744Y-52380601D01*
X67799223Y-52369260D01*
X67786837Y-52334799D01*
X67786250Y-52313719D01*
X67806964Y-52254464D01*
X67858116Y-52239883D01*
X67923220Y-52271863D01*
X67947039Y-52295298D01*
X68007734Y-52336842D01*
X68051876Y-52343765D01*
X68111414Y-52316195D01*
X68174748Y-52261181D01*
X68225371Y-52197305D01*
X68230904Y-52183306D01*
X68192866Y-52183306D01*
X68159751Y-52229615D01*
X68101729Y-52258321D01*
X68080591Y-52260500D01*
X68026739Y-52254857D01*
X68026748Y-52230710D01*
X68040250Y-52212875D01*
X68061502Y-52173423D01*
X68044138Y-52165250D01*
X68012872Y-52139471D01*
X68008500Y-52115824D01*
X68002761Y-52084148D01*
X67974305Y-52091603D01*
X67937936Y-52115824D01*
X67860343Y-52156788D01*
X67805081Y-52161025D01*
X67786250Y-52131626D01*
X67806149Y-52113690D01*
X67821550Y-52119818D01*
X67866542Y-52122815D01*
X67877113Y-52113755D01*
X67921371Y-52072982D01*
X67978201Y-52041269D01*
X68025065Y-52028789D01*
X68040250Y-52040120D01*
X68064952Y-52059849D01*
X68103750Y-52054125D01*
X68154964Y-52045758D01*
X68162645Y-52073021D01*
X68134383Y-52135587D01*
X68117733Y-52186133D01*
X68134383Y-52197000D01*
X68165388Y-52172223D01*
X68167250Y-52159958D01*
X68177617Y-52136021D01*
X68183873Y-52139539D01*
X68192866Y-52183306D01*
X68230904Y-52183306D01*
X68246775Y-52143151D01*
X68243358Y-52128213D01*
X68239996Y-52106599D01*
X68254122Y-52112446D01*
X68292730Y-52103910D01*
X68338403Y-52054969D01*
X68378852Y-51989295D01*
X68383620Y-51960599D01*
X68353228Y-51953688D01*
X68341875Y-51953583D01*
X68299723Y-51976274D01*
X68294250Y-51995916D01*
X68273915Y-52034633D01*
X68260172Y-52038250D01*
X68236896Y-52013143D01*
X68237576Y-51982687D01*
X68269823Y-51937223D01*
X68297054Y-51930476D01*
X68331963Y-51911364D01*
X68344783Y-51841549D01*
X68345050Y-51823568D01*
X68361962Y-51726610D01*
X68365304Y-51721851D01*
X68325035Y-51721851D01*
X68305039Y-51778018D01*
X68254984Y-51851161D01*
X68192196Y-51920872D01*
X68134003Y-51966745D01*
X68110593Y-51974419D01*
X68104893Y-51955813D01*
X68138845Y-51908645D01*
X68161351Y-51885267D01*
X68230343Y-51811245D01*
X68282530Y-51744022D01*
X68288480Y-51734454D01*
X68315713Y-51697415D01*
X68324877Y-51716950D01*
X68325035Y-51721851D01*
X68365304Y-51721851D01*
X68399025Y-51673842D01*
X68442919Y-51631152D01*
X68453000Y-51609141D01*
X68433468Y-51608654D01*
X68389500Y-51641375D01*
X68341550Y-51677332D01*
X68329097Y-51670059D01*
X68349808Y-51627325D01*
X68401346Y-51556899D01*
X68422541Y-51531449D01*
X68491620Y-51442887D01*
X68514465Y-51391245D01*
X68492874Y-51371907D01*
X68484750Y-51371500D01*
X68453966Y-51395698D01*
G37*
X68453966Y-51395698D02*
X68453000Y-51403524D01*
X68432012Y-51458611D01*
X68375695Y-51545832D01*
X68294019Y-51652819D01*
X68196957Y-51767209D01*
X68094478Y-51876635D01*
X67998785Y-51966812D01*
X67889806Y-52042178D01*
X67786241Y-52069459D01*
X67767662Y-52070000D01*
X67656034Y-52070000D01*
X67661824Y-52356167D01*
X67665983Y-52491668D01*
X67673017Y-52573127D01*
X67684821Y-52609993D01*
X67703289Y-52611715D01*
X67711825Y-52605642D01*
X67758653Y-52584327D01*
X67776762Y-52589678D01*
X67771409Y-52621481D01*
X67739876Y-52652534D01*
X67699209Y-52698238D01*
X67694569Y-52726952D01*
X67720535Y-52721840D01*
X67777962Y-52678846D01*
X67855332Y-52606832D01*
X67870012Y-52591959D01*
X67969857Y-52488484D01*
X68027289Y-52422596D01*
X68041184Y-52393338D01*
X67959721Y-52393338D01*
X67957148Y-52428651D01*
X67918709Y-52484178D01*
X67916443Y-52486637D01*
X67869275Y-52544859D01*
X67849750Y-52583986D01*
X67838203Y-52609673D01*
X67837234Y-52609750D01*
X67829393Y-52582588D01*
X67829297Y-52530397D01*
X67845460Y-52470668D01*
X67870917Y-52451022D01*
X67873835Y-52449330D01*
X67781741Y-52449330D01*
X67780719Y-52512537D01*
X67748725Y-52556031D01*
X67746563Y-52556972D01*
X67708138Y-52573240D01*
X67703763Y-52575493D01*
X67701724Y-52547595D01*
X67699161Y-52471507D01*
X67696569Y-52362530D01*
X67696125Y-52339875D01*
X67697333Y-52226089D01*
X67704650Y-52141899D01*
X67716577Y-52102802D01*
X67719149Y-52101750D01*
X67732547Y-52129788D01*
X67734391Y-52200592D01*
X67731063Y-52240487D01*
X67728455Y-52339139D01*
X67745064Y-52395972D01*
X67750838Y-52401111D01*
X67781741Y-52449330D01*
X67873835Y-52449330D01*
X67914368Y-52425830D01*
X67922133Y-52411312D01*
X67948230Y-52387878D01*
X67959721Y-52393338D01*
X68041184Y-52393338D01*
X68044394Y-52386579D01*
X68023258Y-52372719D01*
X67965966Y-52373301D01*
X67928315Y-52376271D01*
X67840744Y-52380601D01*
X67799223Y-52369260D01*
X67786837Y-52334799D01*
X67786250Y-52313719D01*
X67806964Y-52254464D01*
X67858116Y-52239883D01*
X67923220Y-52271863D01*
X67947039Y-52295298D01*
X68007734Y-52336842D01*
X68051876Y-52343765D01*
X68111414Y-52316195D01*
X68174748Y-52261181D01*
X68225371Y-52197305D01*
X68230904Y-52183306D01*
X68192866Y-52183306D01*
X68159751Y-52229615D01*
X68101729Y-52258321D01*
X68080591Y-52260500D01*
X68026739Y-52254857D01*
X68026748Y-52230710D01*
X68040250Y-52212875D01*
X68061502Y-52173423D01*
X68044138Y-52165250D01*
X68012872Y-52139471D01*
X68008500Y-52115824D01*
X68002761Y-52084148D01*
X67974305Y-52091603D01*
X67937936Y-52115824D01*
X67860343Y-52156788D01*
X67805081Y-52161025D01*
X67786250Y-52131626D01*
X67806149Y-52113690D01*
X67821550Y-52119818D01*
X67866542Y-52122815D01*
X67877113Y-52113755D01*
X67921371Y-52072982D01*
X67978201Y-52041269D01*
X68025065Y-52028789D01*
X68040250Y-52040120D01*
X68064952Y-52059849D01*
X68103750Y-52054125D01*
X68154964Y-52045758D01*
X68162645Y-52073021D01*
X68134383Y-52135587D01*
X68117733Y-52186133D01*
X68134383Y-52197000D01*
X68165388Y-52172223D01*
X68167250Y-52159958D01*
X68177617Y-52136021D01*
X68183873Y-52139539D01*
X68192866Y-52183306D01*
X68230904Y-52183306D01*
X68246775Y-52143151D01*
X68243358Y-52128213D01*
X68239996Y-52106599D01*
X68254122Y-52112446D01*
X68292730Y-52103910D01*
X68338403Y-52054969D01*
X68378852Y-51989295D01*
X68383620Y-51960599D01*
X68353228Y-51953688D01*
X68341875Y-51953583D01*
X68299723Y-51976274D01*
X68294250Y-51995916D01*
X68273915Y-52034633D01*
X68260172Y-52038250D01*
X68236896Y-52013143D01*
X68237576Y-51982687D01*
X68269823Y-51937223D01*
X68297054Y-51930476D01*
X68331963Y-51911364D01*
X68344783Y-51841549D01*
X68345050Y-51823568D01*
X68361962Y-51726610D01*
X68365304Y-51721851D01*
X68325035Y-51721851D01*
X68305039Y-51778018D01*
X68254984Y-51851161D01*
X68192196Y-51920872D01*
X68134003Y-51966745D01*
X68110593Y-51974419D01*
X68104893Y-51955813D01*
X68138845Y-51908645D01*
X68161351Y-51885267D01*
X68230343Y-51811245D01*
X68282530Y-51744022D01*
X68288480Y-51734454D01*
X68315713Y-51697415D01*
X68324877Y-51716950D01*
X68325035Y-51721851D01*
X68365304Y-51721851D01*
X68399025Y-51673842D01*
X68442919Y-51631152D01*
X68453000Y-51609141D01*
X68433468Y-51608654D01*
X68389500Y-51641375D01*
X68341550Y-51677332D01*
X68329097Y-51670059D01*
X68349808Y-51627325D01*
X68401346Y-51556899D01*
X68422541Y-51531449D01*
X68491620Y-51442887D01*
X68514465Y-51391245D01*
X68492874Y-51371907D01*
X68484750Y-51371500D01*
X68453966Y-51395698D01*
G36*
X67818000Y-52339875D02*
G01*
X67833875Y-52355750D01*
X67849750Y-52339875D01*
X67833875Y-52324000D01*
X67818000Y-52339875D01*
G37*
X67818000Y-52339875D02*
X67833875Y-52355750D01*
X67849750Y-52339875D01*
X67833875Y-52324000D01*
X67818000Y-52339875D01*
G36*
X68273449Y-49968472D02*
G01*
X68225153Y-50037151D01*
X68163702Y-50136052D01*
X68137279Y-50181401D01*
X68072706Y-50291116D01*
X68018058Y-50378238D01*
X67982131Y-50428963D01*
X67975183Y-50435843D01*
X67949709Y-50473817D01*
X67918479Y-50548264D01*
X67910966Y-50570254D01*
X67880835Y-50650072D01*
X67854422Y-50699800D01*
X67849580Y-50704750D01*
X67820968Y-50741486D01*
X67780940Y-50810423D01*
X67775591Y-50820716D01*
X67744245Y-50888867D01*
X67744595Y-50922199D01*
X67774455Y-50940047D01*
X67809244Y-50977438D01*
X67807901Y-51002773D01*
X67812819Y-51060827D01*
X67828154Y-51083203D01*
X67846941Y-51122206D01*
X67821803Y-51146900D01*
X67791150Y-51192752D01*
X67792644Y-51216056D01*
X67813619Y-51211553D01*
X67856481Y-51161450D01*
X67912844Y-51075967D01*
X67926448Y-51053041D01*
X67994387Y-50941755D01*
X68059313Y-50844323D01*
X68107604Y-50781144D01*
X68109072Y-50779537D01*
X68148073Y-50720243D01*
X68137888Y-50690350D01*
X68105498Y-50647209D01*
X68103750Y-50635488D01*
X68121141Y-50621417D01*
X68149398Y-50639609D01*
X68186060Y-50655234D01*
X68219908Y-50624975D01*
X68244977Y-50580937D01*
X68245656Y-50579957D01*
X68211434Y-50579957D01*
X68209039Y-50597384D01*
X68180566Y-50626271D01*
X68159166Y-50614115D01*
X68104881Y-50595389D01*
X68084007Y-50599502D01*
X68047087Y-50595781D01*
X68043750Y-50562467D01*
X68072285Y-50529949D01*
X68129358Y-50519337D01*
X68184335Y-50540245D01*
X68211434Y-50579957D01*
X68245656Y-50579957D01*
X68299040Y-50502975D01*
X68359711Y-50449706D01*
X68360542Y-50449256D01*
X68407468Y-50401876D01*
X68407472Y-50386645D01*
X68389500Y-50386645D01*
X68361557Y-50418241D01*
X68292667Y-50440402D01*
X68205241Y-50447940D01*
X68148496Y-50442428D01*
X68080076Y-50449069D01*
X68039307Y-50503707D01*
X68024025Y-50610830D01*
X68025883Y-50696976D01*
X68024581Y-50784074D01*
X68012022Y-50841058D01*
X68005204Y-50849662D01*
X67981026Y-50840232D01*
X67976750Y-50815875D01*
X67964016Y-50780022D01*
X67950031Y-50781015D01*
X67932815Y-50821193D01*
X67929052Y-50894014D01*
X67924930Y-50961291D01*
X67907040Y-50990465D01*
X67906272Y-50990500D01*
X67892087Y-51010253D01*
X67897375Y-51022250D01*
X67894858Y-51051507D01*
X67883374Y-51054000D01*
X67850939Y-51043824D01*
X67849750Y-51040191D01*
X67859830Y-51003600D01*
X67881405Y-50943127D01*
X67887675Y-50921671D01*
X67846048Y-50921671D01*
X67841386Y-50949436D01*
X67818000Y-50942875D01*
X67790375Y-50897564D01*
X67786737Y-50869563D01*
X67791875Y-50834031D01*
X67813824Y-50857110D01*
X67818000Y-50863500D01*
X67846048Y-50921671D01*
X67887675Y-50921671D01*
X67897921Y-50886617D01*
X67883733Y-50878537D01*
X67876009Y-50882768D01*
X67852261Y-50884180D01*
X67859233Y-50852833D01*
X67859596Y-50807656D01*
X67840817Y-50799034D01*
X67831548Y-50786088D01*
X67857688Y-50765706D01*
X67903932Y-50715869D01*
X67913250Y-50682149D01*
X67926494Y-50629142D01*
X67959716Y-50556073D01*
X68003152Y-50479075D01*
X68047039Y-50414279D01*
X68081613Y-50377820D01*
X68096066Y-50380072D01*
X68133961Y-50409535D01*
X68189659Y-50419000D01*
X68243895Y-50413291D01*
X68244338Y-50389309D01*
X68231485Y-50372260D01*
X68210268Y-50324770D01*
X68241205Y-50277010D01*
X68279166Y-50245337D01*
X68159039Y-50245337D01*
X68152681Y-50258137D01*
X68122406Y-50290962D01*
X68116837Y-50267813D01*
X68124544Y-50243005D01*
X68147919Y-50208428D01*
X68158477Y-50209143D01*
X68159039Y-50245337D01*
X68279166Y-50245337D01*
X68292811Y-50233953D01*
X68311166Y-50243745D01*
X68303450Y-50292000D01*
X68305567Y-50344026D01*
X68338172Y-50355500D01*
X68382753Y-50371257D01*
X68389500Y-50386645D01*
X68407472Y-50386645D01*
X68407478Y-50365404D01*
X68406795Y-50330929D01*
X68435749Y-50334703D01*
X68485808Y-50336465D01*
X68499258Y-50325962D01*
X68546472Y-50296926D01*
X68627976Y-50278363D01*
X68714943Y-50273773D01*
X68778547Y-50286655D01*
X68785438Y-50291222D01*
X68813755Y-50337354D01*
X68834556Y-50408936D01*
X68844134Y-50482529D01*
X68838778Y-50534690D01*
X68825751Y-50546000D01*
X68812596Y-50565744D01*
X68817720Y-50577093D01*
X68819733Y-50626997D01*
X68803743Y-50670211D01*
X68788799Y-50721139D01*
X68825359Y-50749286D01*
X68839960Y-50754266D01*
X68887755Y-50774330D01*
X68878323Y-50797970D01*
X68853911Y-50816850D01*
X68819479Y-50855978D01*
X68835650Y-50880394D01*
X68881642Y-50878436D01*
X68900564Y-50859630D01*
X68923673Y-50834800D01*
X68928764Y-50855873D01*
X68907032Y-50905380D01*
X68867377Y-50948849D01*
X68825762Y-51000610D01*
X68828040Y-51035248D01*
X68871731Y-51037191D01*
X68880952Y-51033990D01*
X68908836Y-51031026D01*
X68902250Y-51065260D01*
X68888785Y-51095336D01*
X68858723Y-51147758D01*
X68832586Y-51147093D01*
X68809456Y-51121897D01*
X68780746Y-51091736D01*
X68778203Y-51112729D01*
X68786248Y-51149250D01*
X68796344Y-51200542D01*
X68785357Y-51195580D01*
X68769509Y-51171400D01*
X68751644Y-51103399D01*
X68763363Y-51076150D01*
X68777280Y-51038125D01*
X68738750Y-51038125D01*
X68722875Y-51054000D01*
X68707000Y-51038125D01*
X68722875Y-51022250D01*
X68738750Y-51038125D01*
X68777280Y-51038125D01*
X68784403Y-51018664D01*
X68791347Y-50946451D01*
X68759587Y-50946451D01*
X68754625Y-50958750D01*
X68726095Y-50989038D01*
X68721002Y-50990500D01*
X68707365Y-50965935D01*
X68707000Y-50958750D01*
X68731408Y-50928220D01*
X68740624Y-50927000D01*
X68759587Y-50946451D01*
X68791347Y-50946451D01*
X68791848Y-50941246D01*
X68798321Y-50859445D01*
X68814227Y-50806308D01*
X68818814Y-50772637D01*
X68807442Y-50768250D01*
X68775787Y-50794576D01*
X68734407Y-50858817D01*
X68694303Y-50938864D01*
X68666477Y-51012609D01*
X68661930Y-51057944D01*
X68662628Y-51059263D01*
X68657888Y-51084657D01*
X68650471Y-51085750D01*
X68619076Y-51111759D01*
X68584581Y-51173062D01*
X68561179Y-51230632D01*
X68566356Y-51235091D01*
X68598643Y-51196875D01*
X68635359Y-51153849D01*
X68640627Y-51162544D01*
X68628770Y-51204812D01*
X68623765Y-51261390D01*
X68654264Y-51276250D01*
X68686913Y-51255556D01*
X68683465Y-51204812D01*
X68677056Y-51157001D01*
X68685720Y-51151177D01*
X68706763Y-51194329D01*
X68715139Y-51230552D01*
X68736823Y-51305373D01*
X68751363Y-51334859D01*
X68753098Y-51391969D01*
X68726632Y-51428975D01*
X68687645Y-51461411D01*
X68675289Y-51445942D01*
X68674764Y-51433866D01*
X68669515Y-51404062D01*
X68647026Y-51429589D01*
X68643500Y-51435000D01*
X68622433Y-51462756D01*
X68610677Y-51454158D01*
X68603157Y-51398675D01*
X68598842Y-51342350D01*
X68569914Y-51292650D01*
X68551572Y-51282648D01*
X68522736Y-51286559D01*
X68524751Y-51335551D01*
X68528535Y-51351625D01*
X68524819Y-51459352D01*
X68501154Y-51509112D01*
X68472117Y-51568905D01*
X68472228Y-51602393D01*
X68468368Y-51637979D01*
X68434334Y-51701657D01*
X68422568Y-51718900D01*
X68374810Y-51814340D01*
X68373619Y-51879478D01*
X68404302Y-51931850D01*
X68436942Y-51938603D01*
X68452968Y-51896456D01*
X68453000Y-51893501D01*
X68436528Y-51861368D01*
X68418628Y-51865245D01*
X68405610Y-51860237D01*
X68419490Y-51820060D01*
X68451038Y-51761768D01*
X68491023Y-51702412D01*
X68530214Y-51659044D01*
X68530282Y-51658987D01*
X68571055Y-51633996D01*
X68577195Y-51649525D01*
X68551230Y-51694599D01*
X68511084Y-51742390D01*
X68469639Y-51798819D01*
X68462708Y-51836079D01*
X68463787Y-51837369D01*
X68496491Y-51834199D01*
X68538743Y-51788128D01*
X68578355Y-51715918D01*
X68600127Y-51649827D01*
X68621556Y-51592517D01*
X68644654Y-51578588D01*
X68676327Y-51566151D01*
X68705355Y-51530250D01*
X68675250Y-51530250D01*
X68663634Y-51556383D01*
X68654084Y-51551416D01*
X68650732Y-51518174D01*
X68593114Y-51518174D01*
X68567651Y-51561558D01*
X68522403Y-51589569D01*
X68504675Y-51591243D01*
X68491211Y-51581869D01*
X68508563Y-51572722D01*
X68544607Y-51530878D01*
X68548250Y-51509855D01*
X68565047Y-51479579D01*
X68581542Y-51483577D01*
X68593114Y-51518174D01*
X68650732Y-51518174D01*
X68650284Y-51513736D01*
X68654084Y-51509083D01*
X68672959Y-51513441D01*
X68675250Y-51530250D01*
X68705355Y-51530250D01*
X68718292Y-51514250D01*
X68759015Y-51443048D01*
X68786959Y-51372713D01*
X68790606Y-51323449D01*
X68792496Y-51287395D01*
X68808248Y-51284568D01*
X68837806Y-51261608D01*
X68880594Y-51194193D01*
X68925224Y-51101625D01*
X68969495Y-51001513D01*
X68982348Y-50974625D01*
X68961000Y-50974625D01*
X68945125Y-50990500D01*
X68929250Y-50974625D01*
X68945125Y-50958750D01*
X68961000Y-50974625D01*
X68982348Y-50974625D01*
X69005186Y-50926850D01*
X69023557Y-50895250D01*
X69050109Y-50847625D01*
X68992750Y-50847625D01*
X68976875Y-50863500D01*
X68961000Y-50847625D01*
X68976875Y-50831750D01*
X68992750Y-50847625D01*
X69050109Y-50847625D01*
X69059670Y-50830476D01*
X69083744Y-50731419D01*
X69088420Y-50655301D01*
X69015355Y-50655301D01*
X69009640Y-50701553D01*
X68985016Y-50759288D01*
X68968502Y-50754726D01*
X68961242Y-50688690D01*
X68961000Y-50666650D01*
X68965243Y-50619249D01*
X68925621Y-50619249D01*
X68908084Y-50651833D01*
X68886017Y-50670014D01*
X68877788Y-50648892D01*
X68874480Y-50609500D01*
X68882967Y-50558075D01*
X68899474Y-50546000D01*
X68925181Y-50570002D01*
X68925621Y-50619249D01*
X68965243Y-50619249D01*
X68966874Y-50601031D01*
X68986542Y-50592130D01*
X68995904Y-50599953D01*
X69015355Y-50655301D01*
X69088420Y-50655301D01*
X69090161Y-50626972D01*
X69084748Y-50580564D01*
X69078857Y-50530125D01*
X69024500Y-50530125D01*
X69008625Y-50546000D01*
X68992750Y-50530125D01*
X69008625Y-50514250D01*
X69024500Y-50530125D01*
X69078857Y-50530125D01*
X69074422Y-50492164D01*
X69080029Y-50424753D01*
X69081032Y-50421814D01*
X69089227Y-50389015D01*
X69065865Y-50398378D01*
X69038383Y-50419000D01*
X68981351Y-50468468D01*
X68954789Y-50497455D01*
X68920023Y-50512056D01*
X68910604Y-50506186D01*
X68916450Y-50473261D01*
X68960760Y-50423571D01*
X68964440Y-50420438D01*
X69012974Y-50372908D01*
X69013539Y-50353626D01*
X68929250Y-50353626D01*
X68906203Y-50385957D01*
X68897500Y-50387250D01*
X68866576Y-50376417D01*
X68865750Y-50373248D01*
X68887999Y-50346141D01*
X68897500Y-50339625D01*
X68926758Y-50342142D01*
X68929250Y-50353626D01*
X69013539Y-50353626D01*
X69013859Y-50342713D01*
X68992750Y-50324881D01*
X68920407Y-50296920D01*
X68881625Y-50292000D01*
X68839727Y-50286411D01*
X68856459Y-50265515D01*
X68865750Y-50259118D01*
X68892511Y-50230424D01*
X68874322Y-50196750D01*
X68834000Y-50196750D01*
X68807408Y-50222546D01*
X68770500Y-50228500D01*
X68718908Y-50215203D01*
X68707000Y-50196750D01*
X68733593Y-50170953D01*
X68770500Y-50165000D01*
X68822093Y-50178296D01*
X68834000Y-50196750D01*
X68874322Y-50196750D01*
X68873881Y-50195934D01*
X68841938Y-50167203D01*
X68782462Y-50104627D01*
X68779616Y-50066376D01*
X68833015Y-50055113D01*
X68857813Y-50057137D01*
X68902571Y-50059915D01*
X68888123Y-50051540D01*
X68881625Y-50049652D01*
X68814554Y-50021590D01*
X68787963Y-50003168D01*
X68734880Y-49980463D01*
X68664175Y-49975746D01*
X68609533Y-49989893D01*
X68601082Y-49998312D01*
X68608900Y-50036448D01*
X68630958Y-50063064D01*
X68667099Y-50083228D01*
X68675250Y-50071001D01*
X68698656Y-50039163D01*
X68707000Y-50038000D01*
X68735168Y-50063716D01*
X68738750Y-50085625D01*
X68717278Y-50127802D01*
X68698763Y-50133250D01*
X68652383Y-50157561D01*
X68618418Y-50197871D01*
X68583537Y-50241308D01*
X68545456Y-50237543D01*
X68508467Y-50213746D01*
X68440883Y-50174678D01*
X68405254Y-50168470D01*
X68411006Y-50192634D01*
X68448580Y-50229556D01*
X68497878Y-50273007D01*
X68499640Y-50289446D01*
X68456518Y-50292000D01*
X68392825Y-50295393D01*
X68368852Y-50299937D01*
X68347420Y-50283635D01*
X68337799Y-50233469D01*
X68341978Y-50178312D01*
X68358437Y-50148700D01*
X68365597Y-50114291D01*
X68340607Y-50079820D01*
X68290221Y-50047583D01*
X68267847Y-50061693D01*
X68288601Y-50110321D01*
X68293614Y-50116607D01*
X68313288Y-50155579D01*
X68301535Y-50165000D01*
X68230750Y-50165000D01*
X68219134Y-50191133D01*
X68209584Y-50186166D01*
X68205784Y-50148486D01*
X68209584Y-50143833D01*
X68228459Y-50148191D01*
X68230750Y-50165000D01*
X68301535Y-50165000D01*
X68260311Y-50140194D01*
X68246250Y-50085639D01*
X68264445Y-50031129D01*
X68276647Y-50019462D01*
X68320152Y-49975212D01*
X68318189Y-49946690D01*
X68299913Y-49942750D01*
X68273449Y-49968472D01*
G37*
X68273449Y-49968472D02*
X68225153Y-50037151D01*
X68163702Y-50136052D01*
X68137279Y-50181401D01*
X68072706Y-50291116D01*
X68018058Y-50378238D01*
X67982131Y-50428963D01*
X67975183Y-50435843D01*
X67949709Y-50473817D01*
X67918479Y-50548264D01*
X67910966Y-50570254D01*
X67880835Y-50650072D01*
X67854422Y-50699800D01*
X67849580Y-50704750D01*
X67820968Y-50741486D01*
X67780940Y-50810423D01*
X67775591Y-50820716D01*
X67744245Y-50888867D01*
X67744595Y-50922199D01*
X67774455Y-50940047D01*
X67809244Y-50977438D01*
X67807901Y-51002773D01*
X67812819Y-51060827D01*
X67828154Y-51083203D01*
X67846941Y-51122206D01*
X67821803Y-51146900D01*
X67791150Y-51192752D01*
X67792644Y-51216056D01*
X67813619Y-51211553D01*
X67856481Y-51161450D01*
X67912844Y-51075967D01*
X67926448Y-51053041D01*
X67994387Y-50941755D01*
X68059313Y-50844323D01*
X68107604Y-50781144D01*
X68109072Y-50779537D01*
X68148073Y-50720243D01*
X68137888Y-50690350D01*
X68105498Y-50647209D01*
X68103750Y-50635488D01*
X68121141Y-50621417D01*
X68149398Y-50639609D01*
X68186060Y-50655234D01*
X68219908Y-50624975D01*
X68244977Y-50580937D01*
X68245656Y-50579957D01*
X68211434Y-50579957D01*
X68209039Y-50597384D01*
X68180566Y-50626271D01*
X68159166Y-50614115D01*
X68104881Y-50595389D01*
X68084007Y-50599502D01*
X68047087Y-50595781D01*
X68043750Y-50562467D01*
X68072285Y-50529949D01*
X68129358Y-50519337D01*
X68184335Y-50540245D01*
X68211434Y-50579957D01*
X68245656Y-50579957D01*
X68299040Y-50502975D01*
X68359711Y-50449706D01*
X68360542Y-50449256D01*
X68407468Y-50401876D01*
X68407472Y-50386645D01*
X68389500Y-50386645D01*
X68361557Y-50418241D01*
X68292667Y-50440402D01*
X68205241Y-50447940D01*
X68148496Y-50442428D01*
X68080076Y-50449069D01*
X68039307Y-50503707D01*
X68024025Y-50610830D01*
X68025883Y-50696976D01*
X68024581Y-50784074D01*
X68012022Y-50841058D01*
X68005204Y-50849662D01*
X67981026Y-50840232D01*
X67976750Y-50815875D01*
X67964016Y-50780022D01*
X67950031Y-50781015D01*
X67932815Y-50821193D01*
X67929052Y-50894014D01*
X67924930Y-50961291D01*
X67907040Y-50990465D01*
X67906272Y-50990500D01*
X67892087Y-51010253D01*
X67897375Y-51022250D01*
X67894858Y-51051507D01*
X67883374Y-51054000D01*
X67850939Y-51043824D01*
X67849750Y-51040191D01*
X67859830Y-51003600D01*
X67881405Y-50943127D01*
X67887675Y-50921671D01*
X67846048Y-50921671D01*
X67841386Y-50949436D01*
X67818000Y-50942875D01*
X67790375Y-50897564D01*
X67786737Y-50869563D01*
X67791875Y-50834031D01*
X67813824Y-50857110D01*
X67818000Y-50863500D01*
X67846048Y-50921671D01*
X67887675Y-50921671D01*
X67897921Y-50886617D01*
X67883733Y-50878537D01*
X67876009Y-50882768D01*
X67852261Y-50884180D01*
X67859233Y-50852833D01*
X67859596Y-50807656D01*
X67840817Y-50799034D01*
X67831548Y-50786088D01*
X67857688Y-50765706D01*
X67903932Y-50715869D01*
X67913250Y-50682149D01*
X67926494Y-50629142D01*
X67959716Y-50556073D01*
X68003152Y-50479075D01*
X68047039Y-50414279D01*
X68081613Y-50377820D01*
X68096066Y-50380072D01*
X68133961Y-50409535D01*
X68189659Y-50419000D01*
X68243895Y-50413291D01*
X68244338Y-50389309D01*
X68231485Y-50372260D01*
X68210268Y-50324770D01*
X68241205Y-50277010D01*
X68279166Y-50245337D01*
X68159039Y-50245337D01*
X68152681Y-50258137D01*
X68122406Y-50290962D01*
X68116837Y-50267813D01*
X68124544Y-50243005D01*
X68147919Y-50208428D01*
X68158477Y-50209143D01*
X68159039Y-50245337D01*
X68279166Y-50245337D01*
X68292811Y-50233953D01*
X68311166Y-50243745D01*
X68303450Y-50292000D01*
X68305567Y-50344026D01*
X68338172Y-50355500D01*
X68382753Y-50371257D01*
X68389500Y-50386645D01*
X68407472Y-50386645D01*
X68407478Y-50365404D01*
X68406795Y-50330929D01*
X68435749Y-50334703D01*
X68485808Y-50336465D01*
X68499258Y-50325962D01*
X68546472Y-50296926D01*
X68627976Y-50278363D01*
X68714943Y-50273773D01*
X68778547Y-50286655D01*
X68785438Y-50291222D01*
X68813755Y-50337354D01*
X68834556Y-50408936D01*
X68844134Y-50482529D01*
X68838778Y-50534690D01*
X68825751Y-50546000D01*
X68812596Y-50565744D01*
X68817720Y-50577093D01*
X68819733Y-50626997D01*
X68803743Y-50670211D01*
X68788799Y-50721139D01*
X68825359Y-50749286D01*
X68839960Y-50754266D01*
X68887755Y-50774330D01*
X68878323Y-50797970D01*
X68853911Y-50816850D01*
X68819479Y-50855978D01*
X68835650Y-50880394D01*
X68881642Y-50878436D01*
X68900564Y-50859630D01*
X68923673Y-50834800D01*
X68928764Y-50855873D01*
X68907032Y-50905380D01*
X68867377Y-50948849D01*
X68825762Y-51000610D01*
X68828040Y-51035248D01*
X68871731Y-51037191D01*
X68880952Y-51033990D01*
X68908836Y-51031026D01*
X68902250Y-51065260D01*
X68888785Y-51095336D01*
X68858723Y-51147758D01*
X68832586Y-51147093D01*
X68809456Y-51121897D01*
X68780746Y-51091736D01*
X68778203Y-51112729D01*
X68786248Y-51149250D01*
X68796344Y-51200542D01*
X68785357Y-51195580D01*
X68769509Y-51171400D01*
X68751644Y-51103399D01*
X68763363Y-51076150D01*
X68777280Y-51038125D01*
X68738750Y-51038125D01*
X68722875Y-51054000D01*
X68707000Y-51038125D01*
X68722875Y-51022250D01*
X68738750Y-51038125D01*
X68777280Y-51038125D01*
X68784403Y-51018664D01*
X68791347Y-50946451D01*
X68759587Y-50946451D01*
X68754625Y-50958750D01*
X68726095Y-50989038D01*
X68721002Y-50990500D01*
X68707365Y-50965935D01*
X68707000Y-50958750D01*
X68731408Y-50928220D01*
X68740624Y-50927000D01*
X68759587Y-50946451D01*
X68791347Y-50946451D01*
X68791848Y-50941246D01*
X68798321Y-50859445D01*
X68814227Y-50806308D01*
X68818814Y-50772637D01*
X68807442Y-50768250D01*
X68775787Y-50794576D01*
X68734407Y-50858817D01*
X68694303Y-50938864D01*
X68666477Y-51012609D01*
X68661930Y-51057944D01*
X68662628Y-51059263D01*
X68657888Y-51084657D01*
X68650471Y-51085750D01*
X68619076Y-51111759D01*
X68584581Y-51173062D01*
X68561179Y-51230632D01*
X68566356Y-51235091D01*
X68598643Y-51196875D01*
X68635359Y-51153849D01*
X68640627Y-51162544D01*
X68628770Y-51204812D01*
X68623765Y-51261390D01*
X68654264Y-51276250D01*
X68686913Y-51255556D01*
X68683465Y-51204812D01*
X68677056Y-51157001D01*
X68685720Y-51151177D01*
X68706763Y-51194329D01*
X68715139Y-51230552D01*
X68736823Y-51305373D01*
X68751363Y-51334859D01*
X68753098Y-51391969D01*
X68726632Y-51428975D01*
X68687645Y-51461411D01*
X68675289Y-51445942D01*
X68674764Y-51433866D01*
X68669515Y-51404062D01*
X68647026Y-51429589D01*
X68643500Y-51435000D01*
X68622433Y-51462756D01*
X68610677Y-51454158D01*
X68603157Y-51398675D01*
X68598842Y-51342350D01*
X68569914Y-51292650D01*
X68551572Y-51282648D01*
X68522736Y-51286559D01*
X68524751Y-51335551D01*
X68528535Y-51351625D01*
X68524819Y-51459352D01*
X68501154Y-51509112D01*
X68472117Y-51568905D01*
X68472228Y-51602393D01*
X68468368Y-51637979D01*
X68434334Y-51701657D01*
X68422568Y-51718900D01*
X68374810Y-51814340D01*
X68373619Y-51879478D01*
X68404302Y-51931850D01*
X68436942Y-51938603D01*
X68452968Y-51896456D01*
X68453000Y-51893501D01*
X68436528Y-51861368D01*
X68418628Y-51865245D01*
X68405610Y-51860237D01*
X68419490Y-51820060D01*
X68451038Y-51761768D01*
X68491023Y-51702412D01*
X68530214Y-51659044D01*
X68530282Y-51658987D01*
X68571055Y-51633996D01*
X68577195Y-51649525D01*
X68551230Y-51694599D01*
X68511084Y-51742390D01*
X68469639Y-51798819D01*
X68462708Y-51836079D01*
X68463787Y-51837369D01*
X68496491Y-51834199D01*
X68538743Y-51788128D01*
X68578355Y-51715918D01*
X68600127Y-51649827D01*
X68621556Y-51592517D01*
X68644654Y-51578588D01*
X68676327Y-51566151D01*
X68705355Y-51530250D01*
X68675250Y-51530250D01*
X68663634Y-51556383D01*
X68654084Y-51551416D01*
X68650732Y-51518174D01*
X68593114Y-51518174D01*
X68567651Y-51561558D01*
X68522403Y-51589569D01*
X68504675Y-51591243D01*
X68491211Y-51581869D01*
X68508563Y-51572722D01*
X68544607Y-51530878D01*
X68548250Y-51509855D01*
X68565047Y-51479579D01*
X68581542Y-51483577D01*
X68593114Y-51518174D01*
X68650732Y-51518174D01*
X68650284Y-51513736D01*
X68654084Y-51509083D01*
X68672959Y-51513441D01*
X68675250Y-51530250D01*
X68705355Y-51530250D01*
X68718292Y-51514250D01*
X68759015Y-51443048D01*
X68786959Y-51372713D01*
X68790606Y-51323449D01*
X68792496Y-51287395D01*
X68808248Y-51284568D01*
X68837806Y-51261608D01*
X68880594Y-51194193D01*
X68925224Y-51101625D01*
X68969495Y-51001513D01*
X68982348Y-50974625D01*
X68961000Y-50974625D01*
X68945125Y-50990500D01*
X68929250Y-50974625D01*
X68945125Y-50958750D01*
X68961000Y-50974625D01*
X68982348Y-50974625D01*
X69005186Y-50926850D01*
X69023557Y-50895250D01*
X69050109Y-50847625D01*
X68992750Y-50847625D01*
X68976875Y-50863500D01*
X68961000Y-50847625D01*
X68976875Y-50831750D01*
X68992750Y-50847625D01*
X69050109Y-50847625D01*
X69059670Y-50830476D01*
X69083744Y-50731419D01*
X69088420Y-50655301D01*
X69015355Y-50655301D01*
X69009640Y-50701553D01*
X68985016Y-50759288D01*
X68968502Y-50754726D01*
X68961242Y-50688690D01*
X68961000Y-50666650D01*
X68965243Y-50619249D01*
X68925621Y-50619249D01*
X68908084Y-50651833D01*
X68886017Y-50670014D01*
X68877788Y-50648892D01*
X68874480Y-50609500D01*
X68882967Y-50558075D01*
X68899474Y-50546000D01*
X68925181Y-50570002D01*
X68925621Y-50619249D01*
X68965243Y-50619249D01*
X68966874Y-50601031D01*
X68986542Y-50592130D01*
X68995904Y-50599953D01*
X69015355Y-50655301D01*
X69088420Y-50655301D01*
X69090161Y-50626972D01*
X69084748Y-50580564D01*
X69078857Y-50530125D01*
X69024500Y-50530125D01*
X69008625Y-50546000D01*
X68992750Y-50530125D01*
X69008625Y-50514250D01*
X69024500Y-50530125D01*
X69078857Y-50530125D01*
X69074422Y-50492164D01*
X69080029Y-50424753D01*
X69081032Y-50421814D01*
X69089227Y-50389015D01*
X69065865Y-50398378D01*
X69038383Y-50419000D01*
X68981351Y-50468468D01*
X68954789Y-50497455D01*
X68920023Y-50512056D01*
X68910604Y-50506186D01*
X68916450Y-50473261D01*
X68960760Y-50423571D01*
X68964440Y-50420438D01*
X69012974Y-50372908D01*
X69013539Y-50353626D01*
X68929250Y-50353626D01*
X68906203Y-50385957D01*
X68897500Y-50387250D01*
X68866576Y-50376417D01*
X68865750Y-50373248D01*
X68887999Y-50346141D01*
X68897500Y-50339625D01*
X68926758Y-50342142D01*
X68929250Y-50353626D01*
X69013539Y-50353626D01*
X69013859Y-50342713D01*
X68992750Y-50324881D01*
X68920407Y-50296920D01*
X68881625Y-50292000D01*
X68839727Y-50286411D01*
X68856459Y-50265515D01*
X68865750Y-50259118D01*
X68892511Y-50230424D01*
X68874322Y-50196750D01*
X68834000Y-50196750D01*
X68807408Y-50222546D01*
X68770500Y-50228500D01*
X68718908Y-50215203D01*
X68707000Y-50196750D01*
X68733593Y-50170953D01*
X68770500Y-50165000D01*
X68822093Y-50178296D01*
X68834000Y-50196750D01*
X68874322Y-50196750D01*
X68873881Y-50195934D01*
X68841938Y-50167203D01*
X68782462Y-50104627D01*
X68779616Y-50066376D01*
X68833015Y-50055113D01*
X68857813Y-50057137D01*
X68902571Y-50059915D01*
X68888123Y-50051540D01*
X68881625Y-50049652D01*
X68814554Y-50021590D01*
X68787963Y-50003168D01*
X68734880Y-49980463D01*
X68664175Y-49975746D01*
X68609533Y-49989893D01*
X68601082Y-49998312D01*
X68608900Y-50036448D01*
X68630958Y-50063064D01*
X68667099Y-50083228D01*
X68675250Y-50071001D01*
X68698656Y-50039163D01*
X68707000Y-50038000D01*
X68735168Y-50063716D01*
X68738750Y-50085625D01*
X68717278Y-50127802D01*
X68698763Y-50133250D01*
X68652383Y-50157561D01*
X68618418Y-50197871D01*
X68583537Y-50241308D01*
X68545456Y-50237543D01*
X68508467Y-50213746D01*
X68440883Y-50174678D01*
X68405254Y-50168470D01*
X68411006Y-50192634D01*
X68448580Y-50229556D01*
X68497878Y-50273007D01*
X68499640Y-50289446D01*
X68456518Y-50292000D01*
X68392825Y-50295393D01*
X68368852Y-50299937D01*
X68347420Y-50283635D01*
X68337799Y-50233469D01*
X68341978Y-50178312D01*
X68358437Y-50148700D01*
X68365597Y-50114291D01*
X68340607Y-50079820D01*
X68290221Y-50047583D01*
X68267847Y-50061693D01*
X68288601Y-50110321D01*
X68293614Y-50116607D01*
X68313288Y-50155579D01*
X68301535Y-50165000D01*
X68230750Y-50165000D01*
X68219134Y-50191133D01*
X68209584Y-50186166D01*
X68205784Y-50148486D01*
X68209584Y-50143833D01*
X68228459Y-50148191D01*
X68230750Y-50165000D01*
X68301535Y-50165000D01*
X68260311Y-50140194D01*
X68246250Y-50085639D01*
X68264445Y-50031129D01*
X68276647Y-50019462D01*
X68320152Y-49975212D01*
X68318189Y-49946690D01*
X68299913Y-49942750D01*
X68273449Y-49968472D01*
G36*
X67699990Y-50986913D02*
G01*
X67672241Y-51058942D01*
X67644995Y-51156145D01*
X67623956Y-51259830D01*
X67618426Y-51300062D01*
X67617499Y-51369968D01*
X67630814Y-51402879D01*
X67632999Y-51403250D01*
X67657799Y-51378326D01*
X67659250Y-51366208D01*
X67670627Y-51343369D01*
X67677662Y-51347578D01*
X67675239Y-51383875D01*
X67643790Y-51445780D01*
X67642927Y-51447102D01*
X67608860Y-51516481D01*
X67602549Y-51566519D01*
X67622536Y-51563641D01*
X67660067Y-51514986D01*
X67689197Y-51464349D01*
X67726423Y-51375593D01*
X67749705Y-51292125D01*
X67722750Y-51292125D01*
X67706875Y-51308000D01*
X67691000Y-51292125D01*
X67706875Y-51276250D01*
X67722750Y-51292125D01*
X67749705Y-51292125D01*
X67753924Y-51277001D01*
X67769643Y-51183916D01*
X67770180Y-51163251D01*
X67722750Y-51163251D01*
X67706174Y-51206692D01*
X67691000Y-51212750D01*
X67660159Y-51189962D01*
X67659250Y-51182873D01*
X67682330Y-51139873D01*
X67691000Y-51133375D01*
X67718182Y-51140572D01*
X67722750Y-51163251D01*
X67770180Y-51163251D01*
X67771523Y-51111681D01*
X67757507Y-51075638D01*
X67741054Y-51077500D01*
X67729267Y-51074989D01*
X67746288Y-51049235D01*
X67763197Y-51006375D01*
X67754500Y-51006375D01*
X67738625Y-51022250D01*
X67722750Y-51006375D01*
X67738625Y-50990500D01*
X67754500Y-51006375D01*
X67763197Y-51006375D01*
X67767782Y-50994756D01*
X67741650Y-50961534D01*
X67722541Y-50958750D01*
X67699990Y-50986913D01*
G37*
X67699990Y-50986913D02*
X67672241Y-51058942D01*
X67644995Y-51156145D01*
X67623956Y-51259830D01*
X67618426Y-51300062D01*
X67617499Y-51369968D01*
X67630814Y-51402879D01*
X67632999Y-51403250D01*
X67657799Y-51378326D01*
X67659250Y-51366208D01*
X67670627Y-51343369D01*
X67677662Y-51347578D01*
X67675239Y-51383875D01*
X67643790Y-51445780D01*
X67642927Y-51447102D01*
X67608860Y-51516481D01*
X67602549Y-51566519D01*
X67622536Y-51563641D01*
X67660067Y-51514986D01*
X67689197Y-51464349D01*
X67726423Y-51375593D01*
X67749705Y-51292125D01*
X67722750Y-51292125D01*
X67706875Y-51308000D01*
X67691000Y-51292125D01*
X67706875Y-51276250D01*
X67722750Y-51292125D01*
X67749705Y-51292125D01*
X67753924Y-51277001D01*
X67769643Y-51183916D01*
X67770180Y-51163251D01*
X67722750Y-51163251D01*
X67706174Y-51206692D01*
X67691000Y-51212750D01*
X67660159Y-51189962D01*
X67659250Y-51182873D01*
X67682330Y-51139873D01*
X67691000Y-51133375D01*
X67718182Y-51140572D01*
X67722750Y-51163251D01*
X67770180Y-51163251D01*
X67771523Y-51111681D01*
X67757507Y-51075638D01*
X67741054Y-51077500D01*
X67729267Y-51074989D01*
X67746288Y-51049235D01*
X67763197Y-51006375D01*
X67754500Y-51006375D01*
X67738625Y-51022250D01*
X67722750Y-51006375D01*
X67738625Y-50990500D01*
X67754500Y-51006375D01*
X67763197Y-51006375D01*
X67767782Y-50994756D01*
X67741650Y-50961534D01*
X67722541Y-50958750D01*
X67699990Y-50986913D01*
G36*
X68643855Y-51330910D02*
G01*
X68615374Y-51361744D01*
X68624446Y-51394779D01*
X68641488Y-51387807D01*
X68643987Y-51368854D01*
X68649841Y-51340486D01*
X68671768Y-51366952D01*
X68704389Y-51389996D01*
X68718724Y-51378216D01*
X68712352Y-51341612D01*
X68691960Y-51328588D01*
X68643855Y-51330910D01*
G37*
X68643855Y-51330910D02*
X68615374Y-51361744D01*
X68624446Y-51394779D01*
X68641488Y-51387807D01*
X68643987Y-51368854D01*
X68649841Y-51340486D01*
X68671768Y-51366952D01*
X68704389Y-51389996D01*
X68718724Y-51378216D01*
X68712352Y-51341612D01*
X68691960Y-51328588D01*
X68643855Y-51330910D01*
G36*
X68579293Y-50552456D02*
G01*
X68554960Y-50568366D01*
X68478995Y-50646076D01*
X68396251Y-50761872D01*
X68319921Y-50893566D01*
X68263199Y-51018967D01*
X68241444Y-51095657D01*
X68233157Y-51172666D01*
X68247276Y-51205765D01*
X68290166Y-51212750D01*
X68350231Y-51190653D01*
X68427782Y-51134354D01*
X68469912Y-51093984D01*
X68548057Y-50997240D01*
X68624157Y-50880043D01*
X68687904Y-50761080D01*
X68728989Y-50659037D01*
X68738750Y-50606662D01*
X68714955Y-50549588D01*
X68655724Y-50530253D01*
X68579293Y-50552456D01*
G37*
X68579293Y-50552456D02*
X68554960Y-50568366D01*
X68478995Y-50646076D01*
X68396251Y-50761872D01*
X68319921Y-50893566D01*
X68263199Y-51018967D01*
X68241444Y-51095657D01*
X68233157Y-51172666D01*
X68247276Y-51205765D01*
X68290166Y-51212750D01*
X68350231Y-51190653D01*
X68427782Y-51134354D01*
X68469912Y-51093984D01*
X68548057Y-50997240D01*
X68624157Y-50880043D01*
X68687904Y-50761080D01*
X68728989Y-50659037D01*
X68738750Y-50606662D01*
X68714955Y-50549588D01*
X68655724Y-50530253D01*
X68579293Y-50552456D01*
G36*
X68802250Y-51069875D02*
G01*
X68818125Y-51085750D01*
X68834000Y-51069875D01*
X68818125Y-51054000D01*
X68802250Y-51069875D01*
G37*
X68802250Y-51069875D02*
X68818125Y-51085750D01*
X68834000Y-51069875D01*
X68818125Y-51054000D01*
X68802250Y-51069875D01*
G36*
X69130334Y-50556583D02*
G01*
X69126534Y-50594263D01*
X69130334Y-50598916D01*
X69149209Y-50594558D01*
X69151500Y-50577750D01*
X69139884Y-50551616D01*
X69130334Y-50556583D01*
G37*
X69130334Y-50556583D02*
X69126534Y-50594263D01*
X69130334Y-50598916D01*
X69149209Y-50594558D01*
X69151500Y-50577750D01*
X69139884Y-50551616D01*
X69130334Y-50556583D01*
G36*
X68900498Y-49366629D02*
G01*
X68838799Y-49394059D01*
X68764504Y-49440844D01*
X68672853Y-49514983D01*
X68576746Y-49603729D01*
X68489082Y-49694337D01*
X68422760Y-49774058D01*
X68390681Y-49830146D01*
X68389500Y-49838031D01*
X68372092Y-49876022D01*
X68361109Y-49879250D01*
X68341367Y-49906286D01*
X68337297Y-49958602D01*
X68351864Y-50024468D01*
X68381183Y-50032829D01*
X68407569Y-50002700D01*
X68405428Y-49957806D01*
X68390178Y-49943168D01*
X68370297Y-49912458D01*
X68383399Y-49898895D01*
X68420478Y-49903727D01*
X68429250Y-49918739D01*
X68449979Y-49942522D01*
X68491754Y-49918127D01*
X68534215Y-49895182D01*
X68559237Y-49925708D01*
X68561080Y-49930386D01*
X68580963Y-49965508D01*
X68611077Y-49955028D01*
X68638725Y-49931196D01*
X68716175Y-49885917D01*
X68783310Y-49889134D01*
X68823962Y-49939789D01*
X68824976Y-49943419D01*
X68847913Y-49986381D01*
X68881796Y-49974358D01*
X68921536Y-49961728D01*
X68940421Y-49989564D01*
X68981124Y-50032281D01*
X69004871Y-50038000D01*
X69032744Y-50027087D01*
X69031350Y-49983815D01*
X69016929Y-49934812D01*
X68990761Y-49852439D01*
X68973550Y-49793847D01*
X68973058Y-49791937D01*
X68937372Y-49756329D01*
X68915368Y-49752250D01*
X68882139Y-49773608D01*
X68884786Y-49796663D01*
X68884797Y-49845800D01*
X68874337Y-49858068D01*
X68823671Y-49860474D01*
X68782769Y-49814235D01*
X68764627Y-49734123D01*
X68764607Y-49733336D01*
X68764890Y-49632523D01*
X68774044Y-49580455D01*
X68795542Y-49562606D01*
X68805647Y-49561750D01*
X68826877Y-49584845D01*
X68822519Y-49609375D01*
X68827449Y-49648013D01*
X68870189Y-49657000D01*
X68916988Y-49645635D01*
X68921287Y-49599736D01*
X68917122Y-49581248D01*
X68915944Y-49544562D01*
X68728167Y-49544562D01*
X68705859Y-49573157D01*
X68677896Y-49569214D01*
X68645668Y-49561336D01*
X68655845Y-49583633D01*
X68678971Y-49611928D01*
X68725572Y-49689412D01*
X68721850Y-49743759D01*
X68669884Y-49765820D01*
X68644263Y-49764669D01*
X68554817Y-49780819D01*
X68515546Y-49817074D01*
X68469363Y-49866916D01*
X68439228Y-49876120D01*
X68437854Y-49842187D01*
X68441519Y-49831625D01*
X68473716Y-49789586D01*
X68490021Y-49784000D01*
X68504520Y-49763768D01*
X68497594Y-49747344D01*
X68493831Y-49725321D01*
X68507985Y-49731112D01*
X68540356Y-49722016D01*
X68558379Y-49685198D01*
X68586386Y-49639335D01*
X68615009Y-49643138D01*
X68640954Y-49647289D01*
X68634203Y-49615067D01*
X68640811Y-49557556D01*
X68671141Y-49532199D01*
X68717163Y-49518728D01*
X68728167Y-49544562D01*
X68915944Y-49544562D01*
X68915123Y-49519029D01*
X68958147Y-49489825D01*
X68961349Y-49488959D01*
X69004130Y-49486954D01*
X69006796Y-49501210D01*
X69013005Y-49527898D01*
X69025273Y-49530000D01*
X69050667Y-49552644D01*
X69048590Y-49568855D01*
X69052597Y-49623533D01*
X69077301Y-49687917D01*
X69099147Y-49747835D01*
X69092780Y-49776983D01*
X69081870Y-49810493D01*
X69083539Y-49885775D01*
X69089684Y-49935733D01*
X69100789Y-50028183D01*
X69102761Y-50092638D01*
X69099868Y-50107243D01*
X69109499Y-50140556D01*
X69121741Y-50150355D01*
X69141277Y-50198027D01*
X69138613Y-50299369D01*
X69135155Y-50327174D01*
X69126645Y-50431013D01*
X69135056Y-50477601D01*
X69156271Y-50469603D01*
X69186176Y-50409682D01*
X69220656Y-50300504D01*
X69229435Y-50266127D01*
X69254385Y-50136179D01*
X69268287Y-50004549D01*
X69271101Y-49885660D01*
X69262788Y-49793932D01*
X69243308Y-49743788D01*
X69230875Y-49738632D01*
X69201282Y-49767344D01*
X69191458Y-49802132D01*
X69187887Y-49843680D01*
X69199107Y-49827739D01*
X69211495Y-49799875D01*
X69229092Y-49771546D01*
X69237944Y-49795444D01*
X69240666Y-49863375D01*
X69237672Y-49996509D01*
X69226636Y-50098749D01*
X69209516Y-50160240D01*
X69188268Y-50171129D01*
X69181221Y-50162803D01*
X69159231Y-50096297D01*
X69154218Y-50038000D01*
X69157680Y-49985086D01*
X69169331Y-49991601D01*
X69183250Y-50022125D01*
X69204629Y-50058258D01*
X69213153Y-50045436D01*
X69209195Y-49996811D01*
X69193124Y-49925535D01*
X69179282Y-49881512D01*
X69159531Y-49781973D01*
X69180471Y-49698047D01*
X69202131Y-49634043D01*
X69200996Y-49600662D01*
X69179010Y-49613371D01*
X69154195Y-49660327D01*
X69131387Y-49704257D01*
X69121987Y-49687139D01*
X69121763Y-49682686D01*
X69138049Y-49624382D01*
X69154266Y-49607665D01*
X69175958Y-49563365D01*
X69173114Y-49526416D01*
X69175646Y-49477661D01*
X69194160Y-49466290D01*
X69195500Y-49451508D01*
X69187883Y-49444952D01*
X69120851Y-49444952D01*
X69093485Y-49456857D01*
X69048248Y-49440795D01*
X69041153Y-49435395D01*
X68993802Y-49412612D01*
X68938511Y-49433582D01*
X68921323Y-49445080D01*
X68851971Y-49484781D01*
X68804526Y-49497368D01*
X68791250Y-49482560D01*
X68816758Y-49447456D01*
X68877854Y-49414734D01*
X68965489Y-49395647D01*
X69051430Y-49393571D01*
X69107441Y-49411881D01*
X69108194Y-49412610D01*
X69120851Y-49444952D01*
X69187883Y-49444952D01*
X69153138Y-49415049D01*
X69135625Y-49403000D01*
X69052749Y-49355828D01*
X68983145Y-49343969D01*
X68900498Y-49366629D01*
G37*
X68900498Y-49366629D02*
X68838799Y-49394059D01*
X68764504Y-49440844D01*
X68672853Y-49514983D01*
X68576746Y-49603729D01*
X68489082Y-49694337D01*
X68422760Y-49774058D01*
X68390681Y-49830146D01*
X68389500Y-49838031D01*
X68372092Y-49876022D01*
X68361109Y-49879250D01*
X68341367Y-49906286D01*
X68337297Y-49958602D01*
X68351864Y-50024468D01*
X68381183Y-50032829D01*
X68407569Y-50002700D01*
X68405428Y-49957806D01*
X68390178Y-49943168D01*
X68370297Y-49912458D01*
X68383399Y-49898895D01*
X68420478Y-49903727D01*
X68429250Y-49918739D01*
X68449979Y-49942522D01*
X68491754Y-49918127D01*
X68534215Y-49895182D01*
X68559237Y-49925708D01*
X68561080Y-49930386D01*
X68580963Y-49965508D01*
X68611077Y-49955028D01*
X68638725Y-49931196D01*
X68716175Y-49885917D01*
X68783310Y-49889134D01*
X68823962Y-49939789D01*
X68824976Y-49943419D01*
X68847913Y-49986381D01*
X68881796Y-49974358D01*
X68921536Y-49961728D01*
X68940421Y-49989564D01*
X68981124Y-50032281D01*
X69004871Y-50038000D01*
X69032744Y-50027087D01*
X69031350Y-49983815D01*
X69016929Y-49934812D01*
X68990761Y-49852439D01*
X68973550Y-49793847D01*
X68973058Y-49791937D01*
X68937372Y-49756329D01*
X68915368Y-49752250D01*
X68882139Y-49773608D01*
X68884786Y-49796663D01*
X68884797Y-49845800D01*
X68874337Y-49858068D01*
X68823671Y-49860474D01*
X68782769Y-49814235D01*
X68764627Y-49734123D01*
X68764607Y-49733336D01*
X68764890Y-49632523D01*
X68774044Y-49580455D01*
X68795542Y-49562606D01*
X68805647Y-49561750D01*
X68826877Y-49584845D01*
X68822519Y-49609375D01*
X68827449Y-49648013D01*
X68870189Y-49657000D01*
X68916988Y-49645635D01*
X68921287Y-49599736D01*
X68917122Y-49581248D01*
X68915944Y-49544562D01*
X68728167Y-49544562D01*
X68705859Y-49573157D01*
X68677896Y-49569214D01*
X68645668Y-49561336D01*
X68655845Y-49583633D01*
X68678971Y-49611928D01*
X68725572Y-49689412D01*
X68721850Y-49743759D01*
X68669884Y-49765820D01*
X68644263Y-49764669D01*
X68554817Y-49780819D01*
X68515546Y-49817074D01*
X68469363Y-49866916D01*
X68439228Y-49876120D01*
X68437854Y-49842187D01*
X68441519Y-49831625D01*
X68473716Y-49789586D01*
X68490021Y-49784000D01*
X68504520Y-49763768D01*
X68497594Y-49747344D01*
X68493831Y-49725321D01*
X68507985Y-49731112D01*
X68540356Y-49722016D01*
X68558379Y-49685198D01*
X68586386Y-49639335D01*
X68615009Y-49643138D01*
X68640954Y-49647289D01*
X68634203Y-49615067D01*
X68640811Y-49557556D01*
X68671141Y-49532199D01*
X68717163Y-49518728D01*
X68728167Y-49544562D01*
X68915944Y-49544562D01*
X68915123Y-49519029D01*
X68958147Y-49489825D01*
X68961349Y-49488959D01*
X69004130Y-49486954D01*
X69006796Y-49501210D01*
X69013005Y-49527898D01*
X69025273Y-49530000D01*
X69050667Y-49552644D01*
X69048590Y-49568855D01*
X69052597Y-49623533D01*
X69077301Y-49687917D01*
X69099147Y-49747835D01*
X69092780Y-49776983D01*
X69081870Y-49810493D01*
X69083539Y-49885775D01*
X69089684Y-49935733D01*
X69100789Y-50028183D01*
X69102761Y-50092638D01*
X69099868Y-50107243D01*
X69109499Y-50140556D01*
X69121741Y-50150355D01*
X69141277Y-50198027D01*
X69138613Y-50299369D01*
X69135155Y-50327174D01*
X69126645Y-50431013D01*
X69135056Y-50477601D01*
X69156271Y-50469603D01*
X69186176Y-50409682D01*
X69220656Y-50300504D01*
X69229435Y-50266127D01*
X69254385Y-50136179D01*
X69268287Y-50004549D01*
X69271101Y-49885660D01*
X69262788Y-49793932D01*
X69243308Y-49743788D01*
X69230875Y-49738632D01*
X69201282Y-49767344D01*
X69191458Y-49802132D01*
X69187887Y-49843680D01*
X69199107Y-49827739D01*
X69211495Y-49799875D01*
X69229092Y-49771546D01*
X69237944Y-49795444D01*
X69240666Y-49863375D01*
X69237672Y-49996509D01*
X69226636Y-50098749D01*
X69209516Y-50160240D01*
X69188268Y-50171129D01*
X69181221Y-50162803D01*
X69159231Y-50096297D01*
X69154218Y-50038000D01*
X69157680Y-49985086D01*
X69169331Y-49991601D01*
X69183250Y-50022125D01*
X69204629Y-50058258D01*
X69213153Y-50045436D01*
X69209195Y-49996811D01*
X69193124Y-49925535D01*
X69179282Y-49881512D01*
X69159531Y-49781973D01*
X69180471Y-49698047D01*
X69202131Y-49634043D01*
X69200996Y-49600662D01*
X69179010Y-49613371D01*
X69154195Y-49660327D01*
X69131387Y-49704257D01*
X69121987Y-49687139D01*
X69121763Y-49682686D01*
X69138049Y-49624382D01*
X69154266Y-49607665D01*
X69175958Y-49563365D01*
X69173114Y-49526416D01*
X69175646Y-49477661D01*
X69194160Y-49466290D01*
X69195500Y-49451508D01*
X69187883Y-49444952D01*
X69120851Y-49444952D01*
X69093485Y-49456857D01*
X69048248Y-49440795D01*
X69041153Y-49435395D01*
X68993802Y-49412612D01*
X68938511Y-49433582D01*
X68921323Y-49445080D01*
X68851971Y-49484781D01*
X68804526Y-49497368D01*
X68791250Y-49482560D01*
X68816758Y-49447456D01*
X68877854Y-49414734D01*
X68965489Y-49395647D01*
X69051430Y-49393571D01*
X69107441Y-49411881D01*
X69108194Y-49412610D01*
X69120851Y-49444952D01*
X69187883Y-49444952D01*
X69153138Y-49415049D01*
X69135625Y-49403000D01*
X69052749Y-49355828D01*
X68983145Y-49343969D01*
X68900498Y-49366629D01*
G36*
X68937543Y-50209624D02*
G01*
X68933513Y-50243884D01*
X68967151Y-50270766D01*
X69009642Y-50271341D01*
X69049793Y-50273287D01*
X69056250Y-50288603D01*
X69078466Y-50322121D01*
X69088000Y-50323750D01*
X69118705Y-50299482D01*
X69119750Y-50291214D01*
X69093954Y-50259729D01*
X69035688Y-50227278D01*
X68973637Y-50206707D01*
X68937543Y-50209624D01*
G37*
X68937543Y-50209624D02*
X68933513Y-50243884D01*
X68967151Y-50270766D01*
X69009642Y-50271341D01*
X69049793Y-50273287D01*
X69056250Y-50288603D01*
X69078466Y-50322121D01*
X69088000Y-50323750D01*
X69118705Y-50299482D01*
X69119750Y-50291214D01*
X69093954Y-50259729D01*
X69035688Y-50227278D01*
X68973637Y-50206707D01*
X68937543Y-50209624D01*
G36*
X68584913Y-50094637D02*
G01*
X68537734Y-50119650D01*
X68506025Y-50115053D01*
X68461956Y-50112153D01*
X68453000Y-50126150D01*
X68479063Y-50157365D01*
X68534514Y-50178261D01*
X68585244Y-50177717D01*
X68594037Y-50172130D01*
X68609630Y-50128294D01*
X68611264Y-50104145D01*
X68604284Y-50073315D01*
X68584913Y-50094637D01*
G37*
X68584913Y-50094637D02*
X68537734Y-50119650D01*
X68506025Y-50115053D01*
X68461956Y-50112153D01*
X68453000Y-50126150D01*
X68479063Y-50157365D01*
X68534514Y-50178261D01*
X68585244Y-50177717D01*
X68594037Y-50172130D01*
X68609630Y-50128294D01*
X68611264Y-50104145D01*
X68604284Y-50073315D01*
X68584913Y-50094637D01*
G36*
X68969463Y-50116533D02*
G01*
X68961000Y-50133250D01*
X68965877Y-50160973D01*
X68993362Y-50152728D01*
X69024500Y-50133250D01*
X69053689Y-50108644D01*
X69023681Y-50102088D01*
X69016563Y-50101986D01*
X68969463Y-50116533D01*
G37*
X68969463Y-50116533D02*
X68961000Y-50133250D01*
X68965877Y-50160973D01*
X68993362Y-50152728D01*
X69024500Y-50133250D01*
X69053689Y-50108644D01*
X69023681Y-50102088D01*
X69016563Y-50101986D01*
X68969463Y-50116533D01*
G36*
X68485189Y-49968017D02*
G01*
X68473269Y-49990375D01*
X68460917Y-50030405D01*
X68461934Y-50035493D01*
X68492968Y-50023243D01*
X68508563Y-50016972D01*
X68543285Y-49985561D01*
X68542628Y-49951938D01*
X68519897Y-49942750D01*
X68485189Y-49968017D01*
G37*
X68485189Y-49968017D02*
X68473269Y-49990375D01*
X68460917Y-50030405D01*
X68461934Y-50035493D01*
X68492968Y-50023243D01*
X68508563Y-50016972D01*
X68543285Y-49985561D01*
X68542628Y-49951938D01*
X68519897Y-49942750D01*
X68485189Y-49968017D01*
G36*
X68802250Y-49736375D02*
G01*
X68818125Y-49752250D01*
X68834000Y-49736375D01*
X68818125Y-49720500D01*
X68802250Y-49736375D01*
G37*
X68802250Y-49736375D02*
X68818125Y-49752250D01*
X68834000Y-49736375D01*
X68818125Y-49720500D01*
X68802250Y-49736375D01*
G36*
X69217474Y-49521959D02*
G01*
X69217718Y-49530000D01*
X69231384Y-49598065D01*
X69246750Y-49641125D01*
X69274037Y-49704625D01*
X69275783Y-49641125D01*
X69262185Y-49563180D01*
X69246750Y-49530000D01*
X69222266Y-49498396D01*
X69217474Y-49521959D01*
G37*
X69217474Y-49521959D02*
X69217718Y-49530000D01*
X69231384Y-49598065D01*
X69246750Y-49641125D01*
X69274037Y-49704625D01*
X69275783Y-49641125D01*
X69262185Y-49563180D01*
X69246750Y-49530000D01*
X69222266Y-49498396D01*
X69217474Y-49521959D01*
G36*
X68108656Y-52082843D02*
G01*
X68074571Y-52114812D01*
X68081563Y-52133190D01*
X68086002Y-52133500D01*
X68112856Y-52110948D01*
X68122657Y-52096844D01*
X68126400Y-52075117D01*
X68108656Y-52082843D01*
G37*
X68108656Y-52082843D02*
X68074571Y-52114812D01*
X68081563Y-52133190D01*
X68086002Y-52133500D01*
X68112856Y-52110948D01*
X68122657Y-52096844D01*
X68126400Y-52075117D01*
X68108656Y-52082843D01*
G36*
X67945923Y-50665410D02*
G01*
X67945000Y-50673000D01*
X67969161Y-50703827D01*
X67976750Y-50704750D01*
X68007578Y-50680589D01*
X68008500Y-50673000D01*
X67984340Y-50642172D01*
X67976750Y-50641250D01*
X67945923Y-50665410D01*
G37*
X67945923Y-50665410D02*
X67945000Y-50673000D01*
X67969161Y-50703827D01*
X67976750Y-50704750D01*
X68007578Y-50680589D01*
X68008500Y-50673000D01*
X67984340Y-50642172D01*
X67976750Y-50641250D01*
X67945923Y-50665410D01*
G36*
X68649389Y-49665286D02*
G01*
X68604316Y-49685532D01*
X68602761Y-49711118D01*
X68622389Y-49747625D01*
X68648426Y-49735471D01*
X68673763Y-49706417D01*
X68692859Y-49671521D01*
X68657973Y-49664727D01*
X68649389Y-49665286D01*
G37*
X68649389Y-49665286D02*
X68604316Y-49685532D01*
X68602761Y-49711118D01*
X68622389Y-49747625D01*
X68648426Y-49735471D01*
X68673763Y-49706417D01*
X68692859Y-49671521D01*
X68657973Y-49664727D01*
X68649389Y-49665286D01*
%TD*%
D12*
%TO.C,SW2*%
X63795000Y-85090000D03*
X65745000Y-83541000D03*
X65745000Y-86639000D03*
%TD*%
D13*
%TO.C,SW1*%
X64770000Y-72050000D03*
X64770000Y-80350000D03*
D14*
X64770000Y-74200000D03*
X64770000Y-76200000D03*
G36*
G01*
X66020000Y-79051000D02*
X63520000Y-79051000D01*
G75*
G02*
X63469000Y-79000000I0J51000D01*
G01*
X63469000Y-77400000D01*
G75*
G02*
X63520000Y-77349000I51000J0D01*
G01*
X66020000Y-77349000D01*
G75*
G02*
X66071000Y-77400000I0J-51000D01*
G01*
X66071000Y-79000000D01*
G75*
G02*
X66020000Y-79051000I-51000J0D01*
G01*
G37*
%TD*%
D15*
%TO.C,J3*%
X69215000Y-137160000D03*
D16*
X66675000Y-137160000D03*
X69215000Y-134620000D03*
X66675000Y-134620000D03*
X69215000Y-132080000D03*
X66675000Y-132080000D03*
X69215000Y-129540000D03*
X66675000Y-129540000D03*
X69215000Y-127000000D03*
X66675000Y-127000000D03*
%TD*%
D17*
%TO.C,J2*%
X76600000Y-55340000D03*
X102600000Y-55340000D03*
%TD*%
M02*
