%TF.GenerationSoftware,KiCad,Pcbnew,(5.1.10-1-10_14)*%
%TF.CreationDate,2023-03-20T16:19:30+08:00*%
%TF.ProjectId,GB_MemoryBackup_Mainboard,47425f4d-656d-46f7-9279-4261636b7570,1.3*%
%TF.SameCoordinates,Original*%
%TF.FileFunction,Legend,Bot*%
%TF.FilePolarity,Positive*%
%FSLAX46Y46*%
G04 Gerber Fmt 4.6, Leading zero omitted, Abs format (unit mm)*
G04 Created by KiCad (PCBNEW (5.1.10-1-10_14)) date 2023-03-20 16:19:30*
%MOMM*%
%LPD*%
G01*
G04 APERTURE LIST*
%ADD10C,0.125000*%
%ADD11C,0.150000*%
%ADD12C,0.120000*%
%ADD13C,0.040000*%
G04 APERTURE END LIST*
D10*
X65150952Y-78010000D02*
X65198571Y-77986190D01*
X65270000Y-77986190D01*
X65341428Y-78010000D01*
X65389047Y-78057619D01*
X65412857Y-78105238D01*
X65436666Y-78200476D01*
X65436666Y-78271904D01*
X65412857Y-78367142D01*
X65389047Y-78414761D01*
X65341428Y-78462380D01*
X65270000Y-78486190D01*
X65222380Y-78486190D01*
X65150952Y-78462380D01*
X65127142Y-78438571D01*
X65127142Y-78271904D01*
X65222380Y-78271904D01*
X64912857Y-78486190D02*
X64912857Y-77986190D01*
X64627142Y-78486190D01*
X64627142Y-77986190D01*
X64389047Y-78486190D02*
X64389047Y-77986190D01*
X64270000Y-77986190D01*
X64198571Y-78010000D01*
X64150952Y-78057619D01*
X64127142Y-78105238D01*
X64103333Y-78200476D01*
X64103333Y-78271904D01*
X64127142Y-78367142D01*
X64150952Y-78414761D01*
X64198571Y-78462380D01*
X64270000Y-78486190D01*
X64389047Y-78486190D01*
X65448571Y-78861190D02*
X65281904Y-79361190D01*
X65115238Y-78861190D01*
X65020000Y-79027857D02*
X64829523Y-79027857D01*
X64948571Y-78861190D02*
X64948571Y-79289761D01*
X64924761Y-79337380D01*
X64877142Y-79361190D01*
X64829523Y-79361190D01*
X64448571Y-79027857D02*
X64448571Y-79432619D01*
X64472380Y-79480238D01*
X64496190Y-79504047D01*
X64543809Y-79527857D01*
X64615238Y-79527857D01*
X64662857Y-79504047D01*
X64448571Y-79337380D02*
X64496190Y-79361190D01*
X64591428Y-79361190D01*
X64639047Y-79337380D01*
X64662857Y-79313571D01*
X64686666Y-79265952D01*
X64686666Y-79123095D01*
X64662857Y-79075476D01*
X64639047Y-79051666D01*
X64591428Y-79027857D01*
X64496190Y-79027857D01*
X64448571Y-79051666D01*
X64281904Y-79027857D02*
X64091428Y-79027857D01*
X64210476Y-78861190D02*
X64210476Y-79289761D01*
X64186666Y-79337380D01*
X64139047Y-79361190D01*
X64091428Y-79361190D01*
X64900952Y-80236190D02*
X64639047Y-79902857D01*
X64900952Y-79902857D02*
X64639047Y-80236190D01*
X64900952Y-81111190D02*
X64639047Y-80777857D01*
X64900952Y-80777857D02*
X64639047Y-81111190D01*
X65150952Y-81510000D02*
X65198571Y-81486190D01*
X65270000Y-81486190D01*
X65341428Y-81510000D01*
X65389047Y-81557619D01*
X65412857Y-81605238D01*
X65436666Y-81700476D01*
X65436666Y-81771904D01*
X65412857Y-81867142D01*
X65389047Y-81914761D01*
X65341428Y-81962380D01*
X65270000Y-81986190D01*
X65222380Y-81986190D01*
X65150952Y-81962380D01*
X65127142Y-81938571D01*
X65127142Y-81771904D01*
X65222380Y-81771904D01*
X64912857Y-81986190D02*
X64912857Y-81486190D01*
X64627142Y-81986190D01*
X64627142Y-81486190D01*
X64389047Y-81986190D02*
X64389047Y-81486190D01*
X64270000Y-81486190D01*
X64198571Y-81510000D01*
X64150952Y-81557619D01*
X64127142Y-81605238D01*
X64103333Y-81700476D01*
X64103333Y-81771904D01*
X64127142Y-81867142D01*
X64150952Y-81914761D01*
X64198571Y-81962380D01*
X64270000Y-81986190D01*
X64389047Y-81986190D01*
X67952857Y-77986190D02*
X67667142Y-77986190D01*
X67810000Y-78486190D02*
X67810000Y-77986190D01*
X67214761Y-78438571D02*
X67238571Y-78462380D01*
X67310000Y-78486190D01*
X67357619Y-78486190D01*
X67429047Y-78462380D01*
X67476666Y-78414761D01*
X67500476Y-78367142D01*
X67524285Y-78271904D01*
X67524285Y-78200476D01*
X67500476Y-78105238D01*
X67476666Y-78057619D01*
X67429047Y-78010000D01*
X67357619Y-77986190D01*
X67310000Y-77986190D01*
X67238571Y-78010000D01*
X67214761Y-78033809D01*
X67000476Y-78486190D02*
X67000476Y-77986190D01*
X66714761Y-78486190D02*
X66929047Y-78200476D01*
X66714761Y-77986190D02*
X67000476Y-78271904D01*
X67964761Y-78861190D02*
X67679047Y-78861190D01*
X67821904Y-79361190D02*
X67821904Y-78861190D01*
X67512380Y-79361190D02*
X67512380Y-78861190D01*
X67393333Y-78861190D01*
X67321904Y-78885000D01*
X67274285Y-78932619D01*
X67250476Y-78980238D01*
X67226666Y-79075476D01*
X67226666Y-79146904D01*
X67250476Y-79242142D01*
X67274285Y-79289761D01*
X67321904Y-79337380D01*
X67393333Y-79361190D01*
X67512380Y-79361190D01*
X66917142Y-78861190D02*
X66821904Y-78861190D01*
X66774285Y-78885000D01*
X66726666Y-78932619D01*
X66702857Y-79027857D01*
X66702857Y-79194523D01*
X66726666Y-79289761D01*
X66774285Y-79337380D01*
X66821904Y-79361190D01*
X66917142Y-79361190D01*
X66964761Y-79337380D01*
X67012380Y-79289761D01*
X67036190Y-79194523D01*
X67036190Y-79027857D01*
X67012380Y-78932619D01*
X66964761Y-78885000D01*
X66917142Y-78861190D01*
X67976666Y-79736190D02*
X67690952Y-79736190D01*
X67833809Y-80236190D02*
X67833809Y-79736190D01*
X67524285Y-80236190D02*
X67524285Y-79736190D01*
X67357619Y-80093333D01*
X67190952Y-79736190D01*
X67190952Y-80236190D01*
X66976666Y-80212380D02*
X66905238Y-80236190D01*
X66786190Y-80236190D01*
X66738571Y-80212380D01*
X66714761Y-80188571D01*
X66690952Y-80140952D01*
X66690952Y-80093333D01*
X66714761Y-80045714D01*
X66738571Y-80021904D01*
X66786190Y-79998095D01*
X66881428Y-79974285D01*
X66929047Y-79950476D01*
X66952857Y-79926666D01*
X66976666Y-79879047D01*
X66976666Y-79831428D01*
X66952857Y-79783809D01*
X66929047Y-79760000D01*
X66881428Y-79736190D01*
X66762380Y-79736190D01*
X66690952Y-79760000D01*
X67440952Y-81111190D02*
X67179047Y-80777857D01*
X67440952Y-80777857D02*
X67179047Y-81111190D01*
X67821904Y-81486190D02*
X67536190Y-81486190D01*
X67679047Y-81986190D02*
X67679047Y-81486190D01*
X67369523Y-81986190D02*
X67369523Y-81486190D01*
X67250476Y-81486190D01*
X67179047Y-81510000D01*
X67131428Y-81557619D01*
X67107619Y-81605238D01*
X67083809Y-81700476D01*
X67083809Y-81771904D01*
X67107619Y-81867142D01*
X67131428Y-81914761D01*
X67179047Y-81962380D01*
X67250476Y-81986190D01*
X67369523Y-81986190D01*
X66869523Y-81986190D02*
X66869523Y-81486190D01*
D11*
X104218333Y-80732380D02*
X103646904Y-80732380D01*
X103932619Y-81732380D02*
X103932619Y-80732380D01*
X102742142Y-81637142D02*
X102789761Y-81684761D01*
X102932619Y-81732380D01*
X103027857Y-81732380D01*
X103170714Y-81684761D01*
X103265952Y-81589523D01*
X103313571Y-81494285D01*
X103361190Y-81303809D01*
X103361190Y-81160952D01*
X103313571Y-80970476D01*
X103265952Y-80875238D01*
X103170714Y-80780000D01*
X103027857Y-80732380D01*
X102932619Y-80732380D01*
X102789761Y-80780000D01*
X102742142Y-80827619D01*
X101837380Y-80732380D02*
X102313571Y-80732380D01*
X102361190Y-81208571D01*
X102313571Y-81160952D01*
X102218333Y-81113333D01*
X101980238Y-81113333D01*
X101885000Y-81160952D01*
X101837380Y-81208571D01*
X101789761Y-81303809D01*
X101789761Y-81541904D01*
X101837380Y-81637142D01*
X101885000Y-81684761D01*
X101980238Y-81732380D01*
X102218333Y-81732380D01*
X102313571Y-81684761D01*
X102361190Y-81637142D01*
X100885000Y-80732380D02*
X101361190Y-80732380D01*
X101408809Y-81208571D01*
X101361190Y-81160952D01*
X101265952Y-81113333D01*
X101027857Y-81113333D01*
X100932619Y-81160952D01*
X100885000Y-81208571D01*
X100837380Y-81303809D01*
X100837380Y-81541904D01*
X100885000Y-81637142D01*
X100932619Y-81684761D01*
X101027857Y-81732380D01*
X101265952Y-81732380D01*
X101361190Y-81684761D01*
X101408809Y-81637142D01*
X99885000Y-81732380D02*
X100456428Y-81732380D01*
X100170714Y-81732380D02*
X100170714Y-80732380D01*
X100265952Y-80875238D01*
X100361190Y-80970476D01*
X100456428Y-81018095D01*
X99265952Y-80732380D02*
X99170714Y-80732380D01*
X99075476Y-80780000D01*
X99027857Y-80827619D01*
X98980238Y-80922857D01*
X98932619Y-81113333D01*
X98932619Y-81351428D01*
X98980238Y-81541904D01*
X99027857Y-81637142D01*
X99075476Y-81684761D01*
X99170714Y-81732380D01*
X99265952Y-81732380D01*
X99361190Y-81684761D01*
X99408809Y-81637142D01*
X99456428Y-81541904D01*
X99504047Y-81351428D01*
X99504047Y-81113333D01*
X99456428Y-80922857D01*
X99408809Y-80827619D01*
X99361190Y-80780000D01*
X99265952Y-80732380D01*
X98313571Y-80732380D02*
X98218333Y-80732380D01*
X98123095Y-80780000D01*
X98075476Y-80827619D01*
X98027857Y-80922857D01*
X97980238Y-81113333D01*
X97980238Y-81351428D01*
X98027857Y-81541904D01*
X98075476Y-81637142D01*
X98123095Y-81684761D01*
X98218333Y-81732380D01*
X98313571Y-81732380D01*
X98408809Y-81684761D01*
X98456428Y-81637142D01*
X98504047Y-81541904D01*
X98551666Y-81351428D01*
X98551666Y-81113333D01*
X98504047Y-80922857D01*
X98456428Y-80827619D01*
X98408809Y-80780000D01*
X98313571Y-80732380D01*
X97027857Y-81732380D02*
X97599285Y-81732380D01*
X97313571Y-81732380D02*
X97313571Y-80732380D01*
X97408809Y-80875238D01*
X97504047Y-80970476D01*
X97599285Y-81018095D01*
X96837380Y-81827619D02*
X96075476Y-81827619D01*
X95313571Y-81732380D02*
X95885000Y-81732380D01*
X95599285Y-81732380D02*
X95599285Y-80732380D01*
X95694523Y-80875238D01*
X95789761Y-80970476D01*
X95885000Y-81018095D01*
X94932619Y-80827619D02*
X94885000Y-80780000D01*
X94789761Y-80732380D01*
X94551666Y-80732380D01*
X94456428Y-80780000D01*
X94408809Y-80827619D01*
X94361190Y-80922857D01*
X94361190Y-81018095D01*
X94408809Y-81160952D01*
X94980238Y-81732380D01*
X94361190Y-81732380D01*
X93789761Y-81160952D02*
X93885000Y-81113333D01*
X93932619Y-81065714D01*
X93980238Y-80970476D01*
X93980238Y-80922857D01*
X93932619Y-80827619D01*
X93885000Y-80780000D01*
X93789761Y-80732380D01*
X93599285Y-80732380D01*
X93504047Y-80780000D01*
X93456428Y-80827619D01*
X93408809Y-80922857D01*
X93408809Y-80970476D01*
X93456428Y-81065714D01*
X93504047Y-81113333D01*
X93599285Y-81160952D01*
X93789761Y-81160952D01*
X93885000Y-81208571D01*
X93932619Y-81256190D01*
X93980238Y-81351428D01*
X93980238Y-81541904D01*
X93932619Y-81637142D01*
X93885000Y-81684761D01*
X93789761Y-81732380D01*
X93599285Y-81732380D01*
X93504047Y-81684761D01*
X93456428Y-81637142D01*
X93408809Y-81541904D01*
X93408809Y-81351428D01*
X93456428Y-81256190D01*
X93504047Y-81208571D01*
X93599285Y-81160952D01*
X92980238Y-81732380D02*
X92980238Y-80732380D01*
X92408809Y-81732380D02*
X92837380Y-81160952D01*
X92408809Y-80732380D02*
X92980238Y-81303809D01*
X91646904Y-81208571D02*
X91504047Y-81256190D01*
X91456428Y-81303809D01*
X91408809Y-81399047D01*
X91408809Y-81541904D01*
X91456428Y-81637142D01*
X91504047Y-81684761D01*
X91599285Y-81732380D01*
X91980238Y-81732380D01*
X91980238Y-80732380D01*
X91646904Y-80732380D01*
X91551666Y-80780000D01*
X91504047Y-80827619D01*
X91456428Y-80922857D01*
X91456428Y-81018095D01*
X91504047Y-81113333D01*
X91551666Y-81160952D01*
X91646904Y-81208571D01*
X91980238Y-81208571D01*
X91218333Y-81827619D02*
X90456428Y-81827619D01*
X89646904Y-81732380D02*
X89980238Y-81256190D01*
X90218333Y-81732380D02*
X90218333Y-80732380D01*
X89837380Y-80732380D01*
X89742142Y-80780000D01*
X89694523Y-80827619D01*
X89646904Y-80922857D01*
X89646904Y-81065714D01*
X89694523Y-81160952D01*
X89742142Y-81208571D01*
X89837380Y-81256190D01*
X90218333Y-81256190D01*
X89265952Y-81446666D02*
X88789761Y-81446666D01*
X89361190Y-81732380D02*
X89027857Y-80732380D01*
X88694523Y-81732380D01*
X88361190Y-81732380D02*
X88361190Y-80732380D01*
X88027857Y-81446666D01*
X87694523Y-80732380D01*
X87694523Y-81732380D01*
X82184047Y-59856666D02*
X81707857Y-59856666D01*
X82279285Y-60142380D02*
X81945952Y-59142380D01*
X81612619Y-60142380D01*
X81422142Y-59142380D02*
X80850714Y-59142380D01*
X81136428Y-60142380D02*
X81136428Y-59142380D01*
X80184047Y-59618571D02*
X80517380Y-59618571D01*
X80517380Y-60142380D02*
X80517380Y-59142380D01*
X80041190Y-59142380D01*
X79136428Y-60142380D02*
X79707857Y-60142380D01*
X79422142Y-60142380D02*
X79422142Y-59142380D01*
X79517380Y-59285238D01*
X79612619Y-59380476D01*
X79707857Y-59428095D01*
X78231666Y-59142380D02*
X78707857Y-59142380D01*
X78755476Y-59618571D01*
X78707857Y-59570952D01*
X78612619Y-59523333D01*
X78374523Y-59523333D01*
X78279285Y-59570952D01*
X78231666Y-59618571D01*
X78184047Y-59713809D01*
X78184047Y-59951904D01*
X78231666Y-60047142D01*
X78279285Y-60094761D01*
X78374523Y-60142380D01*
X78612619Y-60142380D01*
X78707857Y-60094761D01*
X78755476Y-60047142D01*
X77565000Y-59142380D02*
X77469761Y-59142380D01*
X77374523Y-59190000D01*
X77326904Y-59237619D01*
X77279285Y-59332857D01*
X77231666Y-59523333D01*
X77231666Y-59761428D01*
X77279285Y-59951904D01*
X77326904Y-60047142D01*
X77374523Y-60094761D01*
X77469761Y-60142380D01*
X77565000Y-60142380D01*
X77660238Y-60094761D01*
X77707857Y-60047142D01*
X77755476Y-59951904D01*
X77803095Y-59761428D01*
X77803095Y-59523333D01*
X77755476Y-59332857D01*
X77707857Y-59237619D01*
X77660238Y-59190000D01*
X77565000Y-59142380D01*
X76850714Y-59237619D02*
X76803095Y-59190000D01*
X76707857Y-59142380D01*
X76469761Y-59142380D01*
X76374523Y-59190000D01*
X76326904Y-59237619D01*
X76279285Y-59332857D01*
X76279285Y-59428095D01*
X76326904Y-59570952D01*
X76898333Y-60142380D01*
X76279285Y-60142380D01*
X75136428Y-59094761D02*
X75993571Y-60380476D01*
X74850714Y-59856666D02*
X74374523Y-59856666D01*
X74945952Y-60142380D02*
X74612619Y-59142380D01*
X74279285Y-60142380D01*
X74088809Y-59142380D02*
X73517380Y-59142380D01*
X73803095Y-60142380D02*
X73803095Y-59142380D01*
X72850714Y-59618571D02*
X73184047Y-59618571D01*
X73184047Y-60142380D02*
X73184047Y-59142380D01*
X72707857Y-59142380D01*
X71803095Y-60142380D02*
X72374523Y-60142380D01*
X72088809Y-60142380D02*
X72088809Y-59142380D01*
X72184047Y-59285238D01*
X72279285Y-59380476D01*
X72374523Y-59428095D01*
X70898333Y-59142380D02*
X71374523Y-59142380D01*
X71422142Y-59618571D01*
X71374523Y-59570952D01*
X71279285Y-59523333D01*
X71041190Y-59523333D01*
X70945952Y-59570952D01*
X70898333Y-59618571D01*
X70850714Y-59713809D01*
X70850714Y-59951904D01*
X70898333Y-60047142D01*
X70945952Y-60094761D01*
X71041190Y-60142380D01*
X71279285Y-60142380D01*
X71374523Y-60094761D01*
X71422142Y-60047142D01*
X70231666Y-59142380D02*
X70136428Y-59142380D01*
X70041190Y-59190000D01*
X69993571Y-59237619D01*
X69945952Y-59332857D01*
X69898333Y-59523333D01*
X69898333Y-59761428D01*
X69945952Y-59951904D01*
X69993571Y-60047142D01*
X70041190Y-60094761D01*
X70136428Y-60142380D01*
X70231666Y-60142380D01*
X70326904Y-60094761D01*
X70374523Y-60047142D01*
X70422142Y-59951904D01*
X70469761Y-59761428D01*
X70469761Y-59523333D01*
X70422142Y-59332857D01*
X70374523Y-59237619D01*
X70326904Y-59190000D01*
X70231666Y-59142380D01*
X69041190Y-59475714D02*
X69041190Y-60142380D01*
X69279285Y-59094761D02*
X69517380Y-59809047D01*
X68898333Y-59809047D01*
X100416904Y-59777380D02*
X99750238Y-59777380D01*
X100178809Y-60777380D01*
X98940714Y-60110714D02*
X98940714Y-60777380D01*
X99178809Y-59729761D02*
X99416904Y-60444047D01*
X98797857Y-60444047D01*
X98416904Y-60777380D02*
X98416904Y-59777380D01*
X98416904Y-60253571D02*
X97845476Y-60253571D01*
X97845476Y-60777380D02*
X97845476Y-59777380D01*
X96797857Y-60682142D02*
X96845476Y-60729761D01*
X96988333Y-60777380D01*
X97083571Y-60777380D01*
X97226428Y-60729761D01*
X97321666Y-60634523D01*
X97369285Y-60539285D01*
X97416904Y-60348809D01*
X97416904Y-60205952D01*
X97369285Y-60015476D01*
X97321666Y-59920238D01*
X97226428Y-59825000D01*
X97083571Y-59777380D01*
X96988333Y-59777380D01*
X96845476Y-59825000D01*
X96797857Y-59872619D01*
X96464523Y-59777380D02*
X95845476Y-59777380D01*
X96178809Y-60158333D01*
X96035952Y-60158333D01*
X95940714Y-60205952D01*
X95893095Y-60253571D01*
X95845476Y-60348809D01*
X95845476Y-60586904D01*
X95893095Y-60682142D01*
X95940714Y-60729761D01*
X96035952Y-60777380D01*
X96321666Y-60777380D01*
X96416904Y-60729761D01*
X96464523Y-60682142D01*
X95512142Y-59777380D02*
X94845476Y-59777380D01*
X95274047Y-60777380D01*
X94559761Y-59777380D02*
X93940714Y-59777380D01*
X94274047Y-60158333D01*
X94131190Y-60158333D01*
X94035952Y-60205952D01*
X93988333Y-60253571D01*
X93940714Y-60348809D01*
X93940714Y-60586904D01*
X93988333Y-60682142D01*
X94035952Y-60729761D01*
X94131190Y-60777380D01*
X94416904Y-60777380D01*
X94512142Y-60729761D01*
X94559761Y-60682142D01*
X113116904Y-59777380D02*
X112450238Y-59777380D01*
X112878809Y-60777380D01*
X111640714Y-60110714D02*
X111640714Y-60777380D01*
X111878809Y-59729761D02*
X112116904Y-60444047D01*
X111497857Y-60444047D01*
X111116904Y-60777380D02*
X111116904Y-59777380D01*
X111116904Y-60253571D02*
X110545476Y-60253571D01*
X110545476Y-60777380D02*
X110545476Y-59777380D01*
X109497857Y-60682142D02*
X109545476Y-60729761D01*
X109688333Y-60777380D01*
X109783571Y-60777380D01*
X109926428Y-60729761D01*
X110021666Y-60634523D01*
X110069285Y-60539285D01*
X110116904Y-60348809D01*
X110116904Y-60205952D01*
X110069285Y-60015476D01*
X110021666Y-59920238D01*
X109926428Y-59825000D01*
X109783571Y-59777380D01*
X109688333Y-59777380D01*
X109545476Y-59825000D01*
X109497857Y-59872619D01*
X109164523Y-59777380D02*
X108545476Y-59777380D01*
X108878809Y-60158333D01*
X108735952Y-60158333D01*
X108640714Y-60205952D01*
X108593095Y-60253571D01*
X108545476Y-60348809D01*
X108545476Y-60586904D01*
X108593095Y-60682142D01*
X108640714Y-60729761D01*
X108735952Y-60777380D01*
X109021666Y-60777380D01*
X109116904Y-60729761D01*
X109164523Y-60682142D01*
X108212142Y-59777380D02*
X107545476Y-59777380D01*
X107974047Y-60777380D01*
X107259761Y-59777380D02*
X106640714Y-59777380D01*
X106974047Y-60158333D01*
X106831190Y-60158333D01*
X106735952Y-60205952D01*
X106688333Y-60253571D01*
X106640714Y-60348809D01*
X106640714Y-60586904D01*
X106688333Y-60682142D01*
X106735952Y-60729761D01*
X106831190Y-60777380D01*
X107116904Y-60777380D01*
X107212142Y-60729761D01*
X107259761Y-60682142D01*
X80358333Y-9612380D02*
X80834523Y-9612380D01*
X80882142Y-10088571D01*
X80834523Y-10040952D01*
X80739285Y-9993333D01*
X80501190Y-9993333D01*
X80405952Y-10040952D01*
X80358333Y-10088571D01*
X80310714Y-10183809D01*
X80310714Y-10421904D01*
X80358333Y-10517142D01*
X80405952Y-10564761D01*
X80501190Y-10612380D01*
X80739285Y-10612380D01*
X80834523Y-10564761D01*
X80882142Y-10517142D01*
X79358333Y-10612380D02*
X79929761Y-10612380D01*
X79644047Y-10612380D02*
X79644047Y-9612380D01*
X79739285Y-9755238D01*
X79834523Y-9850476D01*
X79929761Y-9898095D01*
X78977380Y-9707619D02*
X78929761Y-9660000D01*
X78834523Y-9612380D01*
X78596428Y-9612380D01*
X78501190Y-9660000D01*
X78453571Y-9707619D01*
X78405952Y-9802857D01*
X78405952Y-9898095D01*
X78453571Y-10040952D01*
X79025000Y-10612380D01*
X78405952Y-10612380D01*
X77977380Y-10612380D02*
X77977380Y-9612380D01*
X77405952Y-10612380D02*
X77834523Y-10040952D01*
X77405952Y-9612380D02*
X77977380Y-10183809D01*
X76644047Y-10088571D02*
X76501190Y-10136190D01*
X76453571Y-10183809D01*
X76405952Y-10279047D01*
X76405952Y-10421904D01*
X76453571Y-10517142D01*
X76501190Y-10564761D01*
X76596428Y-10612380D01*
X76977380Y-10612380D01*
X76977380Y-9612380D01*
X76644047Y-9612380D01*
X76548809Y-9660000D01*
X76501190Y-9707619D01*
X76453571Y-9802857D01*
X76453571Y-9898095D01*
X76501190Y-9993333D01*
X76548809Y-10040952D01*
X76644047Y-10088571D01*
X76977380Y-10088571D01*
X76215476Y-10707619D02*
X75453571Y-10707619D01*
X75263095Y-10564761D02*
X75120238Y-10612380D01*
X74882142Y-10612380D01*
X74786904Y-10564761D01*
X74739285Y-10517142D01*
X74691666Y-10421904D01*
X74691666Y-10326666D01*
X74739285Y-10231428D01*
X74786904Y-10183809D01*
X74882142Y-10136190D01*
X75072619Y-10088571D01*
X75167857Y-10040952D01*
X75215476Y-9993333D01*
X75263095Y-9898095D01*
X75263095Y-9802857D01*
X75215476Y-9707619D01*
X75167857Y-9660000D01*
X75072619Y-9612380D01*
X74834523Y-9612380D01*
X74691666Y-9660000D01*
X74405952Y-9612380D02*
X73834523Y-9612380D01*
X74120238Y-10612380D02*
X74120238Y-9612380D01*
X73310714Y-9612380D02*
X73120238Y-9612380D01*
X73025000Y-9660000D01*
X72929761Y-9755238D01*
X72882142Y-9945714D01*
X72882142Y-10279047D01*
X72929761Y-10469523D01*
X73025000Y-10564761D01*
X73120238Y-10612380D01*
X73310714Y-10612380D01*
X73405952Y-10564761D01*
X73501190Y-10469523D01*
X73548809Y-10279047D01*
X73548809Y-9945714D01*
X73501190Y-9755238D01*
X73405952Y-9660000D01*
X73310714Y-9612380D01*
X71882142Y-10612380D02*
X72215476Y-10136190D01*
X72453571Y-10612380D02*
X72453571Y-9612380D01*
X72072619Y-9612380D01*
X71977380Y-9660000D01*
X71929761Y-9707619D01*
X71882142Y-9802857D01*
X71882142Y-9945714D01*
X71929761Y-10040952D01*
X71977380Y-10088571D01*
X72072619Y-10136190D01*
X72453571Y-10136190D01*
X71501190Y-10326666D02*
X71025000Y-10326666D01*
X71596428Y-10612380D02*
X71263095Y-9612380D01*
X70929761Y-10612380D01*
X70072619Y-9660000D02*
X70167857Y-9612380D01*
X70310714Y-9612380D01*
X70453571Y-9660000D01*
X70548809Y-9755238D01*
X70596428Y-9850476D01*
X70644047Y-10040952D01*
X70644047Y-10183809D01*
X70596428Y-10374285D01*
X70548809Y-10469523D01*
X70453571Y-10564761D01*
X70310714Y-10612380D01*
X70215476Y-10612380D01*
X70072619Y-10564761D01*
X70025000Y-10517142D01*
X70025000Y-10183809D01*
X70215476Y-10183809D01*
X69596428Y-10088571D02*
X69263095Y-10088571D01*
X69120238Y-10612380D02*
X69596428Y-10612380D01*
X69596428Y-9612380D01*
X69120238Y-9612380D01*
X68929761Y-10707619D02*
X68167857Y-10707619D01*
X67358333Y-10612380D02*
X67691666Y-10136190D01*
X67929761Y-10612380D02*
X67929761Y-9612380D01*
X67548809Y-9612380D01*
X67453571Y-9660000D01*
X67405952Y-9707619D01*
X67358333Y-9802857D01*
X67358333Y-9945714D01*
X67405952Y-10040952D01*
X67453571Y-10088571D01*
X67548809Y-10136190D01*
X67929761Y-10136190D01*
X66739285Y-9612380D02*
X66548809Y-9612380D01*
X66453571Y-9660000D01*
X66358333Y-9755238D01*
X66310714Y-9945714D01*
X66310714Y-10279047D01*
X66358333Y-10469523D01*
X66453571Y-10564761D01*
X66548809Y-10612380D01*
X66739285Y-10612380D01*
X66834523Y-10564761D01*
X66929761Y-10469523D01*
X66977380Y-10279047D01*
X66977380Y-9945714D01*
X66929761Y-9755238D01*
X66834523Y-9660000D01*
X66739285Y-9612380D01*
X65882142Y-10612380D02*
X65882142Y-9612380D01*
X65548809Y-10326666D01*
X65215476Y-9612380D01*
X65215476Y-10612380D01*
X105901428Y-9612380D02*
X106377619Y-9612380D01*
X106425238Y-10088571D01*
X106377619Y-10040952D01*
X106282380Y-9993333D01*
X106044285Y-9993333D01*
X105949047Y-10040952D01*
X105901428Y-10088571D01*
X105853809Y-10183809D01*
X105853809Y-10421904D01*
X105901428Y-10517142D01*
X105949047Y-10564761D01*
X106044285Y-10612380D01*
X106282380Y-10612380D01*
X106377619Y-10564761D01*
X106425238Y-10517142D01*
X104901428Y-10612380D02*
X105472857Y-10612380D01*
X105187142Y-10612380D02*
X105187142Y-9612380D01*
X105282380Y-9755238D01*
X105377619Y-9850476D01*
X105472857Y-9898095D01*
X104520476Y-9707619D02*
X104472857Y-9660000D01*
X104377619Y-9612380D01*
X104139523Y-9612380D01*
X104044285Y-9660000D01*
X103996666Y-9707619D01*
X103949047Y-9802857D01*
X103949047Y-9898095D01*
X103996666Y-10040952D01*
X104568095Y-10612380D01*
X103949047Y-10612380D01*
X103520476Y-10612380D02*
X103520476Y-9612380D01*
X102949047Y-10612380D02*
X103377619Y-10040952D01*
X102949047Y-9612380D02*
X103520476Y-10183809D01*
X102187142Y-10088571D02*
X102044285Y-10136190D01*
X101996666Y-10183809D01*
X101949047Y-10279047D01*
X101949047Y-10421904D01*
X101996666Y-10517142D01*
X102044285Y-10564761D01*
X102139523Y-10612380D01*
X102520476Y-10612380D01*
X102520476Y-9612380D01*
X102187142Y-9612380D01*
X102091904Y-9660000D01*
X102044285Y-9707619D01*
X101996666Y-9802857D01*
X101996666Y-9898095D01*
X102044285Y-9993333D01*
X102091904Y-10040952D01*
X102187142Y-10088571D01*
X102520476Y-10088571D01*
X101758571Y-10707619D02*
X100996666Y-10707619D01*
X100758571Y-10612380D02*
X100758571Y-9612380D01*
X100377619Y-9612380D01*
X100282380Y-9660000D01*
X100234761Y-9707619D01*
X100187142Y-9802857D01*
X100187142Y-9945714D01*
X100234761Y-10040952D01*
X100282380Y-10088571D01*
X100377619Y-10136190D01*
X100758571Y-10136190D01*
X99187142Y-10612380D02*
X99520476Y-10136190D01*
X99758571Y-10612380D02*
X99758571Y-9612380D01*
X99377619Y-9612380D01*
X99282380Y-9660000D01*
X99234761Y-9707619D01*
X99187142Y-9802857D01*
X99187142Y-9945714D01*
X99234761Y-10040952D01*
X99282380Y-10088571D01*
X99377619Y-10136190D01*
X99758571Y-10136190D01*
X98234761Y-9660000D02*
X98330000Y-9612380D01*
X98472857Y-9612380D01*
X98615714Y-9660000D01*
X98710952Y-9755238D01*
X98758571Y-9850476D01*
X98806190Y-10040952D01*
X98806190Y-10183809D01*
X98758571Y-10374285D01*
X98710952Y-10469523D01*
X98615714Y-10564761D01*
X98472857Y-10612380D01*
X98377619Y-10612380D01*
X98234761Y-10564761D01*
X98187142Y-10517142D01*
X98187142Y-10183809D01*
X98377619Y-10183809D01*
X97996666Y-10707619D02*
X97234761Y-10707619D01*
X96425238Y-10612380D02*
X96758571Y-10136190D01*
X96996666Y-10612380D02*
X96996666Y-9612380D01*
X96615714Y-9612380D01*
X96520476Y-9660000D01*
X96472857Y-9707619D01*
X96425238Y-9802857D01*
X96425238Y-9945714D01*
X96472857Y-10040952D01*
X96520476Y-10088571D01*
X96615714Y-10136190D01*
X96996666Y-10136190D01*
X95806190Y-9612380D02*
X95615714Y-9612380D01*
X95520476Y-9660000D01*
X95425238Y-9755238D01*
X95377619Y-9945714D01*
X95377619Y-10279047D01*
X95425238Y-10469523D01*
X95520476Y-10564761D01*
X95615714Y-10612380D01*
X95806190Y-10612380D01*
X95901428Y-10564761D01*
X95996666Y-10469523D01*
X96044285Y-10279047D01*
X96044285Y-9945714D01*
X95996666Y-9755238D01*
X95901428Y-9660000D01*
X95806190Y-9612380D01*
X94949047Y-10612380D02*
X94949047Y-9612380D01*
X94615714Y-10326666D01*
X94282380Y-9612380D01*
X94282380Y-10612380D01*
X68032380Y-20503095D02*
X68032380Y-20693571D01*
X68080000Y-20788809D01*
X68175238Y-20884047D01*
X68365714Y-20931666D01*
X68699047Y-20931666D01*
X68889523Y-20884047D01*
X68984761Y-20788809D01*
X69032380Y-20693571D01*
X69032380Y-20503095D01*
X68984761Y-20407857D01*
X68889523Y-20312619D01*
X68699047Y-20265000D01*
X68365714Y-20265000D01*
X68175238Y-20312619D01*
X68080000Y-20407857D01*
X68032380Y-20503095D01*
X68365714Y-21217380D02*
X68365714Y-21598333D01*
X69032380Y-21360238D02*
X68175238Y-21360238D01*
X68080000Y-21407857D01*
X68032380Y-21503095D01*
X68032380Y-21598333D01*
X68365714Y-21788809D02*
X68365714Y-22169761D01*
X69032380Y-21931666D02*
X68175238Y-21931666D01*
X68080000Y-21979285D01*
X68032380Y-22074523D01*
X68032380Y-22169761D01*
X68365714Y-24026904D02*
X68651428Y-23265000D01*
X68937142Y-24026904D01*
X68651428Y-24503095D02*
X68651428Y-25265000D01*
X68365714Y-25741190D02*
X68651428Y-26503095D01*
X68937142Y-25741190D01*
X68032380Y-27931666D02*
X68032380Y-28122142D01*
X68080000Y-28217380D01*
X68175238Y-28312619D01*
X68365714Y-28360238D01*
X68699047Y-28360238D01*
X68889523Y-28312619D01*
X68984761Y-28217380D01*
X69032380Y-28122142D01*
X69032380Y-27931666D01*
X68984761Y-27836428D01*
X68889523Y-27741190D01*
X68699047Y-27693571D01*
X68365714Y-27693571D01*
X68175238Y-27741190D01*
X68080000Y-27836428D01*
X68032380Y-27931666D01*
X68365714Y-28788809D02*
X69032380Y-28788809D01*
X68460952Y-28788809D02*
X68413333Y-28836428D01*
X68365714Y-28931666D01*
X68365714Y-29074523D01*
X68413333Y-29169761D01*
X68508571Y-29217380D01*
X69032380Y-29217380D01*
D12*
%TO.C,U7*%
X92015000Y-33535000D02*
X102295000Y-33535000D01*
X92015000Y-59175000D02*
X92015000Y-33535000D01*
X102295000Y-59175000D02*
X92015000Y-59175000D01*
X102295000Y-33535000D02*
X102295000Y-59175000D01*
X94505000Y-33595000D02*
X96155000Y-33595000D01*
X94505000Y-59115000D02*
X94505000Y-33595000D01*
X99805000Y-59115000D02*
X94505000Y-59115000D01*
X99805000Y-33595000D02*
X99805000Y-59115000D01*
X98155000Y-33595000D02*
X99805000Y-33595000D01*
X96155000Y-33595000D02*
G75*
G03*
X98155000Y-33595000I1000000J0D01*
G01*
%TO.C,U6*%
X104715000Y-33535000D02*
X114995000Y-33535000D01*
X104715000Y-59175000D02*
X104715000Y-33535000D01*
X114995000Y-59175000D02*
X104715000Y-59175000D01*
X114995000Y-33535000D02*
X114995000Y-59175000D01*
X107205000Y-33595000D02*
X108855000Y-33595000D01*
X107205000Y-59115000D02*
X107205000Y-33595000D01*
X112505000Y-59115000D02*
X107205000Y-59115000D01*
X112505000Y-33595000D02*
X112505000Y-59115000D01*
X110855000Y-33595000D02*
X112505000Y-33595000D01*
X108855000Y-33595000D02*
G75*
G03*
X110855000Y-33595000I1000000J0D01*
G01*
%TO.C,U4*%
X116325000Y-62170000D02*
X116325000Y-80070000D01*
X75445000Y-62170000D02*
X116325000Y-62170000D01*
X75445000Y-80070000D02*
X75445000Y-62170000D01*
X116325000Y-80070000D02*
X75445000Y-80070000D01*
X116265000Y-64660000D02*
X116265000Y-70120000D01*
X75505000Y-64660000D02*
X116265000Y-64660000D01*
X75505000Y-77580000D02*
X75505000Y-64660000D01*
X116265000Y-77580000D02*
X75505000Y-77580000D01*
X116265000Y-72120000D02*
X116265000Y-77580000D01*
X116265000Y-70120000D02*
G75*
G03*
X116265000Y-72120000I0J-1000000D01*
G01*
%TO.C,U3*%
X63715000Y-35140000D02*
X74565000Y-35140000D01*
X63715000Y-58840000D02*
X63715000Y-35140000D01*
X87415000Y-58840000D02*
X63715000Y-58840000D01*
X87415000Y-36140000D02*
X87415000Y-58840000D01*
X86415000Y-35140000D02*
X87415000Y-36140000D01*
X76565000Y-35140000D02*
X86415000Y-35140000D01*
%TO.C,U2*%
X69615000Y-11190000D02*
X77740000Y-11190000D01*
X69615000Y-31990000D02*
X69615000Y-11190000D01*
X87865000Y-31990000D02*
X69615000Y-31990000D01*
X87865000Y-12190000D02*
X87865000Y-31990000D01*
X86865000Y-11190000D02*
X87865000Y-12190000D01*
X79740000Y-11190000D02*
X86865000Y-11190000D01*
%TO.C,U1*%
X95015000Y-11190000D02*
X103140000Y-11190000D01*
X95015000Y-31990000D02*
X95015000Y-11190000D01*
X113265000Y-31990000D02*
X95015000Y-31990000D01*
X113265000Y-12190000D02*
X113265000Y-31990000D01*
X112265000Y-11190000D02*
X113265000Y-12190000D01*
X105140000Y-11190000D02*
X112265000Y-11190000D01*
D11*
%TO.C,SW1*%
X62470000Y-22765000D02*
X62470000Y-20465000D01*
X62470000Y-29065000D02*
X62470000Y-26865000D01*
X67070000Y-29065000D02*
X67070000Y-20465000D01*
D13*
%TO.C,J3*%
X61640000Y-61020000D02*
X70440000Y-61020000D01*
X61640000Y-81220000D02*
X61640000Y-61020000D01*
X70440000Y-81220000D02*
X61640000Y-81220000D01*
X70440000Y-61020000D02*
X70440000Y-81220000D01*
D12*
X68640000Y-77530000D02*
X63440000Y-77530000D01*
X68640000Y-67310000D02*
X68640000Y-77530000D01*
X63440000Y-64710000D02*
X63440000Y-77530000D01*
X68640000Y-67310000D02*
X66040000Y-67310000D01*
X66040000Y-67310000D02*
X66040000Y-64710000D01*
X66040000Y-64710000D02*
X63440000Y-64710000D01*
X68640000Y-66040000D02*
X68640000Y-64710000D01*
X68640000Y-64710000D02*
X67310000Y-64710000D01*
D13*
X70440000Y-68870000D02*
X69290000Y-68870000D01*
X69290000Y-68870000D02*
X69290000Y-73370000D01*
X69290000Y-73370000D02*
X70440000Y-73370000D01*
%TO.C,U7*%
D11*
X97916904Y-32047380D02*
X97916904Y-32856904D01*
X97869285Y-32952142D01*
X97821666Y-32999761D01*
X97726428Y-33047380D01*
X97535952Y-33047380D01*
X97440714Y-32999761D01*
X97393095Y-32952142D01*
X97345476Y-32856904D01*
X97345476Y-32047380D01*
X96964523Y-32047380D02*
X96297857Y-32047380D01*
X96726428Y-33047380D01*
%TO.C,U6*%
X110616904Y-32047380D02*
X110616904Y-32856904D01*
X110569285Y-32952142D01*
X110521666Y-32999761D01*
X110426428Y-33047380D01*
X110235952Y-33047380D01*
X110140714Y-32999761D01*
X110093095Y-32952142D01*
X110045476Y-32856904D01*
X110045476Y-32047380D01*
X109140714Y-32047380D02*
X109331190Y-32047380D01*
X109426428Y-32095000D01*
X109474047Y-32142619D01*
X109569285Y-32285476D01*
X109616904Y-32475952D01*
X109616904Y-32856904D01*
X109569285Y-32952142D01*
X109521666Y-32999761D01*
X109426428Y-33047380D01*
X109235952Y-33047380D01*
X109140714Y-32999761D01*
X109093095Y-32952142D01*
X109045476Y-32856904D01*
X109045476Y-32618809D01*
X109093095Y-32523571D01*
X109140714Y-32475952D01*
X109235952Y-32428333D01*
X109426428Y-32428333D01*
X109521666Y-32475952D01*
X109569285Y-32523571D01*
X109616904Y-32618809D01*
%TO.C,U4*%
X116717380Y-70358095D02*
X117526904Y-70358095D01*
X117622142Y-70405714D01*
X117669761Y-70453333D01*
X117717380Y-70548571D01*
X117717380Y-70739047D01*
X117669761Y-70834285D01*
X117622142Y-70881904D01*
X117526904Y-70929523D01*
X116717380Y-70929523D01*
X117050714Y-71834285D02*
X117717380Y-71834285D01*
X116669761Y-71596190D02*
X117384047Y-71358095D01*
X117384047Y-71977142D01*
%TO.C,U3*%
X76326904Y-33692380D02*
X76326904Y-34501904D01*
X76279285Y-34597142D01*
X76231666Y-34644761D01*
X76136428Y-34692380D01*
X75945952Y-34692380D01*
X75850714Y-34644761D01*
X75803095Y-34597142D01*
X75755476Y-34501904D01*
X75755476Y-33692380D01*
X75374523Y-33692380D02*
X74755476Y-33692380D01*
X75088809Y-34073333D01*
X74945952Y-34073333D01*
X74850714Y-34120952D01*
X74803095Y-34168571D01*
X74755476Y-34263809D01*
X74755476Y-34501904D01*
X74803095Y-34597142D01*
X74850714Y-34644761D01*
X74945952Y-34692380D01*
X75231666Y-34692380D01*
X75326904Y-34644761D01*
X75374523Y-34597142D01*
%TO.C,U2*%
X84581904Y-9742380D02*
X84581904Y-10551904D01*
X84534285Y-10647142D01*
X84486666Y-10694761D01*
X84391428Y-10742380D01*
X84200952Y-10742380D01*
X84105714Y-10694761D01*
X84058095Y-10647142D01*
X84010476Y-10551904D01*
X84010476Y-9742380D01*
X83581904Y-9837619D02*
X83534285Y-9790000D01*
X83439047Y-9742380D01*
X83200952Y-9742380D01*
X83105714Y-9790000D01*
X83058095Y-9837619D01*
X83010476Y-9932857D01*
X83010476Y-10028095D01*
X83058095Y-10170952D01*
X83629523Y-10742380D01*
X83010476Y-10742380D01*
%TO.C,U1*%
X109981904Y-9742380D02*
X109981904Y-10551904D01*
X109934285Y-10647142D01*
X109886666Y-10694761D01*
X109791428Y-10742380D01*
X109600952Y-10742380D01*
X109505714Y-10694761D01*
X109458095Y-10647142D01*
X109410476Y-10551904D01*
X109410476Y-9742380D01*
X108410476Y-10742380D02*
X108981904Y-10742380D01*
X108696190Y-10742380D02*
X108696190Y-9742380D01*
X108791428Y-9885238D01*
X108886666Y-9980476D01*
X108981904Y-10028095D01*
%TO.C,SW1*%
D10*
X63067380Y-24098333D02*
X63091190Y-24169761D01*
X63091190Y-24288809D01*
X63067380Y-24336428D01*
X63043571Y-24360238D01*
X62995952Y-24384047D01*
X62948333Y-24384047D01*
X62900714Y-24360238D01*
X62876904Y-24336428D01*
X62853095Y-24288809D01*
X62829285Y-24193571D01*
X62805476Y-24145952D01*
X62781666Y-24122142D01*
X62734047Y-24098333D01*
X62686428Y-24098333D01*
X62638809Y-24122142D01*
X62615000Y-24145952D01*
X62591190Y-24193571D01*
X62591190Y-24312619D01*
X62615000Y-24384047D01*
X62591190Y-24550714D02*
X63091190Y-24669761D01*
X62734047Y-24765000D01*
X63091190Y-24860238D01*
X62591190Y-24979285D01*
X63091190Y-25431666D02*
X63091190Y-25145952D01*
X63091190Y-25288809D02*
X62591190Y-25288809D01*
X62662619Y-25241190D01*
X62710238Y-25193571D01*
X62734047Y-25145952D01*
%TO.C,J3*%
D11*
X66373333Y-63162380D02*
X66373333Y-63876666D01*
X66420952Y-64019523D01*
X66516190Y-64114761D01*
X66659047Y-64162380D01*
X66754285Y-64162380D01*
X65992380Y-63162380D02*
X65373333Y-63162380D01*
X65706666Y-63543333D01*
X65563809Y-63543333D01*
X65468571Y-63590952D01*
X65420952Y-63638571D01*
X65373333Y-63733809D01*
X65373333Y-63971904D01*
X65420952Y-64067142D01*
X65468571Y-64114761D01*
X65563809Y-64162380D01*
X65849523Y-64162380D01*
X65944761Y-64114761D01*
X65992380Y-64067142D01*
%TD*%
M02*
