%TF.GenerationSoftware,KiCad,Pcbnew,(5.1.10-1-10_14)*%
%TF.CreationDate,2023-03-20T22:20:09+08:00*%
%TF.ProjectId,GB_MemoryBackup_Mainboard,47425f4d-656d-46f7-9279-4261636b7570,1.3*%
%TF.SameCoordinates,Original*%
%TF.FileFunction,Profile,NP*%
%FSLAX46Y46*%
G04 Gerber Fmt 4.6, Leading zero omitted, Abs format (unit mm)*
G04 Created by KiCad (PCBNEW (5.1.10-1-10_14)) date 2023-03-20 22:20:09*
%MOMM*%
%LPD*%
G01*
G04 APERTURE LIST*
%TA.AperFunction,Profile*%
%ADD10C,0.100000*%
%TD*%
G04 APERTURE END LIST*
D10*
X90600000Y-114900000D02*
G75*
G03*
X90600000Y-114900000I-1000000J0D01*
G01*
X93200000Y-139900000D02*
G75*
G03*
X93200000Y-139900000I-3600000J0D01*
G01*
X63100000Y-144500000D02*
X63900000Y-144500000D01*
X115300000Y-144500000D02*
X116100000Y-144500000D01*
X63100000Y-91600000D02*
X61850000Y-91600000D01*
X61850000Y-91600000D02*
X61850000Y-9000000D01*
X111350000Y-91600000D02*
X117350000Y-91600000D01*
X111350000Y-92100000D02*
X111350000Y-96600000D01*
X111350000Y-96600000D02*
X116100000Y-96600000D01*
X116100000Y-96600000D02*
X116100000Y-144500000D01*
X111350000Y-92100000D02*
X111350000Y-91600000D01*
X117350000Y-9000000D02*
X117350000Y-91600000D01*
X61850000Y-9000000D02*
X117350000Y-9000000D01*
X63100000Y-144500000D02*
X63100000Y-91600000D01*
%TO.C,J1*%
X114200000Y-146900000D02*
X115300000Y-146900000D01*
X65900000Y-155500000D02*
X113300000Y-155500000D01*
X114200000Y-154600000D02*
X114200000Y-146900000D01*
X65000000Y-154600000D02*
X65000000Y-146900000D01*
X115300000Y-146900000D02*
X115300000Y-144500000D01*
X63900000Y-146900000D02*
X63900000Y-144500000D01*
X65000000Y-146900000D02*
X63900000Y-146900000D01*
X65900000Y-155500000D02*
G75*
G02*
X65000000Y-154600000I0J900000D01*
G01*
X114200000Y-154600000D02*
G75*
G02*
X113300000Y-155500000I-900000J0D01*
G01*
%TD*%
M02*
