%TF.GenerationSoftware,KiCad,Pcbnew,(5.1.10-1-10_14)*%
%TF.CreationDate,2023-03-20T22:20:09+08:00*%
%TF.ProjectId,GB_MemoryBackup_Mainboard,47425f4d-656d-46f7-9279-4261636b7570,1.3*%
%TF.SameCoordinates,Original*%
%TF.FileFunction,Copper,L1,Top*%
%TF.FilePolarity,Positive*%
%FSLAX46Y46*%
G04 Gerber Fmt 4.6, Leading zero omitted, Abs format (unit mm)*
G04 Created by KiCad (PCBNEW (5.1.10-1-10_14)) date 2023-03-20 22:20:09*
%MOMM*%
%LPD*%
G01*
G04 APERTURE LIST*
%TA.AperFunction,ComponentPad*%
%ADD10O,1.700000X1.700000*%
%TD*%
%TA.AperFunction,ComponentPad*%
%ADD11R,1.700000X1.700000*%
%TD*%
%TA.AperFunction,ComponentPad*%
%ADD12O,1.600000X1.600000*%
%TD*%
%TA.AperFunction,ComponentPad*%
%ADD13R,1.600000X1.600000*%
%TD*%
%TA.AperFunction,ComponentPad*%
%ADD14C,1.422400*%
%TD*%
%TA.AperFunction,ComponentPad*%
%ADD15R,1.422400X1.422400*%
%TD*%
%TA.AperFunction,SMDPad,CuDef*%
%ADD16R,4.000000X3.400000*%
%TD*%
%TA.AperFunction,ConnectorPad*%
%ADD17R,1.300000X6.000000*%
%TD*%
%TA.AperFunction,ConnectorPad*%
%ADD18R,1.000000X5.500000*%
%TD*%
%TA.AperFunction,ComponentPad*%
%ADD19O,3.000000X2.000000*%
%TD*%
%TA.AperFunction,ComponentPad*%
%ADD20O,2.500000X1.600000*%
%TD*%
%TA.AperFunction,ComponentPad*%
%ADD21R,2.500000X1.600000*%
%TD*%
%TA.AperFunction,ViaPad*%
%ADD22C,0.800000*%
%TD*%
%TA.AperFunction,Conductor*%
%ADD23C,0.500000*%
%TD*%
%TA.AperFunction,Conductor*%
%ADD24C,0.250000*%
%TD*%
%TA.AperFunction,Conductor*%
%ADD25C,0.254000*%
%TD*%
%TA.AperFunction,Conductor*%
%ADD26C,0.100000*%
%TD*%
G04 APERTURE END LIST*
D10*
%TO.P,J4,32*%
%TO.N,GND*%
X108650000Y-86660000D03*
%TO.P,J4,31*%
%TO.N,/AAudioIn*%
X108650000Y-84120000D03*
%TO.P,J4,30*%
%TO.N,/~ARST*%
X106110000Y-86660000D03*
%TO.P,J4,29*%
%TO.N,/AD7*%
X106110000Y-84120000D03*
%TO.P,J4,28*%
%TO.N,/AD6*%
X103570000Y-86660000D03*
%TO.P,J4,27*%
%TO.N,/AD5*%
X103570000Y-84120000D03*
%TO.P,J4,26*%
%TO.N,/AD4*%
X101030000Y-86660000D03*
%TO.P,J4,25*%
%TO.N,/AD3*%
X101030000Y-84120000D03*
%TO.P,J4,24*%
%TO.N,/AD2*%
X98490000Y-86660000D03*
%TO.P,J4,23*%
%TO.N,/AD1*%
X98490000Y-84120000D03*
%TO.P,J4,22*%
%TO.N,/AD0*%
X95950000Y-86660000D03*
%TO.P,J4,21*%
%TO.N,/AA15_T*%
X95950000Y-84120000D03*
%TO.P,J4,20*%
%TO.N,/AA14*%
X93410000Y-86660000D03*
%TO.P,J4,19*%
%TO.N,/AA13*%
X93410000Y-84120000D03*
%TO.P,J4,18*%
%TO.N,/AA12*%
X90870000Y-86660000D03*
%TO.P,J4,17*%
%TO.N,/AA11*%
X90870000Y-84120000D03*
%TO.P,J4,16*%
%TO.N,/AA10*%
X88330000Y-86660000D03*
%TO.P,J4,15*%
%TO.N,/AA9*%
X88330000Y-84120000D03*
%TO.P,J4,14*%
%TO.N,/AA8*%
X85790000Y-86660000D03*
%TO.P,J4,13*%
%TO.N,/AA7*%
X85790000Y-84120000D03*
%TO.P,J4,12*%
%TO.N,/AA6*%
X83250000Y-86660000D03*
%TO.P,J4,11*%
%TO.N,/AA5*%
X83250000Y-84120000D03*
%TO.P,J4,10*%
%TO.N,/AA4*%
X80710000Y-86660000D03*
%TO.P,J4,9*%
%TO.N,/AA3*%
X80710000Y-84120000D03*
%TO.P,J4,8*%
%TO.N,/AA2*%
X78170000Y-86660000D03*
%TO.P,J4,7*%
%TO.N,/AA1*%
X78170000Y-84120000D03*
%TO.P,J4,6*%
%TO.N,/AA0*%
X75630000Y-86660000D03*
%TO.P,J4,5*%
%TO.N,/~ASRAM_CS*%
X75630000Y-84120000D03*
%TO.P,J4,4*%
%TO.N,/~ARD_T*%
X73090000Y-86660000D03*
%TO.P,J4,3*%
%TO.N,/~AWR_T*%
X73090000Y-84120000D03*
%TO.P,J4,2*%
%TO.N,/ACLK*%
X70550000Y-86660000D03*
D11*
%TO.P,J4,1*%
%TO.N,+5V*%
X70550000Y-84120000D03*
%TD*%
D12*
%TO.P,U7,20*%
%TO.N,+5V*%
X93345000Y-34925000D03*
%TO.P,U7,10*%
%TO.N,GND*%
X100965000Y-57785000D03*
%TO.P,U7,19*%
%TO.N,N/C*%
X93345000Y-37465000D03*
%TO.P,U7,9*%
%TO.N,/F040_A17*%
X100965000Y-55245000D03*
%TO.P,U7,18*%
%TO.N,GND*%
X93345000Y-40005000D03*
%TO.P,U7,8*%
%TO.N,/AD3*%
X100965000Y-52705000D03*
%TO.P,U7,17*%
%TO.N,GND*%
X93345000Y-42545000D03*
%TO.P,U7,7*%
%TO.N,/AD2*%
X100965000Y-50165000D03*
%TO.P,U7,16*%
%TO.N,N/C*%
X93345000Y-45085000D03*
%TO.P,U7,6*%
%TO.N,/F040_A16*%
X100965000Y-47625000D03*
%TO.P,U7,15*%
%TO.N,N/C*%
X93345000Y-47625000D03*
%TO.P,U7,5*%
%TO.N,/F040_A15*%
X100965000Y-45085000D03*
%TO.P,U7,14*%
%TO.N,GND*%
X93345000Y-50165000D03*
%TO.P,U7,4*%
%TO.N,/AD1*%
X100965000Y-42545000D03*
%TO.P,U7,13*%
%TO.N,/AD4*%
X93345000Y-52705000D03*
%TO.P,U7,3*%
%TO.N,/AD0*%
X100965000Y-40005000D03*
%TO.P,U7,12*%
%TO.N,/F040_A18*%
X93345000Y-55245000D03*
%TO.P,U7,2*%
%TO.N,/F040_A14*%
X100965000Y-37465000D03*
%TO.P,U7,11*%
%TO.N,/HC373_040_LE*%
X93345000Y-57785000D03*
D13*
%TO.P,U7,1*%
%TO.N,GND*%
X100965000Y-34925000D03*
%TD*%
D12*
%TO.P,U6,20*%
%TO.N,+5V*%
X106045000Y-34925000D03*
%TO.P,U6,10*%
%TO.N,GND*%
X113665000Y-57785000D03*
%TO.P,U6,19*%
%TO.N,N/C*%
X106045000Y-37465000D03*
%TO.P,U6,9*%
%TO.N,/F010_A17*%
X113665000Y-55245000D03*
%TO.P,U6,18*%
%TO.N,GND*%
X106045000Y-40005000D03*
%TO.P,U6,8*%
%TO.N,/AD3*%
X113665000Y-52705000D03*
%TO.P,U6,17*%
%TO.N,GND*%
X106045000Y-42545000D03*
%TO.P,U6,7*%
%TO.N,/AD2*%
X113665000Y-50165000D03*
%TO.P,U6,16*%
%TO.N,N/C*%
X106045000Y-45085000D03*
%TO.P,U6,6*%
%TO.N,/F010_A16*%
X113665000Y-47625000D03*
%TO.P,U6,15*%
%TO.N,N/C*%
X106045000Y-47625000D03*
%TO.P,U6,5*%
%TO.N,/F010_A15*%
X113665000Y-45085000D03*
%TO.P,U6,14*%
%TO.N,GND*%
X106045000Y-50165000D03*
%TO.P,U6,4*%
%TO.N,/AD1*%
X113665000Y-42545000D03*
%TO.P,U6,13*%
%TO.N,/AD4*%
X106045000Y-52705000D03*
%TO.P,U6,3*%
%TO.N,/AD0*%
X113665000Y-40005000D03*
%TO.P,U6,12*%
%TO.N,/F010_A18*%
X106045000Y-55245000D03*
%TO.P,U6,2*%
%TO.N,/F010_A14*%
X113665000Y-37465000D03*
%TO.P,U6,11*%
%TO.N,/HC373_010_LE*%
X106045000Y-57785000D03*
D13*
%TO.P,U6,1*%
%TO.N,GND*%
X113665000Y-34925000D03*
%TD*%
%TO.P,U5,8*%
%TO.N,+5V*%
%TA.AperFunction,SMDPad,CuDef*%
G36*
G01*
X107545000Y-101750000D02*
X107545000Y-101450000D01*
G75*
G02*
X107695000Y-101300000I150000J0D01*
G01*
X109345000Y-101300000D01*
G75*
G02*
X109495000Y-101450000I0J-150000D01*
G01*
X109495000Y-101750000D01*
G75*
G02*
X109345000Y-101900000I-150000J0D01*
G01*
X107695000Y-101900000D01*
G75*
G02*
X107545000Y-101750000I0J150000D01*
G01*
G37*
%TD.AperFunction*%
%TO.P,U5,7*%
%TO.N,N/C*%
%TA.AperFunction,SMDPad,CuDef*%
G36*
G01*
X107545000Y-103020000D02*
X107545000Y-102720000D01*
G75*
G02*
X107695000Y-102570000I150000J0D01*
G01*
X109345000Y-102570000D01*
G75*
G02*
X109495000Y-102720000I0J-150000D01*
G01*
X109495000Y-103020000D01*
G75*
G02*
X109345000Y-103170000I-150000J0D01*
G01*
X107695000Y-103170000D01*
G75*
G02*
X107545000Y-103020000I0J150000D01*
G01*
G37*
%TD.AperFunction*%
%TO.P,U5,6*%
%TO.N,VMEM*%
%TA.AperFunction,SMDPad,CuDef*%
G36*
G01*
X107545000Y-104290000D02*
X107545000Y-103990000D01*
G75*
G02*
X107695000Y-103840000I150000J0D01*
G01*
X109345000Y-103840000D01*
G75*
G02*
X109495000Y-103990000I0J-150000D01*
G01*
X109495000Y-104290000D01*
G75*
G02*
X109345000Y-104440000I-150000J0D01*
G01*
X107695000Y-104440000D01*
G75*
G02*
X107545000Y-104290000I0J150000D01*
G01*
G37*
%TD.AperFunction*%
%TO.P,U5,5*%
%TO.N,N/C*%
%TA.AperFunction,SMDPad,CuDef*%
G36*
G01*
X107545000Y-105560000D02*
X107545000Y-105260000D01*
G75*
G02*
X107695000Y-105110000I150000J0D01*
G01*
X109345000Y-105110000D01*
G75*
G02*
X109495000Y-105260000I0J-150000D01*
G01*
X109495000Y-105560000D01*
G75*
G02*
X109345000Y-105710000I-150000J0D01*
G01*
X107695000Y-105710000D01*
G75*
G02*
X107545000Y-105560000I0J150000D01*
G01*
G37*
%TD.AperFunction*%
%TO.P,U5,4*%
%TO.N,Net-(BT1-Pad1)*%
%TA.AperFunction,SMDPad,CuDef*%
G36*
G01*
X102595000Y-105560000D02*
X102595000Y-105260000D01*
G75*
G02*
X102745000Y-105110000I150000J0D01*
G01*
X104395000Y-105110000D01*
G75*
G02*
X104545000Y-105260000I0J-150000D01*
G01*
X104545000Y-105560000D01*
G75*
G02*
X104395000Y-105710000I-150000J0D01*
G01*
X102745000Y-105710000D01*
G75*
G02*
X102595000Y-105560000I0J150000D01*
G01*
G37*
%TD.AperFunction*%
%TO.P,U5,3*%
%TO.N,/RAM_CE2*%
%TA.AperFunction,SMDPad,CuDef*%
G36*
G01*
X102595000Y-104290000D02*
X102595000Y-103990000D01*
G75*
G02*
X102745000Y-103840000I150000J0D01*
G01*
X104395000Y-103840000D01*
G75*
G02*
X104545000Y-103990000I0J-150000D01*
G01*
X104545000Y-104290000D01*
G75*
G02*
X104395000Y-104440000I-150000J0D01*
G01*
X102745000Y-104440000D01*
G75*
G02*
X102595000Y-104290000I0J150000D01*
G01*
G37*
%TD.AperFunction*%
%TO.P,U5,2*%
%TO.N,N/C*%
%TA.AperFunction,SMDPad,CuDef*%
G36*
G01*
X102595000Y-103020000D02*
X102595000Y-102720000D01*
G75*
G02*
X102745000Y-102570000I150000J0D01*
G01*
X104395000Y-102570000D01*
G75*
G02*
X104545000Y-102720000I0J-150000D01*
G01*
X104545000Y-103020000D01*
G75*
G02*
X104395000Y-103170000I-150000J0D01*
G01*
X102745000Y-103170000D01*
G75*
G02*
X102595000Y-103020000I0J150000D01*
G01*
G37*
%TD.AperFunction*%
%TO.P,U5,1*%
%TO.N,GND*%
%TA.AperFunction,SMDPad,CuDef*%
G36*
G01*
X102595000Y-101750000D02*
X102595000Y-101450000D01*
G75*
G02*
X102745000Y-101300000I150000J0D01*
G01*
X104395000Y-101300000D01*
G75*
G02*
X104545000Y-101450000I0J-150000D01*
G01*
X104545000Y-101750000D01*
G75*
G02*
X104395000Y-101900000I-150000J0D01*
G01*
X102745000Y-101900000D01*
G75*
G02*
X102595000Y-101750000I0J150000D01*
G01*
G37*
%TD.AperFunction*%
%TD*%
D12*
%TO.P,U4,32*%
%TO.N,VMEM*%
X114935000Y-63500000D03*
%TO.P,U4,16*%
%TO.N,GND*%
X76835000Y-78740000D03*
%TO.P,U4,31*%
%TO.N,/RAM_A15*%
X112395000Y-63500000D03*
%TO.P,U4,15*%
%TO.N,/AD2*%
X79375000Y-78740000D03*
%TO.P,U4,30*%
%TO.N,/RAM_CE2*%
X109855000Y-63500000D03*
%TO.P,U4,14*%
%TO.N,/AD1*%
X81915000Y-78740000D03*
%TO.P,U4,29*%
%TO.N,/~AWR*%
X107315000Y-63500000D03*
%TO.P,U4,13*%
%TO.N,/AD0*%
X84455000Y-78740000D03*
%TO.P,U4,28*%
%TO.N,/RAM_A13*%
X104775000Y-63500000D03*
%TO.P,U4,12*%
%TO.N,/AA0*%
X86995000Y-78740000D03*
%TO.P,U4,27*%
%TO.N,/AA8*%
X102235000Y-63500000D03*
%TO.P,U4,11*%
%TO.N,/AA1*%
X89535000Y-78740000D03*
%TO.P,U4,26*%
%TO.N,/AA9*%
X99695000Y-63500000D03*
%TO.P,U4,10*%
%TO.N,/AA2*%
X92075000Y-78740000D03*
%TO.P,U4,25*%
%TO.N,/AA11*%
X97155000Y-63500000D03*
%TO.P,U4,9*%
%TO.N,/AA3*%
X94615000Y-78740000D03*
%TO.P,U4,24*%
%TO.N,/~ARD*%
X94615000Y-63500000D03*
%TO.P,U4,8*%
%TO.N,/AA4*%
X97155000Y-78740000D03*
%TO.P,U4,23*%
%TO.N,/AA10*%
X92075000Y-63500000D03*
%TO.P,U4,7*%
%TO.N,/AA5*%
X99695000Y-78740000D03*
%TO.P,U4,22*%
%TO.N,/~RAM_CE*%
X89535000Y-63500000D03*
%TO.P,U4,6*%
%TO.N,/AA6*%
X102235000Y-78740000D03*
%TO.P,U4,21*%
%TO.N,/AD7*%
X86995000Y-63500000D03*
%TO.P,U4,5*%
%TO.N,/AA7*%
X104775000Y-78740000D03*
%TO.P,U4,20*%
%TO.N,/AD6*%
X84455000Y-63500000D03*
%TO.P,U4,4*%
%TO.N,/AA12*%
X107315000Y-78740000D03*
%TO.P,U4,19*%
%TO.N,/AD5*%
X81915000Y-63500000D03*
%TO.P,U4,3*%
%TO.N,/RAM_A14*%
X109855000Y-78740000D03*
%TO.P,U4,18*%
%TO.N,/AD4*%
X79375000Y-63500000D03*
%TO.P,U4,2*%
%TO.N,VMEM*%
X112395000Y-78740000D03*
%TO.P,U4,17*%
%TO.N,/AD3*%
X76835000Y-63500000D03*
D13*
%TO.P,U4,1*%
%TO.N,N/C*%
X114935000Y-78740000D03*
%TD*%
D14*
%TO.P,U3,39*%
%TO.N,/~F_CE_040*%
X66675000Y-40640000D03*
%TO.P,U3,37*%
%TO.N,/RAM_A15*%
X66675000Y-43180000D03*
%TO.P,U3,35*%
%TO.N,+5V*%
X66675000Y-45720000D03*
%TO.P,U3,33*%
%TO.N,/HC373_040_LE*%
X66675000Y-48260000D03*
%TO.P,U3,31*%
%TO.N,/HC373_010_LE*%
X66675000Y-50800000D03*
%TO.P,U3,40*%
%TO.N,/~F_CE_010*%
X69215000Y-38100000D03*
%TO.P,U3,38*%
%TO.N,/TDO*%
X69215000Y-43180000D03*
%TO.P,U3,36*%
%TO.N,/RAM_A14*%
X69215000Y-45720000D03*
%TO.P,U3,34*%
%TO.N,/RAM_A13*%
X69215000Y-48260000D03*
%TO.P,U3,32*%
%TO.N,/TCK*%
X69215000Y-50800000D03*
%TO.P,U3,30*%
%TO.N,GND*%
X69215000Y-53340000D03*
%TO.P,U3,28*%
%TO.N,/AD6*%
X69215000Y-55880000D03*
%TO.P,U3,26*%
%TO.N,/AD4*%
X71755000Y-55880000D03*
%TO.P,U3,24*%
%TO.N,/AD2*%
X74295000Y-55880000D03*
%TO.P,U3,22*%
%TO.N,GND*%
X76835000Y-55880000D03*
%TO.P,U3,20*%
%TO.N,/AD0*%
X79375000Y-55880000D03*
%TO.P,U3,18*%
%TO.N,/AA14*%
X81915000Y-55880000D03*
%TO.P,U3,29*%
%TO.N,/AD7*%
X66675000Y-53340000D03*
%TO.P,U3,27*%
%TO.N,/AD5*%
X71755000Y-53340000D03*
%TO.P,U3,25*%
%TO.N,/AD3*%
X74295000Y-53340000D03*
%TO.P,U3,23*%
%TO.N,+5V*%
X76835000Y-53340000D03*
%TO.P,U3,21*%
%TO.N,/AD1*%
X79375000Y-53340000D03*
%TO.P,U3,19*%
%TO.N,/AA15*%
X81915000Y-53340000D03*
%TO.P,U3,17*%
%TO.N,/AA13*%
X84455000Y-53340000D03*
%TO.P,U3,15*%
%TO.N,+5V*%
X84455000Y-50800000D03*
%TO.P,U3,13*%
%TO.N,/TMS*%
X84455000Y-48260000D03*
%TO.P,U3,11*%
%TO.N,/AA9*%
X84455000Y-45720000D03*
%TO.P,U3,9*%
%TO.N,/AA8*%
X84455000Y-43180000D03*
%TO.P,U3,7*%
%TO.N,/TDI*%
X84455000Y-40640000D03*
%TO.P,U3,16*%
%TO.N,/AA12*%
X81915000Y-50800000D03*
%TO.P,U3,14*%
%TO.N,/AA11*%
X81915000Y-48260000D03*
%TO.P,U3,12*%
%TO.N,/AA10*%
X81915000Y-45720000D03*
%TO.P,U3,10*%
%TO.N,GND*%
X81915000Y-43180000D03*
%TO.P,U3,8*%
%TO.N,/AA7*%
X81915000Y-40640000D03*
%TO.P,U3,42*%
%TO.N,GND*%
X71755000Y-38100000D03*
%TO.P,U3,44*%
%TO.N,/~SW_1*%
X74295000Y-38100000D03*
%TO.P,U3,6*%
%TO.N,/~ARD_T*%
X81915000Y-38100000D03*
%TO.P,U3,4*%
%TO.N,/AA15_T*%
X79375000Y-38100000D03*
%TO.P,U3,2*%
%TO.N,/~ARD*%
X76835000Y-38100000D03*
%TO.P,U3,41*%
%TO.N,/~RAM_CE*%
X69215000Y-40640000D03*
%TO.P,U3,43*%
%TO.N,/~ARST*%
X71755000Y-40640000D03*
%TO.P,U3,5*%
%TO.N,/~AWR_T*%
X79375000Y-40640000D03*
%TO.P,U3,3*%
%TO.N,+5V*%
X76835000Y-40640000D03*
D15*
%TO.P,U3,1*%
%TO.N,/~AWR*%
X74295000Y-40640000D03*
%TD*%
D14*
%TO.P,U2,29*%
%TO.N,/F040_A14*%
X72390000Y-16510000D03*
%TO.P,U2,27*%
%TO.N,/AA8*%
X72390000Y-19050000D03*
%TO.P,U2,25*%
%TO.N,/AA11*%
X72390000Y-21590000D03*
%TO.P,U2,23*%
%TO.N,/AA10*%
X72390000Y-24130000D03*
%TO.P,U2,28*%
%TO.N,/AA13*%
X74930000Y-19050000D03*
%TO.P,U2,26*%
%TO.N,/AA9*%
X74930000Y-21590000D03*
%TO.P,U2,24*%
%TO.N,/~ARD*%
X74930000Y-24130000D03*
%TO.P,U2,22*%
%TO.N,/~F_CE_040*%
X74930000Y-26670000D03*
%TO.P,U2,20*%
%TO.N,/AD6*%
X74930000Y-29210000D03*
%TO.P,U2,18*%
%TO.N,/AD4*%
X77470000Y-29210000D03*
%TO.P,U2,16*%
%TO.N,GND*%
X80010000Y-29210000D03*
%TO.P,U2,14*%
%TO.N,/AD1*%
X82550000Y-29210000D03*
%TO.P,U2,21*%
%TO.N,/AD7*%
X72390000Y-26670000D03*
%TO.P,U2,19*%
%TO.N,/AD5*%
X77470000Y-26670000D03*
%TO.P,U2,17*%
%TO.N,/AD3*%
X80010000Y-26670000D03*
%TO.P,U2,15*%
%TO.N,/AD2*%
X82550000Y-26670000D03*
%TO.P,U2,13*%
%TO.N,/AD0*%
X85090000Y-26670000D03*
%TO.P,U2,11*%
%TO.N,/AA1*%
X85090000Y-24130000D03*
%TO.P,U2,9*%
%TO.N,/AA3*%
X85090000Y-21590000D03*
%TO.P,U2,7*%
%TO.N,/AA5*%
X85090000Y-19050000D03*
%TO.P,U2,5*%
%TO.N,/AA7*%
X85090000Y-16510000D03*
%TO.P,U2,12*%
%TO.N,/AA0*%
X82550000Y-24130000D03*
%TO.P,U2,10*%
%TO.N,/AA2*%
X82550000Y-21590000D03*
%TO.P,U2,8*%
%TO.N,/AA4*%
X82550000Y-19050000D03*
%TO.P,U2,6*%
%TO.N,/AA6*%
X82550000Y-16510000D03*
%TO.P,U2,30*%
%TO.N,/F040_A17*%
X74930000Y-13970000D03*
%TO.P,U2,32*%
%TO.N,+5V*%
X77470000Y-13970000D03*
%TO.P,U2,4*%
%TO.N,/AA12*%
X82550000Y-13970000D03*
%TO.P,U2,2*%
%TO.N,/F040_A16*%
X80010000Y-13970000D03*
%TO.P,U2,31*%
%TO.N,/~AWR*%
X74930000Y-16510000D03*
%TO.P,U2,3*%
%TO.N,/F040_A15*%
X80010000Y-16510000D03*
D15*
%TO.P,U2,1*%
%TO.N,/F040_A18*%
X77470000Y-16510000D03*
%TD*%
D14*
%TO.P,U1,29*%
%TO.N,/F010_A14*%
X97790000Y-16510000D03*
%TO.P,U1,27*%
%TO.N,/AA8*%
X97790000Y-19050000D03*
%TO.P,U1,25*%
%TO.N,/AA11*%
X97790000Y-21590000D03*
%TO.P,U1,23*%
%TO.N,/AA10*%
X97790000Y-24130000D03*
%TO.P,U1,28*%
%TO.N,/AA13*%
X100330000Y-19050000D03*
%TO.P,U1,26*%
%TO.N,/AA9*%
X100330000Y-21590000D03*
%TO.P,U1,24*%
%TO.N,/~ARD*%
X100330000Y-24130000D03*
%TO.P,U1,22*%
%TO.N,/~F_CE_010*%
X100330000Y-26670000D03*
%TO.P,U1,20*%
%TO.N,/AD6*%
X100330000Y-29210000D03*
%TO.P,U1,18*%
%TO.N,/AD4*%
X102870000Y-29210000D03*
%TO.P,U1,16*%
%TO.N,GND*%
X105410000Y-29210000D03*
%TO.P,U1,14*%
%TO.N,/AD1*%
X107950000Y-29210000D03*
%TO.P,U1,21*%
%TO.N,/AD7*%
X97790000Y-26670000D03*
%TO.P,U1,19*%
%TO.N,/AD5*%
X102870000Y-26670000D03*
%TO.P,U1,17*%
%TO.N,/AD3*%
X105410000Y-26670000D03*
%TO.P,U1,15*%
%TO.N,/AD2*%
X107950000Y-26670000D03*
%TO.P,U1,13*%
%TO.N,/AD0*%
X110490000Y-26670000D03*
%TO.P,U1,11*%
%TO.N,/AA1*%
X110490000Y-24130000D03*
%TO.P,U1,9*%
%TO.N,/AA3*%
X110490000Y-21590000D03*
%TO.P,U1,7*%
%TO.N,/AA5*%
X110490000Y-19050000D03*
%TO.P,U1,5*%
%TO.N,/AA7*%
X110490000Y-16510000D03*
%TO.P,U1,12*%
%TO.N,/AA0*%
X107950000Y-24130000D03*
%TO.P,U1,10*%
%TO.N,/AA2*%
X107950000Y-21590000D03*
%TO.P,U1,8*%
%TO.N,/AA4*%
X107950000Y-19050000D03*
%TO.P,U1,6*%
%TO.N,/AA6*%
X107950000Y-16510000D03*
%TO.P,U1,30*%
%TO.N,/F010_A17*%
X100330000Y-13970000D03*
%TO.P,U1,32*%
%TO.N,+5V*%
X102870000Y-13970000D03*
%TO.P,U1,4*%
%TO.N,/AA12*%
X107950000Y-13970000D03*
%TO.P,U1,2*%
%TO.N,/F010_A16*%
X105410000Y-13970000D03*
%TO.P,U1,31*%
%TO.N,/~AWR*%
X100330000Y-16510000D03*
%TO.P,U1,3*%
%TO.N,/F010_A15*%
X105410000Y-16510000D03*
D15*
%TO.P,U1,1*%
%TO.N,/F010_A18*%
X102870000Y-16510000D03*
%TD*%
%TO.P,C7,2*%
%TO.N,+5V*%
%TA.AperFunction,SMDPad,CuDef*%
G36*
G01*
X96705000Y-34450000D02*
X96705000Y-35400000D01*
G75*
G02*
X96455000Y-35650000I-250000J0D01*
G01*
X95955000Y-35650000D01*
G75*
G02*
X95705000Y-35400000I0J250000D01*
G01*
X95705000Y-34450000D01*
G75*
G02*
X95955000Y-34200000I250000J0D01*
G01*
X96455000Y-34200000D01*
G75*
G02*
X96705000Y-34450000I0J-250000D01*
G01*
G37*
%TD.AperFunction*%
%TO.P,C7,1*%
%TO.N,GND*%
%TA.AperFunction,SMDPad,CuDef*%
G36*
G01*
X98605000Y-34450000D02*
X98605000Y-35400000D01*
G75*
G02*
X98355000Y-35650000I-250000J0D01*
G01*
X97855000Y-35650000D01*
G75*
G02*
X97605000Y-35400000I0J250000D01*
G01*
X97605000Y-34450000D01*
G75*
G02*
X97855000Y-34200000I250000J0D01*
G01*
X98355000Y-34200000D01*
G75*
G02*
X98605000Y-34450000I0J-250000D01*
G01*
G37*
%TD.AperFunction*%
%TD*%
%TO.P,C6,2*%
%TO.N,+5V*%
%TA.AperFunction,SMDPad,CuDef*%
G36*
G01*
X109405000Y-34450000D02*
X109405000Y-35400000D01*
G75*
G02*
X109155000Y-35650000I-250000J0D01*
G01*
X108655000Y-35650000D01*
G75*
G02*
X108405000Y-35400000I0J250000D01*
G01*
X108405000Y-34450000D01*
G75*
G02*
X108655000Y-34200000I250000J0D01*
G01*
X109155000Y-34200000D01*
G75*
G02*
X109405000Y-34450000I0J-250000D01*
G01*
G37*
%TD.AperFunction*%
%TO.P,C6,1*%
%TO.N,GND*%
%TA.AperFunction,SMDPad,CuDef*%
G36*
G01*
X111305000Y-34450000D02*
X111305000Y-35400000D01*
G75*
G02*
X111055000Y-35650000I-250000J0D01*
G01*
X110555000Y-35650000D01*
G75*
G02*
X110305000Y-35400000I0J250000D01*
G01*
X110305000Y-34450000D01*
G75*
G02*
X110555000Y-34200000I250000J0D01*
G01*
X111055000Y-34200000D01*
G75*
G02*
X111305000Y-34450000I0J-250000D01*
G01*
G37*
%TD.AperFunction*%
%TD*%
%TO.P,C5,2*%
%TO.N,+5V*%
%TA.AperFunction,SMDPad,CuDef*%
G36*
G01*
X106495000Y-97630000D02*
X106495000Y-96680000D01*
G75*
G02*
X106745000Y-96430000I250000J0D01*
G01*
X107245000Y-96430000D01*
G75*
G02*
X107495000Y-96680000I0J-250000D01*
G01*
X107495000Y-97630000D01*
G75*
G02*
X107245000Y-97880000I-250000J0D01*
G01*
X106745000Y-97880000D01*
G75*
G02*
X106495000Y-97630000I0J250000D01*
G01*
G37*
%TD.AperFunction*%
%TO.P,C5,1*%
%TO.N,GND*%
%TA.AperFunction,SMDPad,CuDef*%
G36*
G01*
X104595000Y-97630000D02*
X104595000Y-96680000D01*
G75*
G02*
X104845000Y-96430000I250000J0D01*
G01*
X105345000Y-96430000D01*
G75*
G02*
X105595000Y-96680000I0J-250000D01*
G01*
X105595000Y-97630000D01*
G75*
G02*
X105345000Y-97880000I-250000J0D01*
G01*
X104845000Y-97880000D01*
G75*
G02*
X104595000Y-97630000I0J250000D01*
G01*
G37*
%TD.AperFunction*%
%TD*%
%TO.P,C4,2*%
%TO.N,VMEM*%
%TA.AperFunction,SMDPad,CuDef*%
G36*
G01*
X115410000Y-68130000D02*
X114460000Y-68130000D01*
G75*
G02*
X114210000Y-67880000I0J250000D01*
G01*
X114210000Y-67380000D01*
G75*
G02*
X114460000Y-67130000I250000J0D01*
G01*
X115410000Y-67130000D01*
G75*
G02*
X115660000Y-67380000I0J-250000D01*
G01*
X115660000Y-67880000D01*
G75*
G02*
X115410000Y-68130000I-250000J0D01*
G01*
G37*
%TD.AperFunction*%
%TO.P,C4,1*%
%TO.N,GND*%
%TA.AperFunction,SMDPad,CuDef*%
G36*
G01*
X115410000Y-70030000D02*
X114460000Y-70030000D01*
G75*
G02*
X114210000Y-69780000I0J250000D01*
G01*
X114210000Y-69280000D01*
G75*
G02*
X114460000Y-69030000I250000J0D01*
G01*
X115410000Y-69030000D01*
G75*
G02*
X115660000Y-69280000I0J-250000D01*
G01*
X115660000Y-69780000D01*
G75*
G02*
X115410000Y-70030000I-250000J0D01*
G01*
G37*
%TD.AperFunction*%
%TD*%
D16*
%TO.P,BT1,2*%
%TO.N,GND*%
X74295000Y-96855000D03*
%TO.P,BT1,1*%
%TO.N,Net-(BT1-Pad1)*%
X74295000Y-122855000D03*
%TD*%
D17*
%TO.P,J1,32*%
%TO.N,GND*%
X113000000Y-151500000D03*
D18*
%TO.P,J1,31*%
%TO.N,/AAudioIn*%
X111350000Y-151250000D03*
%TO.P,J1,30*%
%TO.N,/~ARST*%
X109850000Y-151250000D03*
%TO.P,J1,29*%
%TO.N,/AD7*%
X108350000Y-151250000D03*
%TO.P,J1,28*%
%TO.N,/AD6*%
X106850000Y-151250000D03*
%TO.P,J1,27*%
%TO.N,/AD5*%
X105350000Y-151250000D03*
%TO.P,J1,26*%
%TO.N,/AD4*%
X103850000Y-151250000D03*
%TO.P,J1,25*%
%TO.N,/AD3*%
X102350000Y-151250000D03*
%TO.P,J1,24*%
%TO.N,/AD2*%
X100850000Y-151250000D03*
%TO.P,J1,23*%
%TO.N,/AD1*%
X99350000Y-151250000D03*
%TO.P,J1,22*%
%TO.N,/AD0*%
X97850000Y-151250000D03*
%TO.P,J1,21*%
%TO.N,/AA15*%
X96350000Y-151250000D03*
%TO.P,J1,20*%
%TO.N,/AA14*%
X94850000Y-151250000D03*
%TO.P,J1,19*%
%TO.N,/AA13*%
X93350000Y-151250000D03*
%TO.P,J1,18*%
%TO.N,/AA12*%
X91850000Y-151250000D03*
%TO.P,J1,17*%
%TO.N,/AA11*%
X90350000Y-151250000D03*
%TO.P,J1,16*%
%TO.N,/AA10*%
X88850000Y-151250000D03*
%TO.P,J1,15*%
%TO.N,/AA9*%
X87350000Y-151250000D03*
%TO.P,J1,14*%
%TO.N,/AA8*%
X85850000Y-151250000D03*
%TO.P,J1,13*%
%TO.N,/AA7*%
X84350000Y-151250000D03*
%TO.P,J1,12*%
%TO.N,/AA6*%
X82850000Y-151250000D03*
%TO.P,J1,11*%
%TO.N,/AA5*%
X81350000Y-151250000D03*
%TO.P,J1,10*%
%TO.N,/AA4*%
X79850000Y-151250000D03*
%TO.P,J1,9*%
%TO.N,/AA3*%
X78350000Y-151250000D03*
%TO.P,J1,8*%
%TO.N,/AA2*%
X76850000Y-151250000D03*
%TO.P,J1,7*%
%TO.N,/AA1*%
X75350000Y-151250000D03*
%TO.P,J1,6*%
%TO.N,/AA0*%
X73850000Y-151250000D03*
%TO.P,J1,5*%
%TO.N,/~ASRAM_CS*%
X72350000Y-151250000D03*
%TO.P,J1,4*%
%TO.N,/~ARD*%
X70850000Y-151250000D03*
%TO.P,J1,3*%
%TO.N,/~AWR*%
X69350000Y-151250000D03*
%TO.P,J1,2*%
%TO.N,/ACLK*%
X67850000Y-151250000D03*
D17*
%TO.P,J1,1*%
%TO.N,+5V*%
X66200000Y-151500000D03*
%TD*%
D19*
%TO.P,SW1,4*%
%TO.N,N/C*%
X64770000Y-20615000D03*
%TO.P,SW1,5*%
X64770000Y-28915000D03*
D20*
%TO.P,SW1,3*%
X64770000Y-22765000D03*
%TO.P,SW1,2*%
%TO.N,/~SW_1*%
X64770000Y-24765000D03*
D21*
%TO.P,SW1,1*%
%TO.N,GND*%
X64770000Y-26765000D03*
%TD*%
%TO.P,R13,2*%
%TO.N,/TCK*%
%TA.AperFunction,SMDPad,CuDef*%
G36*
G01*
X70720000Y-65589998D02*
X70720000Y-66490002D01*
G75*
G02*
X70470002Y-66740000I-249998J0D01*
G01*
X69944998Y-66740000D01*
G75*
G02*
X69695000Y-66490002I0J249998D01*
G01*
X69695000Y-65589998D01*
G75*
G02*
X69944998Y-65340000I249998J0D01*
G01*
X70470002Y-65340000D01*
G75*
G02*
X70720000Y-65589998I0J-249998D01*
G01*
G37*
%TD.AperFunction*%
%TO.P,R13,1*%
%TO.N,GND*%
%TA.AperFunction,SMDPad,CuDef*%
G36*
G01*
X72545000Y-65589998D02*
X72545000Y-66490002D01*
G75*
G02*
X72295002Y-66740000I-249998J0D01*
G01*
X71769998Y-66740000D01*
G75*
G02*
X71520000Y-66490002I0J249998D01*
G01*
X71520000Y-65589998D01*
G75*
G02*
X71769998Y-65340000I249998J0D01*
G01*
X72295002Y-65340000D01*
G75*
G02*
X72545000Y-65589998I0J-249998D01*
G01*
G37*
%TD.AperFunction*%
%TD*%
%TO.P,R12,2*%
%TO.N,+5V*%
%TA.AperFunction,SMDPad,CuDef*%
G36*
G01*
X70720000Y-75749998D02*
X70720000Y-76650002D01*
G75*
G02*
X70470002Y-76900000I-249998J0D01*
G01*
X69944998Y-76900000D01*
G75*
G02*
X69695000Y-76650002I0J249998D01*
G01*
X69695000Y-75749998D01*
G75*
G02*
X69944998Y-75500000I249998J0D01*
G01*
X70470002Y-75500000D01*
G75*
G02*
X70720000Y-75749998I0J-249998D01*
G01*
G37*
%TD.AperFunction*%
%TO.P,R12,1*%
%TO.N,/TDI*%
%TA.AperFunction,SMDPad,CuDef*%
G36*
G01*
X72545000Y-75749998D02*
X72545000Y-76650002D01*
G75*
G02*
X72295002Y-76900000I-249998J0D01*
G01*
X71769998Y-76900000D01*
G75*
G02*
X71520000Y-76650002I0J249998D01*
G01*
X71520000Y-75749998D01*
G75*
G02*
X71769998Y-75500000I249998J0D01*
G01*
X72295002Y-75500000D01*
G75*
G02*
X72545000Y-75749998I0J-249998D01*
G01*
G37*
%TD.AperFunction*%
%TD*%
%TO.P,R11,2*%
%TO.N,+5V*%
%TA.AperFunction,SMDPad,CuDef*%
G36*
G01*
X70720000Y-70669998D02*
X70720000Y-71570002D01*
G75*
G02*
X70470002Y-71820000I-249998J0D01*
G01*
X69944998Y-71820000D01*
G75*
G02*
X69695000Y-71570002I0J249998D01*
G01*
X69695000Y-70669998D01*
G75*
G02*
X69944998Y-70420000I249998J0D01*
G01*
X70470002Y-70420000D01*
G75*
G02*
X70720000Y-70669998I0J-249998D01*
G01*
G37*
%TD.AperFunction*%
%TO.P,R11,1*%
%TO.N,/TMS*%
%TA.AperFunction,SMDPad,CuDef*%
G36*
G01*
X72545000Y-70669998D02*
X72545000Y-71570002D01*
G75*
G02*
X72295002Y-71820000I-249998J0D01*
G01*
X71769998Y-71820000D01*
G75*
G02*
X71520000Y-71570002I0J249998D01*
G01*
X71520000Y-70669998D01*
G75*
G02*
X71769998Y-70420000I249998J0D01*
G01*
X72295002Y-70420000D01*
G75*
G02*
X72545000Y-70669998I0J-249998D01*
G01*
G37*
%TD.AperFunction*%
%TD*%
%TO.P,R1,2*%
%TO.N,/~SW_1*%
%TA.AperFunction,SMDPad,CuDef*%
G36*
G01*
X64535000Y-16960002D02*
X64535000Y-16059998D01*
G75*
G02*
X64784998Y-15810000I249998J0D01*
G01*
X65310002Y-15810000D01*
G75*
G02*
X65560000Y-16059998I0J-249998D01*
G01*
X65560000Y-16960002D01*
G75*
G02*
X65310002Y-17210000I-249998J0D01*
G01*
X64784998Y-17210000D01*
G75*
G02*
X64535000Y-16960002I0J249998D01*
G01*
G37*
%TD.AperFunction*%
%TO.P,R1,1*%
%TO.N,+5V*%
%TA.AperFunction,SMDPad,CuDef*%
G36*
G01*
X62710000Y-16960002D02*
X62710000Y-16059998D01*
G75*
G02*
X62959998Y-15810000I249998J0D01*
G01*
X63485002Y-15810000D01*
G75*
G02*
X63735000Y-16059998I0J-249998D01*
G01*
X63735000Y-16960002D01*
G75*
G02*
X63485002Y-17210000I-249998J0D01*
G01*
X62959998Y-17210000D01*
G75*
G02*
X62710000Y-16960002I0J249998D01*
G01*
G37*
%TD.AperFunction*%
%TD*%
D11*
%TO.P,J3,1*%
%TO.N,/TCK*%
X67310000Y-66040000D03*
D10*
%TO.P,J3,2*%
%TO.N,GND*%
X64770000Y-66040000D03*
%TO.P,J3,3*%
%TO.N,/TDO*%
X67310000Y-68580000D03*
%TO.P,J3,4*%
%TO.N,+5V*%
X64770000Y-68580000D03*
%TO.P,J3,5*%
%TO.N,/TMS*%
X67310000Y-71120000D03*
%TO.P,J3,6*%
%TO.N,N/C*%
X64770000Y-71120000D03*
%TO.P,J3,7*%
X67310000Y-73660000D03*
%TO.P,J3,8*%
X64770000Y-73660000D03*
%TO.P,J3,9*%
%TO.N,/TDI*%
X67310000Y-76200000D03*
%TO.P,J3,10*%
%TO.N,GND*%
X64770000Y-76200000D03*
%TD*%
%TO.P,C3,2*%
%TO.N,+5V*%
%TA.AperFunction,SMDPad,CuDef*%
G36*
G01*
X78925000Y-33180000D02*
X78925000Y-34130000D01*
G75*
G02*
X78675000Y-34380000I-250000J0D01*
G01*
X78175000Y-34380000D01*
G75*
G02*
X77925000Y-34130000I0J250000D01*
G01*
X77925000Y-33180000D01*
G75*
G02*
X78175000Y-32930000I250000J0D01*
G01*
X78675000Y-32930000D01*
G75*
G02*
X78925000Y-33180000I0J-250000D01*
G01*
G37*
%TD.AperFunction*%
%TO.P,C3,1*%
%TO.N,GND*%
%TA.AperFunction,SMDPad,CuDef*%
G36*
G01*
X80825000Y-33180000D02*
X80825000Y-34130000D01*
G75*
G02*
X80575000Y-34380000I-250000J0D01*
G01*
X80075000Y-34380000D01*
G75*
G02*
X79825000Y-34130000I0J250000D01*
G01*
X79825000Y-33180000D01*
G75*
G02*
X80075000Y-32930000I250000J0D01*
G01*
X80575000Y-32930000D01*
G75*
G02*
X80825000Y-33180000I0J-250000D01*
G01*
G37*
%TD.AperFunction*%
%TD*%
%TO.P,C2,2*%
%TO.N,+5V*%
%TA.AperFunction,SMDPad,CuDef*%
G36*
G01*
X68420000Y-14155000D02*
X67470000Y-14155000D01*
G75*
G02*
X67220000Y-13905000I0J250000D01*
G01*
X67220000Y-13405000D01*
G75*
G02*
X67470000Y-13155000I250000J0D01*
G01*
X68420000Y-13155000D01*
G75*
G02*
X68670000Y-13405000I0J-250000D01*
G01*
X68670000Y-13905000D01*
G75*
G02*
X68420000Y-14155000I-250000J0D01*
G01*
G37*
%TD.AperFunction*%
%TO.P,C2,1*%
%TO.N,GND*%
%TA.AperFunction,SMDPad,CuDef*%
G36*
G01*
X68420000Y-16055000D02*
X67470000Y-16055000D01*
G75*
G02*
X67220000Y-15805000I0J250000D01*
G01*
X67220000Y-15305000D01*
G75*
G02*
X67470000Y-15055000I250000J0D01*
G01*
X68420000Y-15055000D01*
G75*
G02*
X68670000Y-15305000I0J-250000D01*
G01*
X68670000Y-15805000D01*
G75*
G02*
X68420000Y-16055000I-250000J0D01*
G01*
G37*
%TD.AperFunction*%
%TD*%
%TO.P,C1,2*%
%TO.N,+5V*%
%TA.AperFunction,SMDPad,CuDef*%
G36*
G01*
X93820000Y-14155000D02*
X92870000Y-14155000D01*
G75*
G02*
X92620000Y-13905000I0J250000D01*
G01*
X92620000Y-13405000D01*
G75*
G02*
X92870000Y-13155000I250000J0D01*
G01*
X93820000Y-13155000D01*
G75*
G02*
X94070000Y-13405000I0J-250000D01*
G01*
X94070000Y-13905000D01*
G75*
G02*
X93820000Y-14155000I-250000J0D01*
G01*
G37*
%TD.AperFunction*%
%TO.P,C1,1*%
%TO.N,GND*%
%TA.AperFunction,SMDPad,CuDef*%
G36*
G01*
X93820000Y-16055000D02*
X92870000Y-16055000D01*
G75*
G02*
X92620000Y-15805000I0J250000D01*
G01*
X92620000Y-15305000D01*
G75*
G02*
X92870000Y-15055000I250000J0D01*
G01*
X93820000Y-15055000D01*
G75*
G02*
X94070000Y-15305000I0J-250000D01*
G01*
X94070000Y-15805000D01*
G75*
G02*
X93820000Y-16055000I-250000J0D01*
G01*
G37*
%TD.AperFunction*%
%TD*%
D22*
%TO.N,+5V*%
X107760000Y-99540000D03*
%TO.N,GND*%
X76316000Y-92973900D03*
X96979200Y-37337300D03*
X108743300Y-38570100D03*
X113000000Y-99540000D03*
%TO.N,/~ARST*%
X101814400Y-94965600D03*
%TO.N,/AD7*%
X89985100Y-70859400D03*
X98933200Y-31322600D03*
%TO.N,/AD6*%
X86252200Y-74564200D03*
X70251300Y-51882800D03*
X69215000Y-63905000D03*
%TO.N,/AD5*%
X83804600Y-72174500D03*
X105900200Y-75908400D03*
%TO.N,/AD4*%
X71755000Y-58656700D03*
X81860000Y-68360000D03*
%TO.N,/AD3*%
X80634900Y-70310400D03*
X104445800Y-73429600D03*
X92176600Y-43595400D03*
X90543600Y-28444000D03*
%TO.N,/AD2*%
X101036500Y-74181000D03*
X108987600Y-33525500D03*
%TO.N,/AD1*%
X96531600Y-76808200D03*
X82550000Y-32856500D03*
%TO.N,/AD0*%
X98337400Y-77667400D03*
%TO.N,/AA15*%
X95649800Y-95690600D03*
X66134800Y-87256400D03*
X80650000Y-58150000D03*
X71100000Y-64720000D03*
%TO.N,/AA14*%
X75659200Y-61503600D03*
X84289100Y-82419400D03*
X92745800Y-81707200D03*
%TO.N,/AA13*%
X98597900Y-81780300D03*
X104116800Y-65560000D03*
X104775000Y-60495000D03*
%TO.N,/AA12*%
X79204000Y-42278600D03*
X92104900Y-36700000D03*
%TO.N,/AA11*%
X91210000Y-68153000D03*
%TO.N,/AA10*%
X87231800Y-25625700D03*
X80465500Y-48313400D03*
X92066500Y-85172700D03*
%TO.N,/AA9*%
X98541800Y-28904100D03*
X84017900Y-29538300D03*
X88632000Y-68878000D03*
%TO.N,/AA8*%
X99627400Y-75242000D03*
%TO.N,/AA7*%
X89200300Y-36979700D03*
X85790000Y-76247000D03*
%TO.N,/AA5*%
X102024500Y-77338300D03*
%TO.N,/AA4*%
X112786300Y-71257100D03*
X100256800Y-70469100D03*
X91721200Y-13189300D03*
%TO.N,/AA0*%
X87020400Y-73141300D03*
X78115000Y-77320100D03*
%TO.N,/~ARD*%
X95630500Y-36339000D03*
X72998200Y-74755300D03*
X74854300Y-33583600D03*
%TO.N,/~AWR*%
X91070000Y-15286000D03*
X90996100Y-10789000D03*
X110996100Y-45572200D03*
X62527500Y-82577500D03*
X69350000Y-89400000D03*
%TO.N,/AA15_T*%
X95704300Y-38511100D03*
%TO.N,/~ARD_T*%
X74454800Y-71832000D03*
X85696900Y-49255000D03*
X84806800Y-38387500D03*
%TO.N,/~AWR_T*%
X72460188Y-43297568D03*
%TO.N,/TDO*%
X63272500Y-47586200D03*
%TO.N,/TDI*%
X87656100Y-41475800D03*
X87656100Y-59680300D03*
%TO.N,/~F_CE_010*%
X75308300Y-30645300D03*
X101493700Y-30995300D03*
%TO.N,/F040_A16*%
X94503000Y-41380600D03*
%TO.N,Net-(BT1-Pad1)*%
X74295000Y-100555000D03*
X105130000Y-99490000D03*
%TO.N,/F010_A17*%
X109213200Y-14821600D03*
%TO.N,/RAM_A14*%
X78491000Y-71271800D03*
X74480900Y-63285900D03*
X67126000Y-59328000D03*
X64017500Y-45794800D03*
%TO.N,/HC373_010_LE*%
X104732700Y-41113500D03*
X71106000Y-29925800D03*
%TO.N,/~RAM_CE*%
X88185800Y-39893800D03*
%TO.N,/RAM_CE2*%
X110576200Y-58119200D03*
X107750000Y-90182893D03*
%TO.N,/RAM_A13*%
X78075600Y-69962600D03*
X73202400Y-50121200D03*
X106960000Y-68580000D03*
X106960000Y-65680000D03*
%TD*%
D23*
%TO.N,+5V*%
X91374500Y-16528500D02*
X91970100Y-15932900D01*
X91970100Y-15932900D02*
X91970100Y-15029900D01*
X91970100Y-15029900D02*
X93345000Y-13655000D01*
X93345000Y-13655000D02*
X94246300Y-12753700D01*
X94246300Y-12753700D02*
X101653700Y-12753700D01*
X101653700Y-12753700D02*
X102870000Y-13970000D01*
X76835000Y-53340000D02*
X76835000Y-40640000D01*
X93345000Y-33624900D02*
X93345000Y-18499000D01*
X93345000Y-18499000D02*
X91374500Y-16528500D01*
X77470000Y-13970000D02*
X78713400Y-12726600D01*
X78713400Y-12726600D02*
X86167700Y-12726600D01*
X86167700Y-12726600D02*
X89969600Y-16528500D01*
X89969600Y-16528500D02*
X91374500Y-16528500D01*
X66200000Y-151500000D02*
X66200000Y-88470000D01*
X66200000Y-88470000D02*
X70550000Y-84120000D01*
X67945000Y-13655000D02*
X69512200Y-15222200D01*
X69512200Y-15222200D02*
X76217800Y-15222200D01*
X76217800Y-15222200D02*
X77470000Y-13970000D01*
X70207500Y-71120000D02*
X70207500Y-76200000D01*
X70550000Y-84120000D02*
X70550000Y-76542500D01*
X70550000Y-76542500D02*
X70207500Y-76200000D01*
X63222500Y-16510000D02*
X66077500Y-13655000D01*
X66077500Y-13655000D02*
X67945000Y-13655000D01*
X76835000Y-40640000D02*
X78105000Y-39370000D01*
X78105000Y-39370000D02*
X78105000Y-33975000D01*
X78105000Y-33975000D02*
X78425000Y-33655000D01*
X102870000Y-13970000D02*
X104081400Y-15181400D01*
X104081400Y-15181400D02*
X104081400Y-17707200D01*
X104081400Y-17707200D02*
X106680000Y-20305800D01*
X106680000Y-20305800D02*
X106680000Y-32989900D01*
X106680000Y-32989900D02*
X106045000Y-33624900D01*
X106045000Y-34653400D02*
X106045000Y-33624900D01*
X106045000Y-34925000D02*
X106045000Y-34653400D01*
X108905000Y-34925000D02*
X106316600Y-34925000D01*
X106316600Y-34925000D02*
X106045000Y-34653400D01*
X93345000Y-34925000D02*
X93345000Y-33624900D01*
X96205000Y-34925000D02*
X93345000Y-34925000D01*
X108520000Y-100300000D02*
X107760000Y-99540000D01*
X108520000Y-101600000D02*
X108520000Y-100300000D01*
X106995000Y-98775000D02*
X107760000Y-99540000D01*
X106995000Y-97155000D02*
X106995000Y-98775000D01*
%TO.N,GND*%
X98105000Y-34925000D02*
X98105000Y-36211500D01*
X98105000Y-36211500D02*
X96979200Y-37337300D01*
X93345000Y-42545000D02*
X93345000Y-41305100D01*
X93345000Y-50165000D02*
X94646700Y-48863300D01*
X94646700Y-48863300D02*
X94646700Y-43846700D01*
X94646700Y-43846700D02*
X93345000Y-42545000D01*
X93345000Y-40005000D02*
X93345000Y-41305100D01*
X72032100Y-38377100D02*
X71755000Y-38100000D01*
X76835000Y-55880000D02*
X76835000Y-55069900D01*
X76835000Y-55069900D02*
X75616900Y-53851800D01*
X75616900Y-53851800D02*
X75616900Y-45153900D01*
X75616900Y-45153900D02*
X73083600Y-42620600D01*
X73083600Y-42620600D02*
X73083600Y-39428600D01*
X73083600Y-39428600D02*
X72032100Y-38377100D01*
X72032100Y-38377100D02*
X77108700Y-33300500D01*
X77108700Y-33300500D02*
X77108700Y-33175900D01*
X77108700Y-33175900D02*
X78064500Y-32220100D01*
X78064500Y-32220100D02*
X78890100Y-32220100D01*
X78890100Y-32220100D02*
X80325000Y-33655000D01*
X80010000Y-29210000D02*
X80010000Y-31100200D01*
X80010000Y-31100200D02*
X78890100Y-32220100D01*
X64770000Y-76200000D02*
X63419800Y-74849800D01*
X63419800Y-74849800D02*
X63419800Y-67390200D01*
X63419800Y-67390200D02*
X64770000Y-66040000D01*
X98105000Y-34925000D02*
X99664900Y-34925000D01*
X100965000Y-34925000D02*
X99664900Y-34925000D01*
X70434200Y-54559200D02*
X69215000Y-53340000D01*
X93345000Y-15555000D02*
X94841500Y-17051500D01*
X94841500Y-17051500D02*
X94841500Y-31661500D01*
X94841500Y-31661500D02*
X98105000Y-34925000D01*
X105095000Y-97155000D02*
X103570000Y-98680000D01*
X103570000Y-98680000D02*
X103570000Y-101600000D01*
X81915000Y-43180000D02*
X80645000Y-41910000D01*
X80645000Y-41910000D02*
X80645000Y-33975000D01*
X80645000Y-33975000D02*
X80325000Y-33655000D01*
X110805000Y-34925000D02*
X112364900Y-34925000D01*
X113665000Y-34925000D02*
X112364900Y-34925000D01*
X108743300Y-38570100D02*
X110805000Y-36508400D01*
X110805000Y-36508400D02*
X110805000Y-34925000D01*
X105410000Y-29210000D02*
X104742200Y-29877800D01*
X104742200Y-29877800D02*
X104742200Y-38702200D01*
X104742200Y-38702200D02*
X106045000Y-40005000D01*
X113665000Y-57785000D02*
X113665000Y-59085100D01*
X113665000Y-59085100D02*
X116240700Y-61660800D01*
X116240700Y-61660800D02*
X116240700Y-68224300D01*
X116240700Y-68224300D02*
X114935000Y-69530000D01*
X64770000Y-26765000D02*
X66520100Y-26765000D01*
X66520100Y-26765000D02*
X67945000Y-25340100D01*
X67945000Y-25340100D02*
X67945000Y-15555000D01*
X106045000Y-42545000D02*
X106045000Y-40005000D01*
X108650000Y-86660000D02*
X108650000Y-88010100D01*
X74295000Y-96855000D02*
X74295000Y-94994900D01*
X74295000Y-94994900D02*
X75104950Y-94184950D01*
X76316000Y-92973900D02*
X75104950Y-94184950D01*
X105095000Y-97155000D02*
X105095000Y-94625000D01*
X105095000Y-94625000D02*
X108650000Y-91070000D01*
X108650000Y-88010100D02*
X108650000Y-91070000D01*
X113000000Y-99540000D02*
X113000000Y-151500000D01*
X72032500Y-62832500D02*
X70434200Y-61234200D01*
X72032500Y-66040000D02*
X72032500Y-62832500D01*
X70434200Y-61234200D02*
X70434200Y-54559200D01*
D24*
%TO.N,/AAudioIn*%
X108679115Y-84120000D02*
X108650000Y-84120000D01*
X109945001Y-90757891D02*
X109945001Y-85385886D01*
X106040010Y-94662882D02*
X109945001Y-90757891D01*
X109945001Y-85385886D02*
X108679115Y-84120000D01*
X111350000Y-110790000D02*
X106040010Y-105480010D01*
X106040010Y-105480010D02*
X106040010Y-94662882D01*
X111350000Y-151250000D02*
X111350000Y-110790000D01*
%TO.N,/~ARST*%
X101814400Y-93089600D02*
X106110000Y-88794000D01*
X106110000Y-88794000D02*
X106110000Y-86660000D01*
X109850000Y-151250000D02*
X109850000Y-114944500D01*
X109850000Y-114944500D02*
X101767000Y-106861500D01*
X101767000Y-106861500D02*
X101767000Y-95013000D01*
X101814400Y-94965600D02*
X101814400Y-93089600D01*
%TO.N,/AD7*%
X89985100Y-70859400D02*
X89524900Y-70399200D01*
X89524900Y-70399200D02*
X89524900Y-68729800D01*
X89524900Y-68729800D02*
X86995000Y-66199900D01*
X86995000Y-66199900D02*
X86995000Y-63500000D01*
X97790000Y-26670000D02*
X97790000Y-30179400D01*
X97790000Y-30179400D02*
X98933200Y-31322600D01*
X104745200Y-89505900D02*
X101089300Y-93161800D01*
X101089300Y-93161800D02*
X101089300Y-108054500D01*
X101089300Y-108054500D02*
X108349900Y-115315100D01*
X108349900Y-115315100D02*
X108349900Y-148174900D01*
X108349900Y-148174900D02*
X108350000Y-148174900D01*
X72390000Y-26670000D02*
X65114100Y-33945900D01*
X65114100Y-33945900D02*
X65114100Y-51779100D01*
X65114100Y-51779100D02*
X66675000Y-53340000D01*
X108350000Y-151250000D02*
X108350000Y-148174900D01*
X104745200Y-85484800D02*
X104745200Y-89505900D01*
X106110000Y-84120000D02*
X104745200Y-85484800D01*
%TO.N,/AD6*%
X86252200Y-74564200D02*
X85154900Y-73466900D01*
X85154900Y-73466900D02*
X85154900Y-65325000D01*
X85154900Y-65325000D02*
X84455000Y-64625100D01*
X84455000Y-63500000D02*
X84455000Y-64625100D01*
X70251300Y-51882800D02*
X70251300Y-42750600D01*
X70251300Y-42750600D02*
X69177100Y-41676400D01*
X69177100Y-41676400D02*
X68715000Y-41676400D01*
X68715000Y-41676400D02*
X68137500Y-41098900D01*
X68137500Y-41098900D02*
X68137500Y-36002500D01*
X68137500Y-36002500D02*
X74930000Y-29210000D01*
X103570000Y-86660000D02*
X103570000Y-90044500D01*
X103570000Y-90044500D02*
X100639200Y-92975300D01*
X100639200Y-92975300D02*
X100639200Y-110474300D01*
X100639200Y-110474300D02*
X106850000Y-116685100D01*
X106850000Y-116685100D02*
X106850000Y-151250000D01*
X69215000Y-63905000D02*
X69215000Y-55880000D01*
%TO.N,/AD5*%
X81915000Y-63500000D02*
X81915000Y-64632700D01*
X81915000Y-64632700D02*
X83804600Y-66522300D01*
X83804600Y-66522300D02*
X83804600Y-72174500D01*
X103570000Y-82944900D02*
X105900200Y-80614700D01*
X105900200Y-80614700D02*
X105900200Y-75908400D01*
X103570000Y-84120000D02*
X103570000Y-82944900D01*
X102248000Y-90730000D02*
X100189100Y-92788900D01*
X100189100Y-92788900D02*
X100189100Y-143014000D01*
X100189100Y-143014000D02*
X105350000Y-148174900D01*
X77470000Y-26670000D02*
X76416600Y-27723400D01*
X76416600Y-27723400D02*
X76416600Y-30091500D01*
X76416600Y-30091500D02*
X76483500Y-30158400D01*
X76483500Y-30158400D02*
X76483500Y-32979900D01*
X76483500Y-32979900D02*
X75154700Y-34308700D01*
X75154700Y-34308700D02*
X73971700Y-34308700D01*
X73971700Y-34308700D02*
X70630300Y-37650100D01*
X70630300Y-37650100D02*
X70630300Y-42341200D01*
X70630300Y-42341200D02*
X71755000Y-43465900D01*
X71755000Y-43465900D02*
X71755000Y-53340000D01*
X105350000Y-151250000D02*
X105350000Y-148174900D01*
X102248000Y-85442000D02*
X102248000Y-90730000D01*
X103570000Y-84120000D02*
X102248000Y-85442000D01*
%TO.N,/AD4*%
X71755000Y-55880000D02*
X71755000Y-58656700D01*
X101030000Y-87835100D02*
X101030000Y-91143700D01*
X101030000Y-91143700D02*
X99739000Y-92434700D01*
X99739000Y-92434700D02*
X99739000Y-144063900D01*
X99739000Y-144063900D02*
X103850000Y-148174900D01*
X101030000Y-86660000D02*
X101030000Y-87835100D01*
X103850000Y-151250000D02*
X103850000Y-148174900D01*
X79375000Y-65875000D02*
X81860000Y-68360000D01*
X79375000Y-63500000D02*
X79375000Y-65875000D01*
X103529000Y-50189000D02*
X103529000Y-29869000D01*
X103529000Y-29869000D02*
X102870000Y-29210000D01*
X106045000Y-52705000D02*
X103529000Y-50189000D01*
%TO.N,/AD3*%
X90543600Y-28444000D02*
X90543600Y-38241400D01*
X90543600Y-38241400D02*
X91869600Y-39567400D01*
X91869600Y-39567400D02*
X91869600Y-43288400D01*
X91869600Y-43288400D02*
X92176600Y-43595400D01*
X101030000Y-82944900D02*
X103538700Y-80436200D01*
X103538700Y-80436200D02*
X103538700Y-74336700D01*
X103538700Y-74336700D02*
X104445800Y-73429600D01*
X113665000Y-52705000D02*
X111684200Y-54685800D01*
X111684200Y-54685800D02*
X111684200Y-58492700D01*
X111684200Y-58492700D02*
X111026400Y-59150500D01*
X111026400Y-59150500D02*
X111026400Y-66849000D01*
X111026400Y-66849000D02*
X104445800Y-73429600D01*
X80634900Y-70310400D02*
X80634900Y-69464700D01*
X80634900Y-69464700D02*
X76835000Y-65664800D01*
X76835000Y-65664800D02*
X76835000Y-63500000D01*
X74295000Y-53340000D02*
X74295000Y-53415300D01*
X74295000Y-53415300D02*
X75709900Y-54830200D01*
X75709900Y-54830200D02*
X75709900Y-60411500D01*
X75709900Y-60411500D02*
X76835000Y-61536600D01*
X76835000Y-61536600D02*
X76835000Y-62374900D01*
X99665200Y-89285800D02*
X99288900Y-89662100D01*
X99288900Y-89662100D02*
X99288900Y-145113800D01*
X99288900Y-145113800D02*
X102350000Y-148174900D01*
X102350000Y-151250000D02*
X102350000Y-148174900D01*
X101030000Y-84120000D02*
X101030000Y-82944900D01*
X76835000Y-62937400D02*
X76835000Y-63500000D01*
X76835000Y-62937400D02*
X76835000Y-62374900D01*
X99665200Y-85484800D02*
X99665200Y-89285800D01*
X101030000Y-84120000D02*
X99665200Y-85484800D01*
%TO.N,/AD2*%
X79375000Y-77614900D02*
X79250800Y-77490700D01*
X79250800Y-77490700D02*
X79250800Y-69353800D01*
X79250800Y-69353800D02*
X75213100Y-65316100D01*
X75213100Y-65316100D02*
X75213100Y-62642500D01*
X75213100Y-62642500D02*
X74295000Y-61724400D01*
X74295000Y-61724400D02*
X74295000Y-55880000D01*
X79375000Y-78740000D02*
X79375000Y-77614900D01*
X100850000Y-148174900D02*
X98490000Y-145814900D01*
X98490000Y-145814900D02*
X98490000Y-87835100D01*
X107950000Y-26670000D02*
X108987600Y-27707600D01*
X108987600Y-27707600D02*
X108987600Y-33525500D01*
X98490000Y-86660000D02*
X98490000Y-87835100D01*
X100850000Y-151250000D02*
X100850000Y-148174900D01*
X101036500Y-73802100D02*
X101036500Y-74181000D01*
X103391800Y-71446800D02*
X101036500Y-73802100D01*
X103391800Y-52591800D02*
X103391800Y-71446800D01*
X100965000Y-50165000D02*
X103391800Y-52591800D01*
%TO.N,/AD1*%
X100965000Y-42545000D02*
X98425000Y-45085000D01*
X98425000Y-45085000D02*
X98425000Y-69401600D01*
X98425000Y-69401600D02*
X96531600Y-71295000D01*
X96531600Y-71295000D02*
X96531600Y-76808200D01*
X82550000Y-32856500D02*
X82550000Y-29210000D01*
X81915000Y-77614900D02*
X81915000Y-70108000D01*
X81915000Y-70108000D02*
X78208300Y-66401300D01*
X78208300Y-66401300D02*
X78208300Y-54506700D01*
X78208300Y-54506700D02*
X79375000Y-53340000D01*
X99350000Y-151250000D02*
X99350000Y-148174900D01*
X99350000Y-148174900D02*
X98039800Y-146864700D01*
X98039800Y-146864700D02*
X98039800Y-89288200D01*
X98039800Y-89288200D02*
X97312500Y-88560900D01*
X81915000Y-78740000D02*
X81915000Y-77614900D01*
X97314999Y-85295001D02*
X97314999Y-88558401D01*
X97314999Y-88558401D02*
X97312500Y-88560900D01*
X98490000Y-84120000D02*
X97314999Y-85295001D01*
%TO.N,/AD0*%
X84455000Y-78740000D02*
X84455000Y-77614900D01*
X84455000Y-77614900D02*
X83059800Y-76219700D01*
X83059800Y-76219700D02*
X83059800Y-70472000D01*
X83059800Y-70472000D02*
X83354500Y-70177300D01*
X83354500Y-70177300D02*
X83354500Y-67473300D01*
X83354500Y-67473300D02*
X80504500Y-64623300D01*
X80504500Y-64623300D02*
X80504500Y-60056700D01*
X80504500Y-60056700D02*
X79375000Y-58927200D01*
X79375000Y-58927200D02*
X79375000Y-55880000D01*
X98337400Y-77667400D02*
X98337400Y-73414000D01*
X98337400Y-73414000D02*
X100991500Y-70759900D01*
X100991500Y-70759900D02*
X100991500Y-61102400D01*
X100991500Y-61102400D02*
X99773100Y-59884000D01*
X99773100Y-59884000D02*
X99773100Y-44619500D01*
X99773100Y-44619500D02*
X100722400Y-43670200D01*
X100722400Y-43670200D02*
X101460100Y-43670200D01*
X101460100Y-43670200D02*
X102109300Y-43021000D01*
X102109300Y-43021000D02*
X102109300Y-41993100D01*
X102109300Y-41993100D02*
X101246300Y-41130100D01*
X101246300Y-41130100D02*
X100965000Y-41130100D01*
X97220000Y-81776500D02*
X98337400Y-80659100D01*
X98337400Y-80659100D02*
X98337400Y-77667400D01*
X100965000Y-40005000D02*
X100965000Y-41130100D01*
X95950000Y-87835100D02*
X97213400Y-89098500D01*
X97213400Y-89098500D02*
X97213400Y-147538300D01*
X97213400Y-147538300D02*
X97850000Y-148174900D01*
X97850000Y-151250000D02*
X97850000Y-148174900D01*
X95950000Y-86660000D02*
X95950000Y-87835100D01*
X97220000Y-84589002D02*
X97220000Y-81776500D01*
X95950000Y-85859002D02*
X97220000Y-84589002D01*
X95950000Y-86660000D02*
X95950000Y-85859002D01*
%TO.N,/AA15*%
X66134800Y-87256400D02*
X66134800Y-70630300D01*
X96350000Y-100879000D02*
X96350000Y-96390800D01*
X96350000Y-96390800D02*
X95649800Y-95690600D01*
X96350000Y-100879000D02*
X96350000Y-151250000D01*
X80837800Y-54417200D02*
X81915000Y-53340000D01*
X67961200Y-69944800D02*
X69677100Y-68228900D01*
X66820300Y-69944800D02*
X67961200Y-69944800D01*
X66134800Y-70630300D02*
X66820300Y-69944800D01*
X80650000Y-54605000D02*
X80837800Y-54417200D01*
X80650000Y-58150000D02*
X80650000Y-54605000D01*
X69677100Y-68228900D02*
X71100000Y-66806000D01*
X71100000Y-66806000D02*
X71100000Y-64720000D01*
%TO.N,/AA14*%
X84289100Y-82419400D02*
X83970500Y-82419400D01*
X83970500Y-82419400D02*
X80645000Y-79093900D01*
X80645000Y-79093900D02*
X80645000Y-71754800D01*
X80645000Y-71754800D02*
X79700900Y-70810700D01*
X79700900Y-70810700D02*
X79700900Y-69167200D01*
X79700900Y-69167200D02*
X75663200Y-65129500D01*
X75663200Y-65129500D02*
X75663200Y-61507600D01*
X75663200Y-61507600D02*
X75659200Y-61503600D01*
X93410000Y-86660000D02*
X93410000Y-87835100D01*
X94850000Y-151250000D02*
X94850000Y-148174900D01*
X94850000Y-148174900D02*
X94924800Y-148100100D01*
X94924800Y-148100100D02*
X94924800Y-89349900D01*
X94924800Y-89349900D02*
X93410000Y-87835100D01*
X93410000Y-86660000D02*
X94585200Y-85484800D01*
X94585200Y-85484800D02*
X94585200Y-83546600D01*
X94585200Y-83546600D02*
X92745800Y-81707200D01*
%TO.N,/AA13*%
X74930000Y-19050000D02*
X81280000Y-25400000D01*
X81280000Y-25400000D02*
X82753200Y-25400000D01*
X82753200Y-25400000D02*
X83595000Y-26241800D01*
X83595000Y-26241800D02*
X83595000Y-27458200D01*
X83595000Y-27458200D02*
X85774600Y-29637800D01*
X85774600Y-29637800D02*
X85774600Y-38399000D01*
X85774600Y-38399000D02*
X86444500Y-39068900D01*
X86444500Y-39068900D02*
X86444500Y-50688700D01*
X86444500Y-50688700D02*
X84455000Y-52678200D01*
X84455000Y-52678200D02*
X84455000Y-53340000D01*
X104775000Y-53083100D02*
X103078900Y-51387000D01*
X103078900Y-51387000D02*
X103078900Y-33635200D01*
X103078900Y-33635200D02*
X99293600Y-29849900D01*
X99293600Y-29849900D02*
X99293600Y-26186000D01*
X99293600Y-26186000D02*
X100079600Y-25400000D01*
X100079600Y-25400000D02*
X100562200Y-25400000D01*
X100562200Y-25400000D02*
X101826200Y-24136000D01*
X101826200Y-24136000D02*
X101826200Y-20546200D01*
X101826200Y-20546200D02*
X100330000Y-19050000D01*
X93350000Y-148174900D02*
X93350000Y-151250000D01*
X94474500Y-147050400D02*
X93350000Y-148174900D01*
X92229200Y-112126800D02*
X94474500Y-114372100D01*
X93410000Y-84920998D02*
X92229200Y-86101798D01*
X94474500Y-114372100D02*
X94474500Y-147050400D01*
X92229200Y-86101798D02*
X92229200Y-112126800D01*
X93410000Y-84120000D02*
X93410000Y-84920998D01*
X100823300Y-79554900D02*
X98597900Y-81780300D01*
X104775000Y-70700200D02*
X102025600Y-73449600D01*
X102025600Y-73449600D02*
X102025600Y-74353100D01*
X100823300Y-75555400D02*
X100823300Y-79554900D01*
X102025600Y-74353100D02*
X100823300Y-75555400D01*
X104775000Y-66218200D02*
X104116800Y-65560000D01*
X104775000Y-70700200D02*
X104775000Y-66218200D01*
X104775000Y-60495000D02*
X104775000Y-53083100D01*
%TO.N,/AA12*%
X107950000Y-13970000D02*
X110700400Y-13970000D01*
X110700400Y-13970000D02*
X116234100Y-19503700D01*
X116234100Y-19503700D02*
X116234100Y-54318200D01*
X116234100Y-54318200D02*
X114072700Y-56479600D01*
X114072700Y-56479600D02*
X113281600Y-56479600D01*
X113281600Y-56479600D02*
X112489800Y-57271400D01*
X112489800Y-57271400D02*
X112489800Y-59585900D01*
X112489800Y-59585900D02*
X113520900Y-60617000D01*
X113520900Y-60617000D02*
X113520900Y-65557700D01*
X113520900Y-65557700D02*
X107315000Y-71763600D01*
X107315000Y-71763600D02*
X107315000Y-78177400D01*
X82550000Y-13970000D02*
X84773400Y-13970000D01*
X84773400Y-13970000D02*
X92104900Y-21301500D01*
X92104900Y-21301500D02*
X92104900Y-36700000D01*
X79204000Y-42278600D02*
X79204000Y-48089000D01*
X79204000Y-48089000D02*
X81915000Y-50800000D01*
X91850000Y-151250000D02*
X91850000Y-145972900D01*
X91850000Y-145972900D02*
X94024400Y-143798500D01*
X94024400Y-143798500D02*
X94024400Y-114558700D01*
X94024400Y-114558700D02*
X90870000Y-111404300D01*
X90870000Y-111404300D02*
X90870000Y-87835100D01*
X90870000Y-86660000D02*
X90870000Y-87835100D01*
X107315000Y-78740000D02*
X107315000Y-78177400D01*
%TO.N,/AA11*%
X90870000Y-82944900D02*
X90870000Y-71707300D01*
X90870000Y-71707300D02*
X91213400Y-71363900D01*
X91213400Y-71363900D02*
X91213400Y-68450700D01*
X90870000Y-84120000D02*
X90870000Y-82944900D01*
X97155000Y-63500000D02*
X97155000Y-62374900D01*
X97155000Y-62374900D02*
X97155000Y-42199300D01*
X97155000Y-42199300D02*
X100619300Y-38735000D01*
X100619300Y-38735000D02*
X101296100Y-38735000D01*
X101296100Y-38735000D02*
X102594800Y-37436300D01*
X102594800Y-37436300D02*
X102594800Y-33787700D01*
X102594800Y-33787700D02*
X100967600Y-32160500D01*
X100967600Y-32160500D02*
X98744500Y-32160500D01*
X98744500Y-32160500D02*
X96743700Y-30159700D01*
X96743700Y-30159700D02*
X96743700Y-22636300D01*
X96743700Y-22636300D02*
X97790000Y-21590000D01*
X90350000Y-145990400D02*
X90350000Y-151250000D01*
X90870000Y-84120000D02*
X89682400Y-85307600D01*
X93574200Y-142766200D02*
X90350000Y-145990400D01*
X93574200Y-116730200D02*
X93574200Y-142766200D01*
X89682400Y-112838400D02*
X93574200Y-116730200D01*
X89682400Y-85307600D02*
X89682400Y-112838400D01*
X91213400Y-68156400D02*
X91210000Y-68153000D01*
X91213400Y-68450700D02*
X91213400Y-68156400D01*
%TO.N,/AA10*%
X87231800Y-25625700D02*
X87575000Y-25968900D01*
X87575000Y-25968900D02*
X87575000Y-37653000D01*
X87575000Y-37653000D02*
X88527000Y-38605000D01*
X88527000Y-38605000D02*
X88559300Y-38605000D01*
X88559300Y-38605000D02*
X90069100Y-40114800D01*
X90069100Y-40114800D02*
X90069100Y-60369000D01*
X90069100Y-60369000D02*
X92075000Y-62374900D01*
X92075000Y-63500000D02*
X92075000Y-62374900D01*
X92075000Y-64062500D02*
X92075000Y-63500000D01*
X81915000Y-45720000D02*
X80465500Y-47169500D01*
X80465500Y-47169500D02*
X80465500Y-48313400D01*
X92075000Y-64625100D02*
X93205100Y-65755200D01*
X93205100Y-65755200D02*
X93205100Y-79804600D01*
X93205100Y-79804600D02*
X92008500Y-81001200D01*
X92008500Y-81001200D02*
X92008500Y-82413100D01*
X92008500Y-82413100D02*
X92066500Y-82471100D01*
X92066500Y-82471100D02*
X92066500Y-85172700D01*
X92075000Y-64062500D02*
X92075000Y-64625100D01*
X88850000Y-151250000D02*
X88850000Y-146336300D01*
X88850000Y-146336300D02*
X85664900Y-143151200D01*
X85664900Y-143151200D02*
X85664900Y-115421100D01*
X85664900Y-115421100D02*
X88330000Y-112756000D01*
X88330000Y-112756000D02*
X88330000Y-86660000D01*
%TO.N,/AA9*%
X88330000Y-82944900D02*
X88330000Y-69180000D01*
X88330000Y-69180000D02*
X88632000Y-68878000D01*
X84017900Y-29538300D02*
X84017900Y-38635000D01*
X84017900Y-38635000D02*
X85495800Y-40112900D01*
X85495800Y-40112900D02*
X85495800Y-44679200D01*
X85495800Y-44679200D02*
X84455000Y-45720000D01*
X74930000Y-21590000D02*
X76424200Y-21590000D01*
X76424200Y-21590000D02*
X81280000Y-26445800D01*
X81280000Y-26445800D02*
X81280000Y-26920500D01*
X81280000Y-26920500D02*
X82065900Y-27706400D01*
X82065900Y-27706400D02*
X82557200Y-27706400D01*
X82557200Y-27706400D02*
X84017900Y-29167100D01*
X84017900Y-29167100D02*
X84017900Y-29538300D01*
X98541800Y-28904100D02*
X98826400Y-28619500D01*
X98826400Y-28619500D02*
X98826400Y-23093600D01*
X98826400Y-23093600D02*
X100330000Y-21590000D01*
X88330000Y-84120000D02*
X88330000Y-82944900D01*
X87350000Y-148174900D02*
X87350000Y-151250000D01*
X85190600Y-107289700D02*
X85190600Y-146015500D01*
X87060000Y-105420300D02*
X85190600Y-107289700D01*
X85190600Y-146015500D02*
X87350000Y-148174900D01*
X87060000Y-85390000D02*
X87060000Y-105420300D01*
X88330000Y-84120000D02*
X87060000Y-85390000D01*
%TO.N,/AA8*%
X99627400Y-75242000D02*
X99627400Y-72760600D01*
X99627400Y-72760600D02*
X102235000Y-70153000D01*
X102235000Y-70153000D02*
X102235000Y-63500000D01*
X72390000Y-19050000D02*
X73893600Y-20553600D01*
X73893600Y-20553600D02*
X73893600Y-22074000D01*
X73893600Y-22074000D02*
X74679600Y-22860000D01*
X74679600Y-22860000D02*
X75206800Y-22860000D01*
X75206800Y-22860000D02*
X78948600Y-26601800D01*
X78948600Y-26601800D02*
X78948600Y-27101500D01*
X78948600Y-27101500D02*
X79962700Y-28115600D01*
X79962700Y-28115600D02*
X80471100Y-28115600D01*
X80471100Y-28115600D02*
X81329000Y-28973500D01*
X81329000Y-28973500D02*
X81329000Y-35230800D01*
X81329000Y-35230800D02*
X83218800Y-37120600D01*
X83218800Y-37120600D02*
X83218800Y-41943800D01*
X83218800Y-41943800D02*
X84455000Y-43180000D01*
X85790000Y-86660000D02*
X85790000Y-87835100D01*
X85850000Y-151250000D02*
X85850000Y-148174900D01*
X85850000Y-148174900D02*
X84740500Y-147065400D01*
X84740500Y-147065400D02*
X84740500Y-88884600D01*
X84740500Y-88884600D02*
X85790000Y-87835100D01*
%TO.N,/AA7*%
X85090000Y-16510000D02*
X89200300Y-20620300D01*
X89200300Y-20620300D02*
X89200300Y-36979700D01*
X85790000Y-76247000D02*
X84704800Y-75161800D01*
X84704800Y-75161800D02*
X84704800Y-66052800D01*
X84704800Y-66052800D02*
X83210500Y-64558500D01*
X83210500Y-64558500D02*
X83210500Y-42796600D01*
X83210500Y-42796600D02*
X81915000Y-41501100D01*
X81915000Y-41501100D02*
X81915000Y-40640000D01*
X85790000Y-82944900D02*
X85790000Y-76247000D01*
X85790000Y-84120000D02*
X85790000Y-82944900D01*
X84285500Y-148110400D02*
X84350000Y-148174900D01*
X84350000Y-151250000D02*
X84350000Y-148174900D01*
X84614999Y-85295001D02*
X84614999Y-88076001D01*
X85790000Y-84120000D02*
X84614999Y-85295001D01*
X84614999Y-88076001D02*
X84285500Y-88405500D01*
X84285500Y-88405500D02*
X84285500Y-148110400D01*
%TO.N,/AA6*%
X83250000Y-86660000D02*
X83250000Y-87835100D01*
X82850000Y-151250000D02*
X82850000Y-88235100D01*
X82850000Y-88235100D02*
X83250000Y-87835100D01*
X107950000Y-16510000D02*
X109220000Y-17780000D01*
X109220000Y-17780000D02*
X109220000Y-27303300D01*
X109220000Y-27303300D02*
X109815100Y-27898400D01*
X109815100Y-27898400D02*
X109815100Y-36344200D01*
X109815100Y-36344200D02*
X107964800Y-38194500D01*
X107964800Y-38194500D02*
X107964800Y-44046600D01*
X107964800Y-44046600D02*
X108137000Y-44218800D01*
X108137000Y-44218800D02*
X108137000Y-59036800D01*
X108137000Y-59036800D02*
X106045000Y-61128800D01*
X106045000Y-61128800D02*
X106045000Y-70066800D01*
X106045000Y-70066800D02*
X102475800Y-73636000D01*
X102475800Y-73636000D02*
X102475800Y-75410800D01*
X102475800Y-75410800D02*
X101273500Y-76613100D01*
X101273500Y-76613100D02*
X101273500Y-77778500D01*
X101273500Y-77778500D02*
X102235000Y-78740000D01*
%TO.N,/AA5*%
X110490000Y-19050000D02*
X114840200Y-23400200D01*
X114840200Y-23400200D02*
X114840200Y-40505000D01*
X114840200Y-40505000D02*
X114070200Y-41275000D01*
X114070200Y-41275000D02*
X113300100Y-41275000D01*
X113300100Y-41275000D02*
X112489800Y-42085300D01*
X112489800Y-42085300D02*
X112489800Y-45119700D01*
X112489800Y-45119700D02*
X109851100Y-47758400D01*
X109851100Y-47758400D02*
X109851100Y-59168900D01*
X109851100Y-59168900D02*
X108585000Y-60435000D01*
X108585000Y-60435000D02*
X108585000Y-68163400D01*
X108585000Y-68163400D02*
X103084800Y-73663600D01*
X103084800Y-73663600D02*
X103084800Y-76278000D01*
X103084800Y-76278000D02*
X102024500Y-77338300D01*
X81350000Y-148174900D02*
X81350000Y-151250000D01*
X81980000Y-147544900D02*
X81350000Y-148174900D01*
X81980000Y-85390000D02*
X81980000Y-147544900D01*
X83250000Y-84120000D02*
X81980000Y-85390000D01*
%TO.N,/AA4*%
X97155000Y-77614900D02*
X97259600Y-77510300D01*
X97259600Y-77510300D02*
X97259600Y-73466300D01*
X97259600Y-73466300D02*
X100256800Y-70469100D01*
X112786300Y-71257100D02*
X114851000Y-71257100D01*
X114851000Y-71257100D02*
X116875900Y-69232200D01*
X116875900Y-69232200D02*
X116875900Y-19452000D01*
X116875900Y-19452000D02*
X110281000Y-12857100D01*
X110281000Y-12857100D02*
X105000700Y-12857100D01*
X105000700Y-12857100D02*
X104373600Y-13484200D01*
X97155000Y-78740000D02*
X97155000Y-77614900D01*
X104373600Y-13484200D02*
X102982200Y-12092800D01*
X102982200Y-12092800D02*
X92817700Y-12092800D01*
X92817700Y-12092800D02*
X91721200Y-13189300D01*
X107950000Y-19050000D02*
X106680000Y-17780000D01*
X106680000Y-17780000D02*
X106680000Y-16296800D01*
X106680000Y-16296800D02*
X105463900Y-15080700D01*
X105463900Y-15080700D02*
X105055100Y-15080700D01*
X105055100Y-15080700D02*
X104373600Y-14399200D01*
X104373600Y-14399200D02*
X104373600Y-13484200D01*
X79850000Y-151250000D02*
X79850000Y-148174900D01*
X79850000Y-148174900D02*
X80710000Y-147314900D01*
X80710000Y-147314900D02*
X80710000Y-86660000D01*
%TO.N,/AA3*%
X85090000Y-21590000D02*
X88025100Y-24525100D01*
X88025100Y-24525100D02*
X88025100Y-37466500D01*
X88025100Y-37466500D02*
X88713500Y-38154900D01*
X88713500Y-38154900D02*
X88745800Y-38154900D01*
X88745800Y-38154900D02*
X90969200Y-40378300D01*
X90969200Y-40378300D02*
X90969200Y-58719600D01*
X90969200Y-58719600D02*
X93256500Y-61006900D01*
X93256500Y-61006900D02*
X93256500Y-64676600D01*
X93256500Y-64676600D02*
X94615000Y-66035100D01*
X94615000Y-66035100D02*
X94615000Y-78740000D01*
X78350000Y-148174900D02*
X78350000Y-151250000D01*
X79440000Y-147084900D02*
X78350000Y-148174900D01*
X79440000Y-85390000D02*
X79440000Y-147084900D01*
X80710000Y-84120000D02*
X79440000Y-85390000D01*
%TO.N,/AA2*%
X82550000Y-21590000D02*
X83820000Y-22860000D01*
X83820000Y-22860000D02*
X85296000Y-22860000D01*
X85296000Y-22860000D02*
X86289200Y-23853200D01*
X86289200Y-23853200D02*
X86289200Y-25708500D01*
X86289200Y-25708500D02*
X87124900Y-26544200D01*
X87124900Y-26544200D02*
X87124900Y-37839500D01*
X87124900Y-37839500D02*
X88340500Y-39055100D01*
X88340500Y-39055100D02*
X88372800Y-39055100D01*
X88372800Y-39055100D02*
X89393800Y-40076100D01*
X89393800Y-40076100D02*
X89393800Y-60353600D01*
X89393800Y-60353600D02*
X90949800Y-61909600D01*
X90949800Y-61909600D02*
X90949800Y-64174800D01*
X90949800Y-64174800D02*
X92075000Y-65300000D01*
X92075000Y-65300000D02*
X92075000Y-78740000D01*
X78170000Y-86660000D02*
X78170000Y-87835100D01*
X76850000Y-151250000D02*
X76850000Y-140160300D01*
X76850000Y-140160300D02*
X78170000Y-138840300D01*
X78170000Y-138840300D02*
X78170000Y-87835100D01*
%TO.N,/AA1*%
X86674800Y-26730700D02*
X86674800Y-38026190D01*
X87420000Y-38771390D02*
X87420000Y-40153300D01*
X85090000Y-25145900D02*
X86674800Y-26730700D01*
X86674800Y-38026190D02*
X87420000Y-38771390D01*
X85090000Y-24130000D02*
X85090000Y-25145900D01*
X88397300Y-41143998D02*
X87420000Y-40166698D01*
X88397300Y-65805200D02*
X88397300Y-41143998D01*
X89975100Y-67383000D02*
X88397300Y-65805200D01*
X90710200Y-69991100D02*
X89975100Y-69256000D01*
X89975100Y-69256000D02*
X89975100Y-67383000D01*
X90710200Y-71159800D02*
X90710200Y-69991100D01*
X89535000Y-72335000D02*
X90710200Y-71159800D01*
X89535000Y-78740000D02*
X89535000Y-72335000D01*
X75350000Y-129906300D02*
X75350000Y-151250000D01*
X77541200Y-90160500D02*
X77541200Y-127715100D01*
X76959700Y-89579000D02*
X77541200Y-90160500D01*
X77541200Y-127715100D02*
X75350000Y-129906300D01*
X76959700Y-85330300D02*
X76959700Y-89579000D01*
X78170000Y-84120000D02*
X76959700Y-85330300D01*
%TO.N,/AA0*%
X73850000Y-151250000D02*
X73850000Y-128540600D01*
X73850000Y-128540600D02*
X77091100Y-125299500D01*
X77091100Y-125299500D02*
X77091100Y-90665100D01*
X77091100Y-90665100D02*
X75630000Y-89204000D01*
X75630000Y-89204000D02*
X75630000Y-86660000D01*
X86995000Y-77614900D02*
X87007700Y-77602200D01*
X87007700Y-77602200D02*
X87007700Y-73141300D01*
X87007700Y-73141300D02*
X87020400Y-73141300D01*
X86995000Y-78740000D02*
X86995000Y-77614900D01*
X76805100Y-84677100D02*
X76805100Y-83766400D01*
X76805100Y-83766400D02*
X78115000Y-82456500D01*
X78115000Y-82456500D02*
X78115000Y-77320100D01*
X84053700Y-25633700D02*
X82550000Y-24130000D01*
X84053700Y-27167278D02*
X84053700Y-25633700D01*
X86224610Y-29338188D02*
X84053700Y-27167278D01*
X86224700Y-38195300D02*
X86224610Y-38195210D01*
X86224700Y-38212500D02*
X86224700Y-38195300D01*
X86894700Y-50912300D02*
X86894700Y-38882500D01*
X85858200Y-51948800D02*
X86894700Y-50912300D01*
X86894700Y-38882500D02*
X86224700Y-38212500D01*
X86224610Y-38195210D02*
X86224610Y-29338188D01*
X85858200Y-71991800D02*
X85858200Y-51948800D01*
X87007700Y-73141300D02*
X85858200Y-71991800D01*
X75630000Y-85852200D02*
X76805100Y-84677100D01*
X75630000Y-86660000D02*
X75630000Y-85852200D01*
%TO.N,/~ASRAM_CS*%
X75630000Y-84120000D02*
X74265200Y-85484800D01*
X74265200Y-85484800D02*
X74265200Y-92019700D01*
X74265200Y-92019700D02*
X71919800Y-94365100D01*
X71919800Y-94365100D02*
X71919800Y-147744700D01*
X71919800Y-147744700D02*
X72350000Y-148174900D01*
X72350000Y-151250000D02*
X72350000Y-148174900D01*
%TO.N,/~ARD*%
X70850000Y-148174900D02*
X71009600Y-148015300D01*
X71009600Y-148015300D02*
X71009600Y-88624900D01*
X71009600Y-88624900D02*
X71914900Y-87719600D01*
X71914900Y-87719600D02*
X71914900Y-79898900D01*
X71914900Y-79898900D02*
X72998200Y-78815600D01*
X72998200Y-78815600D02*
X72998200Y-74755300D01*
X95707000Y-37468100D02*
X96363300Y-38124500D01*
X96363300Y-38124500D02*
X97439200Y-38124500D01*
X97439200Y-38124500D02*
X99463200Y-36100500D01*
X99463200Y-36100500D02*
X101932600Y-36100500D01*
X101932600Y-36100500D02*
X102140200Y-35892900D01*
X102140200Y-35892900D02*
X102140200Y-33969700D01*
X102140200Y-33969700D02*
X101299700Y-33129200D01*
X101299700Y-33129200D02*
X99047000Y-33129200D01*
X99047000Y-33129200D02*
X96285900Y-30368100D01*
X96285900Y-30368100D02*
X96285900Y-21615100D01*
X96285900Y-21615100D02*
X97382700Y-20518300D01*
X97382700Y-20518300D02*
X100770200Y-20518300D01*
X100770200Y-20518300D02*
X101376100Y-21124200D01*
X101376100Y-21124200D02*
X101376100Y-23083900D01*
X101376100Y-23083900D02*
X100330000Y-24130000D01*
X95630500Y-36339000D02*
X95630500Y-37391700D01*
X95630500Y-37391700D02*
X95707000Y-37468100D01*
X95707000Y-37468100D02*
X94975400Y-38199700D01*
X94975400Y-38199700D02*
X94975400Y-39270300D01*
X94975400Y-39270300D02*
X95290600Y-39585500D01*
X95290600Y-39585500D02*
X95290600Y-61699300D01*
X95290600Y-61699300D02*
X94615000Y-62374900D01*
X70850000Y-151250000D02*
X70850000Y-148174900D01*
X94615000Y-63500000D02*
X94615000Y-62374900D01*
X74854300Y-33583600D02*
X76033400Y-32404500D01*
X76033400Y-32404500D02*
X76033400Y-30344900D01*
X76033400Y-30344900D02*
X75966400Y-30277900D01*
X75966400Y-30277900D02*
X75966400Y-25166400D01*
X75966400Y-25166400D02*
X74930000Y-24130000D01*
%TO.N,/~AWR*%
X91070000Y-15286000D02*
X90996100Y-15212100D01*
X90996100Y-15212100D02*
X90996100Y-10789000D01*
X62527500Y-34938900D02*
X70433200Y-27033200D01*
X70433200Y-27033200D02*
X70433200Y-19498500D01*
X70433200Y-19498500D02*
X72151700Y-17780000D01*
X72151700Y-17780000D02*
X73660000Y-17780000D01*
X73660000Y-17780000D02*
X74930000Y-16510000D01*
X107315000Y-63500000D02*
X107315000Y-60572300D01*
X107315000Y-60572300D02*
X109043200Y-58844100D01*
X109043200Y-58844100D02*
X109043200Y-47525100D01*
X109043200Y-47525100D02*
X110996100Y-45572200D01*
X62527500Y-34938900D02*
X62527500Y-82577500D01*
X69350000Y-151250000D02*
X69350000Y-89400000D01*
D23*
%TO.N,/ACLK*%
X67850000Y-89360000D02*
X70550000Y-86660000D01*
X67850000Y-151250000D02*
X67850000Y-89360000D01*
D24*
%TO.N,/AA15_T*%
X95704300Y-38511100D02*
X95806500Y-38613300D01*
X95806500Y-38613300D02*
X95806500Y-82801400D01*
X95806500Y-82801400D02*
X95950000Y-82944900D01*
X95950000Y-84120000D02*
X95950000Y-82944900D01*
%TO.N,/~ARD_T*%
X84806800Y-38387500D02*
X85971800Y-39552500D01*
X85971800Y-39552500D02*
X85971800Y-48980100D01*
X85971800Y-48980100D02*
X85696900Y-49255000D01*
X74454800Y-71832000D02*
X74454800Y-84485300D01*
X73090000Y-85850100D02*
X74454800Y-84485300D01*
X73090000Y-86660000D02*
X73090000Y-85850100D01*
%TO.N,/~AWR_T*%
X72808400Y-52016700D02*
X72808400Y-63413000D01*
X72808400Y-63413000D02*
X73424800Y-64029400D01*
X73424800Y-64029400D02*
X73424800Y-72922300D01*
X73424800Y-72922300D02*
X73740100Y-73237600D01*
X73740100Y-73237600D02*
X73740100Y-82294800D01*
X73740100Y-82294800D02*
X73090000Y-82944900D01*
X73090000Y-84120000D02*
X73090000Y-82944900D01*
X72460188Y-51668488D02*
X72808400Y-52016700D01*
X72460188Y-43297568D02*
X72460188Y-51668488D01*
%TO.N,/TCK*%
X68089900Y-66040000D02*
X70207500Y-66040000D01*
X67310000Y-66040000D02*
X68089900Y-66040000D01*
X68089900Y-66040000D02*
X68089900Y-51925100D01*
X68089900Y-51925100D02*
X69215000Y-50800000D01*
%TO.N,/TDO*%
X67310000Y-68580000D02*
X67310000Y-67404900D01*
X67310000Y-67404900D02*
X66502100Y-67404900D01*
X66502100Y-67404900D02*
X66134900Y-67037700D01*
X66134900Y-67037700D02*
X66134900Y-61174700D01*
X66134900Y-61174700D02*
X63272500Y-58312300D01*
X63272500Y-58312300D02*
X63272500Y-47586200D01*
%TO.N,/TMS*%
X68485100Y-71120000D02*
X68485100Y-70586400D01*
X68485100Y-70586400D02*
X69505300Y-69566200D01*
X69505300Y-69566200D02*
X70956100Y-69566200D01*
X70956100Y-69566200D02*
X72032500Y-70642600D01*
X72032500Y-70642600D02*
X72032500Y-71120000D01*
X67310000Y-71120000D02*
X68485100Y-71120000D01*
%TO.N,/TDI*%
X87656100Y-41475800D02*
X87656100Y-59680300D01*
X67310000Y-76200000D02*
X67310000Y-75024900D01*
X67310000Y-75024900D02*
X67677200Y-75024900D01*
X67677200Y-75024900D02*
X68967800Y-73734300D01*
X68967800Y-73734300D02*
X68967800Y-70740400D01*
X68967800Y-70740400D02*
X69678100Y-70030100D01*
X69678100Y-70030100D02*
X70783300Y-70030100D01*
X70783300Y-70030100D02*
X71175200Y-70422000D01*
X71175200Y-70422000D02*
X71175200Y-75342700D01*
X71175200Y-75342700D02*
X72032500Y-76200000D01*
%TO.N,/~SW_1*%
X64770000Y-24765000D02*
X66345100Y-24765000D01*
X65047500Y-16510000D02*
X66596800Y-18059300D01*
X66596800Y-18059300D02*
X66596800Y-24513300D01*
X66596800Y-24513300D02*
X66345100Y-24765000D01*
%TO.N,/~F_CE_010*%
X100330000Y-26670000D02*
X101493700Y-27833700D01*
X101493700Y-27833700D02*
X101493700Y-30995300D01*
X75308300Y-30645300D02*
X69215000Y-36738600D01*
X69215000Y-36738600D02*
X69215000Y-38100000D01*
%TO.N,/~F_CE_040*%
X74930000Y-26670000D02*
X72501000Y-29099000D01*
X72501000Y-29099000D02*
X72501000Y-30651000D01*
X72501000Y-30651000D02*
X66675000Y-36477000D01*
X66675000Y-36477000D02*
X66675000Y-40640000D01*
%TO.N,/F040_A16*%
X80010000Y-13970000D02*
X81107300Y-15067300D01*
X81107300Y-15067300D02*
X85154700Y-15067300D01*
X85154700Y-15067300D02*
X91268700Y-21181300D01*
X91268700Y-21181300D02*
X91268700Y-37011500D01*
X91268700Y-37011500D02*
X92847400Y-38590200D01*
X92847400Y-38590200D02*
X93658600Y-38590200D01*
X93658600Y-38590200D02*
X94520200Y-39451800D01*
X94520200Y-39451800D02*
X94520200Y-41363400D01*
X94520200Y-41363400D02*
X94503000Y-41380600D01*
%TO.N,/F040_A18*%
X78506300Y-16510000D02*
X77470000Y-16510000D01*
X85303100Y-20320000D02*
X82316300Y-20320000D01*
X88475200Y-23492100D02*
X85303100Y-20320000D01*
X88475200Y-37280000D02*
X88475200Y-23492100D01*
X88932300Y-37704800D02*
X88900000Y-37704800D01*
X88900000Y-37704800D02*
X88475200Y-37280000D01*
X91419400Y-40191900D02*
X88932300Y-37704800D01*
X82316300Y-20320000D02*
X78506300Y-16510000D01*
X91419400Y-53319400D02*
X91419400Y-40191900D01*
X93345000Y-55245000D02*
X91419400Y-53319400D01*
D23*
%TO.N,Net-(BT1-Pad1)*%
X74295000Y-122855000D02*
X74295000Y-100555000D01*
X105130000Y-104825000D02*
X105130000Y-99490000D01*
X104545000Y-105410000D02*
X105130000Y-104825000D01*
X103570000Y-105410000D02*
X104545000Y-105410000D01*
%TO.N,VMEM*%
X114935000Y-63500000D02*
X114935000Y-67630000D01*
X111595001Y-70969999D02*
X114935000Y-67630000D01*
X111595001Y-77940001D02*
X111595001Y-70969999D01*
X112395000Y-78740000D02*
X111595001Y-77940001D01*
X109995010Y-91862866D02*
X109995010Y-103639990D01*
X109995010Y-103639990D02*
X109495000Y-104140000D01*
X109495000Y-104140000D02*
X108520000Y-104140000D01*
X112395000Y-89462876D02*
X109995010Y-91862866D01*
X112395000Y-78740000D02*
X112395000Y-89462876D01*
D24*
%TO.N,/F010_A17*%
X110904200Y-14821600D02*
X109213200Y-14821600D01*
X115783900Y-53126100D02*
X115783900Y-19701300D01*
X115783900Y-19701300D02*
X110904200Y-14821600D01*
X113665000Y-55245000D02*
X115783900Y-53126100D01*
%TO.N,/F010_A16*%
X108722800Y-15590300D02*
X108490100Y-15357600D01*
X115316400Y-19870600D02*
X110896000Y-15450200D01*
X109959200Y-15450200D02*
X109819100Y-15590300D01*
X106797600Y-15357600D02*
X105410000Y-13970000D01*
X109819100Y-15590300D02*
X108722800Y-15590300D01*
X113665000Y-47625000D02*
X115316400Y-45973600D01*
X110896000Y-15450200D02*
X109959200Y-15450200D01*
X108490100Y-15357600D02*
X106797600Y-15357600D01*
X115316400Y-45973600D02*
X115316400Y-19870600D01*
%TO.N,/F010_A18*%
X103979200Y-25555600D02*
X102870000Y-24446400D01*
X103979200Y-44628000D02*
X103979200Y-25555600D01*
X106524800Y-46478000D02*
X105829200Y-46478000D01*
X102870000Y-24446400D02*
X102870000Y-16510000D01*
X105829200Y-46478000D02*
X103979200Y-44628000D01*
X107224000Y-47177200D02*
X106524800Y-46478000D01*
X107224000Y-54066000D02*
X107224000Y-47177200D01*
X106045000Y-55245000D02*
X107224000Y-54066000D01*
%TO.N,/RAM_A14*%
X78491000Y-71271800D02*
X78800700Y-70962100D01*
X78800700Y-70962100D02*
X78800700Y-69633500D01*
X78800700Y-69633500D02*
X74481000Y-65313800D01*
X74481000Y-65313800D02*
X74481000Y-63285900D01*
X74481000Y-63285900D02*
X74480900Y-63285900D01*
X64017500Y-45794800D02*
X64017500Y-56219500D01*
X64017500Y-56219500D02*
X67126000Y-59328000D01*
%TO.N,/HC373_010_LE*%
X66675000Y-50800000D02*
X65564200Y-49689200D01*
X65564200Y-49689200D02*
X65564200Y-35467600D01*
X65564200Y-35467600D02*
X71106000Y-29925800D01*
X104732700Y-42913600D02*
X104732700Y-41113500D01*
X105696400Y-43877300D02*
X104732700Y-42913600D01*
X107674200Y-45079600D02*
X106471900Y-43877300D01*
X106471900Y-43877300D02*
X105696400Y-43877300D01*
X107674200Y-56155800D02*
X107674200Y-45079600D01*
X106045000Y-57785000D02*
X107674200Y-56155800D01*
%TO.N,/~RAM_CE*%
X89535000Y-62374900D02*
X88943700Y-61783600D01*
X88943700Y-61783600D02*
X88943700Y-40651700D01*
X88943700Y-40651700D02*
X88185800Y-39893800D01*
X89535000Y-63500000D02*
X89535000Y-62374900D01*
%TO.N,/RAM_CE2*%
X109855000Y-63500000D02*
X109855000Y-62374900D01*
X109855000Y-62374900D02*
X110576200Y-61653700D01*
X110576200Y-61653700D02*
X110576200Y-58119200D01*
X107821446Y-90111447D02*
X107750000Y-90182893D01*
X102217800Y-95715094D02*
X107821446Y-90111447D01*
X103127400Y-104140000D02*
X102217800Y-103230400D01*
X103570000Y-104140000D02*
X103127400Y-104140000D01*
X102217800Y-103230400D02*
X102217800Y-95715094D01*
%TO.N,/RAM_A13*%
X73202400Y-50121200D02*
X73258600Y-50177400D01*
X73258600Y-50177400D02*
X73258600Y-63089100D01*
X73258600Y-63089100D02*
X73875000Y-63705500D01*
X73875000Y-63705500D02*
X73875000Y-65762000D01*
X73875000Y-65762000D02*
X78075600Y-69962600D01*
X106960000Y-65680000D02*
X106960000Y-68580000D01*
%TD*%
D25*
%TO.N,+5V*%
X70334500Y-70993000D02*
X70354500Y-70993000D01*
X70354500Y-71247000D01*
X70334500Y-71247000D01*
X70334500Y-72296250D01*
X70415200Y-72376950D01*
X70415201Y-74943049D01*
X70334500Y-75023750D01*
X70334500Y-76073000D01*
X70354500Y-76073000D01*
X70354500Y-76327000D01*
X70334500Y-76327000D01*
X70334500Y-77376250D01*
X70493250Y-77535000D01*
X70720000Y-77538072D01*
X70844482Y-77525812D01*
X70964180Y-77489502D01*
X71074494Y-77430537D01*
X71171185Y-77351185D01*
X71195363Y-77321724D01*
X71276613Y-77388405D01*
X71430148Y-77470472D01*
X71596744Y-77521008D01*
X71769998Y-77538072D01*
X72238200Y-77538072D01*
X72238200Y-78500798D01*
X71403898Y-79335101D01*
X71374900Y-79358899D01*
X71351102Y-79387897D01*
X71351101Y-79387898D01*
X71279926Y-79474624D01*
X71209354Y-79606654D01*
X71194762Y-79654759D01*
X71165898Y-79749914D01*
X71160844Y-79801226D01*
X71151224Y-79898900D01*
X71154901Y-79936232D01*
X71154901Y-82633262D01*
X70835750Y-82635000D01*
X70677000Y-82793750D01*
X70677000Y-83993000D01*
X70697000Y-83993000D01*
X70697000Y-84247000D01*
X70677000Y-84247000D01*
X70677000Y-84267000D01*
X70423000Y-84267000D01*
X70423000Y-84247000D01*
X69223750Y-84247000D01*
X69065000Y-84405750D01*
X69061928Y-84970000D01*
X69074188Y-85094482D01*
X69110498Y-85214180D01*
X69169463Y-85324494D01*
X69248815Y-85421185D01*
X69345506Y-85500537D01*
X69455820Y-85559502D01*
X69528380Y-85581513D01*
X69396525Y-85713368D01*
X69234010Y-85956589D01*
X69122068Y-86226842D01*
X69065000Y-86513740D01*
X69065000Y-86806260D01*
X69079461Y-86878960D01*
X67254951Y-88703471D01*
X67221184Y-88731183D01*
X67193471Y-88764951D01*
X67193468Y-88764954D01*
X67110590Y-88865941D01*
X67028412Y-89019687D01*
X66977805Y-89186510D01*
X66960719Y-89360000D01*
X66965001Y-89403479D01*
X66965000Y-147637500D01*
X65685000Y-147637500D01*
X65685000Y-146933646D01*
X65688314Y-146900000D01*
X65675088Y-146765717D01*
X65635919Y-146636594D01*
X65572312Y-146517593D01*
X65486711Y-146413289D01*
X65382407Y-146327688D01*
X65263406Y-146264081D01*
X65134283Y-146224912D01*
X65033647Y-146215000D01*
X65000000Y-146211686D01*
X64966353Y-146215000D01*
X64585000Y-146215000D01*
X64585000Y-144533646D01*
X64588314Y-144500000D01*
X64575088Y-144365717D01*
X64535919Y-144236594D01*
X64472312Y-144117593D01*
X64386711Y-144013289D01*
X64299185Y-143941458D01*
X64288303Y-143928197D01*
X64269057Y-143912403D01*
X64247101Y-143900667D01*
X64223276Y-143893440D01*
X64217217Y-143892843D01*
X64163406Y-143864081D01*
X64034283Y-143824912D01*
X63933647Y-143815000D01*
X63900000Y-143811686D01*
X63866353Y-143815000D01*
X63785000Y-143815000D01*
X63785000Y-91633646D01*
X63788314Y-91600000D01*
X63775088Y-91465717D01*
X63735919Y-91336594D01*
X63672312Y-91217593D01*
X63586711Y-91113289D01*
X63482407Y-91027688D01*
X63363406Y-90964081D01*
X63234283Y-90924912D01*
X63133647Y-90915000D01*
X63100000Y-90911686D01*
X63066353Y-90915000D01*
X62535000Y-90915000D01*
X62535000Y-83612500D01*
X62629439Y-83612500D01*
X62829398Y-83572726D01*
X63017756Y-83494705D01*
X63187274Y-83381437D01*
X63331437Y-83237274D01*
X63444705Y-83067756D01*
X63522726Y-82879398D01*
X63562500Y-82679439D01*
X63562500Y-82475561D01*
X63522726Y-82275602D01*
X63444705Y-82087244D01*
X63331437Y-81917726D01*
X63287500Y-81873789D01*
X63287500Y-76358828D01*
X63342068Y-76633158D01*
X63454010Y-76903411D01*
X63616525Y-77146632D01*
X63823368Y-77353475D01*
X64066589Y-77515990D01*
X64336842Y-77627932D01*
X64623740Y-77685000D01*
X64916260Y-77685000D01*
X65203158Y-77627932D01*
X65374801Y-77556836D01*
X65374800Y-86552689D01*
X65330863Y-86596626D01*
X65217595Y-86766144D01*
X65139574Y-86954502D01*
X65099800Y-87154461D01*
X65099800Y-87358339D01*
X65139574Y-87558298D01*
X65217595Y-87746656D01*
X65330863Y-87916174D01*
X65475026Y-88060337D01*
X65644544Y-88173605D01*
X65832902Y-88251626D01*
X66032861Y-88291400D01*
X66236739Y-88291400D01*
X66436698Y-88251626D01*
X66625056Y-88173605D01*
X66794574Y-88060337D01*
X66938737Y-87916174D01*
X67052005Y-87746656D01*
X67130026Y-87558298D01*
X67169800Y-87358339D01*
X67169800Y-87154461D01*
X67130026Y-86954502D01*
X67052005Y-86766144D01*
X66938737Y-86596626D01*
X66894800Y-86552689D01*
X66894800Y-83270000D01*
X69061928Y-83270000D01*
X69065000Y-83834250D01*
X69223750Y-83993000D01*
X70423000Y-83993000D01*
X70423000Y-82793750D01*
X70264250Y-82635000D01*
X69700000Y-82631928D01*
X69575518Y-82644188D01*
X69455820Y-82680498D01*
X69345506Y-82739463D01*
X69248815Y-82818815D01*
X69169463Y-82915506D01*
X69110498Y-83025820D01*
X69074188Y-83145518D01*
X69061928Y-83270000D01*
X66894800Y-83270000D01*
X66894800Y-77631504D01*
X67163740Y-77685000D01*
X67456260Y-77685000D01*
X67743158Y-77627932D01*
X68013411Y-77515990D01*
X68256632Y-77353475D01*
X68463475Y-77146632D01*
X68625990Y-76903411D01*
X68627402Y-76900000D01*
X69056928Y-76900000D01*
X69069188Y-77024482D01*
X69105498Y-77144180D01*
X69164463Y-77254494D01*
X69243815Y-77351185D01*
X69340506Y-77430537D01*
X69450820Y-77489502D01*
X69570518Y-77525812D01*
X69695000Y-77538072D01*
X69921750Y-77535000D01*
X70080500Y-77376250D01*
X70080500Y-76327000D01*
X69218750Y-76327000D01*
X69060000Y-76485750D01*
X69056928Y-76900000D01*
X68627402Y-76900000D01*
X68737932Y-76633158D01*
X68795000Y-76346260D01*
X68795000Y-76053740D01*
X68737932Y-75766842D01*
X68627403Y-75500000D01*
X69056928Y-75500000D01*
X69060000Y-75914250D01*
X69218750Y-76073000D01*
X70080500Y-76073000D01*
X70080500Y-75023750D01*
X69921750Y-74865000D01*
X69695000Y-74861928D01*
X69570518Y-74874188D01*
X69450820Y-74910498D01*
X69340506Y-74969463D01*
X69243815Y-75048815D01*
X69164463Y-75145506D01*
X69105498Y-75255820D01*
X69069188Y-75375518D01*
X69056928Y-75500000D01*
X68627403Y-75500000D01*
X68625990Y-75496589D01*
X68487531Y-75289370D01*
X69478804Y-74298098D01*
X69507801Y-74274301D01*
X69544178Y-74229976D01*
X69602774Y-74158577D01*
X69673346Y-74026547D01*
X69684553Y-73989601D01*
X69716803Y-73883286D01*
X69727800Y-73771633D01*
X69727800Y-73771624D01*
X69731476Y-73734301D01*
X69727800Y-73696978D01*
X69727800Y-72457628D01*
X69921750Y-72455000D01*
X70080500Y-72296250D01*
X70080500Y-71247000D01*
X70060500Y-71247000D01*
X70060500Y-70993000D01*
X70080500Y-70993000D01*
X70080500Y-70973000D01*
X70334500Y-70973000D01*
X70334500Y-70993000D01*
%TA.AperFunction,Conductor*%
D26*
G36*
X70334500Y-70993000D02*
G01*
X70354500Y-70993000D01*
X70354500Y-71247000D01*
X70334500Y-71247000D01*
X70334500Y-72296250D01*
X70415200Y-72376950D01*
X70415201Y-74943049D01*
X70334500Y-75023750D01*
X70334500Y-76073000D01*
X70354500Y-76073000D01*
X70354500Y-76327000D01*
X70334500Y-76327000D01*
X70334500Y-77376250D01*
X70493250Y-77535000D01*
X70720000Y-77538072D01*
X70844482Y-77525812D01*
X70964180Y-77489502D01*
X71074494Y-77430537D01*
X71171185Y-77351185D01*
X71195363Y-77321724D01*
X71276613Y-77388405D01*
X71430148Y-77470472D01*
X71596744Y-77521008D01*
X71769998Y-77538072D01*
X72238200Y-77538072D01*
X72238200Y-78500798D01*
X71403898Y-79335101D01*
X71374900Y-79358899D01*
X71351102Y-79387897D01*
X71351101Y-79387898D01*
X71279926Y-79474624D01*
X71209354Y-79606654D01*
X71194762Y-79654759D01*
X71165898Y-79749914D01*
X71160844Y-79801226D01*
X71151224Y-79898900D01*
X71154901Y-79936232D01*
X71154901Y-82633262D01*
X70835750Y-82635000D01*
X70677000Y-82793750D01*
X70677000Y-83993000D01*
X70697000Y-83993000D01*
X70697000Y-84247000D01*
X70677000Y-84247000D01*
X70677000Y-84267000D01*
X70423000Y-84267000D01*
X70423000Y-84247000D01*
X69223750Y-84247000D01*
X69065000Y-84405750D01*
X69061928Y-84970000D01*
X69074188Y-85094482D01*
X69110498Y-85214180D01*
X69169463Y-85324494D01*
X69248815Y-85421185D01*
X69345506Y-85500537D01*
X69455820Y-85559502D01*
X69528380Y-85581513D01*
X69396525Y-85713368D01*
X69234010Y-85956589D01*
X69122068Y-86226842D01*
X69065000Y-86513740D01*
X69065000Y-86806260D01*
X69079461Y-86878960D01*
X67254951Y-88703471D01*
X67221184Y-88731183D01*
X67193471Y-88764951D01*
X67193468Y-88764954D01*
X67110590Y-88865941D01*
X67028412Y-89019687D01*
X66977805Y-89186510D01*
X66960719Y-89360000D01*
X66965001Y-89403479D01*
X66965000Y-147637500D01*
X65685000Y-147637500D01*
X65685000Y-146933646D01*
X65688314Y-146900000D01*
X65675088Y-146765717D01*
X65635919Y-146636594D01*
X65572312Y-146517593D01*
X65486711Y-146413289D01*
X65382407Y-146327688D01*
X65263406Y-146264081D01*
X65134283Y-146224912D01*
X65033647Y-146215000D01*
X65000000Y-146211686D01*
X64966353Y-146215000D01*
X64585000Y-146215000D01*
X64585000Y-144533646D01*
X64588314Y-144500000D01*
X64575088Y-144365717D01*
X64535919Y-144236594D01*
X64472312Y-144117593D01*
X64386711Y-144013289D01*
X64299185Y-143941458D01*
X64288303Y-143928197D01*
X64269057Y-143912403D01*
X64247101Y-143900667D01*
X64223276Y-143893440D01*
X64217217Y-143892843D01*
X64163406Y-143864081D01*
X64034283Y-143824912D01*
X63933647Y-143815000D01*
X63900000Y-143811686D01*
X63866353Y-143815000D01*
X63785000Y-143815000D01*
X63785000Y-91633646D01*
X63788314Y-91600000D01*
X63775088Y-91465717D01*
X63735919Y-91336594D01*
X63672312Y-91217593D01*
X63586711Y-91113289D01*
X63482407Y-91027688D01*
X63363406Y-90964081D01*
X63234283Y-90924912D01*
X63133647Y-90915000D01*
X63100000Y-90911686D01*
X63066353Y-90915000D01*
X62535000Y-90915000D01*
X62535000Y-83612500D01*
X62629439Y-83612500D01*
X62829398Y-83572726D01*
X63017756Y-83494705D01*
X63187274Y-83381437D01*
X63331437Y-83237274D01*
X63444705Y-83067756D01*
X63522726Y-82879398D01*
X63562500Y-82679439D01*
X63562500Y-82475561D01*
X63522726Y-82275602D01*
X63444705Y-82087244D01*
X63331437Y-81917726D01*
X63287500Y-81873789D01*
X63287500Y-76358828D01*
X63342068Y-76633158D01*
X63454010Y-76903411D01*
X63616525Y-77146632D01*
X63823368Y-77353475D01*
X64066589Y-77515990D01*
X64336842Y-77627932D01*
X64623740Y-77685000D01*
X64916260Y-77685000D01*
X65203158Y-77627932D01*
X65374801Y-77556836D01*
X65374800Y-86552689D01*
X65330863Y-86596626D01*
X65217595Y-86766144D01*
X65139574Y-86954502D01*
X65099800Y-87154461D01*
X65099800Y-87358339D01*
X65139574Y-87558298D01*
X65217595Y-87746656D01*
X65330863Y-87916174D01*
X65475026Y-88060337D01*
X65644544Y-88173605D01*
X65832902Y-88251626D01*
X66032861Y-88291400D01*
X66236739Y-88291400D01*
X66436698Y-88251626D01*
X66625056Y-88173605D01*
X66794574Y-88060337D01*
X66938737Y-87916174D01*
X67052005Y-87746656D01*
X67130026Y-87558298D01*
X67169800Y-87358339D01*
X67169800Y-87154461D01*
X67130026Y-86954502D01*
X67052005Y-86766144D01*
X66938737Y-86596626D01*
X66894800Y-86552689D01*
X66894800Y-83270000D01*
X69061928Y-83270000D01*
X69065000Y-83834250D01*
X69223750Y-83993000D01*
X70423000Y-83993000D01*
X70423000Y-82793750D01*
X70264250Y-82635000D01*
X69700000Y-82631928D01*
X69575518Y-82644188D01*
X69455820Y-82680498D01*
X69345506Y-82739463D01*
X69248815Y-82818815D01*
X69169463Y-82915506D01*
X69110498Y-83025820D01*
X69074188Y-83145518D01*
X69061928Y-83270000D01*
X66894800Y-83270000D01*
X66894800Y-77631504D01*
X67163740Y-77685000D01*
X67456260Y-77685000D01*
X67743158Y-77627932D01*
X68013411Y-77515990D01*
X68256632Y-77353475D01*
X68463475Y-77146632D01*
X68625990Y-76903411D01*
X68627402Y-76900000D01*
X69056928Y-76900000D01*
X69069188Y-77024482D01*
X69105498Y-77144180D01*
X69164463Y-77254494D01*
X69243815Y-77351185D01*
X69340506Y-77430537D01*
X69450820Y-77489502D01*
X69570518Y-77525812D01*
X69695000Y-77538072D01*
X69921750Y-77535000D01*
X70080500Y-77376250D01*
X70080500Y-76327000D01*
X69218750Y-76327000D01*
X69060000Y-76485750D01*
X69056928Y-76900000D01*
X68627402Y-76900000D01*
X68737932Y-76633158D01*
X68795000Y-76346260D01*
X68795000Y-76053740D01*
X68737932Y-75766842D01*
X68627403Y-75500000D01*
X69056928Y-75500000D01*
X69060000Y-75914250D01*
X69218750Y-76073000D01*
X70080500Y-76073000D01*
X70080500Y-75023750D01*
X69921750Y-74865000D01*
X69695000Y-74861928D01*
X69570518Y-74874188D01*
X69450820Y-74910498D01*
X69340506Y-74969463D01*
X69243815Y-75048815D01*
X69164463Y-75145506D01*
X69105498Y-75255820D01*
X69069188Y-75375518D01*
X69056928Y-75500000D01*
X68627403Y-75500000D01*
X68625990Y-75496589D01*
X68487531Y-75289370D01*
X69478804Y-74298098D01*
X69507801Y-74274301D01*
X69544178Y-74229976D01*
X69602774Y-74158577D01*
X69673346Y-74026547D01*
X69684553Y-73989601D01*
X69716803Y-73883286D01*
X69727800Y-73771633D01*
X69727800Y-73771624D01*
X69731476Y-73734301D01*
X69727800Y-73696978D01*
X69727800Y-72457628D01*
X69921750Y-72455000D01*
X70080500Y-72296250D01*
X70080500Y-71247000D01*
X70060500Y-71247000D01*
X70060500Y-70993000D01*
X70080500Y-70993000D01*
X70080500Y-70973000D01*
X70334500Y-70973000D01*
X70334500Y-70993000D01*
G37*
%TD.AperFunction*%
D25*
X109110011Y-100663644D02*
X108805750Y-100665000D01*
X108647000Y-100823750D01*
X108647000Y-101473000D01*
X108667000Y-101473000D01*
X108667000Y-101727000D01*
X108647000Y-101727000D01*
X108647000Y-101747000D01*
X108393000Y-101747000D01*
X108393000Y-101727000D01*
X107068750Y-101727000D01*
X106910000Y-101885750D01*
X106906928Y-101900000D01*
X106919188Y-102024482D01*
X106955498Y-102144180D01*
X107014463Y-102254494D01*
X107038730Y-102284064D01*
X106966916Y-102418418D01*
X106922071Y-102566255D01*
X106906928Y-102720000D01*
X106906928Y-103020000D01*
X106922071Y-103173745D01*
X106966916Y-103321582D01*
X107039742Y-103457829D01*
X107078454Y-103505000D01*
X107039742Y-103552171D01*
X106966916Y-103688418D01*
X106922071Y-103836255D01*
X106906928Y-103990000D01*
X106906928Y-104290000D01*
X106922071Y-104443745D01*
X106966916Y-104591582D01*
X107039742Y-104727829D01*
X107078454Y-104775000D01*
X107039742Y-104822171D01*
X106966916Y-104958418D01*
X106922071Y-105106255D01*
X106906928Y-105260000D01*
X106906928Y-105272127D01*
X106800010Y-105165209D01*
X106800010Y-101300000D01*
X106906928Y-101300000D01*
X106910000Y-101314250D01*
X107068750Y-101473000D01*
X108393000Y-101473000D01*
X108393000Y-100823750D01*
X108234250Y-100665000D01*
X107545000Y-100661928D01*
X107420518Y-100674188D01*
X107300820Y-100710498D01*
X107190506Y-100769463D01*
X107093815Y-100848815D01*
X107014463Y-100945506D01*
X106955498Y-101055820D01*
X106919188Y-101175518D01*
X106906928Y-101300000D01*
X106800010Y-101300000D01*
X106800010Y-98424240D01*
X106868000Y-98356250D01*
X106868000Y-97282000D01*
X107122000Y-97282000D01*
X107122000Y-98356250D01*
X107280750Y-98515000D01*
X107495000Y-98518072D01*
X107619482Y-98505812D01*
X107739180Y-98469502D01*
X107849494Y-98410537D01*
X107946185Y-98331185D01*
X108025537Y-98234494D01*
X108084502Y-98124180D01*
X108120812Y-98004482D01*
X108133072Y-97880000D01*
X108130000Y-97440750D01*
X107971250Y-97282000D01*
X107122000Y-97282000D01*
X106868000Y-97282000D01*
X106848000Y-97282000D01*
X106848000Y-97028000D01*
X106868000Y-97028000D01*
X106868000Y-95953750D01*
X107122000Y-95953750D01*
X107122000Y-97028000D01*
X107971250Y-97028000D01*
X108130000Y-96869250D01*
X108133072Y-96430000D01*
X108120812Y-96305518D01*
X108084502Y-96185820D01*
X108025537Y-96075506D01*
X107946185Y-95978815D01*
X107849494Y-95899463D01*
X107739180Y-95840498D01*
X107619482Y-95804188D01*
X107495000Y-95791928D01*
X107280750Y-95795000D01*
X107122000Y-95953750D01*
X106868000Y-95953750D01*
X106800010Y-95885760D01*
X106800010Y-94977683D01*
X109110010Y-92667684D01*
X109110011Y-100663644D01*
%TA.AperFunction,Conductor*%
D26*
G36*
X109110011Y-100663644D02*
G01*
X108805750Y-100665000D01*
X108647000Y-100823750D01*
X108647000Y-101473000D01*
X108667000Y-101473000D01*
X108667000Y-101727000D01*
X108647000Y-101727000D01*
X108647000Y-101747000D01*
X108393000Y-101747000D01*
X108393000Y-101727000D01*
X107068750Y-101727000D01*
X106910000Y-101885750D01*
X106906928Y-101900000D01*
X106919188Y-102024482D01*
X106955498Y-102144180D01*
X107014463Y-102254494D01*
X107038730Y-102284064D01*
X106966916Y-102418418D01*
X106922071Y-102566255D01*
X106906928Y-102720000D01*
X106906928Y-103020000D01*
X106922071Y-103173745D01*
X106966916Y-103321582D01*
X107039742Y-103457829D01*
X107078454Y-103505000D01*
X107039742Y-103552171D01*
X106966916Y-103688418D01*
X106922071Y-103836255D01*
X106906928Y-103990000D01*
X106906928Y-104290000D01*
X106922071Y-104443745D01*
X106966916Y-104591582D01*
X107039742Y-104727829D01*
X107078454Y-104775000D01*
X107039742Y-104822171D01*
X106966916Y-104958418D01*
X106922071Y-105106255D01*
X106906928Y-105260000D01*
X106906928Y-105272127D01*
X106800010Y-105165209D01*
X106800010Y-101300000D01*
X106906928Y-101300000D01*
X106910000Y-101314250D01*
X107068750Y-101473000D01*
X108393000Y-101473000D01*
X108393000Y-100823750D01*
X108234250Y-100665000D01*
X107545000Y-100661928D01*
X107420518Y-100674188D01*
X107300820Y-100710498D01*
X107190506Y-100769463D01*
X107093815Y-100848815D01*
X107014463Y-100945506D01*
X106955498Y-101055820D01*
X106919188Y-101175518D01*
X106906928Y-101300000D01*
X106800010Y-101300000D01*
X106800010Y-98424240D01*
X106868000Y-98356250D01*
X106868000Y-97282000D01*
X107122000Y-97282000D01*
X107122000Y-98356250D01*
X107280750Y-98515000D01*
X107495000Y-98518072D01*
X107619482Y-98505812D01*
X107739180Y-98469502D01*
X107849494Y-98410537D01*
X107946185Y-98331185D01*
X108025537Y-98234494D01*
X108084502Y-98124180D01*
X108120812Y-98004482D01*
X108133072Y-97880000D01*
X108130000Y-97440750D01*
X107971250Y-97282000D01*
X107122000Y-97282000D01*
X106868000Y-97282000D01*
X106848000Y-97282000D01*
X106848000Y-97028000D01*
X106868000Y-97028000D01*
X106868000Y-95953750D01*
X107122000Y-95953750D01*
X107122000Y-97028000D01*
X107971250Y-97028000D01*
X108130000Y-96869250D01*
X108133072Y-96430000D01*
X108120812Y-96305518D01*
X108084502Y-96185820D01*
X108025537Y-96075506D01*
X107946185Y-95978815D01*
X107849494Y-95899463D01*
X107739180Y-95840498D01*
X107619482Y-95804188D01*
X107495000Y-95791928D01*
X107280750Y-95795000D01*
X107122000Y-95953750D01*
X106868000Y-95953750D01*
X106800010Y-95885760D01*
X106800010Y-94977683D01*
X109110010Y-92667684D01*
X109110011Y-100663644D01*
G37*
%TD.AperFunction*%
D25*
X64897000Y-68453000D02*
X64917000Y-68453000D01*
X64917000Y-68707000D01*
X64897000Y-68707000D01*
X64897000Y-68727000D01*
X64643000Y-68727000D01*
X64643000Y-68707000D01*
X64623000Y-68707000D01*
X64623000Y-68453000D01*
X64643000Y-68453000D01*
X64643000Y-68433000D01*
X64897000Y-68433000D01*
X64897000Y-68453000D01*
%TA.AperFunction,Conductor*%
D26*
G36*
X64897000Y-68453000D02*
G01*
X64917000Y-68453000D01*
X64917000Y-68707000D01*
X64897000Y-68707000D01*
X64897000Y-68727000D01*
X64643000Y-68727000D01*
X64643000Y-68707000D01*
X64623000Y-68707000D01*
X64623000Y-68453000D01*
X64643000Y-68453000D01*
X64643000Y-68433000D01*
X64897000Y-68433000D01*
X64897000Y-68453000D01*
G37*
%TD.AperFunction*%
D25*
X78182013Y-38737665D02*
X78329338Y-38958153D01*
X78516847Y-39145662D01*
X78737335Y-39292987D01*
X78923260Y-39370000D01*
X78737335Y-39447013D01*
X78516847Y-39594338D01*
X78329338Y-39781847D01*
X78182013Y-40002335D01*
X78104031Y-40190600D01*
X78054542Y-40054720D01*
X77999183Y-39951152D01*
X77764273Y-39890332D01*
X77014605Y-40640000D01*
X77764273Y-41389668D01*
X77999183Y-41328848D01*
X78107206Y-41097066D01*
X78182013Y-41277665D01*
X78329338Y-41498153D01*
X78425037Y-41593852D01*
X78400063Y-41618826D01*
X78286795Y-41788344D01*
X78208774Y-41976702D01*
X78169000Y-42176661D01*
X78169000Y-42380539D01*
X78208774Y-42580498D01*
X78286795Y-42768856D01*
X78400063Y-42938374D01*
X78444000Y-42982311D01*
X78444001Y-48051668D01*
X78440324Y-48089000D01*
X78444001Y-48126333D01*
X78454998Y-48237986D01*
X78466091Y-48274555D01*
X78498454Y-48381246D01*
X78569026Y-48513276D01*
X78640201Y-48600002D01*
X78664000Y-48629001D01*
X78692998Y-48652799D01*
X80591830Y-50551631D01*
X80568800Y-50667411D01*
X80568800Y-50932589D01*
X80620533Y-51192672D01*
X80722013Y-51437665D01*
X80869338Y-51658153D01*
X81056847Y-51845662D01*
X81277335Y-51992987D01*
X81463260Y-52070000D01*
X81277335Y-52147013D01*
X81056847Y-52294338D01*
X80869338Y-52481847D01*
X80722013Y-52702335D01*
X80645000Y-52888260D01*
X80567987Y-52702335D01*
X80420662Y-52481847D01*
X80233153Y-52294338D01*
X80012665Y-52147013D01*
X79767672Y-52045533D01*
X79507589Y-51993800D01*
X79242411Y-51993800D01*
X78982328Y-52045533D01*
X78737335Y-52147013D01*
X78516847Y-52294338D01*
X78329338Y-52481847D01*
X78182013Y-52702335D01*
X78104031Y-52890600D01*
X78054542Y-52754720D01*
X77999183Y-52651152D01*
X77764273Y-52590332D01*
X77014605Y-53340000D01*
X77028748Y-53354143D01*
X76849143Y-53533748D01*
X76835000Y-53519605D01*
X76820858Y-53533748D01*
X76641253Y-53354143D01*
X76655395Y-53340000D01*
X76641253Y-53325858D01*
X76820858Y-53146253D01*
X76835000Y-53160395D01*
X77584668Y-52410727D01*
X77523848Y-52175817D01*
X77283491Y-52063798D01*
X77025898Y-52000824D01*
X76760970Y-51989313D01*
X76501900Y-52029245D01*
X76501900Y-45197365D01*
X76506181Y-45153899D01*
X76501900Y-45110433D01*
X76501900Y-45110423D01*
X76489095Y-44980410D01*
X76438489Y-44813587D01*
X76356311Y-44659841D01*
X76295802Y-44586111D01*
X76273432Y-44558853D01*
X76273430Y-44558851D01*
X76245717Y-44525083D01*
X76211949Y-44497370D01*
X73968600Y-42254022D01*
X73968600Y-41989272D01*
X75006200Y-41989272D01*
X75130682Y-41977012D01*
X75250380Y-41940702D01*
X75360694Y-41881737D01*
X75457385Y-41802385D01*
X75536737Y-41705694D01*
X75595702Y-41595380D01*
X75603621Y-41569273D01*
X76085332Y-41569273D01*
X76146152Y-41804183D01*
X76386509Y-41916202D01*
X76644102Y-41979176D01*
X76909030Y-41990687D01*
X77171113Y-41950291D01*
X77420280Y-41859542D01*
X77523848Y-41804183D01*
X77584668Y-41569273D01*
X76835000Y-40819605D01*
X76085332Y-41569273D01*
X75603621Y-41569273D01*
X75632012Y-41475682D01*
X75644272Y-41351200D01*
X75644272Y-41279186D01*
X75670817Y-41328848D01*
X75905727Y-41389668D01*
X76655395Y-40640000D01*
X75905727Y-39890332D01*
X75670817Y-39951152D01*
X75644272Y-40008109D01*
X75644272Y-39928800D01*
X75632012Y-39804318D01*
X75595702Y-39684620D01*
X75536737Y-39574306D01*
X75457385Y-39477615D01*
X75360694Y-39398263D01*
X75250380Y-39339298D01*
X75130682Y-39302988D01*
X75006200Y-39290728D01*
X74936046Y-39290728D01*
X75153153Y-39145662D01*
X75340662Y-38958153D01*
X75487987Y-38737665D01*
X75565000Y-38551740D01*
X75642013Y-38737665D01*
X75789338Y-38958153D01*
X75976847Y-39145662D01*
X76197335Y-39292987D01*
X76385600Y-39370969D01*
X76249720Y-39420458D01*
X76146152Y-39475817D01*
X76085332Y-39710727D01*
X76835000Y-40460395D01*
X77584668Y-39710727D01*
X77523848Y-39475817D01*
X77292066Y-39367794D01*
X77472665Y-39292987D01*
X77693153Y-39145662D01*
X77880662Y-38958153D01*
X78027987Y-38737665D01*
X78105000Y-38551740D01*
X78182013Y-38737665D01*
%TA.AperFunction,Conductor*%
D26*
G36*
X78182013Y-38737665D02*
G01*
X78329338Y-38958153D01*
X78516847Y-39145662D01*
X78737335Y-39292987D01*
X78923260Y-39370000D01*
X78737335Y-39447013D01*
X78516847Y-39594338D01*
X78329338Y-39781847D01*
X78182013Y-40002335D01*
X78104031Y-40190600D01*
X78054542Y-40054720D01*
X77999183Y-39951152D01*
X77764273Y-39890332D01*
X77014605Y-40640000D01*
X77764273Y-41389668D01*
X77999183Y-41328848D01*
X78107206Y-41097066D01*
X78182013Y-41277665D01*
X78329338Y-41498153D01*
X78425037Y-41593852D01*
X78400063Y-41618826D01*
X78286795Y-41788344D01*
X78208774Y-41976702D01*
X78169000Y-42176661D01*
X78169000Y-42380539D01*
X78208774Y-42580498D01*
X78286795Y-42768856D01*
X78400063Y-42938374D01*
X78444000Y-42982311D01*
X78444001Y-48051668D01*
X78440324Y-48089000D01*
X78444001Y-48126333D01*
X78454998Y-48237986D01*
X78466091Y-48274555D01*
X78498454Y-48381246D01*
X78569026Y-48513276D01*
X78640201Y-48600002D01*
X78664000Y-48629001D01*
X78692998Y-48652799D01*
X80591830Y-50551631D01*
X80568800Y-50667411D01*
X80568800Y-50932589D01*
X80620533Y-51192672D01*
X80722013Y-51437665D01*
X80869338Y-51658153D01*
X81056847Y-51845662D01*
X81277335Y-51992987D01*
X81463260Y-52070000D01*
X81277335Y-52147013D01*
X81056847Y-52294338D01*
X80869338Y-52481847D01*
X80722013Y-52702335D01*
X80645000Y-52888260D01*
X80567987Y-52702335D01*
X80420662Y-52481847D01*
X80233153Y-52294338D01*
X80012665Y-52147013D01*
X79767672Y-52045533D01*
X79507589Y-51993800D01*
X79242411Y-51993800D01*
X78982328Y-52045533D01*
X78737335Y-52147013D01*
X78516847Y-52294338D01*
X78329338Y-52481847D01*
X78182013Y-52702335D01*
X78104031Y-52890600D01*
X78054542Y-52754720D01*
X77999183Y-52651152D01*
X77764273Y-52590332D01*
X77014605Y-53340000D01*
X77028748Y-53354143D01*
X76849143Y-53533748D01*
X76835000Y-53519605D01*
X76820858Y-53533748D01*
X76641253Y-53354143D01*
X76655395Y-53340000D01*
X76641253Y-53325858D01*
X76820858Y-53146253D01*
X76835000Y-53160395D01*
X77584668Y-52410727D01*
X77523848Y-52175817D01*
X77283491Y-52063798D01*
X77025898Y-52000824D01*
X76760970Y-51989313D01*
X76501900Y-52029245D01*
X76501900Y-45197365D01*
X76506181Y-45153899D01*
X76501900Y-45110433D01*
X76501900Y-45110423D01*
X76489095Y-44980410D01*
X76438489Y-44813587D01*
X76356311Y-44659841D01*
X76295802Y-44586111D01*
X76273432Y-44558853D01*
X76273430Y-44558851D01*
X76245717Y-44525083D01*
X76211949Y-44497370D01*
X73968600Y-42254022D01*
X73968600Y-41989272D01*
X75006200Y-41989272D01*
X75130682Y-41977012D01*
X75250380Y-41940702D01*
X75360694Y-41881737D01*
X75457385Y-41802385D01*
X75536737Y-41705694D01*
X75595702Y-41595380D01*
X75603621Y-41569273D01*
X76085332Y-41569273D01*
X76146152Y-41804183D01*
X76386509Y-41916202D01*
X76644102Y-41979176D01*
X76909030Y-41990687D01*
X77171113Y-41950291D01*
X77420280Y-41859542D01*
X77523848Y-41804183D01*
X77584668Y-41569273D01*
X76835000Y-40819605D01*
X76085332Y-41569273D01*
X75603621Y-41569273D01*
X75632012Y-41475682D01*
X75644272Y-41351200D01*
X75644272Y-41279186D01*
X75670817Y-41328848D01*
X75905727Y-41389668D01*
X76655395Y-40640000D01*
X75905727Y-39890332D01*
X75670817Y-39951152D01*
X75644272Y-40008109D01*
X75644272Y-39928800D01*
X75632012Y-39804318D01*
X75595702Y-39684620D01*
X75536737Y-39574306D01*
X75457385Y-39477615D01*
X75360694Y-39398263D01*
X75250380Y-39339298D01*
X75130682Y-39302988D01*
X75006200Y-39290728D01*
X74936046Y-39290728D01*
X75153153Y-39145662D01*
X75340662Y-38958153D01*
X75487987Y-38737665D01*
X75565000Y-38551740D01*
X75642013Y-38737665D01*
X75789338Y-38958153D01*
X75976847Y-39145662D01*
X76197335Y-39292987D01*
X76385600Y-39370969D01*
X76249720Y-39420458D01*
X76146152Y-39475817D01*
X76085332Y-39710727D01*
X76835000Y-40460395D01*
X77584668Y-39710727D01*
X77523848Y-39475817D01*
X77292066Y-39367794D01*
X77472665Y-39292987D01*
X77693153Y-39145662D01*
X77880662Y-38958153D01*
X78027987Y-38737665D01*
X78105000Y-38551740D01*
X78182013Y-38737665D01*
G37*
%TD.AperFunction*%
D25*
X84648748Y-50785858D02*
X84634605Y-50800000D01*
X84648748Y-50814143D01*
X84469143Y-50993748D01*
X84455000Y-50979605D01*
X84440858Y-50993748D01*
X84261253Y-50814143D01*
X84275395Y-50800000D01*
X84261253Y-50785858D01*
X84440858Y-50606253D01*
X84455000Y-50620395D01*
X84469143Y-50606253D01*
X84648748Y-50785858D01*
%TA.AperFunction,Conductor*%
D26*
G36*
X84648748Y-50785858D02*
G01*
X84634605Y-50800000D01*
X84648748Y-50814143D01*
X84469143Y-50993748D01*
X84455000Y-50979605D01*
X84440858Y-50993748D01*
X84261253Y-50814143D01*
X84275395Y-50800000D01*
X84261253Y-50785858D01*
X84440858Y-50606253D01*
X84455000Y-50620395D01*
X84469143Y-50606253D01*
X84648748Y-50785858D01*
G37*
%TD.AperFunction*%
D25*
X68022013Y-43817665D02*
X68169338Y-44038153D01*
X68356847Y-44225662D01*
X68577335Y-44372987D01*
X68763260Y-44450000D01*
X68577335Y-44527013D01*
X68356847Y-44674338D01*
X68169338Y-44861847D01*
X68022013Y-45082335D01*
X67944031Y-45270600D01*
X67894542Y-45134720D01*
X67839183Y-45031152D01*
X67604273Y-44970332D01*
X66854605Y-45720000D01*
X67604273Y-46469668D01*
X67839183Y-46408848D01*
X67947206Y-46177066D01*
X68022013Y-46357665D01*
X68169338Y-46578153D01*
X68356847Y-46765662D01*
X68577335Y-46912987D01*
X68763260Y-46990000D01*
X68577335Y-47067013D01*
X68356847Y-47214338D01*
X68169338Y-47401847D01*
X68022013Y-47622335D01*
X67945000Y-47808260D01*
X67867987Y-47622335D01*
X67720662Y-47401847D01*
X67533153Y-47214338D01*
X67312665Y-47067013D01*
X67124400Y-46989031D01*
X67260280Y-46939542D01*
X67363848Y-46884183D01*
X67424668Y-46649273D01*
X66675000Y-45899605D01*
X66660858Y-45913748D01*
X66481253Y-45734143D01*
X66495395Y-45720000D01*
X66481253Y-45705858D01*
X66660858Y-45526253D01*
X66675000Y-45540395D01*
X67424668Y-44790727D01*
X67363848Y-44555817D01*
X67132066Y-44447794D01*
X67312665Y-44372987D01*
X67533153Y-44225662D01*
X67720662Y-44038153D01*
X67867987Y-43817665D01*
X67945000Y-43631740D01*
X68022013Y-43817665D01*
%TA.AperFunction,Conductor*%
D26*
G36*
X68022013Y-43817665D02*
G01*
X68169338Y-44038153D01*
X68356847Y-44225662D01*
X68577335Y-44372987D01*
X68763260Y-44450000D01*
X68577335Y-44527013D01*
X68356847Y-44674338D01*
X68169338Y-44861847D01*
X68022013Y-45082335D01*
X67944031Y-45270600D01*
X67894542Y-45134720D01*
X67839183Y-45031152D01*
X67604273Y-44970332D01*
X66854605Y-45720000D01*
X67604273Y-46469668D01*
X67839183Y-46408848D01*
X67947206Y-46177066D01*
X68022013Y-46357665D01*
X68169338Y-46578153D01*
X68356847Y-46765662D01*
X68577335Y-46912987D01*
X68763260Y-46990000D01*
X68577335Y-47067013D01*
X68356847Y-47214338D01*
X68169338Y-47401847D01*
X68022013Y-47622335D01*
X67945000Y-47808260D01*
X67867987Y-47622335D01*
X67720662Y-47401847D01*
X67533153Y-47214338D01*
X67312665Y-47067013D01*
X67124400Y-46989031D01*
X67260280Y-46939542D01*
X67363848Y-46884183D01*
X67424668Y-46649273D01*
X66675000Y-45899605D01*
X66660858Y-45913748D01*
X66481253Y-45734143D01*
X66495395Y-45720000D01*
X66481253Y-45705858D01*
X66660858Y-45526253D01*
X66675000Y-45540395D01*
X67424668Y-44790727D01*
X67363848Y-44555817D01*
X67132066Y-44447794D01*
X67312665Y-44372987D01*
X67533153Y-44225662D01*
X67720662Y-44038153D01*
X67867987Y-43817665D01*
X67945000Y-43631740D01*
X68022013Y-43817665D01*
G37*
%TD.AperFunction*%
D25*
X78552000Y-33528000D02*
X78572000Y-33528000D01*
X78572000Y-33782000D01*
X78552000Y-33782000D01*
X78552000Y-34856250D01*
X78710750Y-35015000D01*
X78925000Y-35018072D01*
X79049482Y-35005812D01*
X79169180Y-34969502D01*
X79279494Y-34910537D01*
X79376185Y-34831185D01*
X79441658Y-34751406D01*
X79447038Y-34757962D01*
X79581614Y-34868405D01*
X79735150Y-34950472D01*
X79760001Y-34958010D01*
X79760001Y-36804007D01*
X79507589Y-36753800D01*
X79242411Y-36753800D01*
X78982328Y-36805533D01*
X78737335Y-36907013D01*
X78516847Y-37054338D01*
X78329338Y-37241847D01*
X78182013Y-37462335D01*
X78105000Y-37648260D01*
X78027987Y-37462335D01*
X77880662Y-37241847D01*
X77693153Y-37054338D01*
X77472665Y-36907013D01*
X77227672Y-36805533D01*
X76967589Y-36753800D01*
X76702411Y-36753800D01*
X76442328Y-36805533D01*
X76197335Y-36907013D01*
X75976847Y-37054338D01*
X75789338Y-37241847D01*
X75642013Y-37462335D01*
X75565000Y-37648260D01*
X75487987Y-37462335D01*
X75340662Y-37241847D01*
X75153153Y-37054338D01*
X74932665Y-36907013D01*
X74806164Y-36854614D01*
X77286971Y-34373808D01*
X77286928Y-34380000D01*
X77299188Y-34504482D01*
X77335498Y-34624180D01*
X77394463Y-34734494D01*
X77473815Y-34831185D01*
X77570506Y-34910537D01*
X77680820Y-34969502D01*
X77800518Y-35005812D01*
X77925000Y-35018072D01*
X78139250Y-35015000D01*
X78298000Y-34856250D01*
X78298000Y-33782000D01*
X78278000Y-33782000D01*
X78278000Y-33528000D01*
X78298000Y-33528000D01*
X78298000Y-33508000D01*
X78552000Y-33508000D01*
X78552000Y-33528000D01*
%TA.AperFunction,Conductor*%
D26*
G36*
X78552000Y-33528000D02*
G01*
X78572000Y-33528000D01*
X78572000Y-33782000D01*
X78552000Y-33782000D01*
X78552000Y-34856250D01*
X78710750Y-35015000D01*
X78925000Y-35018072D01*
X79049482Y-35005812D01*
X79169180Y-34969502D01*
X79279494Y-34910537D01*
X79376185Y-34831185D01*
X79441658Y-34751406D01*
X79447038Y-34757962D01*
X79581614Y-34868405D01*
X79735150Y-34950472D01*
X79760001Y-34958010D01*
X79760001Y-36804007D01*
X79507589Y-36753800D01*
X79242411Y-36753800D01*
X78982328Y-36805533D01*
X78737335Y-36907013D01*
X78516847Y-37054338D01*
X78329338Y-37241847D01*
X78182013Y-37462335D01*
X78105000Y-37648260D01*
X78027987Y-37462335D01*
X77880662Y-37241847D01*
X77693153Y-37054338D01*
X77472665Y-36907013D01*
X77227672Y-36805533D01*
X76967589Y-36753800D01*
X76702411Y-36753800D01*
X76442328Y-36805533D01*
X76197335Y-36907013D01*
X75976847Y-37054338D01*
X75789338Y-37241847D01*
X75642013Y-37462335D01*
X75565000Y-37648260D01*
X75487987Y-37462335D01*
X75340662Y-37241847D01*
X75153153Y-37054338D01*
X74932665Y-36907013D01*
X74806164Y-36854614D01*
X77286971Y-34373808D01*
X77286928Y-34380000D01*
X77299188Y-34504482D01*
X77335498Y-34624180D01*
X77394463Y-34734494D01*
X77473815Y-34831185D01*
X77570506Y-34910537D01*
X77680820Y-34969502D01*
X77800518Y-35005812D01*
X77925000Y-35018072D01*
X78139250Y-35015000D01*
X78298000Y-34856250D01*
X78298000Y-33782000D01*
X78278000Y-33782000D01*
X78278000Y-33528000D01*
X78298000Y-33528000D01*
X78298000Y-33508000D01*
X78552000Y-33508000D01*
X78552000Y-33528000D01*
G37*
%TD.AperFunction*%
D25*
X106757013Y-29847665D02*
X106904338Y-30068153D01*
X107091847Y-30255662D01*
X107312335Y-30402987D01*
X107557328Y-30504467D01*
X107817411Y-30556200D01*
X108082589Y-30556200D01*
X108227600Y-30527356D01*
X108227601Y-32821788D01*
X108183663Y-32865726D01*
X108070395Y-33035244D01*
X107992374Y-33223602D01*
X107952600Y-33423561D01*
X107952600Y-33627439D01*
X107973525Y-33732639D01*
X107953815Y-33748815D01*
X107874463Y-33845506D01*
X107815498Y-33955820D01*
X107779188Y-34075518D01*
X107766928Y-34200000D01*
X107770000Y-34639250D01*
X107928750Y-34798000D01*
X108778000Y-34798000D01*
X108778000Y-34778000D01*
X109032000Y-34778000D01*
X109032000Y-34798000D01*
X109052000Y-34798000D01*
X109052000Y-35052000D01*
X109032000Y-35052000D01*
X109032000Y-35072000D01*
X108778000Y-35072000D01*
X108778000Y-35052000D01*
X107928750Y-35052000D01*
X107770000Y-35210750D01*
X107766928Y-35650000D01*
X107779188Y-35774482D01*
X107815498Y-35894180D01*
X107874463Y-36004494D01*
X107953815Y-36101185D01*
X108050506Y-36180537D01*
X108160820Y-36239502D01*
X108280518Y-36275812D01*
X108405000Y-36288072D01*
X108619250Y-36285000D01*
X108777998Y-36126252D01*
X108777998Y-36285000D01*
X108799498Y-36285000D01*
X107480000Y-37604499D01*
X107480000Y-37323665D01*
X107424853Y-37046426D01*
X107316680Y-36785273D01*
X107159637Y-36550241D01*
X106959759Y-36350363D01*
X106724727Y-36193320D01*
X106714135Y-36188933D01*
X106900131Y-36077385D01*
X107108519Y-35888414D01*
X107276037Y-35662420D01*
X107396246Y-35408087D01*
X107436904Y-35274039D01*
X107314915Y-35052000D01*
X106172000Y-35052000D01*
X106172000Y-35072000D01*
X105918000Y-35072000D01*
X105918000Y-35052000D01*
X105898000Y-35052000D01*
X105898000Y-34798000D01*
X105918000Y-34798000D01*
X105918000Y-33654376D01*
X106172000Y-33654376D01*
X106172000Y-34798000D01*
X107314915Y-34798000D01*
X107436904Y-34575961D01*
X107396246Y-34441913D01*
X107276037Y-34187580D01*
X107108519Y-33961586D01*
X106900131Y-33772615D01*
X106658881Y-33627930D01*
X106394040Y-33533091D01*
X106172000Y-33654376D01*
X105918000Y-33654376D01*
X105695960Y-33533091D01*
X105627200Y-33557714D01*
X105627200Y-30539370D01*
X105802672Y-30504467D01*
X106047665Y-30402987D01*
X106268153Y-30255662D01*
X106455662Y-30068153D01*
X106602987Y-29847665D01*
X106680000Y-29661740D01*
X106757013Y-29847665D01*
%TA.AperFunction,Conductor*%
D26*
G36*
X106757013Y-29847665D02*
G01*
X106904338Y-30068153D01*
X107091847Y-30255662D01*
X107312335Y-30402987D01*
X107557328Y-30504467D01*
X107817411Y-30556200D01*
X108082589Y-30556200D01*
X108227600Y-30527356D01*
X108227601Y-32821788D01*
X108183663Y-32865726D01*
X108070395Y-33035244D01*
X107992374Y-33223602D01*
X107952600Y-33423561D01*
X107952600Y-33627439D01*
X107973525Y-33732639D01*
X107953815Y-33748815D01*
X107874463Y-33845506D01*
X107815498Y-33955820D01*
X107779188Y-34075518D01*
X107766928Y-34200000D01*
X107770000Y-34639250D01*
X107928750Y-34798000D01*
X108778000Y-34798000D01*
X108778000Y-34778000D01*
X109032000Y-34778000D01*
X109032000Y-34798000D01*
X109052000Y-34798000D01*
X109052000Y-35052000D01*
X109032000Y-35052000D01*
X109032000Y-35072000D01*
X108778000Y-35072000D01*
X108778000Y-35052000D01*
X107928750Y-35052000D01*
X107770000Y-35210750D01*
X107766928Y-35650000D01*
X107779188Y-35774482D01*
X107815498Y-35894180D01*
X107874463Y-36004494D01*
X107953815Y-36101185D01*
X108050506Y-36180537D01*
X108160820Y-36239502D01*
X108280518Y-36275812D01*
X108405000Y-36288072D01*
X108619250Y-36285000D01*
X108777998Y-36126252D01*
X108777998Y-36285000D01*
X108799498Y-36285000D01*
X107480000Y-37604499D01*
X107480000Y-37323665D01*
X107424853Y-37046426D01*
X107316680Y-36785273D01*
X107159637Y-36550241D01*
X106959759Y-36350363D01*
X106724727Y-36193320D01*
X106714135Y-36188933D01*
X106900131Y-36077385D01*
X107108519Y-35888414D01*
X107276037Y-35662420D01*
X107396246Y-35408087D01*
X107436904Y-35274039D01*
X107314915Y-35052000D01*
X106172000Y-35052000D01*
X106172000Y-35072000D01*
X105918000Y-35072000D01*
X105918000Y-35052000D01*
X105898000Y-35052000D01*
X105898000Y-34798000D01*
X105918000Y-34798000D01*
X105918000Y-33654376D01*
X106172000Y-33654376D01*
X106172000Y-34798000D01*
X107314915Y-34798000D01*
X107436904Y-34575961D01*
X107396246Y-34441913D01*
X107276037Y-34187580D01*
X107108519Y-33961586D01*
X106900131Y-33772615D01*
X106658881Y-33627930D01*
X106394040Y-33533091D01*
X106172000Y-33654376D01*
X105918000Y-33654376D01*
X105695960Y-33533091D01*
X105627200Y-33557714D01*
X105627200Y-30539370D01*
X105802672Y-30504467D01*
X106047665Y-30402987D01*
X106268153Y-30255662D01*
X106455662Y-30068153D01*
X106602987Y-29847665D01*
X106680000Y-29661740D01*
X106757013Y-29847665D01*
G37*
%TD.AperFunction*%
D25*
X116665000Y-18166298D02*
X110844804Y-12346103D01*
X110821001Y-12317099D01*
X110705276Y-12222126D01*
X110573247Y-12151554D01*
X110429986Y-12108097D01*
X110318333Y-12097100D01*
X110318322Y-12097100D01*
X110281000Y-12093424D01*
X110243678Y-12097100D01*
X105038022Y-12097100D01*
X105000699Y-12093424D01*
X104963376Y-12097100D01*
X104963367Y-12097100D01*
X104851714Y-12108097D01*
X104708453Y-12151554D01*
X104576424Y-12222126D01*
X104460699Y-12317099D01*
X104436900Y-12346098D01*
X104373600Y-12409398D01*
X103546004Y-11581803D01*
X103522201Y-11552799D01*
X103406476Y-11457826D01*
X103274447Y-11387254D01*
X103131186Y-11343797D01*
X103019533Y-11332800D01*
X103019522Y-11332800D01*
X102982200Y-11329124D01*
X102944878Y-11332800D01*
X92855022Y-11332800D01*
X92817699Y-11329124D01*
X92780376Y-11332800D01*
X92780367Y-11332800D01*
X92668714Y-11343797D01*
X92525453Y-11387254D01*
X92393424Y-11457826D01*
X92277699Y-11552799D01*
X92253901Y-11581797D01*
X91756100Y-12079598D01*
X91756100Y-11492711D01*
X91800037Y-11448774D01*
X91913305Y-11279256D01*
X91991326Y-11090898D01*
X92031100Y-10890939D01*
X92031100Y-10687061D01*
X91991326Y-10487102D01*
X91913305Y-10298744D01*
X91800037Y-10129226D01*
X91655874Y-9985063D01*
X91486356Y-9871795D01*
X91297998Y-9793774D01*
X91098039Y-9754000D01*
X90894161Y-9754000D01*
X90694202Y-9793774D01*
X90505844Y-9871795D01*
X90336326Y-9985063D01*
X90192163Y-10129226D01*
X90078895Y-10298744D01*
X90000874Y-10487102D01*
X89961100Y-10687061D01*
X89961100Y-10890939D01*
X90000874Y-11090898D01*
X90078895Y-11279256D01*
X90192163Y-11448774D01*
X90236101Y-11492712D01*
X90236100Y-14671069D01*
X90152795Y-14795744D01*
X90074774Y-14984102D01*
X90035000Y-15184061D01*
X90035000Y-15387939D01*
X90074774Y-15587898D01*
X90152795Y-15776256D01*
X90266063Y-15945774D01*
X90410226Y-16089937D01*
X90579744Y-16203205D01*
X90768102Y-16281226D01*
X90968061Y-16321000D01*
X91171939Y-16321000D01*
X91371898Y-16281226D01*
X91560256Y-16203205D01*
X91729774Y-16089937D01*
X91873937Y-15945774D01*
X91981928Y-15784154D01*
X91981928Y-15805000D01*
X91998992Y-15978254D01*
X92049528Y-16144850D01*
X92131595Y-16298386D01*
X92242038Y-16432962D01*
X92376614Y-16543405D01*
X92530150Y-16625472D01*
X92696746Y-16676008D01*
X92870000Y-16693072D01*
X93231494Y-16693072D01*
X93956500Y-17418079D01*
X93956501Y-31618021D01*
X93952219Y-31661500D01*
X93969305Y-31834990D01*
X94019912Y-32001813D01*
X94102090Y-32155559D01*
X94184968Y-32256546D01*
X94184971Y-32256549D01*
X94212684Y-32290317D01*
X94246451Y-32318029D01*
X95520742Y-33592321D01*
X95460820Y-33610498D01*
X95350506Y-33669463D01*
X95253815Y-33748815D01*
X95174463Y-33845506D01*
X95115498Y-33955820D01*
X95079188Y-34075518D01*
X95066928Y-34200000D01*
X95070000Y-34639250D01*
X95228750Y-34798000D01*
X96078000Y-34798000D01*
X96078000Y-34778000D01*
X96332000Y-34778000D01*
X96332000Y-34798000D01*
X96352000Y-34798000D01*
X96352000Y-35052000D01*
X96332000Y-35052000D01*
X96332000Y-35072000D01*
X96078000Y-35072000D01*
X96078000Y-35052000D01*
X95228750Y-35052000D01*
X95070000Y-35210750D01*
X95068187Y-35469942D01*
X94970726Y-35535063D01*
X94826563Y-35679226D01*
X94713295Y-35848744D01*
X94635274Y-36037102D01*
X94595500Y-36237061D01*
X94595500Y-36440939D01*
X94635274Y-36640898D01*
X94713295Y-36829256D01*
X94826563Y-36998774D01*
X94870501Y-37042712D01*
X94870501Y-37229798D01*
X94779441Y-37320857D01*
X94724853Y-37046426D01*
X94616680Y-36785273D01*
X94459637Y-36550241D01*
X94259759Y-36350363D01*
X94024727Y-36193320D01*
X94014135Y-36188933D01*
X94200131Y-36077385D01*
X94408519Y-35888414D01*
X94576037Y-35662420D01*
X94696246Y-35408087D01*
X94736904Y-35274039D01*
X94614915Y-35052000D01*
X93472000Y-35052000D01*
X93472000Y-35072000D01*
X93218000Y-35072000D01*
X93218000Y-35052000D01*
X93198000Y-35052000D01*
X93198000Y-34798000D01*
X93218000Y-34798000D01*
X93218000Y-33654376D01*
X93472000Y-33654376D01*
X93472000Y-34798000D01*
X94614915Y-34798000D01*
X94736904Y-34575961D01*
X94696246Y-34441913D01*
X94576037Y-34187580D01*
X94408519Y-33961586D01*
X94200131Y-33772615D01*
X93958881Y-33627930D01*
X93694040Y-33533091D01*
X93472000Y-33654376D01*
X93218000Y-33654376D01*
X92995960Y-33533091D01*
X92864900Y-33580023D01*
X92864900Y-21338825D01*
X92868576Y-21301500D01*
X92864900Y-21264175D01*
X92864900Y-21264167D01*
X92853903Y-21152514D01*
X92810446Y-21009253D01*
X92739874Y-20877224D01*
X92644901Y-20761499D01*
X92615904Y-20737702D01*
X85337204Y-13459003D01*
X85313401Y-13429999D01*
X85197676Y-13335026D01*
X85065647Y-13264454D01*
X84922386Y-13220997D01*
X84810733Y-13210000D01*
X84810722Y-13210000D01*
X84773400Y-13206324D01*
X84736078Y-13210000D01*
X83661246Y-13210000D01*
X83595662Y-13111847D01*
X83408153Y-12924338D01*
X83187665Y-12777013D01*
X82942672Y-12675533D01*
X82682589Y-12623800D01*
X82417411Y-12623800D01*
X82157328Y-12675533D01*
X81912335Y-12777013D01*
X81691847Y-12924338D01*
X81504338Y-13111847D01*
X81357013Y-13332335D01*
X81280000Y-13518260D01*
X81202987Y-13332335D01*
X81055662Y-13111847D01*
X80868153Y-12924338D01*
X80647665Y-12777013D01*
X80402672Y-12675533D01*
X80142589Y-12623800D01*
X79877411Y-12623800D01*
X79617328Y-12675533D01*
X79372335Y-12777013D01*
X79151847Y-12924338D01*
X78964338Y-13111847D01*
X78817013Y-13332335D01*
X78739031Y-13520600D01*
X78689542Y-13384720D01*
X78634183Y-13281152D01*
X78399273Y-13220332D01*
X77649605Y-13970000D01*
X78399273Y-14719668D01*
X78634183Y-14658848D01*
X78742206Y-14427066D01*
X78817013Y-14607665D01*
X78964338Y-14828153D01*
X79151847Y-15015662D01*
X79372335Y-15162987D01*
X79558260Y-15240000D01*
X79372335Y-15317013D01*
X79151847Y-15464338D01*
X78964338Y-15651847D01*
X78845574Y-15829591D01*
X78819272Y-15815532D01*
X78819272Y-15798800D01*
X78807012Y-15674318D01*
X78770702Y-15554620D01*
X78711737Y-15444306D01*
X78632385Y-15347615D01*
X78535694Y-15268263D01*
X78425380Y-15209298D01*
X78305682Y-15172988D01*
X78181200Y-15160728D01*
X78109186Y-15160728D01*
X78158848Y-15134183D01*
X78219668Y-14899273D01*
X77470000Y-14149605D01*
X76720332Y-14899273D01*
X76781152Y-15134183D01*
X76838109Y-15160728D01*
X76758800Y-15160728D01*
X76634318Y-15172988D01*
X76514620Y-15209298D01*
X76404306Y-15268263D01*
X76307615Y-15347615D01*
X76228263Y-15444306D01*
X76169298Y-15554620D01*
X76132988Y-15674318D01*
X76120728Y-15798800D01*
X76120728Y-15868954D01*
X75975662Y-15651847D01*
X75788153Y-15464338D01*
X75567665Y-15317013D01*
X75381740Y-15240000D01*
X75567665Y-15162987D01*
X75788153Y-15015662D01*
X75975662Y-14828153D01*
X76122987Y-14607665D01*
X76200969Y-14419400D01*
X76250458Y-14555280D01*
X76305817Y-14658848D01*
X76540727Y-14719668D01*
X77290395Y-13970000D01*
X76540727Y-13220332D01*
X76305817Y-13281152D01*
X76197794Y-13512934D01*
X76122987Y-13332335D01*
X75975662Y-13111847D01*
X75904542Y-13040727D01*
X76720332Y-13040727D01*
X77470000Y-13790395D01*
X78219668Y-13040727D01*
X78158848Y-12805817D01*
X77918491Y-12693798D01*
X77660898Y-12630824D01*
X77395970Y-12619313D01*
X77133887Y-12659709D01*
X76884720Y-12750458D01*
X76781152Y-12805817D01*
X76720332Y-13040727D01*
X75904542Y-13040727D01*
X75788153Y-12924338D01*
X75567665Y-12777013D01*
X75322672Y-12675533D01*
X75062589Y-12623800D01*
X74797411Y-12623800D01*
X74537328Y-12675533D01*
X74292335Y-12777013D01*
X74071847Y-12924338D01*
X73884338Y-13111847D01*
X73737013Y-13332335D01*
X73635533Y-13577328D01*
X73583800Y-13837411D01*
X73583800Y-14102589D01*
X73635533Y-14362672D01*
X73737013Y-14607665D01*
X73884338Y-14828153D01*
X74071847Y-15015662D01*
X74292335Y-15162987D01*
X74478260Y-15240000D01*
X74292335Y-15317013D01*
X74071847Y-15464338D01*
X73884338Y-15651847D01*
X73737013Y-15872335D01*
X73660000Y-16058260D01*
X73582987Y-15872335D01*
X73435662Y-15651847D01*
X73248153Y-15464338D01*
X73027665Y-15317013D01*
X72782672Y-15215533D01*
X72522589Y-15163800D01*
X72257411Y-15163800D01*
X71997328Y-15215533D01*
X71752335Y-15317013D01*
X71531847Y-15464338D01*
X71344338Y-15651847D01*
X71197013Y-15872335D01*
X71095533Y-16117328D01*
X71043800Y-16377411D01*
X71043800Y-16642589D01*
X71095533Y-16902672D01*
X71197013Y-17147665D01*
X71344338Y-17368153D01*
X71416542Y-17440357D01*
X69922198Y-18934701D01*
X69893200Y-18958499D01*
X69869402Y-18987497D01*
X69869401Y-18987498D01*
X69798226Y-19074224D01*
X69727654Y-19206254D01*
X69684198Y-19349515D01*
X69669524Y-19498500D01*
X69673201Y-19535832D01*
X69673200Y-26718398D01*
X66718919Y-29672679D01*
X66787852Y-29543715D01*
X66881343Y-29235516D01*
X66912911Y-28915000D01*
X66881343Y-28594484D01*
X66787852Y-28286285D01*
X66636031Y-28002248D01*
X66557471Y-27906522D01*
X66609502Y-27809180D01*
X66645812Y-27689482D01*
X66650544Y-27641435D01*
X66693590Y-27637195D01*
X66860413Y-27586589D01*
X67014159Y-27504411D01*
X67148917Y-27393817D01*
X67176634Y-27360044D01*
X68540050Y-25996629D01*
X68573817Y-25968917D01*
X68605694Y-25930076D01*
X68684411Y-25834159D01*
X68684412Y-25834158D01*
X68766589Y-25680413D01*
X68817195Y-25513590D01*
X68830000Y-25383577D01*
X68830000Y-25383569D01*
X68834281Y-25340100D01*
X68830000Y-25296631D01*
X68830000Y-16587976D01*
X68913386Y-16543405D01*
X69047962Y-16432962D01*
X69158405Y-16298386D01*
X69240472Y-16144850D01*
X69291008Y-15978254D01*
X69308072Y-15805000D01*
X69308072Y-15305000D01*
X69291008Y-15131746D01*
X69240472Y-14965150D01*
X69158405Y-14811614D01*
X69047962Y-14677038D01*
X69041406Y-14671658D01*
X69121185Y-14606185D01*
X69200537Y-14509494D01*
X69259502Y-14399180D01*
X69295812Y-14279482D01*
X69308072Y-14155000D01*
X69305000Y-13940750D01*
X69146250Y-13782000D01*
X68072000Y-13782000D01*
X68072000Y-13802000D01*
X67818000Y-13802000D01*
X67818000Y-13782000D01*
X66743750Y-13782000D01*
X66585000Y-13940750D01*
X66581928Y-14155000D01*
X66594188Y-14279482D01*
X66630498Y-14399180D01*
X66689463Y-14509494D01*
X66768815Y-14606185D01*
X66848594Y-14671658D01*
X66842038Y-14677038D01*
X66731595Y-14811614D01*
X66649528Y-14965150D01*
X66598992Y-15131746D01*
X66581928Y-15305000D01*
X66581928Y-15805000D01*
X66598992Y-15978254D01*
X66649528Y-16144850D01*
X66731595Y-16298386D01*
X66842038Y-16432962D01*
X66976614Y-16543405D01*
X67060001Y-16587976D01*
X67060001Y-17447699D01*
X66198072Y-16585771D01*
X66198072Y-16059998D01*
X66181008Y-15886744D01*
X66130472Y-15720148D01*
X66048405Y-15566613D01*
X65937962Y-15432038D01*
X65803387Y-15321595D01*
X65649852Y-15239528D01*
X65483256Y-15188992D01*
X65310002Y-15171928D01*
X64784998Y-15171928D01*
X64611744Y-15188992D01*
X64445148Y-15239528D01*
X64291613Y-15321595D01*
X64210363Y-15388276D01*
X64186185Y-15358815D01*
X64089494Y-15279463D01*
X63979180Y-15220498D01*
X63859482Y-15184188D01*
X63735000Y-15171928D01*
X63508250Y-15175000D01*
X63349500Y-15333750D01*
X63349500Y-16383000D01*
X63369500Y-16383000D01*
X63369500Y-16637000D01*
X63349500Y-16637000D01*
X63349500Y-17686250D01*
X63508250Y-17845000D01*
X63735000Y-17848072D01*
X63859482Y-17835812D01*
X63979180Y-17799502D01*
X64089494Y-17740537D01*
X64186185Y-17661185D01*
X64210363Y-17631724D01*
X64291613Y-17698405D01*
X64445148Y-17780472D01*
X64611744Y-17831008D01*
X64784998Y-17848072D01*
X65310002Y-17848072D01*
X65310702Y-17848003D01*
X65836800Y-18374102D01*
X65836800Y-19078366D01*
X65590516Y-19003657D01*
X65350322Y-18980000D01*
X64189678Y-18980000D01*
X63949484Y-19003657D01*
X63641285Y-19097148D01*
X63357248Y-19248969D01*
X63108286Y-19453286D01*
X62903969Y-19702248D01*
X62752148Y-19986285D01*
X62658657Y-20294484D01*
X62627089Y-20615000D01*
X62658657Y-20935516D01*
X62752148Y-21243715D01*
X62903969Y-21527752D01*
X63108286Y-21776714D01*
X63207718Y-21858315D01*
X63121068Y-21963899D01*
X62987818Y-22213192D01*
X62905764Y-22483691D01*
X62878057Y-22765000D01*
X62905764Y-23046309D01*
X62987818Y-23316808D01*
X63121068Y-23566101D01*
X63284300Y-23765000D01*
X63121068Y-23963899D01*
X62987818Y-24213192D01*
X62905764Y-24483691D01*
X62878057Y-24765000D01*
X62905764Y-25046309D01*
X62987818Y-25316808D01*
X63085710Y-25499950D01*
X63068815Y-25513815D01*
X62989463Y-25610506D01*
X62930498Y-25720820D01*
X62894188Y-25840518D01*
X62881928Y-25965000D01*
X62881928Y-27565000D01*
X62894188Y-27689482D01*
X62930498Y-27809180D01*
X62982529Y-27906522D01*
X62903969Y-28002248D01*
X62752148Y-28286285D01*
X62658657Y-28594484D01*
X62627089Y-28915000D01*
X62658657Y-29235516D01*
X62752148Y-29543715D01*
X62903969Y-29827752D01*
X63108286Y-30076714D01*
X63357248Y-30281031D01*
X63641285Y-30432852D01*
X63949484Y-30526343D01*
X64189678Y-30550000D01*
X65350322Y-30550000D01*
X65590516Y-30526343D01*
X65898715Y-30432852D01*
X66027679Y-30363919D01*
X62535000Y-33856599D01*
X62535000Y-17820488D01*
X62585518Y-17835812D01*
X62710000Y-17848072D01*
X62936750Y-17845000D01*
X63095500Y-17686250D01*
X63095500Y-16637000D01*
X63075500Y-16637000D01*
X63075500Y-16383000D01*
X63095500Y-16383000D01*
X63095500Y-15333750D01*
X62936750Y-15175000D01*
X62710000Y-15171928D01*
X62585518Y-15184188D01*
X62535000Y-15199512D01*
X62535000Y-13155000D01*
X66581928Y-13155000D01*
X66585000Y-13369250D01*
X66743750Y-13528000D01*
X67818000Y-13528000D01*
X67818000Y-12678750D01*
X68072000Y-12678750D01*
X68072000Y-13528000D01*
X69146250Y-13528000D01*
X69305000Y-13369250D01*
X69308072Y-13155000D01*
X69295812Y-13030518D01*
X69259502Y-12910820D01*
X69200537Y-12800506D01*
X69121185Y-12703815D01*
X69024494Y-12624463D01*
X68914180Y-12565498D01*
X68794482Y-12529188D01*
X68670000Y-12516928D01*
X68230750Y-12520000D01*
X68072000Y-12678750D01*
X67818000Y-12678750D01*
X67659250Y-12520000D01*
X67220000Y-12516928D01*
X67095518Y-12529188D01*
X66975820Y-12565498D01*
X66865506Y-12624463D01*
X66768815Y-12703815D01*
X66689463Y-12800506D01*
X66630498Y-12910820D01*
X66594188Y-13030518D01*
X66581928Y-13155000D01*
X62535000Y-13155000D01*
X62535000Y-9685000D01*
X116665000Y-9685000D01*
X116665000Y-18166298D01*
%TA.AperFunction,Conductor*%
D26*
G36*
X116665000Y-18166298D02*
G01*
X110844804Y-12346103D01*
X110821001Y-12317099D01*
X110705276Y-12222126D01*
X110573247Y-12151554D01*
X110429986Y-12108097D01*
X110318333Y-12097100D01*
X110318322Y-12097100D01*
X110281000Y-12093424D01*
X110243678Y-12097100D01*
X105038022Y-12097100D01*
X105000699Y-12093424D01*
X104963376Y-12097100D01*
X104963367Y-12097100D01*
X104851714Y-12108097D01*
X104708453Y-12151554D01*
X104576424Y-12222126D01*
X104460699Y-12317099D01*
X104436900Y-12346098D01*
X104373600Y-12409398D01*
X103546004Y-11581803D01*
X103522201Y-11552799D01*
X103406476Y-11457826D01*
X103274447Y-11387254D01*
X103131186Y-11343797D01*
X103019533Y-11332800D01*
X103019522Y-11332800D01*
X102982200Y-11329124D01*
X102944878Y-11332800D01*
X92855022Y-11332800D01*
X92817699Y-11329124D01*
X92780376Y-11332800D01*
X92780367Y-11332800D01*
X92668714Y-11343797D01*
X92525453Y-11387254D01*
X92393424Y-11457826D01*
X92277699Y-11552799D01*
X92253901Y-11581797D01*
X91756100Y-12079598D01*
X91756100Y-11492711D01*
X91800037Y-11448774D01*
X91913305Y-11279256D01*
X91991326Y-11090898D01*
X92031100Y-10890939D01*
X92031100Y-10687061D01*
X91991326Y-10487102D01*
X91913305Y-10298744D01*
X91800037Y-10129226D01*
X91655874Y-9985063D01*
X91486356Y-9871795D01*
X91297998Y-9793774D01*
X91098039Y-9754000D01*
X90894161Y-9754000D01*
X90694202Y-9793774D01*
X90505844Y-9871795D01*
X90336326Y-9985063D01*
X90192163Y-10129226D01*
X90078895Y-10298744D01*
X90000874Y-10487102D01*
X89961100Y-10687061D01*
X89961100Y-10890939D01*
X90000874Y-11090898D01*
X90078895Y-11279256D01*
X90192163Y-11448774D01*
X90236101Y-11492712D01*
X90236100Y-14671069D01*
X90152795Y-14795744D01*
X90074774Y-14984102D01*
X90035000Y-15184061D01*
X90035000Y-15387939D01*
X90074774Y-15587898D01*
X90152795Y-15776256D01*
X90266063Y-15945774D01*
X90410226Y-16089937D01*
X90579744Y-16203205D01*
X90768102Y-16281226D01*
X90968061Y-16321000D01*
X91171939Y-16321000D01*
X91371898Y-16281226D01*
X91560256Y-16203205D01*
X91729774Y-16089937D01*
X91873937Y-15945774D01*
X91981928Y-15784154D01*
X91981928Y-15805000D01*
X91998992Y-15978254D01*
X92049528Y-16144850D01*
X92131595Y-16298386D01*
X92242038Y-16432962D01*
X92376614Y-16543405D01*
X92530150Y-16625472D01*
X92696746Y-16676008D01*
X92870000Y-16693072D01*
X93231494Y-16693072D01*
X93956500Y-17418079D01*
X93956501Y-31618021D01*
X93952219Y-31661500D01*
X93969305Y-31834990D01*
X94019912Y-32001813D01*
X94102090Y-32155559D01*
X94184968Y-32256546D01*
X94184971Y-32256549D01*
X94212684Y-32290317D01*
X94246451Y-32318029D01*
X95520742Y-33592321D01*
X95460820Y-33610498D01*
X95350506Y-33669463D01*
X95253815Y-33748815D01*
X95174463Y-33845506D01*
X95115498Y-33955820D01*
X95079188Y-34075518D01*
X95066928Y-34200000D01*
X95070000Y-34639250D01*
X95228750Y-34798000D01*
X96078000Y-34798000D01*
X96078000Y-34778000D01*
X96332000Y-34778000D01*
X96332000Y-34798000D01*
X96352000Y-34798000D01*
X96352000Y-35052000D01*
X96332000Y-35052000D01*
X96332000Y-35072000D01*
X96078000Y-35072000D01*
X96078000Y-35052000D01*
X95228750Y-35052000D01*
X95070000Y-35210750D01*
X95068187Y-35469942D01*
X94970726Y-35535063D01*
X94826563Y-35679226D01*
X94713295Y-35848744D01*
X94635274Y-36037102D01*
X94595500Y-36237061D01*
X94595500Y-36440939D01*
X94635274Y-36640898D01*
X94713295Y-36829256D01*
X94826563Y-36998774D01*
X94870501Y-37042712D01*
X94870501Y-37229798D01*
X94779441Y-37320857D01*
X94724853Y-37046426D01*
X94616680Y-36785273D01*
X94459637Y-36550241D01*
X94259759Y-36350363D01*
X94024727Y-36193320D01*
X94014135Y-36188933D01*
X94200131Y-36077385D01*
X94408519Y-35888414D01*
X94576037Y-35662420D01*
X94696246Y-35408087D01*
X94736904Y-35274039D01*
X94614915Y-35052000D01*
X93472000Y-35052000D01*
X93472000Y-35072000D01*
X93218000Y-35072000D01*
X93218000Y-35052000D01*
X93198000Y-35052000D01*
X93198000Y-34798000D01*
X93218000Y-34798000D01*
X93218000Y-33654376D01*
X93472000Y-33654376D01*
X93472000Y-34798000D01*
X94614915Y-34798000D01*
X94736904Y-34575961D01*
X94696246Y-34441913D01*
X94576037Y-34187580D01*
X94408519Y-33961586D01*
X94200131Y-33772615D01*
X93958881Y-33627930D01*
X93694040Y-33533091D01*
X93472000Y-33654376D01*
X93218000Y-33654376D01*
X92995960Y-33533091D01*
X92864900Y-33580023D01*
X92864900Y-21338825D01*
X92868576Y-21301500D01*
X92864900Y-21264175D01*
X92864900Y-21264167D01*
X92853903Y-21152514D01*
X92810446Y-21009253D01*
X92739874Y-20877224D01*
X92644901Y-20761499D01*
X92615904Y-20737702D01*
X85337204Y-13459003D01*
X85313401Y-13429999D01*
X85197676Y-13335026D01*
X85065647Y-13264454D01*
X84922386Y-13220997D01*
X84810733Y-13210000D01*
X84810722Y-13210000D01*
X84773400Y-13206324D01*
X84736078Y-13210000D01*
X83661246Y-13210000D01*
X83595662Y-13111847D01*
X83408153Y-12924338D01*
X83187665Y-12777013D01*
X82942672Y-12675533D01*
X82682589Y-12623800D01*
X82417411Y-12623800D01*
X82157328Y-12675533D01*
X81912335Y-12777013D01*
X81691847Y-12924338D01*
X81504338Y-13111847D01*
X81357013Y-13332335D01*
X81280000Y-13518260D01*
X81202987Y-13332335D01*
X81055662Y-13111847D01*
X80868153Y-12924338D01*
X80647665Y-12777013D01*
X80402672Y-12675533D01*
X80142589Y-12623800D01*
X79877411Y-12623800D01*
X79617328Y-12675533D01*
X79372335Y-12777013D01*
X79151847Y-12924338D01*
X78964338Y-13111847D01*
X78817013Y-13332335D01*
X78739031Y-13520600D01*
X78689542Y-13384720D01*
X78634183Y-13281152D01*
X78399273Y-13220332D01*
X77649605Y-13970000D01*
X78399273Y-14719668D01*
X78634183Y-14658848D01*
X78742206Y-14427066D01*
X78817013Y-14607665D01*
X78964338Y-14828153D01*
X79151847Y-15015662D01*
X79372335Y-15162987D01*
X79558260Y-15240000D01*
X79372335Y-15317013D01*
X79151847Y-15464338D01*
X78964338Y-15651847D01*
X78845574Y-15829591D01*
X78819272Y-15815532D01*
X78819272Y-15798800D01*
X78807012Y-15674318D01*
X78770702Y-15554620D01*
X78711737Y-15444306D01*
X78632385Y-15347615D01*
X78535694Y-15268263D01*
X78425380Y-15209298D01*
X78305682Y-15172988D01*
X78181200Y-15160728D01*
X78109186Y-15160728D01*
X78158848Y-15134183D01*
X78219668Y-14899273D01*
X77470000Y-14149605D01*
X76720332Y-14899273D01*
X76781152Y-15134183D01*
X76838109Y-15160728D01*
X76758800Y-15160728D01*
X76634318Y-15172988D01*
X76514620Y-15209298D01*
X76404306Y-15268263D01*
X76307615Y-15347615D01*
X76228263Y-15444306D01*
X76169298Y-15554620D01*
X76132988Y-15674318D01*
X76120728Y-15798800D01*
X76120728Y-15868954D01*
X75975662Y-15651847D01*
X75788153Y-15464338D01*
X75567665Y-15317013D01*
X75381740Y-15240000D01*
X75567665Y-15162987D01*
X75788153Y-15015662D01*
X75975662Y-14828153D01*
X76122987Y-14607665D01*
X76200969Y-14419400D01*
X76250458Y-14555280D01*
X76305817Y-14658848D01*
X76540727Y-14719668D01*
X77290395Y-13970000D01*
X76540727Y-13220332D01*
X76305817Y-13281152D01*
X76197794Y-13512934D01*
X76122987Y-13332335D01*
X75975662Y-13111847D01*
X75904542Y-13040727D01*
X76720332Y-13040727D01*
X77470000Y-13790395D01*
X78219668Y-13040727D01*
X78158848Y-12805817D01*
X77918491Y-12693798D01*
X77660898Y-12630824D01*
X77395970Y-12619313D01*
X77133887Y-12659709D01*
X76884720Y-12750458D01*
X76781152Y-12805817D01*
X76720332Y-13040727D01*
X75904542Y-13040727D01*
X75788153Y-12924338D01*
X75567665Y-12777013D01*
X75322672Y-12675533D01*
X75062589Y-12623800D01*
X74797411Y-12623800D01*
X74537328Y-12675533D01*
X74292335Y-12777013D01*
X74071847Y-12924338D01*
X73884338Y-13111847D01*
X73737013Y-13332335D01*
X73635533Y-13577328D01*
X73583800Y-13837411D01*
X73583800Y-14102589D01*
X73635533Y-14362672D01*
X73737013Y-14607665D01*
X73884338Y-14828153D01*
X74071847Y-15015662D01*
X74292335Y-15162987D01*
X74478260Y-15240000D01*
X74292335Y-15317013D01*
X74071847Y-15464338D01*
X73884338Y-15651847D01*
X73737013Y-15872335D01*
X73660000Y-16058260D01*
X73582987Y-15872335D01*
X73435662Y-15651847D01*
X73248153Y-15464338D01*
X73027665Y-15317013D01*
X72782672Y-15215533D01*
X72522589Y-15163800D01*
X72257411Y-15163800D01*
X71997328Y-15215533D01*
X71752335Y-15317013D01*
X71531847Y-15464338D01*
X71344338Y-15651847D01*
X71197013Y-15872335D01*
X71095533Y-16117328D01*
X71043800Y-16377411D01*
X71043800Y-16642589D01*
X71095533Y-16902672D01*
X71197013Y-17147665D01*
X71344338Y-17368153D01*
X71416542Y-17440357D01*
X69922198Y-18934701D01*
X69893200Y-18958499D01*
X69869402Y-18987497D01*
X69869401Y-18987498D01*
X69798226Y-19074224D01*
X69727654Y-19206254D01*
X69684198Y-19349515D01*
X69669524Y-19498500D01*
X69673201Y-19535832D01*
X69673200Y-26718398D01*
X66718919Y-29672679D01*
X66787852Y-29543715D01*
X66881343Y-29235516D01*
X66912911Y-28915000D01*
X66881343Y-28594484D01*
X66787852Y-28286285D01*
X66636031Y-28002248D01*
X66557471Y-27906522D01*
X66609502Y-27809180D01*
X66645812Y-27689482D01*
X66650544Y-27641435D01*
X66693590Y-27637195D01*
X66860413Y-27586589D01*
X67014159Y-27504411D01*
X67148917Y-27393817D01*
X67176634Y-27360044D01*
X68540050Y-25996629D01*
X68573817Y-25968917D01*
X68605694Y-25930076D01*
X68684411Y-25834159D01*
X68684412Y-25834158D01*
X68766589Y-25680413D01*
X68817195Y-25513590D01*
X68830000Y-25383577D01*
X68830000Y-25383569D01*
X68834281Y-25340100D01*
X68830000Y-25296631D01*
X68830000Y-16587976D01*
X68913386Y-16543405D01*
X69047962Y-16432962D01*
X69158405Y-16298386D01*
X69240472Y-16144850D01*
X69291008Y-15978254D01*
X69308072Y-15805000D01*
X69308072Y-15305000D01*
X69291008Y-15131746D01*
X69240472Y-14965150D01*
X69158405Y-14811614D01*
X69047962Y-14677038D01*
X69041406Y-14671658D01*
X69121185Y-14606185D01*
X69200537Y-14509494D01*
X69259502Y-14399180D01*
X69295812Y-14279482D01*
X69308072Y-14155000D01*
X69305000Y-13940750D01*
X69146250Y-13782000D01*
X68072000Y-13782000D01*
X68072000Y-13802000D01*
X67818000Y-13802000D01*
X67818000Y-13782000D01*
X66743750Y-13782000D01*
X66585000Y-13940750D01*
X66581928Y-14155000D01*
X66594188Y-14279482D01*
X66630498Y-14399180D01*
X66689463Y-14509494D01*
X66768815Y-14606185D01*
X66848594Y-14671658D01*
X66842038Y-14677038D01*
X66731595Y-14811614D01*
X66649528Y-14965150D01*
X66598992Y-15131746D01*
X66581928Y-15305000D01*
X66581928Y-15805000D01*
X66598992Y-15978254D01*
X66649528Y-16144850D01*
X66731595Y-16298386D01*
X66842038Y-16432962D01*
X66976614Y-16543405D01*
X67060001Y-16587976D01*
X67060001Y-17447699D01*
X66198072Y-16585771D01*
X66198072Y-16059998D01*
X66181008Y-15886744D01*
X66130472Y-15720148D01*
X66048405Y-15566613D01*
X65937962Y-15432038D01*
X65803387Y-15321595D01*
X65649852Y-15239528D01*
X65483256Y-15188992D01*
X65310002Y-15171928D01*
X64784998Y-15171928D01*
X64611744Y-15188992D01*
X64445148Y-15239528D01*
X64291613Y-15321595D01*
X64210363Y-15388276D01*
X64186185Y-15358815D01*
X64089494Y-15279463D01*
X63979180Y-15220498D01*
X63859482Y-15184188D01*
X63735000Y-15171928D01*
X63508250Y-15175000D01*
X63349500Y-15333750D01*
X63349500Y-16383000D01*
X63369500Y-16383000D01*
X63369500Y-16637000D01*
X63349500Y-16637000D01*
X63349500Y-17686250D01*
X63508250Y-17845000D01*
X63735000Y-17848072D01*
X63859482Y-17835812D01*
X63979180Y-17799502D01*
X64089494Y-17740537D01*
X64186185Y-17661185D01*
X64210363Y-17631724D01*
X64291613Y-17698405D01*
X64445148Y-17780472D01*
X64611744Y-17831008D01*
X64784998Y-17848072D01*
X65310002Y-17848072D01*
X65310702Y-17848003D01*
X65836800Y-18374102D01*
X65836800Y-19078366D01*
X65590516Y-19003657D01*
X65350322Y-18980000D01*
X64189678Y-18980000D01*
X63949484Y-19003657D01*
X63641285Y-19097148D01*
X63357248Y-19248969D01*
X63108286Y-19453286D01*
X62903969Y-19702248D01*
X62752148Y-19986285D01*
X62658657Y-20294484D01*
X62627089Y-20615000D01*
X62658657Y-20935516D01*
X62752148Y-21243715D01*
X62903969Y-21527752D01*
X63108286Y-21776714D01*
X63207718Y-21858315D01*
X63121068Y-21963899D01*
X62987818Y-22213192D01*
X62905764Y-22483691D01*
X62878057Y-22765000D01*
X62905764Y-23046309D01*
X62987818Y-23316808D01*
X63121068Y-23566101D01*
X63284300Y-23765000D01*
X63121068Y-23963899D01*
X62987818Y-24213192D01*
X62905764Y-24483691D01*
X62878057Y-24765000D01*
X62905764Y-25046309D01*
X62987818Y-25316808D01*
X63085710Y-25499950D01*
X63068815Y-25513815D01*
X62989463Y-25610506D01*
X62930498Y-25720820D01*
X62894188Y-25840518D01*
X62881928Y-25965000D01*
X62881928Y-27565000D01*
X62894188Y-27689482D01*
X62930498Y-27809180D01*
X62982529Y-27906522D01*
X62903969Y-28002248D01*
X62752148Y-28286285D01*
X62658657Y-28594484D01*
X62627089Y-28915000D01*
X62658657Y-29235516D01*
X62752148Y-29543715D01*
X62903969Y-29827752D01*
X63108286Y-30076714D01*
X63357248Y-30281031D01*
X63641285Y-30432852D01*
X63949484Y-30526343D01*
X64189678Y-30550000D01*
X65350322Y-30550000D01*
X65590516Y-30526343D01*
X65898715Y-30432852D01*
X66027679Y-30363919D01*
X62535000Y-33856599D01*
X62535000Y-17820488D01*
X62585518Y-17835812D01*
X62710000Y-17848072D01*
X62936750Y-17845000D01*
X63095500Y-17686250D01*
X63095500Y-16637000D01*
X63075500Y-16637000D01*
X63075500Y-16383000D01*
X63095500Y-16383000D01*
X63095500Y-15333750D01*
X62936750Y-15175000D01*
X62710000Y-15171928D01*
X62585518Y-15184188D01*
X62535000Y-15199512D01*
X62535000Y-13155000D01*
X66581928Y-13155000D01*
X66585000Y-13369250D01*
X66743750Y-13528000D01*
X67818000Y-13528000D01*
X67818000Y-12678750D01*
X68072000Y-12678750D01*
X68072000Y-13528000D01*
X69146250Y-13528000D01*
X69305000Y-13369250D01*
X69308072Y-13155000D01*
X69295812Y-13030518D01*
X69259502Y-12910820D01*
X69200537Y-12800506D01*
X69121185Y-12703815D01*
X69024494Y-12624463D01*
X68914180Y-12565498D01*
X68794482Y-12529188D01*
X68670000Y-12516928D01*
X68230750Y-12520000D01*
X68072000Y-12678750D01*
X67818000Y-12678750D01*
X67659250Y-12520000D01*
X67220000Y-12516928D01*
X67095518Y-12529188D01*
X66975820Y-12565498D01*
X66865506Y-12624463D01*
X66768815Y-12703815D01*
X66689463Y-12800506D01*
X66630498Y-12910820D01*
X66594188Y-13030518D01*
X66581928Y-13155000D01*
X62535000Y-13155000D01*
X62535000Y-9685000D01*
X116665000Y-9685000D01*
X116665000Y-18166298D01*
G37*
%TD.AperFunction*%
D25*
X104364338Y-17368153D02*
X104551847Y-17555662D01*
X104772335Y-17702987D01*
X105017328Y-17804467D01*
X105277411Y-17856200D01*
X105542589Y-17856200D01*
X105802672Y-17804467D01*
X105918646Y-17756429D01*
X105916324Y-17780000D01*
X105920000Y-17817322D01*
X105920000Y-17817332D01*
X105930997Y-17928985D01*
X105959203Y-18021968D01*
X105974454Y-18072246D01*
X106045026Y-18204276D01*
X106084871Y-18252826D01*
X106139999Y-18320001D01*
X106169003Y-18343804D01*
X106626830Y-18801631D01*
X106603800Y-18917411D01*
X106603800Y-19182589D01*
X106655533Y-19442672D01*
X106757013Y-19687665D01*
X106904338Y-19908153D01*
X107091847Y-20095662D01*
X107312335Y-20242987D01*
X107498260Y-20320000D01*
X107312335Y-20397013D01*
X107091847Y-20544338D01*
X106904338Y-20731847D01*
X106757013Y-20952335D01*
X106655533Y-21197328D01*
X106603800Y-21457411D01*
X106603800Y-21722589D01*
X106655533Y-21982672D01*
X106757013Y-22227665D01*
X106904338Y-22448153D01*
X107091847Y-22635662D01*
X107312335Y-22782987D01*
X107498260Y-22860000D01*
X107312335Y-22937013D01*
X107091847Y-23084338D01*
X106904338Y-23271847D01*
X106757013Y-23492335D01*
X106655533Y-23737328D01*
X106603800Y-23997411D01*
X106603800Y-24262589D01*
X106655533Y-24522672D01*
X106757013Y-24767665D01*
X106904338Y-24988153D01*
X107091847Y-25175662D01*
X107312335Y-25322987D01*
X107498260Y-25400000D01*
X107312335Y-25477013D01*
X107091847Y-25624338D01*
X106904338Y-25811847D01*
X106757013Y-26032335D01*
X106680000Y-26218260D01*
X106602987Y-26032335D01*
X106455662Y-25811847D01*
X106268153Y-25624338D01*
X106047665Y-25477013D01*
X105802672Y-25375533D01*
X105542589Y-25323800D01*
X105277411Y-25323800D01*
X105017328Y-25375533D01*
X104772335Y-25477013D01*
X104737434Y-25500333D01*
X104728203Y-25406614D01*
X104684746Y-25263353D01*
X104614174Y-25131324D01*
X104519201Y-25015599D01*
X104490203Y-24991801D01*
X103630000Y-24131599D01*
X103630000Y-17854466D01*
X103705682Y-17847012D01*
X103825380Y-17810702D01*
X103935694Y-17751737D01*
X104032385Y-17672385D01*
X104111737Y-17575694D01*
X104170702Y-17465380D01*
X104207012Y-17345682D01*
X104219272Y-17221200D01*
X104219272Y-17151046D01*
X104364338Y-17368153D01*
%TA.AperFunction,Conductor*%
D26*
G36*
X104364338Y-17368153D02*
G01*
X104551847Y-17555662D01*
X104772335Y-17702987D01*
X105017328Y-17804467D01*
X105277411Y-17856200D01*
X105542589Y-17856200D01*
X105802672Y-17804467D01*
X105918646Y-17756429D01*
X105916324Y-17780000D01*
X105920000Y-17817322D01*
X105920000Y-17817332D01*
X105930997Y-17928985D01*
X105959203Y-18021968D01*
X105974454Y-18072246D01*
X106045026Y-18204276D01*
X106084871Y-18252826D01*
X106139999Y-18320001D01*
X106169003Y-18343804D01*
X106626830Y-18801631D01*
X106603800Y-18917411D01*
X106603800Y-19182589D01*
X106655533Y-19442672D01*
X106757013Y-19687665D01*
X106904338Y-19908153D01*
X107091847Y-20095662D01*
X107312335Y-20242987D01*
X107498260Y-20320000D01*
X107312335Y-20397013D01*
X107091847Y-20544338D01*
X106904338Y-20731847D01*
X106757013Y-20952335D01*
X106655533Y-21197328D01*
X106603800Y-21457411D01*
X106603800Y-21722589D01*
X106655533Y-21982672D01*
X106757013Y-22227665D01*
X106904338Y-22448153D01*
X107091847Y-22635662D01*
X107312335Y-22782987D01*
X107498260Y-22860000D01*
X107312335Y-22937013D01*
X107091847Y-23084338D01*
X106904338Y-23271847D01*
X106757013Y-23492335D01*
X106655533Y-23737328D01*
X106603800Y-23997411D01*
X106603800Y-24262589D01*
X106655533Y-24522672D01*
X106757013Y-24767665D01*
X106904338Y-24988153D01*
X107091847Y-25175662D01*
X107312335Y-25322987D01*
X107498260Y-25400000D01*
X107312335Y-25477013D01*
X107091847Y-25624338D01*
X106904338Y-25811847D01*
X106757013Y-26032335D01*
X106680000Y-26218260D01*
X106602987Y-26032335D01*
X106455662Y-25811847D01*
X106268153Y-25624338D01*
X106047665Y-25477013D01*
X105802672Y-25375533D01*
X105542589Y-25323800D01*
X105277411Y-25323800D01*
X105017328Y-25375533D01*
X104772335Y-25477013D01*
X104737434Y-25500333D01*
X104728203Y-25406614D01*
X104684746Y-25263353D01*
X104614174Y-25131324D01*
X104519201Y-25015599D01*
X104490203Y-24991801D01*
X103630000Y-24131599D01*
X103630000Y-17854466D01*
X103705682Y-17847012D01*
X103825380Y-17810702D01*
X103935694Y-17751737D01*
X104032385Y-17672385D01*
X104111737Y-17575694D01*
X104170702Y-17465380D01*
X104207012Y-17345682D01*
X104219272Y-17221200D01*
X104219272Y-17151046D01*
X104364338Y-17368153D01*
G37*
%TD.AperFunction*%
D25*
X99471847Y-12924338D02*
X99284338Y-13111847D01*
X99137013Y-13332335D01*
X99035533Y-13577328D01*
X98983800Y-13837411D01*
X98983800Y-14102589D01*
X99035533Y-14362672D01*
X99137013Y-14607665D01*
X99284338Y-14828153D01*
X99471847Y-15015662D01*
X99692335Y-15162987D01*
X99878260Y-15240000D01*
X99692335Y-15317013D01*
X99471847Y-15464338D01*
X99284338Y-15651847D01*
X99137013Y-15872335D01*
X99060000Y-16058260D01*
X98982987Y-15872335D01*
X98835662Y-15651847D01*
X98648153Y-15464338D01*
X98427665Y-15317013D01*
X98182672Y-15215533D01*
X97922589Y-15163800D01*
X97657411Y-15163800D01*
X97397328Y-15215533D01*
X97152335Y-15317013D01*
X96931847Y-15464338D01*
X96744338Y-15651847D01*
X96597013Y-15872335D01*
X96495533Y-16117328D01*
X96443800Y-16377411D01*
X96443800Y-16642589D01*
X96495533Y-16902672D01*
X96597013Y-17147665D01*
X96744338Y-17368153D01*
X96931847Y-17555662D01*
X97152335Y-17702987D01*
X97338260Y-17780000D01*
X97152335Y-17857013D01*
X96931847Y-18004338D01*
X96744338Y-18191847D01*
X96597013Y-18412335D01*
X96495533Y-18657328D01*
X96443800Y-18917411D01*
X96443800Y-19182589D01*
X96495533Y-19442672D01*
X96597013Y-19687665D01*
X96744338Y-19908153D01*
X96829981Y-19993796D01*
X96818905Y-20007292D01*
X95774898Y-21051301D01*
X95745900Y-21075099D01*
X95726500Y-21098738D01*
X95726500Y-17094969D01*
X95730781Y-17051500D01*
X95726500Y-17008031D01*
X95726500Y-17008023D01*
X95713695Y-16878010D01*
X95666089Y-16721076D01*
X95663089Y-16711186D01*
X95580911Y-16557441D01*
X95498032Y-16456453D01*
X95498030Y-16456451D01*
X95470317Y-16422683D01*
X95436550Y-16394971D01*
X94708072Y-15666494D01*
X94708072Y-15305000D01*
X94691008Y-15131746D01*
X94640472Y-14965150D01*
X94558405Y-14811614D01*
X94447962Y-14677038D01*
X94441406Y-14671658D01*
X94521185Y-14606185D01*
X94600537Y-14509494D01*
X94659502Y-14399180D01*
X94695812Y-14279482D01*
X94708072Y-14155000D01*
X94705000Y-13940750D01*
X94546250Y-13782000D01*
X93472000Y-13782000D01*
X93472000Y-13802000D01*
X93218000Y-13802000D01*
X93218000Y-13782000D01*
X93198000Y-13782000D01*
X93198000Y-13528000D01*
X93218000Y-13528000D01*
X93218000Y-13508000D01*
X93472000Y-13508000D01*
X93472000Y-13528000D01*
X94546250Y-13528000D01*
X94705000Y-13369250D01*
X94708072Y-13155000D01*
X94695812Y-13030518D01*
X94659502Y-12910820D01*
X94628489Y-12852800D01*
X99578911Y-12852800D01*
X99471847Y-12924338D01*
%TA.AperFunction,Conductor*%
D26*
G36*
X99471847Y-12924338D02*
G01*
X99284338Y-13111847D01*
X99137013Y-13332335D01*
X99035533Y-13577328D01*
X98983800Y-13837411D01*
X98983800Y-14102589D01*
X99035533Y-14362672D01*
X99137013Y-14607665D01*
X99284338Y-14828153D01*
X99471847Y-15015662D01*
X99692335Y-15162987D01*
X99878260Y-15240000D01*
X99692335Y-15317013D01*
X99471847Y-15464338D01*
X99284338Y-15651847D01*
X99137013Y-15872335D01*
X99060000Y-16058260D01*
X98982987Y-15872335D01*
X98835662Y-15651847D01*
X98648153Y-15464338D01*
X98427665Y-15317013D01*
X98182672Y-15215533D01*
X97922589Y-15163800D01*
X97657411Y-15163800D01*
X97397328Y-15215533D01*
X97152335Y-15317013D01*
X96931847Y-15464338D01*
X96744338Y-15651847D01*
X96597013Y-15872335D01*
X96495533Y-16117328D01*
X96443800Y-16377411D01*
X96443800Y-16642589D01*
X96495533Y-16902672D01*
X96597013Y-17147665D01*
X96744338Y-17368153D01*
X96931847Y-17555662D01*
X97152335Y-17702987D01*
X97338260Y-17780000D01*
X97152335Y-17857013D01*
X96931847Y-18004338D01*
X96744338Y-18191847D01*
X96597013Y-18412335D01*
X96495533Y-18657328D01*
X96443800Y-18917411D01*
X96443800Y-19182589D01*
X96495533Y-19442672D01*
X96597013Y-19687665D01*
X96744338Y-19908153D01*
X96829981Y-19993796D01*
X96818905Y-20007292D01*
X95774898Y-21051301D01*
X95745900Y-21075099D01*
X95726500Y-21098738D01*
X95726500Y-17094969D01*
X95730781Y-17051500D01*
X95726500Y-17008031D01*
X95726500Y-17008023D01*
X95713695Y-16878010D01*
X95666089Y-16721076D01*
X95663089Y-16711186D01*
X95580911Y-16557441D01*
X95498032Y-16456453D01*
X95498030Y-16456451D01*
X95470317Y-16422683D01*
X95436550Y-16394971D01*
X94708072Y-15666494D01*
X94708072Y-15305000D01*
X94691008Y-15131746D01*
X94640472Y-14965150D01*
X94558405Y-14811614D01*
X94447962Y-14677038D01*
X94441406Y-14671658D01*
X94521185Y-14606185D01*
X94600537Y-14509494D01*
X94659502Y-14399180D01*
X94695812Y-14279482D01*
X94708072Y-14155000D01*
X94705000Y-13940750D01*
X94546250Y-13782000D01*
X93472000Y-13782000D01*
X93472000Y-13802000D01*
X93218000Y-13802000D01*
X93218000Y-13782000D01*
X93198000Y-13782000D01*
X93198000Y-13528000D01*
X93218000Y-13528000D01*
X93218000Y-13508000D01*
X93472000Y-13508000D01*
X93472000Y-13528000D01*
X94546250Y-13528000D01*
X94705000Y-13369250D01*
X94708072Y-13155000D01*
X94695812Y-13030518D01*
X94659502Y-12910820D01*
X94628489Y-12852800D01*
X99578911Y-12852800D01*
X99471847Y-12924338D01*
G37*
%TD.AperFunction*%
D25*
X102120332Y-13040727D02*
X102870000Y-13790395D01*
X102884143Y-13776253D01*
X103063748Y-13955858D01*
X103049605Y-13970000D01*
X103063748Y-13984143D01*
X102884143Y-14163748D01*
X102870000Y-14149605D01*
X102120332Y-14899273D01*
X102181152Y-15134183D01*
X102238109Y-15160728D01*
X102158800Y-15160728D01*
X102034318Y-15172988D01*
X101914620Y-15209298D01*
X101804306Y-15268263D01*
X101707615Y-15347615D01*
X101628263Y-15444306D01*
X101569298Y-15554620D01*
X101532988Y-15674318D01*
X101520728Y-15798800D01*
X101520728Y-15868954D01*
X101375662Y-15651847D01*
X101188153Y-15464338D01*
X100967665Y-15317013D01*
X100781740Y-15240000D01*
X100967665Y-15162987D01*
X101188153Y-15015662D01*
X101375662Y-14828153D01*
X101522987Y-14607665D01*
X101600969Y-14419400D01*
X101650458Y-14555280D01*
X101705817Y-14658848D01*
X101940727Y-14719668D01*
X102690395Y-13970000D01*
X101940727Y-13220332D01*
X101705817Y-13281152D01*
X101597794Y-13512934D01*
X101522987Y-13332335D01*
X101375662Y-13111847D01*
X101188153Y-12924338D01*
X101081089Y-12852800D01*
X102168988Y-12852800D01*
X102120332Y-13040727D01*
%TA.AperFunction,Conductor*%
D26*
G36*
X102120332Y-13040727D02*
G01*
X102870000Y-13790395D01*
X102884143Y-13776253D01*
X103063748Y-13955858D01*
X103049605Y-13970000D01*
X103063748Y-13984143D01*
X102884143Y-14163748D01*
X102870000Y-14149605D01*
X102120332Y-14899273D01*
X102181152Y-15134183D01*
X102238109Y-15160728D01*
X102158800Y-15160728D01*
X102034318Y-15172988D01*
X101914620Y-15209298D01*
X101804306Y-15268263D01*
X101707615Y-15347615D01*
X101628263Y-15444306D01*
X101569298Y-15554620D01*
X101532988Y-15674318D01*
X101520728Y-15798800D01*
X101520728Y-15868954D01*
X101375662Y-15651847D01*
X101188153Y-15464338D01*
X100967665Y-15317013D01*
X100781740Y-15240000D01*
X100967665Y-15162987D01*
X101188153Y-15015662D01*
X101375662Y-14828153D01*
X101522987Y-14607665D01*
X101600969Y-14419400D01*
X101650458Y-14555280D01*
X101705817Y-14658848D01*
X101940727Y-14719668D01*
X102690395Y-13970000D01*
X101940727Y-13220332D01*
X101705817Y-13281152D01*
X101597794Y-13512934D01*
X101522987Y-13332335D01*
X101375662Y-13111847D01*
X101188153Y-12924338D01*
X101081089Y-12852800D01*
X102168988Y-12852800D01*
X102120332Y-13040727D01*
G37*
%TD.AperFunction*%
D25*
X103736274Y-15015882D02*
X103824294Y-14927862D01*
X103833599Y-14939201D01*
X103862602Y-14963003D01*
X104457892Y-15558293D01*
X104364338Y-15651847D01*
X104219272Y-15868954D01*
X104219272Y-15798800D01*
X104207012Y-15674318D01*
X104170702Y-15554620D01*
X104111737Y-15444306D01*
X104032385Y-15347615D01*
X103935694Y-15268263D01*
X103825380Y-15209298D01*
X103705682Y-15172988D01*
X103581200Y-15160728D01*
X103509186Y-15160728D01*
X103558848Y-15134183D01*
X103619667Y-14899275D01*
X103736274Y-15015882D01*
%TA.AperFunction,Conductor*%
D26*
G36*
X103736274Y-15015882D02*
G01*
X103824294Y-14927862D01*
X103833599Y-14939201D01*
X103862602Y-14963003D01*
X104457892Y-15558293D01*
X104364338Y-15651847D01*
X104219272Y-15868954D01*
X104219272Y-15798800D01*
X104207012Y-15674318D01*
X104170702Y-15554620D01*
X104111737Y-15444306D01*
X104032385Y-15347615D01*
X103935694Y-15268263D01*
X103825380Y-15209298D01*
X103705682Y-15172988D01*
X103581200Y-15160728D01*
X103509186Y-15160728D01*
X103558848Y-15134183D01*
X103619667Y-14899275D01*
X103736274Y-15015882D01*
G37*
%TD.AperFunction*%
D25*
X91994188Y-14279482D02*
X92030498Y-14399180D01*
X92089463Y-14509494D01*
X92168815Y-14606185D01*
X92248594Y-14671658D01*
X92242038Y-14677038D01*
X92131595Y-14811614D01*
X92053949Y-14956878D01*
X91987205Y-14795744D01*
X91873937Y-14626226D01*
X91756100Y-14508389D01*
X91756100Y-14224300D01*
X91823139Y-14224300D01*
X91985571Y-14191990D01*
X91994188Y-14279482D01*
%TA.AperFunction,Conductor*%
D26*
G36*
X91994188Y-14279482D02*
G01*
X92030498Y-14399180D01*
X92089463Y-14509494D01*
X92168815Y-14606185D01*
X92248594Y-14671658D01*
X92242038Y-14677038D01*
X92131595Y-14811614D01*
X92053949Y-14956878D01*
X91987205Y-14795744D01*
X91873937Y-14626226D01*
X91756100Y-14508389D01*
X91756100Y-14224300D01*
X91823139Y-14224300D01*
X91985571Y-14191990D01*
X91994188Y-14279482D01*
G37*
%TD.AperFunction*%
%TD*%
M02*
