M48
; DRILL file {KiCad (5.1.10-1-10_14)} date Monday, March 20, 2023 at 05:39:52 AM
; FORMAT={-:-/ absolute / metric / decimal}
; #@! TF.CreationDate,2023-03-20T05:39:52+08:00
; #@! TF.GenerationSoftware,Kicad,Pcbnew,(5.1.10-1-10_14)
FMAT,2
METRIC
T1C0.400
T2C0.800
T3C1.000
%
G90
G05
T1
X62.527Y-82.578
X63.272Y-47.586
X64.017Y-45.795
X66.135Y-87.256
X67.126Y-59.328
X69.215Y-63.905
X69.35Y-89.4
X70.251Y-51.883
X71.1Y-64.72
X71.106Y-29.926
X71.755Y-58.657
X72.998Y-74.755
X73.202Y-50.121
X74.295Y-100.555
X74.429Y-45.246
X74.455Y-71.832
X74.481Y-63.286
X74.854Y-33.584
X75.308Y-30.645
X75.659Y-61.504
X76.316Y-92.974
X78.076Y-69.963
X78.115Y-77.32
X78.491Y-71.272
X79.204Y-42.279
X80.465Y-48.313
X80.635Y-70.31
X80.65Y-58.15
X81.86Y-68.36
X82.55Y-32.856
X83.805Y-72.174
X84.018Y-29.538
X84.289Y-82.419
X84.807Y-38.387
X85.697Y-49.255
X85.79Y-76.247
X86.252Y-74.564
X87.02Y-73.141
X87.232Y-25.626
X87.656Y-41.476
X87.656Y-59.68
X88.186Y-39.894
X88.632Y-68.878
X89.2Y-36.98
X89.985Y-70.859
X90.544Y-28.444
X90.996Y-10.789
X91.07Y-15.286
X91.21Y-68.153
X91.721Y-13.189
X92.066Y-85.173
X92.105Y-36.7
X92.177Y-43.595
X92.746Y-81.707
X94.503Y-41.381
X95.63Y-36.339
X95.65Y-95.691
X95.704Y-38.511
X96.532Y-76.808
X96.979Y-37.337
X98.337Y-77.667
X98.542Y-28.904
X98.598Y-81.78
X98.933Y-31.323
X99.627Y-75.242
X100.257Y-70.469
X101.036Y-74.181
X101.494Y-30.995
X101.814Y-94.966
X102.024Y-77.338
X104.446Y-73.43
X104.733Y-41.113
X105.13Y-99.49
X105.9Y-75.908
X107.75Y-90.183
X107.76Y-99.54
X108.743Y-38.57
X108.988Y-33.526
X109.213Y-14.822
X110.576Y-58.119
X110.996Y-45.572
X112.786Y-71.257
X113.0Y-99.54
T2
X66.675Y-40.64
X66.675Y-43.18
X66.675Y-45.72
X66.675Y-48.26
X66.675Y-50.8
X66.675Y-53.34
X69.215Y-38.1
X69.215Y-40.64
X69.215Y-43.18
X69.215Y-45.72
X69.215Y-48.26
X69.215Y-50.8
X69.215Y-53.34
X69.215Y-55.88
X71.755Y-38.1
X71.755Y-40.64
X71.755Y-53.34
X71.755Y-55.88
X72.39Y-16.51
X72.39Y-19.05
X72.39Y-21.59
X72.39Y-24.13
X72.39Y-26.67
X74.295Y-38.1
X74.295Y-40.64
X74.295Y-53.34
X74.295Y-55.88
X74.93Y-13.97
X74.93Y-16.51
X74.93Y-19.05
X74.93Y-21.59
X74.93Y-24.13
X74.93Y-26.67
X74.93Y-29.21
X76.835Y-38.1
X76.835Y-40.64
X76.835Y-53.34
X76.835Y-55.88
X76.835Y-63.5
X76.835Y-78.74
X77.47Y-13.97
X77.47Y-16.51
X77.47Y-26.67
X77.47Y-29.21
X79.375Y-38.1
X79.375Y-40.64
X79.375Y-53.34
X79.375Y-55.88
X79.375Y-63.5
X79.375Y-78.74
X80.01Y-13.97
X80.01Y-16.51
X80.01Y-26.67
X80.01Y-29.21
X81.915Y-38.1
X81.915Y-40.64
X81.915Y-43.18
X81.915Y-45.72
X81.915Y-48.26
X81.915Y-50.8
X81.915Y-53.34
X81.915Y-55.88
X81.915Y-63.5
X81.915Y-78.74
X82.55Y-13.97
X82.55Y-16.51
X82.55Y-19.05
X82.55Y-21.59
X82.55Y-24.13
X82.55Y-26.67
X82.55Y-29.21
X84.455Y-40.64
X84.455Y-43.18
X84.455Y-45.72
X84.455Y-48.26
X84.455Y-50.8
X84.455Y-53.34
X84.455Y-63.5
X84.455Y-78.74
X85.09Y-16.51
X85.09Y-19.05
X85.09Y-21.59
X85.09Y-24.13
X85.09Y-26.67
X86.995Y-63.5
X86.995Y-78.74
X89.535Y-63.5
X89.535Y-78.74
X92.075Y-63.5
X92.075Y-78.74
X93.345Y-34.925
X93.345Y-37.465
X93.345Y-40.005
X93.345Y-42.545
X93.345Y-45.085
X93.345Y-47.625
X93.345Y-50.165
X93.345Y-52.705
X93.345Y-55.245
X93.345Y-57.785
X94.615Y-63.5
X94.615Y-78.74
X97.155Y-63.5
X97.155Y-78.74
X97.79Y-16.51
X97.79Y-19.05
X97.79Y-21.59
X97.79Y-24.13
X97.79Y-26.67
X99.695Y-63.5
X99.695Y-78.74
X100.33Y-13.97
X100.33Y-16.51
X100.33Y-19.05
X100.33Y-21.59
X100.33Y-24.13
X100.33Y-26.67
X100.33Y-29.21
X100.965Y-34.925
X100.965Y-37.465
X100.965Y-40.005
X100.965Y-42.545
X100.965Y-45.085
X100.965Y-47.625
X100.965Y-50.165
X100.965Y-52.705
X100.965Y-55.245
X100.965Y-57.785
X102.235Y-63.5
X102.235Y-78.74
X102.87Y-13.97
X102.87Y-16.51
X102.87Y-26.67
X102.87Y-29.21
X104.775Y-63.5
X104.775Y-78.74
X105.41Y-13.97
X105.41Y-16.51
X105.41Y-26.67
X105.41Y-29.21
X106.045Y-34.925
X106.045Y-37.465
X106.045Y-40.005
X106.045Y-42.545
X106.045Y-45.085
X106.045Y-47.625
X106.045Y-50.165
X106.045Y-52.705
X106.045Y-55.245
X106.045Y-57.785
X107.315Y-63.5
X107.315Y-78.74
X107.95Y-13.97
X107.95Y-16.51
X107.95Y-19.05
X107.95Y-21.59
X107.95Y-24.13
X107.95Y-26.67
X107.95Y-29.21
X109.855Y-63.5
X109.855Y-78.74
X110.49Y-16.51
X110.49Y-19.05
X110.49Y-21.59
X110.49Y-24.13
X110.49Y-26.67
X112.395Y-63.5
X112.395Y-78.74
X113.665Y-34.925
X113.665Y-37.465
X113.665Y-40.005
X113.665Y-42.545
X113.665Y-45.085
X113.665Y-47.625
X113.665Y-50.165
X113.665Y-52.705
X113.665Y-55.245
X113.665Y-57.785
X114.935Y-63.5
X114.935Y-78.74
T3
X64.77Y-22.765
X64.77Y-24.765
X64.77Y-26.765
X64.77Y-66.04
X64.77Y-68.58
X64.77Y-71.12
X64.77Y-73.66
X64.77Y-76.2
X67.31Y-66.04
X67.31Y-68.58
X67.31Y-71.12
X67.31Y-73.66
X67.31Y-76.2
X70.55Y-84.12
X70.55Y-86.66
X73.09Y-84.12
X73.09Y-86.66
X75.63Y-84.12
X75.63Y-86.66
X78.17Y-84.12
X78.17Y-86.66
X80.71Y-84.12
X80.71Y-86.66
X83.25Y-84.12
X83.25Y-86.66
X85.79Y-84.12
X85.79Y-86.66
X88.33Y-84.12
X88.33Y-86.66
X90.87Y-84.12
X90.87Y-86.66
X93.41Y-84.12
X93.41Y-86.66
X95.95Y-84.12
X95.95Y-86.66
X98.49Y-84.12
X98.49Y-86.66
X101.03Y-84.12
X101.03Y-86.66
X103.57Y-84.12
X103.57Y-86.66
X106.11Y-84.12
X106.11Y-86.66
X108.65Y-84.12
X108.65Y-86.66
T3
G00X64.37Y-20.615
M15
G01X65.17Y-20.615
M16
G05
G00X64.37Y-28.915
M15
G01X65.17Y-28.915
M16
G05
T0
M30
