%TF.GenerationSoftware,KiCad,Pcbnew,(5.1.10-1-10_14)*%
%TF.CreationDate,2023-03-20T16:19:30+08:00*%
%TF.ProjectId,GB_MemoryBackup_Mainboard,47425f4d-656d-46f7-9279-4261636b7570,1.3*%
%TF.SameCoordinates,Original*%
%TF.FileFunction,Soldermask,Bot*%
%TF.FilePolarity,Negative*%
%FSLAX46Y46*%
G04 Gerber Fmt 4.6, Leading zero omitted, Abs format (unit mm)*
G04 Created by KiCad (PCBNEW (5.1.10-1-10_14)) date 2023-03-20 16:19:30*
%MOMM*%
%LPD*%
G01*
G04 APERTURE LIST*
%ADD10C,0.150000*%
%ADD11C,0.010000*%
%ADD12O,1.700000X1.700000*%
%ADD13R,1.700000X1.700000*%
%ADD14O,1.600000X1.600000*%
%ADD15R,1.600000X1.600000*%
%ADD16C,1.524400*%
%ADD17O,3.102000X2.102000*%
%ADD18O,2.602000X1.702000*%
G04 APERTURE END LIST*
D10*
X108360595Y-129740000D02*
X108455833Y-129692380D01*
X108598690Y-129692380D01*
X108741547Y-129740000D01*
X108836785Y-129835238D01*
X108884404Y-129930476D01*
X108932023Y-130120952D01*
X108932023Y-130263809D01*
X108884404Y-130454285D01*
X108836785Y-130549523D01*
X108741547Y-130644761D01*
X108598690Y-130692380D01*
X108503452Y-130692380D01*
X108360595Y-130644761D01*
X108312976Y-130597142D01*
X108312976Y-130263809D01*
X108503452Y-130263809D01*
X107455833Y-130692380D02*
X107455833Y-130168571D01*
X107503452Y-130073333D01*
X107598690Y-130025714D01*
X107789166Y-130025714D01*
X107884404Y-130073333D01*
X107455833Y-130644761D02*
X107551071Y-130692380D01*
X107789166Y-130692380D01*
X107884404Y-130644761D01*
X107932023Y-130549523D01*
X107932023Y-130454285D01*
X107884404Y-130359047D01*
X107789166Y-130311428D01*
X107551071Y-130311428D01*
X107455833Y-130263809D01*
X106979642Y-130692380D02*
X106979642Y-130025714D01*
X106979642Y-130120952D02*
X106932023Y-130073333D01*
X106836785Y-130025714D01*
X106693928Y-130025714D01*
X106598690Y-130073333D01*
X106551071Y-130168571D01*
X106551071Y-130692380D01*
X106551071Y-130168571D02*
X106503452Y-130073333D01*
X106408214Y-130025714D01*
X106265357Y-130025714D01*
X106170119Y-130073333D01*
X106122500Y-130168571D01*
X106122500Y-130692380D01*
X105265357Y-130644761D02*
X105360595Y-130692380D01*
X105551071Y-130692380D01*
X105646309Y-130644761D01*
X105693928Y-130549523D01*
X105693928Y-130168571D01*
X105646309Y-130073333D01*
X105551071Y-130025714D01*
X105360595Y-130025714D01*
X105265357Y-130073333D01*
X105217738Y-130168571D01*
X105217738Y-130263809D01*
X105693928Y-130359047D01*
X104789166Y-130692380D02*
X104789166Y-129692380D01*
X104789166Y-130073333D02*
X104693928Y-130025714D01*
X104503452Y-130025714D01*
X104408214Y-130073333D01*
X104360595Y-130120952D01*
X104312976Y-130216190D01*
X104312976Y-130501904D01*
X104360595Y-130597142D01*
X104408214Y-130644761D01*
X104503452Y-130692380D01*
X104693928Y-130692380D01*
X104789166Y-130644761D01*
X103741547Y-130692380D02*
X103836785Y-130644761D01*
X103884404Y-130597142D01*
X103932023Y-130501904D01*
X103932023Y-130216190D01*
X103884404Y-130120952D01*
X103836785Y-130073333D01*
X103741547Y-130025714D01*
X103598690Y-130025714D01*
X103503452Y-130073333D01*
X103455833Y-130120952D01*
X103408214Y-130216190D01*
X103408214Y-130501904D01*
X103455833Y-130597142D01*
X103503452Y-130644761D01*
X103598690Y-130692380D01*
X103741547Y-130692380D01*
X103074880Y-130025714D02*
X102836785Y-130692380D01*
X102598690Y-130025714D02*
X102836785Y-130692380D01*
X102932023Y-130930476D01*
X102979642Y-130978095D01*
X103074880Y-131025714D01*
X101455833Y-130692380D02*
X101455833Y-129692380D01*
X101122500Y-130406666D01*
X100789166Y-129692380D01*
X100789166Y-130692380D01*
X99932023Y-130644761D02*
X100027261Y-130692380D01*
X100217738Y-130692380D01*
X100312976Y-130644761D01*
X100360595Y-130549523D01*
X100360595Y-130168571D01*
X100312976Y-130073333D01*
X100217738Y-130025714D01*
X100027261Y-130025714D01*
X99932023Y-130073333D01*
X99884404Y-130168571D01*
X99884404Y-130263809D01*
X100360595Y-130359047D01*
X99455833Y-130692380D02*
X99455833Y-130025714D01*
X99455833Y-130120952D02*
X99408214Y-130073333D01*
X99312976Y-130025714D01*
X99170119Y-130025714D01*
X99074880Y-130073333D01*
X99027261Y-130168571D01*
X99027261Y-130692380D01*
X99027261Y-130168571D02*
X98979642Y-130073333D01*
X98884404Y-130025714D01*
X98741547Y-130025714D01*
X98646309Y-130073333D01*
X98598690Y-130168571D01*
X98598690Y-130692380D01*
X97979642Y-130692380D02*
X98074880Y-130644761D01*
X98122500Y-130597142D01*
X98170119Y-130501904D01*
X98170119Y-130216190D01*
X98122500Y-130120952D01*
X98074880Y-130073333D01*
X97979642Y-130025714D01*
X97836785Y-130025714D01*
X97741547Y-130073333D01*
X97693928Y-130120952D01*
X97646309Y-130216190D01*
X97646309Y-130501904D01*
X97693928Y-130597142D01*
X97741547Y-130644761D01*
X97836785Y-130692380D01*
X97979642Y-130692380D01*
X97217738Y-130692380D02*
X97217738Y-130025714D01*
X97217738Y-130216190D02*
X97170119Y-130120952D01*
X97122500Y-130073333D01*
X97027261Y-130025714D01*
X96932023Y-130025714D01*
X96693928Y-130025714D02*
X96455833Y-130692380D01*
X96217738Y-130025714D02*
X96455833Y-130692380D01*
X96551071Y-130930476D01*
X96598690Y-130978095D01*
X96693928Y-131025714D01*
X95503452Y-130168571D02*
X95360595Y-130216190D01*
X95312976Y-130263809D01*
X95265357Y-130359047D01*
X95265357Y-130501904D01*
X95312976Y-130597142D01*
X95360595Y-130644761D01*
X95455833Y-130692380D01*
X95836785Y-130692380D01*
X95836785Y-129692380D01*
X95503452Y-129692380D01*
X95408214Y-129740000D01*
X95360595Y-129787619D01*
X95312976Y-129882857D01*
X95312976Y-129978095D01*
X95360595Y-130073333D01*
X95408214Y-130120952D01*
X95503452Y-130168571D01*
X95836785Y-130168571D01*
X94408214Y-130692380D02*
X94408214Y-130168571D01*
X94455833Y-130073333D01*
X94551071Y-130025714D01*
X94741547Y-130025714D01*
X94836785Y-130073333D01*
X94408214Y-130644761D02*
X94503452Y-130692380D01*
X94741547Y-130692380D01*
X94836785Y-130644761D01*
X94884404Y-130549523D01*
X94884404Y-130454285D01*
X94836785Y-130359047D01*
X94741547Y-130311428D01*
X94503452Y-130311428D01*
X94408214Y-130263809D01*
X93503452Y-130644761D02*
X93598690Y-130692380D01*
X93789166Y-130692380D01*
X93884404Y-130644761D01*
X93932023Y-130597142D01*
X93979642Y-130501904D01*
X93979642Y-130216190D01*
X93932023Y-130120952D01*
X93884404Y-130073333D01*
X93789166Y-130025714D01*
X93598690Y-130025714D01*
X93503452Y-130073333D01*
X93074880Y-130692380D02*
X93074880Y-129692380D01*
X92979642Y-130311428D02*
X92693928Y-130692380D01*
X92693928Y-130025714D02*
X93074880Y-130406666D01*
X91836785Y-130025714D02*
X91836785Y-130692380D01*
X92265357Y-130025714D02*
X92265357Y-130549523D01*
X92217738Y-130644761D01*
X92122500Y-130692380D01*
X91979642Y-130692380D01*
X91884404Y-130644761D01*
X91836785Y-130597142D01*
X91360595Y-130025714D02*
X91360595Y-131025714D01*
X91360595Y-130073333D02*
X91265357Y-130025714D01*
X91074880Y-130025714D01*
X90979642Y-130073333D01*
X90932023Y-130120952D01*
X90884404Y-130216190D01*
X90884404Y-130501904D01*
X90932023Y-130597142D01*
X90979642Y-130644761D01*
X91074880Y-130692380D01*
X91265357Y-130692380D01*
X91360595Y-130644761D01*
X89693928Y-130692380D02*
X89693928Y-129692380D01*
X89693928Y-130168571D02*
X89122500Y-130168571D01*
X89122500Y-130692380D02*
X89122500Y-129692380D01*
X88503452Y-130692380D02*
X88598690Y-130644761D01*
X88646309Y-130597142D01*
X88693928Y-130501904D01*
X88693928Y-130216190D01*
X88646309Y-130120952D01*
X88598690Y-130073333D01*
X88503452Y-130025714D01*
X88360595Y-130025714D01*
X88265357Y-130073333D01*
X88217738Y-130120952D01*
X88170119Y-130216190D01*
X88170119Y-130501904D01*
X88217738Y-130597142D01*
X88265357Y-130644761D01*
X88360595Y-130692380D01*
X88503452Y-130692380D01*
X87741547Y-130692380D02*
X87741547Y-130025714D01*
X87741547Y-130120952D02*
X87693928Y-130073333D01*
X87598690Y-130025714D01*
X87455833Y-130025714D01*
X87360595Y-130073333D01*
X87312976Y-130168571D01*
X87312976Y-130692380D01*
X87312976Y-130168571D02*
X87265357Y-130073333D01*
X87170119Y-130025714D01*
X87027261Y-130025714D01*
X86932023Y-130073333D01*
X86884404Y-130168571D01*
X86884404Y-130692380D01*
X86027261Y-130644761D02*
X86122500Y-130692380D01*
X86312976Y-130692380D01*
X86408214Y-130644761D01*
X86455833Y-130549523D01*
X86455833Y-130168571D01*
X86408214Y-130073333D01*
X86312976Y-130025714D01*
X86122500Y-130025714D01*
X86027261Y-130073333D01*
X85979642Y-130168571D01*
X85979642Y-130263809D01*
X86455833Y-130359047D01*
X85551071Y-130692380D02*
X85551071Y-129692380D01*
X85551071Y-130073333D02*
X85455833Y-130025714D01*
X85265357Y-130025714D01*
X85170119Y-130073333D01*
X85122500Y-130120952D01*
X85074880Y-130216190D01*
X85074880Y-130501904D01*
X85122500Y-130597142D01*
X85170119Y-130644761D01*
X85265357Y-130692380D01*
X85455833Y-130692380D01*
X85551071Y-130644761D01*
X84646309Y-130692380D02*
X84646309Y-130025714D01*
X84646309Y-130216190D02*
X84598690Y-130120952D01*
X84551071Y-130073333D01*
X84455833Y-130025714D01*
X84360595Y-130025714D01*
X83646309Y-130644761D02*
X83741547Y-130692380D01*
X83932023Y-130692380D01*
X84027261Y-130644761D01*
X84074880Y-130549523D01*
X84074880Y-130168571D01*
X84027261Y-130073333D01*
X83932023Y-130025714D01*
X83741547Y-130025714D01*
X83646309Y-130073333D01*
X83598690Y-130168571D01*
X83598690Y-130263809D01*
X84074880Y-130359047D01*
X83265357Y-130025714D02*
X83074880Y-130692380D01*
X82884404Y-130216190D01*
X82693928Y-130692380D01*
X82503452Y-130025714D01*
X81455833Y-130025714D02*
X81217738Y-130692380D01*
X80979642Y-130025714D01*
X80074880Y-130692380D02*
X80646309Y-130692380D01*
X80360595Y-130692380D02*
X80360595Y-129692380D01*
X80455833Y-129835238D01*
X80551071Y-129930476D01*
X80646309Y-129978095D01*
X79646309Y-130597142D02*
X79598690Y-130644761D01*
X79646309Y-130692380D01*
X79693928Y-130644761D01*
X79646309Y-130597142D01*
X79646309Y-130692380D01*
X79265357Y-129692380D02*
X78646309Y-129692380D01*
X78979642Y-130073333D01*
X78836785Y-130073333D01*
X78741547Y-130120952D01*
X78693928Y-130168571D01*
X78646309Y-130263809D01*
X78646309Y-130501904D01*
X78693928Y-130597142D01*
X78741547Y-130644761D01*
X78836785Y-130692380D01*
X79122500Y-130692380D01*
X79217738Y-130644761D01*
X79265357Y-130597142D01*
X108884404Y-132342380D02*
X108884404Y-131342380D01*
X108455833Y-132342380D02*
X108455833Y-131818571D01*
X108503452Y-131723333D01*
X108598690Y-131675714D01*
X108741547Y-131675714D01*
X108836785Y-131723333D01*
X108884404Y-131770952D01*
X108122500Y-131675714D02*
X107741547Y-131675714D01*
X107979642Y-131342380D02*
X107979642Y-132199523D01*
X107932023Y-132294761D01*
X107836785Y-132342380D01*
X107741547Y-132342380D01*
X107551071Y-131675714D02*
X107170119Y-131675714D01*
X107408214Y-131342380D02*
X107408214Y-132199523D01*
X107360595Y-132294761D01*
X107265357Y-132342380D01*
X107170119Y-132342380D01*
X106836785Y-131675714D02*
X106836785Y-132675714D01*
X106836785Y-131723333D02*
X106741547Y-131675714D01*
X106551071Y-131675714D01*
X106455833Y-131723333D01*
X106408214Y-131770952D01*
X106360595Y-131866190D01*
X106360595Y-132151904D01*
X106408214Y-132247142D01*
X106455833Y-132294761D01*
X106551071Y-132342380D01*
X106741547Y-132342380D01*
X106836785Y-132294761D01*
X105979642Y-132294761D02*
X105884404Y-132342380D01*
X105693928Y-132342380D01*
X105598690Y-132294761D01*
X105551071Y-132199523D01*
X105551071Y-132151904D01*
X105598690Y-132056666D01*
X105693928Y-132009047D01*
X105836785Y-132009047D01*
X105932023Y-131961428D01*
X105979642Y-131866190D01*
X105979642Y-131818571D01*
X105932023Y-131723333D01*
X105836785Y-131675714D01*
X105693928Y-131675714D01*
X105598690Y-131723333D01*
X105122500Y-132247142D02*
X105074880Y-132294761D01*
X105122500Y-132342380D01*
X105170119Y-132294761D01*
X105122500Y-132247142D01*
X105122500Y-132342380D01*
X105122500Y-131723333D02*
X105074880Y-131770952D01*
X105122500Y-131818571D01*
X105170119Y-131770952D01*
X105122500Y-131723333D01*
X105122500Y-131818571D01*
X103932023Y-131294761D02*
X104789166Y-132580476D01*
X102884404Y-131294761D02*
X103741547Y-132580476D01*
X102122500Y-131675714D02*
X102122500Y-132485238D01*
X102170119Y-132580476D01*
X102217738Y-132628095D01*
X102312976Y-132675714D01*
X102455833Y-132675714D01*
X102551071Y-132628095D01*
X102122500Y-132294761D02*
X102217738Y-132342380D01*
X102408214Y-132342380D01*
X102503452Y-132294761D01*
X102551071Y-132247142D01*
X102598690Y-132151904D01*
X102598690Y-131866190D01*
X102551071Y-131770952D01*
X102503452Y-131723333D01*
X102408214Y-131675714D01*
X102217738Y-131675714D01*
X102122500Y-131723333D01*
X101646309Y-132342380D02*
X101646309Y-131675714D01*
X101646309Y-131342380D02*
X101693928Y-131390000D01*
X101646309Y-131437619D01*
X101598690Y-131390000D01*
X101646309Y-131342380D01*
X101646309Y-131437619D01*
X101312976Y-131675714D02*
X100932023Y-131675714D01*
X101170119Y-131342380D02*
X101170119Y-132199523D01*
X101122500Y-132294761D01*
X101027261Y-132342380D01*
X100932023Y-132342380D01*
X100598690Y-132342380D02*
X100598690Y-131342380D01*
X100170119Y-132342380D02*
X100170119Y-131818571D01*
X100217738Y-131723333D01*
X100312976Y-131675714D01*
X100455833Y-131675714D01*
X100551071Y-131723333D01*
X100598690Y-131770952D01*
X99265357Y-131675714D02*
X99265357Y-132342380D01*
X99693928Y-131675714D02*
X99693928Y-132199523D01*
X99646309Y-132294761D01*
X99551071Y-132342380D01*
X99408214Y-132342380D01*
X99312976Y-132294761D01*
X99265357Y-132247142D01*
X98789166Y-132342380D02*
X98789166Y-131342380D01*
X98789166Y-131723333D02*
X98693928Y-131675714D01*
X98503452Y-131675714D01*
X98408214Y-131723333D01*
X98360595Y-131770952D01*
X98312976Y-131866190D01*
X98312976Y-132151904D01*
X98360595Y-132247142D01*
X98408214Y-132294761D01*
X98503452Y-132342380D01*
X98693928Y-132342380D01*
X98789166Y-132294761D01*
X97884404Y-132247142D02*
X97836785Y-132294761D01*
X97884404Y-132342380D01*
X97932023Y-132294761D01*
X97884404Y-132247142D01*
X97884404Y-132342380D01*
X96979642Y-132294761D02*
X97074880Y-132342380D01*
X97265357Y-132342380D01*
X97360595Y-132294761D01*
X97408214Y-132247142D01*
X97455833Y-132151904D01*
X97455833Y-131866190D01*
X97408214Y-131770952D01*
X97360595Y-131723333D01*
X97265357Y-131675714D01*
X97074880Y-131675714D01*
X96979642Y-131723333D01*
X96408214Y-132342380D02*
X96503452Y-132294761D01*
X96551071Y-132247142D01*
X96598690Y-132151904D01*
X96598690Y-131866190D01*
X96551071Y-131770952D01*
X96503452Y-131723333D01*
X96408214Y-131675714D01*
X96265357Y-131675714D01*
X96170119Y-131723333D01*
X96122500Y-131770952D01*
X96074880Y-131866190D01*
X96074880Y-132151904D01*
X96122500Y-132247142D01*
X96170119Y-132294761D01*
X96265357Y-132342380D01*
X96408214Y-132342380D01*
X95646309Y-132342380D02*
X95646309Y-131675714D01*
X95646309Y-131770952D02*
X95598690Y-131723333D01*
X95503452Y-131675714D01*
X95360595Y-131675714D01*
X95265357Y-131723333D01*
X95217738Y-131818571D01*
X95217738Y-132342380D01*
X95217738Y-131818571D02*
X95170119Y-131723333D01*
X95074880Y-131675714D01*
X94932023Y-131675714D01*
X94836785Y-131723333D01*
X94789166Y-131818571D01*
X94789166Y-132342380D01*
X93598690Y-131294761D02*
X94455833Y-132580476D01*
X93312976Y-132294761D02*
X93170119Y-132342380D01*
X92932023Y-132342380D01*
X92836785Y-132294761D01*
X92789166Y-132247142D01*
X92741547Y-132151904D01*
X92741547Y-132056666D01*
X92789166Y-131961428D01*
X92836785Y-131913809D01*
X92932023Y-131866190D01*
X93122500Y-131818571D01*
X93217738Y-131770952D01*
X93265357Y-131723333D01*
X93312976Y-131628095D01*
X93312976Y-131532857D01*
X93265357Y-131437619D01*
X93217738Y-131390000D01*
X93122500Y-131342380D01*
X92884404Y-131342380D01*
X92741547Y-131390000D01*
X92122500Y-131342380D02*
X91932023Y-131342380D01*
X91836785Y-131390000D01*
X91741547Y-131485238D01*
X91693928Y-131675714D01*
X91693928Y-132009047D01*
X91741547Y-132199523D01*
X91836785Y-132294761D01*
X91932023Y-132342380D01*
X92122500Y-132342380D01*
X92217738Y-132294761D01*
X92312976Y-132199523D01*
X92360595Y-132009047D01*
X92360595Y-131675714D01*
X92312976Y-131485238D01*
X92217738Y-131390000D01*
X92122500Y-131342380D01*
X91265357Y-132342380D02*
X91265357Y-131342380D01*
X90693928Y-132342380D01*
X90693928Y-131342380D01*
X90217738Y-132342380D02*
X90217738Y-131342380D01*
X89170119Y-132247142D02*
X89217738Y-132294761D01*
X89360595Y-132342380D01*
X89455833Y-132342380D01*
X89598690Y-132294761D01*
X89693928Y-132199523D01*
X89741547Y-132104285D01*
X89789166Y-131913809D01*
X89789166Y-131770952D01*
X89741547Y-131580476D01*
X89693928Y-131485238D01*
X89598690Y-131390000D01*
X89455833Y-131342380D01*
X89360595Y-131342380D01*
X89217738Y-131390000D01*
X89170119Y-131437619D01*
X88836785Y-131342380D02*
X88217738Y-131342380D01*
X88551071Y-131723333D01*
X88408214Y-131723333D01*
X88312976Y-131770952D01*
X88265357Y-131818571D01*
X88217738Y-131913809D01*
X88217738Y-132151904D01*
X88265357Y-132247142D01*
X88312976Y-132294761D01*
X88408214Y-132342380D01*
X88693928Y-132342380D01*
X88789166Y-132294761D01*
X88836785Y-132247142D01*
X87789166Y-132342380D02*
X87789166Y-131342380D01*
X87551071Y-131342380D01*
X87408214Y-131390000D01*
X87312976Y-131485238D01*
X87265357Y-131580476D01*
X87217738Y-131770952D01*
X87217738Y-131913809D01*
X87265357Y-132104285D01*
X87312976Y-132199523D01*
X87408214Y-132294761D01*
X87551071Y-132342380D01*
X87789166Y-132342380D01*
X86074880Y-131294761D02*
X86932023Y-132580476D01*
X85312976Y-131675714D02*
X85312976Y-132485238D01*
X85360595Y-132580476D01*
X85408214Y-132628095D01*
X85503452Y-132675714D01*
X85646309Y-132675714D01*
X85741547Y-132628095D01*
X85312976Y-132294761D02*
X85408214Y-132342380D01*
X85598690Y-132342380D01*
X85693928Y-132294761D01*
X85741547Y-132247142D01*
X85789166Y-132151904D01*
X85789166Y-131866190D01*
X85741547Y-131770952D01*
X85693928Y-131723333D01*
X85598690Y-131675714D01*
X85408214Y-131675714D01*
X85312976Y-131723333D01*
X84408214Y-132342380D02*
X84408214Y-131818571D01*
X84455833Y-131723333D01*
X84551071Y-131675714D01*
X84741547Y-131675714D01*
X84836785Y-131723333D01*
X84408214Y-132294761D02*
X84503452Y-132342380D01*
X84741547Y-132342380D01*
X84836785Y-132294761D01*
X84884404Y-132199523D01*
X84884404Y-132104285D01*
X84836785Y-132009047D01*
X84741547Y-131961428D01*
X84503452Y-131961428D01*
X84408214Y-131913809D01*
X83932023Y-132342380D02*
X83932023Y-131675714D01*
X83932023Y-131770952D02*
X83884404Y-131723333D01*
X83789166Y-131675714D01*
X83646309Y-131675714D01*
X83551071Y-131723333D01*
X83503452Y-131818571D01*
X83503452Y-132342380D01*
X83503452Y-131818571D02*
X83455833Y-131723333D01*
X83360595Y-131675714D01*
X83217738Y-131675714D01*
X83122500Y-131723333D01*
X83074880Y-131818571D01*
X83074880Y-132342380D01*
X82217738Y-132294761D02*
X82312976Y-132342380D01*
X82503452Y-132342380D01*
X82598690Y-132294761D01*
X82646309Y-132199523D01*
X82646309Y-131818571D01*
X82598690Y-131723333D01*
X82503452Y-131675714D01*
X82312976Y-131675714D01*
X82217738Y-131723333D01*
X82170119Y-131818571D01*
X82170119Y-131913809D01*
X82646309Y-132009047D01*
X81741547Y-132342380D02*
X81741547Y-131342380D01*
X81741547Y-131723333D02*
X81646309Y-131675714D01*
X81455833Y-131675714D01*
X81360595Y-131723333D01*
X81312976Y-131770952D01*
X81265357Y-131866190D01*
X81265357Y-132151904D01*
X81312976Y-132247142D01*
X81360595Y-132294761D01*
X81455833Y-132342380D01*
X81646309Y-132342380D01*
X81741547Y-132294761D01*
X80693928Y-132342380D02*
X80789166Y-132294761D01*
X80836785Y-132247142D01*
X80884404Y-132151904D01*
X80884404Y-131866190D01*
X80836785Y-131770952D01*
X80789166Y-131723333D01*
X80693928Y-131675714D01*
X80551071Y-131675714D01*
X80455833Y-131723333D01*
X80408214Y-131770952D01*
X80360595Y-131866190D01*
X80360595Y-132151904D01*
X80408214Y-132247142D01*
X80455833Y-132294761D01*
X80551071Y-132342380D01*
X80693928Y-132342380D01*
X80027261Y-131675714D02*
X79789166Y-132342380D01*
X79551071Y-131675714D02*
X79789166Y-132342380D01*
X79884404Y-132580476D01*
X79932023Y-132628095D01*
X80027261Y-132675714D01*
X79170119Y-131961428D02*
X78408214Y-131961428D01*
X77932023Y-132342380D02*
X77932023Y-131675714D01*
X77932023Y-131770952D02*
X77884404Y-131723333D01*
X77789166Y-131675714D01*
X77646309Y-131675714D01*
X77551071Y-131723333D01*
X77503452Y-131818571D01*
X77503452Y-132342380D01*
X77503452Y-131818571D02*
X77455833Y-131723333D01*
X77360595Y-131675714D01*
X77217738Y-131675714D01*
X77122500Y-131723333D01*
X77074880Y-131818571D01*
X77074880Y-132342380D01*
X76217738Y-132294761D02*
X76312976Y-132342380D01*
X76503452Y-132342380D01*
X76598690Y-132294761D01*
X76646309Y-132199523D01*
X76646309Y-131818571D01*
X76598690Y-131723333D01*
X76503452Y-131675714D01*
X76312976Y-131675714D01*
X76217738Y-131723333D01*
X76170119Y-131818571D01*
X76170119Y-131913809D01*
X76646309Y-132009047D01*
X75741547Y-132342380D02*
X75741547Y-131675714D01*
X75741547Y-131770952D02*
X75693928Y-131723333D01*
X75598690Y-131675714D01*
X75455833Y-131675714D01*
X75360595Y-131723333D01*
X75312976Y-131818571D01*
X75312976Y-132342380D01*
X75312976Y-131818571D02*
X75265357Y-131723333D01*
X75170119Y-131675714D01*
X75027261Y-131675714D01*
X74932023Y-131723333D01*
X74884404Y-131818571D01*
X74884404Y-132342380D01*
X74265357Y-132342380D02*
X74360595Y-132294761D01*
X74408214Y-132247142D01*
X74455833Y-132151904D01*
X74455833Y-131866190D01*
X74408214Y-131770952D01*
X74360595Y-131723333D01*
X74265357Y-131675714D01*
X74122500Y-131675714D01*
X74027261Y-131723333D01*
X73979642Y-131770952D01*
X73932023Y-131866190D01*
X73932023Y-132151904D01*
X73979642Y-132247142D01*
X74027261Y-132294761D01*
X74122500Y-132342380D01*
X74265357Y-132342380D01*
X73503452Y-132342380D02*
X73503452Y-131675714D01*
X73503452Y-131866190D02*
X73455833Y-131770952D01*
X73408214Y-131723333D01*
X73312976Y-131675714D01*
X73217738Y-131675714D01*
X72979642Y-131675714D02*
X72741547Y-132342380D01*
X72503452Y-131675714D02*
X72741547Y-132342380D01*
X72836785Y-132580476D01*
X72884404Y-132628095D01*
X72979642Y-132675714D01*
X72122500Y-132342380D02*
X72122500Y-131342380D01*
X72122500Y-131723333D02*
X72027261Y-131675714D01*
X71836785Y-131675714D01*
X71741547Y-131723333D01*
X71693928Y-131770952D01*
X71646309Y-131866190D01*
X71646309Y-132151904D01*
X71693928Y-132247142D01*
X71741547Y-132294761D01*
X71836785Y-132342380D01*
X72027261Y-132342380D01*
X72122500Y-132294761D01*
X70789166Y-132342380D02*
X70789166Y-131818571D01*
X70836785Y-131723333D01*
X70932023Y-131675714D01*
X71122500Y-131675714D01*
X71217738Y-131723333D01*
X70789166Y-132294761D02*
X70884404Y-132342380D01*
X71122500Y-132342380D01*
X71217738Y-132294761D01*
X71265357Y-132199523D01*
X71265357Y-132104285D01*
X71217738Y-132009047D01*
X71122500Y-131961428D01*
X70884404Y-131961428D01*
X70789166Y-131913809D01*
X69884404Y-132294761D02*
X69979642Y-132342380D01*
X70170119Y-132342380D01*
X70265357Y-132294761D01*
X70312976Y-132247142D01*
X70360595Y-132151904D01*
X70360595Y-131866190D01*
X70312976Y-131770952D01*
X70265357Y-131723333D01*
X70170119Y-131675714D01*
X69979642Y-131675714D01*
X69884404Y-131723333D01*
X69455833Y-132342380D02*
X69455833Y-131342380D01*
X69360595Y-131961428D02*
X69074880Y-132342380D01*
X69074880Y-131675714D02*
X69455833Y-132056666D01*
X68217738Y-131675714D02*
X68217738Y-132342380D01*
X68646309Y-131675714D02*
X68646309Y-132199523D01*
X68598690Y-132294761D01*
X68503452Y-132342380D01*
X68360595Y-132342380D01*
X68265357Y-132294761D01*
X68217738Y-132247142D01*
X67741547Y-131675714D02*
X67741547Y-132675714D01*
X67741547Y-131723333D02*
X67646309Y-131675714D01*
X67455833Y-131675714D01*
X67360595Y-131723333D01*
X67312976Y-131770952D01*
X67265357Y-131866190D01*
X67265357Y-132151904D01*
X67312976Y-132247142D01*
X67360595Y-132294761D01*
X67455833Y-132342380D01*
X67646309Y-132342380D01*
X67741547Y-132294761D01*
X108884404Y-133992380D02*
X108884404Y-132992380D01*
X108646309Y-132992380D01*
X108503452Y-133040000D01*
X108408214Y-133135238D01*
X108360595Y-133230476D01*
X108312976Y-133420952D01*
X108312976Y-133563809D01*
X108360595Y-133754285D01*
X108408214Y-133849523D01*
X108503452Y-133944761D01*
X108646309Y-133992380D01*
X108884404Y-133992380D01*
X107503452Y-133944761D02*
X107598690Y-133992380D01*
X107789166Y-133992380D01*
X107884404Y-133944761D01*
X107932023Y-133849523D01*
X107932023Y-133468571D01*
X107884404Y-133373333D01*
X107789166Y-133325714D01*
X107598690Y-133325714D01*
X107503452Y-133373333D01*
X107455833Y-133468571D01*
X107455833Y-133563809D01*
X107932023Y-133659047D01*
X107074880Y-133944761D02*
X106979642Y-133992380D01*
X106789166Y-133992380D01*
X106693928Y-133944761D01*
X106646309Y-133849523D01*
X106646309Y-133801904D01*
X106693928Y-133706666D01*
X106789166Y-133659047D01*
X106932023Y-133659047D01*
X107027261Y-133611428D01*
X107074880Y-133516190D01*
X107074880Y-133468571D01*
X107027261Y-133373333D01*
X106932023Y-133325714D01*
X106789166Y-133325714D01*
X106693928Y-133373333D01*
X106217738Y-133992380D02*
X106217738Y-133325714D01*
X106217738Y-132992380D02*
X106265357Y-133040000D01*
X106217738Y-133087619D01*
X106170119Y-133040000D01*
X106217738Y-132992380D01*
X106217738Y-133087619D01*
X105312976Y-133325714D02*
X105312976Y-134135238D01*
X105360595Y-134230476D01*
X105408214Y-134278095D01*
X105503452Y-134325714D01*
X105646309Y-134325714D01*
X105741547Y-134278095D01*
X105312976Y-133944761D02*
X105408214Y-133992380D01*
X105598690Y-133992380D01*
X105693928Y-133944761D01*
X105741547Y-133897142D01*
X105789166Y-133801904D01*
X105789166Y-133516190D01*
X105741547Y-133420952D01*
X105693928Y-133373333D01*
X105598690Y-133325714D01*
X105408214Y-133325714D01*
X105312976Y-133373333D01*
X104836785Y-133325714D02*
X104836785Y-133992380D01*
X104836785Y-133420952D02*
X104789166Y-133373333D01*
X104693928Y-133325714D01*
X104551071Y-133325714D01*
X104455833Y-133373333D01*
X104408214Y-133468571D01*
X104408214Y-133992380D01*
X103551071Y-133944761D02*
X103646309Y-133992380D01*
X103836785Y-133992380D01*
X103932023Y-133944761D01*
X103979642Y-133849523D01*
X103979642Y-133468571D01*
X103932023Y-133373333D01*
X103836785Y-133325714D01*
X103646309Y-133325714D01*
X103551071Y-133373333D01*
X103503452Y-133468571D01*
X103503452Y-133563809D01*
X103979642Y-133659047D01*
X102646309Y-133992380D02*
X102646309Y-132992380D01*
X102646309Y-133944761D02*
X102741547Y-133992380D01*
X102932023Y-133992380D01*
X103027261Y-133944761D01*
X103074880Y-133897142D01*
X103122500Y-133801904D01*
X103122500Y-133516190D01*
X103074880Y-133420952D01*
X103027261Y-133373333D01*
X102932023Y-133325714D01*
X102741547Y-133325714D01*
X102646309Y-133373333D01*
X101408214Y-133992380D02*
X101408214Y-133325714D01*
X101408214Y-132992380D02*
X101455833Y-133040000D01*
X101408214Y-133087619D01*
X101360595Y-133040000D01*
X101408214Y-132992380D01*
X101408214Y-133087619D01*
X100932023Y-133325714D02*
X100932023Y-133992380D01*
X100932023Y-133420952D02*
X100884404Y-133373333D01*
X100789166Y-133325714D01*
X100646309Y-133325714D01*
X100551071Y-133373333D01*
X100503452Y-133468571D01*
X100503452Y-133992380D01*
X99312976Y-133944761D02*
X99170119Y-133992380D01*
X98932023Y-133992380D01*
X98836785Y-133944761D01*
X98789166Y-133897142D01*
X98741547Y-133801904D01*
X98741547Y-133706666D01*
X98789166Y-133611428D01*
X98836785Y-133563809D01*
X98932023Y-133516190D01*
X99122500Y-133468571D01*
X99217738Y-133420952D01*
X99265357Y-133373333D01*
X99312976Y-133278095D01*
X99312976Y-133182857D01*
X99265357Y-133087619D01*
X99217738Y-133040000D01*
X99122500Y-132992380D01*
X98884404Y-132992380D01*
X98741547Y-133040000D01*
X98312976Y-133992380D02*
X98312976Y-132992380D01*
X97884404Y-133992380D02*
X97884404Y-133468571D01*
X97932023Y-133373333D01*
X98027261Y-133325714D01*
X98170119Y-133325714D01*
X98265357Y-133373333D01*
X98312976Y-133420952D01*
X96979642Y-133992380D02*
X96979642Y-133468571D01*
X97027261Y-133373333D01*
X97122500Y-133325714D01*
X97312976Y-133325714D01*
X97408214Y-133373333D01*
X96979642Y-133944761D02*
X97074880Y-133992380D01*
X97312976Y-133992380D01*
X97408214Y-133944761D01*
X97455833Y-133849523D01*
X97455833Y-133754285D01*
X97408214Y-133659047D01*
X97312976Y-133611428D01*
X97074880Y-133611428D01*
X96979642Y-133563809D01*
X96503452Y-133325714D02*
X96503452Y-133992380D01*
X96503452Y-133420952D02*
X96455833Y-133373333D01*
X96360595Y-133325714D01*
X96217738Y-133325714D01*
X96122500Y-133373333D01*
X96074880Y-133468571D01*
X96074880Y-133992380D01*
X95170119Y-133325714D02*
X95170119Y-134135238D01*
X95217738Y-134230476D01*
X95265357Y-134278095D01*
X95360595Y-134325714D01*
X95503452Y-134325714D01*
X95598690Y-134278095D01*
X95170119Y-133944761D02*
X95265357Y-133992380D01*
X95455833Y-133992380D01*
X95551071Y-133944761D01*
X95598690Y-133897142D01*
X95646309Y-133801904D01*
X95646309Y-133516190D01*
X95598690Y-133420952D01*
X95551071Y-133373333D01*
X95455833Y-133325714D01*
X95265357Y-133325714D01*
X95170119Y-133373333D01*
X94693928Y-133992380D02*
X94693928Y-132992380D01*
X94265357Y-133992380D02*
X94265357Y-133468571D01*
X94312976Y-133373333D01*
X94408214Y-133325714D01*
X94551071Y-133325714D01*
X94646309Y-133373333D01*
X94693928Y-133420952D01*
X93360595Y-133992380D02*
X93360595Y-133468571D01*
X93408214Y-133373333D01*
X93503452Y-133325714D01*
X93693928Y-133325714D01*
X93789166Y-133373333D01*
X93360595Y-133944761D02*
X93455833Y-133992380D01*
X93693928Y-133992380D01*
X93789166Y-133944761D01*
X93836785Y-133849523D01*
X93836785Y-133754285D01*
X93789166Y-133659047D01*
X93693928Y-133611428D01*
X93455833Y-133611428D01*
X93360595Y-133563809D01*
X92884404Y-133992380D02*
X92884404Y-133325714D01*
X92884404Y-132992380D02*
X92932023Y-133040000D01*
X92884404Y-133087619D01*
X92836785Y-133040000D01*
X92884404Y-132992380D01*
X92884404Y-133087619D01*
X92360595Y-133944761D02*
X92360595Y-133992380D01*
X92408214Y-134087619D01*
X92455833Y-134135238D01*
X91170119Y-133992380D02*
X91170119Y-132992380D01*
X91170119Y-133373333D02*
X91074880Y-133325714D01*
X90884404Y-133325714D01*
X90789166Y-133373333D01*
X90741547Y-133420952D01*
X90693928Y-133516190D01*
X90693928Y-133801904D01*
X90741547Y-133897142D01*
X90789166Y-133944761D01*
X90884404Y-133992380D01*
X91074880Y-133992380D01*
X91170119Y-133944761D01*
X90360595Y-133325714D02*
X90122500Y-133992380D01*
X89884404Y-133325714D02*
X90122500Y-133992380D01*
X90217738Y-134230476D01*
X90265357Y-134278095D01*
X90360595Y-134325714D01*
X88789166Y-133944761D02*
X88646309Y-133992380D01*
X88408214Y-133992380D01*
X88312976Y-133944761D01*
X88265357Y-133897142D01*
X88217738Y-133801904D01*
X88217738Y-133706666D01*
X88265357Y-133611428D01*
X88312976Y-133563809D01*
X88408214Y-133516190D01*
X88598690Y-133468571D01*
X88693928Y-133420952D01*
X88741547Y-133373333D01*
X88789166Y-133278095D01*
X88789166Y-133182857D01*
X88741547Y-133087619D01*
X88693928Y-133040000D01*
X88598690Y-132992380D01*
X88360595Y-132992380D01*
X88217738Y-133040000D01*
X87598690Y-132992380D02*
X87408214Y-132992380D01*
X87312976Y-133040000D01*
X87217738Y-133135238D01*
X87170119Y-133325714D01*
X87170119Y-133659047D01*
X87217738Y-133849523D01*
X87312976Y-133944761D01*
X87408214Y-133992380D01*
X87598690Y-133992380D01*
X87693928Y-133944761D01*
X87789166Y-133849523D01*
X87836785Y-133659047D01*
X87836785Y-133325714D01*
X87789166Y-133135238D01*
X87693928Y-133040000D01*
X87598690Y-132992380D01*
X86741547Y-133992380D02*
X86741547Y-132992380D01*
X86170119Y-133992380D01*
X86170119Y-132992380D01*
X85693928Y-133992380D02*
X85693928Y-132992380D01*
X84646309Y-133897142D02*
X84693928Y-133944761D01*
X84836785Y-133992380D01*
X84932023Y-133992380D01*
X85074880Y-133944761D01*
X85170119Y-133849523D01*
X85217738Y-133754285D01*
X85265357Y-133563809D01*
X85265357Y-133420952D01*
X85217738Y-133230476D01*
X85170119Y-133135238D01*
X85074880Y-133040000D01*
X84932023Y-132992380D01*
X84836785Y-132992380D01*
X84693928Y-133040000D01*
X84646309Y-133087619D01*
X84312976Y-132992380D02*
X83693928Y-132992380D01*
X84027261Y-133373333D01*
X83884404Y-133373333D01*
X83789166Y-133420952D01*
X83741547Y-133468571D01*
X83693928Y-133563809D01*
X83693928Y-133801904D01*
X83741547Y-133897142D01*
X83789166Y-133944761D01*
X83884404Y-133992380D01*
X84170119Y-133992380D01*
X84265357Y-133944761D01*
X84312976Y-133897142D01*
X83265357Y-133992380D02*
X83265357Y-132992380D01*
X83027261Y-132992380D01*
X82884404Y-133040000D01*
X82789166Y-133135238D01*
X82741547Y-133230476D01*
X82693928Y-133420952D01*
X82693928Y-133563809D01*
X82741547Y-133754285D01*
X82789166Y-133849523D01*
X82884404Y-133944761D01*
X83027261Y-133992380D01*
X83265357Y-133992380D01*
X108932023Y-134737619D02*
X108884404Y-134690000D01*
X108789166Y-134642380D01*
X108551071Y-134642380D01*
X108455833Y-134690000D01*
X108408214Y-134737619D01*
X108360595Y-134832857D01*
X108360595Y-134928095D01*
X108408214Y-135070952D01*
X108979642Y-135642380D01*
X108360595Y-135642380D01*
X107741547Y-134642380D02*
X107646309Y-134642380D01*
X107551071Y-134690000D01*
X107503452Y-134737619D01*
X107455833Y-134832857D01*
X107408214Y-135023333D01*
X107408214Y-135261428D01*
X107455833Y-135451904D01*
X107503452Y-135547142D01*
X107551071Y-135594761D01*
X107646309Y-135642380D01*
X107741547Y-135642380D01*
X107836785Y-135594761D01*
X107884404Y-135547142D01*
X107932023Y-135451904D01*
X107979642Y-135261428D01*
X107979642Y-135023333D01*
X107932023Y-134832857D01*
X107884404Y-134737619D01*
X107836785Y-134690000D01*
X107741547Y-134642380D01*
X107027261Y-134737619D02*
X106979642Y-134690000D01*
X106884404Y-134642380D01*
X106646309Y-134642380D01*
X106551071Y-134690000D01*
X106503452Y-134737619D01*
X106455833Y-134832857D01*
X106455833Y-134928095D01*
X106503452Y-135070952D01*
X107074880Y-135642380D01*
X106455833Y-135642380D01*
X106122500Y-134642380D02*
X105503452Y-134642380D01*
X105836785Y-135023333D01*
X105693928Y-135023333D01*
X105598690Y-135070952D01*
X105551071Y-135118571D01*
X105503452Y-135213809D01*
X105503452Y-135451904D01*
X105551071Y-135547142D01*
X105598690Y-135594761D01*
X105693928Y-135642380D01*
X105979642Y-135642380D01*
X106074880Y-135594761D01*
X106122500Y-135547142D01*
X105074880Y-135547142D02*
X105027261Y-135594761D01*
X105074880Y-135642380D01*
X105122500Y-135594761D01*
X105074880Y-135547142D01*
X105074880Y-135642380D01*
X104598690Y-135642380D02*
X104598690Y-134642380D01*
X104265357Y-135356666D01*
X103932023Y-134642380D01*
X103932023Y-135642380D01*
X103027261Y-135642380D02*
X103027261Y-135118571D01*
X103074880Y-135023333D01*
X103170119Y-134975714D01*
X103360595Y-134975714D01*
X103455833Y-135023333D01*
X103027261Y-135594761D02*
X103122500Y-135642380D01*
X103360595Y-135642380D01*
X103455833Y-135594761D01*
X103503452Y-135499523D01*
X103503452Y-135404285D01*
X103455833Y-135309047D01*
X103360595Y-135261428D01*
X103122500Y-135261428D01*
X103027261Y-135213809D01*
X102551071Y-135642380D02*
X102551071Y-134975714D01*
X102551071Y-135166190D02*
X102503452Y-135070952D01*
X102455833Y-135023333D01*
X102360595Y-134975714D01*
X102265357Y-134975714D01*
X101932023Y-135547142D02*
X101884404Y-135594761D01*
X101932023Y-135642380D01*
X101979642Y-135594761D01*
X101932023Y-135547142D01*
X101932023Y-135642380D01*
X100932023Y-135642380D02*
X101503452Y-135642380D01*
X101217738Y-135642380D02*
X101217738Y-134642380D01*
X101312976Y-134785238D01*
X101408214Y-134880476D01*
X101503452Y-134928095D01*
X100455833Y-135642380D02*
X100265357Y-135642380D01*
X100170119Y-135594761D01*
X100122500Y-135547142D01*
X100027261Y-135404285D01*
X99979642Y-135213809D01*
X99979642Y-134832857D01*
X100027261Y-134737619D01*
X100074880Y-134690000D01*
X100170119Y-134642380D01*
X100360595Y-134642380D01*
X100455833Y-134690000D01*
X100503452Y-134737619D01*
X100551071Y-134832857D01*
X100551071Y-135070952D01*
X100503452Y-135166190D01*
X100455833Y-135213809D01*
X100360595Y-135261428D01*
X100170119Y-135261428D01*
X100074880Y-135213809D01*
X100027261Y-135166190D01*
X99979642Y-135070952D01*
D11*
%TO.C,G\u002A\u002A\u002A*%
G36*
X92963010Y-125687539D02*
G01*
X92891155Y-125746073D01*
X92789546Y-125835224D01*
X92666018Y-125948114D01*
X92528407Y-126077865D01*
X92525862Y-126080300D01*
X92385697Y-126211959D01*
X92256965Y-126328209D01*
X92148158Y-126421748D01*
X92067767Y-126485275D01*
X92024590Y-126511411D01*
X91981205Y-126535442D01*
X91949166Y-126591278D01*
X91920802Y-126693396D01*
X91915677Y-126716951D01*
X91840613Y-126943840D01*
X91711158Y-127184303D01*
X91532546Y-127430074D01*
X91311726Y-127671192D01*
X91194243Y-127783694D01*
X91083353Y-127884337D01*
X90991917Y-127961778D01*
X90934878Y-128003475D01*
X90864395Y-128053569D01*
X90837359Y-128091121D01*
X90858588Y-128107592D01*
X90876438Y-128107007D01*
X90929336Y-128099896D01*
X91019538Y-128086546D01*
X91074875Y-128078039D01*
X91207422Y-128061961D01*
X91345910Y-128051803D01*
X91384091Y-128050531D01*
X91466301Y-128044475D01*
X91534967Y-128023782D01*
X91608611Y-127979385D01*
X91705756Y-127902221D01*
X91731441Y-127880524D01*
X91902167Y-127718648D01*
X92079795Y-127520156D01*
X92258249Y-127294686D01*
X92431454Y-127051872D01*
X92593336Y-126801350D01*
X92737820Y-126552756D01*
X92858829Y-126315724D01*
X92950289Y-126099891D01*
X93006126Y-125914892D01*
X93018578Y-125839026D01*
X93025041Y-125731863D01*
X93015520Y-125677664D01*
X92997276Y-125666500D01*
X92963010Y-125687539D01*
G37*
X92963010Y-125687539D02*
X92891155Y-125746073D01*
X92789546Y-125835224D01*
X92666018Y-125948114D01*
X92528407Y-126077865D01*
X92525862Y-126080300D01*
X92385697Y-126211959D01*
X92256965Y-126328209D01*
X92148158Y-126421748D01*
X92067767Y-126485275D01*
X92024590Y-126511411D01*
X91981205Y-126535442D01*
X91949166Y-126591278D01*
X91920802Y-126693396D01*
X91915677Y-126716951D01*
X91840613Y-126943840D01*
X91711158Y-127184303D01*
X91532546Y-127430074D01*
X91311726Y-127671192D01*
X91194243Y-127783694D01*
X91083353Y-127884337D01*
X90991917Y-127961778D01*
X90934878Y-128003475D01*
X90864395Y-128053569D01*
X90837359Y-128091121D01*
X90858588Y-128107592D01*
X90876438Y-128107007D01*
X90929336Y-128099896D01*
X91019538Y-128086546D01*
X91074875Y-128078039D01*
X91207422Y-128061961D01*
X91345910Y-128051803D01*
X91384091Y-128050531D01*
X91466301Y-128044475D01*
X91534967Y-128023782D01*
X91608611Y-127979385D01*
X91705756Y-127902221D01*
X91731441Y-127880524D01*
X91902167Y-127718648D01*
X92079795Y-127520156D01*
X92258249Y-127294686D01*
X92431454Y-127051872D01*
X92593336Y-126801350D01*
X92737820Y-126552756D01*
X92858829Y-126315724D01*
X92950289Y-126099891D01*
X93006126Y-125914892D01*
X93018578Y-125839026D01*
X93025041Y-125731863D01*
X93015520Y-125677664D01*
X92997276Y-125666500D01*
X92963010Y-125687539D01*
G36*
X91332193Y-126886948D02*
G01*
X91341522Y-126893090D01*
X91358880Y-126931984D01*
X91356586Y-126991384D01*
X91357881Y-127082318D01*
X91379612Y-127166262D01*
X91401040Y-127237877D01*
X91385320Y-127286079D01*
X91361633Y-127311649D01*
X91322564Y-127346554D01*
X91322285Y-127333517D01*
X91338826Y-127299914D01*
X91354991Y-127231025D01*
X91345952Y-127192443D01*
X91319471Y-127182930D01*
X91274559Y-127219857D01*
X91207844Y-127304503D01*
X91151173Y-127391504D01*
X91117913Y-127460459D01*
X91114268Y-127491348D01*
X91115983Y-127507237D01*
X91106700Y-127500337D01*
X91064074Y-127497321D01*
X91037718Y-127512488D01*
X91011605Y-127554388D01*
X91031863Y-127592933D01*
X91051760Y-127641227D01*
X91027582Y-127676033D01*
X90998735Y-127695848D01*
X91004055Y-127663570D01*
X91005706Y-127658812D01*
X91010557Y-127611577D01*
X90977186Y-127612061D01*
X90908876Y-127659927D01*
X90897171Y-127669987D01*
X90824981Y-127729058D01*
X90730279Y-127801586D01*
X90686944Y-127833397D01*
X90614998Y-127892991D01*
X90574811Y-127941660D01*
X90571858Y-127960561D01*
X90563634Y-127977070D01*
X90523227Y-127969636D01*
X90469077Y-127964968D01*
X90455750Y-127982110D01*
X90479994Y-128013394D01*
X90544493Y-128012065D01*
X90636897Y-127981081D01*
X90744859Y-127923397D01*
X90770406Y-127906789D01*
X90907439Y-127809393D01*
X91026262Y-127715771D01*
X90953167Y-127715771D01*
X90938461Y-127757159D01*
X90926709Y-127762000D01*
X90915759Y-127751850D01*
X90868500Y-127751850D01*
X90845936Y-127786247D01*
X90791385Y-127840453D01*
X90724563Y-127897411D01*
X90665186Y-127940062D01*
X90636677Y-127952425D01*
X90640859Y-127934444D01*
X90682683Y-127889599D01*
X90700177Y-127873618D01*
X90787941Y-127796523D01*
X90838607Y-127754886D01*
X90862119Y-127741511D01*
X90868424Y-127749204D01*
X90868500Y-127751850D01*
X90915759Y-127751850D01*
X90900758Y-127737945D01*
X90900250Y-127732123D01*
X90922997Y-127688484D01*
X90926709Y-127685895D01*
X90949901Y-127695608D01*
X90953167Y-127715771D01*
X91026262Y-127715771D01*
X91030588Y-127712363D01*
X91129838Y-127624513D01*
X91151658Y-127601182D01*
X91114716Y-127601182D01*
X91110373Y-127603250D01*
X91081399Y-127580898D01*
X91074875Y-127571500D01*
X91066785Y-127541817D01*
X91071128Y-127539750D01*
X91100102Y-127562101D01*
X91106625Y-127571500D01*
X91114716Y-127601182D01*
X91151658Y-127601182D01*
X91194266Y-127555625D01*
X91186000Y-127555625D01*
X91170125Y-127571500D01*
X91154250Y-127555625D01*
X91170125Y-127539750D01*
X91186000Y-127555625D01*
X91194266Y-127555625D01*
X91195172Y-127554657D01*
X91216709Y-127514063D01*
X91236960Y-127488847D01*
X91252668Y-127494082D01*
X91270807Y-127494546D01*
X91256570Y-127460375D01*
X91186000Y-127460375D01*
X91170125Y-127476250D01*
X91154250Y-127460375D01*
X91170125Y-127444500D01*
X91186000Y-127460375D01*
X91256570Y-127460375D01*
X91251551Y-127448331D01*
X91237874Y-127383386D01*
X91248997Y-127312419D01*
X91278244Y-127262576D01*
X91299360Y-127254000D01*
X91298851Y-127277464D01*
X91279426Y-127320908D01*
X91255683Y-127389593D01*
X91271206Y-127418607D01*
X91314680Y-127406673D01*
X91374793Y-127352514D01*
X91390194Y-127333413D01*
X91442065Y-127258433D01*
X91456082Y-127210808D01*
X91437446Y-127171219D01*
X91434767Y-127167901D01*
X91405503Y-127101539D01*
X91392423Y-127010961D01*
X91392375Y-127005638D01*
X91381729Y-126926225D01*
X91354530Y-126887072D01*
X91351894Y-126886316D01*
X91332193Y-126886948D01*
G37*
X91332193Y-126886948D02*
X91341522Y-126893090D01*
X91358880Y-126931984D01*
X91356586Y-126991384D01*
X91357881Y-127082318D01*
X91379612Y-127166262D01*
X91401040Y-127237877D01*
X91385320Y-127286079D01*
X91361633Y-127311649D01*
X91322564Y-127346554D01*
X91322285Y-127333517D01*
X91338826Y-127299914D01*
X91354991Y-127231025D01*
X91345952Y-127192443D01*
X91319471Y-127182930D01*
X91274559Y-127219857D01*
X91207844Y-127304503D01*
X91151173Y-127391504D01*
X91117913Y-127460459D01*
X91114268Y-127491348D01*
X91115983Y-127507237D01*
X91106700Y-127500337D01*
X91064074Y-127497321D01*
X91037718Y-127512488D01*
X91011605Y-127554388D01*
X91031863Y-127592933D01*
X91051760Y-127641227D01*
X91027582Y-127676033D01*
X90998735Y-127695848D01*
X91004055Y-127663570D01*
X91005706Y-127658812D01*
X91010557Y-127611577D01*
X90977186Y-127612061D01*
X90908876Y-127659927D01*
X90897171Y-127669987D01*
X90824981Y-127729058D01*
X90730279Y-127801586D01*
X90686944Y-127833397D01*
X90614998Y-127892991D01*
X90574811Y-127941660D01*
X90571858Y-127960561D01*
X90563634Y-127977070D01*
X90523227Y-127969636D01*
X90469077Y-127964968D01*
X90455750Y-127982110D01*
X90479994Y-128013394D01*
X90544493Y-128012065D01*
X90636897Y-127981081D01*
X90744859Y-127923397D01*
X90770406Y-127906789D01*
X90907439Y-127809393D01*
X91026262Y-127715771D01*
X90953167Y-127715771D01*
X90938461Y-127757159D01*
X90926709Y-127762000D01*
X90915759Y-127751850D01*
X90868500Y-127751850D01*
X90845936Y-127786247D01*
X90791385Y-127840453D01*
X90724563Y-127897411D01*
X90665186Y-127940062D01*
X90636677Y-127952425D01*
X90640859Y-127934444D01*
X90682683Y-127889599D01*
X90700177Y-127873618D01*
X90787941Y-127796523D01*
X90838607Y-127754886D01*
X90862119Y-127741511D01*
X90868424Y-127749204D01*
X90868500Y-127751850D01*
X90915759Y-127751850D01*
X90900758Y-127737945D01*
X90900250Y-127732123D01*
X90922997Y-127688484D01*
X90926709Y-127685895D01*
X90949901Y-127695608D01*
X90953167Y-127715771D01*
X91026262Y-127715771D01*
X91030588Y-127712363D01*
X91129838Y-127624513D01*
X91151658Y-127601182D01*
X91114716Y-127601182D01*
X91110373Y-127603250D01*
X91081399Y-127580898D01*
X91074875Y-127571500D01*
X91066785Y-127541817D01*
X91071128Y-127539750D01*
X91100102Y-127562101D01*
X91106625Y-127571500D01*
X91114716Y-127601182D01*
X91151658Y-127601182D01*
X91194266Y-127555625D01*
X91186000Y-127555625D01*
X91170125Y-127571500D01*
X91154250Y-127555625D01*
X91170125Y-127539750D01*
X91186000Y-127555625D01*
X91194266Y-127555625D01*
X91195172Y-127554657D01*
X91216709Y-127514063D01*
X91236960Y-127488847D01*
X91252668Y-127494082D01*
X91270807Y-127494546D01*
X91256570Y-127460375D01*
X91186000Y-127460375D01*
X91170125Y-127476250D01*
X91154250Y-127460375D01*
X91170125Y-127444500D01*
X91186000Y-127460375D01*
X91256570Y-127460375D01*
X91251551Y-127448331D01*
X91237874Y-127383386D01*
X91248997Y-127312419D01*
X91278244Y-127262576D01*
X91299360Y-127254000D01*
X91298851Y-127277464D01*
X91279426Y-127320908D01*
X91255683Y-127389593D01*
X91271206Y-127418607D01*
X91314680Y-127406673D01*
X91374793Y-127352514D01*
X91390194Y-127333413D01*
X91442065Y-127258433D01*
X91456082Y-127210808D01*
X91437446Y-127171219D01*
X91434767Y-127167901D01*
X91405503Y-127101539D01*
X91392423Y-127010961D01*
X91392375Y-127005638D01*
X91381729Y-126926225D01*
X91354530Y-126887072D01*
X91351894Y-126886316D01*
X91332193Y-126886948D01*
G36*
X90725026Y-127088108D02*
G01*
X90658725Y-127118004D01*
X90604806Y-127153187D01*
X90595605Y-127162088D01*
X90535826Y-127208473D01*
X90492386Y-127222250D01*
X90466171Y-127214524D01*
X90491635Y-127185417D01*
X90505245Y-127174615D01*
X90547251Y-127140559D01*
X90537442Y-127138073D01*
X90500716Y-127150802D01*
X90440630Y-127188517D01*
X90365376Y-127256247D01*
X90332827Y-127291310D01*
X90267624Y-127378646D01*
X90266270Y-127382968D01*
X90283987Y-127392512D01*
X90304588Y-127408409D01*
X90339438Y-127455992D01*
X90334411Y-127496686D01*
X90305710Y-127508000D01*
X90302814Y-127492182D01*
X90307308Y-127487108D01*
X90307738Y-127448863D01*
X90288788Y-127415671D01*
X90266050Y-127383669D01*
X90246126Y-127447258D01*
X90250536Y-127485444D01*
X90251870Y-127552969D01*
X90215497Y-127583798D01*
X90179716Y-127591721D01*
X90194758Y-127564052D01*
X90195443Y-127563224D01*
X90212152Y-127503711D01*
X90203405Y-127478927D01*
X90178835Y-127458137D01*
X90158062Y-127495655D01*
X90156877Y-127499332D01*
X90149817Y-127570236D01*
X90165224Y-127635006D01*
X90196166Y-127666478D01*
X90199604Y-127666750D01*
X90228644Y-127643721D01*
X90286367Y-127582312D01*
X90362181Y-127494037D01*
X90392714Y-127456849D01*
X90488606Y-127347064D01*
X90534250Y-127301047D01*
X90437419Y-127301047D01*
X90437166Y-127333349D01*
X90433675Y-127347435D01*
X90413539Y-127403830D01*
X90392303Y-127403580D01*
X90378599Y-127384597D01*
X90384560Y-127343856D01*
X90405977Y-127319282D01*
X90437419Y-127301047D01*
X90534250Y-127301047D01*
X90587724Y-127247137D01*
X90671275Y-127175777D01*
X90684008Y-127166880D01*
X90755922Y-127117860D01*
X90799261Y-127085559D01*
X90805000Y-127079558D01*
X90781266Y-127072344D01*
X90725026Y-127088108D01*
G37*
X90725026Y-127088108D02*
X90658725Y-127118004D01*
X90604806Y-127153187D01*
X90595605Y-127162088D01*
X90535826Y-127208473D01*
X90492386Y-127222250D01*
X90466171Y-127214524D01*
X90491635Y-127185417D01*
X90505245Y-127174615D01*
X90547251Y-127140559D01*
X90537442Y-127138073D01*
X90500716Y-127150802D01*
X90440630Y-127188517D01*
X90365376Y-127256247D01*
X90332827Y-127291310D01*
X90267624Y-127378646D01*
X90266270Y-127382968D01*
X90283987Y-127392512D01*
X90304588Y-127408409D01*
X90339438Y-127455992D01*
X90334411Y-127496686D01*
X90305710Y-127508000D01*
X90302814Y-127492182D01*
X90307308Y-127487108D01*
X90307738Y-127448863D01*
X90288788Y-127415671D01*
X90266050Y-127383669D01*
X90246126Y-127447258D01*
X90250536Y-127485444D01*
X90251870Y-127552969D01*
X90215497Y-127583798D01*
X90179716Y-127591721D01*
X90194758Y-127564052D01*
X90195443Y-127563224D01*
X90212152Y-127503711D01*
X90203405Y-127478927D01*
X90178835Y-127458137D01*
X90158062Y-127495655D01*
X90156877Y-127499332D01*
X90149817Y-127570236D01*
X90165224Y-127635006D01*
X90196166Y-127666478D01*
X90199604Y-127666750D01*
X90228644Y-127643721D01*
X90286367Y-127582312D01*
X90362181Y-127494037D01*
X90392714Y-127456849D01*
X90488606Y-127347064D01*
X90534250Y-127301047D01*
X90437419Y-127301047D01*
X90437166Y-127333349D01*
X90433675Y-127347435D01*
X90413539Y-127403830D01*
X90392303Y-127403580D01*
X90378599Y-127384597D01*
X90384560Y-127343856D01*
X90405977Y-127319282D01*
X90437419Y-127301047D01*
X90534250Y-127301047D01*
X90587724Y-127247137D01*
X90671275Y-127175777D01*
X90684008Y-127166880D01*
X90755922Y-127117860D01*
X90799261Y-127085559D01*
X90805000Y-127079558D01*
X90781266Y-127072344D01*
X90725026Y-127088108D01*
G36*
X91019163Y-127151196D02*
G01*
X90946772Y-127213054D01*
X90875902Y-127296476D01*
X90818726Y-127385365D01*
X90787418Y-127463624D01*
X90790772Y-127510664D01*
X90823606Y-127537009D01*
X90874400Y-127522454D01*
X90944228Y-127473446D01*
X91017376Y-127400496D01*
X91074850Y-127315543D01*
X91111080Y-127232710D01*
X91120493Y-127166119D01*
X91097519Y-127129892D01*
X91080903Y-127127000D01*
X91019163Y-127151196D01*
G37*
X91019163Y-127151196D02*
X90946772Y-127213054D01*
X90875902Y-127296476D01*
X90818726Y-127385365D01*
X90787418Y-127463624D01*
X90790772Y-127510664D01*
X90823606Y-127537009D01*
X90874400Y-127522454D01*
X90944228Y-127473446D01*
X91017376Y-127400496D01*
X91074850Y-127315543D01*
X91111080Y-127232710D01*
X91120493Y-127166119D01*
X91097519Y-127129892D01*
X91080903Y-127127000D01*
X91019163Y-127151196D01*
G36*
X89493778Y-118010382D02*
G01*
X89252148Y-118122329D01*
X89016423Y-118292553D01*
X88789024Y-118518450D01*
X88572374Y-118797411D01*
X88368894Y-119126832D01*
X88181005Y-119504106D01*
X88079615Y-119745125D01*
X87982089Y-119997046D01*
X87896852Y-120229832D01*
X87820311Y-120455514D01*
X87748870Y-120686122D01*
X87678934Y-120933687D01*
X87606910Y-121210240D01*
X87529201Y-121527812D01*
X87462996Y-121808875D01*
X87415072Y-122017881D01*
X87380260Y-122181763D01*
X87356472Y-122317052D01*
X87341621Y-122440278D01*
X87333619Y-122567972D01*
X87330380Y-122716665D01*
X87329814Y-122863606D01*
X87332046Y-123068859D01*
X87338669Y-123227108D01*
X87349323Y-123332915D01*
X87363651Y-123380840D01*
X87363922Y-123381121D01*
X87390192Y-123378920D01*
X87431744Y-123330010D01*
X87491726Y-123229972D01*
X87549982Y-123120140D01*
X87780614Y-122686749D01*
X87995881Y-122314212D01*
X88196398Y-122001929D01*
X88382779Y-121749297D01*
X88555638Y-121555716D01*
X88715590Y-121420582D01*
X88863249Y-121343295D01*
X88999231Y-121323253D01*
X89124149Y-121359854D01*
X89238618Y-121452497D01*
X89245489Y-121460191D01*
X89324723Y-121572786D01*
X89378450Y-121706902D01*
X89409925Y-121875049D01*
X89422400Y-122089733D01*
X89422912Y-122142250D01*
X89414162Y-122368219D01*
X89383563Y-122579684D01*
X89326855Y-122791958D01*
X89239772Y-123020351D01*
X89118053Y-123280175D01*
X89091443Y-123332822D01*
X88802023Y-123849082D01*
X88484523Y-124315938D01*
X88131727Y-124743959D01*
X88117616Y-124759502D01*
X87944558Y-124950626D01*
X87810369Y-125102366D01*
X87710269Y-125221457D01*
X87639478Y-125314632D01*
X87593214Y-125388628D01*
X87566697Y-125450177D01*
X87555148Y-125506016D01*
X87553530Y-125554154D01*
X87584989Y-125730212D01*
X87667224Y-125918101D01*
X87792933Y-126103984D01*
X87913277Y-126235617D01*
X88067199Y-126368693D01*
X88236934Y-126482760D01*
X88436920Y-126586009D01*
X88681595Y-126686631D01*
X88757125Y-126714388D01*
X89017885Y-126817760D01*
X89271155Y-126935712D01*
X89502816Y-127060712D01*
X89698750Y-127185226D01*
X89826615Y-127285015D01*
X89913657Y-127361310D01*
X89980760Y-127417720D01*
X90015464Y-127443823D01*
X90017305Y-127444500D01*
X90041407Y-127421555D01*
X90092143Y-127361943D01*
X90146640Y-127293687D01*
X90264220Y-127142875D01*
X90193298Y-127095652D01*
X90019364Y-126945033D01*
X89899413Y-126762642D01*
X89834793Y-126552230D01*
X89826854Y-126317551D01*
X89853479Y-126150497D01*
X89876707Y-126082584D01*
X89924172Y-125968517D01*
X89991188Y-125818673D01*
X90073069Y-125643429D01*
X90165127Y-125453161D01*
X90202617Y-125377445D01*
X90497324Y-124768931D01*
X90753021Y-124202960D01*
X90971739Y-123673622D01*
X91155505Y-123175003D01*
X91306350Y-122701191D01*
X91426304Y-122246274D01*
X91517395Y-121804340D01*
X91581653Y-121369476D01*
X91583379Y-121354841D01*
X91623832Y-120824414D01*
X91617638Y-120327759D01*
X91565306Y-119866836D01*
X91467342Y-119443609D01*
X91324256Y-119060039D01*
X91136555Y-118718089D01*
X90904747Y-118419720D01*
X90794347Y-118307863D01*
X90568989Y-118137762D01*
X90313141Y-118022112D01*
X90031378Y-117962423D01*
X89738891Y-117959321D01*
X89493778Y-118010382D01*
G37*
X89493778Y-118010382D02*
X89252148Y-118122329D01*
X89016423Y-118292553D01*
X88789024Y-118518450D01*
X88572374Y-118797411D01*
X88368894Y-119126832D01*
X88181005Y-119504106D01*
X88079615Y-119745125D01*
X87982089Y-119997046D01*
X87896852Y-120229832D01*
X87820311Y-120455514D01*
X87748870Y-120686122D01*
X87678934Y-120933687D01*
X87606910Y-121210240D01*
X87529201Y-121527812D01*
X87462996Y-121808875D01*
X87415072Y-122017881D01*
X87380260Y-122181763D01*
X87356472Y-122317052D01*
X87341621Y-122440278D01*
X87333619Y-122567972D01*
X87330380Y-122716665D01*
X87329814Y-122863606D01*
X87332046Y-123068859D01*
X87338669Y-123227108D01*
X87349323Y-123332915D01*
X87363651Y-123380840D01*
X87363922Y-123381121D01*
X87390192Y-123378920D01*
X87431744Y-123330010D01*
X87491726Y-123229972D01*
X87549982Y-123120140D01*
X87780614Y-122686749D01*
X87995881Y-122314212D01*
X88196398Y-122001929D01*
X88382779Y-121749297D01*
X88555638Y-121555716D01*
X88715590Y-121420582D01*
X88863249Y-121343295D01*
X88999231Y-121323253D01*
X89124149Y-121359854D01*
X89238618Y-121452497D01*
X89245489Y-121460191D01*
X89324723Y-121572786D01*
X89378450Y-121706902D01*
X89409925Y-121875049D01*
X89422400Y-122089733D01*
X89422912Y-122142250D01*
X89414162Y-122368219D01*
X89383563Y-122579684D01*
X89326855Y-122791958D01*
X89239772Y-123020351D01*
X89118053Y-123280175D01*
X89091443Y-123332822D01*
X88802023Y-123849082D01*
X88484523Y-124315938D01*
X88131727Y-124743959D01*
X88117616Y-124759502D01*
X87944558Y-124950626D01*
X87810369Y-125102366D01*
X87710269Y-125221457D01*
X87639478Y-125314632D01*
X87593214Y-125388628D01*
X87566697Y-125450177D01*
X87555148Y-125506016D01*
X87553530Y-125554154D01*
X87584989Y-125730212D01*
X87667224Y-125918101D01*
X87792933Y-126103984D01*
X87913277Y-126235617D01*
X88067199Y-126368693D01*
X88236934Y-126482760D01*
X88436920Y-126586009D01*
X88681595Y-126686631D01*
X88757125Y-126714388D01*
X89017885Y-126817760D01*
X89271155Y-126935712D01*
X89502816Y-127060712D01*
X89698750Y-127185226D01*
X89826615Y-127285015D01*
X89913657Y-127361310D01*
X89980760Y-127417720D01*
X90015464Y-127443823D01*
X90017305Y-127444500D01*
X90041407Y-127421555D01*
X90092143Y-127361943D01*
X90146640Y-127293687D01*
X90264220Y-127142875D01*
X90193298Y-127095652D01*
X90019364Y-126945033D01*
X89899413Y-126762642D01*
X89834793Y-126552230D01*
X89826854Y-126317551D01*
X89853479Y-126150497D01*
X89876707Y-126082584D01*
X89924172Y-125968517D01*
X89991188Y-125818673D01*
X90073069Y-125643429D01*
X90165127Y-125453161D01*
X90202617Y-125377445D01*
X90497324Y-124768931D01*
X90753021Y-124202960D01*
X90971739Y-123673622D01*
X91155505Y-123175003D01*
X91306350Y-122701191D01*
X91426304Y-122246274D01*
X91517395Y-121804340D01*
X91581653Y-121369476D01*
X91583379Y-121354841D01*
X91623832Y-120824414D01*
X91617638Y-120327759D01*
X91565306Y-119866836D01*
X91467342Y-119443609D01*
X91324256Y-119060039D01*
X91136555Y-118718089D01*
X90904747Y-118419720D01*
X90794347Y-118307863D01*
X90568989Y-118137762D01*
X90313141Y-118022112D01*
X90031378Y-117962423D01*
X89738891Y-117959321D01*
X89493778Y-118010382D01*
G36*
X91585529Y-126752429D02*
G01*
X91575478Y-126817334D01*
X91578883Y-126845100D01*
X91582617Y-126912210D01*
X91564333Y-126936500D01*
X91547617Y-126916353D01*
X91554460Y-126899354D01*
X91556036Y-126875752D01*
X91521987Y-126883479D01*
X91464525Y-126901857D01*
X91445341Y-126905236D01*
X91448338Y-126918829D01*
X91469400Y-126934375D01*
X91511353Y-126986775D01*
X91525068Y-127054895D01*
X91505722Y-127108521D01*
X91498151Y-127114430D01*
X91476875Y-127117712D01*
X91484438Y-127100407D01*
X91488774Y-127045837D01*
X91474434Y-127008188D01*
X91452324Y-126979895D01*
X91442839Y-127003141D01*
X91440966Y-127053688D01*
X91451185Y-127138793D01*
X91478958Y-127174556D01*
X91516878Y-127155191D01*
X91535126Y-127127233D01*
X91555129Y-127064050D01*
X91550720Y-127031093D01*
X91553134Y-127002280D01*
X91563852Y-127000000D01*
X91591171Y-126972780D01*
X91621491Y-126907332D01*
X91646827Y-126827969D01*
X91650139Y-126809500D01*
X91630500Y-126809500D01*
X91618884Y-126835633D01*
X91609334Y-126830666D01*
X91605534Y-126792986D01*
X91609334Y-126788333D01*
X91628209Y-126792691D01*
X91630500Y-126809500D01*
X91650139Y-126809500D01*
X91659198Y-126759004D01*
X91653575Y-126726740D01*
X91615191Y-126716480D01*
X91585529Y-126752429D01*
G37*
X91585529Y-126752429D02*
X91575478Y-126817334D01*
X91578883Y-126845100D01*
X91582617Y-126912210D01*
X91564333Y-126936500D01*
X91547617Y-126916353D01*
X91554460Y-126899354D01*
X91556036Y-126875752D01*
X91521987Y-126883479D01*
X91464525Y-126901857D01*
X91445341Y-126905236D01*
X91448338Y-126918829D01*
X91469400Y-126934375D01*
X91511353Y-126986775D01*
X91525068Y-127054895D01*
X91505722Y-127108521D01*
X91498151Y-127114430D01*
X91476875Y-127117712D01*
X91484438Y-127100407D01*
X91488774Y-127045837D01*
X91474434Y-127008188D01*
X91452324Y-126979895D01*
X91442839Y-127003141D01*
X91440966Y-127053688D01*
X91451185Y-127138793D01*
X91478958Y-127174556D01*
X91516878Y-127155191D01*
X91535126Y-127127233D01*
X91555129Y-127064050D01*
X91550720Y-127031093D01*
X91553134Y-127002280D01*
X91563852Y-127000000D01*
X91591171Y-126972780D01*
X91621491Y-126907332D01*
X91646827Y-126827969D01*
X91650139Y-126809500D01*
X91630500Y-126809500D01*
X91618884Y-126835633D01*
X91609334Y-126830666D01*
X91605534Y-126792986D01*
X91609334Y-126788333D01*
X91628209Y-126792691D01*
X91630500Y-126809500D01*
X91650139Y-126809500D01*
X91659198Y-126759004D01*
X91653575Y-126726740D01*
X91615191Y-126716480D01*
X91585529Y-126752429D01*
G36*
X91471750Y-126800300D02*
G01*
X91420280Y-126825431D01*
X91408250Y-126844953D01*
X91414928Y-126869546D01*
X91416188Y-126869316D01*
X91449352Y-126859282D01*
X91479688Y-126851113D01*
X91526746Y-126826385D01*
X91535250Y-126810144D01*
X91509906Y-126795665D01*
X91471750Y-126800300D01*
G37*
X91471750Y-126800300D02*
X91420280Y-126825431D01*
X91408250Y-126844953D01*
X91414928Y-126869546D01*
X91416188Y-126869316D01*
X91449352Y-126859282D01*
X91479688Y-126851113D01*
X91526746Y-126826385D01*
X91535250Y-126810144D01*
X91509906Y-126795665D01*
X91471750Y-126800300D01*
G36*
X84462298Y-122497737D02*
G01*
X84210657Y-122583658D01*
X84166392Y-122604933D01*
X83988464Y-122721490D01*
X83867729Y-122865231D01*
X83803113Y-123038103D01*
X83793537Y-123242054D01*
X83796631Y-123274119D01*
X83815356Y-123386352D01*
X83848108Y-123444093D01*
X83907756Y-123454767D01*
X84007170Y-123425802D01*
X84038539Y-123413712D01*
X84195886Y-123372225D01*
X84385813Y-123352686D01*
X84580805Y-123356525D01*
X84724875Y-123378051D01*
X84775775Y-123391519D01*
X84779912Y-123401839D01*
X84731325Y-123413494D01*
X84662623Y-123424868D01*
X84493621Y-123462398D01*
X84328671Y-123517581D01*
X84186838Y-123582810D01*
X84087190Y-123650477D01*
X84080068Y-123657296D01*
X84031418Y-123717647D01*
X84013930Y-123783983D01*
X84018987Y-123878311D01*
X84044329Y-124005073D01*
X84090726Y-124076608D01*
X84166726Y-124099945D01*
X84270202Y-124084873D01*
X84382477Y-124068558D01*
X84518344Y-124064905D01*
X84594285Y-124069490D01*
X84780818Y-124088742D01*
X84689347Y-124135268D01*
X84562279Y-124217314D01*
X84470717Y-124311596D01*
X84425901Y-124405599D01*
X84423250Y-124431593D01*
X84430852Y-124533293D01*
X84462747Y-124590042D01*
X84532570Y-124614319D01*
X84627731Y-124618750D01*
X84725063Y-124622135D01*
X84793882Y-124630807D01*
X84812808Y-124637890D01*
X84804358Y-124668670D01*
X84758817Y-124719620D01*
X84747803Y-124729409D01*
X84703682Y-124776116D01*
X84687441Y-124824561D01*
X84702861Y-124883805D01*
X84753724Y-124962906D01*
X84843813Y-125070924D01*
X84930232Y-125166413D01*
X85013417Y-125250167D01*
X85121481Y-125349508D01*
X85243902Y-125455862D01*
X85370159Y-125560657D01*
X85489730Y-125655320D01*
X85592094Y-125731276D01*
X85666731Y-125779953D01*
X85699809Y-125793500D01*
X85696395Y-125767042D01*
X85669494Y-125695566D01*
X85623889Y-125590914D01*
X85581263Y-125499812D01*
X85435154Y-125139038D01*
X85317874Y-124727104D01*
X85233428Y-124285043D01*
X85200239Y-124024124D01*
X85189110Y-123809166D01*
X85202167Y-123625839D01*
X85241538Y-123459811D01*
X85309353Y-123296754D01*
X85405551Y-123125875D01*
X85532485Y-122920125D01*
X85385213Y-122783075D01*
X85168567Y-122617612D01*
X84942021Y-122514827D01*
X84706342Y-122474831D01*
X84462298Y-122497737D01*
G37*
X84462298Y-122497737D02*
X84210657Y-122583658D01*
X84166392Y-122604933D01*
X83988464Y-122721490D01*
X83867729Y-122865231D01*
X83803113Y-123038103D01*
X83793537Y-123242054D01*
X83796631Y-123274119D01*
X83815356Y-123386352D01*
X83848108Y-123444093D01*
X83907756Y-123454767D01*
X84007170Y-123425802D01*
X84038539Y-123413712D01*
X84195886Y-123372225D01*
X84385813Y-123352686D01*
X84580805Y-123356525D01*
X84724875Y-123378051D01*
X84775775Y-123391519D01*
X84779912Y-123401839D01*
X84731325Y-123413494D01*
X84662623Y-123424868D01*
X84493621Y-123462398D01*
X84328671Y-123517581D01*
X84186838Y-123582810D01*
X84087190Y-123650477D01*
X84080068Y-123657296D01*
X84031418Y-123717647D01*
X84013930Y-123783983D01*
X84018987Y-123878311D01*
X84044329Y-124005073D01*
X84090726Y-124076608D01*
X84166726Y-124099945D01*
X84270202Y-124084873D01*
X84382477Y-124068558D01*
X84518344Y-124064905D01*
X84594285Y-124069490D01*
X84780818Y-124088742D01*
X84689347Y-124135268D01*
X84562279Y-124217314D01*
X84470717Y-124311596D01*
X84425901Y-124405599D01*
X84423250Y-124431593D01*
X84430852Y-124533293D01*
X84462747Y-124590042D01*
X84532570Y-124614319D01*
X84627731Y-124618750D01*
X84725063Y-124622135D01*
X84793882Y-124630807D01*
X84812808Y-124637890D01*
X84804358Y-124668670D01*
X84758817Y-124719620D01*
X84747803Y-124729409D01*
X84703682Y-124776116D01*
X84687441Y-124824561D01*
X84702861Y-124883805D01*
X84753724Y-124962906D01*
X84843813Y-125070924D01*
X84930232Y-125166413D01*
X85013417Y-125250167D01*
X85121481Y-125349508D01*
X85243902Y-125455862D01*
X85370159Y-125560657D01*
X85489730Y-125655320D01*
X85592094Y-125731276D01*
X85666731Y-125779953D01*
X85699809Y-125793500D01*
X85696395Y-125767042D01*
X85669494Y-125695566D01*
X85623889Y-125590914D01*
X85581263Y-125499812D01*
X85435154Y-125139038D01*
X85317874Y-124727104D01*
X85233428Y-124285043D01*
X85200239Y-124024124D01*
X85189110Y-123809166D01*
X85202167Y-123625839D01*
X85241538Y-123459811D01*
X85309353Y-123296754D01*
X85405551Y-123125875D01*
X85532485Y-122920125D01*
X85385213Y-122783075D01*
X85168567Y-122617612D01*
X84942021Y-122514827D01*
X84706342Y-122474831D01*
X84462298Y-122497737D01*
G36*
X88265966Y-123785698D02*
G01*
X88265000Y-123793524D01*
X88244012Y-123848611D01*
X88187695Y-123935832D01*
X88106019Y-124042819D01*
X88008957Y-124157209D01*
X87906478Y-124266635D01*
X87810785Y-124356812D01*
X87701806Y-124432178D01*
X87598241Y-124459459D01*
X87579662Y-124460000D01*
X87468034Y-124460000D01*
X87473824Y-124746167D01*
X87477983Y-124881668D01*
X87485017Y-124963127D01*
X87496821Y-124999993D01*
X87515289Y-125001715D01*
X87523825Y-124995642D01*
X87570653Y-124974327D01*
X87588762Y-124979678D01*
X87583409Y-125011481D01*
X87551876Y-125042534D01*
X87511209Y-125088238D01*
X87506569Y-125116952D01*
X87532535Y-125111840D01*
X87589962Y-125068846D01*
X87667332Y-124996832D01*
X87682012Y-124981959D01*
X87781857Y-124878484D01*
X87839289Y-124812596D01*
X87853184Y-124783338D01*
X87771721Y-124783338D01*
X87769148Y-124818651D01*
X87730709Y-124874178D01*
X87728443Y-124876637D01*
X87681275Y-124934859D01*
X87661750Y-124973986D01*
X87650203Y-124999673D01*
X87649234Y-124999750D01*
X87641393Y-124972588D01*
X87641297Y-124920397D01*
X87657460Y-124860668D01*
X87682917Y-124841022D01*
X87685835Y-124839330D01*
X87593741Y-124839330D01*
X87592719Y-124902537D01*
X87560725Y-124946031D01*
X87558563Y-124946972D01*
X87520138Y-124963240D01*
X87515763Y-124965493D01*
X87513724Y-124937595D01*
X87511161Y-124861507D01*
X87508569Y-124752530D01*
X87508125Y-124729875D01*
X87509333Y-124616089D01*
X87516650Y-124531899D01*
X87528577Y-124492802D01*
X87531149Y-124491750D01*
X87544547Y-124519788D01*
X87546391Y-124590592D01*
X87543063Y-124630487D01*
X87540455Y-124729139D01*
X87557064Y-124785972D01*
X87562838Y-124791111D01*
X87593741Y-124839330D01*
X87685835Y-124839330D01*
X87726368Y-124815830D01*
X87734133Y-124801312D01*
X87760230Y-124777878D01*
X87771721Y-124783338D01*
X87853184Y-124783338D01*
X87856394Y-124776579D01*
X87835258Y-124762719D01*
X87777966Y-124763301D01*
X87740315Y-124766271D01*
X87652744Y-124770601D01*
X87611223Y-124759260D01*
X87598837Y-124724799D01*
X87598250Y-124703719D01*
X87618964Y-124644464D01*
X87670116Y-124629883D01*
X87735220Y-124661863D01*
X87759039Y-124685298D01*
X87819734Y-124726842D01*
X87863876Y-124733765D01*
X87923414Y-124706195D01*
X87986748Y-124651181D01*
X88037371Y-124587305D01*
X88042904Y-124573306D01*
X88004866Y-124573306D01*
X87971751Y-124619615D01*
X87913729Y-124648321D01*
X87892591Y-124650500D01*
X87838739Y-124644857D01*
X87838748Y-124620710D01*
X87852250Y-124602875D01*
X87873502Y-124563423D01*
X87856138Y-124555250D01*
X87824872Y-124529471D01*
X87820500Y-124505824D01*
X87814761Y-124474148D01*
X87786305Y-124481603D01*
X87749936Y-124505824D01*
X87672343Y-124546788D01*
X87617081Y-124551025D01*
X87598250Y-124521626D01*
X87618149Y-124503690D01*
X87633550Y-124509818D01*
X87678542Y-124512815D01*
X87689113Y-124503755D01*
X87733371Y-124462982D01*
X87790201Y-124431269D01*
X87837065Y-124418789D01*
X87852250Y-124430120D01*
X87876952Y-124449849D01*
X87915750Y-124444125D01*
X87966964Y-124435758D01*
X87974645Y-124463021D01*
X87946383Y-124525587D01*
X87929733Y-124576133D01*
X87946383Y-124587000D01*
X87977388Y-124562223D01*
X87979250Y-124549958D01*
X87989617Y-124526021D01*
X87995873Y-124529539D01*
X88004866Y-124573306D01*
X88042904Y-124573306D01*
X88058775Y-124533151D01*
X88055358Y-124518213D01*
X88051996Y-124496599D01*
X88066122Y-124502446D01*
X88104730Y-124493910D01*
X88150403Y-124444969D01*
X88190852Y-124379295D01*
X88195620Y-124350599D01*
X88165228Y-124343688D01*
X88153875Y-124343583D01*
X88111723Y-124366274D01*
X88106250Y-124385916D01*
X88085915Y-124424633D01*
X88072172Y-124428250D01*
X88048896Y-124403143D01*
X88049576Y-124372687D01*
X88081823Y-124327223D01*
X88109054Y-124320476D01*
X88143963Y-124301364D01*
X88156783Y-124231549D01*
X88157050Y-124213568D01*
X88173962Y-124116610D01*
X88177304Y-124111851D01*
X88137035Y-124111851D01*
X88117039Y-124168018D01*
X88066984Y-124241161D01*
X88004196Y-124310872D01*
X87946003Y-124356745D01*
X87922593Y-124364419D01*
X87916893Y-124345813D01*
X87950845Y-124298645D01*
X87973351Y-124275267D01*
X88042343Y-124201245D01*
X88094530Y-124134022D01*
X88100480Y-124124454D01*
X88127713Y-124087415D01*
X88136877Y-124106950D01*
X88137035Y-124111851D01*
X88177304Y-124111851D01*
X88211025Y-124063842D01*
X88254919Y-124021152D01*
X88265000Y-123999141D01*
X88245468Y-123998654D01*
X88201500Y-124031375D01*
X88153550Y-124067332D01*
X88141097Y-124060059D01*
X88161808Y-124017325D01*
X88213346Y-123946899D01*
X88234541Y-123921449D01*
X88303620Y-123832887D01*
X88326465Y-123781245D01*
X88304874Y-123761907D01*
X88296750Y-123761500D01*
X88265966Y-123785698D01*
G37*
X88265966Y-123785698D02*
X88265000Y-123793524D01*
X88244012Y-123848611D01*
X88187695Y-123935832D01*
X88106019Y-124042819D01*
X88008957Y-124157209D01*
X87906478Y-124266635D01*
X87810785Y-124356812D01*
X87701806Y-124432178D01*
X87598241Y-124459459D01*
X87579662Y-124460000D01*
X87468034Y-124460000D01*
X87473824Y-124746167D01*
X87477983Y-124881668D01*
X87485017Y-124963127D01*
X87496821Y-124999993D01*
X87515289Y-125001715D01*
X87523825Y-124995642D01*
X87570653Y-124974327D01*
X87588762Y-124979678D01*
X87583409Y-125011481D01*
X87551876Y-125042534D01*
X87511209Y-125088238D01*
X87506569Y-125116952D01*
X87532535Y-125111840D01*
X87589962Y-125068846D01*
X87667332Y-124996832D01*
X87682012Y-124981959D01*
X87781857Y-124878484D01*
X87839289Y-124812596D01*
X87853184Y-124783338D01*
X87771721Y-124783338D01*
X87769148Y-124818651D01*
X87730709Y-124874178D01*
X87728443Y-124876637D01*
X87681275Y-124934859D01*
X87661750Y-124973986D01*
X87650203Y-124999673D01*
X87649234Y-124999750D01*
X87641393Y-124972588D01*
X87641297Y-124920397D01*
X87657460Y-124860668D01*
X87682917Y-124841022D01*
X87685835Y-124839330D01*
X87593741Y-124839330D01*
X87592719Y-124902537D01*
X87560725Y-124946031D01*
X87558563Y-124946972D01*
X87520138Y-124963240D01*
X87515763Y-124965493D01*
X87513724Y-124937595D01*
X87511161Y-124861507D01*
X87508569Y-124752530D01*
X87508125Y-124729875D01*
X87509333Y-124616089D01*
X87516650Y-124531899D01*
X87528577Y-124492802D01*
X87531149Y-124491750D01*
X87544547Y-124519788D01*
X87546391Y-124590592D01*
X87543063Y-124630487D01*
X87540455Y-124729139D01*
X87557064Y-124785972D01*
X87562838Y-124791111D01*
X87593741Y-124839330D01*
X87685835Y-124839330D01*
X87726368Y-124815830D01*
X87734133Y-124801312D01*
X87760230Y-124777878D01*
X87771721Y-124783338D01*
X87853184Y-124783338D01*
X87856394Y-124776579D01*
X87835258Y-124762719D01*
X87777966Y-124763301D01*
X87740315Y-124766271D01*
X87652744Y-124770601D01*
X87611223Y-124759260D01*
X87598837Y-124724799D01*
X87598250Y-124703719D01*
X87618964Y-124644464D01*
X87670116Y-124629883D01*
X87735220Y-124661863D01*
X87759039Y-124685298D01*
X87819734Y-124726842D01*
X87863876Y-124733765D01*
X87923414Y-124706195D01*
X87986748Y-124651181D01*
X88037371Y-124587305D01*
X88042904Y-124573306D01*
X88004866Y-124573306D01*
X87971751Y-124619615D01*
X87913729Y-124648321D01*
X87892591Y-124650500D01*
X87838739Y-124644857D01*
X87838748Y-124620710D01*
X87852250Y-124602875D01*
X87873502Y-124563423D01*
X87856138Y-124555250D01*
X87824872Y-124529471D01*
X87820500Y-124505824D01*
X87814761Y-124474148D01*
X87786305Y-124481603D01*
X87749936Y-124505824D01*
X87672343Y-124546788D01*
X87617081Y-124551025D01*
X87598250Y-124521626D01*
X87618149Y-124503690D01*
X87633550Y-124509818D01*
X87678542Y-124512815D01*
X87689113Y-124503755D01*
X87733371Y-124462982D01*
X87790201Y-124431269D01*
X87837065Y-124418789D01*
X87852250Y-124430120D01*
X87876952Y-124449849D01*
X87915750Y-124444125D01*
X87966964Y-124435758D01*
X87974645Y-124463021D01*
X87946383Y-124525587D01*
X87929733Y-124576133D01*
X87946383Y-124587000D01*
X87977388Y-124562223D01*
X87979250Y-124549958D01*
X87989617Y-124526021D01*
X87995873Y-124529539D01*
X88004866Y-124573306D01*
X88042904Y-124573306D01*
X88058775Y-124533151D01*
X88055358Y-124518213D01*
X88051996Y-124496599D01*
X88066122Y-124502446D01*
X88104730Y-124493910D01*
X88150403Y-124444969D01*
X88190852Y-124379295D01*
X88195620Y-124350599D01*
X88165228Y-124343688D01*
X88153875Y-124343583D01*
X88111723Y-124366274D01*
X88106250Y-124385916D01*
X88085915Y-124424633D01*
X88072172Y-124428250D01*
X88048896Y-124403143D01*
X88049576Y-124372687D01*
X88081823Y-124327223D01*
X88109054Y-124320476D01*
X88143963Y-124301364D01*
X88156783Y-124231549D01*
X88157050Y-124213568D01*
X88173962Y-124116610D01*
X88177304Y-124111851D01*
X88137035Y-124111851D01*
X88117039Y-124168018D01*
X88066984Y-124241161D01*
X88004196Y-124310872D01*
X87946003Y-124356745D01*
X87922593Y-124364419D01*
X87916893Y-124345813D01*
X87950845Y-124298645D01*
X87973351Y-124275267D01*
X88042343Y-124201245D01*
X88094530Y-124134022D01*
X88100480Y-124124454D01*
X88127713Y-124087415D01*
X88136877Y-124106950D01*
X88137035Y-124111851D01*
X88177304Y-124111851D01*
X88211025Y-124063842D01*
X88254919Y-124021152D01*
X88265000Y-123999141D01*
X88245468Y-123998654D01*
X88201500Y-124031375D01*
X88153550Y-124067332D01*
X88141097Y-124060059D01*
X88161808Y-124017325D01*
X88213346Y-123946899D01*
X88234541Y-123921449D01*
X88303620Y-123832887D01*
X88326465Y-123781245D01*
X88304874Y-123761907D01*
X88296750Y-123761500D01*
X88265966Y-123785698D01*
G36*
X87630000Y-124729875D02*
G01*
X87645875Y-124745750D01*
X87661750Y-124729875D01*
X87645875Y-124714000D01*
X87630000Y-124729875D01*
G37*
X87630000Y-124729875D02*
X87645875Y-124745750D01*
X87661750Y-124729875D01*
X87645875Y-124714000D01*
X87630000Y-124729875D01*
G36*
X88085449Y-122358472D02*
G01*
X88037153Y-122427151D01*
X87975702Y-122526052D01*
X87949279Y-122571401D01*
X87884706Y-122681116D01*
X87830058Y-122768238D01*
X87794131Y-122818963D01*
X87787183Y-122825843D01*
X87761709Y-122863817D01*
X87730479Y-122938264D01*
X87722966Y-122960254D01*
X87692835Y-123040072D01*
X87666422Y-123089800D01*
X87661580Y-123094750D01*
X87632968Y-123131486D01*
X87592940Y-123200423D01*
X87587591Y-123210716D01*
X87556245Y-123278867D01*
X87556595Y-123312199D01*
X87586455Y-123330047D01*
X87621244Y-123367438D01*
X87619901Y-123392773D01*
X87624819Y-123450827D01*
X87640154Y-123473203D01*
X87658941Y-123512206D01*
X87633803Y-123536900D01*
X87603150Y-123582752D01*
X87604644Y-123606056D01*
X87625619Y-123601553D01*
X87668481Y-123551450D01*
X87724844Y-123465967D01*
X87738448Y-123443041D01*
X87806387Y-123331755D01*
X87871313Y-123234323D01*
X87919604Y-123171144D01*
X87921072Y-123169537D01*
X87960073Y-123110243D01*
X87949888Y-123080350D01*
X87917498Y-123037209D01*
X87915750Y-123025488D01*
X87933141Y-123011417D01*
X87961398Y-123029609D01*
X87998060Y-123045234D01*
X88031908Y-123014975D01*
X88056977Y-122970937D01*
X88057656Y-122969957D01*
X88023434Y-122969957D01*
X88021039Y-122987384D01*
X87992566Y-123016271D01*
X87971166Y-123004115D01*
X87916881Y-122985389D01*
X87896007Y-122989502D01*
X87859087Y-122985781D01*
X87855750Y-122952467D01*
X87884285Y-122919949D01*
X87941358Y-122909337D01*
X87996335Y-122930245D01*
X88023434Y-122969957D01*
X88057656Y-122969957D01*
X88111040Y-122892975D01*
X88171711Y-122839706D01*
X88172542Y-122839256D01*
X88219468Y-122791876D01*
X88219472Y-122776645D01*
X88201500Y-122776645D01*
X88173557Y-122808241D01*
X88104667Y-122830402D01*
X88017241Y-122837940D01*
X87960496Y-122832428D01*
X87892076Y-122839069D01*
X87851307Y-122893707D01*
X87836025Y-123000830D01*
X87837883Y-123086976D01*
X87836581Y-123174074D01*
X87824022Y-123231058D01*
X87817204Y-123239662D01*
X87793026Y-123230232D01*
X87788750Y-123205875D01*
X87776016Y-123170022D01*
X87762031Y-123171015D01*
X87744815Y-123211193D01*
X87741052Y-123284014D01*
X87736930Y-123351291D01*
X87719040Y-123380465D01*
X87718272Y-123380500D01*
X87704087Y-123400253D01*
X87709375Y-123412250D01*
X87706858Y-123441507D01*
X87695374Y-123444000D01*
X87662939Y-123433824D01*
X87661750Y-123430191D01*
X87671830Y-123393600D01*
X87693405Y-123333127D01*
X87699675Y-123311671D01*
X87658048Y-123311671D01*
X87653386Y-123339436D01*
X87630000Y-123332875D01*
X87602375Y-123287564D01*
X87598737Y-123259563D01*
X87603875Y-123224031D01*
X87625824Y-123247110D01*
X87630000Y-123253500D01*
X87658048Y-123311671D01*
X87699675Y-123311671D01*
X87709921Y-123276617D01*
X87695733Y-123268537D01*
X87688009Y-123272768D01*
X87664261Y-123274180D01*
X87671233Y-123242833D01*
X87671596Y-123197656D01*
X87652817Y-123189034D01*
X87643548Y-123176088D01*
X87669688Y-123155706D01*
X87715932Y-123105869D01*
X87725250Y-123072149D01*
X87738494Y-123019142D01*
X87771716Y-122946073D01*
X87815152Y-122869075D01*
X87859039Y-122804279D01*
X87893613Y-122767820D01*
X87908066Y-122770072D01*
X87945961Y-122799535D01*
X88001659Y-122809000D01*
X88055895Y-122803291D01*
X88056338Y-122779309D01*
X88043485Y-122762260D01*
X88022268Y-122714770D01*
X88053205Y-122667010D01*
X88091166Y-122635337D01*
X87971039Y-122635337D01*
X87964681Y-122648137D01*
X87934406Y-122680962D01*
X87928837Y-122657813D01*
X87936544Y-122633005D01*
X87959919Y-122598428D01*
X87970477Y-122599143D01*
X87971039Y-122635337D01*
X88091166Y-122635337D01*
X88104811Y-122623953D01*
X88123166Y-122633745D01*
X88115450Y-122682000D01*
X88117567Y-122734026D01*
X88150172Y-122745500D01*
X88194753Y-122761257D01*
X88201500Y-122776645D01*
X88219472Y-122776645D01*
X88219478Y-122755404D01*
X88218795Y-122720929D01*
X88247749Y-122724703D01*
X88297808Y-122726465D01*
X88311258Y-122715962D01*
X88358472Y-122686926D01*
X88439976Y-122668363D01*
X88526943Y-122663773D01*
X88590547Y-122676655D01*
X88597438Y-122681222D01*
X88625755Y-122727354D01*
X88646556Y-122798936D01*
X88656134Y-122872529D01*
X88650778Y-122924690D01*
X88637751Y-122936000D01*
X88624596Y-122955744D01*
X88629720Y-122967093D01*
X88631733Y-123016997D01*
X88615743Y-123060211D01*
X88600799Y-123111139D01*
X88637359Y-123139286D01*
X88651960Y-123144266D01*
X88699755Y-123164330D01*
X88690323Y-123187970D01*
X88665911Y-123206850D01*
X88631479Y-123245978D01*
X88647650Y-123270394D01*
X88693642Y-123268436D01*
X88712564Y-123249630D01*
X88735673Y-123224800D01*
X88740764Y-123245873D01*
X88719032Y-123295380D01*
X88679377Y-123338849D01*
X88637762Y-123390610D01*
X88640040Y-123425248D01*
X88683731Y-123427191D01*
X88692952Y-123423990D01*
X88720836Y-123421026D01*
X88714250Y-123455260D01*
X88700785Y-123485336D01*
X88670723Y-123537758D01*
X88644586Y-123537093D01*
X88621456Y-123511897D01*
X88592746Y-123481736D01*
X88590203Y-123502729D01*
X88598248Y-123539250D01*
X88608344Y-123590542D01*
X88597357Y-123585580D01*
X88581509Y-123561400D01*
X88563644Y-123493399D01*
X88575363Y-123466150D01*
X88589280Y-123428125D01*
X88550750Y-123428125D01*
X88534875Y-123444000D01*
X88519000Y-123428125D01*
X88534875Y-123412250D01*
X88550750Y-123428125D01*
X88589280Y-123428125D01*
X88596403Y-123408664D01*
X88603347Y-123336451D01*
X88571587Y-123336451D01*
X88566625Y-123348750D01*
X88538095Y-123379038D01*
X88533002Y-123380500D01*
X88519365Y-123355935D01*
X88519000Y-123348750D01*
X88543408Y-123318220D01*
X88552624Y-123317000D01*
X88571587Y-123336451D01*
X88603347Y-123336451D01*
X88603848Y-123331246D01*
X88610321Y-123249445D01*
X88626227Y-123196308D01*
X88630814Y-123162637D01*
X88619442Y-123158250D01*
X88587787Y-123184576D01*
X88546407Y-123248817D01*
X88506303Y-123328864D01*
X88478477Y-123402609D01*
X88473930Y-123447944D01*
X88474628Y-123449263D01*
X88469888Y-123474657D01*
X88462471Y-123475750D01*
X88431076Y-123501759D01*
X88396581Y-123563062D01*
X88373179Y-123620632D01*
X88378356Y-123625091D01*
X88410643Y-123586875D01*
X88447359Y-123543849D01*
X88452627Y-123552544D01*
X88440770Y-123594812D01*
X88435765Y-123651390D01*
X88466264Y-123666250D01*
X88498913Y-123645556D01*
X88495465Y-123594812D01*
X88489056Y-123547001D01*
X88497720Y-123541177D01*
X88518763Y-123584329D01*
X88527139Y-123620552D01*
X88548823Y-123695373D01*
X88563363Y-123724859D01*
X88565098Y-123781969D01*
X88538632Y-123818975D01*
X88499645Y-123851411D01*
X88487289Y-123835942D01*
X88486764Y-123823866D01*
X88481515Y-123794062D01*
X88459026Y-123819589D01*
X88455500Y-123825000D01*
X88434433Y-123852756D01*
X88422677Y-123844158D01*
X88415157Y-123788675D01*
X88410842Y-123732350D01*
X88381914Y-123682650D01*
X88363572Y-123672648D01*
X88334736Y-123676559D01*
X88336751Y-123725551D01*
X88340535Y-123741625D01*
X88336819Y-123849352D01*
X88313154Y-123899112D01*
X88284117Y-123958905D01*
X88284228Y-123992393D01*
X88280368Y-124027979D01*
X88246334Y-124091657D01*
X88234568Y-124108900D01*
X88186810Y-124204340D01*
X88185619Y-124269478D01*
X88216302Y-124321850D01*
X88248942Y-124328603D01*
X88264968Y-124286456D01*
X88265000Y-124283501D01*
X88248528Y-124251368D01*
X88230628Y-124255245D01*
X88217610Y-124250237D01*
X88231490Y-124210060D01*
X88263038Y-124151768D01*
X88303023Y-124092412D01*
X88342214Y-124049044D01*
X88342282Y-124048987D01*
X88383055Y-124023996D01*
X88389195Y-124039525D01*
X88363230Y-124084599D01*
X88323084Y-124132390D01*
X88281639Y-124188819D01*
X88274708Y-124226079D01*
X88275787Y-124227369D01*
X88308491Y-124224199D01*
X88350743Y-124178128D01*
X88390355Y-124105918D01*
X88412127Y-124039827D01*
X88433556Y-123982517D01*
X88456654Y-123968588D01*
X88488327Y-123956151D01*
X88517355Y-123920250D01*
X88487250Y-123920250D01*
X88475634Y-123946383D01*
X88466084Y-123941416D01*
X88462732Y-123908174D01*
X88405114Y-123908174D01*
X88379651Y-123951558D01*
X88334403Y-123979569D01*
X88316675Y-123981243D01*
X88303211Y-123971869D01*
X88320563Y-123962722D01*
X88356607Y-123920878D01*
X88360250Y-123899855D01*
X88377047Y-123869579D01*
X88393542Y-123873577D01*
X88405114Y-123908174D01*
X88462732Y-123908174D01*
X88462284Y-123903736D01*
X88466084Y-123899083D01*
X88484959Y-123903441D01*
X88487250Y-123920250D01*
X88517355Y-123920250D01*
X88530292Y-123904250D01*
X88571015Y-123833048D01*
X88598959Y-123762713D01*
X88602606Y-123713449D01*
X88604496Y-123677395D01*
X88620248Y-123674568D01*
X88649806Y-123651608D01*
X88692594Y-123584193D01*
X88737224Y-123491625D01*
X88781495Y-123391513D01*
X88794348Y-123364625D01*
X88773000Y-123364625D01*
X88757125Y-123380500D01*
X88741250Y-123364625D01*
X88757125Y-123348750D01*
X88773000Y-123364625D01*
X88794348Y-123364625D01*
X88817186Y-123316850D01*
X88835557Y-123285250D01*
X88862109Y-123237625D01*
X88804750Y-123237625D01*
X88788875Y-123253500D01*
X88773000Y-123237625D01*
X88788875Y-123221750D01*
X88804750Y-123237625D01*
X88862109Y-123237625D01*
X88871670Y-123220476D01*
X88895744Y-123121419D01*
X88900420Y-123045301D01*
X88827355Y-123045301D01*
X88821640Y-123091553D01*
X88797016Y-123149288D01*
X88780502Y-123144726D01*
X88773242Y-123078690D01*
X88773000Y-123056650D01*
X88777243Y-123009249D01*
X88737621Y-123009249D01*
X88720084Y-123041833D01*
X88698017Y-123060014D01*
X88689788Y-123038892D01*
X88686480Y-122999500D01*
X88694967Y-122948075D01*
X88711474Y-122936000D01*
X88737181Y-122960002D01*
X88737621Y-123009249D01*
X88777243Y-123009249D01*
X88778874Y-122991031D01*
X88798542Y-122982130D01*
X88807904Y-122989953D01*
X88827355Y-123045301D01*
X88900420Y-123045301D01*
X88902161Y-123016972D01*
X88896748Y-122970564D01*
X88890857Y-122920125D01*
X88836500Y-122920125D01*
X88820625Y-122936000D01*
X88804750Y-122920125D01*
X88820625Y-122904250D01*
X88836500Y-122920125D01*
X88890857Y-122920125D01*
X88886422Y-122882164D01*
X88892029Y-122814753D01*
X88893032Y-122811814D01*
X88901227Y-122779015D01*
X88877865Y-122788378D01*
X88850383Y-122809000D01*
X88793351Y-122858468D01*
X88766789Y-122887455D01*
X88732023Y-122902056D01*
X88722604Y-122896186D01*
X88728450Y-122863261D01*
X88772760Y-122813571D01*
X88776440Y-122810438D01*
X88824974Y-122762908D01*
X88825539Y-122743626D01*
X88741250Y-122743626D01*
X88718203Y-122775957D01*
X88709500Y-122777250D01*
X88678576Y-122766417D01*
X88677750Y-122763248D01*
X88699999Y-122736141D01*
X88709500Y-122729625D01*
X88738758Y-122732142D01*
X88741250Y-122743626D01*
X88825539Y-122743626D01*
X88825859Y-122732713D01*
X88804750Y-122714881D01*
X88732407Y-122686920D01*
X88693625Y-122682000D01*
X88651727Y-122676411D01*
X88668459Y-122655515D01*
X88677750Y-122649118D01*
X88704511Y-122620424D01*
X88686322Y-122586750D01*
X88646000Y-122586750D01*
X88619408Y-122612546D01*
X88582500Y-122618500D01*
X88530908Y-122605203D01*
X88519000Y-122586750D01*
X88545593Y-122560953D01*
X88582500Y-122555000D01*
X88634093Y-122568296D01*
X88646000Y-122586750D01*
X88686322Y-122586750D01*
X88685881Y-122585934D01*
X88653938Y-122557203D01*
X88594462Y-122494627D01*
X88591616Y-122456376D01*
X88645015Y-122445113D01*
X88669813Y-122447137D01*
X88714571Y-122449915D01*
X88700123Y-122441540D01*
X88693625Y-122439652D01*
X88626554Y-122411590D01*
X88599963Y-122393168D01*
X88546880Y-122370463D01*
X88476175Y-122365746D01*
X88421533Y-122379893D01*
X88413082Y-122388312D01*
X88420900Y-122426448D01*
X88442958Y-122453064D01*
X88479099Y-122473228D01*
X88487250Y-122461001D01*
X88510656Y-122429163D01*
X88519000Y-122428000D01*
X88547168Y-122453716D01*
X88550750Y-122475625D01*
X88529278Y-122517802D01*
X88510763Y-122523250D01*
X88464383Y-122547561D01*
X88430418Y-122587871D01*
X88395537Y-122631308D01*
X88357456Y-122627543D01*
X88320467Y-122603746D01*
X88252883Y-122564678D01*
X88217254Y-122558470D01*
X88223006Y-122582634D01*
X88260580Y-122619556D01*
X88309878Y-122663007D01*
X88311640Y-122679446D01*
X88268518Y-122682000D01*
X88204825Y-122685393D01*
X88180852Y-122689937D01*
X88159420Y-122673635D01*
X88149799Y-122623469D01*
X88153978Y-122568312D01*
X88170437Y-122538700D01*
X88177597Y-122504291D01*
X88152607Y-122469820D01*
X88102221Y-122437583D01*
X88079847Y-122451693D01*
X88100601Y-122500321D01*
X88105614Y-122506607D01*
X88125288Y-122545579D01*
X88113535Y-122555000D01*
X88042750Y-122555000D01*
X88031134Y-122581133D01*
X88021584Y-122576166D01*
X88017784Y-122538486D01*
X88021584Y-122533833D01*
X88040459Y-122538191D01*
X88042750Y-122555000D01*
X88113535Y-122555000D01*
X88072311Y-122530194D01*
X88058250Y-122475639D01*
X88076445Y-122421129D01*
X88088647Y-122409462D01*
X88132152Y-122365212D01*
X88130189Y-122336690D01*
X88111913Y-122332750D01*
X88085449Y-122358472D01*
G37*
X88085449Y-122358472D02*
X88037153Y-122427151D01*
X87975702Y-122526052D01*
X87949279Y-122571401D01*
X87884706Y-122681116D01*
X87830058Y-122768238D01*
X87794131Y-122818963D01*
X87787183Y-122825843D01*
X87761709Y-122863817D01*
X87730479Y-122938264D01*
X87722966Y-122960254D01*
X87692835Y-123040072D01*
X87666422Y-123089800D01*
X87661580Y-123094750D01*
X87632968Y-123131486D01*
X87592940Y-123200423D01*
X87587591Y-123210716D01*
X87556245Y-123278867D01*
X87556595Y-123312199D01*
X87586455Y-123330047D01*
X87621244Y-123367438D01*
X87619901Y-123392773D01*
X87624819Y-123450827D01*
X87640154Y-123473203D01*
X87658941Y-123512206D01*
X87633803Y-123536900D01*
X87603150Y-123582752D01*
X87604644Y-123606056D01*
X87625619Y-123601553D01*
X87668481Y-123551450D01*
X87724844Y-123465967D01*
X87738448Y-123443041D01*
X87806387Y-123331755D01*
X87871313Y-123234323D01*
X87919604Y-123171144D01*
X87921072Y-123169537D01*
X87960073Y-123110243D01*
X87949888Y-123080350D01*
X87917498Y-123037209D01*
X87915750Y-123025488D01*
X87933141Y-123011417D01*
X87961398Y-123029609D01*
X87998060Y-123045234D01*
X88031908Y-123014975D01*
X88056977Y-122970937D01*
X88057656Y-122969957D01*
X88023434Y-122969957D01*
X88021039Y-122987384D01*
X87992566Y-123016271D01*
X87971166Y-123004115D01*
X87916881Y-122985389D01*
X87896007Y-122989502D01*
X87859087Y-122985781D01*
X87855750Y-122952467D01*
X87884285Y-122919949D01*
X87941358Y-122909337D01*
X87996335Y-122930245D01*
X88023434Y-122969957D01*
X88057656Y-122969957D01*
X88111040Y-122892975D01*
X88171711Y-122839706D01*
X88172542Y-122839256D01*
X88219468Y-122791876D01*
X88219472Y-122776645D01*
X88201500Y-122776645D01*
X88173557Y-122808241D01*
X88104667Y-122830402D01*
X88017241Y-122837940D01*
X87960496Y-122832428D01*
X87892076Y-122839069D01*
X87851307Y-122893707D01*
X87836025Y-123000830D01*
X87837883Y-123086976D01*
X87836581Y-123174074D01*
X87824022Y-123231058D01*
X87817204Y-123239662D01*
X87793026Y-123230232D01*
X87788750Y-123205875D01*
X87776016Y-123170022D01*
X87762031Y-123171015D01*
X87744815Y-123211193D01*
X87741052Y-123284014D01*
X87736930Y-123351291D01*
X87719040Y-123380465D01*
X87718272Y-123380500D01*
X87704087Y-123400253D01*
X87709375Y-123412250D01*
X87706858Y-123441507D01*
X87695374Y-123444000D01*
X87662939Y-123433824D01*
X87661750Y-123430191D01*
X87671830Y-123393600D01*
X87693405Y-123333127D01*
X87699675Y-123311671D01*
X87658048Y-123311671D01*
X87653386Y-123339436D01*
X87630000Y-123332875D01*
X87602375Y-123287564D01*
X87598737Y-123259563D01*
X87603875Y-123224031D01*
X87625824Y-123247110D01*
X87630000Y-123253500D01*
X87658048Y-123311671D01*
X87699675Y-123311671D01*
X87709921Y-123276617D01*
X87695733Y-123268537D01*
X87688009Y-123272768D01*
X87664261Y-123274180D01*
X87671233Y-123242833D01*
X87671596Y-123197656D01*
X87652817Y-123189034D01*
X87643548Y-123176088D01*
X87669688Y-123155706D01*
X87715932Y-123105869D01*
X87725250Y-123072149D01*
X87738494Y-123019142D01*
X87771716Y-122946073D01*
X87815152Y-122869075D01*
X87859039Y-122804279D01*
X87893613Y-122767820D01*
X87908066Y-122770072D01*
X87945961Y-122799535D01*
X88001659Y-122809000D01*
X88055895Y-122803291D01*
X88056338Y-122779309D01*
X88043485Y-122762260D01*
X88022268Y-122714770D01*
X88053205Y-122667010D01*
X88091166Y-122635337D01*
X87971039Y-122635337D01*
X87964681Y-122648137D01*
X87934406Y-122680962D01*
X87928837Y-122657813D01*
X87936544Y-122633005D01*
X87959919Y-122598428D01*
X87970477Y-122599143D01*
X87971039Y-122635337D01*
X88091166Y-122635337D01*
X88104811Y-122623953D01*
X88123166Y-122633745D01*
X88115450Y-122682000D01*
X88117567Y-122734026D01*
X88150172Y-122745500D01*
X88194753Y-122761257D01*
X88201500Y-122776645D01*
X88219472Y-122776645D01*
X88219478Y-122755404D01*
X88218795Y-122720929D01*
X88247749Y-122724703D01*
X88297808Y-122726465D01*
X88311258Y-122715962D01*
X88358472Y-122686926D01*
X88439976Y-122668363D01*
X88526943Y-122663773D01*
X88590547Y-122676655D01*
X88597438Y-122681222D01*
X88625755Y-122727354D01*
X88646556Y-122798936D01*
X88656134Y-122872529D01*
X88650778Y-122924690D01*
X88637751Y-122936000D01*
X88624596Y-122955744D01*
X88629720Y-122967093D01*
X88631733Y-123016997D01*
X88615743Y-123060211D01*
X88600799Y-123111139D01*
X88637359Y-123139286D01*
X88651960Y-123144266D01*
X88699755Y-123164330D01*
X88690323Y-123187970D01*
X88665911Y-123206850D01*
X88631479Y-123245978D01*
X88647650Y-123270394D01*
X88693642Y-123268436D01*
X88712564Y-123249630D01*
X88735673Y-123224800D01*
X88740764Y-123245873D01*
X88719032Y-123295380D01*
X88679377Y-123338849D01*
X88637762Y-123390610D01*
X88640040Y-123425248D01*
X88683731Y-123427191D01*
X88692952Y-123423990D01*
X88720836Y-123421026D01*
X88714250Y-123455260D01*
X88700785Y-123485336D01*
X88670723Y-123537758D01*
X88644586Y-123537093D01*
X88621456Y-123511897D01*
X88592746Y-123481736D01*
X88590203Y-123502729D01*
X88598248Y-123539250D01*
X88608344Y-123590542D01*
X88597357Y-123585580D01*
X88581509Y-123561400D01*
X88563644Y-123493399D01*
X88575363Y-123466150D01*
X88589280Y-123428125D01*
X88550750Y-123428125D01*
X88534875Y-123444000D01*
X88519000Y-123428125D01*
X88534875Y-123412250D01*
X88550750Y-123428125D01*
X88589280Y-123428125D01*
X88596403Y-123408664D01*
X88603347Y-123336451D01*
X88571587Y-123336451D01*
X88566625Y-123348750D01*
X88538095Y-123379038D01*
X88533002Y-123380500D01*
X88519365Y-123355935D01*
X88519000Y-123348750D01*
X88543408Y-123318220D01*
X88552624Y-123317000D01*
X88571587Y-123336451D01*
X88603347Y-123336451D01*
X88603848Y-123331246D01*
X88610321Y-123249445D01*
X88626227Y-123196308D01*
X88630814Y-123162637D01*
X88619442Y-123158250D01*
X88587787Y-123184576D01*
X88546407Y-123248817D01*
X88506303Y-123328864D01*
X88478477Y-123402609D01*
X88473930Y-123447944D01*
X88474628Y-123449263D01*
X88469888Y-123474657D01*
X88462471Y-123475750D01*
X88431076Y-123501759D01*
X88396581Y-123563062D01*
X88373179Y-123620632D01*
X88378356Y-123625091D01*
X88410643Y-123586875D01*
X88447359Y-123543849D01*
X88452627Y-123552544D01*
X88440770Y-123594812D01*
X88435765Y-123651390D01*
X88466264Y-123666250D01*
X88498913Y-123645556D01*
X88495465Y-123594812D01*
X88489056Y-123547001D01*
X88497720Y-123541177D01*
X88518763Y-123584329D01*
X88527139Y-123620552D01*
X88548823Y-123695373D01*
X88563363Y-123724859D01*
X88565098Y-123781969D01*
X88538632Y-123818975D01*
X88499645Y-123851411D01*
X88487289Y-123835942D01*
X88486764Y-123823866D01*
X88481515Y-123794062D01*
X88459026Y-123819589D01*
X88455500Y-123825000D01*
X88434433Y-123852756D01*
X88422677Y-123844158D01*
X88415157Y-123788675D01*
X88410842Y-123732350D01*
X88381914Y-123682650D01*
X88363572Y-123672648D01*
X88334736Y-123676559D01*
X88336751Y-123725551D01*
X88340535Y-123741625D01*
X88336819Y-123849352D01*
X88313154Y-123899112D01*
X88284117Y-123958905D01*
X88284228Y-123992393D01*
X88280368Y-124027979D01*
X88246334Y-124091657D01*
X88234568Y-124108900D01*
X88186810Y-124204340D01*
X88185619Y-124269478D01*
X88216302Y-124321850D01*
X88248942Y-124328603D01*
X88264968Y-124286456D01*
X88265000Y-124283501D01*
X88248528Y-124251368D01*
X88230628Y-124255245D01*
X88217610Y-124250237D01*
X88231490Y-124210060D01*
X88263038Y-124151768D01*
X88303023Y-124092412D01*
X88342214Y-124049044D01*
X88342282Y-124048987D01*
X88383055Y-124023996D01*
X88389195Y-124039525D01*
X88363230Y-124084599D01*
X88323084Y-124132390D01*
X88281639Y-124188819D01*
X88274708Y-124226079D01*
X88275787Y-124227369D01*
X88308491Y-124224199D01*
X88350743Y-124178128D01*
X88390355Y-124105918D01*
X88412127Y-124039827D01*
X88433556Y-123982517D01*
X88456654Y-123968588D01*
X88488327Y-123956151D01*
X88517355Y-123920250D01*
X88487250Y-123920250D01*
X88475634Y-123946383D01*
X88466084Y-123941416D01*
X88462732Y-123908174D01*
X88405114Y-123908174D01*
X88379651Y-123951558D01*
X88334403Y-123979569D01*
X88316675Y-123981243D01*
X88303211Y-123971869D01*
X88320563Y-123962722D01*
X88356607Y-123920878D01*
X88360250Y-123899855D01*
X88377047Y-123869579D01*
X88393542Y-123873577D01*
X88405114Y-123908174D01*
X88462732Y-123908174D01*
X88462284Y-123903736D01*
X88466084Y-123899083D01*
X88484959Y-123903441D01*
X88487250Y-123920250D01*
X88517355Y-123920250D01*
X88530292Y-123904250D01*
X88571015Y-123833048D01*
X88598959Y-123762713D01*
X88602606Y-123713449D01*
X88604496Y-123677395D01*
X88620248Y-123674568D01*
X88649806Y-123651608D01*
X88692594Y-123584193D01*
X88737224Y-123491625D01*
X88781495Y-123391513D01*
X88794348Y-123364625D01*
X88773000Y-123364625D01*
X88757125Y-123380500D01*
X88741250Y-123364625D01*
X88757125Y-123348750D01*
X88773000Y-123364625D01*
X88794348Y-123364625D01*
X88817186Y-123316850D01*
X88835557Y-123285250D01*
X88862109Y-123237625D01*
X88804750Y-123237625D01*
X88788875Y-123253500D01*
X88773000Y-123237625D01*
X88788875Y-123221750D01*
X88804750Y-123237625D01*
X88862109Y-123237625D01*
X88871670Y-123220476D01*
X88895744Y-123121419D01*
X88900420Y-123045301D01*
X88827355Y-123045301D01*
X88821640Y-123091553D01*
X88797016Y-123149288D01*
X88780502Y-123144726D01*
X88773242Y-123078690D01*
X88773000Y-123056650D01*
X88777243Y-123009249D01*
X88737621Y-123009249D01*
X88720084Y-123041833D01*
X88698017Y-123060014D01*
X88689788Y-123038892D01*
X88686480Y-122999500D01*
X88694967Y-122948075D01*
X88711474Y-122936000D01*
X88737181Y-122960002D01*
X88737621Y-123009249D01*
X88777243Y-123009249D01*
X88778874Y-122991031D01*
X88798542Y-122982130D01*
X88807904Y-122989953D01*
X88827355Y-123045301D01*
X88900420Y-123045301D01*
X88902161Y-123016972D01*
X88896748Y-122970564D01*
X88890857Y-122920125D01*
X88836500Y-122920125D01*
X88820625Y-122936000D01*
X88804750Y-122920125D01*
X88820625Y-122904250D01*
X88836500Y-122920125D01*
X88890857Y-122920125D01*
X88886422Y-122882164D01*
X88892029Y-122814753D01*
X88893032Y-122811814D01*
X88901227Y-122779015D01*
X88877865Y-122788378D01*
X88850383Y-122809000D01*
X88793351Y-122858468D01*
X88766789Y-122887455D01*
X88732023Y-122902056D01*
X88722604Y-122896186D01*
X88728450Y-122863261D01*
X88772760Y-122813571D01*
X88776440Y-122810438D01*
X88824974Y-122762908D01*
X88825539Y-122743626D01*
X88741250Y-122743626D01*
X88718203Y-122775957D01*
X88709500Y-122777250D01*
X88678576Y-122766417D01*
X88677750Y-122763248D01*
X88699999Y-122736141D01*
X88709500Y-122729625D01*
X88738758Y-122732142D01*
X88741250Y-122743626D01*
X88825539Y-122743626D01*
X88825859Y-122732713D01*
X88804750Y-122714881D01*
X88732407Y-122686920D01*
X88693625Y-122682000D01*
X88651727Y-122676411D01*
X88668459Y-122655515D01*
X88677750Y-122649118D01*
X88704511Y-122620424D01*
X88686322Y-122586750D01*
X88646000Y-122586750D01*
X88619408Y-122612546D01*
X88582500Y-122618500D01*
X88530908Y-122605203D01*
X88519000Y-122586750D01*
X88545593Y-122560953D01*
X88582500Y-122555000D01*
X88634093Y-122568296D01*
X88646000Y-122586750D01*
X88686322Y-122586750D01*
X88685881Y-122585934D01*
X88653938Y-122557203D01*
X88594462Y-122494627D01*
X88591616Y-122456376D01*
X88645015Y-122445113D01*
X88669813Y-122447137D01*
X88714571Y-122449915D01*
X88700123Y-122441540D01*
X88693625Y-122439652D01*
X88626554Y-122411590D01*
X88599963Y-122393168D01*
X88546880Y-122370463D01*
X88476175Y-122365746D01*
X88421533Y-122379893D01*
X88413082Y-122388312D01*
X88420900Y-122426448D01*
X88442958Y-122453064D01*
X88479099Y-122473228D01*
X88487250Y-122461001D01*
X88510656Y-122429163D01*
X88519000Y-122428000D01*
X88547168Y-122453716D01*
X88550750Y-122475625D01*
X88529278Y-122517802D01*
X88510763Y-122523250D01*
X88464383Y-122547561D01*
X88430418Y-122587871D01*
X88395537Y-122631308D01*
X88357456Y-122627543D01*
X88320467Y-122603746D01*
X88252883Y-122564678D01*
X88217254Y-122558470D01*
X88223006Y-122582634D01*
X88260580Y-122619556D01*
X88309878Y-122663007D01*
X88311640Y-122679446D01*
X88268518Y-122682000D01*
X88204825Y-122685393D01*
X88180852Y-122689937D01*
X88159420Y-122673635D01*
X88149799Y-122623469D01*
X88153978Y-122568312D01*
X88170437Y-122538700D01*
X88177597Y-122504291D01*
X88152607Y-122469820D01*
X88102221Y-122437583D01*
X88079847Y-122451693D01*
X88100601Y-122500321D01*
X88105614Y-122506607D01*
X88125288Y-122545579D01*
X88113535Y-122555000D01*
X88042750Y-122555000D01*
X88031134Y-122581133D01*
X88021584Y-122576166D01*
X88017784Y-122538486D01*
X88021584Y-122533833D01*
X88040459Y-122538191D01*
X88042750Y-122555000D01*
X88113535Y-122555000D01*
X88072311Y-122530194D01*
X88058250Y-122475639D01*
X88076445Y-122421129D01*
X88088647Y-122409462D01*
X88132152Y-122365212D01*
X88130189Y-122336690D01*
X88111913Y-122332750D01*
X88085449Y-122358472D01*
G36*
X87511990Y-123376913D02*
G01*
X87484241Y-123448942D01*
X87456995Y-123546145D01*
X87435956Y-123649830D01*
X87430426Y-123690062D01*
X87429499Y-123759968D01*
X87442814Y-123792879D01*
X87444999Y-123793250D01*
X87469799Y-123768326D01*
X87471250Y-123756208D01*
X87482627Y-123733369D01*
X87489662Y-123737578D01*
X87487239Y-123773875D01*
X87455790Y-123835780D01*
X87454927Y-123837102D01*
X87420860Y-123906481D01*
X87414549Y-123956519D01*
X87434536Y-123953641D01*
X87472067Y-123904986D01*
X87501197Y-123854349D01*
X87538423Y-123765593D01*
X87561705Y-123682125D01*
X87534750Y-123682125D01*
X87518875Y-123698000D01*
X87503000Y-123682125D01*
X87518875Y-123666250D01*
X87534750Y-123682125D01*
X87561705Y-123682125D01*
X87565924Y-123667001D01*
X87581643Y-123573916D01*
X87582180Y-123553251D01*
X87534750Y-123553251D01*
X87518174Y-123596692D01*
X87503000Y-123602750D01*
X87472159Y-123579962D01*
X87471250Y-123572873D01*
X87494330Y-123529873D01*
X87503000Y-123523375D01*
X87530182Y-123530572D01*
X87534750Y-123553251D01*
X87582180Y-123553251D01*
X87583523Y-123501681D01*
X87569507Y-123465638D01*
X87553054Y-123467500D01*
X87541267Y-123464989D01*
X87558288Y-123439235D01*
X87575197Y-123396375D01*
X87566500Y-123396375D01*
X87550625Y-123412250D01*
X87534750Y-123396375D01*
X87550625Y-123380500D01*
X87566500Y-123396375D01*
X87575197Y-123396375D01*
X87579782Y-123384756D01*
X87553650Y-123351534D01*
X87534541Y-123348750D01*
X87511990Y-123376913D01*
G37*
X87511990Y-123376913D02*
X87484241Y-123448942D01*
X87456995Y-123546145D01*
X87435956Y-123649830D01*
X87430426Y-123690062D01*
X87429499Y-123759968D01*
X87442814Y-123792879D01*
X87444999Y-123793250D01*
X87469799Y-123768326D01*
X87471250Y-123756208D01*
X87482627Y-123733369D01*
X87489662Y-123737578D01*
X87487239Y-123773875D01*
X87455790Y-123835780D01*
X87454927Y-123837102D01*
X87420860Y-123906481D01*
X87414549Y-123956519D01*
X87434536Y-123953641D01*
X87472067Y-123904986D01*
X87501197Y-123854349D01*
X87538423Y-123765593D01*
X87561705Y-123682125D01*
X87534750Y-123682125D01*
X87518875Y-123698000D01*
X87503000Y-123682125D01*
X87518875Y-123666250D01*
X87534750Y-123682125D01*
X87561705Y-123682125D01*
X87565924Y-123667001D01*
X87581643Y-123573916D01*
X87582180Y-123553251D01*
X87534750Y-123553251D01*
X87518174Y-123596692D01*
X87503000Y-123602750D01*
X87472159Y-123579962D01*
X87471250Y-123572873D01*
X87494330Y-123529873D01*
X87503000Y-123523375D01*
X87530182Y-123530572D01*
X87534750Y-123553251D01*
X87582180Y-123553251D01*
X87583523Y-123501681D01*
X87569507Y-123465638D01*
X87553054Y-123467500D01*
X87541267Y-123464989D01*
X87558288Y-123439235D01*
X87575197Y-123396375D01*
X87566500Y-123396375D01*
X87550625Y-123412250D01*
X87534750Y-123396375D01*
X87550625Y-123380500D01*
X87566500Y-123396375D01*
X87575197Y-123396375D01*
X87579782Y-123384756D01*
X87553650Y-123351534D01*
X87534541Y-123348750D01*
X87511990Y-123376913D01*
G36*
X88455855Y-123720910D02*
G01*
X88427374Y-123751744D01*
X88436446Y-123784779D01*
X88453488Y-123777807D01*
X88455987Y-123758854D01*
X88461841Y-123730486D01*
X88483768Y-123756952D01*
X88516389Y-123779996D01*
X88530724Y-123768216D01*
X88524352Y-123731612D01*
X88503960Y-123718588D01*
X88455855Y-123720910D01*
G37*
X88455855Y-123720910D02*
X88427374Y-123751744D01*
X88436446Y-123784779D01*
X88453488Y-123777807D01*
X88455987Y-123758854D01*
X88461841Y-123730486D01*
X88483768Y-123756952D01*
X88516389Y-123779996D01*
X88530724Y-123768216D01*
X88524352Y-123731612D01*
X88503960Y-123718588D01*
X88455855Y-123720910D01*
G36*
X88391293Y-122942456D02*
G01*
X88366960Y-122958366D01*
X88290995Y-123036076D01*
X88208251Y-123151872D01*
X88131921Y-123283566D01*
X88075199Y-123408967D01*
X88053444Y-123485657D01*
X88045157Y-123562666D01*
X88059276Y-123595765D01*
X88102166Y-123602750D01*
X88162231Y-123580653D01*
X88239782Y-123524354D01*
X88281912Y-123483984D01*
X88360057Y-123387240D01*
X88436157Y-123270043D01*
X88499904Y-123151080D01*
X88540989Y-123049037D01*
X88550750Y-122996662D01*
X88526955Y-122939588D01*
X88467724Y-122920253D01*
X88391293Y-122942456D01*
G37*
X88391293Y-122942456D02*
X88366960Y-122958366D01*
X88290995Y-123036076D01*
X88208251Y-123151872D01*
X88131921Y-123283566D01*
X88075199Y-123408967D01*
X88053444Y-123485657D01*
X88045157Y-123562666D01*
X88059276Y-123595765D01*
X88102166Y-123602750D01*
X88162231Y-123580653D01*
X88239782Y-123524354D01*
X88281912Y-123483984D01*
X88360057Y-123387240D01*
X88436157Y-123270043D01*
X88499904Y-123151080D01*
X88540989Y-123049037D01*
X88550750Y-122996662D01*
X88526955Y-122939588D01*
X88467724Y-122920253D01*
X88391293Y-122942456D01*
G36*
X88614250Y-123459875D02*
G01*
X88630125Y-123475750D01*
X88646000Y-123459875D01*
X88630125Y-123444000D01*
X88614250Y-123459875D01*
G37*
X88614250Y-123459875D02*
X88630125Y-123475750D01*
X88646000Y-123459875D01*
X88630125Y-123444000D01*
X88614250Y-123459875D01*
G36*
X88942334Y-122946583D02*
G01*
X88938534Y-122984263D01*
X88942334Y-122988916D01*
X88961209Y-122984558D01*
X88963500Y-122967750D01*
X88951884Y-122941616D01*
X88942334Y-122946583D01*
G37*
X88942334Y-122946583D02*
X88938534Y-122984263D01*
X88942334Y-122988916D01*
X88961209Y-122984558D01*
X88963500Y-122967750D01*
X88951884Y-122941616D01*
X88942334Y-122946583D01*
G36*
X88712498Y-121756629D02*
G01*
X88650799Y-121784059D01*
X88576504Y-121830844D01*
X88484853Y-121904983D01*
X88388746Y-121993729D01*
X88301082Y-122084337D01*
X88234760Y-122164058D01*
X88202681Y-122220146D01*
X88201500Y-122228031D01*
X88184092Y-122266022D01*
X88173109Y-122269250D01*
X88153367Y-122296286D01*
X88149297Y-122348602D01*
X88163864Y-122414468D01*
X88193183Y-122422829D01*
X88219569Y-122392700D01*
X88217428Y-122347806D01*
X88202178Y-122333168D01*
X88182297Y-122302458D01*
X88195399Y-122288895D01*
X88232478Y-122293727D01*
X88241250Y-122308739D01*
X88261979Y-122332522D01*
X88303754Y-122308127D01*
X88346215Y-122285182D01*
X88371237Y-122315708D01*
X88373080Y-122320386D01*
X88392963Y-122355508D01*
X88423077Y-122345028D01*
X88450725Y-122321196D01*
X88528175Y-122275917D01*
X88595310Y-122279134D01*
X88635962Y-122329789D01*
X88636976Y-122333419D01*
X88659913Y-122376381D01*
X88693796Y-122364358D01*
X88733536Y-122351728D01*
X88752421Y-122379564D01*
X88793124Y-122422281D01*
X88816871Y-122428000D01*
X88844744Y-122417087D01*
X88843350Y-122373815D01*
X88828929Y-122324812D01*
X88802761Y-122242439D01*
X88785550Y-122183847D01*
X88785058Y-122181937D01*
X88749372Y-122146329D01*
X88727368Y-122142250D01*
X88694139Y-122163608D01*
X88696786Y-122186663D01*
X88696797Y-122235800D01*
X88686337Y-122248068D01*
X88635671Y-122250474D01*
X88594769Y-122204235D01*
X88576627Y-122124123D01*
X88576607Y-122123336D01*
X88576890Y-122022523D01*
X88586044Y-121970455D01*
X88607542Y-121952606D01*
X88617647Y-121951750D01*
X88638877Y-121974845D01*
X88634519Y-121999375D01*
X88639449Y-122038013D01*
X88682189Y-122047000D01*
X88728988Y-122035635D01*
X88733287Y-121989736D01*
X88729122Y-121971248D01*
X88727944Y-121934562D01*
X88540167Y-121934562D01*
X88517859Y-121963157D01*
X88489896Y-121959214D01*
X88457668Y-121951336D01*
X88467845Y-121973633D01*
X88490971Y-122001928D01*
X88537572Y-122079412D01*
X88533850Y-122133759D01*
X88481884Y-122155820D01*
X88456263Y-122154669D01*
X88366817Y-122170819D01*
X88327546Y-122207074D01*
X88281363Y-122256916D01*
X88251228Y-122266120D01*
X88249854Y-122232187D01*
X88253519Y-122221625D01*
X88285716Y-122179586D01*
X88302021Y-122174000D01*
X88316520Y-122153768D01*
X88309594Y-122137344D01*
X88305831Y-122115321D01*
X88319985Y-122121112D01*
X88352356Y-122112016D01*
X88370379Y-122075198D01*
X88398386Y-122029335D01*
X88427009Y-122033138D01*
X88452954Y-122037289D01*
X88446203Y-122005067D01*
X88452811Y-121947556D01*
X88483141Y-121922199D01*
X88529163Y-121908728D01*
X88540167Y-121934562D01*
X88727944Y-121934562D01*
X88727123Y-121909029D01*
X88770147Y-121879825D01*
X88773349Y-121878959D01*
X88816130Y-121876954D01*
X88818796Y-121891210D01*
X88825005Y-121917898D01*
X88837273Y-121920000D01*
X88862667Y-121942644D01*
X88860590Y-121958855D01*
X88864597Y-122013533D01*
X88889301Y-122077917D01*
X88911147Y-122137835D01*
X88904780Y-122166983D01*
X88893870Y-122200493D01*
X88895539Y-122275775D01*
X88901684Y-122325733D01*
X88912789Y-122418183D01*
X88914761Y-122482638D01*
X88911868Y-122497243D01*
X88921499Y-122530556D01*
X88933741Y-122540355D01*
X88953277Y-122588027D01*
X88950613Y-122689369D01*
X88947155Y-122717174D01*
X88938645Y-122821013D01*
X88947056Y-122867601D01*
X88968271Y-122859603D01*
X88998176Y-122799682D01*
X89032656Y-122690504D01*
X89041435Y-122656127D01*
X89066385Y-122526179D01*
X89080287Y-122394549D01*
X89083101Y-122275660D01*
X89074788Y-122183932D01*
X89055308Y-122133788D01*
X89042875Y-122128632D01*
X89013282Y-122157344D01*
X89003458Y-122192132D01*
X88999887Y-122233680D01*
X89011107Y-122217739D01*
X89023495Y-122189875D01*
X89041092Y-122161546D01*
X89049944Y-122185444D01*
X89052666Y-122253375D01*
X89049672Y-122386509D01*
X89038636Y-122488749D01*
X89021516Y-122550240D01*
X89000268Y-122561129D01*
X88993221Y-122552803D01*
X88971231Y-122486297D01*
X88966218Y-122428000D01*
X88969680Y-122375086D01*
X88981331Y-122381601D01*
X88995250Y-122412125D01*
X89016629Y-122448258D01*
X89025153Y-122435436D01*
X89021195Y-122386811D01*
X89005124Y-122315535D01*
X88991282Y-122271512D01*
X88971531Y-122171973D01*
X88992471Y-122088047D01*
X89014131Y-122024043D01*
X89012996Y-121990662D01*
X88991010Y-122003371D01*
X88966195Y-122050327D01*
X88943387Y-122094257D01*
X88933987Y-122077139D01*
X88933763Y-122072686D01*
X88950049Y-122014382D01*
X88966266Y-121997665D01*
X88987958Y-121953365D01*
X88985114Y-121916416D01*
X88987646Y-121867661D01*
X89006160Y-121856290D01*
X89007500Y-121841508D01*
X88999883Y-121834952D01*
X88932851Y-121834952D01*
X88905485Y-121846857D01*
X88860248Y-121830795D01*
X88853153Y-121825395D01*
X88805802Y-121802612D01*
X88750511Y-121823582D01*
X88733323Y-121835080D01*
X88663971Y-121874781D01*
X88616526Y-121887368D01*
X88603250Y-121872560D01*
X88628758Y-121837456D01*
X88689854Y-121804734D01*
X88777489Y-121785647D01*
X88863430Y-121783571D01*
X88919441Y-121801881D01*
X88920194Y-121802610D01*
X88932851Y-121834952D01*
X88999883Y-121834952D01*
X88965138Y-121805049D01*
X88947625Y-121793000D01*
X88864749Y-121745828D01*
X88795145Y-121733969D01*
X88712498Y-121756629D01*
G37*
X88712498Y-121756629D02*
X88650799Y-121784059D01*
X88576504Y-121830844D01*
X88484853Y-121904983D01*
X88388746Y-121993729D01*
X88301082Y-122084337D01*
X88234760Y-122164058D01*
X88202681Y-122220146D01*
X88201500Y-122228031D01*
X88184092Y-122266022D01*
X88173109Y-122269250D01*
X88153367Y-122296286D01*
X88149297Y-122348602D01*
X88163864Y-122414468D01*
X88193183Y-122422829D01*
X88219569Y-122392700D01*
X88217428Y-122347806D01*
X88202178Y-122333168D01*
X88182297Y-122302458D01*
X88195399Y-122288895D01*
X88232478Y-122293727D01*
X88241250Y-122308739D01*
X88261979Y-122332522D01*
X88303754Y-122308127D01*
X88346215Y-122285182D01*
X88371237Y-122315708D01*
X88373080Y-122320386D01*
X88392963Y-122355508D01*
X88423077Y-122345028D01*
X88450725Y-122321196D01*
X88528175Y-122275917D01*
X88595310Y-122279134D01*
X88635962Y-122329789D01*
X88636976Y-122333419D01*
X88659913Y-122376381D01*
X88693796Y-122364358D01*
X88733536Y-122351728D01*
X88752421Y-122379564D01*
X88793124Y-122422281D01*
X88816871Y-122428000D01*
X88844744Y-122417087D01*
X88843350Y-122373815D01*
X88828929Y-122324812D01*
X88802761Y-122242439D01*
X88785550Y-122183847D01*
X88785058Y-122181937D01*
X88749372Y-122146329D01*
X88727368Y-122142250D01*
X88694139Y-122163608D01*
X88696786Y-122186663D01*
X88696797Y-122235800D01*
X88686337Y-122248068D01*
X88635671Y-122250474D01*
X88594769Y-122204235D01*
X88576627Y-122124123D01*
X88576607Y-122123336D01*
X88576890Y-122022523D01*
X88586044Y-121970455D01*
X88607542Y-121952606D01*
X88617647Y-121951750D01*
X88638877Y-121974845D01*
X88634519Y-121999375D01*
X88639449Y-122038013D01*
X88682189Y-122047000D01*
X88728988Y-122035635D01*
X88733287Y-121989736D01*
X88729122Y-121971248D01*
X88727944Y-121934562D01*
X88540167Y-121934562D01*
X88517859Y-121963157D01*
X88489896Y-121959214D01*
X88457668Y-121951336D01*
X88467845Y-121973633D01*
X88490971Y-122001928D01*
X88537572Y-122079412D01*
X88533850Y-122133759D01*
X88481884Y-122155820D01*
X88456263Y-122154669D01*
X88366817Y-122170819D01*
X88327546Y-122207074D01*
X88281363Y-122256916D01*
X88251228Y-122266120D01*
X88249854Y-122232187D01*
X88253519Y-122221625D01*
X88285716Y-122179586D01*
X88302021Y-122174000D01*
X88316520Y-122153768D01*
X88309594Y-122137344D01*
X88305831Y-122115321D01*
X88319985Y-122121112D01*
X88352356Y-122112016D01*
X88370379Y-122075198D01*
X88398386Y-122029335D01*
X88427009Y-122033138D01*
X88452954Y-122037289D01*
X88446203Y-122005067D01*
X88452811Y-121947556D01*
X88483141Y-121922199D01*
X88529163Y-121908728D01*
X88540167Y-121934562D01*
X88727944Y-121934562D01*
X88727123Y-121909029D01*
X88770147Y-121879825D01*
X88773349Y-121878959D01*
X88816130Y-121876954D01*
X88818796Y-121891210D01*
X88825005Y-121917898D01*
X88837273Y-121920000D01*
X88862667Y-121942644D01*
X88860590Y-121958855D01*
X88864597Y-122013533D01*
X88889301Y-122077917D01*
X88911147Y-122137835D01*
X88904780Y-122166983D01*
X88893870Y-122200493D01*
X88895539Y-122275775D01*
X88901684Y-122325733D01*
X88912789Y-122418183D01*
X88914761Y-122482638D01*
X88911868Y-122497243D01*
X88921499Y-122530556D01*
X88933741Y-122540355D01*
X88953277Y-122588027D01*
X88950613Y-122689369D01*
X88947155Y-122717174D01*
X88938645Y-122821013D01*
X88947056Y-122867601D01*
X88968271Y-122859603D01*
X88998176Y-122799682D01*
X89032656Y-122690504D01*
X89041435Y-122656127D01*
X89066385Y-122526179D01*
X89080287Y-122394549D01*
X89083101Y-122275660D01*
X89074788Y-122183932D01*
X89055308Y-122133788D01*
X89042875Y-122128632D01*
X89013282Y-122157344D01*
X89003458Y-122192132D01*
X88999887Y-122233680D01*
X89011107Y-122217739D01*
X89023495Y-122189875D01*
X89041092Y-122161546D01*
X89049944Y-122185444D01*
X89052666Y-122253375D01*
X89049672Y-122386509D01*
X89038636Y-122488749D01*
X89021516Y-122550240D01*
X89000268Y-122561129D01*
X88993221Y-122552803D01*
X88971231Y-122486297D01*
X88966218Y-122428000D01*
X88969680Y-122375086D01*
X88981331Y-122381601D01*
X88995250Y-122412125D01*
X89016629Y-122448258D01*
X89025153Y-122435436D01*
X89021195Y-122386811D01*
X89005124Y-122315535D01*
X88991282Y-122271512D01*
X88971531Y-122171973D01*
X88992471Y-122088047D01*
X89014131Y-122024043D01*
X89012996Y-121990662D01*
X88991010Y-122003371D01*
X88966195Y-122050327D01*
X88943387Y-122094257D01*
X88933987Y-122077139D01*
X88933763Y-122072686D01*
X88950049Y-122014382D01*
X88966266Y-121997665D01*
X88987958Y-121953365D01*
X88985114Y-121916416D01*
X88987646Y-121867661D01*
X89006160Y-121856290D01*
X89007500Y-121841508D01*
X88999883Y-121834952D01*
X88932851Y-121834952D01*
X88905485Y-121846857D01*
X88860248Y-121830795D01*
X88853153Y-121825395D01*
X88805802Y-121802612D01*
X88750511Y-121823582D01*
X88733323Y-121835080D01*
X88663971Y-121874781D01*
X88616526Y-121887368D01*
X88603250Y-121872560D01*
X88628758Y-121837456D01*
X88689854Y-121804734D01*
X88777489Y-121785647D01*
X88863430Y-121783571D01*
X88919441Y-121801881D01*
X88920194Y-121802610D01*
X88932851Y-121834952D01*
X88999883Y-121834952D01*
X88965138Y-121805049D01*
X88947625Y-121793000D01*
X88864749Y-121745828D01*
X88795145Y-121733969D01*
X88712498Y-121756629D01*
G36*
X88749543Y-122599624D02*
G01*
X88745513Y-122633884D01*
X88779151Y-122660766D01*
X88821642Y-122661341D01*
X88861793Y-122663287D01*
X88868250Y-122678603D01*
X88890466Y-122712121D01*
X88900000Y-122713750D01*
X88930705Y-122689482D01*
X88931750Y-122681214D01*
X88905954Y-122649729D01*
X88847688Y-122617278D01*
X88785637Y-122596707D01*
X88749543Y-122599624D01*
G37*
X88749543Y-122599624D02*
X88745513Y-122633884D01*
X88779151Y-122660766D01*
X88821642Y-122661341D01*
X88861793Y-122663287D01*
X88868250Y-122678603D01*
X88890466Y-122712121D01*
X88900000Y-122713750D01*
X88930705Y-122689482D01*
X88931750Y-122681214D01*
X88905954Y-122649729D01*
X88847688Y-122617278D01*
X88785637Y-122596707D01*
X88749543Y-122599624D01*
G36*
X88396913Y-122484637D02*
G01*
X88349734Y-122509650D01*
X88318025Y-122505053D01*
X88273956Y-122502153D01*
X88265000Y-122516150D01*
X88291063Y-122547365D01*
X88346514Y-122568261D01*
X88397244Y-122567717D01*
X88406037Y-122562130D01*
X88421630Y-122518294D01*
X88423264Y-122494145D01*
X88416284Y-122463315D01*
X88396913Y-122484637D01*
G37*
X88396913Y-122484637D02*
X88349734Y-122509650D01*
X88318025Y-122505053D01*
X88273956Y-122502153D01*
X88265000Y-122516150D01*
X88291063Y-122547365D01*
X88346514Y-122568261D01*
X88397244Y-122567717D01*
X88406037Y-122562130D01*
X88421630Y-122518294D01*
X88423264Y-122494145D01*
X88416284Y-122463315D01*
X88396913Y-122484637D01*
G36*
X88781463Y-122506533D02*
G01*
X88773000Y-122523250D01*
X88777877Y-122550973D01*
X88805362Y-122542728D01*
X88836500Y-122523250D01*
X88865689Y-122498644D01*
X88835681Y-122492088D01*
X88828563Y-122491986D01*
X88781463Y-122506533D01*
G37*
X88781463Y-122506533D02*
X88773000Y-122523250D01*
X88777877Y-122550973D01*
X88805362Y-122542728D01*
X88836500Y-122523250D01*
X88865689Y-122498644D01*
X88835681Y-122492088D01*
X88828563Y-122491986D01*
X88781463Y-122506533D01*
G36*
X88297189Y-122358017D02*
G01*
X88285269Y-122380375D01*
X88272917Y-122420405D01*
X88273934Y-122425493D01*
X88304968Y-122413243D01*
X88320563Y-122406972D01*
X88355285Y-122375561D01*
X88354628Y-122341938D01*
X88331897Y-122332750D01*
X88297189Y-122358017D01*
G37*
X88297189Y-122358017D02*
X88285269Y-122380375D01*
X88272917Y-122420405D01*
X88273934Y-122425493D01*
X88304968Y-122413243D01*
X88320563Y-122406972D01*
X88355285Y-122375561D01*
X88354628Y-122341938D01*
X88331897Y-122332750D01*
X88297189Y-122358017D01*
G36*
X88614250Y-122126375D02*
G01*
X88630125Y-122142250D01*
X88646000Y-122126375D01*
X88630125Y-122110500D01*
X88614250Y-122126375D01*
G37*
X88614250Y-122126375D02*
X88630125Y-122142250D01*
X88646000Y-122126375D01*
X88630125Y-122110500D01*
X88614250Y-122126375D01*
G36*
X89029474Y-121911959D02*
G01*
X89029718Y-121920000D01*
X89043384Y-121988065D01*
X89058750Y-122031125D01*
X89086037Y-122094625D01*
X89087783Y-122031125D01*
X89074185Y-121953180D01*
X89058750Y-121920000D01*
X89034266Y-121888396D01*
X89029474Y-121911959D01*
G37*
X89029474Y-121911959D02*
X89029718Y-121920000D01*
X89043384Y-121988065D01*
X89058750Y-122031125D01*
X89086037Y-122094625D01*
X89087783Y-122031125D01*
X89074185Y-121953180D01*
X89058750Y-121920000D01*
X89034266Y-121888396D01*
X89029474Y-121911959D01*
G36*
X87920656Y-124472843D02*
G01*
X87886571Y-124504812D01*
X87893563Y-124523190D01*
X87898002Y-124523500D01*
X87924856Y-124500948D01*
X87934657Y-124486844D01*
X87938400Y-124465117D01*
X87920656Y-124472843D01*
G37*
X87920656Y-124472843D02*
X87886571Y-124504812D01*
X87893563Y-124523190D01*
X87898002Y-124523500D01*
X87924856Y-124500948D01*
X87934657Y-124486844D01*
X87938400Y-124465117D01*
X87920656Y-124472843D01*
G36*
X87757923Y-123055410D02*
G01*
X87757000Y-123063000D01*
X87781161Y-123093827D01*
X87788750Y-123094750D01*
X87819578Y-123070589D01*
X87820500Y-123063000D01*
X87796340Y-123032172D01*
X87788750Y-123031250D01*
X87757923Y-123055410D01*
G37*
X87757923Y-123055410D02*
X87757000Y-123063000D01*
X87781161Y-123093827D01*
X87788750Y-123094750D01*
X87819578Y-123070589D01*
X87820500Y-123063000D01*
X87796340Y-123032172D01*
X87788750Y-123031250D01*
X87757923Y-123055410D01*
G36*
X88461389Y-122055286D02*
G01*
X88416316Y-122075532D01*
X88414761Y-122101118D01*
X88434389Y-122137625D01*
X88460426Y-122125471D01*
X88485763Y-122096417D01*
X88504859Y-122061521D01*
X88469973Y-122054727D01*
X88461389Y-122055286D01*
G37*
X88461389Y-122055286D02*
X88416316Y-122075532D01*
X88414761Y-122101118D01*
X88434389Y-122137625D01*
X88460426Y-122125471D01*
X88485763Y-122096417D01*
X88504859Y-122061521D01*
X88469973Y-122054727D01*
X88461389Y-122055286D01*
%TD*%
D12*
%TO.C,J4*%
X108650000Y-86660000D03*
X108650000Y-84120000D03*
X106110000Y-86660000D03*
X106110000Y-84120000D03*
X103570000Y-86660000D03*
X103570000Y-84120000D03*
X101030000Y-86660000D03*
X101030000Y-84120000D03*
X98490000Y-86660000D03*
X98490000Y-84120000D03*
X95950000Y-86660000D03*
X95950000Y-84120000D03*
X93410000Y-86660000D03*
X93410000Y-84120000D03*
X90870000Y-86660000D03*
X90870000Y-84120000D03*
X88330000Y-86660000D03*
X88330000Y-84120000D03*
X85790000Y-86660000D03*
X85790000Y-84120000D03*
X83250000Y-86660000D03*
X83250000Y-84120000D03*
X80710000Y-86660000D03*
X80710000Y-84120000D03*
X78170000Y-86660000D03*
X78170000Y-84120000D03*
X75630000Y-86660000D03*
X75630000Y-84120000D03*
X73090000Y-86660000D03*
X73090000Y-84120000D03*
X70550000Y-86660000D03*
D13*
X70550000Y-84120000D03*
%TD*%
D14*
%TO.C,U7*%
X93345000Y-34925000D03*
X100965000Y-57785000D03*
X93345000Y-37465000D03*
X100965000Y-55245000D03*
X93345000Y-40005000D03*
X100965000Y-52705000D03*
X93345000Y-42545000D03*
X100965000Y-50165000D03*
X93345000Y-45085000D03*
X100965000Y-47625000D03*
X93345000Y-47625000D03*
X100965000Y-45085000D03*
X93345000Y-50165000D03*
X100965000Y-42545000D03*
X93345000Y-52705000D03*
X100965000Y-40005000D03*
X93345000Y-55245000D03*
X100965000Y-37465000D03*
X93345000Y-57785000D03*
D15*
X100965000Y-34925000D03*
%TD*%
D14*
%TO.C,U6*%
X106045000Y-34925000D03*
X113665000Y-57785000D03*
X106045000Y-37465000D03*
X113665000Y-55245000D03*
X106045000Y-40005000D03*
X113665000Y-52705000D03*
X106045000Y-42545000D03*
X113665000Y-50165000D03*
X106045000Y-45085000D03*
X113665000Y-47625000D03*
X106045000Y-47625000D03*
X113665000Y-45085000D03*
X106045000Y-50165000D03*
X113665000Y-42545000D03*
X106045000Y-52705000D03*
X113665000Y-40005000D03*
X106045000Y-55245000D03*
X113665000Y-37465000D03*
X106045000Y-57785000D03*
D15*
X113665000Y-34925000D03*
%TD*%
D14*
%TO.C,U4*%
X114935000Y-63500000D03*
X76835000Y-78740000D03*
X112395000Y-63500000D03*
X79375000Y-78740000D03*
X109855000Y-63500000D03*
X81915000Y-78740000D03*
X107315000Y-63500000D03*
X84455000Y-78740000D03*
X104775000Y-63500000D03*
X86995000Y-78740000D03*
X102235000Y-63500000D03*
X89535000Y-78740000D03*
X99695000Y-63500000D03*
X92075000Y-78740000D03*
X97155000Y-63500000D03*
X94615000Y-78740000D03*
X94615000Y-63500000D03*
X97155000Y-78740000D03*
X92075000Y-63500000D03*
X99695000Y-78740000D03*
X89535000Y-63500000D03*
X102235000Y-78740000D03*
X86995000Y-63500000D03*
X104775000Y-78740000D03*
X84455000Y-63500000D03*
X107315000Y-78740000D03*
X81915000Y-63500000D03*
X109855000Y-78740000D03*
X79375000Y-63500000D03*
X112395000Y-78740000D03*
X76835000Y-63500000D03*
D15*
X114935000Y-78740000D03*
%TD*%
D16*
%TO.C,U3*%
X66675000Y-40640000D03*
X66675000Y-43180000D03*
X66675000Y-45720000D03*
X66675000Y-48260000D03*
X66675000Y-50800000D03*
X69215000Y-38100000D03*
X69215000Y-43180000D03*
X69215000Y-45720000D03*
X69215000Y-48260000D03*
X69215000Y-50800000D03*
X69215000Y-53340000D03*
X69215000Y-55880000D03*
X71755000Y-55880000D03*
X74295000Y-55880000D03*
X76835000Y-55880000D03*
X79375000Y-55880000D03*
X81915000Y-55880000D03*
X66675000Y-53340000D03*
X71755000Y-53340000D03*
X74295000Y-53340000D03*
X76835000Y-53340000D03*
X79375000Y-53340000D03*
X81915000Y-53340000D03*
X84455000Y-53340000D03*
X84455000Y-50800000D03*
X84455000Y-48260000D03*
X84455000Y-45720000D03*
X84455000Y-43180000D03*
X84455000Y-40640000D03*
X81915000Y-50800000D03*
X81915000Y-48260000D03*
X81915000Y-45720000D03*
X81915000Y-43180000D03*
X81915000Y-40640000D03*
X71755000Y-38100000D03*
X74295000Y-38100000D03*
X81915000Y-38100000D03*
X79375000Y-38100000D03*
X76835000Y-38100000D03*
X69215000Y-40640000D03*
X71755000Y-40640000D03*
X79375000Y-40640000D03*
X76835000Y-40640000D03*
G36*
G01*
X75057200Y-39928800D02*
X75057200Y-41351200D01*
G75*
G02*
X75006200Y-41402200I-51000J0D01*
G01*
X73583800Y-41402200D01*
G75*
G02*
X73532800Y-41351200I0J51000D01*
G01*
X73532800Y-39928800D01*
G75*
G02*
X73583800Y-39877800I51000J0D01*
G01*
X75006200Y-39877800D01*
G75*
G02*
X75057200Y-39928800I0J-51000D01*
G01*
G37*
%TD*%
%TO.C,U2*%
X72390000Y-16510000D03*
X72390000Y-19050000D03*
X72390000Y-21590000D03*
X72390000Y-24130000D03*
X74930000Y-19050000D03*
X74930000Y-21590000D03*
X74930000Y-24130000D03*
X74930000Y-26670000D03*
X74930000Y-29210000D03*
X77470000Y-29210000D03*
X80010000Y-29210000D03*
X82550000Y-29210000D03*
X72390000Y-26670000D03*
X77470000Y-26670000D03*
X80010000Y-26670000D03*
X82550000Y-26670000D03*
X85090000Y-26670000D03*
X85090000Y-24130000D03*
X85090000Y-21590000D03*
X85090000Y-19050000D03*
X85090000Y-16510000D03*
X82550000Y-24130000D03*
X82550000Y-21590000D03*
X82550000Y-19050000D03*
X82550000Y-16510000D03*
X74930000Y-13970000D03*
X77470000Y-13970000D03*
X82550000Y-13970000D03*
X80010000Y-13970000D03*
X74930000Y-16510000D03*
X80010000Y-16510000D03*
G36*
G01*
X78232200Y-15798800D02*
X78232200Y-17221200D01*
G75*
G02*
X78181200Y-17272200I-51000J0D01*
G01*
X76758800Y-17272200D01*
G75*
G02*
X76707800Y-17221200I0J51000D01*
G01*
X76707800Y-15798800D01*
G75*
G02*
X76758800Y-15747800I51000J0D01*
G01*
X78181200Y-15747800D01*
G75*
G02*
X78232200Y-15798800I0J-51000D01*
G01*
G37*
%TD*%
%TO.C,U1*%
X97790000Y-16510000D03*
X97790000Y-19050000D03*
X97790000Y-21590000D03*
X97790000Y-24130000D03*
X100330000Y-19050000D03*
X100330000Y-21590000D03*
X100330000Y-24130000D03*
X100330000Y-26670000D03*
X100330000Y-29210000D03*
X102870000Y-29210000D03*
X105410000Y-29210000D03*
X107950000Y-29210000D03*
X97790000Y-26670000D03*
X102870000Y-26670000D03*
X105410000Y-26670000D03*
X107950000Y-26670000D03*
X110490000Y-26670000D03*
X110490000Y-24130000D03*
X110490000Y-21590000D03*
X110490000Y-19050000D03*
X110490000Y-16510000D03*
X107950000Y-24130000D03*
X107950000Y-21590000D03*
X107950000Y-19050000D03*
X107950000Y-16510000D03*
X100330000Y-13970000D03*
X102870000Y-13970000D03*
X107950000Y-13970000D03*
X105410000Y-13970000D03*
X100330000Y-16510000D03*
X105410000Y-16510000D03*
G36*
G01*
X103632200Y-15798800D02*
X103632200Y-17221200D01*
G75*
G02*
X103581200Y-17272200I-51000J0D01*
G01*
X102158800Y-17272200D01*
G75*
G02*
X102107800Y-17221200I0J51000D01*
G01*
X102107800Y-15798800D01*
G75*
G02*
X102158800Y-15747800I51000J0D01*
G01*
X103581200Y-15747800D01*
G75*
G02*
X103632200Y-15798800I0J-51000D01*
G01*
G37*
%TD*%
D17*
%TO.C,SW1*%
X64770000Y-20615000D03*
X64770000Y-28915000D03*
D18*
X64770000Y-22765000D03*
X64770000Y-24765000D03*
G36*
G01*
X66020000Y-27616000D02*
X63520000Y-27616000D01*
G75*
G02*
X63469000Y-27565000I0J51000D01*
G01*
X63469000Y-25965000D01*
G75*
G02*
X63520000Y-25914000I51000J0D01*
G01*
X66020000Y-25914000D01*
G75*
G02*
X66071000Y-25965000I0J-51000D01*
G01*
X66071000Y-27565000D01*
G75*
G02*
X66020000Y-27616000I-51000J0D01*
G01*
G37*
%TD*%
D13*
%TO.C,J3*%
X67310000Y-66040000D03*
D12*
X64770000Y-66040000D03*
X67310000Y-68580000D03*
X64770000Y-68580000D03*
X67310000Y-71120000D03*
X64770000Y-71120000D03*
X67310000Y-73660000D03*
X64770000Y-73660000D03*
X67310000Y-76200000D03*
X64770000Y-76200000D03*
%TD*%
M02*
