%TF.GenerationSoftware,KiCad,Pcbnew,(5.1.10-1-10_14)*%
%TF.CreationDate,2023-03-27T22:45:21+08:00*%
%TF.ProjectId,GB_MemoryBackup_Subboard_A,47425f4d-656d-46f7-9279-4261636b7570,1.0*%
%TF.SameCoordinates,Original*%
%TF.FileFunction,Copper,L1,Top*%
%TF.FilePolarity,Positive*%
%FSLAX46Y46*%
G04 Gerber Fmt 4.6, Leading zero omitted, Abs format (unit mm)*
G04 Created by KiCad (PCBNEW (5.1.10-1-10_14)) date 2023-03-27 22:45:21*
%MOMM*%
%LPD*%
G01*
G04 APERTURE LIST*
%TA.AperFunction,ComponentPad*%
%ADD10O,1.700000X1.700000*%
%TD*%
%TA.AperFunction,ComponentPad*%
%ADD11R,1.700000X1.700000*%
%TD*%
%TA.AperFunction,SMDPad,CuDef*%
%ADD12R,5.500000X3.500000*%
%TD*%
%TA.AperFunction,SMDPad,CuDef*%
%ADD13R,1.000000X5.000000*%
%TD*%
%TA.AperFunction,Conductor*%
%ADD14C,0.500000*%
%TD*%
%TA.AperFunction,Conductor*%
%ADD15C,0.400000*%
%TD*%
%TA.AperFunction,Conductor*%
%ADD16C,0.250000*%
%TD*%
%TA.AperFunction,Conductor*%
%ADD17C,0.254000*%
%TD*%
%TA.AperFunction,Conductor*%
%ADD18C,0.100000*%
%TD*%
G04 APERTURE END LIST*
D10*
%TO.P,J1,32*%
%TO.N,GND*%
X150430000Y-83890000D03*
%TO.P,J1,31*%
%TO.N,/AAudioIn*%
X150430000Y-86430000D03*
%TO.P,J1,30*%
%TO.N,/~ARST*%
X152970000Y-83890000D03*
%TO.P,J1,29*%
%TO.N,/AD7*%
X152970000Y-86430000D03*
%TO.P,J1,28*%
%TO.N,/AD6*%
X155510000Y-83890000D03*
%TO.P,J1,27*%
%TO.N,/AD5*%
X155510000Y-86430000D03*
%TO.P,J1,26*%
%TO.N,/AD4*%
X158050000Y-83890000D03*
%TO.P,J1,25*%
%TO.N,/AD3*%
X158050000Y-86430000D03*
%TO.P,J1,24*%
%TO.N,/AD2*%
X160590000Y-83890000D03*
%TO.P,J1,23*%
%TO.N,/AD1*%
X160590000Y-86430000D03*
%TO.P,J1,22*%
%TO.N,/AD0*%
X163130000Y-83890000D03*
%TO.P,J1,21*%
%TO.N,/AA15_T*%
X163130000Y-86430000D03*
%TO.P,J1,20*%
%TO.N,/AA14*%
X165670000Y-83890000D03*
%TO.P,J1,19*%
%TO.N,/AA13*%
X165670000Y-86430000D03*
%TO.P,J1,18*%
%TO.N,/AA12*%
X168210000Y-83890000D03*
%TO.P,J1,17*%
%TO.N,/AA11*%
X168210000Y-86430000D03*
%TO.P,J1,16*%
%TO.N,/AA10*%
X170750000Y-83890000D03*
%TO.P,J1,15*%
%TO.N,/AA9*%
X170750000Y-86430000D03*
%TO.P,J1,14*%
%TO.N,/AA8*%
X173290000Y-83890000D03*
%TO.P,J1,13*%
%TO.N,/AA7*%
X173290000Y-86430000D03*
%TO.P,J1,12*%
%TO.N,/AA6*%
X175830000Y-83890000D03*
%TO.P,J1,11*%
%TO.N,/AA5*%
X175830000Y-86430000D03*
%TO.P,J1,10*%
%TO.N,/AA4*%
X178370000Y-83890000D03*
%TO.P,J1,9*%
%TO.N,/AA3*%
X178370000Y-86430000D03*
%TO.P,J1,8*%
%TO.N,/AA2*%
X180910000Y-83890000D03*
%TO.P,J1,7*%
%TO.N,/AA1*%
X180910000Y-86430000D03*
%TO.P,J1,6*%
%TO.N,/AA0*%
X183450000Y-83890000D03*
%TO.P,J1,5*%
%TO.N,/~ASRAM_CS*%
X183450000Y-86430000D03*
%TO.P,J1,4*%
%TO.N,/~ARD_T*%
X185990000Y-83890000D03*
%TO.P,J1,3*%
%TO.N,/~AWR_T*%
X185990000Y-86430000D03*
%TO.P,J1,2*%
%TO.N,/ACLK*%
X188530000Y-83890000D03*
D11*
%TO.P,J1,1*%
%TO.N,+5V*%
X188530000Y-86430000D03*
%TD*%
D12*
%TO.P,J2,SHIELD_4*%
%TO.N,N/C*%
X156480000Y-114090000D03*
%TO.P,J2,SHIELD_3*%
X182480000Y-114090000D03*
D13*
%TO.P,J2,32*%
%TO.N,GND*%
X146230000Y-92840000D03*
%TO.P,J2,31*%
%TO.N,/AAudioIn*%
X147730000Y-92840000D03*
%TO.P,J2,30*%
%TO.N,/~ARST*%
X149230000Y-92840000D03*
%TO.P,J2,29*%
%TO.N,/AD7*%
X150730000Y-92840000D03*
%TO.P,J2,28*%
%TO.N,/AD6*%
X152230000Y-92840000D03*
%TO.P,J2,27*%
%TO.N,/AD5*%
X153730000Y-92840000D03*
%TO.P,J2,26*%
%TO.N,/AD4*%
X155230000Y-92840000D03*
%TO.P,J2,25*%
%TO.N,/AD3*%
X156730000Y-92840000D03*
%TO.P,J2,24*%
%TO.N,/AD2*%
X158230000Y-92840000D03*
%TO.P,J2,23*%
%TO.N,/AD1*%
X159730000Y-92840000D03*
%TO.P,J2,22*%
%TO.N,/AD0*%
X161230000Y-92840000D03*
%TO.P,J2,21*%
%TO.N,/AA15_T*%
X162730000Y-92840000D03*
%TO.P,J2,20*%
%TO.N,/AA14*%
X164230000Y-92840000D03*
%TO.P,J2,19*%
%TO.N,/AA13*%
X165730000Y-92840000D03*
%TO.P,J2,18*%
%TO.N,/AA12*%
X167230000Y-92840000D03*
%TO.P,J2,17*%
%TO.N,/AA11*%
X168730000Y-92840000D03*
%TO.P,J2,16*%
%TO.N,/AA10*%
X170230000Y-92840000D03*
%TO.P,J2,15*%
%TO.N,/AA9*%
X171730000Y-92840000D03*
%TO.P,J2,14*%
%TO.N,/AA8*%
X173230000Y-92840000D03*
%TO.P,J2,13*%
%TO.N,/AA7*%
X174730000Y-92840000D03*
%TO.P,J2,12*%
%TO.N,/AA6*%
X176230000Y-92840000D03*
%TO.P,J2,11*%
%TO.N,/AA5*%
X177730000Y-92840000D03*
%TO.P,J2,10*%
%TO.N,/AA4*%
X179230000Y-92840000D03*
%TO.P,J2,9*%
%TO.N,/AA3*%
X180730000Y-92840000D03*
%TO.P,J2,8*%
%TO.N,/AA2*%
X182230000Y-92840000D03*
%TO.P,J2,7*%
%TO.N,/AA1*%
X183730000Y-92840000D03*
%TO.P,J2,6*%
%TO.N,/AA0*%
X185230000Y-92840000D03*
%TO.P,J2,5*%
%TO.N,/~ASRAM_CS*%
X186730000Y-92840000D03*
%TO.P,J2,4*%
%TO.N,/~ARD_T*%
X188230000Y-92840000D03*
%TO.P,J2,3*%
%TO.N,/~AWR_T*%
X189730000Y-92840000D03*
%TO.P,J2,2*%
%TO.N,/ACLK*%
X191230000Y-92840000D03*
%TO.P,J2,1*%
%TO.N,+5V*%
X192730000Y-92840000D03*
%TD*%
D14*
%TO.N,+5V*%
X192730000Y-89280000D02*
X192730000Y-92840000D01*
X189880000Y-86430000D02*
X192730000Y-89280000D01*
X188530000Y-86430000D02*
X189880000Y-86430000D01*
%TO.N,GND*%
X146230000Y-92840000D02*
X146230000Y-88090000D01*
X146230000Y-88090000D02*
X150430000Y-83890000D01*
D15*
%TO.N,/AAudioIn*%
X147730000Y-89130000D02*
X147730000Y-92840000D01*
X150430000Y-86430000D02*
X147730000Y-89130000D01*
D16*
%TO.N,/~ARST*%
X151784800Y-85075200D02*
X152970000Y-83890000D01*
X151784800Y-87460100D02*
X151784800Y-85075200D01*
X149230000Y-90014900D02*
X151784800Y-87460100D01*
X149230000Y-92840000D02*
X149230000Y-90014900D01*
%TO.N,/AD7*%
X150730000Y-92840000D02*
X150730000Y-90014900D01*
X150730000Y-90014900D02*
X152970000Y-87774900D01*
X152970000Y-87774900D02*
X152970000Y-86430000D01*
%TO.N,/AD6*%
X154240000Y-85160000D02*
X155510000Y-83890000D01*
X154240000Y-87755400D02*
X154240000Y-85160000D01*
X152230000Y-89765400D02*
X154240000Y-87755400D01*
X152230000Y-92840000D02*
X152230000Y-89765400D01*
%TO.N,/AD5*%
X153730000Y-92840000D02*
X153730000Y-90014900D01*
X153730000Y-90014900D02*
X155510000Y-88234900D01*
X155510000Y-88234900D02*
X155510000Y-86430000D01*
%TO.N,/AD4*%
X156780000Y-88238400D02*
X156780000Y-85160000D01*
X156780000Y-85160000D02*
X158050000Y-83890000D01*
X155230000Y-89788400D02*
X156780000Y-88238400D01*
X155230000Y-92840000D02*
X155230000Y-89788400D01*
%TO.N,/AD3*%
X156730000Y-92840000D02*
X156730000Y-90014900D01*
X156730000Y-90014900D02*
X158050000Y-88694900D01*
X158050000Y-88694900D02*
X158050000Y-86430000D01*
%TO.N,/AD2*%
X159320000Y-85160000D02*
X160590000Y-83890000D01*
X159320000Y-88238400D02*
X159320000Y-85160000D01*
X158230000Y-89328400D02*
X159320000Y-88238400D01*
X158230000Y-92840000D02*
X158230000Y-89328400D01*
%TO.N,/AD1*%
X159730000Y-92840000D02*
X159730000Y-90014900D01*
X159730000Y-90014900D02*
X160590000Y-89154900D01*
X160590000Y-89154900D02*
X160590000Y-86430000D01*
%TO.N,/AD0*%
X161860000Y-89384900D02*
X161860000Y-85160000D01*
X161860000Y-85160000D02*
X163130000Y-83890000D01*
X161230000Y-90014900D02*
X161860000Y-89384900D01*
X161230000Y-92840000D02*
X161230000Y-90014900D01*
%TO.N,/AA14*%
X164400000Y-85160000D02*
X165670000Y-83890000D01*
X164400000Y-89844900D02*
X164400000Y-85160000D01*
X164230000Y-90014900D02*
X164400000Y-89844900D01*
X164230000Y-92840000D02*
X164230000Y-90014900D01*
%TO.N,/AA13*%
X165730000Y-86490000D02*
X165670000Y-86430000D01*
X165730000Y-92840000D02*
X165730000Y-86490000D01*
%TO.N,/AA12*%
X167012500Y-89797400D02*
X167012500Y-85087500D01*
X167012500Y-85087500D02*
X168210000Y-83890000D01*
X167230000Y-90014900D02*
X167012500Y-89797400D01*
X167230000Y-92840000D02*
X167230000Y-90014900D01*
%TO.N,/AA11*%
X168210000Y-86430000D02*
X168210000Y-87605100D01*
X168730000Y-92840000D02*
X168730000Y-88125100D01*
X168730000Y-88125100D02*
X168210000Y-87605100D01*
%TO.N,/AA10*%
X169573700Y-85066300D02*
X170750000Y-83890000D01*
X169573700Y-89358600D02*
X169573700Y-85066300D01*
X170230000Y-90014900D02*
X169573700Y-89358600D01*
X170230000Y-92840000D02*
X170230000Y-90014900D01*
%TO.N,/AA9*%
X171730000Y-92840000D02*
X171730000Y-90014900D01*
X171730000Y-90014900D02*
X170750000Y-89034900D01*
X170750000Y-89034900D02*
X170750000Y-86430000D01*
%TO.N,/AA8*%
X172095600Y-85084400D02*
X173290000Y-83890000D01*
X172095600Y-88513800D02*
X172095600Y-85084400D01*
X173230000Y-89648200D02*
X172095600Y-88513800D01*
X173230000Y-92840000D02*
X173230000Y-89648200D01*
%TO.N,/AA7*%
X174730000Y-92840000D02*
X174730000Y-90014900D01*
X174730000Y-90014900D02*
X173290000Y-88574900D01*
X173290000Y-88574900D02*
X173290000Y-86430000D01*
%TO.N,/AA6*%
X174639400Y-85080600D02*
X175830000Y-83890000D01*
X176230000Y-90014900D02*
X174639400Y-88424300D01*
X174639400Y-88424300D02*
X174639400Y-85080600D01*
X176230000Y-92840000D02*
X176230000Y-90014900D01*
%TO.N,/AA5*%
X177730000Y-92840000D02*
X177730000Y-90014900D01*
X177730000Y-90014900D02*
X175830000Y-88114900D01*
X175830000Y-88114900D02*
X175830000Y-86430000D01*
%TO.N,/AA4*%
X177179400Y-85080600D02*
X178370000Y-83890000D01*
X177179400Y-87964300D02*
X177179400Y-85080600D01*
X179230000Y-90014900D02*
X177179400Y-87964300D01*
X179230000Y-92840000D02*
X179230000Y-90014900D01*
%TO.N,/AA3*%
X180730000Y-92840000D02*
X180730000Y-90014900D01*
X180730000Y-90014900D02*
X178370000Y-87654900D01*
X178370000Y-87654900D02*
X178370000Y-86430000D01*
%TO.N,/AA2*%
X179719400Y-87504300D02*
X179719400Y-85080600D01*
X182230000Y-90014900D02*
X179719400Y-87504300D01*
X179719400Y-85080600D02*
X180910000Y-83890000D01*
X182230000Y-92840000D02*
X182230000Y-90014900D01*
%TO.N,/AA1*%
X183730000Y-89250000D02*
X180910000Y-86430000D01*
X183730000Y-92840000D02*
X183730000Y-89250000D01*
%TO.N,/AA0*%
X182259400Y-85080600D02*
X183450000Y-83890000D01*
X185230000Y-90014900D02*
X182259400Y-87044300D01*
X182259400Y-87044300D02*
X182259400Y-85080600D01*
X185230000Y-92840000D02*
X185230000Y-90014900D01*
%TO.N,/~ASRAM_CS*%
X183450000Y-86430000D02*
X186730000Y-89710000D01*
X186730000Y-89710000D02*
X186730000Y-92840000D01*
D14*
%TO.N,/ACLK*%
X191230000Y-92840000D02*
X191230000Y-95910100D01*
X191230000Y-95910100D02*
X193490500Y-95910100D01*
X193490500Y-95910100D02*
X193801800Y-95598800D01*
X193801800Y-95598800D02*
X193801800Y-89161800D01*
X193801800Y-89161800D02*
X188530000Y-83890000D01*
D16*
%TO.N,/AA15_T*%
X162730000Y-88005100D02*
X163130000Y-87605100D01*
X163130000Y-86430000D02*
X163130000Y-87605100D01*
X162730000Y-92840000D02*
X162730000Y-88005100D01*
%TO.N,/~ARD_T*%
X184799400Y-85080600D02*
X185990000Y-83890000D01*
X184799400Y-86996900D02*
X184799400Y-85080600D01*
X188230000Y-92840000D02*
X188230000Y-90014900D01*
X186396250Y-88593750D02*
X186808850Y-88593750D01*
X186808850Y-88593750D02*
X188230000Y-90014900D01*
X186396250Y-88593750D02*
X184799400Y-86996900D01*
%TO.N,/~AWR_T*%
X189730000Y-90170000D02*
X189730000Y-92840000D01*
X185990000Y-86430000D02*
X189730000Y-90170000D01*
%TD*%
D17*
%TO.N,GND*%
X196545001Y-115995000D02*
X185846554Y-115995000D01*
X185855812Y-115964482D01*
X185868072Y-115840000D01*
X185868072Y-112340000D01*
X185855812Y-112215518D01*
X185819502Y-112095820D01*
X185760537Y-111985506D01*
X185681185Y-111888815D01*
X185584494Y-111809463D01*
X185474180Y-111750498D01*
X185354482Y-111714188D01*
X185230000Y-111701928D01*
X179730000Y-111701928D01*
X179605518Y-111714188D01*
X179485820Y-111750498D01*
X179375506Y-111809463D01*
X179278815Y-111888815D01*
X179199463Y-111985506D01*
X179140498Y-112095820D01*
X179104188Y-112215518D01*
X179091928Y-112340000D01*
X179091928Y-115840000D01*
X179104188Y-115964482D01*
X179113446Y-115995000D01*
X159846554Y-115995000D01*
X159855812Y-115964482D01*
X159868072Y-115840000D01*
X159868072Y-112340000D01*
X159855812Y-112215518D01*
X159819502Y-112095820D01*
X159760537Y-111985506D01*
X159681185Y-111888815D01*
X159584494Y-111809463D01*
X159474180Y-111750498D01*
X159354482Y-111714188D01*
X159230000Y-111701928D01*
X153730000Y-111701928D01*
X153605518Y-111714188D01*
X153485820Y-111750498D01*
X153375506Y-111809463D01*
X153278815Y-111888815D01*
X153199463Y-111985506D01*
X153140498Y-112095820D01*
X153104188Y-112215518D01*
X153091928Y-112340000D01*
X153091928Y-115840000D01*
X153104188Y-115964482D01*
X153113446Y-115995000D01*
X142415000Y-115995000D01*
X142415000Y-101169117D01*
X154745000Y-101169117D01*
X154745000Y-101510883D01*
X154811675Y-101846081D01*
X154942463Y-102161831D01*
X155132337Y-102445998D01*
X155374002Y-102687663D01*
X155658169Y-102877537D01*
X155973919Y-103008325D01*
X156309117Y-103075000D01*
X156650883Y-103075000D01*
X156986081Y-103008325D01*
X157301831Y-102877537D01*
X157585998Y-102687663D01*
X157827663Y-102445998D01*
X158017537Y-102161831D01*
X158148325Y-101846081D01*
X158215000Y-101510883D01*
X158215000Y-101169117D01*
X180745000Y-101169117D01*
X180745000Y-101510883D01*
X180811675Y-101846081D01*
X180942463Y-102161831D01*
X181132337Y-102445998D01*
X181374002Y-102687663D01*
X181658169Y-102877537D01*
X181973919Y-103008325D01*
X182309117Y-103075000D01*
X182650883Y-103075000D01*
X182986081Y-103008325D01*
X183301831Y-102877537D01*
X183585998Y-102687663D01*
X183827663Y-102445998D01*
X184017537Y-102161831D01*
X184148325Y-101846081D01*
X184215000Y-101510883D01*
X184215000Y-101169117D01*
X184148325Y-100833919D01*
X184017537Y-100518169D01*
X183827663Y-100234002D01*
X183585998Y-99992337D01*
X183301831Y-99802463D01*
X182986081Y-99671675D01*
X182650883Y-99605000D01*
X182309117Y-99605000D01*
X181973919Y-99671675D01*
X181658169Y-99802463D01*
X181374002Y-99992337D01*
X181132337Y-100234002D01*
X180942463Y-100518169D01*
X180811675Y-100833919D01*
X180745000Y-101169117D01*
X158215000Y-101169117D01*
X158148325Y-100833919D01*
X158017537Y-100518169D01*
X157827663Y-100234002D01*
X157585998Y-99992337D01*
X157301831Y-99802463D01*
X156986081Y-99671675D01*
X156650883Y-99605000D01*
X156309117Y-99605000D01*
X155973919Y-99671675D01*
X155658169Y-99802463D01*
X155374002Y-99992337D01*
X155132337Y-100234002D01*
X154942463Y-100518169D01*
X154811675Y-100833919D01*
X154745000Y-101169117D01*
X142415000Y-101169117D01*
X142415000Y-95340000D01*
X145091928Y-95340000D01*
X145104188Y-95464482D01*
X145140498Y-95584180D01*
X145199463Y-95694494D01*
X145278815Y-95791185D01*
X145375506Y-95870537D01*
X145485820Y-95929502D01*
X145605518Y-95965812D01*
X145730000Y-95978072D01*
X145944250Y-95975000D01*
X146103000Y-95816250D01*
X146103000Y-92967000D01*
X145253750Y-92967000D01*
X145095000Y-93125750D01*
X145091928Y-95340000D01*
X142415000Y-95340000D01*
X142415000Y-90340000D01*
X145091928Y-90340000D01*
X145095000Y-92554250D01*
X145253750Y-92713000D01*
X146103000Y-92713000D01*
X146103000Y-89863750D01*
X146357000Y-89863750D01*
X146357000Y-92713000D01*
X146377000Y-92713000D01*
X146377000Y-92967000D01*
X146357000Y-92967000D01*
X146357000Y-95816250D01*
X146515750Y-95975000D01*
X146730000Y-95978072D01*
X146854482Y-95965812D01*
X146974180Y-95929502D01*
X146980000Y-95926391D01*
X146985820Y-95929502D01*
X147105518Y-95965812D01*
X147230000Y-95978072D01*
X148230000Y-95978072D01*
X148354482Y-95965812D01*
X148474180Y-95929502D01*
X148480000Y-95926391D01*
X148485820Y-95929502D01*
X148605518Y-95965812D01*
X148730000Y-95978072D01*
X149730000Y-95978072D01*
X149854482Y-95965812D01*
X149974180Y-95929502D01*
X149980000Y-95926391D01*
X149985820Y-95929502D01*
X150105518Y-95965812D01*
X150230000Y-95978072D01*
X151230000Y-95978072D01*
X151354482Y-95965812D01*
X151474180Y-95929502D01*
X151480000Y-95926391D01*
X151485820Y-95929502D01*
X151605518Y-95965812D01*
X151730000Y-95978072D01*
X152730000Y-95978072D01*
X152854482Y-95965812D01*
X152974180Y-95929502D01*
X152980000Y-95926391D01*
X152985820Y-95929502D01*
X153105518Y-95965812D01*
X153230000Y-95978072D01*
X154230000Y-95978072D01*
X154354482Y-95965812D01*
X154474180Y-95929502D01*
X154480000Y-95926391D01*
X154485820Y-95929502D01*
X154605518Y-95965812D01*
X154730000Y-95978072D01*
X155730000Y-95978072D01*
X155854482Y-95965812D01*
X155974180Y-95929502D01*
X155980000Y-95926391D01*
X155985820Y-95929502D01*
X156105518Y-95965812D01*
X156230000Y-95978072D01*
X157230000Y-95978072D01*
X157354482Y-95965812D01*
X157474180Y-95929502D01*
X157480000Y-95926391D01*
X157485820Y-95929502D01*
X157605518Y-95965812D01*
X157730000Y-95978072D01*
X158730000Y-95978072D01*
X158854482Y-95965812D01*
X158974180Y-95929502D01*
X158980000Y-95926391D01*
X158985820Y-95929502D01*
X159105518Y-95965812D01*
X159230000Y-95978072D01*
X160230000Y-95978072D01*
X160354482Y-95965812D01*
X160474180Y-95929502D01*
X160480000Y-95926391D01*
X160485820Y-95929502D01*
X160605518Y-95965812D01*
X160730000Y-95978072D01*
X161730000Y-95978072D01*
X161854482Y-95965812D01*
X161974180Y-95929502D01*
X161980000Y-95926391D01*
X161985820Y-95929502D01*
X162105518Y-95965812D01*
X162230000Y-95978072D01*
X163230000Y-95978072D01*
X163354482Y-95965812D01*
X163474180Y-95929502D01*
X163480000Y-95926391D01*
X163485820Y-95929502D01*
X163605518Y-95965812D01*
X163730000Y-95978072D01*
X164730000Y-95978072D01*
X164854482Y-95965812D01*
X164974180Y-95929502D01*
X164980000Y-95926391D01*
X164985820Y-95929502D01*
X165105518Y-95965812D01*
X165230000Y-95978072D01*
X166230000Y-95978072D01*
X166354482Y-95965812D01*
X166474180Y-95929502D01*
X166480000Y-95926391D01*
X166485820Y-95929502D01*
X166605518Y-95965812D01*
X166730000Y-95978072D01*
X167730000Y-95978072D01*
X167854482Y-95965812D01*
X167974180Y-95929502D01*
X167980000Y-95926391D01*
X167985820Y-95929502D01*
X168105518Y-95965812D01*
X168230000Y-95978072D01*
X169230000Y-95978072D01*
X169354482Y-95965812D01*
X169474180Y-95929502D01*
X169480000Y-95926391D01*
X169485820Y-95929502D01*
X169605518Y-95965812D01*
X169730000Y-95978072D01*
X170730000Y-95978072D01*
X170854482Y-95965812D01*
X170974180Y-95929502D01*
X170980000Y-95926391D01*
X170985820Y-95929502D01*
X171105518Y-95965812D01*
X171230000Y-95978072D01*
X172230000Y-95978072D01*
X172354482Y-95965812D01*
X172474180Y-95929502D01*
X172480000Y-95926391D01*
X172485820Y-95929502D01*
X172605518Y-95965812D01*
X172730000Y-95978072D01*
X173730000Y-95978072D01*
X173854482Y-95965812D01*
X173974180Y-95929502D01*
X173980000Y-95926391D01*
X173985820Y-95929502D01*
X174105518Y-95965812D01*
X174230000Y-95978072D01*
X175230000Y-95978072D01*
X175354482Y-95965812D01*
X175474180Y-95929502D01*
X175480000Y-95926391D01*
X175485820Y-95929502D01*
X175605518Y-95965812D01*
X175730000Y-95978072D01*
X176730000Y-95978072D01*
X176854482Y-95965812D01*
X176974180Y-95929502D01*
X176980000Y-95926391D01*
X176985820Y-95929502D01*
X177105518Y-95965812D01*
X177230000Y-95978072D01*
X178230000Y-95978072D01*
X178354482Y-95965812D01*
X178474180Y-95929502D01*
X178480000Y-95926391D01*
X178485820Y-95929502D01*
X178605518Y-95965812D01*
X178730000Y-95978072D01*
X179730000Y-95978072D01*
X179854482Y-95965812D01*
X179974180Y-95929502D01*
X179980000Y-95926391D01*
X179985820Y-95929502D01*
X180105518Y-95965812D01*
X180230000Y-95978072D01*
X181230000Y-95978072D01*
X181354482Y-95965812D01*
X181474180Y-95929502D01*
X181480000Y-95926391D01*
X181485820Y-95929502D01*
X181605518Y-95965812D01*
X181730000Y-95978072D01*
X182730000Y-95978072D01*
X182854482Y-95965812D01*
X182974180Y-95929502D01*
X182980000Y-95926391D01*
X182985820Y-95929502D01*
X183105518Y-95965812D01*
X183230000Y-95978072D01*
X184230000Y-95978072D01*
X184354482Y-95965812D01*
X184474180Y-95929502D01*
X184480000Y-95926391D01*
X184485820Y-95929502D01*
X184605518Y-95965812D01*
X184730000Y-95978072D01*
X185730000Y-95978072D01*
X185854482Y-95965812D01*
X185974180Y-95929502D01*
X185980000Y-95926391D01*
X185985820Y-95929502D01*
X186105518Y-95965812D01*
X186230000Y-95978072D01*
X187230000Y-95978072D01*
X187354482Y-95965812D01*
X187474180Y-95929502D01*
X187480000Y-95926391D01*
X187485820Y-95929502D01*
X187605518Y-95965812D01*
X187730000Y-95978072D01*
X188730000Y-95978072D01*
X188854482Y-95965812D01*
X188974180Y-95929502D01*
X188980000Y-95926391D01*
X188985820Y-95929502D01*
X189105518Y-95965812D01*
X189230000Y-95978072D01*
X190230000Y-95978072D01*
X190346285Y-95966619D01*
X190357805Y-96083590D01*
X190408411Y-96250413D01*
X190490589Y-96404159D01*
X190601183Y-96538917D01*
X190735941Y-96649511D01*
X190889687Y-96731689D01*
X191056510Y-96782295D01*
X191186523Y-96795100D01*
X191186524Y-96795100D01*
X191230000Y-96799382D01*
X191273477Y-96795100D01*
X193447031Y-96795100D01*
X193490500Y-96799381D01*
X193533969Y-96795100D01*
X193533977Y-96795100D01*
X193663990Y-96782295D01*
X193830813Y-96731689D01*
X193984559Y-96649511D01*
X194119317Y-96538917D01*
X194147034Y-96505144D01*
X194396845Y-96255333D01*
X194430617Y-96227617D01*
X194541211Y-96092859D01*
X194623389Y-95939113D01*
X194673995Y-95772290D01*
X194686800Y-95642277D01*
X194686800Y-95642269D01*
X194691081Y-95598800D01*
X194686800Y-95555331D01*
X194686800Y-89205266D01*
X194691081Y-89161799D01*
X194686800Y-89118333D01*
X194686800Y-89118323D01*
X194673995Y-88988310D01*
X194623389Y-88821487D01*
X194541211Y-88667741D01*
X194497844Y-88614899D01*
X194458332Y-88566753D01*
X194458330Y-88566751D01*
X194430617Y-88532983D01*
X194396849Y-88505270D01*
X190000539Y-84108961D01*
X190015000Y-84036260D01*
X190015000Y-83743740D01*
X189957932Y-83456842D01*
X189845990Y-83186589D01*
X189683475Y-82943368D01*
X189476632Y-82736525D01*
X189233411Y-82574010D01*
X188963158Y-82462068D01*
X188676260Y-82405000D01*
X188383740Y-82405000D01*
X188096842Y-82462068D01*
X187826589Y-82574010D01*
X187583368Y-82736525D01*
X187376525Y-82943368D01*
X187260000Y-83117760D01*
X187143475Y-82943368D01*
X186936632Y-82736525D01*
X186693411Y-82574010D01*
X186423158Y-82462068D01*
X186136260Y-82405000D01*
X185843740Y-82405000D01*
X185556842Y-82462068D01*
X185286589Y-82574010D01*
X185043368Y-82736525D01*
X184836525Y-82943368D01*
X184720000Y-83117760D01*
X184603475Y-82943368D01*
X184396632Y-82736525D01*
X184153411Y-82574010D01*
X183883158Y-82462068D01*
X183596260Y-82405000D01*
X183303740Y-82405000D01*
X183016842Y-82462068D01*
X182746589Y-82574010D01*
X182503368Y-82736525D01*
X182296525Y-82943368D01*
X182180000Y-83117760D01*
X182063475Y-82943368D01*
X181856632Y-82736525D01*
X181613411Y-82574010D01*
X181343158Y-82462068D01*
X181056260Y-82405000D01*
X180763740Y-82405000D01*
X180476842Y-82462068D01*
X180206589Y-82574010D01*
X179963368Y-82736525D01*
X179756525Y-82943368D01*
X179640000Y-83117760D01*
X179523475Y-82943368D01*
X179316632Y-82736525D01*
X179073411Y-82574010D01*
X178803158Y-82462068D01*
X178516260Y-82405000D01*
X178223740Y-82405000D01*
X177936842Y-82462068D01*
X177666589Y-82574010D01*
X177423368Y-82736525D01*
X177216525Y-82943368D01*
X177100000Y-83117760D01*
X176983475Y-82943368D01*
X176776632Y-82736525D01*
X176533411Y-82574010D01*
X176263158Y-82462068D01*
X175976260Y-82405000D01*
X175683740Y-82405000D01*
X175396842Y-82462068D01*
X175126589Y-82574010D01*
X174883368Y-82736525D01*
X174676525Y-82943368D01*
X174560000Y-83117760D01*
X174443475Y-82943368D01*
X174236632Y-82736525D01*
X173993411Y-82574010D01*
X173723158Y-82462068D01*
X173436260Y-82405000D01*
X173143740Y-82405000D01*
X172856842Y-82462068D01*
X172586589Y-82574010D01*
X172343368Y-82736525D01*
X172136525Y-82943368D01*
X172020000Y-83117760D01*
X171903475Y-82943368D01*
X171696632Y-82736525D01*
X171453411Y-82574010D01*
X171183158Y-82462068D01*
X170896260Y-82405000D01*
X170603740Y-82405000D01*
X170316842Y-82462068D01*
X170046589Y-82574010D01*
X169803368Y-82736525D01*
X169596525Y-82943368D01*
X169480000Y-83117760D01*
X169363475Y-82943368D01*
X169156632Y-82736525D01*
X168913411Y-82574010D01*
X168643158Y-82462068D01*
X168356260Y-82405000D01*
X168063740Y-82405000D01*
X167776842Y-82462068D01*
X167506589Y-82574010D01*
X167263368Y-82736525D01*
X167056525Y-82943368D01*
X166940000Y-83117760D01*
X166823475Y-82943368D01*
X166616632Y-82736525D01*
X166373411Y-82574010D01*
X166103158Y-82462068D01*
X165816260Y-82405000D01*
X165523740Y-82405000D01*
X165236842Y-82462068D01*
X164966589Y-82574010D01*
X164723368Y-82736525D01*
X164516525Y-82943368D01*
X164400000Y-83117760D01*
X164283475Y-82943368D01*
X164076632Y-82736525D01*
X163833411Y-82574010D01*
X163563158Y-82462068D01*
X163276260Y-82405000D01*
X162983740Y-82405000D01*
X162696842Y-82462068D01*
X162426589Y-82574010D01*
X162183368Y-82736525D01*
X161976525Y-82943368D01*
X161860000Y-83117760D01*
X161743475Y-82943368D01*
X161536632Y-82736525D01*
X161293411Y-82574010D01*
X161023158Y-82462068D01*
X160736260Y-82405000D01*
X160443740Y-82405000D01*
X160156842Y-82462068D01*
X159886589Y-82574010D01*
X159643368Y-82736525D01*
X159436525Y-82943368D01*
X159320000Y-83117760D01*
X159203475Y-82943368D01*
X158996632Y-82736525D01*
X158753411Y-82574010D01*
X158483158Y-82462068D01*
X158196260Y-82405000D01*
X157903740Y-82405000D01*
X157616842Y-82462068D01*
X157346589Y-82574010D01*
X157103368Y-82736525D01*
X156896525Y-82943368D01*
X156780000Y-83117760D01*
X156663475Y-82943368D01*
X156456632Y-82736525D01*
X156213411Y-82574010D01*
X155943158Y-82462068D01*
X155656260Y-82405000D01*
X155363740Y-82405000D01*
X155076842Y-82462068D01*
X154806589Y-82574010D01*
X154563368Y-82736525D01*
X154356525Y-82943368D01*
X154240000Y-83117760D01*
X154123475Y-82943368D01*
X153916632Y-82736525D01*
X153673411Y-82574010D01*
X153403158Y-82462068D01*
X153116260Y-82405000D01*
X152823740Y-82405000D01*
X152536842Y-82462068D01*
X152266589Y-82574010D01*
X152023368Y-82736525D01*
X151816525Y-82943368D01*
X151694805Y-83125534D01*
X151625178Y-83008645D01*
X151430269Y-82792412D01*
X151196920Y-82618359D01*
X150934099Y-82493175D01*
X150786890Y-82448524D01*
X150557000Y-82569845D01*
X150557000Y-83763000D01*
X150577000Y-83763000D01*
X150577000Y-84017000D01*
X150557000Y-84017000D01*
X150557000Y-84037000D01*
X150303000Y-84037000D01*
X150303000Y-84017000D01*
X149109186Y-84017000D01*
X148988519Y-84246891D01*
X149085843Y-84521252D01*
X149234822Y-84771355D01*
X149429731Y-84987588D01*
X149659406Y-85158900D01*
X149483368Y-85276525D01*
X149276525Y-85483368D01*
X149114010Y-85726589D01*
X149002068Y-85996842D01*
X148945000Y-86283740D01*
X148945000Y-86576260D01*
X148971193Y-86707939D01*
X147168579Y-88510554D01*
X147136709Y-88536709D01*
X147042764Y-88651183D01*
X147032364Y-88663855D01*
X146954828Y-88808914D01*
X146907082Y-88966312D01*
X146890960Y-89130000D01*
X146895000Y-89171019D01*
X146895000Y-89726479D01*
X146854482Y-89714188D01*
X146730000Y-89701928D01*
X146515750Y-89705000D01*
X146357000Y-89863750D01*
X146103000Y-89863750D01*
X145944250Y-89705000D01*
X145730000Y-89701928D01*
X145605518Y-89714188D01*
X145485820Y-89750498D01*
X145375506Y-89809463D01*
X145278815Y-89888815D01*
X145199463Y-89985506D01*
X145140498Y-90095820D01*
X145104188Y-90215518D01*
X145091928Y-90340000D01*
X142415000Y-90340000D01*
X142415000Y-83533109D01*
X148988519Y-83533109D01*
X149109186Y-83763000D01*
X150303000Y-83763000D01*
X150303000Y-82569845D01*
X150073110Y-82448524D01*
X149925901Y-82493175D01*
X149663080Y-82618359D01*
X149429731Y-82792412D01*
X149234822Y-83008645D01*
X149085843Y-83258748D01*
X148988519Y-83533109D01*
X142415000Y-83533109D01*
X142415000Y-82365000D01*
X196545000Y-82365000D01*
X196545001Y-115995000D01*
%TA.AperFunction,Conductor*%
D18*
G36*
X196545001Y-115995000D02*
G01*
X185846554Y-115995000D01*
X185855812Y-115964482D01*
X185868072Y-115840000D01*
X185868072Y-112340000D01*
X185855812Y-112215518D01*
X185819502Y-112095820D01*
X185760537Y-111985506D01*
X185681185Y-111888815D01*
X185584494Y-111809463D01*
X185474180Y-111750498D01*
X185354482Y-111714188D01*
X185230000Y-111701928D01*
X179730000Y-111701928D01*
X179605518Y-111714188D01*
X179485820Y-111750498D01*
X179375506Y-111809463D01*
X179278815Y-111888815D01*
X179199463Y-111985506D01*
X179140498Y-112095820D01*
X179104188Y-112215518D01*
X179091928Y-112340000D01*
X179091928Y-115840000D01*
X179104188Y-115964482D01*
X179113446Y-115995000D01*
X159846554Y-115995000D01*
X159855812Y-115964482D01*
X159868072Y-115840000D01*
X159868072Y-112340000D01*
X159855812Y-112215518D01*
X159819502Y-112095820D01*
X159760537Y-111985506D01*
X159681185Y-111888815D01*
X159584494Y-111809463D01*
X159474180Y-111750498D01*
X159354482Y-111714188D01*
X159230000Y-111701928D01*
X153730000Y-111701928D01*
X153605518Y-111714188D01*
X153485820Y-111750498D01*
X153375506Y-111809463D01*
X153278815Y-111888815D01*
X153199463Y-111985506D01*
X153140498Y-112095820D01*
X153104188Y-112215518D01*
X153091928Y-112340000D01*
X153091928Y-115840000D01*
X153104188Y-115964482D01*
X153113446Y-115995000D01*
X142415000Y-115995000D01*
X142415000Y-101169117D01*
X154745000Y-101169117D01*
X154745000Y-101510883D01*
X154811675Y-101846081D01*
X154942463Y-102161831D01*
X155132337Y-102445998D01*
X155374002Y-102687663D01*
X155658169Y-102877537D01*
X155973919Y-103008325D01*
X156309117Y-103075000D01*
X156650883Y-103075000D01*
X156986081Y-103008325D01*
X157301831Y-102877537D01*
X157585998Y-102687663D01*
X157827663Y-102445998D01*
X158017537Y-102161831D01*
X158148325Y-101846081D01*
X158215000Y-101510883D01*
X158215000Y-101169117D01*
X180745000Y-101169117D01*
X180745000Y-101510883D01*
X180811675Y-101846081D01*
X180942463Y-102161831D01*
X181132337Y-102445998D01*
X181374002Y-102687663D01*
X181658169Y-102877537D01*
X181973919Y-103008325D01*
X182309117Y-103075000D01*
X182650883Y-103075000D01*
X182986081Y-103008325D01*
X183301831Y-102877537D01*
X183585998Y-102687663D01*
X183827663Y-102445998D01*
X184017537Y-102161831D01*
X184148325Y-101846081D01*
X184215000Y-101510883D01*
X184215000Y-101169117D01*
X184148325Y-100833919D01*
X184017537Y-100518169D01*
X183827663Y-100234002D01*
X183585998Y-99992337D01*
X183301831Y-99802463D01*
X182986081Y-99671675D01*
X182650883Y-99605000D01*
X182309117Y-99605000D01*
X181973919Y-99671675D01*
X181658169Y-99802463D01*
X181374002Y-99992337D01*
X181132337Y-100234002D01*
X180942463Y-100518169D01*
X180811675Y-100833919D01*
X180745000Y-101169117D01*
X158215000Y-101169117D01*
X158148325Y-100833919D01*
X158017537Y-100518169D01*
X157827663Y-100234002D01*
X157585998Y-99992337D01*
X157301831Y-99802463D01*
X156986081Y-99671675D01*
X156650883Y-99605000D01*
X156309117Y-99605000D01*
X155973919Y-99671675D01*
X155658169Y-99802463D01*
X155374002Y-99992337D01*
X155132337Y-100234002D01*
X154942463Y-100518169D01*
X154811675Y-100833919D01*
X154745000Y-101169117D01*
X142415000Y-101169117D01*
X142415000Y-95340000D01*
X145091928Y-95340000D01*
X145104188Y-95464482D01*
X145140498Y-95584180D01*
X145199463Y-95694494D01*
X145278815Y-95791185D01*
X145375506Y-95870537D01*
X145485820Y-95929502D01*
X145605518Y-95965812D01*
X145730000Y-95978072D01*
X145944250Y-95975000D01*
X146103000Y-95816250D01*
X146103000Y-92967000D01*
X145253750Y-92967000D01*
X145095000Y-93125750D01*
X145091928Y-95340000D01*
X142415000Y-95340000D01*
X142415000Y-90340000D01*
X145091928Y-90340000D01*
X145095000Y-92554250D01*
X145253750Y-92713000D01*
X146103000Y-92713000D01*
X146103000Y-89863750D01*
X146357000Y-89863750D01*
X146357000Y-92713000D01*
X146377000Y-92713000D01*
X146377000Y-92967000D01*
X146357000Y-92967000D01*
X146357000Y-95816250D01*
X146515750Y-95975000D01*
X146730000Y-95978072D01*
X146854482Y-95965812D01*
X146974180Y-95929502D01*
X146980000Y-95926391D01*
X146985820Y-95929502D01*
X147105518Y-95965812D01*
X147230000Y-95978072D01*
X148230000Y-95978072D01*
X148354482Y-95965812D01*
X148474180Y-95929502D01*
X148480000Y-95926391D01*
X148485820Y-95929502D01*
X148605518Y-95965812D01*
X148730000Y-95978072D01*
X149730000Y-95978072D01*
X149854482Y-95965812D01*
X149974180Y-95929502D01*
X149980000Y-95926391D01*
X149985820Y-95929502D01*
X150105518Y-95965812D01*
X150230000Y-95978072D01*
X151230000Y-95978072D01*
X151354482Y-95965812D01*
X151474180Y-95929502D01*
X151480000Y-95926391D01*
X151485820Y-95929502D01*
X151605518Y-95965812D01*
X151730000Y-95978072D01*
X152730000Y-95978072D01*
X152854482Y-95965812D01*
X152974180Y-95929502D01*
X152980000Y-95926391D01*
X152985820Y-95929502D01*
X153105518Y-95965812D01*
X153230000Y-95978072D01*
X154230000Y-95978072D01*
X154354482Y-95965812D01*
X154474180Y-95929502D01*
X154480000Y-95926391D01*
X154485820Y-95929502D01*
X154605518Y-95965812D01*
X154730000Y-95978072D01*
X155730000Y-95978072D01*
X155854482Y-95965812D01*
X155974180Y-95929502D01*
X155980000Y-95926391D01*
X155985820Y-95929502D01*
X156105518Y-95965812D01*
X156230000Y-95978072D01*
X157230000Y-95978072D01*
X157354482Y-95965812D01*
X157474180Y-95929502D01*
X157480000Y-95926391D01*
X157485820Y-95929502D01*
X157605518Y-95965812D01*
X157730000Y-95978072D01*
X158730000Y-95978072D01*
X158854482Y-95965812D01*
X158974180Y-95929502D01*
X158980000Y-95926391D01*
X158985820Y-95929502D01*
X159105518Y-95965812D01*
X159230000Y-95978072D01*
X160230000Y-95978072D01*
X160354482Y-95965812D01*
X160474180Y-95929502D01*
X160480000Y-95926391D01*
X160485820Y-95929502D01*
X160605518Y-95965812D01*
X160730000Y-95978072D01*
X161730000Y-95978072D01*
X161854482Y-95965812D01*
X161974180Y-95929502D01*
X161980000Y-95926391D01*
X161985820Y-95929502D01*
X162105518Y-95965812D01*
X162230000Y-95978072D01*
X163230000Y-95978072D01*
X163354482Y-95965812D01*
X163474180Y-95929502D01*
X163480000Y-95926391D01*
X163485820Y-95929502D01*
X163605518Y-95965812D01*
X163730000Y-95978072D01*
X164730000Y-95978072D01*
X164854482Y-95965812D01*
X164974180Y-95929502D01*
X164980000Y-95926391D01*
X164985820Y-95929502D01*
X165105518Y-95965812D01*
X165230000Y-95978072D01*
X166230000Y-95978072D01*
X166354482Y-95965812D01*
X166474180Y-95929502D01*
X166480000Y-95926391D01*
X166485820Y-95929502D01*
X166605518Y-95965812D01*
X166730000Y-95978072D01*
X167730000Y-95978072D01*
X167854482Y-95965812D01*
X167974180Y-95929502D01*
X167980000Y-95926391D01*
X167985820Y-95929502D01*
X168105518Y-95965812D01*
X168230000Y-95978072D01*
X169230000Y-95978072D01*
X169354482Y-95965812D01*
X169474180Y-95929502D01*
X169480000Y-95926391D01*
X169485820Y-95929502D01*
X169605518Y-95965812D01*
X169730000Y-95978072D01*
X170730000Y-95978072D01*
X170854482Y-95965812D01*
X170974180Y-95929502D01*
X170980000Y-95926391D01*
X170985820Y-95929502D01*
X171105518Y-95965812D01*
X171230000Y-95978072D01*
X172230000Y-95978072D01*
X172354482Y-95965812D01*
X172474180Y-95929502D01*
X172480000Y-95926391D01*
X172485820Y-95929502D01*
X172605518Y-95965812D01*
X172730000Y-95978072D01*
X173730000Y-95978072D01*
X173854482Y-95965812D01*
X173974180Y-95929502D01*
X173980000Y-95926391D01*
X173985820Y-95929502D01*
X174105518Y-95965812D01*
X174230000Y-95978072D01*
X175230000Y-95978072D01*
X175354482Y-95965812D01*
X175474180Y-95929502D01*
X175480000Y-95926391D01*
X175485820Y-95929502D01*
X175605518Y-95965812D01*
X175730000Y-95978072D01*
X176730000Y-95978072D01*
X176854482Y-95965812D01*
X176974180Y-95929502D01*
X176980000Y-95926391D01*
X176985820Y-95929502D01*
X177105518Y-95965812D01*
X177230000Y-95978072D01*
X178230000Y-95978072D01*
X178354482Y-95965812D01*
X178474180Y-95929502D01*
X178480000Y-95926391D01*
X178485820Y-95929502D01*
X178605518Y-95965812D01*
X178730000Y-95978072D01*
X179730000Y-95978072D01*
X179854482Y-95965812D01*
X179974180Y-95929502D01*
X179980000Y-95926391D01*
X179985820Y-95929502D01*
X180105518Y-95965812D01*
X180230000Y-95978072D01*
X181230000Y-95978072D01*
X181354482Y-95965812D01*
X181474180Y-95929502D01*
X181480000Y-95926391D01*
X181485820Y-95929502D01*
X181605518Y-95965812D01*
X181730000Y-95978072D01*
X182730000Y-95978072D01*
X182854482Y-95965812D01*
X182974180Y-95929502D01*
X182980000Y-95926391D01*
X182985820Y-95929502D01*
X183105518Y-95965812D01*
X183230000Y-95978072D01*
X184230000Y-95978072D01*
X184354482Y-95965812D01*
X184474180Y-95929502D01*
X184480000Y-95926391D01*
X184485820Y-95929502D01*
X184605518Y-95965812D01*
X184730000Y-95978072D01*
X185730000Y-95978072D01*
X185854482Y-95965812D01*
X185974180Y-95929502D01*
X185980000Y-95926391D01*
X185985820Y-95929502D01*
X186105518Y-95965812D01*
X186230000Y-95978072D01*
X187230000Y-95978072D01*
X187354482Y-95965812D01*
X187474180Y-95929502D01*
X187480000Y-95926391D01*
X187485820Y-95929502D01*
X187605518Y-95965812D01*
X187730000Y-95978072D01*
X188730000Y-95978072D01*
X188854482Y-95965812D01*
X188974180Y-95929502D01*
X188980000Y-95926391D01*
X188985820Y-95929502D01*
X189105518Y-95965812D01*
X189230000Y-95978072D01*
X190230000Y-95978072D01*
X190346285Y-95966619D01*
X190357805Y-96083590D01*
X190408411Y-96250413D01*
X190490589Y-96404159D01*
X190601183Y-96538917D01*
X190735941Y-96649511D01*
X190889687Y-96731689D01*
X191056510Y-96782295D01*
X191186523Y-96795100D01*
X191186524Y-96795100D01*
X191230000Y-96799382D01*
X191273477Y-96795100D01*
X193447031Y-96795100D01*
X193490500Y-96799381D01*
X193533969Y-96795100D01*
X193533977Y-96795100D01*
X193663990Y-96782295D01*
X193830813Y-96731689D01*
X193984559Y-96649511D01*
X194119317Y-96538917D01*
X194147034Y-96505144D01*
X194396845Y-96255333D01*
X194430617Y-96227617D01*
X194541211Y-96092859D01*
X194623389Y-95939113D01*
X194673995Y-95772290D01*
X194686800Y-95642277D01*
X194686800Y-95642269D01*
X194691081Y-95598800D01*
X194686800Y-95555331D01*
X194686800Y-89205266D01*
X194691081Y-89161799D01*
X194686800Y-89118333D01*
X194686800Y-89118323D01*
X194673995Y-88988310D01*
X194623389Y-88821487D01*
X194541211Y-88667741D01*
X194497844Y-88614899D01*
X194458332Y-88566753D01*
X194458330Y-88566751D01*
X194430617Y-88532983D01*
X194396849Y-88505270D01*
X190000539Y-84108961D01*
X190015000Y-84036260D01*
X190015000Y-83743740D01*
X189957932Y-83456842D01*
X189845990Y-83186589D01*
X189683475Y-82943368D01*
X189476632Y-82736525D01*
X189233411Y-82574010D01*
X188963158Y-82462068D01*
X188676260Y-82405000D01*
X188383740Y-82405000D01*
X188096842Y-82462068D01*
X187826589Y-82574010D01*
X187583368Y-82736525D01*
X187376525Y-82943368D01*
X187260000Y-83117760D01*
X187143475Y-82943368D01*
X186936632Y-82736525D01*
X186693411Y-82574010D01*
X186423158Y-82462068D01*
X186136260Y-82405000D01*
X185843740Y-82405000D01*
X185556842Y-82462068D01*
X185286589Y-82574010D01*
X185043368Y-82736525D01*
X184836525Y-82943368D01*
X184720000Y-83117760D01*
X184603475Y-82943368D01*
X184396632Y-82736525D01*
X184153411Y-82574010D01*
X183883158Y-82462068D01*
X183596260Y-82405000D01*
X183303740Y-82405000D01*
X183016842Y-82462068D01*
X182746589Y-82574010D01*
X182503368Y-82736525D01*
X182296525Y-82943368D01*
X182180000Y-83117760D01*
X182063475Y-82943368D01*
X181856632Y-82736525D01*
X181613411Y-82574010D01*
X181343158Y-82462068D01*
X181056260Y-82405000D01*
X180763740Y-82405000D01*
X180476842Y-82462068D01*
X180206589Y-82574010D01*
X179963368Y-82736525D01*
X179756525Y-82943368D01*
X179640000Y-83117760D01*
X179523475Y-82943368D01*
X179316632Y-82736525D01*
X179073411Y-82574010D01*
X178803158Y-82462068D01*
X178516260Y-82405000D01*
X178223740Y-82405000D01*
X177936842Y-82462068D01*
X177666589Y-82574010D01*
X177423368Y-82736525D01*
X177216525Y-82943368D01*
X177100000Y-83117760D01*
X176983475Y-82943368D01*
X176776632Y-82736525D01*
X176533411Y-82574010D01*
X176263158Y-82462068D01*
X175976260Y-82405000D01*
X175683740Y-82405000D01*
X175396842Y-82462068D01*
X175126589Y-82574010D01*
X174883368Y-82736525D01*
X174676525Y-82943368D01*
X174560000Y-83117760D01*
X174443475Y-82943368D01*
X174236632Y-82736525D01*
X173993411Y-82574010D01*
X173723158Y-82462068D01*
X173436260Y-82405000D01*
X173143740Y-82405000D01*
X172856842Y-82462068D01*
X172586589Y-82574010D01*
X172343368Y-82736525D01*
X172136525Y-82943368D01*
X172020000Y-83117760D01*
X171903475Y-82943368D01*
X171696632Y-82736525D01*
X171453411Y-82574010D01*
X171183158Y-82462068D01*
X170896260Y-82405000D01*
X170603740Y-82405000D01*
X170316842Y-82462068D01*
X170046589Y-82574010D01*
X169803368Y-82736525D01*
X169596525Y-82943368D01*
X169480000Y-83117760D01*
X169363475Y-82943368D01*
X169156632Y-82736525D01*
X168913411Y-82574010D01*
X168643158Y-82462068D01*
X168356260Y-82405000D01*
X168063740Y-82405000D01*
X167776842Y-82462068D01*
X167506589Y-82574010D01*
X167263368Y-82736525D01*
X167056525Y-82943368D01*
X166940000Y-83117760D01*
X166823475Y-82943368D01*
X166616632Y-82736525D01*
X166373411Y-82574010D01*
X166103158Y-82462068D01*
X165816260Y-82405000D01*
X165523740Y-82405000D01*
X165236842Y-82462068D01*
X164966589Y-82574010D01*
X164723368Y-82736525D01*
X164516525Y-82943368D01*
X164400000Y-83117760D01*
X164283475Y-82943368D01*
X164076632Y-82736525D01*
X163833411Y-82574010D01*
X163563158Y-82462068D01*
X163276260Y-82405000D01*
X162983740Y-82405000D01*
X162696842Y-82462068D01*
X162426589Y-82574010D01*
X162183368Y-82736525D01*
X161976525Y-82943368D01*
X161860000Y-83117760D01*
X161743475Y-82943368D01*
X161536632Y-82736525D01*
X161293411Y-82574010D01*
X161023158Y-82462068D01*
X160736260Y-82405000D01*
X160443740Y-82405000D01*
X160156842Y-82462068D01*
X159886589Y-82574010D01*
X159643368Y-82736525D01*
X159436525Y-82943368D01*
X159320000Y-83117760D01*
X159203475Y-82943368D01*
X158996632Y-82736525D01*
X158753411Y-82574010D01*
X158483158Y-82462068D01*
X158196260Y-82405000D01*
X157903740Y-82405000D01*
X157616842Y-82462068D01*
X157346589Y-82574010D01*
X157103368Y-82736525D01*
X156896525Y-82943368D01*
X156780000Y-83117760D01*
X156663475Y-82943368D01*
X156456632Y-82736525D01*
X156213411Y-82574010D01*
X155943158Y-82462068D01*
X155656260Y-82405000D01*
X155363740Y-82405000D01*
X155076842Y-82462068D01*
X154806589Y-82574010D01*
X154563368Y-82736525D01*
X154356525Y-82943368D01*
X154240000Y-83117760D01*
X154123475Y-82943368D01*
X153916632Y-82736525D01*
X153673411Y-82574010D01*
X153403158Y-82462068D01*
X153116260Y-82405000D01*
X152823740Y-82405000D01*
X152536842Y-82462068D01*
X152266589Y-82574010D01*
X152023368Y-82736525D01*
X151816525Y-82943368D01*
X151694805Y-83125534D01*
X151625178Y-83008645D01*
X151430269Y-82792412D01*
X151196920Y-82618359D01*
X150934099Y-82493175D01*
X150786890Y-82448524D01*
X150557000Y-82569845D01*
X150557000Y-83763000D01*
X150577000Y-83763000D01*
X150577000Y-84017000D01*
X150557000Y-84017000D01*
X150557000Y-84037000D01*
X150303000Y-84037000D01*
X150303000Y-84017000D01*
X149109186Y-84017000D01*
X148988519Y-84246891D01*
X149085843Y-84521252D01*
X149234822Y-84771355D01*
X149429731Y-84987588D01*
X149659406Y-85158900D01*
X149483368Y-85276525D01*
X149276525Y-85483368D01*
X149114010Y-85726589D01*
X149002068Y-85996842D01*
X148945000Y-86283740D01*
X148945000Y-86576260D01*
X148971193Y-86707939D01*
X147168579Y-88510554D01*
X147136709Y-88536709D01*
X147042764Y-88651183D01*
X147032364Y-88663855D01*
X146954828Y-88808914D01*
X146907082Y-88966312D01*
X146890960Y-89130000D01*
X146895000Y-89171019D01*
X146895000Y-89726479D01*
X146854482Y-89714188D01*
X146730000Y-89701928D01*
X146515750Y-89705000D01*
X146357000Y-89863750D01*
X146103000Y-89863750D01*
X145944250Y-89705000D01*
X145730000Y-89701928D01*
X145605518Y-89714188D01*
X145485820Y-89750498D01*
X145375506Y-89809463D01*
X145278815Y-89888815D01*
X145199463Y-89985506D01*
X145140498Y-90095820D01*
X145104188Y-90215518D01*
X145091928Y-90340000D01*
X142415000Y-90340000D01*
X142415000Y-83533109D01*
X148988519Y-83533109D01*
X149109186Y-83763000D01*
X150303000Y-83763000D01*
X150303000Y-82569845D01*
X150073110Y-82448524D01*
X149925901Y-82493175D01*
X149663080Y-82618359D01*
X149429731Y-82792412D01*
X149234822Y-83008645D01*
X149085843Y-83258748D01*
X148988519Y-83533109D01*
X142415000Y-83533109D01*
X142415000Y-82365000D01*
X196545000Y-82365000D01*
X196545001Y-115995000D01*
G37*
%TD.AperFunction*%
%TD*%
M02*
