%TF.GenerationSoftware,KiCad,Pcbnew,(5.1.10-1-10_14)*%
%TF.CreationDate,2023-03-19T04:05:07+08:00*%
%TF.ProjectId,GB_MemoryBackup_Subboard_A,47425f4d-656d-46f7-9279-4261636b7570,1.0*%
%TF.SameCoordinates,Original*%
%TF.FileFunction,Legend,Bot*%
%TF.FilePolarity,Positive*%
%FSLAX46Y46*%
G04 Gerber Fmt 4.6, Leading zero omitted, Abs format (unit mm)*
G04 Created by KiCad (PCBNEW (5.1.10-1-10_14)) date 2023-03-19 04:05:07*
%MOMM*%
%LPD*%
G01*
G04 APERTURE LIST*
%ADD10C,0.150000*%
%ADD11C,0.010000*%
%ADD12C,0.120000*%
G04 APERTURE END LIST*
D10*
X148764523Y-83272380D02*
X148145476Y-83272380D01*
X148478809Y-83653333D01*
X148335952Y-83653333D01*
X148240714Y-83700952D01*
X148193095Y-83748571D01*
X148145476Y-83843809D01*
X148145476Y-84081904D01*
X148193095Y-84177142D01*
X148240714Y-84224761D01*
X148335952Y-84272380D01*
X148621666Y-84272380D01*
X148716904Y-84224761D01*
X148764523Y-84177142D01*
X147764523Y-83367619D02*
X147716904Y-83320000D01*
X147621666Y-83272380D01*
X147383571Y-83272380D01*
X147288333Y-83320000D01*
X147240714Y-83367619D01*
X147193095Y-83462857D01*
X147193095Y-83558095D01*
X147240714Y-83700952D01*
X147812142Y-84272380D01*
X147193095Y-84272380D01*
X148764523Y-85812380D02*
X148145476Y-85812380D01*
X148478809Y-86193333D01*
X148335952Y-86193333D01*
X148240714Y-86240952D01*
X148193095Y-86288571D01*
X148145476Y-86383809D01*
X148145476Y-86621904D01*
X148193095Y-86717142D01*
X148240714Y-86764761D01*
X148335952Y-86812380D01*
X148621666Y-86812380D01*
X148716904Y-86764761D01*
X148764523Y-86717142D01*
X147193095Y-86812380D02*
X147764523Y-86812380D01*
X147478809Y-86812380D02*
X147478809Y-85812380D01*
X147574047Y-85955238D01*
X147669285Y-86050476D01*
X147764523Y-86098095D01*
X191420714Y-83367619D02*
X191373095Y-83320000D01*
X191277857Y-83272380D01*
X191039761Y-83272380D01*
X190944523Y-83320000D01*
X190896904Y-83367619D01*
X190849285Y-83462857D01*
X190849285Y-83558095D01*
X190896904Y-83700952D01*
X191468333Y-84272380D01*
X190849285Y-84272380D01*
X190849285Y-86812380D02*
X191420714Y-86812380D01*
X191135000Y-86812380D02*
X191135000Y-85812380D01*
X191230238Y-85955238D01*
X191325476Y-86050476D01*
X191420714Y-86098095D01*
X184116428Y-93355000D02*
X184211666Y-93307380D01*
X184354523Y-93307380D01*
X184497380Y-93355000D01*
X184592619Y-93450238D01*
X184640238Y-93545476D01*
X184687857Y-93735952D01*
X184687857Y-93878809D01*
X184640238Y-94069285D01*
X184592619Y-94164523D01*
X184497380Y-94259761D01*
X184354523Y-94307380D01*
X184259285Y-94307380D01*
X184116428Y-94259761D01*
X184068809Y-94212142D01*
X184068809Y-93878809D01*
X184259285Y-93878809D01*
X183211666Y-94307380D02*
X183211666Y-93783571D01*
X183259285Y-93688333D01*
X183354523Y-93640714D01*
X183545000Y-93640714D01*
X183640238Y-93688333D01*
X183211666Y-94259761D02*
X183306904Y-94307380D01*
X183545000Y-94307380D01*
X183640238Y-94259761D01*
X183687857Y-94164523D01*
X183687857Y-94069285D01*
X183640238Y-93974047D01*
X183545000Y-93926428D01*
X183306904Y-93926428D01*
X183211666Y-93878809D01*
X182735476Y-94307380D02*
X182735476Y-93640714D01*
X182735476Y-93735952D02*
X182687857Y-93688333D01*
X182592619Y-93640714D01*
X182449761Y-93640714D01*
X182354523Y-93688333D01*
X182306904Y-93783571D01*
X182306904Y-94307380D01*
X182306904Y-93783571D02*
X182259285Y-93688333D01*
X182164047Y-93640714D01*
X182021190Y-93640714D01*
X181925952Y-93688333D01*
X181878333Y-93783571D01*
X181878333Y-94307380D01*
X181021190Y-94259761D02*
X181116428Y-94307380D01*
X181306904Y-94307380D01*
X181402142Y-94259761D01*
X181449761Y-94164523D01*
X181449761Y-93783571D01*
X181402142Y-93688333D01*
X181306904Y-93640714D01*
X181116428Y-93640714D01*
X181021190Y-93688333D01*
X180973571Y-93783571D01*
X180973571Y-93878809D01*
X181449761Y-93974047D01*
X180545000Y-94307380D02*
X180545000Y-93307380D01*
X180545000Y-93688333D02*
X180449761Y-93640714D01*
X180259285Y-93640714D01*
X180164047Y-93688333D01*
X180116428Y-93735952D01*
X180068809Y-93831190D01*
X180068809Y-94116904D01*
X180116428Y-94212142D01*
X180164047Y-94259761D01*
X180259285Y-94307380D01*
X180449761Y-94307380D01*
X180545000Y-94259761D01*
X179497380Y-94307380D02*
X179592619Y-94259761D01*
X179640238Y-94212142D01*
X179687857Y-94116904D01*
X179687857Y-93831190D01*
X179640238Y-93735952D01*
X179592619Y-93688333D01*
X179497380Y-93640714D01*
X179354523Y-93640714D01*
X179259285Y-93688333D01*
X179211666Y-93735952D01*
X179164047Y-93831190D01*
X179164047Y-94116904D01*
X179211666Y-94212142D01*
X179259285Y-94259761D01*
X179354523Y-94307380D01*
X179497380Y-94307380D01*
X178830714Y-93640714D02*
X178592619Y-94307380D01*
X178354523Y-93640714D02*
X178592619Y-94307380D01*
X178687857Y-94545476D01*
X178735476Y-94593095D01*
X178830714Y-94640714D01*
X177211666Y-94307380D02*
X177211666Y-93307380D01*
X176878333Y-94021666D01*
X176545000Y-93307380D01*
X176545000Y-94307380D01*
X175687857Y-94259761D02*
X175783095Y-94307380D01*
X175973571Y-94307380D01*
X176068809Y-94259761D01*
X176116428Y-94164523D01*
X176116428Y-93783571D01*
X176068809Y-93688333D01*
X175973571Y-93640714D01*
X175783095Y-93640714D01*
X175687857Y-93688333D01*
X175640238Y-93783571D01*
X175640238Y-93878809D01*
X176116428Y-93974047D01*
X175211666Y-94307380D02*
X175211666Y-93640714D01*
X175211666Y-93735952D02*
X175164047Y-93688333D01*
X175068809Y-93640714D01*
X174925952Y-93640714D01*
X174830714Y-93688333D01*
X174783095Y-93783571D01*
X174783095Y-94307380D01*
X174783095Y-93783571D02*
X174735476Y-93688333D01*
X174640238Y-93640714D01*
X174497380Y-93640714D01*
X174402142Y-93688333D01*
X174354523Y-93783571D01*
X174354523Y-94307380D01*
X173735476Y-94307380D02*
X173830714Y-94259761D01*
X173878333Y-94212142D01*
X173925952Y-94116904D01*
X173925952Y-93831190D01*
X173878333Y-93735952D01*
X173830714Y-93688333D01*
X173735476Y-93640714D01*
X173592619Y-93640714D01*
X173497380Y-93688333D01*
X173449761Y-93735952D01*
X173402142Y-93831190D01*
X173402142Y-94116904D01*
X173449761Y-94212142D01*
X173497380Y-94259761D01*
X173592619Y-94307380D01*
X173735476Y-94307380D01*
X172973571Y-94307380D02*
X172973571Y-93640714D01*
X172973571Y-93831190D02*
X172925952Y-93735952D01*
X172878333Y-93688333D01*
X172783095Y-93640714D01*
X172687857Y-93640714D01*
X172449761Y-93640714D02*
X172211666Y-94307380D01*
X171973571Y-93640714D02*
X172211666Y-94307380D01*
X172306904Y-94545476D01*
X172354523Y-94593095D01*
X172449761Y-94640714D01*
X171259285Y-93783571D02*
X171116428Y-93831190D01*
X171068809Y-93878809D01*
X171021190Y-93974047D01*
X171021190Y-94116904D01*
X171068809Y-94212142D01*
X171116428Y-94259761D01*
X171211666Y-94307380D01*
X171592619Y-94307380D01*
X171592619Y-93307380D01*
X171259285Y-93307380D01*
X171164047Y-93355000D01*
X171116428Y-93402619D01*
X171068809Y-93497857D01*
X171068809Y-93593095D01*
X171116428Y-93688333D01*
X171164047Y-93735952D01*
X171259285Y-93783571D01*
X171592619Y-93783571D01*
X170164047Y-94307380D02*
X170164047Y-93783571D01*
X170211666Y-93688333D01*
X170306904Y-93640714D01*
X170497380Y-93640714D01*
X170592619Y-93688333D01*
X170164047Y-94259761D02*
X170259285Y-94307380D01*
X170497380Y-94307380D01*
X170592619Y-94259761D01*
X170640238Y-94164523D01*
X170640238Y-94069285D01*
X170592619Y-93974047D01*
X170497380Y-93926428D01*
X170259285Y-93926428D01*
X170164047Y-93878809D01*
X169259285Y-94259761D02*
X169354523Y-94307380D01*
X169545000Y-94307380D01*
X169640238Y-94259761D01*
X169687857Y-94212142D01*
X169735476Y-94116904D01*
X169735476Y-93831190D01*
X169687857Y-93735952D01*
X169640238Y-93688333D01*
X169545000Y-93640714D01*
X169354523Y-93640714D01*
X169259285Y-93688333D01*
X168830714Y-94307380D02*
X168830714Y-93307380D01*
X168735476Y-93926428D02*
X168449761Y-94307380D01*
X168449761Y-93640714D02*
X168830714Y-94021666D01*
X167592619Y-93640714D02*
X167592619Y-94307380D01*
X168021190Y-93640714D02*
X168021190Y-94164523D01*
X167973571Y-94259761D01*
X167878333Y-94307380D01*
X167735476Y-94307380D01*
X167640238Y-94259761D01*
X167592619Y-94212142D01*
X167116428Y-93640714D02*
X167116428Y-94640714D01*
X167116428Y-93688333D02*
X167021190Y-93640714D01*
X166830714Y-93640714D01*
X166735476Y-93688333D01*
X166687857Y-93735952D01*
X166640238Y-93831190D01*
X166640238Y-94116904D01*
X166687857Y-94212142D01*
X166735476Y-94259761D01*
X166830714Y-94307380D01*
X167021190Y-94307380D01*
X167116428Y-94259761D01*
X165449761Y-94307380D02*
X165449761Y-93307380D01*
X165449761Y-93783571D02*
X164878333Y-93783571D01*
X164878333Y-94307380D02*
X164878333Y-93307380D01*
X164259285Y-94307380D02*
X164354523Y-94259761D01*
X164402142Y-94212142D01*
X164449761Y-94116904D01*
X164449761Y-93831190D01*
X164402142Y-93735952D01*
X164354523Y-93688333D01*
X164259285Y-93640714D01*
X164116428Y-93640714D01*
X164021190Y-93688333D01*
X163973571Y-93735952D01*
X163925952Y-93831190D01*
X163925952Y-94116904D01*
X163973571Y-94212142D01*
X164021190Y-94259761D01*
X164116428Y-94307380D01*
X164259285Y-94307380D01*
X163497380Y-94307380D02*
X163497380Y-93640714D01*
X163497380Y-93735952D02*
X163449761Y-93688333D01*
X163354523Y-93640714D01*
X163211666Y-93640714D01*
X163116428Y-93688333D01*
X163068809Y-93783571D01*
X163068809Y-94307380D01*
X163068809Y-93783571D02*
X163021190Y-93688333D01*
X162925952Y-93640714D01*
X162783095Y-93640714D01*
X162687857Y-93688333D01*
X162640238Y-93783571D01*
X162640238Y-94307380D01*
X161783095Y-94259761D02*
X161878333Y-94307380D01*
X162068809Y-94307380D01*
X162164047Y-94259761D01*
X162211666Y-94164523D01*
X162211666Y-93783571D01*
X162164047Y-93688333D01*
X162068809Y-93640714D01*
X161878333Y-93640714D01*
X161783095Y-93688333D01*
X161735476Y-93783571D01*
X161735476Y-93878809D01*
X162211666Y-93974047D01*
X161306904Y-94307380D02*
X161306904Y-93307380D01*
X161306904Y-93688333D02*
X161211666Y-93640714D01*
X161021190Y-93640714D01*
X160925952Y-93688333D01*
X160878333Y-93735952D01*
X160830714Y-93831190D01*
X160830714Y-94116904D01*
X160878333Y-94212142D01*
X160925952Y-94259761D01*
X161021190Y-94307380D01*
X161211666Y-94307380D01*
X161306904Y-94259761D01*
X160402142Y-94307380D02*
X160402142Y-93640714D01*
X160402142Y-93831190D02*
X160354523Y-93735952D01*
X160306904Y-93688333D01*
X160211666Y-93640714D01*
X160116428Y-93640714D01*
X159402142Y-94259761D02*
X159497380Y-94307380D01*
X159687857Y-94307380D01*
X159783095Y-94259761D01*
X159830714Y-94164523D01*
X159830714Y-93783571D01*
X159783095Y-93688333D01*
X159687857Y-93640714D01*
X159497380Y-93640714D01*
X159402142Y-93688333D01*
X159354523Y-93783571D01*
X159354523Y-93878809D01*
X159830714Y-93974047D01*
X159021190Y-93640714D02*
X158830714Y-94307380D01*
X158640238Y-93831190D01*
X158449761Y-94307380D01*
X158259285Y-93640714D01*
X157211666Y-93640714D02*
X156973571Y-94307380D01*
X156735476Y-93640714D01*
X155830714Y-94307380D02*
X156402142Y-94307380D01*
X156116428Y-94307380D02*
X156116428Y-93307380D01*
X156211666Y-93450238D01*
X156306904Y-93545476D01*
X156402142Y-93593095D01*
X155402142Y-94212142D02*
X155354523Y-94259761D01*
X155402142Y-94307380D01*
X155449761Y-94259761D01*
X155402142Y-94212142D01*
X155402142Y-94307380D01*
X155021190Y-93307380D02*
X154402142Y-93307380D01*
X154735476Y-93688333D01*
X154592619Y-93688333D01*
X154497380Y-93735952D01*
X154449761Y-93783571D01*
X154402142Y-93878809D01*
X154402142Y-94116904D01*
X154449761Y-94212142D01*
X154497380Y-94259761D01*
X154592619Y-94307380D01*
X154878333Y-94307380D01*
X154973571Y-94259761D01*
X155021190Y-94212142D01*
X175616428Y-95909761D02*
X175473571Y-95957380D01*
X175235476Y-95957380D01*
X175140238Y-95909761D01*
X175092619Y-95862142D01*
X175045000Y-95766904D01*
X175045000Y-95671666D01*
X175092619Y-95576428D01*
X175140238Y-95528809D01*
X175235476Y-95481190D01*
X175425952Y-95433571D01*
X175521190Y-95385952D01*
X175568809Y-95338333D01*
X175616428Y-95243095D01*
X175616428Y-95147857D01*
X175568809Y-95052619D01*
X175521190Y-95005000D01*
X175425952Y-94957380D01*
X175187857Y-94957380D01*
X175045000Y-95005000D01*
X174187857Y-95290714D02*
X174187857Y-95957380D01*
X174616428Y-95290714D02*
X174616428Y-95814523D01*
X174568809Y-95909761D01*
X174473571Y-95957380D01*
X174330714Y-95957380D01*
X174235476Y-95909761D01*
X174187857Y-95862142D01*
X173711666Y-95957380D02*
X173711666Y-94957380D01*
X173711666Y-95338333D02*
X173616428Y-95290714D01*
X173425952Y-95290714D01*
X173330714Y-95338333D01*
X173283095Y-95385952D01*
X173235476Y-95481190D01*
X173235476Y-95766904D01*
X173283095Y-95862142D01*
X173330714Y-95909761D01*
X173425952Y-95957380D01*
X173616428Y-95957380D01*
X173711666Y-95909761D01*
X172806904Y-95957380D02*
X172806904Y-94957380D01*
X172806904Y-95338333D02*
X172711666Y-95290714D01*
X172521190Y-95290714D01*
X172425952Y-95338333D01*
X172378333Y-95385952D01*
X172330714Y-95481190D01*
X172330714Y-95766904D01*
X172378333Y-95862142D01*
X172425952Y-95909761D01*
X172521190Y-95957380D01*
X172711666Y-95957380D01*
X172806904Y-95909761D01*
X171759285Y-95957380D02*
X171854523Y-95909761D01*
X171902142Y-95862142D01*
X171949761Y-95766904D01*
X171949761Y-95481190D01*
X171902142Y-95385952D01*
X171854523Y-95338333D01*
X171759285Y-95290714D01*
X171616428Y-95290714D01*
X171521190Y-95338333D01*
X171473571Y-95385952D01*
X171425952Y-95481190D01*
X171425952Y-95766904D01*
X171473571Y-95862142D01*
X171521190Y-95909761D01*
X171616428Y-95957380D01*
X171759285Y-95957380D01*
X170568809Y-95957380D02*
X170568809Y-95433571D01*
X170616428Y-95338333D01*
X170711666Y-95290714D01*
X170902142Y-95290714D01*
X170997380Y-95338333D01*
X170568809Y-95909761D02*
X170664047Y-95957380D01*
X170902142Y-95957380D01*
X170997380Y-95909761D01*
X171045000Y-95814523D01*
X171045000Y-95719285D01*
X170997380Y-95624047D01*
X170902142Y-95576428D01*
X170664047Y-95576428D01*
X170568809Y-95528809D01*
X170092619Y-95957380D02*
X170092619Y-95290714D01*
X170092619Y-95481190D02*
X170045000Y-95385952D01*
X169997380Y-95338333D01*
X169902142Y-95290714D01*
X169806904Y-95290714D01*
X169045000Y-95957380D02*
X169045000Y-94957380D01*
X169045000Y-95909761D02*
X169140238Y-95957380D01*
X169330714Y-95957380D01*
X169425952Y-95909761D01*
X169473571Y-95862142D01*
X169521190Y-95766904D01*
X169521190Y-95481190D01*
X169473571Y-95385952D01*
X169425952Y-95338333D01*
X169330714Y-95290714D01*
X169140238Y-95290714D01*
X169045000Y-95338333D01*
X167854523Y-95671666D02*
X167378333Y-95671666D01*
X167949761Y-95957380D02*
X167616428Y-94957380D01*
X167283095Y-95957380D01*
X166283095Y-95290714D02*
X166045000Y-95957380D01*
X165806904Y-95290714D01*
X164902142Y-95957380D02*
X165473571Y-95957380D01*
X165187857Y-95957380D02*
X165187857Y-94957380D01*
X165283095Y-95100238D01*
X165378333Y-95195476D01*
X165473571Y-95243095D01*
X164473571Y-95862142D02*
X164425952Y-95909761D01*
X164473571Y-95957380D01*
X164521190Y-95909761D01*
X164473571Y-95862142D01*
X164473571Y-95957380D01*
X163806904Y-94957380D02*
X163711666Y-94957380D01*
X163616428Y-95005000D01*
X163568809Y-95052619D01*
X163521190Y-95147857D01*
X163473571Y-95338333D01*
X163473571Y-95576428D01*
X163521190Y-95766904D01*
X163568809Y-95862142D01*
X163616428Y-95909761D01*
X163711666Y-95957380D01*
X163806904Y-95957380D01*
X163902142Y-95909761D01*
X163949761Y-95862142D01*
X163997380Y-95766904D01*
X164045000Y-95576428D01*
X164045000Y-95338333D01*
X163997380Y-95147857D01*
X163949761Y-95052619D01*
X163902142Y-95005000D01*
X163806904Y-94957380D01*
X190330714Y-97607380D02*
X190330714Y-96607380D01*
X189902142Y-97607380D02*
X189902142Y-97083571D01*
X189949761Y-96988333D01*
X190045000Y-96940714D01*
X190187857Y-96940714D01*
X190283095Y-96988333D01*
X190330714Y-97035952D01*
X189568809Y-96940714D02*
X189187857Y-96940714D01*
X189425952Y-96607380D02*
X189425952Y-97464523D01*
X189378333Y-97559761D01*
X189283095Y-97607380D01*
X189187857Y-97607380D01*
X188997380Y-96940714D02*
X188616428Y-96940714D01*
X188854523Y-96607380D02*
X188854523Y-97464523D01*
X188806904Y-97559761D01*
X188711666Y-97607380D01*
X188616428Y-97607380D01*
X188283095Y-96940714D02*
X188283095Y-97940714D01*
X188283095Y-96988333D02*
X188187857Y-96940714D01*
X187997380Y-96940714D01*
X187902142Y-96988333D01*
X187854523Y-97035952D01*
X187806904Y-97131190D01*
X187806904Y-97416904D01*
X187854523Y-97512142D01*
X187902142Y-97559761D01*
X187997380Y-97607380D01*
X188187857Y-97607380D01*
X188283095Y-97559761D01*
X187425952Y-97559761D02*
X187330714Y-97607380D01*
X187140238Y-97607380D01*
X187045000Y-97559761D01*
X186997380Y-97464523D01*
X186997380Y-97416904D01*
X187045000Y-97321666D01*
X187140238Y-97274047D01*
X187283095Y-97274047D01*
X187378333Y-97226428D01*
X187425952Y-97131190D01*
X187425952Y-97083571D01*
X187378333Y-96988333D01*
X187283095Y-96940714D01*
X187140238Y-96940714D01*
X187045000Y-96988333D01*
X186568809Y-97512142D02*
X186521190Y-97559761D01*
X186568809Y-97607380D01*
X186616428Y-97559761D01*
X186568809Y-97512142D01*
X186568809Y-97607380D01*
X186568809Y-96988333D02*
X186521190Y-97035952D01*
X186568809Y-97083571D01*
X186616428Y-97035952D01*
X186568809Y-96988333D01*
X186568809Y-97083571D01*
X185378333Y-96559761D02*
X186235476Y-97845476D01*
X184330714Y-96559761D02*
X185187857Y-97845476D01*
X183568809Y-96940714D02*
X183568809Y-97750238D01*
X183616428Y-97845476D01*
X183664047Y-97893095D01*
X183759285Y-97940714D01*
X183902142Y-97940714D01*
X183997380Y-97893095D01*
X183568809Y-97559761D02*
X183664047Y-97607380D01*
X183854523Y-97607380D01*
X183949761Y-97559761D01*
X183997380Y-97512142D01*
X184045000Y-97416904D01*
X184045000Y-97131190D01*
X183997380Y-97035952D01*
X183949761Y-96988333D01*
X183854523Y-96940714D01*
X183664047Y-96940714D01*
X183568809Y-96988333D01*
X183092619Y-97607380D02*
X183092619Y-96940714D01*
X183092619Y-96607380D02*
X183140238Y-96655000D01*
X183092619Y-96702619D01*
X183045000Y-96655000D01*
X183092619Y-96607380D01*
X183092619Y-96702619D01*
X182759285Y-96940714D02*
X182378333Y-96940714D01*
X182616428Y-96607380D02*
X182616428Y-97464523D01*
X182568809Y-97559761D01*
X182473571Y-97607380D01*
X182378333Y-97607380D01*
X182045000Y-97607380D02*
X182045000Y-96607380D01*
X181616428Y-97607380D02*
X181616428Y-97083571D01*
X181664047Y-96988333D01*
X181759285Y-96940714D01*
X181902142Y-96940714D01*
X181997380Y-96988333D01*
X182045000Y-97035952D01*
X180711666Y-96940714D02*
X180711666Y-97607380D01*
X181140238Y-96940714D02*
X181140238Y-97464523D01*
X181092619Y-97559761D01*
X180997380Y-97607380D01*
X180854523Y-97607380D01*
X180759285Y-97559761D01*
X180711666Y-97512142D01*
X180235476Y-97607380D02*
X180235476Y-96607380D01*
X180235476Y-96988333D02*
X180140238Y-96940714D01*
X179949761Y-96940714D01*
X179854523Y-96988333D01*
X179806904Y-97035952D01*
X179759285Y-97131190D01*
X179759285Y-97416904D01*
X179806904Y-97512142D01*
X179854523Y-97559761D01*
X179949761Y-97607380D01*
X180140238Y-97607380D01*
X180235476Y-97559761D01*
X179330714Y-97512142D02*
X179283095Y-97559761D01*
X179330714Y-97607380D01*
X179378333Y-97559761D01*
X179330714Y-97512142D01*
X179330714Y-97607380D01*
X178425952Y-97559761D02*
X178521190Y-97607380D01*
X178711666Y-97607380D01*
X178806904Y-97559761D01*
X178854523Y-97512142D01*
X178902142Y-97416904D01*
X178902142Y-97131190D01*
X178854523Y-97035952D01*
X178806904Y-96988333D01*
X178711666Y-96940714D01*
X178521190Y-96940714D01*
X178425952Y-96988333D01*
X177854523Y-97607380D02*
X177949761Y-97559761D01*
X177997380Y-97512142D01*
X178045000Y-97416904D01*
X178045000Y-97131190D01*
X177997380Y-97035952D01*
X177949761Y-96988333D01*
X177854523Y-96940714D01*
X177711666Y-96940714D01*
X177616428Y-96988333D01*
X177568809Y-97035952D01*
X177521190Y-97131190D01*
X177521190Y-97416904D01*
X177568809Y-97512142D01*
X177616428Y-97559761D01*
X177711666Y-97607380D01*
X177854523Y-97607380D01*
X177092619Y-97607380D02*
X177092619Y-96940714D01*
X177092619Y-97035952D02*
X177045000Y-96988333D01*
X176949761Y-96940714D01*
X176806904Y-96940714D01*
X176711666Y-96988333D01*
X176664047Y-97083571D01*
X176664047Y-97607380D01*
X176664047Y-97083571D02*
X176616428Y-96988333D01*
X176521190Y-96940714D01*
X176378333Y-96940714D01*
X176283095Y-96988333D01*
X176235476Y-97083571D01*
X176235476Y-97607380D01*
X175045000Y-96559761D02*
X175902142Y-97845476D01*
X174759285Y-97559761D02*
X174616428Y-97607380D01*
X174378333Y-97607380D01*
X174283095Y-97559761D01*
X174235476Y-97512142D01*
X174187857Y-97416904D01*
X174187857Y-97321666D01*
X174235476Y-97226428D01*
X174283095Y-97178809D01*
X174378333Y-97131190D01*
X174568809Y-97083571D01*
X174664047Y-97035952D01*
X174711666Y-96988333D01*
X174759285Y-96893095D01*
X174759285Y-96797857D01*
X174711666Y-96702619D01*
X174664047Y-96655000D01*
X174568809Y-96607380D01*
X174330714Y-96607380D01*
X174187857Y-96655000D01*
X173568809Y-96607380D02*
X173378333Y-96607380D01*
X173283095Y-96655000D01*
X173187857Y-96750238D01*
X173140238Y-96940714D01*
X173140238Y-97274047D01*
X173187857Y-97464523D01*
X173283095Y-97559761D01*
X173378333Y-97607380D01*
X173568809Y-97607380D01*
X173664047Y-97559761D01*
X173759285Y-97464523D01*
X173806904Y-97274047D01*
X173806904Y-96940714D01*
X173759285Y-96750238D01*
X173664047Y-96655000D01*
X173568809Y-96607380D01*
X172711666Y-97607380D02*
X172711666Y-96607380D01*
X172140238Y-97607380D01*
X172140238Y-96607380D01*
X171664047Y-97607380D02*
X171664047Y-96607380D01*
X170616428Y-97512142D02*
X170664047Y-97559761D01*
X170806904Y-97607380D01*
X170902142Y-97607380D01*
X171045000Y-97559761D01*
X171140238Y-97464523D01*
X171187857Y-97369285D01*
X171235476Y-97178809D01*
X171235476Y-97035952D01*
X171187857Y-96845476D01*
X171140238Y-96750238D01*
X171045000Y-96655000D01*
X170902142Y-96607380D01*
X170806904Y-96607380D01*
X170664047Y-96655000D01*
X170616428Y-96702619D01*
X170283095Y-96607380D02*
X169664047Y-96607380D01*
X169997380Y-96988333D01*
X169854523Y-96988333D01*
X169759285Y-97035952D01*
X169711666Y-97083571D01*
X169664047Y-97178809D01*
X169664047Y-97416904D01*
X169711666Y-97512142D01*
X169759285Y-97559761D01*
X169854523Y-97607380D01*
X170140238Y-97607380D01*
X170235476Y-97559761D01*
X170283095Y-97512142D01*
X169235476Y-97607380D02*
X169235476Y-96607380D01*
X168997380Y-96607380D01*
X168854523Y-96655000D01*
X168759285Y-96750238D01*
X168711666Y-96845476D01*
X168664047Y-97035952D01*
X168664047Y-97178809D01*
X168711666Y-97369285D01*
X168759285Y-97464523D01*
X168854523Y-97559761D01*
X168997380Y-97607380D01*
X169235476Y-97607380D01*
X167521190Y-96559761D02*
X168378333Y-97845476D01*
X166759285Y-96940714D02*
X166759285Y-97750238D01*
X166806904Y-97845476D01*
X166854523Y-97893095D01*
X166949761Y-97940714D01*
X167092619Y-97940714D01*
X167187857Y-97893095D01*
X166759285Y-97559761D02*
X166854523Y-97607380D01*
X167045000Y-97607380D01*
X167140238Y-97559761D01*
X167187857Y-97512142D01*
X167235476Y-97416904D01*
X167235476Y-97131190D01*
X167187857Y-97035952D01*
X167140238Y-96988333D01*
X167045000Y-96940714D01*
X166854523Y-96940714D01*
X166759285Y-96988333D01*
X165854523Y-97607380D02*
X165854523Y-97083571D01*
X165902142Y-96988333D01*
X165997380Y-96940714D01*
X166187857Y-96940714D01*
X166283095Y-96988333D01*
X165854523Y-97559761D02*
X165949761Y-97607380D01*
X166187857Y-97607380D01*
X166283095Y-97559761D01*
X166330714Y-97464523D01*
X166330714Y-97369285D01*
X166283095Y-97274047D01*
X166187857Y-97226428D01*
X165949761Y-97226428D01*
X165854523Y-97178809D01*
X165378333Y-97607380D02*
X165378333Y-96940714D01*
X165378333Y-97035952D02*
X165330714Y-96988333D01*
X165235476Y-96940714D01*
X165092619Y-96940714D01*
X164997380Y-96988333D01*
X164949761Y-97083571D01*
X164949761Y-97607380D01*
X164949761Y-97083571D02*
X164902142Y-96988333D01*
X164806904Y-96940714D01*
X164664047Y-96940714D01*
X164568809Y-96988333D01*
X164521190Y-97083571D01*
X164521190Y-97607380D01*
X163664047Y-97559761D02*
X163759285Y-97607380D01*
X163949761Y-97607380D01*
X164045000Y-97559761D01*
X164092619Y-97464523D01*
X164092619Y-97083571D01*
X164045000Y-96988333D01*
X163949761Y-96940714D01*
X163759285Y-96940714D01*
X163664047Y-96988333D01*
X163616428Y-97083571D01*
X163616428Y-97178809D01*
X164092619Y-97274047D01*
X163187857Y-97607380D02*
X163187857Y-96607380D01*
X163187857Y-96988333D02*
X163092619Y-96940714D01*
X162902142Y-96940714D01*
X162806904Y-96988333D01*
X162759285Y-97035952D01*
X162711666Y-97131190D01*
X162711666Y-97416904D01*
X162759285Y-97512142D01*
X162806904Y-97559761D01*
X162902142Y-97607380D01*
X163092619Y-97607380D01*
X163187857Y-97559761D01*
X162140238Y-97607380D02*
X162235476Y-97559761D01*
X162283095Y-97512142D01*
X162330714Y-97416904D01*
X162330714Y-97131190D01*
X162283095Y-97035952D01*
X162235476Y-96988333D01*
X162140238Y-96940714D01*
X161997380Y-96940714D01*
X161902142Y-96988333D01*
X161854523Y-97035952D01*
X161806904Y-97131190D01*
X161806904Y-97416904D01*
X161854523Y-97512142D01*
X161902142Y-97559761D01*
X161997380Y-97607380D01*
X162140238Y-97607380D01*
X161473571Y-96940714D02*
X161235476Y-97607380D01*
X160997380Y-96940714D02*
X161235476Y-97607380D01*
X161330714Y-97845476D01*
X161378333Y-97893095D01*
X161473571Y-97940714D01*
X160616428Y-97226428D02*
X159854523Y-97226428D01*
X159378333Y-97607380D02*
X159378333Y-96940714D01*
X159378333Y-97035952D02*
X159330714Y-96988333D01*
X159235476Y-96940714D01*
X159092619Y-96940714D01*
X158997380Y-96988333D01*
X158949761Y-97083571D01*
X158949761Y-97607380D01*
X158949761Y-97083571D02*
X158902142Y-96988333D01*
X158806904Y-96940714D01*
X158664047Y-96940714D01*
X158568809Y-96988333D01*
X158521190Y-97083571D01*
X158521190Y-97607380D01*
X157664047Y-97559761D02*
X157759285Y-97607380D01*
X157949761Y-97607380D01*
X158045000Y-97559761D01*
X158092619Y-97464523D01*
X158092619Y-97083571D01*
X158045000Y-96988333D01*
X157949761Y-96940714D01*
X157759285Y-96940714D01*
X157664047Y-96988333D01*
X157616428Y-97083571D01*
X157616428Y-97178809D01*
X158092619Y-97274047D01*
X157187857Y-97607380D02*
X157187857Y-96940714D01*
X157187857Y-97035952D02*
X157140238Y-96988333D01*
X157045000Y-96940714D01*
X156902142Y-96940714D01*
X156806904Y-96988333D01*
X156759285Y-97083571D01*
X156759285Y-97607380D01*
X156759285Y-97083571D02*
X156711666Y-96988333D01*
X156616428Y-96940714D01*
X156473571Y-96940714D01*
X156378333Y-96988333D01*
X156330714Y-97083571D01*
X156330714Y-97607380D01*
X155711666Y-97607380D02*
X155806904Y-97559761D01*
X155854523Y-97512142D01*
X155902142Y-97416904D01*
X155902142Y-97131190D01*
X155854523Y-97035952D01*
X155806904Y-96988333D01*
X155711666Y-96940714D01*
X155568809Y-96940714D01*
X155473571Y-96988333D01*
X155425952Y-97035952D01*
X155378333Y-97131190D01*
X155378333Y-97416904D01*
X155425952Y-97512142D01*
X155473571Y-97559761D01*
X155568809Y-97607380D01*
X155711666Y-97607380D01*
X154949761Y-97607380D02*
X154949761Y-96940714D01*
X154949761Y-97131190D02*
X154902142Y-97035952D01*
X154854523Y-96988333D01*
X154759285Y-96940714D01*
X154664047Y-96940714D01*
X154425952Y-96940714D02*
X154187857Y-97607380D01*
X153949761Y-96940714D02*
X154187857Y-97607380D01*
X154283095Y-97845476D01*
X154330714Y-97893095D01*
X154425952Y-97940714D01*
X153568809Y-97607380D02*
X153568809Y-96607380D01*
X153568809Y-96988333D02*
X153473571Y-96940714D01*
X153283095Y-96940714D01*
X153187857Y-96988333D01*
X153140238Y-97035952D01*
X153092619Y-97131190D01*
X153092619Y-97416904D01*
X153140238Y-97512142D01*
X153187857Y-97559761D01*
X153283095Y-97607380D01*
X153473571Y-97607380D01*
X153568809Y-97559761D01*
X152235476Y-97607380D02*
X152235476Y-97083571D01*
X152283095Y-96988333D01*
X152378333Y-96940714D01*
X152568809Y-96940714D01*
X152664047Y-96988333D01*
X152235476Y-97559761D02*
X152330714Y-97607380D01*
X152568809Y-97607380D01*
X152664047Y-97559761D01*
X152711666Y-97464523D01*
X152711666Y-97369285D01*
X152664047Y-97274047D01*
X152568809Y-97226428D01*
X152330714Y-97226428D01*
X152235476Y-97178809D01*
X151330714Y-97559761D02*
X151425952Y-97607380D01*
X151616428Y-97607380D01*
X151711666Y-97559761D01*
X151759285Y-97512142D01*
X151806904Y-97416904D01*
X151806904Y-97131190D01*
X151759285Y-97035952D01*
X151711666Y-96988333D01*
X151616428Y-96940714D01*
X151425952Y-96940714D01*
X151330714Y-96988333D01*
X150902142Y-97607380D02*
X150902142Y-96607380D01*
X150806904Y-97226428D02*
X150521190Y-97607380D01*
X150521190Y-96940714D02*
X150902142Y-97321666D01*
X149664047Y-96940714D02*
X149664047Y-97607380D01*
X150092619Y-96940714D02*
X150092619Y-97464523D01*
X150045000Y-97559761D01*
X149949761Y-97607380D01*
X149806904Y-97607380D01*
X149711666Y-97559761D01*
X149664047Y-97512142D01*
X149187857Y-96940714D02*
X149187857Y-97940714D01*
X149187857Y-96988333D02*
X149092619Y-96940714D01*
X148902142Y-96940714D01*
X148806904Y-96988333D01*
X148759285Y-97035952D01*
X148711666Y-97131190D01*
X148711666Y-97416904D01*
X148759285Y-97512142D01*
X148806904Y-97559761D01*
X148902142Y-97607380D01*
X149092619Y-97607380D01*
X149187857Y-97559761D01*
X182616428Y-99257380D02*
X182616428Y-98257380D01*
X182378333Y-98257380D01*
X182235476Y-98305000D01*
X182140238Y-98400238D01*
X182092619Y-98495476D01*
X182045000Y-98685952D01*
X182045000Y-98828809D01*
X182092619Y-99019285D01*
X182140238Y-99114523D01*
X182235476Y-99209761D01*
X182378333Y-99257380D01*
X182616428Y-99257380D01*
X181235476Y-99209761D02*
X181330714Y-99257380D01*
X181521190Y-99257380D01*
X181616428Y-99209761D01*
X181664047Y-99114523D01*
X181664047Y-98733571D01*
X181616428Y-98638333D01*
X181521190Y-98590714D01*
X181330714Y-98590714D01*
X181235476Y-98638333D01*
X181187857Y-98733571D01*
X181187857Y-98828809D01*
X181664047Y-98924047D01*
X180806904Y-99209761D02*
X180711666Y-99257380D01*
X180521190Y-99257380D01*
X180425952Y-99209761D01*
X180378333Y-99114523D01*
X180378333Y-99066904D01*
X180425952Y-98971666D01*
X180521190Y-98924047D01*
X180664047Y-98924047D01*
X180759285Y-98876428D01*
X180806904Y-98781190D01*
X180806904Y-98733571D01*
X180759285Y-98638333D01*
X180664047Y-98590714D01*
X180521190Y-98590714D01*
X180425952Y-98638333D01*
X179949761Y-99257380D02*
X179949761Y-98590714D01*
X179949761Y-98257380D02*
X179997380Y-98305000D01*
X179949761Y-98352619D01*
X179902142Y-98305000D01*
X179949761Y-98257380D01*
X179949761Y-98352619D01*
X179044999Y-98590714D02*
X179044999Y-99400238D01*
X179092619Y-99495476D01*
X179140238Y-99543095D01*
X179235476Y-99590714D01*
X179378333Y-99590714D01*
X179473571Y-99543095D01*
X179044999Y-99209761D02*
X179140238Y-99257380D01*
X179330714Y-99257380D01*
X179425952Y-99209761D01*
X179473571Y-99162142D01*
X179521190Y-99066904D01*
X179521190Y-98781190D01*
X179473571Y-98685952D01*
X179425952Y-98638333D01*
X179330714Y-98590714D01*
X179140238Y-98590714D01*
X179044999Y-98638333D01*
X178568809Y-98590714D02*
X178568809Y-99257380D01*
X178568809Y-98685952D02*
X178521190Y-98638333D01*
X178425952Y-98590714D01*
X178283095Y-98590714D01*
X178187857Y-98638333D01*
X178140238Y-98733571D01*
X178140238Y-99257380D01*
X177283095Y-99209761D02*
X177378333Y-99257380D01*
X177568809Y-99257380D01*
X177664047Y-99209761D01*
X177711666Y-99114523D01*
X177711666Y-98733571D01*
X177664047Y-98638333D01*
X177568809Y-98590714D01*
X177378333Y-98590714D01*
X177283095Y-98638333D01*
X177235476Y-98733571D01*
X177235476Y-98828809D01*
X177711666Y-98924047D01*
X176378333Y-99257380D02*
X176378333Y-98257380D01*
X176378333Y-99209761D02*
X176473571Y-99257380D01*
X176664047Y-99257380D01*
X176759285Y-99209761D01*
X176806904Y-99162142D01*
X176854523Y-99066904D01*
X176854523Y-98781190D01*
X176806904Y-98685952D01*
X176759285Y-98638333D01*
X176664047Y-98590714D01*
X176473571Y-98590714D01*
X176378333Y-98638333D01*
X175140238Y-99257380D02*
X175140238Y-98590714D01*
X175140238Y-98257380D02*
X175187857Y-98305000D01*
X175140238Y-98352619D01*
X175092619Y-98305000D01*
X175140238Y-98257380D01*
X175140238Y-98352619D01*
X174664047Y-98590714D02*
X174664047Y-99257380D01*
X174664047Y-98685952D02*
X174616428Y-98638333D01*
X174521190Y-98590714D01*
X174378333Y-98590714D01*
X174283095Y-98638333D01*
X174235476Y-98733571D01*
X174235476Y-99257380D01*
X173045000Y-99209761D02*
X172902142Y-99257380D01*
X172664047Y-99257380D01*
X172568809Y-99209761D01*
X172521190Y-99162142D01*
X172473571Y-99066904D01*
X172473571Y-98971666D01*
X172521190Y-98876428D01*
X172568809Y-98828809D01*
X172664047Y-98781190D01*
X172854523Y-98733571D01*
X172949761Y-98685952D01*
X172997380Y-98638333D01*
X173045000Y-98543095D01*
X173045000Y-98447857D01*
X172997380Y-98352619D01*
X172949761Y-98305000D01*
X172854523Y-98257380D01*
X172616428Y-98257380D01*
X172473571Y-98305000D01*
X172045000Y-99257380D02*
X172045000Y-98257380D01*
X171616428Y-99257380D02*
X171616428Y-98733571D01*
X171664047Y-98638333D01*
X171759285Y-98590714D01*
X171902142Y-98590714D01*
X171997380Y-98638333D01*
X172045000Y-98685952D01*
X170711666Y-99257380D02*
X170711666Y-98733571D01*
X170759285Y-98638333D01*
X170854523Y-98590714D01*
X171045000Y-98590714D01*
X171140238Y-98638333D01*
X170711666Y-99209761D02*
X170806904Y-99257380D01*
X171045000Y-99257380D01*
X171140238Y-99209761D01*
X171187857Y-99114523D01*
X171187857Y-99019285D01*
X171140238Y-98924047D01*
X171045000Y-98876428D01*
X170806904Y-98876428D01*
X170711666Y-98828809D01*
X170235476Y-98590714D02*
X170235476Y-99257380D01*
X170235476Y-98685952D02*
X170187857Y-98638333D01*
X170092619Y-98590714D01*
X169949761Y-98590714D01*
X169854523Y-98638333D01*
X169806904Y-98733571D01*
X169806904Y-99257380D01*
X168902142Y-98590714D02*
X168902142Y-99400238D01*
X168949761Y-99495476D01*
X168997380Y-99543095D01*
X169092619Y-99590714D01*
X169235476Y-99590714D01*
X169330714Y-99543095D01*
X168902142Y-99209761D02*
X168997380Y-99257380D01*
X169187857Y-99257380D01*
X169283095Y-99209761D01*
X169330714Y-99162142D01*
X169378333Y-99066904D01*
X169378333Y-98781190D01*
X169330714Y-98685952D01*
X169283095Y-98638333D01*
X169187857Y-98590714D01*
X168997380Y-98590714D01*
X168902142Y-98638333D01*
X168425952Y-99257380D02*
X168425952Y-98257380D01*
X167997380Y-99257380D02*
X167997380Y-98733571D01*
X168045000Y-98638333D01*
X168140238Y-98590714D01*
X168283095Y-98590714D01*
X168378333Y-98638333D01*
X168425952Y-98685952D01*
X167092619Y-99257380D02*
X167092619Y-98733571D01*
X167140238Y-98638333D01*
X167235476Y-98590714D01*
X167425952Y-98590714D01*
X167521190Y-98638333D01*
X167092619Y-99209761D02*
X167187857Y-99257380D01*
X167425952Y-99257380D01*
X167521190Y-99209761D01*
X167568809Y-99114523D01*
X167568809Y-99019285D01*
X167521190Y-98924047D01*
X167425952Y-98876428D01*
X167187857Y-98876428D01*
X167092619Y-98828809D01*
X166616428Y-99257380D02*
X166616428Y-98590714D01*
X166616428Y-98257380D02*
X166664047Y-98305000D01*
X166616428Y-98352619D01*
X166568809Y-98305000D01*
X166616428Y-98257380D01*
X166616428Y-98352619D01*
X166092619Y-99209761D02*
X166092619Y-99257380D01*
X166140238Y-99352619D01*
X166187857Y-99400238D01*
X164902142Y-99257380D02*
X164902142Y-98257380D01*
X164902142Y-98638333D02*
X164806904Y-98590714D01*
X164616428Y-98590714D01*
X164521190Y-98638333D01*
X164473571Y-98685952D01*
X164425952Y-98781190D01*
X164425952Y-99066904D01*
X164473571Y-99162142D01*
X164521190Y-99209761D01*
X164616428Y-99257380D01*
X164806904Y-99257380D01*
X164902142Y-99209761D01*
X164092619Y-98590714D02*
X163854523Y-99257380D01*
X163616428Y-98590714D02*
X163854523Y-99257380D01*
X163949761Y-99495476D01*
X163997380Y-99543095D01*
X164092619Y-99590714D01*
X162521190Y-99209761D02*
X162378333Y-99257380D01*
X162140238Y-99257380D01*
X162045000Y-99209761D01*
X161997380Y-99162142D01*
X161949761Y-99066904D01*
X161949761Y-98971666D01*
X161997380Y-98876428D01*
X162045000Y-98828809D01*
X162140238Y-98781190D01*
X162330714Y-98733571D01*
X162425952Y-98685952D01*
X162473571Y-98638333D01*
X162521190Y-98543095D01*
X162521190Y-98447857D01*
X162473571Y-98352619D01*
X162425952Y-98305000D01*
X162330714Y-98257380D01*
X162092619Y-98257380D01*
X161949761Y-98305000D01*
X161330714Y-98257380D02*
X161140238Y-98257380D01*
X161045000Y-98305000D01*
X160949761Y-98400238D01*
X160902142Y-98590714D01*
X160902142Y-98924047D01*
X160949761Y-99114523D01*
X161045000Y-99209761D01*
X161140238Y-99257380D01*
X161330714Y-99257380D01*
X161425952Y-99209761D01*
X161521190Y-99114523D01*
X161568809Y-98924047D01*
X161568809Y-98590714D01*
X161521190Y-98400238D01*
X161425952Y-98305000D01*
X161330714Y-98257380D01*
X160473571Y-99257380D02*
X160473571Y-98257380D01*
X159902142Y-99257380D01*
X159902142Y-98257380D01*
X159425952Y-99257380D02*
X159425952Y-98257380D01*
X158378333Y-99162142D02*
X158425952Y-99209761D01*
X158568809Y-99257380D01*
X158664047Y-99257380D01*
X158806904Y-99209761D01*
X158902142Y-99114523D01*
X158949761Y-99019285D01*
X158997380Y-98828809D01*
X158997380Y-98685952D01*
X158949761Y-98495476D01*
X158902142Y-98400238D01*
X158806904Y-98305000D01*
X158664047Y-98257380D01*
X158568809Y-98257380D01*
X158425952Y-98305000D01*
X158378333Y-98352619D01*
X158045000Y-98257380D02*
X157425952Y-98257380D01*
X157759285Y-98638333D01*
X157616428Y-98638333D01*
X157521190Y-98685952D01*
X157473571Y-98733571D01*
X157425952Y-98828809D01*
X157425952Y-99066904D01*
X157473571Y-99162142D01*
X157521190Y-99209761D01*
X157616428Y-99257380D01*
X157902142Y-99257380D01*
X157997380Y-99209761D01*
X158045000Y-99162142D01*
X156997380Y-99257380D02*
X156997380Y-98257380D01*
X156759285Y-98257380D01*
X156616428Y-98305000D01*
X156521190Y-98400238D01*
X156473571Y-98495476D01*
X156425952Y-98685952D01*
X156425952Y-98828809D01*
X156473571Y-99019285D01*
X156521190Y-99114523D01*
X156616428Y-99209761D01*
X156759285Y-99257380D01*
X156997380Y-99257380D01*
X174021190Y-100002619D02*
X173973571Y-99955000D01*
X173878333Y-99907380D01*
X173640238Y-99907380D01*
X173545000Y-99955000D01*
X173497380Y-100002619D01*
X173449761Y-100097857D01*
X173449761Y-100193095D01*
X173497380Y-100335952D01*
X174068809Y-100907380D01*
X173449761Y-100907380D01*
X172830714Y-99907380D02*
X172735476Y-99907380D01*
X172640238Y-99955000D01*
X172592619Y-100002619D01*
X172545000Y-100097857D01*
X172497380Y-100288333D01*
X172497380Y-100526428D01*
X172545000Y-100716904D01*
X172592619Y-100812142D01*
X172640238Y-100859761D01*
X172735476Y-100907380D01*
X172830714Y-100907380D01*
X172925952Y-100859761D01*
X172973571Y-100812142D01*
X173021190Y-100716904D01*
X173068809Y-100526428D01*
X173068809Y-100288333D01*
X173021190Y-100097857D01*
X172973571Y-100002619D01*
X172925952Y-99955000D01*
X172830714Y-99907380D01*
X172116428Y-100002619D02*
X172068809Y-99955000D01*
X171973571Y-99907380D01*
X171735476Y-99907380D01*
X171640238Y-99955000D01*
X171592619Y-100002619D01*
X171545000Y-100097857D01*
X171545000Y-100193095D01*
X171592619Y-100335952D01*
X172164047Y-100907380D01*
X171545000Y-100907380D01*
X171211666Y-99907380D02*
X170592619Y-99907380D01*
X170925952Y-100288333D01*
X170783095Y-100288333D01*
X170687857Y-100335952D01*
X170640238Y-100383571D01*
X170592619Y-100478809D01*
X170592619Y-100716904D01*
X170640238Y-100812142D01*
X170687857Y-100859761D01*
X170783095Y-100907380D01*
X171068809Y-100907380D01*
X171164047Y-100859761D01*
X171211666Y-100812142D01*
X170164047Y-100812142D02*
X170116428Y-100859761D01*
X170164047Y-100907380D01*
X170211666Y-100859761D01*
X170164047Y-100812142D01*
X170164047Y-100907380D01*
X169687857Y-100907380D02*
X169687857Y-99907380D01*
X169354523Y-100621666D01*
X169021190Y-99907380D01*
X169021190Y-100907380D01*
X168116428Y-100907380D02*
X168116428Y-100383571D01*
X168164047Y-100288333D01*
X168259285Y-100240714D01*
X168449761Y-100240714D01*
X168545000Y-100288333D01*
X168116428Y-100859761D02*
X168211666Y-100907380D01*
X168449761Y-100907380D01*
X168545000Y-100859761D01*
X168592619Y-100764523D01*
X168592619Y-100669285D01*
X168545000Y-100574047D01*
X168449761Y-100526428D01*
X168211666Y-100526428D01*
X168116428Y-100478809D01*
X167640238Y-100907380D02*
X167640238Y-100240714D01*
X167640238Y-100431190D02*
X167592619Y-100335952D01*
X167545000Y-100288333D01*
X167449761Y-100240714D01*
X167354523Y-100240714D01*
X167021190Y-100812142D02*
X166973571Y-100859761D01*
X167021190Y-100907380D01*
X167068809Y-100859761D01*
X167021190Y-100812142D01*
X167021190Y-100907380D01*
X166021190Y-100907380D02*
X166592619Y-100907380D01*
X166306904Y-100907380D02*
X166306904Y-99907380D01*
X166402142Y-100050238D01*
X166497380Y-100145476D01*
X166592619Y-100193095D01*
X165545000Y-100907380D02*
X165354523Y-100907380D01*
X165259285Y-100859761D01*
X165211666Y-100812142D01*
X165116428Y-100669285D01*
X165068809Y-100478809D01*
X165068809Y-100097857D01*
X165116428Y-100002619D01*
X165164047Y-99955000D01*
X165259285Y-99907380D01*
X165449761Y-99907380D01*
X165545000Y-99955000D01*
X165592619Y-100002619D01*
X165640238Y-100097857D01*
X165640238Y-100335952D01*
X165592619Y-100431190D01*
X165545000Y-100478809D01*
X165449761Y-100526428D01*
X165259285Y-100526428D01*
X165164047Y-100478809D01*
X165116428Y-100431190D01*
X165068809Y-100335952D01*
D11*
%TO.C,G\u002A\u002A\u002A*%
G36*
X174243010Y-110447539D02*
G01*
X174171155Y-110506073D01*
X174069546Y-110595224D01*
X173946018Y-110708114D01*
X173808407Y-110837865D01*
X173805862Y-110840300D01*
X173665697Y-110971959D01*
X173536965Y-111088209D01*
X173428158Y-111181748D01*
X173347767Y-111245275D01*
X173304590Y-111271411D01*
X173261205Y-111295442D01*
X173229166Y-111351278D01*
X173200802Y-111453396D01*
X173195677Y-111476951D01*
X173120613Y-111703840D01*
X172991158Y-111944303D01*
X172812546Y-112190074D01*
X172591726Y-112431192D01*
X172474243Y-112543694D01*
X172363353Y-112644337D01*
X172271917Y-112721778D01*
X172214878Y-112763475D01*
X172144395Y-112813569D01*
X172117359Y-112851121D01*
X172138588Y-112867592D01*
X172156438Y-112867007D01*
X172209336Y-112859896D01*
X172299538Y-112846546D01*
X172354875Y-112838039D01*
X172487422Y-112821961D01*
X172625910Y-112811803D01*
X172664091Y-112810531D01*
X172746301Y-112804475D01*
X172814967Y-112783782D01*
X172888611Y-112739385D01*
X172985756Y-112662221D01*
X173011441Y-112640524D01*
X173182167Y-112478648D01*
X173359795Y-112280156D01*
X173538249Y-112054686D01*
X173711454Y-111811872D01*
X173873336Y-111561350D01*
X174017820Y-111312756D01*
X174138829Y-111075724D01*
X174230289Y-110859891D01*
X174286126Y-110674892D01*
X174298578Y-110599026D01*
X174305041Y-110491863D01*
X174295520Y-110437664D01*
X174277276Y-110426500D01*
X174243010Y-110447539D01*
G37*
X174243010Y-110447539D02*
X174171155Y-110506073D01*
X174069546Y-110595224D01*
X173946018Y-110708114D01*
X173808407Y-110837865D01*
X173805862Y-110840300D01*
X173665697Y-110971959D01*
X173536965Y-111088209D01*
X173428158Y-111181748D01*
X173347767Y-111245275D01*
X173304590Y-111271411D01*
X173261205Y-111295442D01*
X173229166Y-111351278D01*
X173200802Y-111453396D01*
X173195677Y-111476951D01*
X173120613Y-111703840D01*
X172991158Y-111944303D01*
X172812546Y-112190074D01*
X172591726Y-112431192D01*
X172474243Y-112543694D01*
X172363353Y-112644337D01*
X172271917Y-112721778D01*
X172214878Y-112763475D01*
X172144395Y-112813569D01*
X172117359Y-112851121D01*
X172138588Y-112867592D01*
X172156438Y-112867007D01*
X172209336Y-112859896D01*
X172299538Y-112846546D01*
X172354875Y-112838039D01*
X172487422Y-112821961D01*
X172625910Y-112811803D01*
X172664091Y-112810531D01*
X172746301Y-112804475D01*
X172814967Y-112783782D01*
X172888611Y-112739385D01*
X172985756Y-112662221D01*
X173011441Y-112640524D01*
X173182167Y-112478648D01*
X173359795Y-112280156D01*
X173538249Y-112054686D01*
X173711454Y-111811872D01*
X173873336Y-111561350D01*
X174017820Y-111312756D01*
X174138829Y-111075724D01*
X174230289Y-110859891D01*
X174286126Y-110674892D01*
X174298578Y-110599026D01*
X174305041Y-110491863D01*
X174295520Y-110437664D01*
X174277276Y-110426500D01*
X174243010Y-110447539D01*
G36*
X172612193Y-111646948D02*
G01*
X172621522Y-111653090D01*
X172638880Y-111691984D01*
X172636586Y-111751384D01*
X172637881Y-111842318D01*
X172659612Y-111926262D01*
X172681040Y-111997877D01*
X172665320Y-112046079D01*
X172641633Y-112071649D01*
X172602564Y-112106554D01*
X172602285Y-112093517D01*
X172618826Y-112059914D01*
X172634991Y-111991025D01*
X172625952Y-111952443D01*
X172599471Y-111942930D01*
X172554559Y-111979857D01*
X172487844Y-112064503D01*
X172431173Y-112151504D01*
X172397913Y-112220459D01*
X172394268Y-112251348D01*
X172395983Y-112267237D01*
X172386700Y-112260337D01*
X172344074Y-112257321D01*
X172317718Y-112272488D01*
X172291605Y-112314388D01*
X172311863Y-112352933D01*
X172331760Y-112401227D01*
X172307582Y-112436033D01*
X172278735Y-112455848D01*
X172284055Y-112423570D01*
X172285706Y-112418812D01*
X172290557Y-112371577D01*
X172257186Y-112372061D01*
X172188876Y-112419927D01*
X172177171Y-112429987D01*
X172104981Y-112489058D01*
X172010279Y-112561586D01*
X171966944Y-112593397D01*
X171894998Y-112652991D01*
X171854811Y-112701660D01*
X171851858Y-112720561D01*
X171843634Y-112737070D01*
X171803227Y-112729636D01*
X171749077Y-112724968D01*
X171735750Y-112742110D01*
X171759994Y-112773394D01*
X171824493Y-112772065D01*
X171916897Y-112741081D01*
X172024859Y-112683397D01*
X172050406Y-112666789D01*
X172187439Y-112569393D01*
X172306262Y-112475771D01*
X172233167Y-112475771D01*
X172218461Y-112517159D01*
X172206709Y-112522000D01*
X172195759Y-112511850D01*
X172148500Y-112511850D01*
X172125936Y-112546247D01*
X172071385Y-112600453D01*
X172004563Y-112657411D01*
X171945186Y-112700062D01*
X171916677Y-112712425D01*
X171920859Y-112694444D01*
X171962683Y-112649599D01*
X171980177Y-112633618D01*
X172067941Y-112556523D01*
X172118607Y-112514886D01*
X172142119Y-112501511D01*
X172148424Y-112509204D01*
X172148500Y-112511850D01*
X172195759Y-112511850D01*
X172180758Y-112497945D01*
X172180250Y-112492123D01*
X172202997Y-112448484D01*
X172206709Y-112445895D01*
X172229901Y-112455608D01*
X172233167Y-112475771D01*
X172306262Y-112475771D01*
X172310588Y-112472363D01*
X172409838Y-112384513D01*
X172431658Y-112361182D01*
X172394716Y-112361182D01*
X172390373Y-112363250D01*
X172361399Y-112340898D01*
X172354875Y-112331500D01*
X172346785Y-112301817D01*
X172351128Y-112299750D01*
X172380102Y-112322101D01*
X172386625Y-112331500D01*
X172394716Y-112361182D01*
X172431658Y-112361182D01*
X172474266Y-112315625D01*
X172466000Y-112315625D01*
X172450125Y-112331500D01*
X172434250Y-112315625D01*
X172450125Y-112299750D01*
X172466000Y-112315625D01*
X172474266Y-112315625D01*
X172475172Y-112314657D01*
X172496709Y-112274063D01*
X172516960Y-112248847D01*
X172532668Y-112254082D01*
X172550807Y-112254546D01*
X172536570Y-112220375D01*
X172466000Y-112220375D01*
X172450125Y-112236250D01*
X172434250Y-112220375D01*
X172450125Y-112204500D01*
X172466000Y-112220375D01*
X172536570Y-112220375D01*
X172531551Y-112208331D01*
X172517874Y-112143386D01*
X172528997Y-112072419D01*
X172558244Y-112022576D01*
X172579360Y-112014000D01*
X172578851Y-112037464D01*
X172559426Y-112080908D01*
X172535683Y-112149593D01*
X172551206Y-112178607D01*
X172594680Y-112166673D01*
X172654793Y-112112514D01*
X172670194Y-112093413D01*
X172722065Y-112018433D01*
X172736082Y-111970808D01*
X172717446Y-111931219D01*
X172714767Y-111927901D01*
X172685503Y-111861539D01*
X172672423Y-111770961D01*
X172672375Y-111765638D01*
X172661729Y-111686225D01*
X172634530Y-111647072D01*
X172631894Y-111646316D01*
X172612193Y-111646948D01*
G37*
X172612193Y-111646948D02*
X172621522Y-111653090D01*
X172638880Y-111691984D01*
X172636586Y-111751384D01*
X172637881Y-111842318D01*
X172659612Y-111926262D01*
X172681040Y-111997877D01*
X172665320Y-112046079D01*
X172641633Y-112071649D01*
X172602564Y-112106554D01*
X172602285Y-112093517D01*
X172618826Y-112059914D01*
X172634991Y-111991025D01*
X172625952Y-111952443D01*
X172599471Y-111942930D01*
X172554559Y-111979857D01*
X172487844Y-112064503D01*
X172431173Y-112151504D01*
X172397913Y-112220459D01*
X172394268Y-112251348D01*
X172395983Y-112267237D01*
X172386700Y-112260337D01*
X172344074Y-112257321D01*
X172317718Y-112272488D01*
X172291605Y-112314388D01*
X172311863Y-112352933D01*
X172331760Y-112401227D01*
X172307582Y-112436033D01*
X172278735Y-112455848D01*
X172284055Y-112423570D01*
X172285706Y-112418812D01*
X172290557Y-112371577D01*
X172257186Y-112372061D01*
X172188876Y-112419927D01*
X172177171Y-112429987D01*
X172104981Y-112489058D01*
X172010279Y-112561586D01*
X171966944Y-112593397D01*
X171894998Y-112652991D01*
X171854811Y-112701660D01*
X171851858Y-112720561D01*
X171843634Y-112737070D01*
X171803227Y-112729636D01*
X171749077Y-112724968D01*
X171735750Y-112742110D01*
X171759994Y-112773394D01*
X171824493Y-112772065D01*
X171916897Y-112741081D01*
X172024859Y-112683397D01*
X172050406Y-112666789D01*
X172187439Y-112569393D01*
X172306262Y-112475771D01*
X172233167Y-112475771D01*
X172218461Y-112517159D01*
X172206709Y-112522000D01*
X172195759Y-112511850D01*
X172148500Y-112511850D01*
X172125936Y-112546247D01*
X172071385Y-112600453D01*
X172004563Y-112657411D01*
X171945186Y-112700062D01*
X171916677Y-112712425D01*
X171920859Y-112694444D01*
X171962683Y-112649599D01*
X171980177Y-112633618D01*
X172067941Y-112556523D01*
X172118607Y-112514886D01*
X172142119Y-112501511D01*
X172148424Y-112509204D01*
X172148500Y-112511850D01*
X172195759Y-112511850D01*
X172180758Y-112497945D01*
X172180250Y-112492123D01*
X172202997Y-112448484D01*
X172206709Y-112445895D01*
X172229901Y-112455608D01*
X172233167Y-112475771D01*
X172306262Y-112475771D01*
X172310588Y-112472363D01*
X172409838Y-112384513D01*
X172431658Y-112361182D01*
X172394716Y-112361182D01*
X172390373Y-112363250D01*
X172361399Y-112340898D01*
X172354875Y-112331500D01*
X172346785Y-112301817D01*
X172351128Y-112299750D01*
X172380102Y-112322101D01*
X172386625Y-112331500D01*
X172394716Y-112361182D01*
X172431658Y-112361182D01*
X172474266Y-112315625D01*
X172466000Y-112315625D01*
X172450125Y-112331500D01*
X172434250Y-112315625D01*
X172450125Y-112299750D01*
X172466000Y-112315625D01*
X172474266Y-112315625D01*
X172475172Y-112314657D01*
X172496709Y-112274063D01*
X172516960Y-112248847D01*
X172532668Y-112254082D01*
X172550807Y-112254546D01*
X172536570Y-112220375D01*
X172466000Y-112220375D01*
X172450125Y-112236250D01*
X172434250Y-112220375D01*
X172450125Y-112204500D01*
X172466000Y-112220375D01*
X172536570Y-112220375D01*
X172531551Y-112208331D01*
X172517874Y-112143386D01*
X172528997Y-112072419D01*
X172558244Y-112022576D01*
X172579360Y-112014000D01*
X172578851Y-112037464D01*
X172559426Y-112080908D01*
X172535683Y-112149593D01*
X172551206Y-112178607D01*
X172594680Y-112166673D01*
X172654793Y-112112514D01*
X172670194Y-112093413D01*
X172722065Y-112018433D01*
X172736082Y-111970808D01*
X172717446Y-111931219D01*
X172714767Y-111927901D01*
X172685503Y-111861539D01*
X172672423Y-111770961D01*
X172672375Y-111765638D01*
X172661729Y-111686225D01*
X172634530Y-111647072D01*
X172631894Y-111646316D01*
X172612193Y-111646948D01*
G36*
X172005026Y-111848108D02*
G01*
X171938725Y-111878004D01*
X171884806Y-111913187D01*
X171875605Y-111922088D01*
X171815826Y-111968473D01*
X171772386Y-111982250D01*
X171746171Y-111974524D01*
X171771635Y-111945417D01*
X171785245Y-111934615D01*
X171827251Y-111900559D01*
X171817442Y-111898073D01*
X171780716Y-111910802D01*
X171720630Y-111948517D01*
X171645376Y-112016247D01*
X171612827Y-112051310D01*
X171547624Y-112138646D01*
X171546270Y-112142968D01*
X171563987Y-112152512D01*
X171584588Y-112168409D01*
X171619438Y-112215992D01*
X171614411Y-112256686D01*
X171585710Y-112268000D01*
X171582814Y-112252182D01*
X171587308Y-112247108D01*
X171587738Y-112208863D01*
X171568788Y-112175671D01*
X171546050Y-112143669D01*
X171526126Y-112207258D01*
X171530536Y-112245444D01*
X171531870Y-112312969D01*
X171495497Y-112343798D01*
X171459716Y-112351721D01*
X171474758Y-112324052D01*
X171475443Y-112323224D01*
X171492152Y-112263711D01*
X171483405Y-112238927D01*
X171458835Y-112218137D01*
X171438062Y-112255655D01*
X171436877Y-112259332D01*
X171429817Y-112330236D01*
X171445224Y-112395006D01*
X171476166Y-112426478D01*
X171479604Y-112426750D01*
X171508644Y-112403721D01*
X171566367Y-112342312D01*
X171642181Y-112254037D01*
X171672714Y-112216849D01*
X171768606Y-112107064D01*
X171814250Y-112061047D01*
X171717419Y-112061047D01*
X171717166Y-112093349D01*
X171713675Y-112107435D01*
X171693539Y-112163830D01*
X171672303Y-112163580D01*
X171658599Y-112144597D01*
X171664560Y-112103856D01*
X171685977Y-112079282D01*
X171717419Y-112061047D01*
X171814250Y-112061047D01*
X171867724Y-112007137D01*
X171951275Y-111935777D01*
X171964008Y-111926880D01*
X172035922Y-111877860D01*
X172079261Y-111845559D01*
X172085000Y-111839558D01*
X172061266Y-111832344D01*
X172005026Y-111848108D01*
G37*
X172005026Y-111848108D02*
X171938725Y-111878004D01*
X171884806Y-111913187D01*
X171875605Y-111922088D01*
X171815826Y-111968473D01*
X171772386Y-111982250D01*
X171746171Y-111974524D01*
X171771635Y-111945417D01*
X171785245Y-111934615D01*
X171827251Y-111900559D01*
X171817442Y-111898073D01*
X171780716Y-111910802D01*
X171720630Y-111948517D01*
X171645376Y-112016247D01*
X171612827Y-112051310D01*
X171547624Y-112138646D01*
X171546270Y-112142968D01*
X171563987Y-112152512D01*
X171584588Y-112168409D01*
X171619438Y-112215992D01*
X171614411Y-112256686D01*
X171585710Y-112268000D01*
X171582814Y-112252182D01*
X171587308Y-112247108D01*
X171587738Y-112208863D01*
X171568788Y-112175671D01*
X171546050Y-112143669D01*
X171526126Y-112207258D01*
X171530536Y-112245444D01*
X171531870Y-112312969D01*
X171495497Y-112343798D01*
X171459716Y-112351721D01*
X171474758Y-112324052D01*
X171475443Y-112323224D01*
X171492152Y-112263711D01*
X171483405Y-112238927D01*
X171458835Y-112218137D01*
X171438062Y-112255655D01*
X171436877Y-112259332D01*
X171429817Y-112330236D01*
X171445224Y-112395006D01*
X171476166Y-112426478D01*
X171479604Y-112426750D01*
X171508644Y-112403721D01*
X171566367Y-112342312D01*
X171642181Y-112254037D01*
X171672714Y-112216849D01*
X171768606Y-112107064D01*
X171814250Y-112061047D01*
X171717419Y-112061047D01*
X171717166Y-112093349D01*
X171713675Y-112107435D01*
X171693539Y-112163830D01*
X171672303Y-112163580D01*
X171658599Y-112144597D01*
X171664560Y-112103856D01*
X171685977Y-112079282D01*
X171717419Y-112061047D01*
X171814250Y-112061047D01*
X171867724Y-112007137D01*
X171951275Y-111935777D01*
X171964008Y-111926880D01*
X172035922Y-111877860D01*
X172079261Y-111845559D01*
X172085000Y-111839558D01*
X172061266Y-111832344D01*
X172005026Y-111848108D01*
G36*
X172299163Y-111911196D02*
G01*
X172226772Y-111973054D01*
X172155902Y-112056476D01*
X172098726Y-112145365D01*
X172067418Y-112223624D01*
X172070772Y-112270664D01*
X172103606Y-112297009D01*
X172154400Y-112282454D01*
X172224228Y-112233446D01*
X172297376Y-112160496D01*
X172354850Y-112075543D01*
X172391080Y-111992710D01*
X172400493Y-111926119D01*
X172377519Y-111889892D01*
X172360903Y-111887000D01*
X172299163Y-111911196D01*
G37*
X172299163Y-111911196D02*
X172226772Y-111973054D01*
X172155902Y-112056476D01*
X172098726Y-112145365D01*
X172067418Y-112223624D01*
X172070772Y-112270664D01*
X172103606Y-112297009D01*
X172154400Y-112282454D01*
X172224228Y-112233446D01*
X172297376Y-112160496D01*
X172354850Y-112075543D01*
X172391080Y-111992710D01*
X172400493Y-111926119D01*
X172377519Y-111889892D01*
X172360903Y-111887000D01*
X172299163Y-111911196D01*
G36*
X170773778Y-102770382D02*
G01*
X170532148Y-102882329D01*
X170296423Y-103052553D01*
X170069024Y-103278450D01*
X169852374Y-103557411D01*
X169648894Y-103886832D01*
X169461005Y-104264106D01*
X169359615Y-104505125D01*
X169262089Y-104757046D01*
X169176852Y-104989832D01*
X169100311Y-105215514D01*
X169028870Y-105446122D01*
X168958934Y-105693687D01*
X168886910Y-105970240D01*
X168809201Y-106287812D01*
X168742996Y-106568875D01*
X168695072Y-106777881D01*
X168660260Y-106941763D01*
X168636472Y-107077052D01*
X168621621Y-107200278D01*
X168613619Y-107327972D01*
X168610380Y-107476665D01*
X168609814Y-107623606D01*
X168612046Y-107828859D01*
X168618669Y-107987108D01*
X168629323Y-108092915D01*
X168643651Y-108140840D01*
X168643922Y-108141121D01*
X168670192Y-108138920D01*
X168711744Y-108090010D01*
X168771726Y-107989972D01*
X168829982Y-107880140D01*
X169060614Y-107446749D01*
X169275881Y-107074212D01*
X169476398Y-106761929D01*
X169662779Y-106509297D01*
X169835638Y-106315716D01*
X169995590Y-106180582D01*
X170143249Y-106103295D01*
X170279231Y-106083253D01*
X170404149Y-106119854D01*
X170518618Y-106212497D01*
X170525489Y-106220191D01*
X170604723Y-106332786D01*
X170658450Y-106466902D01*
X170689925Y-106635049D01*
X170702400Y-106849733D01*
X170702912Y-106902250D01*
X170694162Y-107128219D01*
X170663563Y-107339684D01*
X170606855Y-107551958D01*
X170519772Y-107780351D01*
X170398053Y-108040175D01*
X170371443Y-108092822D01*
X170082023Y-108609082D01*
X169764523Y-109075938D01*
X169411727Y-109503959D01*
X169397616Y-109519502D01*
X169224558Y-109710626D01*
X169090369Y-109862366D01*
X168990269Y-109981457D01*
X168919478Y-110074632D01*
X168873214Y-110148628D01*
X168846697Y-110210177D01*
X168835148Y-110266016D01*
X168833530Y-110314154D01*
X168864989Y-110490212D01*
X168947224Y-110678101D01*
X169072933Y-110863984D01*
X169193277Y-110995617D01*
X169347199Y-111128693D01*
X169516934Y-111242760D01*
X169716920Y-111346009D01*
X169961595Y-111446631D01*
X170037125Y-111474388D01*
X170297885Y-111577760D01*
X170551155Y-111695712D01*
X170782816Y-111820712D01*
X170978750Y-111945226D01*
X171106615Y-112045015D01*
X171193657Y-112121310D01*
X171260760Y-112177720D01*
X171295464Y-112203823D01*
X171297305Y-112204500D01*
X171321407Y-112181555D01*
X171372143Y-112121943D01*
X171426640Y-112053687D01*
X171544220Y-111902875D01*
X171473298Y-111855652D01*
X171299364Y-111705033D01*
X171179413Y-111522642D01*
X171114793Y-111312230D01*
X171106854Y-111077551D01*
X171133479Y-110910497D01*
X171156707Y-110842584D01*
X171204172Y-110728517D01*
X171271188Y-110578673D01*
X171353069Y-110403429D01*
X171445127Y-110213161D01*
X171482617Y-110137445D01*
X171777324Y-109528931D01*
X172033021Y-108962960D01*
X172251739Y-108433622D01*
X172435505Y-107935003D01*
X172586350Y-107461191D01*
X172706304Y-107006274D01*
X172797395Y-106564340D01*
X172861653Y-106129476D01*
X172863379Y-106114841D01*
X172903832Y-105584414D01*
X172897638Y-105087759D01*
X172845306Y-104626836D01*
X172747342Y-104203609D01*
X172604256Y-103820039D01*
X172416555Y-103478089D01*
X172184747Y-103179720D01*
X172074347Y-103067863D01*
X171848989Y-102897762D01*
X171593141Y-102782112D01*
X171311378Y-102722423D01*
X171018891Y-102719321D01*
X170773778Y-102770382D01*
G37*
X170773778Y-102770382D02*
X170532148Y-102882329D01*
X170296423Y-103052553D01*
X170069024Y-103278450D01*
X169852374Y-103557411D01*
X169648894Y-103886832D01*
X169461005Y-104264106D01*
X169359615Y-104505125D01*
X169262089Y-104757046D01*
X169176852Y-104989832D01*
X169100311Y-105215514D01*
X169028870Y-105446122D01*
X168958934Y-105693687D01*
X168886910Y-105970240D01*
X168809201Y-106287812D01*
X168742996Y-106568875D01*
X168695072Y-106777881D01*
X168660260Y-106941763D01*
X168636472Y-107077052D01*
X168621621Y-107200278D01*
X168613619Y-107327972D01*
X168610380Y-107476665D01*
X168609814Y-107623606D01*
X168612046Y-107828859D01*
X168618669Y-107987108D01*
X168629323Y-108092915D01*
X168643651Y-108140840D01*
X168643922Y-108141121D01*
X168670192Y-108138920D01*
X168711744Y-108090010D01*
X168771726Y-107989972D01*
X168829982Y-107880140D01*
X169060614Y-107446749D01*
X169275881Y-107074212D01*
X169476398Y-106761929D01*
X169662779Y-106509297D01*
X169835638Y-106315716D01*
X169995590Y-106180582D01*
X170143249Y-106103295D01*
X170279231Y-106083253D01*
X170404149Y-106119854D01*
X170518618Y-106212497D01*
X170525489Y-106220191D01*
X170604723Y-106332786D01*
X170658450Y-106466902D01*
X170689925Y-106635049D01*
X170702400Y-106849733D01*
X170702912Y-106902250D01*
X170694162Y-107128219D01*
X170663563Y-107339684D01*
X170606855Y-107551958D01*
X170519772Y-107780351D01*
X170398053Y-108040175D01*
X170371443Y-108092822D01*
X170082023Y-108609082D01*
X169764523Y-109075938D01*
X169411727Y-109503959D01*
X169397616Y-109519502D01*
X169224558Y-109710626D01*
X169090369Y-109862366D01*
X168990269Y-109981457D01*
X168919478Y-110074632D01*
X168873214Y-110148628D01*
X168846697Y-110210177D01*
X168835148Y-110266016D01*
X168833530Y-110314154D01*
X168864989Y-110490212D01*
X168947224Y-110678101D01*
X169072933Y-110863984D01*
X169193277Y-110995617D01*
X169347199Y-111128693D01*
X169516934Y-111242760D01*
X169716920Y-111346009D01*
X169961595Y-111446631D01*
X170037125Y-111474388D01*
X170297885Y-111577760D01*
X170551155Y-111695712D01*
X170782816Y-111820712D01*
X170978750Y-111945226D01*
X171106615Y-112045015D01*
X171193657Y-112121310D01*
X171260760Y-112177720D01*
X171295464Y-112203823D01*
X171297305Y-112204500D01*
X171321407Y-112181555D01*
X171372143Y-112121943D01*
X171426640Y-112053687D01*
X171544220Y-111902875D01*
X171473298Y-111855652D01*
X171299364Y-111705033D01*
X171179413Y-111522642D01*
X171114793Y-111312230D01*
X171106854Y-111077551D01*
X171133479Y-110910497D01*
X171156707Y-110842584D01*
X171204172Y-110728517D01*
X171271188Y-110578673D01*
X171353069Y-110403429D01*
X171445127Y-110213161D01*
X171482617Y-110137445D01*
X171777324Y-109528931D01*
X172033021Y-108962960D01*
X172251739Y-108433622D01*
X172435505Y-107935003D01*
X172586350Y-107461191D01*
X172706304Y-107006274D01*
X172797395Y-106564340D01*
X172861653Y-106129476D01*
X172863379Y-106114841D01*
X172903832Y-105584414D01*
X172897638Y-105087759D01*
X172845306Y-104626836D01*
X172747342Y-104203609D01*
X172604256Y-103820039D01*
X172416555Y-103478089D01*
X172184747Y-103179720D01*
X172074347Y-103067863D01*
X171848989Y-102897762D01*
X171593141Y-102782112D01*
X171311378Y-102722423D01*
X171018891Y-102719321D01*
X170773778Y-102770382D01*
G36*
X172865529Y-111512429D02*
G01*
X172855478Y-111577334D01*
X172858883Y-111605100D01*
X172862617Y-111672210D01*
X172844333Y-111696500D01*
X172827617Y-111676353D01*
X172834460Y-111659354D01*
X172836036Y-111635752D01*
X172801987Y-111643479D01*
X172744525Y-111661857D01*
X172725341Y-111665236D01*
X172728338Y-111678829D01*
X172749400Y-111694375D01*
X172791353Y-111746775D01*
X172805068Y-111814895D01*
X172785722Y-111868521D01*
X172778151Y-111874430D01*
X172756875Y-111877712D01*
X172764438Y-111860407D01*
X172768774Y-111805837D01*
X172754434Y-111768188D01*
X172732324Y-111739895D01*
X172722839Y-111763141D01*
X172720966Y-111813688D01*
X172731185Y-111898793D01*
X172758958Y-111934556D01*
X172796878Y-111915191D01*
X172815126Y-111887233D01*
X172835129Y-111824050D01*
X172830720Y-111791093D01*
X172833134Y-111762280D01*
X172843852Y-111760000D01*
X172871171Y-111732780D01*
X172901491Y-111667332D01*
X172926827Y-111587969D01*
X172930139Y-111569500D01*
X172910500Y-111569500D01*
X172898884Y-111595633D01*
X172889334Y-111590666D01*
X172885534Y-111552986D01*
X172889334Y-111548333D01*
X172908209Y-111552691D01*
X172910500Y-111569500D01*
X172930139Y-111569500D01*
X172939198Y-111519004D01*
X172933575Y-111486740D01*
X172895191Y-111476480D01*
X172865529Y-111512429D01*
G37*
X172865529Y-111512429D02*
X172855478Y-111577334D01*
X172858883Y-111605100D01*
X172862617Y-111672210D01*
X172844333Y-111696500D01*
X172827617Y-111676353D01*
X172834460Y-111659354D01*
X172836036Y-111635752D01*
X172801987Y-111643479D01*
X172744525Y-111661857D01*
X172725341Y-111665236D01*
X172728338Y-111678829D01*
X172749400Y-111694375D01*
X172791353Y-111746775D01*
X172805068Y-111814895D01*
X172785722Y-111868521D01*
X172778151Y-111874430D01*
X172756875Y-111877712D01*
X172764438Y-111860407D01*
X172768774Y-111805837D01*
X172754434Y-111768188D01*
X172732324Y-111739895D01*
X172722839Y-111763141D01*
X172720966Y-111813688D01*
X172731185Y-111898793D01*
X172758958Y-111934556D01*
X172796878Y-111915191D01*
X172815126Y-111887233D01*
X172835129Y-111824050D01*
X172830720Y-111791093D01*
X172833134Y-111762280D01*
X172843852Y-111760000D01*
X172871171Y-111732780D01*
X172901491Y-111667332D01*
X172926827Y-111587969D01*
X172930139Y-111569500D01*
X172910500Y-111569500D01*
X172898884Y-111595633D01*
X172889334Y-111590666D01*
X172885534Y-111552986D01*
X172889334Y-111548333D01*
X172908209Y-111552691D01*
X172910500Y-111569500D01*
X172930139Y-111569500D01*
X172939198Y-111519004D01*
X172933575Y-111486740D01*
X172895191Y-111476480D01*
X172865529Y-111512429D01*
G36*
X172751750Y-111560300D02*
G01*
X172700280Y-111585431D01*
X172688250Y-111604953D01*
X172694928Y-111629546D01*
X172696188Y-111629316D01*
X172729352Y-111619282D01*
X172759688Y-111611113D01*
X172806746Y-111586385D01*
X172815250Y-111570144D01*
X172789906Y-111555665D01*
X172751750Y-111560300D01*
G37*
X172751750Y-111560300D02*
X172700280Y-111585431D01*
X172688250Y-111604953D01*
X172694928Y-111629546D01*
X172696188Y-111629316D01*
X172729352Y-111619282D01*
X172759688Y-111611113D01*
X172806746Y-111586385D01*
X172815250Y-111570144D01*
X172789906Y-111555665D01*
X172751750Y-111560300D01*
G36*
X165742298Y-107257737D02*
G01*
X165490657Y-107343658D01*
X165446392Y-107364933D01*
X165268464Y-107481490D01*
X165147729Y-107625231D01*
X165083113Y-107798103D01*
X165073537Y-108002054D01*
X165076631Y-108034119D01*
X165095356Y-108146352D01*
X165128108Y-108204093D01*
X165187756Y-108214767D01*
X165287170Y-108185802D01*
X165318539Y-108173712D01*
X165475886Y-108132225D01*
X165665813Y-108112686D01*
X165860805Y-108116525D01*
X166004875Y-108138051D01*
X166055775Y-108151519D01*
X166059912Y-108161839D01*
X166011325Y-108173494D01*
X165942623Y-108184868D01*
X165773621Y-108222398D01*
X165608671Y-108277581D01*
X165466838Y-108342810D01*
X165367190Y-108410477D01*
X165360068Y-108417296D01*
X165311418Y-108477647D01*
X165293930Y-108543983D01*
X165298987Y-108638311D01*
X165324329Y-108765073D01*
X165370726Y-108836608D01*
X165446726Y-108859945D01*
X165550202Y-108844873D01*
X165662477Y-108828558D01*
X165798344Y-108824905D01*
X165874285Y-108829490D01*
X166060818Y-108848742D01*
X165969347Y-108895268D01*
X165842279Y-108977314D01*
X165750717Y-109071596D01*
X165705901Y-109165599D01*
X165703250Y-109191593D01*
X165710852Y-109293293D01*
X165742747Y-109350042D01*
X165812570Y-109374319D01*
X165907731Y-109378750D01*
X166005063Y-109382135D01*
X166073882Y-109390807D01*
X166092808Y-109397890D01*
X166084358Y-109428670D01*
X166038817Y-109479620D01*
X166027803Y-109489409D01*
X165983682Y-109536116D01*
X165967441Y-109584561D01*
X165982861Y-109643805D01*
X166033724Y-109722906D01*
X166123813Y-109830924D01*
X166210232Y-109926413D01*
X166293417Y-110010167D01*
X166401481Y-110109508D01*
X166523902Y-110215862D01*
X166650159Y-110320657D01*
X166769730Y-110415320D01*
X166872094Y-110491276D01*
X166946731Y-110539953D01*
X166979809Y-110553500D01*
X166976395Y-110527042D01*
X166949494Y-110455566D01*
X166903889Y-110350914D01*
X166861263Y-110259812D01*
X166715154Y-109899038D01*
X166597874Y-109487104D01*
X166513428Y-109045043D01*
X166480239Y-108784124D01*
X166469110Y-108569166D01*
X166482167Y-108385839D01*
X166521538Y-108219811D01*
X166589353Y-108056754D01*
X166685551Y-107885875D01*
X166812485Y-107680125D01*
X166665213Y-107543075D01*
X166448567Y-107377612D01*
X166222021Y-107274827D01*
X165986342Y-107234831D01*
X165742298Y-107257737D01*
G37*
X165742298Y-107257737D02*
X165490657Y-107343658D01*
X165446392Y-107364933D01*
X165268464Y-107481490D01*
X165147729Y-107625231D01*
X165083113Y-107798103D01*
X165073537Y-108002054D01*
X165076631Y-108034119D01*
X165095356Y-108146352D01*
X165128108Y-108204093D01*
X165187756Y-108214767D01*
X165287170Y-108185802D01*
X165318539Y-108173712D01*
X165475886Y-108132225D01*
X165665813Y-108112686D01*
X165860805Y-108116525D01*
X166004875Y-108138051D01*
X166055775Y-108151519D01*
X166059912Y-108161839D01*
X166011325Y-108173494D01*
X165942623Y-108184868D01*
X165773621Y-108222398D01*
X165608671Y-108277581D01*
X165466838Y-108342810D01*
X165367190Y-108410477D01*
X165360068Y-108417296D01*
X165311418Y-108477647D01*
X165293930Y-108543983D01*
X165298987Y-108638311D01*
X165324329Y-108765073D01*
X165370726Y-108836608D01*
X165446726Y-108859945D01*
X165550202Y-108844873D01*
X165662477Y-108828558D01*
X165798344Y-108824905D01*
X165874285Y-108829490D01*
X166060818Y-108848742D01*
X165969347Y-108895268D01*
X165842279Y-108977314D01*
X165750717Y-109071596D01*
X165705901Y-109165599D01*
X165703250Y-109191593D01*
X165710852Y-109293293D01*
X165742747Y-109350042D01*
X165812570Y-109374319D01*
X165907731Y-109378750D01*
X166005063Y-109382135D01*
X166073882Y-109390807D01*
X166092808Y-109397890D01*
X166084358Y-109428670D01*
X166038817Y-109479620D01*
X166027803Y-109489409D01*
X165983682Y-109536116D01*
X165967441Y-109584561D01*
X165982861Y-109643805D01*
X166033724Y-109722906D01*
X166123813Y-109830924D01*
X166210232Y-109926413D01*
X166293417Y-110010167D01*
X166401481Y-110109508D01*
X166523902Y-110215862D01*
X166650159Y-110320657D01*
X166769730Y-110415320D01*
X166872094Y-110491276D01*
X166946731Y-110539953D01*
X166979809Y-110553500D01*
X166976395Y-110527042D01*
X166949494Y-110455566D01*
X166903889Y-110350914D01*
X166861263Y-110259812D01*
X166715154Y-109899038D01*
X166597874Y-109487104D01*
X166513428Y-109045043D01*
X166480239Y-108784124D01*
X166469110Y-108569166D01*
X166482167Y-108385839D01*
X166521538Y-108219811D01*
X166589353Y-108056754D01*
X166685551Y-107885875D01*
X166812485Y-107680125D01*
X166665213Y-107543075D01*
X166448567Y-107377612D01*
X166222021Y-107274827D01*
X165986342Y-107234831D01*
X165742298Y-107257737D01*
G36*
X169545966Y-108545698D02*
G01*
X169545000Y-108553524D01*
X169524012Y-108608611D01*
X169467695Y-108695832D01*
X169386019Y-108802819D01*
X169288957Y-108917209D01*
X169186478Y-109026635D01*
X169090785Y-109116812D01*
X168981806Y-109192178D01*
X168878241Y-109219459D01*
X168859662Y-109220000D01*
X168748034Y-109220000D01*
X168753824Y-109506167D01*
X168757983Y-109641668D01*
X168765017Y-109723127D01*
X168776821Y-109759993D01*
X168795289Y-109761715D01*
X168803825Y-109755642D01*
X168850653Y-109734327D01*
X168868762Y-109739678D01*
X168863409Y-109771481D01*
X168831876Y-109802534D01*
X168791209Y-109848238D01*
X168786569Y-109876952D01*
X168812535Y-109871840D01*
X168869962Y-109828846D01*
X168947332Y-109756832D01*
X168962012Y-109741959D01*
X169061857Y-109638484D01*
X169119289Y-109572596D01*
X169133184Y-109543338D01*
X169051721Y-109543338D01*
X169049148Y-109578651D01*
X169010709Y-109634178D01*
X169008443Y-109636637D01*
X168961275Y-109694859D01*
X168941750Y-109733986D01*
X168930203Y-109759673D01*
X168929234Y-109759750D01*
X168921393Y-109732588D01*
X168921297Y-109680397D01*
X168937460Y-109620668D01*
X168962917Y-109601022D01*
X168965835Y-109599330D01*
X168873741Y-109599330D01*
X168872719Y-109662537D01*
X168840725Y-109706031D01*
X168838563Y-109706972D01*
X168800138Y-109723240D01*
X168795763Y-109725493D01*
X168793724Y-109697595D01*
X168791161Y-109621507D01*
X168788569Y-109512530D01*
X168788125Y-109489875D01*
X168789333Y-109376089D01*
X168796650Y-109291899D01*
X168808577Y-109252802D01*
X168811149Y-109251750D01*
X168824547Y-109279788D01*
X168826391Y-109350592D01*
X168823063Y-109390487D01*
X168820455Y-109489139D01*
X168837064Y-109545972D01*
X168842838Y-109551111D01*
X168873741Y-109599330D01*
X168965835Y-109599330D01*
X169006368Y-109575830D01*
X169014133Y-109561312D01*
X169040230Y-109537878D01*
X169051721Y-109543338D01*
X169133184Y-109543338D01*
X169136394Y-109536579D01*
X169115258Y-109522719D01*
X169057966Y-109523301D01*
X169020315Y-109526271D01*
X168932744Y-109530601D01*
X168891223Y-109519260D01*
X168878837Y-109484799D01*
X168878250Y-109463719D01*
X168898964Y-109404464D01*
X168950116Y-109389883D01*
X169015220Y-109421863D01*
X169039039Y-109445298D01*
X169099734Y-109486842D01*
X169143876Y-109493765D01*
X169203414Y-109466195D01*
X169266748Y-109411181D01*
X169317371Y-109347305D01*
X169322904Y-109333306D01*
X169284866Y-109333306D01*
X169251751Y-109379615D01*
X169193729Y-109408321D01*
X169172591Y-109410500D01*
X169118739Y-109404857D01*
X169118748Y-109380710D01*
X169132250Y-109362875D01*
X169153502Y-109323423D01*
X169136138Y-109315250D01*
X169104872Y-109289471D01*
X169100500Y-109265824D01*
X169094761Y-109234148D01*
X169066305Y-109241603D01*
X169029936Y-109265824D01*
X168952343Y-109306788D01*
X168897081Y-109311025D01*
X168878250Y-109281626D01*
X168898149Y-109263690D01*
X168913550Y-109269818D01*
X168958542Y-109272815D01*
X168969113Y-109263755D01*
X169013371Y-109222982D01*
X169070201Y-109191269D01*
X169117065Y-109178789D01*
X169132250Y-109190120D01*
X169156952Y-109209849D01*
X169195750Y-109204125D01*
X169246964Y-109195758D01*
X169254645Y-109223021D01*
X169226383Y-109285587D01*
X169209733Y-109336133D01*
X169226383Y-109347000D01*
X169257388Y-109322223D01*
X169259250Y-109309958D01*
X169269617Y-109286021D01*
X169275873Y-109289539D01*
X169284866Y-109333306D01*
X169322904Y-109333306D01*
X169338775Y-109293151D01*
X169335358Y-109278213D01*
X169331996Y-109256599D01*
X169346122Y-109262446D01*
X169384730Y-109253910D01*
X169430403Y-109204969D01*
X169470852Y-109139295D01*
X169475620Y-109110599D01*
X169445228Y-109103688D01*
X169433875Y-109103583D01*
X169391723Y-109126274D01*
X169386250Y-109145916D01*
X169365915Y-109184633D01*
X169352172Y-109188250D01*
X169328896Y-109163143D01*
X169329576Y-109132687D01*
X169361823Y-109087223D01*
X169389054Y-109080476D01*
X169423963Y-109061364D01*
X169436783Y-108991549D01*
X169437050Y-108973568D01*
X169453962Y-108876610D01*
X169457304Y-108871851D01*
X169417035Y-108871851D01*
X169397039Y-108928018D01*
X169346984Y-109001161D01*
X169284196Y-109070872D01*
X169226003Y-109116745D01*
X169202593Y-109124419D01*
X169196893Y-109105813D01*
X169230845Y-109058645D01*
X169253351Y-109035267D01*
X169322343Y-108961245D01*
X169374530Y-108894022D01*
X169380480Y-108884454D01*
X169407713Y-108847415D01*
X169416877Y-108866950D01*
X169417035Y-108871851D01*
X169457304Y-108871851D01*
X169491025Y-108823842D01*
X169534919Y-108781152D01*
X169545000Y-108759141D01*
X169525468Y-108758654D01*
X169481500Y-108791375D01*
X169433550Y-108827332D01*
X169421097Y-108820059D01*
X169441808Y-108777325D01*
X169493346Y-108706899D01*
X169514541Y-108681449D01*
X169583620Y-108592887D01*
X169606465Y-108541245D01*
X169584874Y-108521907D01*
X169576750Y-108521500D01*
X169545966Y-108545698D01*
G37*
X169545966Y-108545698D02*
X169545000Y-108553524D01*
X169524012Y-108608611D01*
X169467695Y-108695832D01*
X169386019Y-108802819D01*
X169288957Y-108917209D01*
X169186478Y-109026635D01*
X169090785Y-109116812D01*
X168981806Y-109192178D01*
X168878241Y-109219459D01*
X168859662Y-109220000D01*
X168748034Y-109220000D01*
X168753824Y-109506167D01*
X168757983Y-109641668D01*
X168765017Y-109723127D01*
X168776821Y-109759993D01*
X168795289Y-109761715D01*
X168803825Y-109755642D01*
X168850653Y-109734327D01*
X168868762Y-109739678D01*
X168863409Y-109771481D01*
X168831876Y-109802534D01*
X168791209Y-109848238D01*
X168786569Y-109876952D01*
X168812535Y-109871840D01*
X168869962Y-109828846D01*
X168947332Y-109756832D01*
X168962012Y-109741959D01*
X169061857Y-109638484D01*
X169119289Y-109572596D01*
X169133184Y-109543338D01*
X169051721Y-109543338D01*
X169049148Y-109578651D01*
X169010709Y-109634178D01*
X169008443Y-109636637D01*
X168961275Y-109694859D01*
X168941750Y-109733986D01*
X168930203Y-109759673D01*
X168929234Y-109759750D01*
X168921393Y-109732588D01*
X168921297Y-109680397D01*
X168937460Y-109620668D01*
X168962917Y-109601022D01*
X168965835Y-109599330D01*
X168873741Y-109599330D01*
X168872719Y-109662537D01*
X168840725Y-109706031D01*
X168838563Y-109706972D01*
X168800138Y-109723240D01*
X168795763Y-109725493D01*
X168793724Y-109697595D01*
X168791161Y-109621507D01*
X168788569Y-109512530D01*
X168788125Y-109489875D01*
X168789333Y-109376089D01*
X168796650Y-109291899D01*
X168808577Y-109252802D01*
X168811149Y-109251750D01*
X168824547Y-109279788D01*
X168826391Y-109350592D01*
X168823063Y-109390487D01*
X168820455Y-109489139D01*
X168837064Y-109545972D01*
X168842838Y-109551111D01*
X168873741Y-109599330D01*
X168965835Y-109599330D01*
X169006368Y-109575830D01*
X169014133Y-109561312D01*
X169040230Y-109537878D01*
X169051721Y-109543338D01*
X169133184Y-109543338D01*
X169136394Y-109536579D01*
X169115258Y-109522719D01*
X169057966Y-109523301D01*
X169020315Y-109526271D01*
X168932744Y-109530601D01*
X168891223Y-109519260D01*
X168878837Y-109484799D01*
X168878250Y-109463719D01*
X168898964Y-109404464D01*
X168950116Y-109389883D01*
X169015220Y-109421863D01*
X169039039Y-109445298D01*
X169099734Y-109486842D01*
X169143876Y-109493765D01*
X169203414Y-109466195D01*
X169266748Y-109411181D01*
X169317371Y-109347305D01*
X169322904Y-109333306D01*
X169284866Y-109333306D01*
X169251751Y-109379615D01*
X169193729Y-109408321D01*
X169172591Y-109410500D01*
X169118739Y-109404857D01*
X169118748Y-109380710D01*
X169132250Y-109362875D01*
X169153502Y-109323423D01*
X169136138Y-109315250D01*
X169104872Y-109289471D01*
X169100500Y-109265824D01*
X169094761Y-109234148D01*
X169066305Y-109241603D01*
X169029936Y-109265824D01*
X168952343Y-109306788D01*
X168897081Y-109311025D01*
X168878250Y-109281626D01*
X168898149Y-109263690D01*
X168913550Y-109269818D01*
X168958542Y-109272815D01*
X168969113Y-109263755D01*
X169013371Y-109222982D01*
X169070201Y-109191269D01*
X169117065Y-109178789D01*
X169132250Y-109190120D01*
X169156952Y-109209849D01*
X169195750Y-109204125D01*
X169246964Y-109195758D01*
X169254645Y-109223021D01*
X169226383Y-109285587D01*
X169209733Y-109336133D01*
X169226383Y-109347000D01*
X169257388Y-109322223D01*
X169259250Y-109309958D01*
X169269617Y-109286021D01*
X169275873Y-109289539D01*
X169284866Y-109333306D01*
X169322904Y-109333306D01*
X169338775Y-109293151D01*
X169335358Y-109278213D01*
X169331996Y-109256599D01*
X169346122Y-109262446D01*
X169384730Y-109253910D01*
X169430403Y-109204969D01*
X169470852Y-109139295D01*
X169475620Y-109110599D01*
X169445228Y-109103688D01*
X169433875Y-109103583D01*
X169391723Y-109126274D01*
X169386250Y-109145916D01*
X169365915Y-109184633D01*
X169352172Y-109188250D01*
X169328896Y-109163143D01*
X169329576Y-109132687D01*
X169361823Y-109087223D01*
X169389054Y-109080476D01*
X169423963Y-109061364D01*
X169436783Y-108991549D01*
X169437050Y-108973568D01*
X169453962Y-108876610D01*
X169457304Y-108871851D01*
X169417035Y-108871851D01*
X169397039Y-108928018D01*
X169346984Y-109001161D01*
X169284196Y-109070872D01*
X169226003Y-109116745D01*
X169202593Y-109124419D01*
X169196893Y-109105813D01*
X169230845Y-109058645D01*
X169253351Y-109035267D01*
X169322343Y-108961245D01*
X169374530Y-108894022D01*
X169380480Y-108884454D01*
X169407713Y-108847415D01*
X169416877Y-108866950D01*
X169417035Y-108871851D01*
X169457304Y-108871851D01*
X169491025Y-108823842D01*
X169534919Y-108781152D01*
X169545000Y-108759141D01*
X169525468Y-108758654D01*
X169481500Y-108791375D01*
X169433550Y-108827332D01*
X169421097Y-108820059D01*
X169441808Y-108777325D01*
X169493346Y-108706899D01*
X169514541Y-108681449D01*
X169583620Y-108592887D01*
X169606465Y-108541245D01*
X169584874Y-108521907D01*
X169576750Y-108521500D01*
X169545966Y-108545698D01*
G36*
X168910000Y-109489875D02*
G01*
X168925875Y-109505750D01*
X168941750Y-109489875D01*
X168925875Y-109474000D01*
X168910000Y-109489875D01*
G37*
X168910000Y-109489875D02*
X168925875Y-109505750D01*
X168941750Y-109489875D01*
X168925875Y-109474000D01*
X168910000Y-109489875D01*
G36*
X169365449Y-107118472D02*
G01*
X169317153Y-107187151D01*
X169255702Y-107286052D01*
X169229279Y-107331401D01*
X169164706Y-107441116D01*
X169110058Y-107528238D01*
X169074131Y-107578963D01*
X169067183Y-107585843D01*
X169041709Y-107623817D01*
X169010479Y-107698264D01*
X169002966Y-107720254D01*
X168972835Y-107800072D01*
X168946422Y-107849800D01*
X168941580Y-107854750D01*
X168912968Y-107891486D01*
X168872940Y-107960423D01*
X168867591Y-107970716D01*
X168836245Y-108038867D01*
X168836595Y-108072199D01*
X168866455Y-108090047D01*
X168901244Y-108127438D01*
X168899901Y-108152773D01*
X168904819Y-108210827D01*
X168920154Y-108233203D01*
X168938941Y-108272206D01*
X168913803Y-108296900D01*
X168883150Y-108342752D01*
X168884644Y-108366056D01*
X168905619Y-108361553D01*
X168948481Y-108311450D01*
X169004844Y-108225967D01*
X169018448Y-108203041D01*
X169086387Y-108091755D01*
X169151313Y-107994323D01*
X169199604Y-107931144D01*
X169201072Y-107929537D01*
X169240073Y-107870243D01*
X169229888Y-107840350D01*
X169197498Y-107797209D01*
X169195750Y-107785488D01*
X169213141Y-107771417D01*
X169241398Y-107789609D01*
X169278060Y-107805234D01*
X169311908Y-107774975D01*
X169336977Y-107730937D01*
X169337656Y-107729957D01*
X169303434Y-107729957D01*
X169301039Y-107747384D01*
X169272566Y-107776271D01*
X169251166Y-107764115D01*
X169196881Y-107745389D01*
X169176007Y-107749502D01*
X169139087Y-107745781D01*
X169135750Y-107712467D01*
X169164285Y-107679949D01*
X169221358Y-107669337D01*
X169276335Y-107690245D01*
X169303434Y-107729957D01*
X169337656Y-107729957D01*
X169391040Y-107652975D01*
X169451711Y-107599706D01*
X169452542Y-107599256D01*
X169499468Y-107551876D01*
X169499472Y-107536645D01*
X169481500Y-107536645D01*
X169453557Y-107568241D01*
X169384667Y-107590402D01*
X169297241Y-107597940D01*
X169240496Y-107592428D01*
X169172076Y-107599069D01*
X169131307Y-107653707D01*
X169116025Y-107760830D01*
X169117883Y-107846976D01*
X169116581Y-107934074D01*
X169104022Y-107991058D01*
X169097204Y-107999662D01*
X169073026Y-107990232D01*
X169068750Y-107965875D01*
X169056016Y-107930022D01*
X169042031Y-107931015D01*
X169024815Y-107971193D01*
X169021052Y-108044014D01*
X169016930Y-108111291D01*
X168999040Y-108140465D01*
X168998272Y-108140500D01*
X168984087Y-108160253D01*
X168989375Y-108172250D01*
X168986858Y-108201507D01*
X168975374Y-108204000D01*
X168942939Y-108193824D01*
X168941750Y-108190191D01*
X168951830Y-108153600D01*
X168973405Y-108093127D01*
X168979675Y-108071671D01*
X168938048Y-108071671D01*
X168933386Y-108099436D01*
X168910000Y-108092875D01*
X168882375Y-108047564D01*
X168878737Y-108019563D01*
X168883875Y-107984031D01*
X168905824Y-108007110D01*
X168910000Y-108013500D01*
X168938048Y-108071671D01*
X168979675Y-108071671D01*
X168989921Y-108036617D01*
X168975733Y-108028537D01*
X168968009Y-108032768D01*
X168944261Y-108034180D01*
X168951233Y-108002833D01*
X168951596Y-107957656D01*
X168932817Y-107949034D01*
X168923548Y-107936088D01*
X168949688Y-107915706D01*
X168995932Y-107865869D01*
X169005250Y-107832149D01*
X169018494Y-107779142D01*
X169051716Y-107706073D01*
X169095152Y-107629075D01*
X169139039Y-107564279D01*
X169173613Y-107527820D01*
X169188066Y-107530072D01*
X169225961Y-107559535D01*
X169281659Y-107569000D01*
X169335895Y-107563291D01*
X169336338Y-107539309D01*
X169323485Y-107522260D01*
X169302268Y-107474770D01*
X169333205Y-107427010D01*
X169371166Y-107395337D01*
X169251039Y-107395337D01*
X169244681Y-107408137D01*
X169214406Y-107440962D01*
X169208837Y-107417813D01*
X169216544Y-107393005D01*
X169239919Y-107358428D01*
X169250477Y-107359143D01*
X169251039Y-107395337D01*
X169371166Y-107395337D01*
X169384811Y-107383953D01*
X169403166Y-107393745D01*
X169395450Y-107442000D01*
X169397567Y-107494026D01*
X169430172Y-107505500D01*
X169474753Y-107521257D01*
X169481500Y-107536645D01*
X169499472Y-107536645D01*
X169499478Y-107515404D01*
X169498795Y-107480929D01*
X169527749Y-107484703D01*
X169577808Y-107486465D01*
X169591258Y-107475962D01*
X169638472Y-107446926D01*
X169719976Y-107428363D01*
X169806943Y-107423773D01*
X169870547Y-107436655D01*
X169877438Y-107441222D01*
X169905755Y-107487354D01*
X169926556Y-107558936D01*
X169936134Y-107632529D01*
X169930778Y-107684690D01*
X169917751Y-107696000D01*
X169904596Y-107715744D01*
X169909720Y-107727093D01*
X169911733Y-107776997D01*
X169895743Y-107820211D01*
X169880799Y-107871139D01*
X169917359Y-107899286D01*
X169931960Y-107904266D01*
X169979755Y-107924330D01*
X169970323Y-107947970D01*
X169945911Y-107966850D01*
X169911479Y-108005978D01*
X169927650Y-108030394D01*
X169973642Y-108028436D01*
X169992564Y-108009630D01*
X170015673Y-107984800D01*
X170020764Y-108005873D01*
X169999032Y-108055380D01*
X169959377Y-108098849D01*
X169917762Y-108150610D01*
X169920040Y-108185248D01*
X169963731Y-108187191D01*
X169972952Y-108183990D01*
X170000836Y-108181026D01*
X169994250Y-108215260D01*
X169980785Y-108245336D01*
X169950723Y-108297758D01*
X169924586Y-108297093D01*
X169901456Y-108271897D01*
X169872746Y-108241736D01*
X169870203Y-108262729D01*
X169878248Y-108299250D01*
X169888344Y-108350542D01*
X169877357Y-108345580D01*
X169861509Y-108321400D01*
X169843644Y-108253399D01*
X169855363Y-108226150D01*
X169869280Y-108188125D01*
X169830750Y-108188125D01*
X169814875Y-108204000D01*
X169799000Y-108188125D01*
X169814875Y-108172250D01*
X169830750Y-108188125D01*
X169869280Y-108188125D01*
X169876403Y-108168664D01*
X169883347Y-108096451D01*
X169851587Y-108096451D01*
X169846625Y-108108750D01*
X169818095Y-108139038D01*
X169813002Y-108140500D01*
X169799365Y-108115935D01*
X169799000Y-108108750D01*
X169823408Y-108078220D01*
X169832624Y-108077000D01*
X169851587Y-108096451D01*
X169883347Y-108096451D01*
X169883848Y-108091246D01*
X169890321Y-108009445D01*
X169906227Y-107956308D01*
X169910814Y-107922637D01*
X169899442Y-107918250D01*
X169867787Y-107944576D01*
X169826407Y-108008817D01*
X169786303Y-108088864D01*
X169758477Y-108162609D01*
X169753930Y-108207944D01*
X169754628Y-108209263D01*
X169749888Y-108234657D01*
X169742471Y-108235750D01*
X169711076Y-108261759D01*
X169676581Y-108323062D01*
X169653179Y-108380632D01*
X169658356Y-108385091D01*
X169690643Y-108346875D01*
X169727359Y-108303849D01*
X169732627Y-108312544D01*
X169720770Y-108354812D01*
X169715765Y-108411390D01*
X169746264Y-108426250D01*
X169778913Y-108405556D01*
X169775465Y-108354812D01*
X169769056Y-108307001D01*
X169777720Y-108301177D01*
X169798763Y-108344329D01*
X169807139Y-108380552D01*
X169828823Y-108455373D01*
X169843363Y-108484859D01*
X169845098Y-108541969D01*
X169818632Y-108578975D01*
X169779645Y-108611411D01*
X169767289Y-108595942D01*
X169766764Y-108583866D01*
X169761515Y-108554062D01*
X169739026Y-108579589D01*
X169735500Y-108585000D01*
X169714433Y-108612756D01*
X169702677Y-108604158D01*
X169695157Y-108548675D01*
X169690842Y-108492350D01*
X169661914Y-108442650D01*
X169643572Y-108432648D01*
X169614736Y-108436559D01*
X169616751Y-108485551D01*
X169620535Y-108501625D01*
X169616819Y-108609352D01*
X169593154Y-108659112D01*
X169564117Y-108718905D01*
X169564228Y-108752393D01*
X169560368Y-108787979D01*
X169526334Y-108851657D01*
X169514568Y-108868900D01*
X169466810Y-108964340D01*
X169465619Y-109029478D01*
X169496302Y-109081850D01*
X169528942Y-109088603D01*
X169544968Y-109046456D01*
X169545000Y-109043501D01*
X169528528Y-109011368D01*
X169510628Y-109015245D01*
X169497610Y-109010237D01*
X169511490Y-108970060D01*
X169543038Y-108911768D01*
X169583023Y-108852412D01*
X169622214Y-108809044D01*
X169622282Y-108808987D01*
X169663055Y-108783996D01*
X169669195Y-108799525D01*
X169643230Y-108844599D01*
X169603084Y-108892390D01*
X169561639Y-108948819D01*
X169554708Y-108986079D01*
X169555787Y-108987369D01*
X169588491Y-108984199D01*
X169630743Y-108938128D01*
X169670355Y-108865918D01*
X169692127Y-108799827D01*
X169713556Y-108742517D01*
X169736654Y-108728588D01*
X169768327Y-108716151D01*
X169797355Y-108680250D01*
X169767250Y-108680250D01*
X169755634Y-108706383D01*
X169746084Y-108701416D01*
X169742732Y-108668174D01*
X169685114Y-108668174D01*
X169659651Y-108711558D01*
X169614403Y-108739569D01*
X169596675Y-108741243D01*
X169583211Y-108731869D01*
X169600563Y-108722722D01*
X169636607Y-108680878D01*
X169640250Y-108659855D01*
X169657047Y-108629579D01*
X169673542Y-108633577D01*
X169685114Y-108668174D01*
X169742732Y-108668174D01*
X169742284Y-108663736D01*
X169746084Y-108659083D01*
X169764959Y-108663441D01*
X169767250Y-108680250D01*
X169797355Y-108680250D01*
X169810292Y-108664250D01*
X169851015Y-108593048D01*
X169878959Y-108522713D01*
X169882606Y-108473449D01*
X169884496Y-108437395D01*
X169900248Y-108434568D01*
X169929806Y-108411608D01*
X169972594Y-108344193D01*
X170017224Y-108251625D01*
X170061495Y-108151513D01*
X170074348Y-108124625D01*
X170053000Y-108124625D01*
X170037125Y-108140500D01*
X170021250Y-108124625D01*
X170037125Y-108108750D01*
X170053000Y-108124625D01*
X170074348Y-108124625D01*
X170097186Y-108076850D01*
X170115557Y-108045250D01*
X170142109Y-107997625D01*
X170084750Y-107997625D01*
X170068875Y-108013500D01*
X170053000Y-107997625D01*
X170068875Y-107981750D01*
X170084750Y-107997625D01*
X170142109Y-107997625D01*
X170151670Y-107980476D01*
X170175744Y-107881419D01*
X170180420Y-107805301D01*
X170107355Y-107805301D01*
X170101640Y-107851553D01*
X170077016Y-107909288D01*
X170060502Y-107904726D01*
X170053242Y-107838690D01*
X170053000Y-107816650D01*
X170057243Y-107769249D01*
X170017621Y-107769249D01*
X170000084Y-107801833D01*
X169978017Y-107820014D01*
X169969788Y-107798892D01*
X169966480Y-107759500D01*
X169974967Y-107708075D01*
X169991474Y-107696000D01*
X170017181Y-107720002D01*
X170017621Y-107769249D01*
X170057243Y-107769249D01*
X170058874Y-107751031D01*
X170078542Y-107742130D01*
X170087904Y-107749953D01*
X170107355Y-107805301D01*
X170180420Y-107805301D01*
X170182161Y-107776972D01*
X170176748Y-107730564D01*
X170170857Y-107680125D01*
X170116500Y-107680125D01*
X170100625Y-107696000D01*
X170084750Y-107680125D01*
X170100625Y-107664250D01*
X170116500Y-107680125D01*
X170170857Y-107680125D01*
X170166422Y-107642164D01*
X170172029Y-107574753D01*
X170173032Y-107571814D01*
X170181227Y-107539015D01*
X170157865Y-107548378D01*
X170130383Y-107569000D01*
X170073351Y-107618468D01*
X170046789Y-107647455D01*
X170012023Y-107662056D01*
X170002604Y-107656186D01*
X170008450Y-107623261D01*
X170052760Y-107573571D01*
X170056440Y-107570438D01*
X170104974Y-107522908D01*
X170105539Y-107503626D01*
X170021250Y-107503626D01*
X169998203Y-107535957D01*
X169989500Y-107537250D01*
X169958576Y-107526417D01*
X169957750Y-107523248D01*
X169979999Y-107496141D01*
X169989500Y-107489625D01*
X170018758Y-107492142D01*
X170021250Y-107503626D01*
X170105539Y-107503626D01*
X170105859Y-107492713D01*
X170084750Y-107474881D01*
X170012407Y-107446920D01*
X169973625Y-107442000D01*
X169931727Y-107436411D01*
X169948459Y-107415515D01*
X169957750Y-107409118D01*
X169984511Y-107380424D01*
X169966322Y-107346750D01*
X169926000Y-107346750D01*
X169899408Y-107372546D01*
X169862500Y-107378500D01*
X169810908Y-107365203D01*
X169799000Y-107346750D01*
X169825593Y-107320953D01*
X169862500Y-107315000D01*
X169914093Y-107328296D01*
X169926000Y-107346750D01*
X169966322Y-107346750D01*
X169965881Y-107345934D01*
X169933938Y-107317203D01*
X169874462Y-107254627D01*
X169871616Y-107216376D01*
X169925015Y-107205113D01*
X169949813Y-107207137D01*
X169994571Y-107209915D01*
X169980123Y-107201540D01*
X169973625Y-107199652D01*
X169906554Y-107171590D01*
X169879963Y-107153168D01*
X169826880Y-107130463D01*
X169756175Y-107125746D01*
X169701533Y-107139893D01*
X169693082Y-107148312D01*
X169700900Y-107186448D01*
X169722958Y-107213064D01*
X169759099Y-107233228D01*
X169767250Y-107221001D01*
X169790656Y-107189163D01*
X169799000Y-107188000D01*
X169827168Y-107213716D01*
X169830750Y-107235625D01*
X169809278Y-107277802D01*
X169790763Y-107283250D01*
X169744383Y-107307561D01*
X169710418Y-107347871D01*
X169675537Y-107391308D01*
X169637456Y-107387543D01*
X169600467Y-107363746D01*
X169532883Y-107324678D01*
X169497254Y-107318470D01*
X169503006Y-107342634D01*
X169540580Y-107379556D01*
X169589878Y-107423007D01*
X169591640Y-107439446D01*
X169548518Y-107442000D01*
X169484825Y-107445393D01*
X169460852Y-107449937D01*
X169439420Y-107433635D01*
X169429799Y-107383469D01*
X169433978Y-107328312D01*
X169450437Y-107298700D01*
X169457597Y-107264291D01*
X169432607Y-107229820D01*
X169382221Y-107197583D01*
X169359847Y-107211693D01*
X169380601Y-107260321D01*
X169385614Y-107266607D01*
X169405288Y-107305579D01*
X169393535Y-107315000D01*
X169322750Y-107315000D01*
X169311134Y-107341133D01*
X169301584Y-107336166D01*
X169297784Y-107298486D01*
X169301584Y-107293833D01*
X169320459Y-107298191D01*
X169322750Y-107315000D01*
X169393535Y-107315000D01*
X169352311Y-107290194D01*
X169338250Y-107235639D01*
X169356445Y-107181129D01*
X169368647Y-107169462D01*
X169412152Y-107125212D01*
X169410189Y-107096690D01*
X169391913Y-107092750D01*
X169365449Y-107118472D01*
G37*
X169365449Y-107118472D02*
X169317153Y-107187151D01*
X169255702Y-107286052D01*
X169229279Y-107331401D01*
X169164706Y-107441116D01*
X169110058Y-107528238D01*
X169074131Y-107578963D01*
X169067183Y-107585843D01*
X169041709Y-107623817D01*
X169010479Y-107698264D01*
X169002966Y-107720254D01*
X168972835Y-107800072D01*
X168946422Y-107849800D01*
X168941580Y-107854750D01*
X168912968Y-107891486D01*
X168872940Y-107960423D01*
X168867591Y-107970716D01*
X168836245Y-108038867D01*
X168836595Y-108072199D01*
X168866455Y-108090047D01*
X168901244Y-108127438D01*
X168899901Y-108152773D01*
X168904819Y-108210827D01*
X168920154Y-108233203D01*
X168938941Y-108272206D01*
X168913803Y-108296900D01*
X168883150Y-108342752D01*
X168884644Y-108366056D01*
X168905619Y-108361553D01*
X168948481Y-108311450D01*
X169004844Y-108225967D01*
X169018448Y-108203041D01*
X169086387Y-108091755D01*
X169151313Y-107994323D01*
X169199604Y-107931144D01*
X169201072Y-107929537D01*
X169240073Y-107870243D01*
X169229888Y-107840350D01*
X169197498Y-107797209D01*
X169195750Y-107785488D01*
X169213141Y-107771417D01*
X169241398Y-107789609D01*
X169278060Y-107805234D01*
X169311908Y-107774975D01*
X169336977Y-107730937D01*
X169337656Y-107729957D01*
X169303434Y-107729957D01*
X169301039Y-107747384D01*
X169272566Y-107776271D01*
X169251166Y-107764115D01*
X169196881Y-107745389D01*
X169176007Y-107749502D01*
X169139087Y-107745781D01*
X169135750Y-107712467D01*
X169164285Y-107679949D01*
X169221358Y-107669337D01*
X169276335Y-107690245D01*
X169303434Y-107729957D01*
X169337656Y-107729957D01*
X169391040Y-107652975D01*
X169451711Y-107599706D01*
X169452542Y-107599256D01*
X169499468Y-107551876D01*
X169499472Y-107536645D01*
X169481500Y-107536645D01*
X169453557Y-107568241D01*
X169384667Y-107590402D01*
X169297241Y-107597940D01*
X169240496Y-107592428D01*
X169172076Y-107599069D01*
X169131307Y-107653707D01*
X169116025Y-107760830D01*
X169117883Y-107846976D01*
X169116581Y-107934074D01*
X169104022Y-107991058D01*
X169097204Y-107999662D01*
X169073026Y-107990232D01*
X169068750Y-107965875D01*
X169056016Y-107930022D01*
X169042031Y-107931015D01*
X169024815Y-107971193D01*
X169021052Y-108044014D01*
X169016930Y-108111291D01*
X168999040Y-108140465D01*
X168998272Y-108140500D01*
X168984087Y-108160253D01*
X168989375Y-108172250D01*
X168986858Y-108201507D01*
X168975374Y-108204000D01*
X168942939Y-108193824D01*
X168941750Y-108190191D01*
X168951830Y-108153600D01*
X168973405Y-108093127D01*
X168979675Y-108071671D01*
X168938048Y-108071671D01*
X168933386Y-108099436D01*
X168910000Y-108092875D01*
X168882375Y-108047564D01*
X168878737Y-108019563D01*
X168883875Y-107984031D01*
X168905824Y-108007110D01*
X168910000Y-108013500D01*
X168938048Y-108071671D01*
X168979675Y-108071671D01*
X168989921Y-108036617D01*
X168975733Y-108028537D01*
X168968009Y-108032768D01*
X168944261Y-108034180D01*
X168951233Y-108002833D01*
X168951596Y-107957656D01*
X168932817Y-107949034D01*
X168923548Y-107936088D01*
X168949688Y-107915706D01*
X168995932Y-107865869D01*
X169005250Y-107832149D01*
X169018494Y-107779142D01*
X169051716Y-107706073D01*
X169095152Y-107629075D01*
X169139039Y-107564279D01*
X169173613Y-107527820D01*
X169188066Y-107530072D01*
X169225961Y-107559535D01*
X169281659Y-107569000D01*
X169335895Y-107563291D01*
X169336338Y-107539309D01*
X169323485Y-107522260D01*
X169302268Y-107474770D01*
X169333205Y-107427010D01*
X169371166Y-107395337D01*
X169251039Y-107395337D01*
X169244681Y-107408137D01*
X169214406Y-107440962D01*
X169208837Y-107417813D01*
X169216544Y-107393005D01*
X169239919Y-107358428D01*
X169250477Y-107359143D01*
X169251039Y-107395337D01*
X169371166Y-107395337D01*
X169384811Y-107383953D01*
X169403166Y-107393745D01*
X169395450Y-107442000D01*
X169397567Y-107494026D01*
X169430172Y-107505500D01*
X169474753Y-107521257D01*
X169481500Y-107536645D01*
X169499472Y-107536645D01*
X169499478Y-107515404D01*
X169498795Y-107480929D01*
X169527749Y-107484703D01*
X169577808Y-107486465D01*
X169591258Y-107475962D01*
X169638472Y-107446926D01*
X169719976Y-107428363D01*
X169806943Y-107423773D01*
X169870547Y-107436655D01*
X169877438Y-107441222D01*
X169905755Y-107487354D01*
X169926556Y-107558936D01*
X169936134Y-107632529D01*
X169930778Y-107684690D01*
X169917751Y-107696000D01*
X169904596Y-107715744D01*
X169909720Y-107727093D01*
X169911733Y-107776997D01*
X169895743Y-107820211D01*
X169880799Y-107871139D01*
X169917359Y-107899286D01*
X169931960Y-107904266D01*
X169979755Y-107924330D01*
X169970323Y-107947970D01*
X169945911Y-107966850D01*
X169911479Y-108005978D01*
X169927650Y-108030394D01*
X169973642Y-108028436D01*
X169992564Y-108009630D01*
X170015673Y-107984800D01*
X170020764Y-108005873D01*
X169999032Y-108055380D01*
X169959377Y-108098849D01*
X169917762Y-108150610D01*
X169920040Y-108185248D01*
X169963731Y-108187191D01*
X169972952Y-108183990D01*
X170000836Y-108181026D01*
X169994250Y-108215260D01*
X169980785Y-108245336D01*
X169950723Y-108297758D01*
X169924586Y-108297093D01*
X169901456Y-108271897D01*
X169872746Y-108241736D01*
X169870203Y-108262729D01*
X169878248Y-108299250D01*
X169888344Y-108350542D01*
X169877357Y-108345580D01*
X169861509Y-108321400D01*
X169843644Y-108253399D01*
X169855363Y-108226150D01*
X169869280Y-108188125D01*
X169830750Y-108188125D01*
X169814875Y-108204000D01*
X169799000Y-108188125D01*
X169814875Y-108172250D01*
X169830750Y-108188125D01*
X169869280Y-108188125D01*
X169876403Y-108168664D01*
X169883347Y-108096451D01*
X169851587Y-108096451D01*
X169846625Y-108108750D01*
X169818095Y-108139038D01*
X169813002Y-108140500D01*
X169799365Y-108115935D01*
X169799000Y-108108750D01*
X169823408Y-108078220D01*
X169832624Y-108077000D01*
X169851587Y-108096451D01*
X169883347Y-108096451D01*
X169883848Y-108091246D01*
X169890321Y-108009445D01*
X169906227Y-107956308D01*
X169910814Y-107922637D01*
X169899442Y-107918250D01*
X169867787Y-107944576D01*
X169826407Y-108008817D01*
X169786303Y-108088864D01*
X169758477Y-108162609D01*
X169753930Y-108207944D01*
X169754628Y-108209263D01*
X169749888Y-108234657D01*
X169742471Y-108235750D01*
X169711076Y-108261759D01*
X169676581Y-108323062D01*
X169653179Y-108380632D01*
X169658356Y-108385091D01*
X169690643Y-108346875D01*
X169727359Y-108303849D01*
X169732627Y-108312544D01*
X169720770Y-108354812D01*
X169715765Y-108411390D01*
X169746264Y-108426250D01*
X169778913Y-108405556D01*
X169775465Y-108354812D01*
X169769056Y-108307001D01*
X169777720Y-108301177D01*
X169798763Y-108344329D01*
X169807139Y-108380552D01*
X169828823Y-108455373D01*
X169843363Y-108484859D01*
X169845098Y-108541969D01*
X169818632Y-108578975D01*
X169779645Y-108611411D01*
X169767289Y-108595942D01*
X169766764Y-108583866D01*
X169761515Y-108554062D01*
X169739026Y-108579589D01*
X169735500Y-108585000D01*
X169714433Y-108612756D01*
X169702677Y-108604158D01*
X169695157Y-108548675D01*
X169690842Y-108492350D01*
X169661914Y-108442650D01*
X169643572Y-108432648D01*
X169614736Y-108436559D01*
X169616751Y-108485551D01*
X169620535Y-108501625D01*
X169616819Y-108609352D01*
X169593154Y-108659112D01*
X169564117Y-108718905D01*
X169564228Y-108752393D01*
X169560368Y-108787979D01*
X169526334Y-108851657D01*
X169514568Y-108868900D01*
X169466810Y-108964340D01*
X169465619Y-109029478D01*
X169496302Y-109081850D01*
X169528942Y-109088603D01*
X169544968Y-109046456D01*
X169545000Y-109043501D01*
X169528528Y-109011368D01*
X169510628Y-109015245D01*
X169497610Y-109010237D01*
X169511490Y-108970060D01*
X169543038Y-108911768D01*
X169583023Y-108852412D01*
X169622214Y-108809044D01*
X169622282Y-108808987D01*
X169663055Y-108783996D01*
X169669195Y-108799525D01*
X169643230Y-108844599D01*
X169603084Y-108892390D01*
X169561639Y-108948819D01*
X169554708Y-108986079D01*
X169555787Y-108987369D01*
X169588491Y-108984199D01*
X169630743Y-108938128D01*
X169670355Y-108865918D01*
X169692127Y-108799827D01*
X169713556Y-108742517D01*
X169736654Y-108728588D01*
X169768327Y-108716151D01*
X169797355Y-108680250D01*
X169767250Y-108680250D01*
X169755634Y-108706383D01*
X169746084Y-108701416D01*
X169742732Y-108668174D01*
X169685114Y-108668174D01*
X169659651Y-108711558D01*
X169614403Y-108739569D01*
X169596675Y-108741243D01*
X169583211Y-108731869D01*
X169600563Y-108722722D01*
X169636607Y-108680878D01*
X169640250Y-108659855D01*
X169657047Y-108629579D01*
X169673542Y-108633577D01*
X169685114Y-108668174D01*
X169742732Y-108668174D01*
X169742284Y-108663736D01*
X169746084Y-108659083D01*
X169764959Y-108663441D01*
X169767250Y-108680250D01*
X169797355Y-108680250D01*
X169810292Y-108664250D01*
X169851015Y-108593048D01*
X169878959Y-108522713D01*
X169882606Y-108473449D01*
X169884496Y-108437395D01*
X169900248Y-108434568D01*
X169929806Y-108411608D01*
X169972594Y-108344193D01*
X170017224Y-108251625D01*
X170061495Y-108151513D01*
X170074348Y-108124625D01*
X170053000Y-108124625D01*
X170037125Y-108140500D01*
X170021250Y-108124625D01*
X170037125Y-108108750D01*
X170053000Y-108124625D01*
X170074348Y-108124625D01*
X170097186Y-108076850D01*
X170115557Y-108045250D01*
X170142109Y-107997625D01*
X170084750Y-107997625D01*
X170068875Y-108013500D01*
X170053000Y-107997625D01*
X170068875Y-107981750D01*
X170084750Y-107997625D01*
X170142109Y-107997625D01*
X170151670Y-107980476D01*
X170175744Y-107881419D01*
X170180420Y-107805301D01*
X170107355Y-107805301D01*
X170101640Y-107851553D01*
X170077016Y-107909288D01*
X170060502Y-107904726D01*
X170053242Y-107838690D01*
X170053000Y-107816650D01*
X170057243Y-107769249D01*
X170017621Y-107769249D01*
X170000084Y-107801833D01*
X169978017Y-107820014D01*
X169969788Y-107798892D01*
X169966480Y-107759500D01*
X169974967Y-107708075D01*
X169991474Y-107696000D01*
X170017181Y-107720002D01*
X170017621Y-107769249D01*
X170057243Y-107769249D01*
X170058874Y-107751031D01*
X170078542Y-107742130D01*
X170087904Y-107749953D01*
X170107355Y-107805301D01*
X170180420Y-107805301D01*
X170182161Y-107776972D01*
X170176748Y-107730564D01*
X170170857Y-107680125D01*
X170116500Y-107680125D01*
X170100625Y-107696000D01*
X170084750Y-107680125D01*
X170100625Y-107664250D01*
X170116500Y-107680125D01*
X170170857Y-107680125D01*
X170166422Y-107642164D01*
X170172029Y-107574753D01*
X170173032Y-107571814D01*
X170181227Y-107539015D01*
X170157865Y-107548378D01*
X170130383Y-107569000D01*
X170073351Y-107618468D01*
X170046789Y-107647455D01*
X170012023Y-107662056D01*
X170002604Y-107656186D01*
X170008450Y-107623261D01*
X170052760Y-107573571D01*
X170056440Y-107570438D01*
X170104974Y-107522908D01*
X170105539Y-107503626D01*
X170021250Y-107503626D01*
X169998203Y-107535957D01*
X169989500Y-107537250D01*
X169958576Y-107526417D01*
X169957750Y-107523248D01*
X169979999Y-107496141D01*
X169989500Y-107489625D01*
X170018758Y-107492142D01*
X170021250Y-107503626D01*
X170105539Y-107503626D01*
X170105859Y-107492713D01*
X170084750Y-107474881D01*
X170012407Y-107446920D01*
X169973625Y-107442000D01*
X169931727Y-107436411D01*
X169948459Y-107415515D01*
X169957750Y-107409118D01*
X169984511Y-107380424D01*
X169966322Y-107346750D01*
X169926000Y-107346750D01*
X169899408Y-107372546D01*
X169862500Y-107378500D01*
X169810908Y-107365203D01*
X169799000Y-107346750D01*
X169825593Y-107320953D01*
X169862500Y-107315000D01*
X169914093Y-107328296D01*
X169926000Y-107346750D01*
X169966322Y-107346750D01*
X169965881Y-107345934D01*
X169933938Y-107317203D01*
X169874462Y-107254627D01*
X169871616Y-107216376D01*
X169925015Y-107205113D01*
X169949813Y-107207137D01*
X169994571Y-107209915D01*
X169980123Y-107201540D01*
X169973625Y-107199652D01*
X169906554Y-107171590D01*
X169879963Y-107153168D01*
X169826880Y-107130463D01*
X169756175Y-107125746D01*
X169701533Y-107139893D01*
X169693082Y-107148312D01*
X169700900Y-107186448D01*
X169722958Y-107213064D01*
X169759099Y-107233228D01*
X169767250Y-107221001D01*
X169790656Y-107189163D01*
X169799000Y-107188000D01*
X169827168Y-107213716D01*
X169830750Y-107235625D01*
X169809278Y-107277802D01*
X169790763Y-107283250D01*
X169744383Y-107307561D01*
X169710418Y-107347871D01*
X169675537Y-107391308D01*
X169637456Y-107387543D01*
X169600467Y-107363746D01*
X169532883Y-107324678D01*
X169497254Y-107318470D01*
X169503006Y-107342634D01*
X169540580Y-107379556D01*
X169589878Y-107423007D01*
X169591640Y-107439446D01*
X169548518Y-107442000D01*
X169484825Y-107445393D01*
X169460852Y-107449937D01*
X169439420Y-107433635D01*
X169429799Y-107383469D01*
X169433978Y-107328312D01*
X169450437Y-107298700D01*
X169457597Y-107264291D01*
X169432607Y-107229820D01*
X169382221Y-107197583D01*
X169359847Y-107211693D01*
X169380601Y-107260321D01*
X169385614Y-107266607D01*
X169405288Y-107305579D01*
X169393535Y-107315000D01*
X169322750Y-107315000D01*
X169311134Y-107341133D01*
X169301584Y-107336166D01*
X169297784Y-107298486D01*
X169301584Y-107293833D01*
X169320459Y-107298191D01*
X169322750Y-107315000D01*
X169393535Y-107315000D01*
X169352311Y-107290194D01*
X169338250Y-107235639D01*
X169356445Y-107181129D01*
X169368647Y-107169462D01*
X169412152Y-107125212D01*
X169410189Y-107096690D01*
X169391913Y-107092750D01*
X169365449Y-107118472D01*
G36*
X168791990Y-108136913D02*
G01*
X168764241Y-108208942D01*
X168736995Y-108306145D01*
X168715956Y-108409830D01*
X168710426Y-108450062D01*
X168709499Y-108519968D01*
X168722814Y-108552879D01*
X168724999Y-108553250D01*
X168749799Y-108528326D01*
X168751250Y-108516208D01*
X168762627Y-108493369D01*
X168769662Y-108497578D01*
X168767239Y-108533875D01*
X168735790Y-108595780D01*
X168734927Y-108597102D01*
X168700860Y-108666481D01*
X168694549Y-108716519D01*
X168714536Y-108713641D01*
X168752067Y-108664986D01*
X168781197Y-108614349D01*
X168818423Y-108525593D01*
X168841705Y-108442125D01*
X168814750Y-108442125D01*
X168798875Y-108458000D01*
X168783000Y-108442125D01*
X168798875Y-108426250D01*
X168814750Y-108442125D01*
X168841705Y-108442125D01*
X168845924Y-108427001D01*
X168861643Y-108333916D01*
X168862180Y-108313251D01*
X168814750Y-108313251D01*
X168798174Y-108356692D01*
X168783000Y-108362750D01*
X168752159Y-108339962D01*
X168751250Y-108332873D01*
X168774330Y-108289873D01*
X168783000Y-108283375D01*
X168810182Y-108290572D01*
X168814750Y-108313251D01*
X168862180Y-108313251D01*
X168863523Y-108261681D01*
X168849507Y-108225638D01*
X168833054Y-108227500D01*
X168821267Y-108224989D01*
X168838288Y-108199235D01*
X168855197Y-108156375D01*
X168846500Y-108156375D01*
X168830625Y-108172250D01*
X168814750Y-108156375D01*
X168830625Y-108140500D01*
X168846500Y-108156375D01*
X168855197Y-108156375D01*
X168859782Y-108144756D01*
X168833650Y-108111534D01*
X168814541Y-108108750D01*
X168791990Y-108136913D01*
G37*
X168791990Y-108136913D02*
X168764241Y-108208942D01*
X168736995Y-108306145D01*
X168715956Y-108409830D01*
X168710426Y-108450062D01*
X168709499Y-108519968D01*
X168722814Y-108552879D01*
X168724999Y-108553250D01*
X168749799Y-108528326D01*
X168751250Y-108516208D01*
X168762627Y-108493369D01*
X168769662Y-108497578D01*
X168767239Y-108533875D01*
X168735790Y-108595780D01*
X168734927Y-108597102D01*
X168700860Y-108666481D01*
X168694549Y-108716519D01*
X168714536Y-108713641D01*
X168752067Y-108664986D01*
X168781197Y-108614349D01*
X168818423Y-108525593D01*
X168841705Y-108442125D01*
X168814750Y-108442125D01*
X168798875Y-108458000D01*
X168783000Y-108442125D01*
X168798875Y-108426250D01*
X168814750Y-108442125D01*
X168841705Y-108442125D01*
X168845924Y-108427001D01*
X168861643Y-108333916D01*
X168862180Y-108313251D01*
X168814750Y-108313251D01*
X168798174Y-108356692D01*
X168783000Y-108362750D01*
X168752159Y-108339962D01*
X168751250Y-108332873D01*
X168774330Y-108289873D01*
X168783000Y-108283375D01*
X168810182Y-108290572D01*
X168814750Y-108313251D01*
X168862180Y-108313251D01*
X168863523Y-108261681D01*
X168849507Y-108225638D01*
X168833054Y-108227500D01*
X168821267Y-108224989D01*
X168838288Y-108199235D01*
X168855197Y-108156375D01*
X168846500Y-108156375D01*
X168830625Y-108172250D01*
X168814750Y-108156375D01*
X168830625Y-108140500D01*
X168846500Y-108156375D01*
X168855197Y-108156375D01*
X168859782Y-108144756D01*
X168833650Y-108111534D01*
X168814541Y-108108750D01*
X168791990Y-108136913D01*
G36*
X169735855Y-108480910D02*
G01*
X169707374Y-108511744D01*
X169716446Y-108544779D01*
X169733488Y-108537807D01*
X169735987Y-108518854D01*
X169741841Y-108490486D01*
X169763768Y-108516952D01*
X169796389Y-108539996D01*
X169810724Y-108528216D01*
X169804352Y-108491612D01*
X169783960Y-108478588D01*
X169735855Y-108480910D01*
G37*
X169735855Y-108480910D02*
X169707374Y-108511744D01*
X169716446Y-108544779D01*
X169733488Y-108537807D01*
X169735987Y-108518854D01*
X169741841Y-108490486D01*
X169763768Y-108516952D01*
X169796389Y-108539996D01*
X169810724Y-108528216D01*
X169804352Y-108491612D01*
X169783960Y-108478588D01*
X169735855Y-108480910D01*
G36*
X169671293Y-107702456D02*
G01*
X169646960Y-107718366D01*
X169570995Y-107796076D01*
X169488251Y-107911872D01*
X169411921Y-108043566D01*
X169355199Y-108168967D01*
X169333444Y-108245657D01*
X169325157Y-108322666D01*
X169339276Y-108355765D01*
X169382166Y-108362750D01*
X169442231Y-108340653D01*
X169519782Y-108284354D01*
X169561912Y-108243984D01*
X169640057Y-108147240D01*
X169716157Y-108030043D01*
X169779904Y-107911080D01*
X169820989Y-107809037D01*
X169830750Y-107756662D01*
X169806955Y-107699588D01*
X169747724Y-107680253D01*
X169671293Y-107702456D01*
G37*
X169671293Y-107702456D02*
X169646960Y-107718366D01*
X169570995Y-107796076D01*
X169488251Y-107911872D01*
X169411921Y-108043566D01*
X169355199Y-108168967D01*
X169333444Y-108245657D01*
X169325157Y-108322666D01*
X169339276Y-108355765D01*
X169382166Y-108362750D01*
X169442231Y-108340653D01*
X169519782Y-108284354D01*
X169561912Y-108243984D01*
X169640057Y-108147240D01*
X169716157Y-108030043D01*
X169779904Y-107911080D01*
X169820989Y-107809037D01*
X169830750Y-107756662D01*
X169806955Y-107699588D01*
X169747724Y-107680253D01*
X169671293Y-107702456D01*
G36*
X169894250Y-108219875D02*
G01*
X169910125Y-108235750D01*
X169926000Y-108219875D01*
X169910125Y-108204000D01*
X169894250Y-108219875D01*
G37*
X169894250Y-108219875D02*
X169910125Y-108235750D01*
X169926000Y-108219875D01*
X169910125Y-108204000D01*
X169894250Y-108219875D01*
G36*
X170222334Y-107706583D02*
G01*
X170218534Y-107744263D01*
X170222334Y-107748916D01*
X170241209Y-107744558D01*
X170243500Y-107727750D01*
X170231884Y-107701616D01*
X170222334Y-107706583D01*
G37*
X170222334Y-107706583D02*
X170218534Y-107744263D01*
X170222334Y-107748916D01*
X170241209Y-107744558D01*
X170243500Y-107727750D01*
X170231884Y-107701616D01*
X170222334Y-107706583D01*
G36*
X169992498Y-106516629D02*
G01*
X169930799Y-106544059D01*
X169856504Y-106590844D01*
X169764853Y-106664983D01*
X169668746Y-106753729D01*
X169581082Y-106844337D01*
X169514760Y-106924058D01*
X169482681Y-106980146D01*
X169481500Y-106988031D01*
X169464092Y-107026022D01*
X169453109Y-107029250D01*
X169433367Y-107056286D01*
X169429297Y-107108602D01*
X169443864Y-107174468D01*
X169473183Y-107182829D01*
X169499569Y-107152700D01*
X169497428Y-107107806D01*
X169482178Y-107093168D01*
X169462297Y-107062458D01*
X169475399Y-107048895D01*
X169512478Y-107053727D01*
X169521250Y-107068739D01*
X169541979Y-107092522D01*
X169583754Y-107068127D01*
X169626215Y-107045182D01*
X169651237Y-107075708D01*
X169653080Y-107080386D01*
X169672963Y-107115508D01*
X169703077Y-107105028D01*
X169730725Y-107081196D01*
X169808175Y-107035917D01*
X169875310Y-107039134D01*
X169915962Y-107089789D01*
X169916976Y-107093419D01*
X169939913Y-107136381D01*
X169973796Y-107124358D01*
X170013536Y-107111728D01*
X170032421Y-107139564D01*
X170073124Y-107182281D01*
X170096871Y-107188000D01*
X170124744Y-107177087D01*
X170123350Y-107133815D01*
X170108929Y-107084812D01*
X170082761Y-107002439D01*
X170065550Y-106943847D01*
X170065058Y-106941937D01*
X170029372Y-106906329D01*
X170007368Y-106902250D01*
X169974139Y-106923608D01*
X169976786Y-106946663D01*
X169976797Y-106995800D01*
X169966337Y-107008068D01*
X169915671Y-107010474D01*
X169874769Y-106964235D01*
X169856627Y-106884123D01*
X169856607Y-106883336D01*
X169856890Y-106782523D01*
X169866044Y-106730455D01*
X169887542Y-106712606D01*
X169897647Y-106711750D01*
X169918877Y-106734845D01*
X169914519Y-106759375D01*
X169919449Y-106798013D01*
X169962189Y-106807000D01*
X170008988Y-106795635D01*
X170013287Y-106749736D01*
X170009122Y-106731248D01*
X170007944Y-106694562D01*
X169820167Y-106694562D01*
X169797859Y-106723157D01*
X169769896Y-106719214D01*
X169737668Y-106711336D01*
X169747845Y-106733633D01*
X169770971Y-106761928D01*
X169817572Y-106839412D01*
X169813850Y-106893759D01*
X169761884Y-106915820D01*
X169736263Y-106914669D01*
X169646817Y-106930819D01*
X169607546Y-106967074D01*
X169561363Y-107016916D01*
X169531228Y-107026120D01*
X169529854Y-106992187D01*
X169533519Y-106981625D01*
X169565716Y-106939586D01*
X169582021Y-106934000D01*
X169596520Y-106913768D01*
X169589594Y-106897344D01*
X169585831Y-106875321D01*
X169599985Y-106881112D01*
X169632356Y-106872016D01*
X169650379Y-106835198D01*
X169678386Y-106789335D01*
X169707009Y-106793138D01*
X169732954Y-106797289D01*
X169726203Y-106765067D01*
X169732811Y-106707556D01*
X169763141Y-106682199D01*
X169809163Y-106668728D01*
X169820167Y-106694562D01*
X170007944Y-106694562D01*
X170007123Y-106669029D01*
X170050147Y-106639825D01*
X170053349Y-106638959D01*
X170096130Y-106636954D01*
X170098796Y-106651210D01*
X170105005Y-106677898D01*
X170117273Y-106680000D01*
X170142667Y-106702644D01*
X170140590Y-106718855D01*
X170144597Y-106773533D01*
X170169301Y-106837917D01*
X170191147Y-106897835D01*
X170184780Y-106926983D01*
X170173870Y-106960493D01*
X170175539Y-107035775D01*
X170181684Y-107085733D01*
X170192789Y-107178183D01*
X170194761Y-107242638D01*
X170191868Y-107257243D01*
X170201499Y-107290556D01*
X170213741Y-107300355D01*
X170233277Y-107348027D01*
X170230613Y-107449369D01*
X170227155Y-107477174D01*
X170218645Y-107581013D01*
X170227056Y-107627601D01*
X170248271Y-107619603D01*
X170278176Y-107559682D01*
X170312656Y-107450504D01*
X170321435Y-107416127D01*
X170346385Y-107286179D01*
X170360287Y-107154549D01*
X170363101Y-107035660D01*
X170354788Y-106943932D01*
X170335308Y-106893788D01*
X170322875Y-106888632D01*
X170293282Y-106917344D01*
X170283458Y-106952132D01*
X170279887Y-106993680D01*
X170291107Y-106977739D01*
X170303495Y-106949875D01*
X170321092Y-106921546D01*
X170329944Y-106945444D01*
X170332666Y-107013375D01*
X170329672Y-107146509D01*
X170318636Y-107248749D01*
X170301516Y-107310240D01*
X170280268Y-107321129D01*
X170273221Y-107312803D01*
X170251231Y-107246297D01*
X170246218Y-107188000D01*
X170249680Y-107135086D01*
X170261331Y-107141601D01*
X170275250Y-107172125D01*
X170296629Y-107208258D01*
X170305153Y-107195436D01*
X170301195Y-107146811D01*
X170285124Y-107075535D01*
X170271282Y-107031512D01*
X170251531Y-106931973D01*
X170272471Y-106848047D01*
X170294131Y-106784043D01*
X170292996Y-106750662D01*
X170271010Y-106763371D01*
X170246195Y-106810327D01*
X170223387Y-106854257D01*
X170213987Y-106837139D01*
X170213763Y-106832686D01*
X170230049Y-106774382D01*
X170246266Y-106757665D01*
X170267958Y-106713365D01*
X170265114Y-106676416D01*
X170267646Y-106627661D01*
X170286160Y-106616290D01*
X170287500Y-106601508D01*
X170279883Y-106594952D01*
X170212851Y-106594952D01*
X170185485Y-106606857D01*
X170140248Y-106590795D01*
X170133153Y-106585395D01*
X170085802Y-106562612D01*
X170030511Y-106583582D01*
X170013323Y-106595080D01*
X169943971Y-106634781D01*
X169896526Y-106647368D01*
X169883250Y-106632560D01*
X169908758Y-106597456D01*
X169969854Y-106564734D01*
X170057489Y-106545647D01*
X170143430Y-106543571D01*
X170199441Y-106561881D01*
X170200194Y-106562610D01*
X170212851Y-106594952D01*
X170279883Y-106594952D01*
X170245138Y-106565049D01*
X170227625Y-106553000D01*
X170144749Y-106505828D01*
X170075145Y-106493969D01*
X169992498Y-106516629D01*
G37*
X169992498Y-106516629D02*
X169930799Y-106544059D01*
X169856504Y-106590844D01*
X169764853Y-106664983D01*
X169668746Y-106753729D01*
X169581082Y-106844337D01*
X169514760Y-106924058D01*
X169482681Y-106980146D01*
X169481500Y-106988031D01*
X169464092Y-107026022D01*
X169453109Y-107029250D01*
X169433367Y-107056286D01*
X169429297Y-107108602D01*
X169443864Y-107174468D01*
X169473183Y-107182829D01*
X169499569Y-107152700D01*
X169497428Y-107107806D01*
X169482178Y-107093168D01*
X169462297Y-107062458D01*
X169475399Y-107048895D01*
X169512478Y-107053727D01*
X169521250Y-107068739D01*
X169541979Y-107092522D01*
X169583754Y-107068127D01*
X169626215Y-107045182D01*
X169651237Y-107075708D01*
X169653080Y-107080386D01*
X169672963Y-107115508D01*
X169703077Y-107105028D01*
X169730725Y-107081196D01*
X169808175Y-107035917D01*
X169875310Y-107039134D01*
X169915962Y-107089789D01*
X169916976Y-107093419D01*
X169939913Y-107136381D01*
X169973796Y-107124358D01*
X170013536Y-107111728D01*
X170032421Y-107139564D01*
X170073124Y-107182281D01*
X170096871Y-107188000D01*
X170124744Y-107177087D01*
X170123350Y-107133815D01*
X170108929Y-107084812D01*
X170082761Y-107002439D01*
X170065550Y-106943847D01*
X170065058Y-106941937D01*
X170029372Y-106906329D01*
X170007368Y-106902250D01*
X169974139Y-106923608D01*
X169976786Y-106946663D01*
X169976797Y-106995800D01*
X169966337Y-107008068D01*
X169915671Y-107010474D01*
X169874769Y-106964235D01*
X169856627Y-106884123D01*
X169856607Y-106883336D01*
X169856890Y-106782523D01*
X169866044Y-106730455D01*
X169887542Y-106712606D01*
X169897647Y-106711750D01*
X169918877Y-106734845D01*
X169914519Y-106759375D01*
X169919449Y-106798013D01*
X169962189Y-106807000D01*
X170008988Y-106795635D01*
X170013287Y-106749736D01*
X170009122Y-106731248D01*
X170007944Y-106694562D01*
X169820167Y-106694562D01*
X169797859Y-106723157D01*
X169769896Y-106719214D01*
X169737668Y-106711336D01*
X169747845Y-106733633D01*
X169770971Y-106761928D01*
X169817572Y-106839412D01*
X169813850Y-106893759D01*
X169761884Y-106915820D01*
X169736263Y-106914669D01*
X169646817Y-106930819D01*
X169607546Y-106967074D01*
X169561363Y-107016916D01*
X169531228Y-107026120D01*
X169529854Y-106992187D01*
X169533519Y-106981625D01*
X169565716Y-106939586D01*
X169582021Y-106934000D01*
X169596520Y-106913768D01*
X169589594Y-106897344D01*
X169585831Y-106875321D01*
X169599985Y-106881112D01*
X169632356Y-106872016D01*
X169650379Y-106835198D01*
X169678386Y-106789335D01*
X169707009Y-106793138D01*
X169732954Y-106797289D01*
X169726203Y-106765067D01*
X169732811Y-106707556D01*
X169763141Y-106682199D01*
X169809163Y-106668728D01*
X169820167Y-106694562D01*
X170007944Y-106694562D01*
X170007123Y-106669029D01*
X170050147Y-106639825D01*
X170053349Y-106638959D01*
X170096130Y-106636954D01*
X170098796Y-106651210D01*
X170105005Y-106677898D01*
X170117273Y-106680000D01*
X170142667Y-106702644D01*
X170140590Y-106718855D01*
X170144597Y-106773533D01*
X170169301Y-106837917D01*
X170191147Y-106897835D01*
X170184780Y-106926983D01*
X170173870Y-106960493D01*
X170175539Y-107035775D01*
X170181684Y-107085733D01*
X170192789Y-107178183D01*
X170194761Y-107242638D01*
X170191868Y-107257243D01*
X170201499Y-107290556D01*
X170213741Y-107300355D01*
X170233277Y-107348027D01*
X170230613Y-107449369D01*
X170227155Y-107477174D01*
X170218645Y-107581013D01*
X170227056Y-107627601D01*
X170248271Y-107619603D01*
X170278176Y-107559682D01*
X170312656Y-107450504D01*
X170321435Y-107416127D01*
X170346385Y-107286179D01*
X170360287Y-107154549D01*
X170363101Y-107035660D01*
X170354788Y-106943932D01*
X170335308Y-106893788D01*
X170322875Y-106888632D01*
X170293282Y-106917344D01*
X170283458Y-106952132D01*
X170279887Y-106993680D01*
X170291107Y-106977739D01*
X170303495Y-106949875D01*
X170321092Y-106921546D01*
X170329944Y-106945444D01*
X170332666Y-107013375D01*
X170329672Y-107146509D01*
X170318636Y-107248749D01*
X170301516Y-107310240D01*
X170280268Y-107321129D01*
X170273221Y-107312803D01*
X170251231Y-107246297D01*
X170246218Y-107188000D01*
X170249680Y-107135086D01*
X170261331Y-107141601D01*
X170275250Y-107172125D01*
X170296629Y-107208258D01*
X170305153Y-107195436D01*
X170301195Y-107146811D01*
X170285124Y-107075535D01*
X170271282Y-107031512D01*
X170251531Y-106931973D01*
X170272471Y-106848047D01*
X170294131Y-106784043D01*
X170292996Y-106750662D01*
X170271010Y-106763371D01*
X170246195Y-106810327D01*
X170223387Y-106854257D01*
X170213987Y-106837139D01*
X170213763Y-106832686D01*
X170230049Y-106774382D01*
X170246266Y-106757665D01*
X170267958Y-106713365D01*
X170265114Y-106676416D01*
X170267646Y-106627661D01*
X170286160Y-106616290D01*
X170287500Y-106601508D01*
X170279883Y-106594952D01*
X170212851Y-106594952D01*
X170185485Y-106606857D01*
X170140248Y-106590795D01*
X170133153Y-106585395D01*
X170085802Y-106562612D01*
X170030511Y-106583582D01*
X170013323Y-106595080D01*
X169943971Y-106634781D01*
X169896526Y-106647368D01*
X169883250Y-106632560D01*
X169908758Y-106597456D01*
X169969854Y-106564734D01*
X170057489Y-106545647D01*
X170143430Y-106543571D01*
X170199441Y-106561881D01*
X170200194Y-106562610D01*
X170212851Y-106594952D01*
X170279883Y-106594952D01*
X170245138Y-106565049D01*
X170227625Y-106553000D01*
X170144749Y-106505828D01*
X170075145Y-106493969D01*
X169992498Y-106516629D01*
G36*
X170029543Y-107359624D02*
G01*
X170025513Y-107393884D01*
X170059151Y-107420766D01*
X170101642Y-107421341D01*
X170141793Y-107423287D01*
X170148250Y-107438603D01*
X170170466Y-107472121D01*
X170180000Y-107473750D01*
X170210705Y-107449482D01*
X170211750Y-107441214D01*
X170185954Y-107409729D01*
X170127688Y-107377278D01*
X170065637Y-107356707D01*
X170029543Y-107359624D01*
G37*
X170029543Y-107359624D02*
X170025513Y-107393884D01*
X170059151Y-107420766D01*
X170101642Y-107421341D01*
X170141793Y-107423287D01*
X170148250Y-107438603D01*
X170170466Y-107472121D01*
X170180000Y-107473750D01*
X170210705Y-107449482D01*
X170211750Y-107441214D01*
X170185954Y-107409729D01*
X170127688Y-107377278D01*
X170065637Y-107356707D01*
X170029543Y-107359624D01*
G36*
X169676913Y-107244637D02*
G01*
X169629734Y-107269650D01*
X169598025Y-107265053D01*
X169553956Y-107262153D01*
X169545000Y-107276150D01*
X169571063Y-107307365D01*
X169626514Y-107328261D01*
X169677244Y-107327717D01*
X169686037Y-107322130D01*
X169701630Y-107278294D01*
X169703264Y-107254145D01*
X169696284Y-107223315D01*
X169676913Y-107244637D01*
G37*
X169676913Y-107244637D02*
X169629734Y-107269650D01*
X169598025Y-107265053D01*
X169553956Y-107262153D01*
X169545000Y-107276150D01*
X169571063Y-107307365D01*
X169626514Y-107328261D01*
X169677244Y-107327717D01*
X169686037Y-107322130D01*
X169701630Y-107278294D01*
X169703264Y-107254145D01*
X169696284Y-107223315D01*
X169676913Y-107244637D01*
G36*
X170061463Y-107266533D02*
G01*
X170053000Y-107283250D01*
X170057877Y-107310973D01*
X170085362Y-107302728D01*
X170116500Y-107283250D01*
X170145689Y-107258644D01*
X170115681Y-107252088D01*
X170108563Y-107251986D01*
X170061463Y-107266533D01*
G37*
X170061463Y-107266533D02*
X170053000Y-107283250D01*
X170057877Y-107310973D01*
X170085362Y-107302728D01*
X170116500Y-107283250D01*
X170145689Y-107258644D01*
X170115681Y-107252088D01*
X170108563Y-107251986D01*
X170061463Y-107266533D01*
G36*
X169577189Y-107118017D02*
G01*
X169565269Y-107140375D01*
X169552917Y-107180405D01*
X169553934Y-107185493D01*
X169584968Y-107173243D01*
X169600563Y-107166972D01*
X169635285Y-107135561D01*
X169634628Y-107101938D01*
X169611897Y-107092750D01*
X169577189Y-107118017D01*
G37*
X169577189Y-107118017D02*
X169565269Y-107140375D01*
X169552917Y-107180405D01*
X169553934Y-107185493D01*
X169584968Y-107173243D01*
X169600563Y-107166972D01*
X169635285Y-107135561D01*
X169634628Y-107101938D01*
X169611897Y-107092750D01*
X169577189Y-107118017D01*
G36*
X169894250Y-106886375D02*
G01*
X169910125Y-106902250D01*
X169926000Y-106886375D01*
X169910125Y-106870500D01*
X169894250Y-106886375D01*
G37*
X169894250Y-106886375D02*
X169910125Y-106902250D01*
X169926000Y-106886375D01*
X169910125Y-106870500D01*
X169894250Y-106886375D01*
G36*
X170309474Y-106671959D02*
G01*
X170309718Y-106680000D01*
X170323384Y-106748065D01*
X170338750Y-106791125D01*
X170366037Y-106854625D01*
X170367783Y-106791125D01*
X170354185Y-106713180D01*
X170338750Y-106680000D01*
X170314266Y-106648396D01*
X170309474Y-106671959D01*
G37*
X170309474Y-106671959D02*
X170309718Y-106680000D01*
X170323384Y-106748065D01*
X170338750Y-106791125D01*
X170366037Y-106854625D01*
X170367783Y-106791125D01*
X170354185Y-106713180D01*
X170338750Y-106680000D01*
X170314266Y-106648396D01*
X170309474Y-106671959D01*
G36*
X169200656Y-109232843D02*
G01*
X169166571Y-109264812D01*
X169173563Y-109283190D01*
X169178002Y-109283500D01*
X169204856Y-109260948D01*
X169214657Y-109246844D01*
X169218400Y-109225117D01*
X169200656Y-109232843D01*
G37*
X169200656Y-109232843D02*
X169166571Y-109264812D01*
X169173563Y-109283190D01*
X169178002Y-109283500D01*
X169204856Y-109260948D01*
X169214657Y-109246844D01*
X169218400Y-109225117D01*
X169200656Y-109232843D01*
G36*
X169037923Y-107815410D02*
G01*
X169037000Y-107823000D01*
X169061161Y-107853827D01*
X169068750Y-107854750D01*
X169099578Y-107830589D01*
X169100500Y-107823000D01*
X169076340Y-107792172D01*
X169068750Y-107791250D01*
X169037923Y-107815410D01*
G37*
X169037923Y-107815410D02*
X169037000Y-107823000D01*
X169061161Y-107853827D01*
X169068750Y-107854750D01*
X169099578Y-107830589D01*
X169100500Y-107823000D01*
X169076340Y-107792172D01*
X169068750Y-107791250D01*
X169037923Y-107815410D01*
G36*
X169741389Y-106815286D02*
G01*
X169696316Y-106835532D01*
X169694761Y-106861118D01*
X169714389Y-106897625D01*
X169740426Y-106885471D01*
X169765763Y-106856417D01*
X169784859Y-106821521D01*
X169749973Y-106814727D01*
X169741389Y-106815286D01*
G37*
X169741389Y-106815286D02*
X169696316Y-106835532D01*
X169694761Y-106861118D01*
X169714389Y-106897625D01*
X169740426Y-106885471D01*
X169765763Y-106856417D01*
X169784859Y-106821521D01*
X169749973Y-106814727D01*
X169741389Y-106815286D01*
D12*
%TO.C,J1*%
X189860000Y-87760000D02*
X189860000Y-86430000D01*
X188530000Y-87760000D02*
X189860000Y-87760000D01*
X189860000Y-85160000D02*
X189860000Y-82560000D01*
X187260000Y-85160000D02*
X189860000Y-85160000D01*
X187260000Y-87760000D02*
X187260000Y-85160000D01*
X189860000Y-82560000D02*
X149100000Y-82560000D01*
X187260000Y-87760000D02*
X149100000Y-87760000D01*
X149100000Y-87760000D02*
X149100000Y-82560000D01*
D10*
X169878333Y-88352380D02*
X169878333Y-89066666D01*
X169925952Y-89209523D01*
X170021190Y-89304761D01*
X170164047Y-89352380D01*
X170259285Y-89352380D01*
X168878333Y-89352380D02*
X169449761Y-89352380D01*
X169164047Y-89352380D02*
X169164047Y-88352380D01*
X169259285Y-88495238D01*
X169354523Y-88590476D01*
X169449761Y-88638095D01*
%TD*%
M02*
