M48
; DRILL file {KiCad (5.1.10-1-10_14)} date Monday, March 27, 2023 at 10:45:22 PM
; FORMAT={-:-/ absolute / metric / decimal}
; #@! TF.CreationDate,2023-03-27T22:45:22+08:00
; #@! TF.GenerationSoftware,Kicad,Pcbnew,(5.1.10-1-10_14)
FMAT,2
METRIC
T1C1.000
T2C2.200
%
G90
G05
T1
X150.43Y-83.89
X150.43Y-86.43
X152.97Y-83.89
X152.97Y-86.43
X155.51Y-83.89
X155.51Y-86.43
X158.05Y-83.89
X158.05Y-86.43
X160.59Y-83.89
X160.59Y-86.43
X163.13Y-83.89
X163.13Y-86.43
X165.67Y-83.89
X165.67Y-86.43
X168.21Y-83.89
X168.21Y-86.43
X170.75Y-83.89
X170.75Y-86.43
X173.29Y-83.89
X173.29Y-86.43
X175.83Y-83.89
X175.83Y-86.43
X178.37Y-83.89
X178.37Y-86.43
X180.91Y-83.89
X180.91Y-86.43
X183.45Y-83.89
X183.45Y-86.43
X185.99Y-83.89
X185.99Y-86.43
X188.53Y-83.89
X188.53Y-86.43
T2
X156.48Y-101.34
X182.48Y-101.34
T0
M30
