%TF.GenerationSoftware,KiCad,Pcbnew,(5.1.10-1-10_14)*%
%TF.CreationDate,2023-03-27T22:45:21+08:00*%
%TF.ProjectId,GB_MemoryBackup_Subboard_A,47425f4d-656d-46f7-9279-4261636b7570,1.0*%
%TF.SameCoordinates,Original*%
%TF.FileFunction,Copper,L2,Bot*%
%TF.FilePolarity,Positive*%
%FSLAX46Y46*%
G04 Gerber Fmt 4.6, Leading zero omitted, Abs format (unit mm)*
G04 Created by KiCad (PCBNEW (5.1.10-1-10_14)) date 2023-03-27 22:45:21*
%MOMM*%
%LPD*%
G01*
G04 APERTURE LIST*
%TA.AperFunction,ComponentPad*%
%ADD10O,1.700000X1.700000*%
%TD*%
%TA.AperFunction,ComponentPad*%
%ADD11R,1.700000X1.700000*%
%TD*%
%TA.AperFunction,Conductor*%
%ADD12C,0.254000*%
%TD*%
%TA.AperFunction,Conductor*%
%ADD13C,0.100000*%
%TD*%
G04 APERTURE END LIST*
D10*
%TO.P,J1,32*%
%TO.N,GND*%
X150430000Y-83890000D03*
%TO.P,J1,31*%
%TO.N,/AAudioIn*%
X150430000Y-86430000D03*
%TO.P,J1,30*%
%TO.N,/~ARST*%
X152970000Y-83890000D03*
%TO.P,J1,29*%
%TO.N,/AD7*%
X152970000Y-86430000D03*
%TO.P,J1,28*%
%TO.N,/AD6*%
X155510000Y-83890000D03*
%TO.P,J1,27*%
%TO.N,/AD5*%
X155510000Y-86430000D03*
%TO.P,J1,26*%
%TO.N,/AD4*%
X158050000Y-83890000D03*
%TO.P,J1,25*%
%TO.N,/AD3*%
X158050000Y-86430000D03*
%TO.P,J1,24*%
%TO.N,/AD2*%
X160590000Y-83890000D03*
%TO.P,J1,23*%
%TO.N,/AD1*%
X160590000Y-86430000D03*
%TO.P,J1,22*%
%TO.N,/AD0*%
X163130000Y-83890000D03*
%TO.P,J1,21*%
%TO.N,/AA15_T*%
X163130000Y-86430000D03*
%TO.P,J1,20*%
%TO.N,/AA14*%
X165670000Y-83890000D03*
%TO.P,J1,19*%
%TO.N,/AA13*%
X165670000Y-86430000D03*
%TO.P,J1,18*%
%TO.N,/AA12*%
X168210000Y-83890000D03*
%TO.P,J1,17*%
%TO.N,/AA11*%
X168210000Y-86430000D03*
%TO.P,J1,16*%
%TO.N,/AA10*%
X170750000Y-83890000D03*
%TO.P,J1,15*%
%TO.N,/AA9*%
X170750000Y-86430000D03*
%TO.P,J1,14*%
%TO.N,/AA8*%
X173290000Y-83890000D03*
%TO.P,J1,13*%
%TO.N,/AA7*%
X173290000Y-86430000D03*
%TO.P,J1,12*%
%TO.N,/AA6*%
X175830000Y-83890000D03*
%TO.P,J1,11*%
%TO.N,/AA5*%
X175830000Y-86430000D03*
%TO.P,J1,10*%
%TO.N,/AA4*%
X178370000Y-83890000D03*
%TO.P,J1,9*%
%TO.N,/AA3*%
X178370000Y-86430000D03*
%TO.P,J1,8*%
%TO.N,/AA2*%
X180910000Y-83890000D03*
%TO.P,J1,7*%
%TO.N,/AA1*%
X180910000Y-86430000D03*
%TO.P,J1,6*%
%TO.N,/AA0*%
X183450000Y-83890000D03*
%TO.P,J1,5*%
%TO.N,/~ASRAM_CS*%
X183450000Y-86430000D03*
%TO.P,J1,4*%
%TO.N,/~ARD_T*%
X185990000Y-83890000D03*
%TO.P,J1,3*%
%TO.N,/~AWR_T*%
X185990000Y-86430000D03*
%TO.P,J1,2*%
%TO.N,/ACLK*%
X188530000Y-83890000D03*
D11*
%TO.P,J1,1*%
%TO.N,+5V*%
X188530000Y-86430000D03*
%TD*%
D12*
%TO.N,+5V*%
X196545001Y-115995000D02*
X142415000Y-115995000D01*
X142415000Y-101169117D01*
X154745000Y-101169117D01*
X154745000Y-101510883D01*
X154811675Y-101846081D01*
X154942463Y-102161831D01*
X155132337Y-102445998D01*
X155374002Y-102687663D01*
X155658169Y-102877537D01*
X155973919Y-103008325D01*
X156309117Y-103075000D01*
X156650883Y-103075000D01*
X156986081Y-103008325D01*
X157301831Y-102877537D01*
X157585998Y-102687663D01*
X157827663Y-102445998D01*
X158017537Y-102161831D01*
X158148325Y-101846081D01*
X158215000Y-101510883D01*
X158215000Y-101169117D01*
X180745000Y-101169117D01*
X180745000Y-101510883D01*
X180811675Y-101846081D01*
X180942463Y-102161831D01*
X181132337Y-102445998D01*
X181374002Y-102687663D01*
X181658169Y-102877537D01*
X181973919Y-103008325D01*
X182309117Y-103075000D01*
X182650883Y-103075000D01*
X182986081Y-103008325D01*
X183301831Y-102877537D01*
X183585998Y-102687663D01*
X183827663Y-102445998D01*
X184017537Y-102161831D01*
X184148325Y-101846081D01*
X184215000Y-101510883D01*
X184215000Y-101169117D01*
X184148325Y-100833919D01*
X184017537Y-100518169D01*
X183827663Y-100234002D01*
X183585998Y-99992337D01*
X183301831Y-99802463D01*
X182986081Y-99671675D01*
X182650883Y-99605000D01*
X182309117Y-99605000D01*
X181973919Y-99671675D01*
X181658169Y-99802463D01*
X181374002Y-99992337D01*
X181132337Y-100234002D01*
X180942463Y-100518169D01*
X180811675Y-100833919D01*
X180745000Y-101169117D01*
X158215000Y-101169117D01*
X158148325Y-100833919D01*
X158017537Y-100518169D01*
X157827663Y-100234002D01*
X157585998Y-99992337D01*
X157301831Y-99802463D01*
X156986081Y-99671675D01*
X156650883Y-99605000D01*
X156309117Y-99605000D01*
X155973919Y-99671675D01*
X155658169Y-99802463D01*
X155374002Y-99992337D01*
X155132337Y-100234002D01*
X154942463Y-100518169D01*
X154811675Y-100833919D01*
X154745000Y-101169117D01*
X142415000Y-101169117D01*
X142415000Y-83743740D01*
X148945000Y-83743740D01*
X148945000Y-84036260D01*
X149002068Y-84323158D01*
X149114010Y-84593411D01*
X149276525Y-84836632D01*
X149483368Y-85043475D01*
X149657760Y-85160000D01*
X149483368Y-85276525D01*
X149276525Y-85483368D01*
X149114010Y-85726589D01*
X149002068Y-85996842D01*
X148945000Y-86283740D01*
X148945000Y-86576260D01*
X149002068Y-86863158D01*
X149114010Y-87133411D01*
X149276525Y-87376632D01*
X149483368Y-87583475D01*
X149726589Y-87745990D01*
X149996842Y-87857932D01*
X150283740Y-87915000D01*
X150576260Y-87915000D01*
X150863158Y-87857932D01*
X151133411Y-87745990D01*
X151376632Y-87583475D01*
X151583475Y-87376632D01*
X151700000Y-87202240D01*
X151816525Y-87376632D01*
X152023368Y-87583475D01*
X152266589Y-87745990D01*
X152536842Y-87857932D01*
X152823740Y-87915000D01*
X153116260Y-87915000D01*
X153403158Y-87857932D01*
X153673411Y-87745990D01*
X153916632Y-87583475D01*
X154123475Y-87376632D01*
X154240000Y-87202240D01*
X154356525Y-87376632D01*
X154563368Y-87583475D01*
X154806589Y-87745990D01*
X155076842Y-87857932D01*
X155363740Y-87915000D01*
X155656260Y-87915000D01*
X155943158Y-87857932D01*
X156213411Y-87745990D01*
X156456632Y-87583475D01*
X156663475Y-87376632D01*
X156780000Y-87202240D01*
X156896525Y-87376632D01*
X157103368Y-87583475D01*
X157346589Y-87745990D01*
X157616842Y-87857932D01*
X157903740Y-87915000D01*
X158196260Y-87915000D01*
X158483158Y-87857932D01*
X158753411Y-87745990D01*
X158996632Y-87583475D01*
X159203475Y-87376632D01*
X159320000Y-87202240D01*
X159436525Y-87376632D01*
X159643368Y-87583475D01*
X159886589Y-87745990D01*
X160156842Y-87857932D01*
X160443740Y-87915000D01*
X160736260Y-87915000D01*
X161023158Y-87857932D01*
X161293411Y-87745990D01*
X161536632Y-87583475D01*
X161743475Y-87376632D01*
X161860000Y-87202240D01*
X161976525Y-87376632D01*
X162183368Y-87583475D01*
X162426589Y-87745990D01*
X162696842Y-87857932D01*
X162983740Y-87915000D01*
X163276260Y-87915000D01*
X163563158Y-87857932D01*
X163833411Y-87745990D01*
X164076632Y-87583475D01*
X164283475Y-87376632D01*
X164400000Y-87202240D01*
X164516525Y-87376632D01*
X164723368Y-87583475D01*
X164966589Y-87745990D01*
X165236842Y-87857932D01*
X165523740Y-87915000D01*
X165816260Y-87915000D01*
X166103158Y-87857932D01*
X166373411Y-87745990D01*
X166616632Y-87583475D01*
X166823475Y-87376632D01*
X166940000Y-87202240D01*
X167056525Y-87376632D01*
X167263368Y-87583475D01*
X167506589Y-87745990D01*
X167776842Y-87857932D01*
X168063740Y-87915000D01*
X168356260Y-87915000D01*
X168643158Y-87857932D01*
X168913411Y-87745990D01*
X169156632Y-87583475D01*
X169363475Y-87376632D01*
X169480000Y-87202240D01*
X169596525Y-87376632D01*
X169803368Y-87583475D01*
X170046589Y-87745990D01*
X170316842Y-87857932D01*
X170603740Y-87915000D01*
X170896260Y-87915000D01*
X171183158Y-87857932D01*
X171453411Y-87745990D01*
X171696632Y-87583475D01*
X171903475Y-87376632D01*
X172020000Y-87202240D01*
X172136525Y-87376632D01*
X172343368Y-87583475D01*
X172586589Y-87745990D01*
X172856842Y-87857932D01*
X173143740Y-87915000D01*
X173436260Y-87915000D01*
X173723158Y-87857932D01*
X173993411Y-87745990D01*
X174236632Y-87583475D01*
X174443475Y-87376632D01*
X174560000Y-87202240D01*
X174676525Y-87376632D01*
X174883368Y-87583475D01*
X175126589Y-87745990D01*
X175396842Y-87857932D01*
X175683740Y-87915000D01*
X175976260Y-87915000D01*
X176263158Y-87857932D01*
X176533411Y-87745990D01*
X176776632Y-87583475D01*
X176983475Y-87376632D01*
X177100000Y-87202240D01*
X177216525Y-87376632D01*
X177423368Y-87583475D01*
X177666589Y-87745990D01*
X177936842Y-87857932D01*
X178223740Y-87915000D01*
X178516260Y-87915000D01*
X178803158Y-87857932D01*
X179073411Y-87745990D01*
X179316632Y-87583475D01*
X179523475Y-87376632D01*
X179640000Y-87202240D01*
X179756525Y-87376632D01*
X179963368Y-87583475D01*
X180206589Y-87745990D01*
X180476842Y-87857932D01*
X180763740Y-87915000D01*
X181056260Y-87915000D01*
X181343158Y-87857932D01*
X181613411Y-87745990D01*
X181856632Y-87583475D01*
X182063475Y-87376632D01*
X182180000Y-87202240D01*
X182296525Y-87376632D01*
X182503368Y-87583475D01*
X182746589Y-87745990D01*
X183016842Y-87857932D01*
X183303740Y-87915000D01*
X183596260Y-87915000D01*
X183883158Y-87857932D01*
X184153411Y-87745990D01*
X184396632Y-87583475D01*
X184603475Y-87376632D01*
X184720000Y-87202240D01*
X184836525Y-87376632D01*
X185043368Y-87583475D01*
X185286589Y-87745990D01*
X185556842Y-87857932D01*
X185843740Y-87915000D01*
X186136260Y-87915000D01*
X186423158Y-87857932D01*
X186693411Y-87745990D01*
X186936632Y-87583475D01*
X187068487Y-87451620D01*
X187090498Y-87524180D01*
X187149463Y-87634494D01*
X187228815Y-87731185D01*
X187325506Y-87810537D01*
X187435820Y-87869502D01*
X187555518Y-87905812D01*
X187680000Y-87918072D01*
X188244250Y-87915000D01*
X188403000Y-87756250D01*
X188403000Y-86557000D01*
X188657000Y-86557000D01*
X188657000Y-87756250D01*
X188815750Y-87915000D01*
X189380000Y-87918072D01*
X189504482Y-87905812D01*
X189624180Y-87869502D01*
X189734494Y-87810537D01*
X189831185Y-87731185D01*
X189910537Y-87634494D01*
X189969502Y-87524180D01*
X190005812Y-87404482D01*
X190018072Y-87280000D01*
X190015000Y-86715750D01*
X189856250Y-86557000D01*
X188657000Y-86557000D01*
X188403000Y-86557000D01*
X188383000Y-86557000D01*
X188383000Y-86303000D01*
X188403000Y-86303000D01*
X188403000Y-86283000D01*
X188657000Y-86283000D01*
X188657000Y-86303000D01*
X189856250Y-86303000D01*
X190015000Y-86144250D01*
X190018072Y-85580000D01*
X190005812Y-85455518D01*
X189969502Y-85335820D01*
X189910537Y-85225506D01*
X189831185Y-85128815D01*
X189734494Y-85049463D01*
X189624180Y-84990498D01*
X189551620Y-84968487D01*
X189683475Y-84836632D01*
X189845990Y-84593411D01*
X189957932Y-84323158D01*
X190015000Y-84036260D01*
X190015000Y-83743740D01*
X189957932Y-83456842D01*
X189845990Y-83186589D01*
X189683475Y-82943368D01*
X189476632Y-82736525D01*
X189233411Y-82574010D01*
X188963158Y-82462068D01*
X188676260Y-82405000D01*
X188383740Y-82405000D01*
X188096842Y-82462068D01*
X187826589Y-82574010D01*
X187583368Y-82736525D01*
X187376525Y-82943368D01*
X187260000Y-83117760D01*
X187143475Y-82943368D01*
X186936632Y-82736525D01*
X186693411Y-82574010D01*
X186423158Y-82462068D01*
X186136260Y-82405000D01*
X185843740Y-82405000D01*
X185556842Y-82462068D01*
X185286589Y-82574010D01*
X185043368Y-82736525D01*
X184836525Y-82943368D01*
X184720000Y-83117760D01*
X184603475Y-82943368D01*
X184396632Y-82736525D01*
X184153411Y-82574010D01*
X183883158Y-82462068D01*
X183596260Y-82405000D01*
X183303740Y-82405000D01*
X183016842Y-82462068D01*
X182746589Y-82574010D01*
X182503368Y-82736525D01*
X182296525Y-82943368D01*
X182180000Y-83117760D01*
X182063475Y-82943368D01*
X181856632Y-82736525D01*
X181613411Y-82574010D01*
X181343158Y-82462068D01*
X181056260Y-82405000D01*
X180763740Y-82405000D01*
X180476842Y-82462068D01*
X180206589Y-82574010D01*
X179963368Y-82736525D01*
X179756525Y-82943368D01*
X179640000Y-83117760D01*
X179523475Y-82943368D01*
X179316632Y-82736525D01*
X179073411Y-82574010D01*
X178803158Y-82462068D01*
X178516260Y-82405000D01*
X178223740Y-82405000D01*
X177936842Y-82462068D01*
X177666589Y-82574010D01*
X177423368Y-82736525D01*
X177216525Y-82943368D01*
X177100000Y-83117760D01*
X176983475Y-82943368D01*
X176776632Y-82736525D01*
X176533411Y-82574010D01*
X176263158Y-82462068D01*
X175976260Y-82405000D01*
X175683740Y-82405000D01*
X175396842Y-82462068D01*
X175126589Y-82574010D01*
X174883368Y-82736525D01*
X174676525Y-82943368D01*
X174560000Y-83117760D01*
X174443475Y-82943368D01*
X174236632Y-82736525D01*
X173993411Y-82574010D01*
X173723158Y-82462068D01*
X173436260Y-82405000D01*
X173143740Y-82405000D01*
X172856842Y-82462068D01*
X172586589Y-82574010D01*
X172343368Y-82736525D01*
X172136525Y-82943368D01*
X172020000Y-83117760D01*
X171903475Y-82943368D01*
X171696632Y-82736525D01*
X171453411Y-82574010D01*
X171183158Y-82462068D01*
X170896260Y-82405000D01*
X170603740Y-82405000D01*
X170316842Y-82462068D01*
X170046589Y-82574010D01*
X169803368Y-82736525D01*
X169596525Y-82943368D01*
X169480000Y-83117760D01*
X169363475Y-82943368D01*
X169156632Y-82736525D01*
X168913411Y-82574010D01*
X168643158Y-82462068D01*
X168356260Y-82405000D01*
X168063740Y-82405000D01*
X167776842Y-82462068D01*
X167506589Y-82574010D01*
X167263368Y-82736525D01*
X167056525Y-82943368D01*
X166940000Y-83117760D01*
X166823475Y-82943368D01*
X166616632Y-82736525D01*
X166373411Y-82574010D01*
X166103158Y-82462068D01*
X165816260Y-82405000D01*
X165523740Y-82405000D01*
X165236842Y-82462068D01*
X164966589Y-82574010D01*
X164723368Y-82736525D01*
X164516525Y-82943368D01*
X164400000Y-83117760D01*
X164283475Y-82943368D01*
X164076632Y-82736525D01*
X163833411Y-82574010D01*
X163563158Y-82462068D01*
X163276260Y-82405000D01*
X162983740Y-82405000D01*
X162696842Y-82462068D01*
X162426589Y-82574010D01*
X162183368Y-82736525D01*
X161976525Y-82943368D01*
X161860000Y-83117760D01*
X161743475Y-82943368D01*
X161536632Y-82736525D01*
X161293411Y-82574010D01*
X161023158Y-82462068D01*
X160736260Y-82405000D01*
X160443740Y-82405000D01*
X160156842Y-82462068D01*
X159886589Y-82574010D01*
X159643368Y-82736525D01*
X159436525Y-82943368D01*
X159320000Y-83117760D01*
X159203475Y-82943368D01*
X158996632Y-82736525D01*
X158753411Y-82574010D01*
X158483158Y-82462068D01*
X158196260Y-82405000D01*
X157903740Y-82405000D01*
X157616842Y-82462068D01*
X157346589Y-82574010D01*
X157103368Y-82736525D01*
X156896525Y-82943368D01*
X156780000Y-83117760D01*
X156663475Y-82943368D01*
X156456632Y-82736525D01*
X156213411Y-82574010D01*
X155943158Y-82462068D01*
X155656260Y-82405000D01*
X155363740Y-82405000D01*
X155076842Y-82462068D01*
X154806589Y-82574010D01*
X154563368Y-82736525D01*
X154356525Y-82943368D01*
X154240000Y-83117760D01*
X154123475Y-82943368D01*
X153916632Y-82736525D01*
X153673411Y-82574010D01*
X153403158Y-82462068D01*
X153116260Y-82405000D01*
X152823740Y-82405000D01*
X152536842Y-82462068D01*
X152266589Y-82574010D01*
X152023368Y-82736525D01*
X151816525Y-82943368D01*
X151700000Y-83117760D01*
X151583475Y-82943368D01*
X151376632Y-82736525D01*
X151133411Y-82574010D01*
X150863158Y-82462068D01*
X150576260Y-82405000D01*
X150283740Y-82405000D01*
X149996842Y-82462068D01*
X149726589Y-82574010D01*
X149483368Y-82736525D01*
X149276525Y-82943368D01*
X149114010Y-83186589D01*
X149002068Y-83456842D01*
X148945000Y-83743740D01*
X142415000Y-83743740D01*
X142415000Y-82365000D01*
X196545000Y-82365000D01*
X196545001Y-115995000D01*
%TA.AperFunction,Conductor*%
D13*
G36*
X196545001Y-115995000D02*
G01*
X142415000Y-115995000D01*
X142415000Y-101169117D01*
X154745000Y-101169117D01*
X154745000Y-101510883D01*
X154811675Y-101846081D01*
X154942463Y-102161831D01*
X155132337Y-102445998D01*
X155374002Y-102687663D01*
X155658169Y-102877537D01*
X155973919Y-103008325D01*
X156309117Y-103075000D01*
X156650883Y-103075000D01*
X156986081Y-103008325D01*
X157301831Y-102877537D01*
X157585998Y-102687663D01*
X157827663Y-102445998D01*
X158017537Y-102161831D01*
X158148325Y-101846081D01*
X158215000Y-101510883D01*
X158215000Y-101169117D01*
X180745000Y-101169117D01*
X180745000Y-101510883D01*
X180811675Y-101846081D01*
X180942463Y-102161831D01*
X181132337Y-102445998D01*
X181374002Y-102687663D01*
X181658169Y-102877537D01*
X181973919Y-103008325D01*
X182309117Y-103075000D01*
X182650883Y-103075000D01*
X182986081Y-103008325D01*
X183301831Y-102877537D01*
X183585998Y-102687663D01*
X183827663Y-102445998D01*
X184017537Y-102161831D01*
X184148325Y-101846081D01*
X184215000Y-101510883D01*
X184215000Y-101169117D01*
X184148325Y-100833919D01*
X184017537Y-100518169D01*
X183827663Y-100234002D01*
X183585998Y-99992337D01*
X183301831Y-99802463D01*
X182986081Y-99671675D01*
X182650883Y-99605000D01*
X182309117Y-99605000D01*
X181973919Y-99671675D01*
X181658169Y-99802463D01*
X181374002Y-99992337D01*
X181132337Y-100234002D01*
X180942463Y-100518169D01*
X180811675Y-100833919D01*
X180745000Y-101169117D01*
X158215000Y-101169117D01*
X158148325Y-100833919D01*
X158017537Y-100518169D01*
X157827663Y-100234002D01*
X157585998Y-99992337D01*
X157301831Y-99802463D01*
X156986081Y-99671675D01*
X156650883Y-99605000D01*
X156309117Y-99605000D01*
X155973919Y-99671675D01*
X155658169Y-99802463D01*
X155374002Y-99992337D01*
X155132337Y-100234002D01*
X154942463Y-100518169D01*
X154811675Y-100833919D01*
X154745000Y-101169117D01*
X142415000Y-101169117D01*
X142415000Y-83743740D01*
X148945000Y-83743740D01*
X148945000Y-84036260D01*
X149002068Y-84323158D01*
X149114010Y-84593411D01*
X149276525Y-84836632D01*
X149483368Y-85043475D01*
X149657760Y-85160000D01*
X149483368Y-85276525D01*
X149276525Y-85483368D01*
X149114010Y-85726589D01*
X149002068Y-85996842D01*
X148945000Y-86283740D01*
X148945000Y-86576260D01*
X149002068Y-86863158D01*
X149114010Y-87133411D01*
X149276525Y-87376632D01*
X149483368Y-87583475D01*
X149726589Y-87745990D01*
X149996842Y-87857932D01*
X150283740Y-87915000D01*
X150576260Y-87915000D01*
X150863158Y-87857932D01*
X151133411Y-87745990D01*
X151376632Y-87583475D01*
X151583475Y-87376632D01*
X151700000Y-87202240D01*
X151816525Y-87376632D01*
X152023368Y-87583475D01*
X152266589Y-87745990D01*
X152536842Y-87857932D01*
X152823740Y-87915000D01*
X153116260Y-87915000D01*
X153403158Y-87857932D01*
X153673411Y-87745990D01*
X153916632Y-87583475D01*
X154123475Y-87376632D01*
X154240000Y-87202240D01*
X154356525Y-87376632D01*
X154563368Y-87583475D01*
X154806589Y-87745990D01*
X155076842Y-87857932D01*
X155363740Y-87915000D01*
X155656260Y-87915000D01*
X155943158Y-87857932D01*
X156213411Y-87745990D01*
X156456632Y-87583475D01*
X156663475Y-87376632D01*
X156780000Y-87202240D01*
X156896525Y-87376632D01*
X157103368Y-87583475D01*
X157346589Y-87745990D01*
X157616842Y-87857932D01*
X157903740Y-87915000D01*
X158196260Y-87915000D01*
X158483158Y-87857932D01*
X158753411Y-87745990D01*
X158996632Y-87583475D01*
X159203475Y-87376632D01*
X159320000Y-87202240D01*
X159436525Y-87376632D01*
X159643368Y-87583475D01*
X159886589Y-87745990D01*
X160156842Y-87857932D01*
X160443740Y-87915000D01*
X160736260Y-87915000D01*
X161023158Y-87857932D01*
X161293411Y-87745990D01*
X161536632Y-87583475D01*
X161743475Y-87376632D01*
X161860000Y-87202240D01*
X161976525Y-87376632D01*
X162183368Y-87583475D01*
X162426589Y-87745990D01*
X162696842Y-87857932D01*
X162983740Y-87915000D01*
X163276260Y-87915000D01*
X163563158Y-87857932D01*
X163833411Y-87745990D01*
X164076632Y-87583475D01*
X164283475Y-87376632D01*
X164400000Y-87202240D01*
X164516525Y-87376632D01*
X164723368Y-87583475D01*
X164966589Y-87745990D01*
X165236842Y-87857932D01*
X165523740Y-87915000D01*
X165816260Y-87915000D01*
X166103158Y-87857932D01*
X166373411Y-87745990D01*
X166616632Y-87583475D01*
X166823475Y-87376632D01*
X166940000Y-87202240D01*
X167056525Y-87376632D01*
X167263368Y-87583475D01*
X167506589Y-87745990D01*
X167776842Y-87857932D01*
X168063740Y-87915000D01*
X168356260Y-87915000D01*
X168643158Y-87857932D01*
X168913411Y-87745990D01*
X169156632Y-87583475D01*
X169363475Y-87376632D01*
X169480000Y-87202240D01*
X169596525Y-87376632D01*
X169803368Y-87583475D01*
X170046589Y-87745990D01*
X170316842Y-87857932D01*
X170603740Y-87915000D01*
X170896260Y-87915000D01*
X171183158Y-87857932D01*
X171453411Y-87745990D01*
X171696632Y-87583475D01*
X171903475Y-87376632D01*
X172020000Y-87202240D01*
X172136525Y-87376632D01*
X172343368Y-87583475D01*
X172586589Y-87745990D01*
X172856842Y-87857932D01*
X173143740Y-87915000D01*
X173436260Y-87915000D01*
X173723158Y-87857932D01*
X173993411Y-87745990D01*
X174236632Y-87583475D01*
X174443475Y-87376632D01*
X174560000Y-87202240D01*
X174676525Y-87376632D01*
X174883368Y-87583475D01*
X175126589Y-87745990D01*
X175396842Y-87857932D01*
X175683740Y-87915000D01*
X175976260Y-87915000D01*
X176263158Y-87857932D01*
X176533411Y-87745990D01*
X176776632Y-87583475D01*
X176983475Y-87376632D01*
X177100000Y-87202240D01*
X177216525Y-87376632D01*
X177423368Y-87583475D01*
X177666589Y-87745990D01*
X177936842Y-87857932D01*
X178223740Y-87915000D01*
X178516260Y-87915000D01*
X178803158Y-87857932D01*
X179073411Y-87745990D01*
X179316632Y-87583475D01*
X179523475Y-87376632D01*
X179640000Y-87202240D01*
X179756525Y-87376632D01*
X179963368Y-87583475D01*
X180206589Y-87745990D01*
X180476842Y-87857932D01*
X180763740Y-87915000D01*
X181056260Y-87915000D01*
X181343158Y-87857932D01*
X181613411Y-87745990D01*
X181856632Y-87583475D01*
X182063475Y-87376632D01*
X182180000Y-87202240D01*
X182296525Y-87376632D01*
X182503368Y-87583475D01*
X182746589Y-87745990D01*
X183016842Y-87857932D01*
X183303740Y-87915000D01*
X183596260Y-87915000D01*
X183883158Y-87857932D01*
X184153411Y-87745990D01*
X184396632Y-87583475D01*
X184603475Y-87376632D01*
X184720000Y-87202240D01*
X184836525Y-87376632D01*
X185043368Y-87583475D01*
X185286589Y-87745990D01*
X185556842Y-87857932D01*
X185843740Y-87915000D01*
X186136260Y-87915000D01*
X186423158Y-87857932D01*
X186693411Y-87745990D01*
X186936632Y-87583475D01*
X187068487Y-87451620D01*
X187090498Y-87524180D01*
X187149463Y-87634494D01*
X187228815Y-87731185D01*
X187325506Y-87810537D01*
X187435820Y-87869502D01*
X187555518Y-87905812D01*
X187680000Y-87918072D01*
X188244250Y-87915000D01*
X188403000Y-87756250D01*
X188403000Y-86557000D01*
X188657000Y-86557000D01*
X188657000Y-87756250D01*
X188815750Y-87915000D01*
X189380000Y-87918072D01*
X189504482Y-87905812D01*
X189624180Y-87869502D01*
X189734494Y-87810537D01*
X189831185Y-87731185D01*
X189910537Y-87634494D01*
X189969502Y-87524180D01*
X190005812Y-87404482D01*
X190018072Y-87280000D01*
X190015000Y-86715750D01*
X189856250Y-86557000D01*
X188657000Y-86557000D01*
X188403000Y-86557000D01*
X188383000Y-86557000D01*
X188383000Y-86303000D01*
X188403000Y-86303000D01*
X188403000Y-86283000D01*
X188657000Y-86283000D01*
X188657000Y-86303000D01*
X189856250Y-86303000D01*
X190015000Y-86144250D01*
X190018072Y-85580000D01*
X190005812Y-85455518D01*
X189969502Y-85335820D01*
X189910537Y-85225506D01*
X189831185Y-85128815D01*
X189734494Y-85049463D01*
X189624180Y-84990498D01*
X189551620Y-84968487D01*
X189683475Y-84836632D01*
X189845990Y-84593411D01*
X189957932Y-84323158D01*
X190015000Y-84036260D01*
X190015000Y-83743740D01*
X189957932Y-83456842D01*
X189845990Y-83186589D01*
X189683475Y-82943368D01*
X189476632Y-82736525D01*
X189233411Y-82574010D01*
X188963158Y-82462068D01*
X188676260Y-82405000D01*
X188383740Y-82405000D01*
X188096842Y-82462068D01*
X187826589Y-82574010D01*
X187583368Y-82736525D01*
X187376525Y-82943368D01*
X187260000Y-83117760D01*
X187143475Y-82943368D01*
X186936632Y-82736525D01*
X186693411Y-82574010D01*
X186423158Y-82462068D01*
X186136260Y-82405000D01*
X185843740Y-82405000D01*
X185556842Y-82462068D01*
X185286589Y-82574010D01*
X185043368Y-82736525D01*
X184836525Y-82943368D01*
X184720000Y-83117760D01*
X184603475Y-82943368D01*
X184396632Y-82736525D01*
X184153411Y-82574010D01*
X183883158Y-82462068D01*
X183596260Y-82405000D01*
X183303740Y-82405000D01*
X183016842Y-82462068D01*
X182746589Y-82574010D01*
X182503368Y-82736525D01*
X182296525Y-82943368D01*
X182180000Y-83117760D01*
X182063475Y-82943368D01*
X181856632Y-82736525D01*
X181613411Y-82574010D01*
X181343158Y-82462068D01*
X181056260Y-82405000D01*
X180763740Y-82405000D01*
X180476842Y-82462068D01*
X180206589Y-82574010D01*
X179963368Y-82736525D01*
X179756525Y-82943368D01*
X179640000Y-83117760D01*
X179523475Y-82943368D01*
X179316632Y-82736525D01*
X179073411Y-82574010D01*
X178803158Y-82462068D01*
X178516260Y-82405000D01*
X178223740Y-82405000D01*
X177936842Y-82462068D01*
X177666589Y-82574010D01*
X177423368Y-82736525D01*
X177216525Y-82943368D01*
X177100000Y-83117760D01*
X176983475Y-82943368D01*
X176776632Y-82736525D01*
X176533411Y-82574010D01*
X176263158Y-82462068D01*
X175976260Y-82405000D01*
X175683740Y-82405000D01*
X175396842Y-82462068D01*
X175126589Y-82574010D01*
X174883368Y-82736525D01*
X174676525Y-82943368D01*
X174560000Y-83117760D01*
X174443475Y-82943368D01*
X174236632Y-82736525D01*
X173993411Y-82574010D01*
X173723158Y-82462068D01*
X173436260Y-82405000D01*
X173143740Y-82405000D01*
X172856842Y-82462068D01*
X172586589Y-82574010D01*
X172343368Y-82736525D01*
X172136525Y-82943368D01*
X172020000Y-83117760D01*
X171903475Y-82943368D01*
X171696632Y-82736525D01*
X171453411Y-82574010D01*
X171183158Y-82462068D01*
X170896260Y-82405000D01*
X170603740Y-82405000D01*
X170316842Y-82462068D01*
X170046589Y-82574010D01*
X169803368Y-82736525D01*
X169596525Y-82943368D01*
X169480000Y-83117760D01*
X169363475Y-82943368D01*
X169156632Y-82736525D01*
X168913411Y-82574010D01*
X168643158Y-82462068D01*
X168356260Y-82405000D01*
X168063740Y-82405000D01*
X167776842Y-82462068D01*
X167506589Y-82574010D01*
X167263368Y-82736525D01*
X167056525Y-82943368D01*
X166940000Y-83117760D01*
X166823475Y-82943368D01*
X166616632Y-82736525D01*
X166373411Y-82574010D01*
X166103158Y-82462068D01*
X165816260Y-82405000D01*
X165523740Y-82405000D01*
X165236842Y-82462068D01*
X164966589Y-82574010D01*
X164723368Y-82736525D01*
X164516525Y-82943368D01*
X164400000Y-83117760D01*
X164283475Y-82943368D01*
X164076632Y-82736525D01*
X163833411Y-82574010D01*
X163563158Y-82462068D01*
X163276260Y-82405000D01*
X162983740Y-82405000D01*
X162696842Y-82462068D01*
X162426589Y-82574010D01*
X162183368Y-82736525D01*
X161976525Y-82943368D01*
X161860000Y-83117760D01*
X161743475Y-82943368D01*
X161536632Y-82736525D01*
X161293411Y-82574010D01*
X161023158Y-82462068D01*
X160736260Y-82405000D01*
X160443740Y-82405000D01*
X160156842Y-82462068D01*
X159886589Y-82574010D01*
X159643368Y-82736525D01*
X159436525Y-82943368D01*
X159320000Y-83117760D01*
X159203475Y-82943368D01*
X158996632Y-82736525D01*
X158753411Y-82574010D01*
X158483158Y-82462068D01*
X158196260Y-82405000D01*
X157903740Y-82405000D01*
X157616842Y-82462068D01*
X157346589Y-82574010D01*
X157103368Y-82736525D01*
X156896525Y-82943368D01*
X156780000Y-83117760D01*
X156663475Y-82943368D01*
X156456632Y-82736525D01*
X156213411Y-82574010D01*
X155943158Y-82462068D01*
X155656260Y-82405000D01*
X155363740Y-82405000D01*
X155076842Y-82462068D01*
X154806589Y-82574010D01*
X154563368Y-82736525D01*
X154356525Y-82943368D01*
X154240000Y-83117760D01*
X154123475Y-82943368D01*
X153916632Y-82736525D01*
X153673411Y-82574010D01*
X153403158Y-82462068D01*
X153116260Y-82405000D01*
X152823740Y-82405000D01*
X152536842Y-82462068D01*
X152266589Y-82574010D01*
X152023368Y-82736525D01*
X151816525Y-82943368D01*
X151700000Y-83117760D01*
X151583475Y-82943368D01*
X151376632Y-82736525D01*
X151133411Y-82574010D01*
X150863158Y-82462068D01*
X150576260Y-82405000D01*
X150283740Y-82405000D01*
X149996842Y-82462068D01*
X149726589Y-82574010D01*
X149483368Y-82736525D01*
X149276525Y-82943368D01*
X149114010Y-83186589D01*
X149002068Y-83456842D01*
X148945000Y-83743740D01*
X142415000Y-83743740D01*
X142415000Y-82365000D01*
X196545000Y-82365000D01*
X196545001Y-115995000D01*
G37*
%TD.AperFunction*%
%TD*%
M02*
