%TF.GenerationSoftware,KiCad,Pcbnew,(5.1.10-1-10_14)*%
%TF.CreationDate,2023-03-19T04:05:07+08:00*%
%TF.ProjectId,GB_MemoryBackup_Subboard_A,47425f4d-656d-46f7-9279-4261636b7570,1.0*%
%TF.SameCoordinates,Original*%
%TF.FileFunction,Soldermask,Top*%
%TF.FilePolarity,Negative*%
%FSLAX46Y46*%
G04 Gerber Fmt 4.6, Leading zero omitted, Abs format (unit mm)*
G04 Created by KiCad (PCBNEW (5.1.10-1-10_14)) date 2023-03-19 04:05:07*
%MOMM*%
%LPD*%
G01*
G04 APERTURE LIST*
%ADD10O,1.700000X1.700000*%
%ADD11R,1.700000X1.700000*%
%ADD12C,2.200000*%
G04 APERTURE END LIST*
D10*
%TO.C,J1*%
X150430000Y-83890000D03*
X150430000Y-86430000D03*
X152970000Y-83890000D03*
X152970000Y-86430000D03*
X155510000Y-83890000D03*
X155510000Y-86430000D03*
X158050000Y-83890000D03*
X158050000Y-86430000D03*
X160590000Y-83890000D03*
X160590000Y-86430000D03*
X163130000Y-83890000D03*
X163130000Y-86430000D03*
X165670000Y-83890000D03*
X165670000Y-86430000D03*
X168210000Y-83890000D03*
X168210000Y-86430000D03*
X170750000Y-83890000D03*
X170750000Y-86430000D03*
X173290000Y-83890000D03*
X173290000Y-86430000D03*
X175830000Y-83890000D03*
X175830000Y-86430000D03*
X178370000Y-83890000D03*
X178370000Y-86430000D03*
X180910000Y-83890000D03*
X180910000Y-86430000D03*
X183450000Y-83890000D03*
X183450000Y-86430000D03*
X185990000Y-83890000D03*
X185990000Y-86430000D03*
X188530000Y-83890000D03*
D11*
X188530000Y-86430000D03*
%TD*%
%TO.C,J2*%
G36*
G01*
X159280800Y-112340000D02*
X159280800Y-115840000D01*
G75*
G02*
X159230000Y-115890800I-50800J0D01*
G01*
X153730000Y-115890800D01*
G75*
G02*
X153679200Y-115840000I0J50800D01*
G01*
X153679200Y-112340000D01*
G75*
G02*
X153730000Y-112289200I50800J0D01*
G01*
X159230000Y-112289200D01*
G75*
G02*
X159280800Y-112340000I0J-50800D01*
G01*
G37*
G36*
G01*
X185280800Y-112340000D02*
X185280800Y-115840000D01*
G75*
G02*
X185230000Y-115890800I-50800J0D01*
G01*
X179730000Y-115890800D01*
G75*
G02*
X179679200Y-115840000I0J50800D01*
G01*
X179679200Y-112340000D01*
G75*
G02*
X179730000Y-112289200I50800J0D01*
G01*
X185230000Y-112289200D01*
G75*
G02*
X185280800Y-112340000I0J-50800D01*
G01*
G37*
G36*
G01*
X146730000Y-95390800D02*
X145730000Y-95390800D01*
G75*
G02*
X145679200Y-95340000I0J50800D01*
G01*
X145679200Y-90340000D01*
G75*
G02*
X145730000Y-90289200I50800J0D01*
G01*
X146730000Y-90289200D01*
G75*
G02*
X146780800Y-90340000I0J-50800D01*
G01*
X146780800Y-95340000D01*
G75*
G02*
X146730000Y-95390800I-50800J0D01*
G01*
G37*
G36*
G01*
X148230000Y-95390800D02*
X147230000Y-95390800D01*
G75*
G02*
X147179200Y-95340000I0J50800D01*
G01*
X147179200Y-90340000D01*
G75*
G02*
X147230000Y-90289200I50800J0D01*
G01*
X148230000Y-90289200D01*
G75*
G02*
X148280800Y-90340000I0J-50800D01*
G01*
X148280800Y-95340000D01*
G75*
G02*
X148230000Y-95390800I-50800J0D01*
G01*
G37*
G36*
G01*
X149730000Y-95390800D02*
X148730000Y-95390800D01*
G75*
G02*
X148679200Y-95340000I0J50800D01*
G01*
X148679200Y-90340000D01*
G75*
G02*
X148730000Y-90289200I50800J0D01*
G01*
X149730000Y-90289200D01*
G75*
G02*
X149780800Y-90340000I0J-50800D01*
G01*
X149780800Y-95340000D01*
G75*
G02*
X149730000Y-95390800I-50800J0D01*
G01*
G37*
G36*
G01*
X151230000Y-95390800D02*
X150230000Y-95390800D01*
G75*
G02*
X150179200Y-95340000I0J50800D01*
G01*
X150179200Y-90340000D01*
G75*
G02*
X150230000Y-90289200I50800J0D01*
G01*
X151230000Y-90289200D01*
G75*
G02*
X151280800Y-90340000I0J-50800D01*
G01*
X151280800Y-95340000D01*
G75*
G02*
X151230000Y-95390800I-50800J0D01*
G01*
G37*
G36*
G01*
X152730000Y-95390800D02*
X151730000Y-95390800D01*
G75*
G02*
X151679200Y-95340000I0J50800D01*
G01*
X151679200Y-90340000D01*
G75*
G02*
X151730000Y-90289200I50800J0D01*
G01*
X152730000Y-90289200D01*
G75*
G02*
X152780800Y-90340000I0J-50800D01*
G01*
X152780800Y-95340000D01*
G75*
G02*
X152730000Y-95390800I-50800J0D01*
G01*
G37*
G36*
G01*
X154230000Y-95390800D02*
X153230000Y-95390800D01*
G75*
G02*
X153179200Y-95340000I0J50800D01*
G01*
X153179200Y-90340000D01*
G75*
G02*
X153230000Y-90289200I50800J0D01*
G01*
X154230000Y-90289200D01*
G75*
G02*
X154280800Y-90340000I0J-50800D01*
G01*
X154280800Y-95340000D01*
G75*
G02*
X154230000Y-95390800I-50800J0D01*
G01*
G37*
G36*
G01*
X155730000Y-95390800D02*
X154730000Y-95390800D01*
G75*
G02*
X154679200Y-95340000I0J50800D01*
G01*
X154679200Y-90340000D01*
G75*
G02*
X154730000Y-90289200I50800J0D01*
G01*
X155730000Y-90289200D01*
G75*
G02*
X155780800Y-90340000I0J-50800D01*
G01*
X155780800Y-95340000D01*
G75*
G02*
X155730000Y-95390800I-50800J0D01*
G01*
G37*
G36*
G01*
X157230000Y-95390800D02*
X156230000Y-95390800D01*
G75*
G02*
X156179200Y-95340000I0J50800D01*
G01*
X156179200Y-90340000D01*
G75*
G02*
X156230000Y-90289200I50800J0D01*
G01*
X157230000Y-90289200D01*
G75*
G02*
X157280800Y-90340000I0J-50800D01*
G01*
X157280800Y-95340000D01*
G75*
G02*
X157230000Y-95390800I-50800J0D01*
G01*
G37*
G36*
G01*
X158730000Y-95390800D02*
X157730000Y-95390800D01*
G75*
G02*
X157679200Y-95340000I0J50800D01*
G01*
X157679200Y-90340000D01*
G75*
G02*
X157730000Y-90289200I50800J0D01*
G01*
X158730000Y-90289200D01*
G75*
G02*
X158780800Y-90340000I0J-50800D01*
G01*
X158780800Y-95340000D01*
G75*
G02*
X158730000Y-95390800I-50800J0D01*
G01*
G37*
G36*
G01*
X160230000Y-95390800D02*
X159230000Y-95390800D01*
G75*
G02*
X159179200Y-95340000I0J50800D01*
G01*
X159179200Y-90340000D01*
G75*
G02*
X159230000Y-90289200I50800J0D01*
G01*
X160230000Y-90289200D01*
G75*
G02*
X160280800Y-90340000I0J-50800D01*
G01*
X160280800Y-95340000D01*
G75*
G02*
X160230000Y-95390800I-50800J0D01*
G01*
G37*
G36*
G01*
X161730000Y-95390800D02*
X160730000Y-95390800D01*
G75*
G02*
X160679200Y-95340000I0J50800D01*
G01*
X160679200Y-90340000D01*
G75*
G02*
X160730000Y-90289200I50800J0D01*
G01*
X161730000Y-90289200D01*
G75*
G02*
X161780800Y-90340000I0J-50800D01*
G01*
X161780800Y-95340000D01*
G75*
G02*
X161730000Y-95390800I-50800J0D01*
G01*
G37*
G36*
G01*
X163230000Y-95390800D02*
X162230000Y-95390800D01*
G75*
G02*
X162179200Y-95340000I0J50800D01*
G01*
X162179200Y-90340000D01*
G75*
G02*
X162230000Y-90289200I50800J0D01*
G01*
X163230000Y-90289200D01*
G75*
G02*
X163280800Y-90340000I0J-50800D01*
G01*
X163280800Y-95340000D01*
G75*
G02*
X163230000Y-95390800I-50800J0D01*
G01*
G37*
G36*
G01*
X164730000Y-95390800D02*
X163730000Y-95390800D01*
G75*
G02*
X163679200Y-95340000I0J50800D01*
G01*
X163679200Y-90340000D01*
G75*
G02*
X163730000Y-90289200I50800J0D01*
G01*
X164730000Y-90289200D01*
G75*
G02*
X164780800Y-90340000I0J-50800D01*
G01*
X164780800Y-95340000D01*
G75*
G02*
X164730000Y-95390800I-50800J0D01*
G01*
G37*
G36*
G01*
X166230000Y-95390800D02*
X165230000Y-95390800D01*
G75*
G02*
X165179200Y-95340000I0J50800D01*
G01*
X165179200Y-90340000D01*
G75*
G02*
X165230000Y-90289200I50800J0D01*
G01*
X166230000Y-90289200D01*
G75*
G02*
X166280800Y-90340000I0J-50800D01*
G01*
X166280800Y-95340000D01*
G75*
G02*
X166230000Y-95390800I-50800J0D01*
G01*
G37*
G36*
G01*
X167730000Y-95390800D02*
X166730000Y-95390800D01*
G75*
G02*
X166679200Y-95340000I0J50800D01*
G01*
X166679200Y-90340000D01*
G75*
G02*
X166730000Y-90289200I50800J0D01*
G01*
X167730000Y-90289200D01*
G75*
G02*
X167780800Y-90340000I0J-50800D01*
G01*
X167780800Y-95340000D01*
G75*
G02*
X167730000Y-95390800I-50800J0D01*
G01*
G37*
G36*
G01*
X169230000Y-95390800D02*
X168230000Y-95390800D01*
G75*
G02*
X168179200Y-95340000I0J50800D01*
G01*
X168179200Y-90340000D01*
G75*
G02*
X168230000Y-90289200I50800J0D01*
G01*
X169230000Y-90289200D01*
G75*
G02*
X169280800Y-90340000I0J-50800D01*
G01*
X169280800Y-95340000D01*
G75*
G02*
X169230000Y-95390800I-50800J0D01*
G01*
G37*
G36*
G01*
X170730000Y-95390800D02*
X169730000Y-95390800D01*
G75*
G02*
X169679200Y-95340000I0J50800D01*
G01*
X169679200Y-90340000D01*
G75*
G02*
X169730000Y-90289200I50800J0D01*
G01*
X170730000Y-90289200D01*
G75*
G02*
X170780800Y-90340000I0J-50800D01*
G01*
X170780800Y-95340000D01*
G75*
G02*
X170730000Y-95390800I-50800J0D01*
G01*
G37*
G36*
G01*
X172230000Y-95390800D02*
X171230000Y-95390800D01*
G75*
G02*
X171179200Y-95340000I0J50800D01*
G01*
X171179200Y-90340000D01*
G75*
G02*
X171230000Y-90289200I50800J0D01*
G01*
X172230000Y-90289200D01*
G75*
G02*
X172280800Y-90340000I0J-50800D01*
G01*
X172280800Y-95340000D01*
G75*
G02*
X172230000Y-95390800I-50800J0D01*
G01*
G37*
G36*
G01*
X173730000Y-95390800D02*
X172730000Y-95390800D01*
G75*
G02*
X172679200Y-95340000I0J50800D01*
G01*
X172679200Y-90340000D01*
G75*
G02*
X172730000Y-90289200I50800J0D01*
G01*
X173730000Y-90289200D01*
G75*
G02*
X173780800Y-90340000I0J-50800D01*
G01*
X173780800Y-95340000D01*
G75*
G02*
X173730000Y-95390800I-50800J0D01*
G01*
G37*
G36*
G01*
X175230000Y-95390800D02*
X174230000Y-95390800D01*
G75*
G02*
X174179200Y-95340000I0J50800D01*
G01*
X174179200Y-90340000D01*
G75*
G02*
X174230000Y-90289200I50800J0D01*
G01*
X175230000Y-90289200D01*
G75*
G02*
X175280800Y-90340000I0J-50800D01*
G01*
X175280800Y-95340000D01*
G75*
G02*
X175230000Y-95390800I-50800J0D01*
G01*
G37*
G36*
G01*
X176730000Y-95390800D02*
X175730000Y-95390800D01*
G75*
G02*
X175679200Y-95340000I0J50800D01*
G01*
X175679200Y-90340000D01*
G75*
G02*
X175730000Y-90289200I50800J0D01*
G01*
X176730000Y-90289200D01*
G75*
G02*
X176780800Y-90340000I0J-50800D01*
G01*
X176780800Y-95340000D01*
G75*
G02*
X176730000Y-95390800I-50800J0D01*
G01*
G37*
G36*
G01*
X178230000Y-95390800D02*
X177230000Y-95390800D01*
G75*
G02*
X177179200Y-95340000I0J50800D01*
G01*
X177179200Y-90340000D01*
G75*
G02*
X177230000Y-90289200I50800J0D01*
G01*
X178230000Y-90289200D01*
G75*
G02*
X178280800Y-90340000I0J-50800D01*
G01*
X178280800Y-95340000D01*
G75*
G02*
X178230000Y-95390800I-50800J0D01*
G01*
G37*
G36*
G01*
X179730000Y-95390800D02*
X178730000Y-95390800D01*
G75*
G02*
X178679200Y-95340000I0J50800D01*
G01*
X178679200Y-90340000D01*
G75*
G02*
X178730000Y-90289200I50800J0D01*
G01*
X179730000Y-90289200D01*
G75*
G02*
X179780800Y-90340000I0J-50800D01*
G01*
X179780800Y-95340000D01*
G75*
G02*
X179730000Y-95390800I-50800J0D01*
G01*
G37*
G36*
G01*
X181230000Y-95390800D02*
X180230000Y-95390800D01*
G75*
G02*
X180179200Y-95340000I0J50800D01*
G01*
X180179200Y-90340000D01*
G75*
G02*
X180230000Y-90289200I50800J0D01*
G01*
X181230000Y-90289200D01*
G75*
G02*
X181280800Y-90340000I0J-50800D01*
G01*
X181280800Y-95340000D01*
G75*
G02*
X181230000Y-95390800I-50800J0D01*
G01*
G37*
G36*
G01*
X182730000Y-95390800D02*
X181730000Y-95390800D01*
G75*
G02*
X181679200Y-95340000I0J50800D01*
G01*
X181679200Y-90340000D01*
G75*
G02*
X181730000Y-90289200I50800J0D01*
G01*
X182730000Y-90289200D01*
G75*
G02*
X182780800Y-90340000I0J-50800D01*
G01*
X182780800Y-95340000D01*
G75*
G02*
X182730000Y-95390800I-50800J0D01*
G01*
G37*
G36*
G01*
X184230000Y-95390800D02*
X183230000Y-95390800D01*
G75*
G02*
X183179200Y-95340000I0J50800D01*
G01*
X183179200Y-90340000D01*
G75*
G02*
X183230000Y-90289200I50800J0D01*
G01*
X184230000Y-90289200D01*
G75*
G02*
X184280800Y-90340000I0J-50800D01*
G01*
X184280800Y-95340000D01*
G75*
G02*
X184230000Y-95390800I-50800J0D01*
G01*
G37*
G36*
G01*
X185730000Y-95390800D02*
X184730000Y-95390800D01*
G75*
G02*
X184679200Y-95340000I0J50800D01*
G01*
X184679200Y-90340000D01*
G75*
G02*
X184730000Y-90289200I50800J0D01*
G01*
X185730000Y-90289200D01*
G75*
G02*
X185780800Y-90340000I0J-50800D01*
G01*
X185780800Y-95340000D01*
G75*
G02*
X185730000Y-95390800I-50800J0D01*
G01*
G37*
G36*
G01*
X187230000Y-95390800D02*
X186230000Y-95390800D01*
G75*
G02*
X186179200Y-95340000I0J50800D01*
G01*
X186179200Y-90340000D01*
G75*
G02*
X186230000Y-90289200I50800J0D01*
G01*
X187230000Y-90289200D01*
G75*
G02*
X187280800Y-90340000I0J-50800D01*
G01*
X187280800Y-95340000D01*
G75*
G02*
X187230000Y-95390800I-50800J0D01*
G01*
G37*
G36*
G01*
X188730000Y-95390800D02*
X187730000Y-95390800D01*
G75*
G02*
X187679200Y-95340000I0J50800D01*
G01*
X187679200Y-90340000D01*
G75*
G02*
X187730000Y-90289200I50800J0D01*
G01*
X188730000Y-90289200D01*
G75*
G02*
X188780800Y-90340000I0J-50800D01*
G01*
X188780800Y-95340000D01*
G75*
G02*
X188730000Y-95390800I-50800J0D01*
G01*
G37*
G36*
G01*
X190230000Y-95390800D02*
X189230000Y-95390800D01*
G75*
G02*
X189179200Y-95340000I0J50800D01*
G01*
X189179200Y-90340000D01*
G75*
G02*
X189230000Y-90289200I50800J0D01*
G01*
X190230000Y-90289200D01*
G75*
G02*
X190280800Y-90340000I0J-50800D01*
G01*
X190280800Y-95340000D01*
G75*
G02*
X190230000Y-95390800I-50800J0D01*
G01*
G37*
G36*
G01*
X191730000Y-95390800D02*
X190730000Y-95390800D01*
G75*
G02*
X190679200Y-95340000I0J50800D01*
G01*
X190679200Y-90340000D01*
G75*
G02*
X190730000Y-90289200I50800J0D01*
G01*
X191730000Y-90289200D01*
G75*
G02*
X191780800Y-90340000I0J-50800D01*
G01*
X191780800Y-95340000D01*
G75*
G02*
X191730000Y-95390800I-50800J0D01*
G01*
G37*
G36*
G01*
X193230000Y-95390800D02*
X192230000Y-95390800D01*
G75*
G02*
X192179200Y-95340000I0J50800D01*
G01*
X192179200Y-90340000D01*
G75*
G02*
X192230000Y-90289200I50800J0D01*
G01*
X193230000Y-90289200D01*
G75*
G02*
X193280800Y-90340000I0J-50800D01*
G01*
X193280800Y-95340000D01*
G75*
G02*
X193230000Y-95390800I-50800J0D01*
G01*
G37*
D12*
X182480000Y-101340000D03*
X156480000Y-101340000D03*
%TD*%
M02*
