%TF.GenerationSoftware,KiCad,Pcbnew,(5.1.10-1-10_14)*%
%TF.CreationDate,2023-03-27T22:29:06+08:00*%
%TF.ProjectId,GB_MemoryBackup_Mainboard,47425f4d-656d-46f7-9279-4261636b7570,1.4*%
%TF.SameCoordinates,Original*%
%TF.FileFunction,Soldermask,Top*%
%TF.FilePolarity,Negative*%
%FSLAX46Y46*%
G04 Gerber Fmt 4.6, Leading zero omitted, Abs format (unit mm)*
G04 Created by KiCad (PCBNEW (5.1.10-1-10_14)) date 2023-03-27 22:29:06*
%MOMM*%
%LPD*%
G01*
G04 APERTURE LIST*
%ADD10O,1.700000X1.700000*%
%ADD11R,1.700000X1.700000*%
%ADD12O,1.600000X1.600000*%
%ADD13R,1.600000X1.600000*%
%ADD14C,1.524400*%
%ADD15R,1.300000X6.000000*%
%ADD16R,1.000000X5.500000*%
%ADD17O,3.102000X2.102000*%
%ADD18O,2.602000X1.702000*%
G04 APERTURE END LIST*
D10*
%TO.C,J4*%
X108650000Y-86660000D03*
X108650000Y-84120000D03*
X106110000Y-86660000D03*
X106110000Y-84120000D03*
X103570000Y-86660000D03*
X103570000Y-84120000D03*
X101030000Y-86660000D03*
X101030000Y-84120000D03*
X98490000Y-86660000D03*
X98490000Y-84120000D03*
X95950000Y-86660000D03*
X95950000Y-84120000D03*
X93410000Y-86660000D03*
X93410000Y-84120000D03*
X90870000Y-86660000D03*
X90870000Y-84120000D03*
X88330000Y-86660000D03*
X88330000Y-84120000D03*
X85790000Y-86660000D03*
X85790000Y-84120000D03*
X83250000Y-86660000D03*
X83250000Y-84120000D03*
X80710000Y-86660000D03*
X80710000Y-84120000D03*
X78170000Y-86660000D03*
X78170000Y-84120000D03*
X75630000Y-86660000D03*
X75630000Y-84120000D03*
X73090000Y-86660000D03*
X73090000Y-84120000D03*
X70550000Y-86660000D03*
D11*
X70550000Y-84120000D03*
%TD*%
D12*
%TO.C,U7*%
X93345000Y-34925000D03*
X100965000Y-57785000D03*
X93345000Y-37465000D03*
X100965000Y-55245000D03*
X93345000Y-40005000D03*
X100965000Y-52705000D03*
X93345000Y-42545000D03*
X100965000Y-50165000D03*
X93345000Y-45085000D03*
X100965000Y-47625000D03*
X93345000Y-47625000D03*
X100965000Y-45085000D03*
X93345000Y-50165000D03*
X100965000Y-42545000D03*
X93345000Y-52705000D03*
X100965000Y-40005000D03*
X93345000Y-55245000D03*
X100965000Y-37465000D03*
X93345000Y-57785000D03*
D13*
X100965000Y-34925000D03*
%TD*%
%TO.C,U5*%
G36*
G01*
X107545000Y-101750000D02*
X107545000Y-101450000D01*
G75*
G02*
X107695000Y-101300000I150000J0D01*
G01*
X109345000Y-101300000D01*
G75*
G02*
X109495000Y-101450000I0J-150000D01*
G01*
X109495000Y-101750000D01*
G75*
G02*
X109345000Y-101900000I-150000J0D01*
G01*
X107695000Y-101900000D01*
G75*
G02*
X107545000Y-101750000I0J150000D01*
G01*
G37*
G36*
G01*
X107545000Y-103020000D02*
X107545000Y-102720000D01*
G75*
G02*
X107695000Y-102570000I150000J0D01*
G01*
X109345000Y-102570000D01*
G75*
G02*
X109495000Y-102720000I0J-150000D01*
G01*
X109495000Y-103020000D01*
G75*
G02*
X109345000Y-103170000I-150000J0D01*
G01*
X107695000Y-103170000D01*
G75*
G02*
X107545000Y-103020000I0J150000D01*
G01*
G37*
G36*
G01*
X107545000Y-104290000D02*
X107545000Y-103990000D01*
G75*
G02*
X107695000Y-103840000I150000J0D01*
G01*
X109345000Y-103840000D01*
G75*
G02*
X109495000Y-103990000I0J-150000D01*
G01*
X109495000Y-104290000D01*
G75*
G02*
X109345000Y-104440000I-150000J0D01*
G01*
X107695000Y-104440000D01*
G75*
G02*
X107545000Y-104290000I0J150000D01*
G01*
G37*
G36*
G01*
X107545000Y-105560000D02*
X107545000Y-105260000D01*
G75*
G02*
X107695000Y-105110000I150000J0D01*
G01*
X109345000Y-105110000D01*
G75*
G02*
X109495000Y-105260000I0J-150000D01*
G01*
X109495000Y-105560000D01*
G75*
G02*
X109345000Y-105710000I-150000J0D01*
G01*
X107695000Y-105710000D01*
G75*
G02*
X107545000Y-105560000I0J150000D01*
G01*
G37*
G36*
G01*
X102595000Y-105560000D02*
X102595000Y-105260000D01*
G75*
G02*
X102745000Y-105110000I150000J0D01*
G01*
X104395000Y-105110000D01*
G75*
G02*
X104545000Y-105260000I0J-150000D01*
G01*
X104545000Y-105560000D01*
G75*
G02*
X104395000Y-105710000I-150000J0D01*
G01*
X102745000Y-105710000D01*
G75*
G02*
X102595000Y-105560000I0J150000D01*
G01*
G37*
G36*
G01*
X102595000Y-104290000D02*
X102595000Y-103990000D01*
G75*
G02*
X102745000Y-103840000I150000J0D01*
G01*
X104395000Y-103840000D01*
G75*
G02*
X104545000Y-103990000I0J-150000D01*
G01*
X104545000Y-104290000D01*
G75*
G02*
X104395000Y-104440000I-150000J0D01*
G01*
X102745000Y-104440000D01*
G75*
G02*
X102595000Y-104290000I0J150000D01*
G01*
G37*
G36*
G01*
X102595000Y-103020000D02*
X102595000Y-102720000D01*
G75*
G02*
X102745000Y-102570000I150000J0D01*
G01*
X104395000Y-102570000D01*
G75*
G02*
X104545000Y-102720000I0J-150000D01*
G01*
X104545000Y-103020000D01*
G75*
G02*
X104395000Y-103170000I-150000J0D01*
G01*
X102745000Y-103170000D01*
G75*
G02*
X102595000Y-103020000I0J150000D01*
G01*
G37*
G36*
G01*
X102595000Y-101750000D02*
X102595000Y-101450000D01*
G75*
G02*
X102745000Y-101300000I150000J0D01*
G01*
X104395000Y-101300000D01*
G75*
G02*
X104545000Y-101450000I0J-150000D01*
G01*
X104545000Y-101750000D01*
G75*
G02*
X104395000Y-101900000I-150000J0D01*
G01*
X102745000Y-101900000D01*
G75*
G02*
X102595000Y-101750000I0J150000D01*
G01*
G37*
%TD*%
D12*
%TO.C,U4*%
X114935000Y-63500000D03*
X76835000Y-78740000D03*
X112395000Y-63500000D03*
X79375000Y-78740000D03*
X109855000Y-63500000D03*
X81915000Y-78740000D03*
X107315000Y-63500000D03*
X84455000Y-78740000D03*
X104775000Y-63500000D03*
X86995000Y-78740000D03*
X102235000Y-63500000D03*
X89535000Y-78740000D03*
X99695000Y-63500000D03*
X92075000Y-78740000D03*
X97155000Y-63500000D03*
X94615000Y-78740000D03*
X94615000Y-63500000D03*
X97155000Y-78740000D03*
X92075000Y-63500000D03*
X99695000Y-78740000D03*
X89535000Y-63500000D03*
X102235000Y-78740000D03*
X86995000Y-63500000D03*
X104775000Y-78740000D03*
X84455000Y-63500000D03*
X107315000Y-78740000D03*
X81915000Y-63500000D03*
X109855000Y-78740000D03*
X79375000Y-63500000D03*
X112395000Y-78740000D03*
X76835000Y-63500000D03*
D13*
X114935000Y-78740000D03*
%TD*%
D14*
%TO.C,U3*%
X66675000Y-40640000D03*
X66675000Y-43180000D03*
X66675000Y-45720000D03*
X66675000Y-48260000D03*
X66675000Y-50800000D03*
X69215000Y-38100000D03*
X69215000Y-43180000D03*
X69215000Y-45720000D03*
X69215000Y-48260000D03*
X69215000Y-50800000D03*
X69215000Y-53340000D03*
X69215000Y-55880000D03*
X71755000Y-55880000D03*
X74295000Y-55880000D03*
X76835000Y-55880000D03*
X79375000Y-55880000D03*
X81915000Y-55880000D03*
X66675000Y-53340000D03*
X71755000Y-53340000D03*
X74295000Y-53340000D03*
X76835000Y-53340000D03*
X79375000Y-53340000D03*
X81915000Y-53340000D03*
X84455000Y-53340000D03*
X84455000Y-50800000D03*
X84455000Y-48260000D03*
X84455000Y-45720000D03*
X84455000Y-43180000D03*
X84455000Y-40640000D03*
X81915000Y-50800000D03*
X81915000Y-48260000D03*
X81915000Y-45720000D03*
X81915000Y-43180000D03*
X81915000Y-40640000D03*
X71755000Y-38100000D03*
X74295000Y-38100000D03*
X81915000Y-38100000D03*
X79375000Y-38100000D03*
X76835000Y-38100000D03*
X69215000Y-40640000D03*
X71755000Y-40640000D03*
X79375000Y-40640000D03*
X76835000Y-40640000D03*
G36*
G01*
X75057200Y-39928800D02*
X75057200Y-41351200D01*
G75*
G02*
X75006200Y-41402200I-51000J0D01*
G01*
X73583800Y-41402200D01*
G75*
G02*
X73532800Y-41351200I0J51000D01*
G01*
X73532800Y-39928800D01*
G75*
G02*
X73583800Y-39877800I51000J0D01*
G01*
X75006200Y-39877800D01*
G75*
G02*
X75057200Y-39928800I0J-51000D01*
G01*
G37*
%TD*%
%TO.C,U2*%
X72390000Y-16510000D03*
X72390000Y-19050000D03*
X72390000Y-21590000D03*
X72390000Y-24130000D03*
X74930000Y-19050000D03*
X74930000Y-21590000D03*
X74930000Y-24130000D03*
X74930000Y-26670000D03*
X74930000Y-29210000D03*
X77470000Y-29210000D03*
X80010000Y-29210000D03*
X82550000Y-29210000D03*
X72390000Y-26670000D03*
X77470000Y-26670000D03*
X80010000Y-26670000D03*
X82550000Y-26670000D03*
X85090000Y-26670000D03*
X85090000Y-24130000D03*
X85090000Y-21590000D03*
X85090000Y-19050000D03*
X85090000Y-16510000D03*
X82550000Y-24130000D03*
X82550000Y-21590000D03*
X82550000Y-19050000D03*
X82550000Y-16510000D03*
X74930000Y-13970000D03*
X77470000Y-13970000D03*
X82550000Y-13970000D03*
X80010000Y-13970000D03*
X74930000Y-16510000D03*
X80010000Y-16510000D03*
G36*
G01*
X78232200Y-15798800D02*
X78232200Y-17221200D01*
G75*
G02*
X78181200Y-17272200I-51000J0D01*
G01*
X76758800Y-17272200D01*
G75*
G02*
X76707800Y-17221200I0J51000D01*
G01*
X76707800Y-15798800D01*
G75*
G02*
X76758800Y-15747800I51000J0D01*
G01*
X78181200Y-15747800D01*
G75*
G02*
X78232200Y-15798800I0J-51000D01*
G01*
G37*
%TD*%
%TO.C,U1*%
X97790000Y-16510000D03*
X97790000Y-19050000D03*
X97790000Y-21590000D03*
X97790000Y-24130000D03*
X100330000Y-19050000D03*
X100330000Y-21590000D03*
X100330000Y-24130000D03*
X100330000Y-26670000D03*
X100330000Y-29210000D03*
X102870000Y-29210000D03*
X105410000Y-29210000D03*
X107950000Y-29210000D03*
X97790000Y-26670000D03*
X102870000Y-26670000D03*
X105410000Y-26670000D03*
X107950000Y-26670000D03*
X110490000Y-26670000D03*
X110490000Y-24130000D03*
X110490000Y-21590000D03*
X110490000Y-19050000D03*
X110490000Y-16510000D03*
X107950000Y-24130000D03*
X107950000Y-21590000D03*
X107950000Y-19050000D03*
X107950000Y-16510000D03*
X100330000Y-13970000D03*
X102870000Y-13970000D03*
X107950000Y-13970000D03*
X105410000Y-13970000D03*
X100330000Y-16510000D03*
X105410000Y-16510000D03*
G36*
G01*
X103632200Y-15798800D02*
X103632200Y-17221200D01*
G75*
G02*
X103581200Y-17272200I-51000J0D01*
G01*
X102158800Y-17272200D01*
G75*
G02*
X102107800Y-17221200I0J51000D01*
G01*
X102107800Y-15798800D01*
G75*
G02*
X102158800Y-15747800I51000J0D01*
G01*
X103581200Y-15747800D01*
G75*
G02*
X103632200Y-15798800I0J-51000D01*
G01*
G37*
%TD*%
%TO.C,C7*%
G36*
G01*
X96705000Y-34450000D02*
X96705000Y-35400000D01*
G75*
G02*
X96455000Y-35650000I-250000J0D01*
G01*
X95955000Y-35650000D01*
G75*
G02*
X95705000Y-35400000I0J250000D01*
G01*
X95705000Y-34450000D01*
G75*
G02*
X95955000Y-34200000I250000J0D01*
G01*
X96455000Y-34200000D01*
G75*
G02*
X96705000Y-34450000I0J-250000D01*
G01*
G37*
G36*
G01*
X98605000Y-34450000D02*
X98605000Y-35400000D01*
G75*
G02*
X98355000Y-35650000I-250000J0D01*
G01*
X97855000Y-35650000D01*
G75*
G02*
X97605000Y-35400000I0J250000D01*
G01*
X97605000Y-34450000D01*
G75*
G02*
X97855000Y-34200000I250000J0D01*
G01*
X98355000Y-34200000D01*
G75*
G02*
X98605000Y-34450000I0J-250000D01*
G01*
G37*
%TD*%
%TO.C,C5*%
G36*
G01*
X106495000Y-97630000D02*
X106495000Y-96680000D01*
G75*
G02*
X106745000Y-96430000I250000J0D01*
G01*
X107245000Y-96430000D01*
G75*
G02*
X107495000Y-96680000I0J-250000D01*
G01*
X107495000Y-97630000D01*
G75*
G02*
X107245000Y-97880000I-250000J0D01*
G01*
X106745000Y-97880000D01*
G75*
G02*
X106495000Y-97630000I0J250000D01*
G01*
G37*
G36*
G01*
X104595000Y-97630000D02*
X104595000Y-96680000D01*
G75*
G02*
X104845000Y-96430000I250000J0D01*
G01*
X105345000Y-96430000D01*
G75*
G02*
X105595000Y-96680000I0J-250000D01*
G01*
X105595000Y-97630000D01*
G75*
G02*
X105345000Y-97880000I-250000J0D01*
G01*
X104845000Y-97880000D01*
G75*
G02*
X104595000Y-97630000I0J250000D01*
G01*
G37*
%TD*%
%TO.C,C4*%
G36*
G01*
X115410000Y-68130000D02*
X114460000Y-68130000D01*
G75*
G02*
X114210000Y-67880000I0J250000D01*
G01*
X114210000Y-67380000D01*
G75*
G02*
X114460000Y-67130000I250000J0D01*
G01*
X115410000Y-67130000D01*
G75*
G02*
X115660000Y-67380000I0J-250000D01*
G01*
X115660000Y-67880000D01*
G75*
G02*
X115410000Y-68130000I-250000J0D01*
G01*
G37*
G36*
G01*
X115410000Y-70030000D02*
X114460000Y-70030000D01*
G75*
G02*
X114210000Y-69780000I0J250000D01*
G01*
X114210000Y-69280000D01*
G75*
G02*
X114460000Y-69030000I250000J0D01*
G01*
X115410000Y-69030000D01*
G75*
G02*
X115660000Y-69280000I0J-250000D01*
G01*
X115660000Y-69780000D01*
G75*
G02*
X115410000Y-70030000I-250000J0D01*
G01*
G37*
%TD*%
%TO.C,BT1*%
G36*
G01*
X72295000Y-95104000D02*
X76295000Y-95104000D01*
G75*
G02*
X76346000Y-95155000I0J-51000D01*
G01*
X76346000Y-98555000D01*
G75*
G02*
X76295000Y-98606000I-51000J0D01*
G01*
X72295000Y-98606000D01*
G75*
G02*
X72244000Y-98555000I0J51000D01*
G01*
X72244000Y-95155000D01*
G75*
G02*
X72295000Y-95104000I51000J0D01*
G01*
G37*
G36*
G01*
X72295000Y-121104000D02*
X76295000Y-121104000D01*
G75*
G02*
X76346000Y-121155000I0J-51000D01*
G01*
X76346000Y-124555000D01*
G75*
G02*
X76295000Y-124606000I-51000J0D01*
G01*
X72295000Y-124606000D01*
G75*
G02*
X72244000Y-124555000I0J51000D01*
G01*
X72244000Y-121155000D01*
G75*
G02*
X72295000Y-121104000I51000J0D01*
G01*
G37*
%TD*%
D15*
%TO.C,J1*%
X113000000Y-151500000D03*
D16*
X111350000Y-151250000D03*
X109850000Y-151250000D03*
X108350000Y-151250000D03*
X106850000Y-151250000D03*
X105350000Y-151250000D03*
X103850000Y-151250000D03*
X102350000Y-151250000D03*
X100850000Y-151250000D03*
X99350000Y-151250000D03*
X97850000Y-151250000D03*
X96350000Y-151250000D03*
X94850000Y-151250000D03*
X93350000Y-151250000D03*
X91850000Y-151250000D03*
X90350000Y-151250000D03*
X88850000Y-151250000D03*
X87350000Y-151250000D03*
X85850000Y-151250000D03*
X84350000Y-151250000D03*
X82850000Y-151250000D03*
X81350000Y-151250000D03*
X79850000Y-151250000D03*
X78350000Y-151250000D03*
X76850000Y-151250000D03*
X75350000Y-151250000D03*
X73850000Y-151250000D03*
X72350000Y-151250000D03*
X70850000Y-151250000D03*
X69350000Y-151250000D03*
X67850000Y-151250000D03*
D15*
X66200000Y-151500000D03*
%TD*%
D17*
%TO.C,SW1*%
X64770000Y-20615000D03*
X64770000Y-28915000D03*
D18*
X64770000Y-22765000D03*
X64770000Y-24765000D03*
G36*
G01*
X66020000Y-27616000D02*
X63520000Y-27616000D01*
G75*
G02*
X63469000Y-27565000I0J51000D01*
G01*
X63469000Y-25965000D01*
G75*
G02*
X63520000Y-25914000I51000J0D01*
G01*
X66020000Y-25914000D01*
G75*
G02*
X66071000Y-25965000I0J-51000D01*
G01*
X66071000Y-27565000D01*
G75*
G02*
X66020000Y-27616000I-51000J0D01*
G01*
G37*
%TD*%
%TO.C,R13*%
G36*
G01*
X70720000Y-65589998D02*
X70720000Y-66490002D01*
G75*
G02*
X70470002Y-66740000I-249998J0D01*
G01*
X69944998Y-66740000D01*
G75*
G02*
X69695000Y-66490002I0J249998D01*
G01*
X69695000Y-65589998D01*
G75*
G02*
X69944998Y-65340000I249998J0D01*
G01*
X70470002Y-65340000D01*
G75*
G02*
X70720000Y-65589998I0J-249998D01*
G01*
G37*
G36*
G01*
X72545000Y-65589998D02*
X72545000Y-66490002D01*
G75*
G02*
X72295002Y-66740000I-249998J0D01*
G01*
X71769998Y-66740000D01*
G75*
G02*
X71520000Y-66490002I0J249998D01*
G01*
X71520000Y-65589998D01*
G75*
G02*
X71769998Y-65340000I249998J0D01*
G01*
X72295002Y-65340000D01*
G75*
G02*
X72545000Y-65589998I0J-249998D01*
G01*
G37*
%TD*%
%TO.C,R12*%
G36*
G01*
X70720000Y-75749998D02*
X70720000Y-76650002D01*
G75*
G02*
X70470002Y-76900000I-249998J0D01*
G01*
X69944998Y-76900000D01*
G75*
G02*
X69695000Y-76650002I0J249998D01*
G01*
X69695000Y-75749998D01*
G75*
G02*
X69944998Y-75500000I249998J0D01*
G01*
X70470002Y-75500000D01*
G75*
G02*
X70720000Y-75749998I0J-249998D01*
G01*
G37*
G36*
G01*
X72545000Y-75749998D02*
X72545000Y-76650002D01*
G75*
G02*
X72295002Y-76900000I-249998J0D01*
G01*
X71769998Y-76900000D01*
G75*
G02*
X71520000Y-76650002I0J249998D01*
G01*
X71520000Y-75749998D01*
G75*
G02*
X71769998Y-75500000I249998J0D01*
G01*
X72295002Y-75500000D01*
G75*
G02*
X72545000Y-75749998I0J-249998D01*
G01*
G37*
%TD*%
%TO.C,R11*%
G36*
G01*
X70720000Y-70669998D02*
X70720000Y-71570002D01*
G75*
G02*
X70470002Y-71820000I-249998J0D01*
G01*
X69944998Y-71820000D01*
G75*
G02*
X69695000Y-71570002I0J249998D01*
G01*
X69695000Y-70669998D01*
G75*
G02*
X69944998Y-70420000I249998J0D01*
G01*
X70470002Y-70420000D01*
G75*
G02*
X70720000Y-70669998I0J-249998D01*
G01*
G37*
G36*
G01*
X72545000Y-70669998D02*
X72545000Y-71570002D01*
G75*
G02*
X72295002Y-71820000I-249998J0D01*
G01*
X71769998Y-71820000D01*
G75*
G02*
X71520000Y-71570002I0J249998D01*
G01*
X71520000Y-70669998D01*
G75*
G02*
X71769998Y-70420000I249998J0D01*
G01*
X72295002Y-70420000D01*
G75*
G02*
X72545000Y-70669998I0J-249998D01*
G01*
G37*
%TD*%
%TO.C,R1*%
G36*
G01*
X64535000Y-16960002D02*
X64535000Y-16059998D01*
G75*
G02*
X64784998Y-15810000I249998J0D01*
G01*
X65310002Y-15810000D01*
G75*
G02*
X65560000Y-16059998I0J-249998D01*
G01*
X65560000Y-16960002D01*
G75*
G02*
X65310002Y-17210000I-249998J0D01*
G01*
X64784998Y-17210000D01*
G75*
G02*
X64535000Y-16960002I0J249998D01*
G01*
G37*
G36*
G01*
X62710000Y-16960002D02*
X62710000Y-16059998D01*
G75*
G02*
X62959998Y-15810000I249998J0D01*
G01*
X63485002Y-15810000D01*
G75*
G02*
X63735000Y-16059998I0J-249998D01*
G01*
X63735000Y-16960002D01*
G75*
G02*
X63485002Y-17210000I-249998J0D01*
G01*
X62959998Y-17210000D01*
G75*
G02*
X62710000Y-16960002I0J249998D01*
G01*
G37*
%TD*%
D11*
%TO.C,J3*%
X67310000Y-66040000D03*
D10*
X64770000Y-66040000D03*
X67310000Y-68580000D03*
X64770000Y-68580000D03*
X67310000Y-71120000D03*
X64770000Y-71120000D03*
X67310000Y-73660000D03*
X64770000Y-73660000D03*
X67310000Y-76200000D03*
X64770000Y-76200000D03*
%TD*%
%TO.C,C3*%
G36*
G01*
X78925000Y-33180000D02*
X78925000Y-34130000D01*
G75*
G02*
X78675000Y-34380000I-250000J0D01*
G01*
X78175000Y-34380000D01*
G75*
G02*
X77925000Y-34130000I0J250000D01*
G01*
X77925000Y-33180000D01*
G75*
G02*
X78175000Y-32930000I250000J0D01*
G01*
X78675000Y-32930000D01*
G75*
G02*
X78925000Y-33180000I0J-250000D01*
G01*
G37*
G36*
G01*
X80825000Y-33180000D02*
X80825000Y-34130000D01*
G75*
G02*
X80575000Y-34380000I-250000J0D01*
G01*
X80075000Y-34380000D01*
G75*
G02*
X79825000Y-34130000I0J250000D01*
G01*
X79825000Y-33180000D01*
G75*
G02*
X80075000Y-32930000I250000J0D01*
G01*
X80575000Y-32930000D01*
G75*
G02*
X80825000Y-33180000I0J-250000D01*
G01*
G37*
%TD*%
%TO.C,C2*%
G36*
G01*
X68420000Y-14155000D02*
X67470000Y-14155000D01*
G75*
G02*
X67220000Y-13905000I0J250000D01*
G01*
X67220000Y-13405000D01*
G75*
G02*
X67470000Y-13155000I250000J0D01*
G01*
X68420000Y-13155000D01*
G75*
G02*
X68670000Y-13405000I0J-250000D01*
G01*
X68670000Y-13905000D01*
G75*
G02*
X68420000Y-14155000I-250000J0D01*
G01*
G37*
G36*
G01*
X68420000Y-16055000D02*
X67470000Y-16055000D01*
G75*
G02*
X67220000Y-15805000I0J250000D01*
G01*
X67220000Y-15305000D01*
G75*
G02*
X67470000Y-15055000I250000J0D01*
G01*
X68420000Y-15055000D01*
G75*
G02*
X68670000Y-15305000I0J-250000D01*
G01*
X68670000Y-15805000D01*
G75*
G02*
X68420000Y-16055000I-250000J0D01*
G01*
G37*
%TD*%
%TO.C,C1*%
G36*
G01*
X93820000Y-14155000D02*
X92870000Y-14155000D01*
G75*
G02*
X92620000Y-13905000I0J250000D01*
G01*
X92620000Y-13405000D01*
G75*
G02*
X92870000Y-13155000I250000J0D01*
G01*
X93820000Y-13155000D01*
G75*
G02*
X94070000Y-13405000I0J-250000D01*
G01*
X94070000Y-13905000D01*
G75*
G02*
X93820000Y-14155000I-250000J0D01*
G01*
G37*
G36*
G01*
X93820000Y-16055000D02*
X92870000Y-16055000D01*
G75*
G02*
X92620000Y-15805000I0J250000D01*
G01*
X92620000Y-15305000D01*
G75*
G02*
X92870000Y-15055000I250000J0D01*
G01*
X93820000Y-15055000D01*
G75*
G02*
X94070000Y-15305000I0J-250000D01*
G01*
X94070000Y-15805000D01*
G75*
G02*
X93820000Y-16055000I-250000J0D01*
G01*
G37*
%TD*%
M02*
