M48
; DRILL file {KiCad (5.1.10-1-10_14)} date Monday, March 27, 2023 at 10:58:28 PM
; FORMAT={-:-/ absolute / metric / decimal}
; #@! TF.CreationDate,2023-03-27T22:58:28+08:00
; #@! TF.GenerationSoftware,Kicad,Pcbnew,(5.1.10-1-10_14)
FMAT,2
METRIC
T1C0.400
T2C0.800
T3C1.000
%
G90
G05
T1
X62.982Y-45.401
X63.502Y-83.485
X68.092Y-82.249
X68.215Y-24.923
X68.936Y-34.1
X69.38Y-90.72
X70.273Y-35.449
X71.082Y-33.504
X71.28Y-32.504
X71.314Y-31.48
X71.43Y-48.26
X73.185Y-60.94
X73.354Y-32.623
X74.937Y-36.32
X75.087Y-79.628
X75.275Y-66.484
X75.585Y-93.512
X75.72Y-100.22
X76.348Y-11.81
X77.47Y-21.79
X78.374Y-36.44
X78.766Y-21.06
X79.413Y-35.278
X81.628Y-58.951
X81.92Y-69.1
X82.188Y-31.898
X83.44Y-60.78
X84.142Y-35.914
X84.455Y-68.582
X84.49Y-11.895
X85.605Y-41.364
X85.709Y-29.34
X85.791Y-94.761
X85.983Y-38.251
X86.152Y-27.66
X86.31Y-53.64
X86.88Y-14.281
X86.991Y-85.258
X86.995Y-69.665
X87.602Y-27.255
X88.258Y-77.351
X89.84Y-58.725
X90.202Y-76.868
X90.205Y-24.345
X90.205Y-30.324
X91.489Y-22.584
X92.16Y-43.744
X92.682Y-74.642
X93.214Y-67.85
X94.642Y-31.897
X94.689Y-53.807
X95.667Y-31.943
X96.174Y-99.245
X96.43Y-109.88
X97.724Y-72.72
X97.94Y-65.36
X98.982Y-36.082
X99.311Y-30.776
X99.386Y-72.108
X100.258Y-61.677
X100.501Y-60.659
X100.575Y-73.297
X101.815Y-98.995
X103.334Y-57.858
X103.55Y-106.55
X103.57Y-76.5
X103.659Y-48.189
X103.81Y-60.64
X103.92Y-64.632
X105.72Y-106.49
X106.995Y-98.541
X107.315Y-57.105
X107.709Y-80.289
X108.765Y-77.501
X111.1Y-85.76
X113.27Y-61.69
X114.98Y-85.59
T2
X66.675Y-40.64
X66.675Y-43.18
X66.675Y-45.72
X66.675Y-48.26
X66.675Y-50.8
X66.675Y-53.34
X69.215Y-38.1
X69.215Y-40.64
X69.215Y-43.18
X69.215Y-45.72
X69.215Y-48.26
X69.215Y-50.8
X69.215Y-53.34
X69.215Y-55.88
X71.755Y-38.1
X71.755Y-40.64
X71.755Y-53.34
X71.755Y-55.88
X72.39Y-16.51
X72.39Y-19.05
X72.39Y-21.59
X72.39Y-24.13
X72.39Y-26.67
X74.295Y-38.1
X74.295Y-40.64
X74.295Y-53.34
X74.295Y-55.88
X74.93Y-13.97
X74.93Y-16.51
X74.93Y-19.05
X74.93Y-21.59
X74.93Y-24.13
X74.93Y-26.67
X74.93Y-29.21
X76.835Y-38.1
X76.835Y-40.64
X76.835Y-53.34
X76.835Y-55.88
X76.835Y-63.5
X76.835Y-78.74
X77.47Y-13.97
X77.47Y-16.51
X77.47Y-26.67
X77.47Y-29.21
X79.375Y-38.1
X79.375Y-40.64
X79.375Y-53.34
X79.375Y-55.88
X79.375Y-63.5
X79.375Y-78.74
X80.01Y-13.97
X80.01Y-16.51
X80.01Y-26.67
X80.01Y-29.21
X81.915Y-38.1
X81.915Y-40.64
X81.915Y-43.18
X81.915Y-45.72
X81.915Y-48.26
X81.915Y-50.8
X81.915Y-53.34
X81.915Y-55.88
X81.915Y-63.5
X81.915Y-78.74
X82.55Y-13.97
X82.55Y-16.51
X82.55Y-19.05
X82.55Y-21.59
X82.55Y-24.13
X82.55Y-26.67
X82.55Y-29.21
X84.455Y-40.64
X84.455Y-43.18
X84.455Y-45.72
X84.455Y-48.26
X84.455Y-50.8
X84.455Y-53.34
X84.455Y-63.5
X84.455Y-78.74
X85.09Y-16.51
X85.09Y-19.05
X85.09Y-21.59
X85.09Y-24.13
X85.09Y-26.67
X86.995Y-63.5
X86.995Y-78.74
X89.535Y-63.5
X89.535Y-78.74
X92.075Y-63.5
X92.075Y-78.74
X93.345Y-34.925
X93.345Y-37.465
X93.345Y-40.005
X93.345Y-42.545
X93.345Y-45.085
X93.345Y-47.625
X93.345Y-50.165
X93.345Y-52.705
X93.345Y-55.245
X93.345Y-57.785
X94.615Y-63.5
X94.615Y-78.74
X97.155Y-63.5
X97.155Y-78.74
X97.79Y-16.51
X97.79Y-19.05
X97.79Y-21.59
X97.79Y-24.13
X97.79Y-26.67
X99.695Y-63.5
X99.695Y-78.74
X100.33Y-13.97
X100.33Y-16.51
X100.33Y-19.05
X100.33Y-21.59
X100.33Y-24.13
X100.33Y-26.67
X100.33Y-29.21
X100.965Y-34.925
X100.965Y-37.465
X100.965Y-40.005
X100.965Y-42.545
X100.965Y-45.085
X100.965Y-47.625
X100.965Y-50.165
X100.965Y-52.705
X100.965Y-55.245
X100.965Y-57.785
X102.235Y-63.5
X102.235Y-78.74
X102.87Y-13.97
X102.87Y-16.51
X102.87Y-26.67
X102.87Y-29.21
X104.775Y-63.5
X104.775Y-78.74
X105.41Y-13.97
X105.41Y-16.51
X105.41Y-26.67
X105.41Y-29.21
X107.315Y-63.5
X107.315Y-78.74
X107.95Y-13.97
X107.95Y-16.51
X107.95Y-19.05
X107.95Y-21.59
X107.95Y-24.13
X107.95Y-26.67
X107.95Y-29.21
X109.855Y-63.5
X109.855Y-78.74
X110.49Y-16.51
X110.49Y-19.05
X110.49Y-21.59
X110.49Y-24.13
X110.49Y-26.67
X112.395Y-63.5
X112.395Y-78.74
X114.935Y-63.5
X114.935Y-78.74
T3
X64.77Y-22.765
X64.77Y-24.765
X64.77Y-26.765
X64.77Y-66.04
X64.77Y-68.58
X64.77Y-71.12
X64.77Y-73.66
X64.77Y-76.2
X67.31Y-66.04
X67.31Y-68.58
X67.31Y-71.12
X67.31Y-73.66
X67.31Y-76.2
X70.55Y-84.12
X70.55Y-86.66
X73.09Y-84.12
X73.09Y-86.66
X75.63Y-84.12
X75.63Y-86.66
X78.17Y-84.12
X78.17Y-86.66
X80.71Y-84.12
X80.71Y-86.66
X83.25Y-84.12
X83.25Y-86.66
X85.79Y-84.12
X85.79Y-86.66
X88.33Y-84.12
X88.33Y-86.66
X90.87Y-84.12
X90.87Y-86.66
X93.41Y-84.12
X93.41Y-86.66
X95.95Y-84.12
X95.95Y-86.66
X98.49Y-84.12
X98.49Y-86.66
X101.03Y-84.12
X101.03Y-86.66
X103.57Y-84.12
X103.57Y-86.66
X106.11Y-84.12
X106.11Y-86.66
X108.65Y-84.12
X108.65Y-86.66
T3
G00X64.37Y-20.615
M15
G01X65.17Y-20.615
M16
G05
G00X64.37Y-28.915
M15
G01X65.17Y-28.915
M16
G05
T0
M30
