%TF.GenerationSoftware,KiCad,Pcbnew,(5.1.10-1-10_14)*%
%TF.CreationDate,2023-03-27T22:29:06+08:00*%
%TF.ProjectId,GB_MemoryBackup_Mainboard,47425f4d-656d-46f7-9279-4261636b7570,1.4*%
%TF.SameCoordinates,Original*%
%TF.FileFunction,Copper,L2,Bot*%
%TF.FilePolarity,Positive*%
%FSLAX46Y46*%
G04 Gerber Fmt 4.6, Leading zero omitted, Abs format (unit mm)*
G04 Created by KiCad (PCBNEW (5.1.10-1-10_14)) date 2023-03-27 22:29:06*
%MOMM*%
%LPD*%
G01*
G04 APERTURE LIST*
%TA.AperFunction,ComponentPad*%
%ADD10O,1.700000X1.700000*%
%TD*%
%TA.AperFunction,ComponentPad*%
%ADD11R,1.700000X1.700000*%
%TD*%
%TA.AperFunction,ComponentPad*%
%ADD12O,1.600000X1.600000*%
%TD*%
%TA.AperFunction,ComponentPad*%
%ADD13R,1.600000X1.600000*%
%TD*%
%TA.AperFunction,ComponentPad*%
%ADD14C,1.422400*%
%TD*%
%TA.AperFunction,ComponentPad*%
%ADD15R,1.422400X1.422400*%
%TD*%
%TA.AperFunction,ComponentPad*%
%ADD16O,3.000000X2.000000*%
%TD*%
%TA.AperFunction,ComponentPad*%
%ADD17O,2.500000X1.600000*%
%TD*%
%TA.AperFunction,ComponentPad*%
%ADD18R,2.500000X1.600000*%
%TD*%
%TA.AperFunction,ViaPad*%
%ADD19C,0.800000*%
%TD*%
%TA.AperFunction,Conductor*%
%ADD20C,0.500000*%
%TD*%
%TA.AperFunction,Conductor*%
%ADD21C,0.250000*%
%TD*%
%TA.AperFunction,Conductor*%
%ADD22C,0.254000*%
%TD*%
%TA.AperFunction,Conductor*%
%ADD23C,0.100000*%
%TD*%
G04 APERTURE END LIST*
D10*
%TO.P,J4,32*%
%TO.N,GND*%
X108650000Y-86660000D03*
%TO.P,J4,31*%
%TO.N,/AAudioIn*%
X108650000Y-84120000D03*
%TO.P,J4,30*%
%TO.N,/~ARST*%
X106110000Y-86660000D03*
%TO.P,J4,29*%
%TO.N,/AD7*%
X106110000Y-84120000D03*
%TO.P,J4,28*%
%TO.N,/AD6*%
X103570000Y-86660000D03*
%TO.P,J4,27*%
%TO.N,/AD5*%
X103570000Y-84120000D03*
%TO.P,J4,26*%
%TO.N,/AD4*%
X101030000Y-86660000D03*
%TO.P,J4,25*%
%TO.N,/AD3*%
X101030000Y-84120000D03*
%TO.P,J4,24*%
%TO.N,/AD2*%
X98490000Y-86660000D03*
%TO.P,J4,23*%
%TO.N,/AD1*%
X98490000Y-84120000D03*
%TO.P,J4,22*%
%TO.N,/AD0*%
X95950000Y-86660000D03*
%TO.P,J4,21*%
%TO.N,/AA15_T*%
X95950000Y-84120000D03*
%TO.P,J4,20*%
%TO.N,/AA14*%
X93410000Y-86660000D03*
%TO.P,J4,19*%
%TO.N,/AA13*%
X93410000Y-84120000D03*
%TO.P,J4,18*%
%TO.N,/AA12*%
X90870000Y-86660000D03*
%TO.P,J4,17*%
%TO.N,/AA11*%
X90870000Y-84120000D03*
%TO.P,J4,16*%
%TO.N,/AA10*%
X88330000Y-86660000D03*
%TO.P,J4,15*%
%TO.N,/AA9*%
X88330000Y-84120000D03*
%TO.P,J4,14*%
%TO.N,/AA8*%
X85790000Y-86660000D03*
%TO.P,J4,13*%
%TO.N,/AA7*%
X85790000Y-84120000D03*
%TO.P,J4,12*%
%TO.N,/AA6*%
X83250000Y-86660000D03*
%TO.P,J4,11*%
%TO.N,/AA5*%
X83250000Y-84120000D03*
%TO.P,J4,10*%
%TO.N,/AA4*%
X80710000Y-86660000D03*
%TO.P,J4,9*%
%TO.N,/AA3*%
X80710000Y-84120000D03*
%TO.P,J4,8*%
%TO.N,/AA2*%
X78170000Y-86660000D03*
%TO.P,J4,7*%
%TO.N,/AA1*%
X78170000Y-84120000D03*
%TO.P,J4,6*%
%TO.N,/AA0*%
X75630000Y-86660000D03*
%TO.P,J4,5*%
%TO.N,/~ASRAM_CS*%
X75630000Y-84120000D03*
%TO.P,J4,4*%
%TO.N,/~ARD_T*%
X73090000Y-86660000D03*
%TO.P,J4,3*%
%TO.N,/~AWR_T*%
X73090000Y-84120000D03*
%TO.P,J4,2*%
%TO.N,/ACLK*%
X70550000Y-86660000D03*
D11*
%TO.P,J4,1*%
%TO.N,+5V*%
X70550000Y-84120000D03*
%TD*%
D12*
%TO.P,U7,20*%
%TO.N,+5V*%
X93345000Y-34925000D03*
%TO.P,U7,10*%
%TO.N,GND*%
X100965000Y-57785000D03*
%TO.P,U7,19*%
%TO.N,N/C*%
X93345000Y-37465000D03*
%TO.P,U7,9*%
%TO.N,/F040_A17*%
X100965000Y-55245000D03*
%TO.P,U7,18*%
%TO.N,GND*%
X93345000Y-40005000D03*
%TO.P,U7,8*%
%TO.N,/AD3*%
X100965000Y-52705000D03*
%TO.P,U7,17*%
%TO.N,GND*%
X93345000Y-42545000D03*
%TO.P,U7,7*%
%TO.N,/AD2*%
X100965000Y-50165000D03*
%TO.P,U7,16*%
%TO.N,N/C*%
X93345000Y-45085000D03*
%TO.P,U7,6*%
%TO.N,/F040_A16*%
X100965000Y-47625000D03*
%TO.P,U7,15*%
%TO.N,N/C*%
X93345000Y-47625000D03*
%TO.P,U7,5*%
%TO.N,/F040_A15*%
X100965000Y-45085000D03*
%TO.P,U7,14*%
%TO.N,GND*%
X93345000Y-50165000D03*
%TO.P,U7,4*%
%TO.N,/AD1*%
X100965000Y-42545000D03*
%TO.P,U7,13*%
%TO.N,/AD4*%
X93345000Y-52705000D03*
%TO.P,U7,3*%
%TO.N,/AD0*%
X100965000Y-40005000D03*
%TO.P,U7,12*%
%TO.N,/F040_A18*%
X93345000Y-55245000D03*
%TO.P,U7,2*%
%TO.N,/F040_A14*%
X100965000Y-37465000D03*
%TO.P,U7,11*%
%TO.N,/HC373_040_LE*%
X93345000Y-57785000D03*
D13*
%TO.P,U7,1*%
%TO.N,GND*%
X100965000Y-34925000D03*
%TD*%
D12*
%TO.P,U4,32*%
%TO.N,VMEM*%
X114935000Y-63500000D03*
%TO.P,U4,16*%
%TO.N,GND*%
X76835000Y-78740000D03*
%TO.P,U4,31*%
%TO.N,/RAM_A15*%
X112395000Y-63500000D03*
%TO.P,U4,15*%
%TO.N,/AD2*%
X79375000Y-78740000D03*
%TO.P,U4,30*%
%TO.N,/RAM_CE2*%
X109855000Y-63500000D03*
%TO.P,U4,14*%
%TO.N,/AD1*%
X81915000Y-78740000D03*
%TO.P,U4,29*%
%TO.N,/~AWR*%
X107315000Y-63500000D03*
%TO.P,U4,13*%
%TO.N,/AD0*%
X84455000Y-78740000D03*
%TO.P,U4,28*%
%TO.N,/AA13*%
X104775000Y-63500000D03*
%TO.P,U4,12*%
%TO.N,/AA0*%
X86995000Y-78740000D03*
%TO.P,U4,27*%
%TO.N,/AA8*%
X102235000Y-63500000D03*
%TO.P,U4,11*%
%TO.N,/AA1*%
X89535000Y-78740000D03*
%TO.P,U4,26*%
%TO.N,/AA9*%
X99695000Y-63500000D03*
%TO.P,U4,10*%
%TO.N,/AA2*%
X92075000Y-78740000D03*
%TO.P,U4,25*%
%TO.N,/AA11*%
X97155000Y-63500000D03*
%TO.P,U4,9*%
%TO.N,/AA3*%
X94615000Y-78740000D03*
%TO.P,U4,24*%
%TO.N,/~ARD*%
X94615000Y-63500000D03*
%TO.P,U4,8*%
%TO.N,/AA4*%
X97155000Y-78740000D03*
%TO.P,U4,23*%
%TO.N,/AA10*%
X92075000Y-63500000D03*
%TO.P,U4,7*%
%TO.N,/AA5*%
X99695000Y-78740000D03*
%TO.P,U4,22*%
%TO.N,/~RAM_CE*%
X89535000Y-63500000D03*
%TO.P,U4,6*%
%TO.N,/AA6*%
X102235000Y-78740000D03*
%TO.P,U4,21*%
%TO.N,/AD7*%
X86995000Y-63500000D03*
%TO.P,U4,5*%
%TO.N,/AA7*%
X104775000Y-78740000D03*
%TO.P,U4,20*%
%TO.N,/AD6*%
X84455000Y-63500000D03*
%TO.P,U4,4*%
%TO.N,/AA12*%
X107315000Y-78740000D03*
%TO.P,U4,19*%
%TO.N,/AD5*%
X81915000Y-63500000D03*
%TO.P,U4,3*%
%TO.N,/RAM_A14*%
X109855000Y-78740000D03*
%TO.P,U4,18*%
%TO.N,/AD4*%
X79375000Y-63500000D03*
%TO.P,U4,2*%
%TO.N,/RAM_A16*%
X112395000Y-78740000D03*
%TO.P,U4,17*%
%TO.N,/AD3*%
X76835000Y-63500000D03*
D13*
%TO.P,U4,1*%
%TO.N,N/C*%
X114935000Y-78740000D03*
%TD*%
D14*
%TO.P,U3,39*%
%TO.N,/F010_A18*%
X66675000Y-40640000D03*
%TO.P,U3,37*%
%TO.N,/F010_A17*%
X66675000Y-43180000D03*
%TO.P,U3,35*%
%TO.N,+5V*%
X66675000Y-45720000D03*
%TO.P,U3,33*%
%TO.N,/F010_A14*%
X66675000Y-48260000D03*
%TO.P,U3,31*%
%TO.N,/~F_CE_010*%
X66675000Y-50800000D03*
%TO.P,U3,40*%
%TO.N,/~F_CE_040*%
X69215000Y-38100000D03*
%TO.P,U3,38*%
%TO.N,/TDO*%
X69215000Y-43180000D03*
%TO.P,U3,36*%
%TO.N,/F010_A16*%
X69215000Y-45720000D03*
%TO.P,U3,34*%
%TO.N,/F010_A15*%
X69215000Y-48260000D03*
%TO.P,U3,32*%
%TO.N,/TCK*%
X69215000Y-50800000D03*
%TO.P,U3,30*%
%TO.N,GND*%
X69215000Y-53340000D03*
%TO.P,U3,28*%
%TO.N,/HC373_040_LE*%
X69215000Y-55880000D03*
%TO.P,U3,26*%
%TO.N,/RAM_A15*%
X71755000Y-55880000D03*
%TO.P,U3,24*%
%TO.N,/~RAM_CE*%
X74295000Y-55880000D03*
%TO.P,U3,22*%
%TO.N,GND*%
X76835000Y-55880000D03*
%TO.P,U3,20*%
%TO.N,/AD6*%
X79375000Y-55880000D03*
%TO.P,U3,18*%
%TO.N,/AD4*%
X81915000Y-55880000D03*
%TO.P,U3,29*%
%TO.N,N/C*%
X66675000Y-53340000D03*
%TO.P,U3,27*%
%TO.N,/RAM_A16*%
X71755000Y-53340000D03*
%TO.P,U3,25*%
%TO.N,/RAM_A14*%
X74295000Y-53340000D03*
%TO.P,U3,23*%
%TO.N,+5V*%
X76835000Y-53340000D03*
%TO.P,U3,21*%
%TO.N,/AD7*%
X79375000Y-53340000D03*
%TO.P,U3,19*%
%TO.N,/AD5*%
X81915000Y-53340000D03*
%TO.P,U3,17*%
%TO.N,/AD3*%
X84455000Y-53340000D03*
%TO.P,U3,15*%
%TO.N,+5V*%
X84455000Y-50800000D03*
%TO.P,U3,13*%
%TO.N,/TMS*%
X84455000Y-48260000D03*
%TO.P,U3,11*%
%TO.N,/AA15*%
X84455000Y-45720000D03*
%TO.P,U3,9*%
%TO.N,/AA14*%
X84455000Y-43180000D03*
%TO.P,U3,7*%
%TO.N,/TDI*%
X84455000Y-40640000D03*
%TO.P,U3,16*%
%TO.N,/AD2*%
X81915000Y-50800000D03*
%TO.P,U3,14*%
%TO.N,/AD1*%
X81915000Y-48260000D03*
%TO.P,U3,12*%
%TO.N,/AD0*%
X81915000Y-45720000D03*
%TO.P,U3,10*%
%TO.N,GND*%
X81915000Y-43180000D03*
%TO.P,U3,8*%
%TO.N,/AA13*%
X81915000Y-40640000D03*
%TO.P,U3,42*%
%TO.N,GND*%
X71755000Y-38100000D03*
%TO.P,U3,44*%
%TO.N,/~SW_1*%
X74295000Y-38100000D03*
%TO.P,U3,6*%
%TO.N,/AA0*%
X81915000Y-38100000D03*
%TO.P,U3,4*%
%TO.N,/~AWR_T*%
X79375000Y-38100000D03*
%TO.P,U3,2*%
%TO.N,/~ARD*%
X76835000Y-38100000D03*
%TO.P,U3,41*%
%TO.N,/AA15_T*%
X69215000Y-40640000D03*
%TO.P,U3,43*%
%TO.N,/~ARST*%
X71755000Y-40640000D03*
%TO.P,U3,5*%
%TO.N,/~ARD_T*%
X79375000Y-40640000D03*
%TO.P,U3,3*%
%TO.N,+5V*%
X76835000Y-40640000D03*
D15*
%TO.P,U3,1*%
%TO.N,/~AWR*%
X74295000Y-40640000D03*
%TD*%
D14*
%TO.P,U2,29*%
%TO.N,/F040_A14*%
X72390000Y-16510000D03*
%TO.P,U2,27*%
%TO.N,/AA8*%
X72390000Y-19050000D03*
%TO.P,U2,25*%
%TO.N,/AA11*%
X72390000Y-21590000D03*
%TO.P,U2,23*%
%TO.N,/AA10*%
X72390000Y-24130000D03*
%TO.P,U2,28*%
%TO.N,/AA13*%
X74930000Y-19050000D03*
%TO.P,U2,26*%
%TO.N,/AA9*%
X74930000Y-21590000D03*
%TO.P,U2,24*%
%TO.N,/~ARD*%
X74930000Y-24130000D03*
%TO.P,U2,22*%
%TO.N,/~F_CE_040*%
X74930000Y-26670000D03*
%TO.P,U2,20*%
%TO.N,/AD6*%
X74930000Y-29210000D03*
%TO.P,U2,18*%
%TO.N,/AD4*%
X77470000Y-29210000D03*
%TO.P,U2,16*%
%TO.N,GND*%
X80010000Y-29210000D03*
%TO.P,U2,14*%
%TO.N,/AD1*%
X82550000Y-29210000D03*
%TO.P,U2,21*%
%TO.N,/AD7*%
X72390000Y-26670000D03*
%TO.P,U2,19*%
%TO.N,/AD5*%
X77470000Y-26670000D03*
%TO.P,U2,17*%
%TO.N,/AD3*%
X80010000Y-26670000D03*
%TO.P,U2,15*%
%TO.N,/AD2*%
X82550000Y-26670000D03*
%TO.P,U2,13*%
%TO.N,/AD0*%
X85090000Y-26670000D03*
%TO.P,U2,11*%
%TO.N,/AA1*%
X85090000Y-24130000D03*
%TO.P,U2,9*%
%TO.N,/AA3*%
X85090000Y-21590000D03*
%TO.P,U2,7*%
%TO.N,/AA5*%
X85090000Y-19050000D03*
%TO.P,U2,5*%
%TO.N,/AA7*%
X85090000Y-16510000D03*
%TO.P,U2,12*%
%TO.N,/AA0*%
X82550000Y-24130000D03*
%TO.P,U2,10*%
%TO.N,/AA2*%
X82550000Y-21590000D03*
%TO.P,U2,8*%
%TO.N,/AA4*%
X82550000Y-19050000D03*
%TO.P,U2,6*%
%TO.N,/AA6*%
X82550000Y-16510000D03*
%TO.P,U2,30*%
%TO.N,/F040_A17*%
X74930000Y-13970000D03*
%TO.P,U2,32*%
%TO.N,+5V*%
X77470000Y-13970000D03*
%TO.P,U2,4*%
%TO.N,/AA12*%
X82550000Y-13970000D03*
%TO.P,U2,2*%
%TO.N,/F040_A16*%
X80010000Y-13970000D03*
%TO.P,U2,31*%
%TO.N,/~AWR*%
X74930000Y-16510000D03*
%TO.P,U2,3*%
%TO.N,/F040_A15*%
X80010000Y-16510000D03*
D15*
%TO.P,U2,1*%
%TO.N,/F040_A18*%
X77470000Y-16510000D03*
%TD*%
D14*
%TO.P,U1,29*%
%TO.N,/F010_A14*%
X97790000Y-16510000D03*
%TO.P,U1,27*%
%TO.N,/AA8*%
X97790000Y-19050000D03*
%TO.P,U1,25*%
%TO.N,/AA11*%
X97790000Y-21590000D03*
%TO.P,U1,23*%
%TO.N,/AA10*%
X97790000Y-24130000D03*
%TO.P,U1,28*%
%TO.N,/AA13*%
X100330000Y-19050000D03*
%TO.P,U1,26*%
%TO.N,/AA9*%
X100330000Y-21590000D03*
%TO.P,U1,24*%
%TO.N,/~ARD*%
X100330000Y-24130000D03*
%TO.P,U1,22*%
%TO.N,/~F_CE_010*%
X100330000Y-26670000D03*
%TO.P,U1,20*%
%TO.N,/AD6*%
X100330000Y-29210000D03*
%TO.P,U1,18*%
%TO.N,/AD4*%
X102870000Y-29210000D03*
%TO.P,U1,16*%
%TO.N,GND*%
X105410000Y-29210000D03*
%TO.P,U1,14*%
%TO.N,/AD1*%
X107950000Y-29210000D03*
%TO.P,U1,21*%
%TO.N,/AD7*%
X97790000Y-26670000D03*
%TO.P,U1,19*%
%TO.N,/AD5*%
X102870000Y-26670000D03*
%TO.P,U1,17*%
%TO.N,/AD3*%
X105410000Y-26670000D03*
%TO.P,U1,15*%
%TO.N,/AD2*%
X107950000Y-26670000D03*
%TO.P,U1,13*%
%TO.N,/AD0*%
X110490000Y-26670000D03*
%TO.P,U1,11*%
%TO.N,/AA1*%
X110490000Y-24130000D03*
%TO.P,U1,9*%
%TO.N,/AA3*%
X110490000Y-21590000D03*
%TO.P,U1,7*%
%TO.N,/AA5*%
X110490000Y-19050000D03*
%TO.P,U1,5*%
%TO.N,/AA7*%
X110490000Y-16510000D03*
%TO.P,U1,12*%
%TO.N,/AA0*%
X107950000Y-24130000D03*
%TO.P,U1,10*%
%TO.N,/AA2*%
X107950000Y-21590000D03*
%TO.P,U1,8*%
%TO.N,/AA4*%
X107950000Y-19050000D03*
%TO.P,U1,6*%
%TO.N,/AA6*%
X107950000Y-16510000D03*
%TO.P,U1,30*%
%TO.N,/F010_A17*%
X100330000Y-13970000D03*
%TO.P,U1,32*%
%TO.N,+5V*%
X102870000Y-13970000D03*
%TO.P,U1,4*%
%TO.N,/AA12*%
X107950000Y-13970000D03*
%TO.P,U1,2*%
%TO.N,/F010_A16*%
X105410000Y-13970000D03*
%TO.P,U1,31*%
%TO.N,/~AWR*%
X100330000Y-16510000D03*
%TO.P,U1,3*%
%TO.N,/F010_A15*%
X105410000Y-16510000D03*
D15*
%TO.P,U1,1*%
%TO.N,/F010_A18*%
X102870000Y-16510000D03*
%TD*%
D16*
%TO.P,SW1,4*%
%TO.N,N/C*%
X64770000Y-20615000D03*
%TO.P,SW1,5*%
X64770000Y-28915000D03*
D17*
%TO.P,SW1,3*%
X64770000Y-22765000D03*
%TO.P,SW1,2*%
%TO.N,/~SW_1*%
X64770000Y-24765000D03*
D18*
%TO.P,SW1,1*%
%TO.N,GND*%
X64770000Y-26765000D03*
%TD*%
D11*
%TO.P,J3,1*%
%TO.N,/TCK*%
X67310000Y-66040000D03*
D10*
%TO.P,J3,2*%
%TO.N,GND*%
X64770000Y-66040000D03*
%TO.P,J3,3*%
%TO.N,/TDO*%
X67310000Y-68580000D03*
%TO.P,J3,4*%
%TO.N,+5V*%
X64770000Y-68580000D03*
%TO.P,J3,5*%
%TO.N,/TMS*%
X67310000Y-71120000D03*
%TO.P,J3,6*%
%TO.N,N/C*%
X64770000Y-71120000D03*
%TO.P,J3,7*%
X67310000Y-73660000D03*
%TO.P,J3,8*%
X64770000Y-73660000D03*
%TO.P,J3,9*%
%TO.N,/TDI*%
X67310000Y-76200000D03*
%TO.P,J3,10*%
%TO.N,GND*%
X64770000Y-76200000D03*
%TD*%
D19*
%TO.N,+5V*%
X78374200Y-36440400D03*
X68091900Y-82249300D03*
X106995000Y-98541300D03*
%TO.N,GND*%
X75585000Y-93512200D03*
X68214500Y-24923400D03*
%TO.N,/AAudioIn*%
X105720000Y-106490000D03*
%TO.N,/~ARST*%
X101814700Y-98995400D03*
X63501700Y-83485200D03*
X62981700Y-45401400D03*
%TO.N,/AD7*%
X86995000Y-69664500D03*
X87602000Y-27255000D03*
%TO.N,/AD6*%
X85708500Y-29339700D03*
X84455000Y-68582000D03*
X108765100Y-77500500D03*
X107709300Y-80288700D03*
%TO.N,/AD5*%
X83440000Y-60780000D03*
X103570000Y-76500100D03*
X86151700Y-27659800D03*
X81627900Y-58951300D03*
X81920000Y-69100000D03*
%TO.N,/AD4*%
X98982100Y-36082000D03*
X75087500Y-79628400D03*
%TO.N,/AD3*%
X100257600Y-61677100D03*
X89840100Y-58725000D03*
X103919716Y-64632250D03*
%TO.N,/AD2*%
X84141700Y-35914000D03*
%TO.N,/AD1*%
X97723700Y-72720400D03*
X85604800Y-41364000D03*
%TO.N,/AD0*%
X86990600Y-85258000D03*
X85983100Y-38251300D03*
%TO.N,/AA15*%
X86309900Y-53639800D03*
X100500700Y-60659500D03*
X103333600Y-57858100D03*
X96430000Y-109880000D03*
%TO.N,/AA13*%
X92159700Y-43744300D03*
X94688800Y-53807400D03*
X97940000Y-65360000D03*
%TO.N,/AA10*%
X90204900Y-30324200D03*
X90204900Y-24344700D03*
%TO.N,/AA9*%
X99386000Y-72107800D03*
X88257600Y-77351100D03*
%TO.N,/AA8*%
X103810000Y-60640000D03*
X85791500Y-94761500D03*
X113270303Y-61689697D03*
X111100000Y-85760000D03*
%TO.N,/AA4*%
X92682400Y-74642100D03*
%TO.N,/AA3*%
X100574900Y-73296700D03*
%TO.N,/AA2*%
X78765500Y-21060300D03*
X90201900Y-76868100D03*
%TO.N,/~ARD*%
X73184600Y-60939800D03*
%TO.N,/~AWR*%
X107315000Y-57105300D03*
X103659300Y-48189300D03*
X69380000Y-90720000D03*
%TO.N,/AA15_T*%
X96173700Y-99245500D03*
%TO.N,/TMS*%
X75275200Y-66484000D03*
%TO.N,/TDI*%
X82188400Y-31897600D03*
X68935900Y-34100200D03*
%TO.N,/F010_A14*%
X70273000Y-35448600D03*
X94642500Y-31897500D03*
%TO.N,/~F_CE_010*%
X73353600Y-32622800D03*
X99310800Y-30776300D03*
%TO.N,/F040_A14*%
X74936600Y-36320200D03*
%TO.N,/~F_CE_040*%
X71081600Y-33504000D03*
%TO.N,/F040_A18*%
X91489000Y-22583700D03*
X77470000Y-21790300D03*
%TO.N,Net-(BT1-Pad1)*%
X75720000Y-100220000D03*
X103550000Y-106550000D03*
%TO.N,VMEM*%
X114980000Y-85590000D03*
%TO.N,/F010_A17*%
X71280100Y-32503700D03*
X84490000Y-11894970D03*
X86880000Y-14281200D03*
%TO.N,/F010_A16*%
X79413100Y-35278200D03*
%TO.N,/F010_A15*%
X71314300Y-31480000D03*
X71430000Y-48260000D03*
X76347900Y-11810000D03*
%TO.N,/F010_A18*%
X95667000Y-31942800D03*
%TO.N,/HC373_040_LE*%
X93213600Y-67850500D03*
%TD*%
D20*
%TO.N,+5V*%
X92044900Y-34925000D02*
X82521500Y-34925000D01*
X82521500Y-34925000D02*
X81006100Y-36440400D01*
X81006100Y-36440400D02*
X78374200Y-36440400D01*
X76835000Y-40640000D02*
X78136900Y-39338100D01*
X78136900Y-39338100D02*
X78136900Y-36677700D01*
X78136900Y-36677700D02*
X78374200Y-36440400D01*
X64770000Y-68580000D02*
X63394600Y-67204600D01*
X63394600Y-67204600D02*
X63394600Y-52360900D01*
X63394600Y-52360900D02*
X66284100Y-49471400D01*
X66284100Y-49471400D02*
X67220400Y-49471400D01*
X67220400Y-49471400D02*
X67944900Y-48746900D01*
X67944900Y-48746900D02*
X67944900Y-46989900D01*
X67944900Y-46989900D02*
X66675000Y-45720000D01*
X64770000Y-68580000D02*
X63412700Y-69937300D01*
X63412700Y-69937300D02*
X63412700Y-77570100D01*
X63412700Y-77570100D02*
X68091900Y-82249300D01*
X72714000Y-46922500D02*
X72714000Y-47893600D01*
X72714000Y-47893600D02*
X76835000Y-52014600D01*
X76835000Y-40640000D02*
X76835000Y-42801500D01*
X76835000Y-42801500D02*
X72714000Y-46922500D01*
X76835000Y-52014600D02*
X76835000Y-53340000D01*
X84455000Y-50800000D02*
X83240400Y-52014600D01*
X83240400Y-52014600D02*
X76835000Y-52014600D01*
X93345000Y-34925000D02*
X92044900Y-34925000D01*
X76520200Y-95761100D02*
X104214800Y-95761100D01*
X104214800Y-95761100D02*
X106995000Y-98541300D01*
X68091900Y-87332800D02*
X76520200Y-95761100D01*
X68091900Y-82249300D02*
X68091900Y-87332800D01*
X72646600Y-46989900D02*
X76835000Y-42801500D01*
X67944900Y-46989900D02*
X72646600Y-46989900D01*
%TO.N,GND*%
X93345000Y-40005000D02*
X92044900Y-40005000D01*
X81915000Y-43180000D02*
X80703600Y-41968600D01*
X80703600Y-41968600D02*
X80703600Y-40094600D01*
X80703600Y-40094600D02*
X81388300Y-39409900D01*
X81388300Y-39409900D02*
X91449800Y-39409900D01*
X91449800Y-39409900D02*
X92044900Y-40005000D01*
X100965000Y-34925000D02*
X100965000Y-33624900D01*
X100965000Y-33624900D02*
X100995100Y-33624900D01*
X100995100Y-33624900D02*
X105410000Y-29210000D01*
X66520000Y-26765000D02*
X68214500Y-25070500D01*
X68214500Y-25070500D02*
X68214500Y-24923400D01*
X69215000Y-53340000D02*
X70878500Y-51676500D01*
X70878500Y-51676500D02*
X74354600Y-51676500D01*
X74354600Y-51676500D02*
X75565000Y-52886900D01*
X75565000Y-52886900D02*
X75565000Y-54610000D01*
X75565000Y-54610000D02*
X76835000Y-55880000D01*
X64770000Y-64689900D02*
X64770000Y-57785000D01*
X64770000Y-57785000D02*
X69215000Y-53340000D01*
X75534900Y-78740000D02*
X75523200Y-78728300D01*
X75523200Y-78728300D02*
X69107700Y-78728300D01*
X69107700Y-78728300D02*
X69096000Y-78740000D01*
X69096000Y-78740000D02*
X69096000Y-87233500D01*
X69096000Y-87233500D02*
X70319300Y-88456800D01*
X70319300Y-88456800D02*
X70529600Y-88456800D01*
X70529600Y-88456800D02*
X75585000Y-93512200D01*
X69096000Y-78740000D02*
X67310000Y-78740000D01*
X67310000Y-78740000D02*
X64770000Y-76200000D01*
X66520000Y-26765000D02*
X67895700Y-28140700D01*
X67895700Y-28140700D02*
X67895700Y-34353400D01*
X67895700Y-34353400D02*
X71642300Y-38100000D01*
X71642300Y-38100000D02*
X71755000Y-38100000D01*
X66332600Y-26765000D02*
X66520000Y-26765000D01*
X64770000Y-26765000D02*
X66332600Y-26765000D01*
X93345000Y-42545000D02*
X94645100Y-43845100D01*
X94645100Y-43845100D02*
X94645100Y-50165000D01*
X93345000Y-50165000D02*
X94645100Y-50165000D01*
X94645100Y-50165000D02*
X94645100Y-51465100D01*
X94645100Y-51465100D02*
X100965000Y-57785000D01*
X64770000Y-66040000D02*
X64770000Y-64689900D01*
X76835000Y-78740000D02*
X75534900Y-78740000D01*
X77512100Y-91585100D02*
X75585000Y-93512200D01*
X104724900Y-91585100D02*
X77512100Y-91585100D01*
X108650000Y-87660000D02*
X104724900Y-91585100D01*
X108650000Y-86660000D02*
X108650000Y-87660000D01*
D21*
%TO.N,/AAudioIn*%
X109945001Y-91335285D02*
X109945001Y-101509999D01*
X105720000Y-105735000D02*
X105720000Y-106490000D01*
X113230000Y-88050286D02*
X109945001Y-91335285D01*
X113230000Y-83460000D02*
X113230000Y-88050286D01*
X112130000Y-82360000D02*
X113230000Y-83460000D01*
X110410000Y-82360000D02*
X112130000Y-82360000D01*
X109945001Y-101509999D02*
X105720000Y-105735000D01*
X108650000Y-84120000D02*
X110410000Y-82360000D01*
%TO.N,/~ARST*%
X101814700Y-98995400D02*
X101093900Y-98274600D01*
X101093900Y-98274600D02*
X78149100Y-98274600D01*
X71755000Y-40640000D02*
X70264000Y-42131000D01*
X70264000Y-42131000D02*
X66252100Y-42131000D01*
X66252100Y-42131000D02*
X62981700Y-45401400D01*
X63501700Y-83627200D02*
X63501700Y-83485200D01*
X78149100Y-98274600D02*
X63501700Y-83627200D01*
%TO.N,/AD7*%
X106110000Y-84120000D02*
X106110000Y-82944900D01*
X106110000Y-82944900D02*
X108453500Y-80601400D01*
X108453500Y-80601400D02*
X108453500Y-78250800D01*
X108453500Y-78250800D02*
X99867200Y-69664500D01*
X99867200Y-69664500D02*
X86995000Y-69664500D01*
X87602000Y-27255000D02*
X85980600Y-25633600D01*
X85980600Y-25633600D02*
X83725000Y-25633600D01*
X83725000Y-25633600D02*
X83268200Y-25176800D01*
X83268200Y-25176800D02*
X77484200Y-25176800D01*
X77484200Y-25176800D02*
X76200000Y-26461000D01*
X97790000Y-26670000D02*
X88187000Y-26670000D01*
X88187000Y-26670000D02*
X87602000Y-27255000D01*
X79375000Y-53340000D02*
X80645000Y-54610000D01*
X80645000Y-56143578D02*
X80645000Y-54610000D01*
X86995000Y-62493578D02*
X80645000Y-56143578D01*
X86995000Y-63500000D02*
X86995000Y-62493578D01*
X72390000Y-26670000D02*
X73620000Y-27900000D01*
X73620000Y-27900000D02*
X75450000Y-27900000D01*
X76200000Y-27150000D02*
X76200000Y-26461000D01*
X75450000Y-27900000D02*
X76200000Y-27150000D01*
%TO.N,/AD6*%
X108765100Y-77500500D02*
X99846700Y-68582100D01*
X99846700Y-68582100D02*
X84455000Y-68582100D01*
X84455000Y-68582100D02*
X84455000Y-68582000D01*
X85708500Y-29339700D02*
X85931900Y-29116300D01*
X85931900Y-29116300D02*
X100236300Y-29116300D01*
X100236300Y-29116300D02*
X100330000Y-29210000D01*
X74930000Y-29210000D02*
X76026400Y-28113600D01*
X76026400Y-28113600D02*
X82980800Y-28113600D01*
X82980800Y-28113600D02*
X84206900Y-29339700D01*
X84206900Y-29339700D02*
X85708500Y-29339700D01*
X84455000Y-60741000D02*
X84455000Y-63500000D01*
X79594000Y-55880000D02*
X84455000Y-60741000D01*
X79375000Y-55880000D02*
X79594000Y-55880000D01*
X105053001Y-82944999D02*
X107709300Y-80288700D01*
X104934999Y-85295001D02*
X104934999Y-83063001D01*
X104934999Y-83063001D02*
X105053001Y-82944999D01*
X103570000Y-86660000D02*
X104934999Y-85295001D01*
%TO.N,/AD5*%
X85189100Y-70992500D02*
X99310000Y-70992500D01*
X99310000Y-70992500D02*
X103570000Y-75252500D01*
X103570000Y-75252500D02*
X103570000Y-76500100D01*
X102870000Y-26670000D02*
X101833700Y-27706300D01*
X101833700Y-27706300D02*
X88832000Y-27706300D01*
X88832000Y-27706300D02*
X88558200Y-27980100D01*
X88558200Y-27980100D02*
X86425500Y-27980100D01*
X86425500Y-27980100D02*
X86151700Y-27706300D01*
X86151700Y-27706300D02*
X86151700Y-27659800D01*
X77470000Y-26670000D02*
X78513000Y-25627000D01*
X78513000Y-25627000D02*
X82991100Y-25627000D01*
X82991100Y-25627000D02*
X83603600Y-26239500D01*
X83603600Y-26239500D02*
X83603600Y-26652300D01*
X83603600Y-26652300D02*
X84657600Y-27706300D01*
X84657600Y-27706300D02*
X86151700Y-27706300D01*
X81915000Y-60819200D02*
X81627900Y-60532100D01*
X81915000Y-63500000D02*
X81915000Y-60819200D01*
X81627900Y-58951300D02*
X81627900Y-60532100D01*
X83400800Y-60819200D02*
X83440000Y-60780000D01*
X81915000Y-60819200D02*
X83400800Y-60819200D01*
X83812500Y-70992500D02*
X85189100Y-70992500D01*
X81920000Y-69100000D02*
X83812500Y-70992500D01*
%TO.N,/AD4*%
X77470000Y-29210000D02*
X78569500Y-30309500D01*
X78569500Y-30309500D02*
X85764400Y-30309500D01*
X85764400Y-30309500D02*
X86493600Y-29580300D01*
X86493600Y-29580300D02*
X99187500Y-29580300D01*
X99187500Y-29580300D02*
X100772100Y-31164900D01*
X102870000Y-29210000D02*
X100915100Y-31164900D01*
X93345000Y-52705000D02*
X92219900Y-52705000D01*
X81915000Y-55880000D02*
X83251400Y-54543600D01*
X83251400Y-54543600D02*
X83251400Y-53049000D01*
X83251400Y-53049000D02*
X84006100Y-52294300D01*
X84006100Y-52294300D02*
X91809200Y-52294300D01*
X91809200Y-52294300D02*
X92219900Y-52705000D01*
X98982100Y-33097900D02*
X100915100Y-31164900D01*
X98982100Y-36082000D02*
X98982100Y-33097900D01*
X71914800Y-82801100D02*
X75087500Y-79628400D01*
X71914800Y-87166500D02*
X71914800Y-82801100D01*
X73509300Y-88761000D02*
X71914800Y-87166500D01*
X98929000Y-88761000D02*
X73509300Y-88761000D01*
X101030000Y-86660000D02*
X98929000Y-88761000D01*
%TO.N,/AD3*%
X84455000Y-53340000D02*
X89239100Y-58124100D01*
X100257600Y-61677100D02*
X92792200Y-61677100D01*
X89239200Y-58124100D02*
X89840100Y-58725000D01*
X89239100Y-58124100D02*
X89239200Y-58124100D01*
X89840100Y-58725000D02*
X92792200Y-61677100D01*
X100876600Y-62296100D02*
X100257600Y-61677100D01*
X100876600Y-63806602D02*
X100876600Y-62296100D01*
X103912467Y-64625001D02*
X103919716Y-64632250D01*
X101694999Y-64625001D02*
X103912467Y-64625001D01*
X100876600Y-63806602D02*
X101694999Y-64625001D01*
X90805000Y-61164800D02*
X89840100Y-60199900D01*
X89840100Y-60199900D02*
X89840100Y-58725000D01*
X89572600Y-65086300D02*
X90805000Y-63853900D01*
X76835000Y-63500000D02*
X78421300Y-65086300D01*
X90805000Y-63853900D02*
X90805000Y-61164800D01*
X78421300Y-65086300D02*
X89572600Y-65086300D01*
%TO.N,/AD2*%
X81915000Y-50800000D02*
X78322700Y-47207700D01*
X78322700Y-47207700D02*
X78322700Y-40195600D01*
X78322700Y-40195600D02*
X79283200Y-39235100D01*
X79283200Y-39235100D02*
X79714800Y-39235100D01*
X79714800Y-39235100D02*
X80485700Y-38464200D01*
X80485700Y-38464200D02*
X80485700Y-38059800D01*
X80485700Y-38059800D02*
X82631500Y-35914000D01*
X82631500Y-35914000D02*
X84141700Y-35914000D01*
X107950000Y-26670000D02*
X106913700Y-27706300D01*
X106913700Y-27706300D02*
X104318000Y-27706300D01*
X104318000Y-27706300D02*
X103867900Y-28156400D01*
X103867900Y-28156400D02*
X89018500Y-28156400D01*
X89018500Y-28156400D02*
X88744700Y-28430200D01*
X88744700Y-28430200D02*
X84310200Y-28430200D01*
X84310200Y-28430200D02*
X82550000Y-26670000D01*
X96850400Y-88299600D02*
X75579600Y-88299600D01*
X74411400Y-87131400D02*
X74411400Y-83671800D01*
X75579600Y-88299600D02*
X74411400Y-87131400D01*
X98490000Y-86660000D02*
X96850400Y-88299600D01*
X79343200Y-78740000D02*
X74411400Y-83671800D01*
X79375000Y-78740000D02*
X79343200Y-78740000D01*
%TO.N,/AD1*%
X88826500Y-72720400D02*
X97723700Y-72720400D01*
X85604800Y-41364000D02*
X100302800Y-41364000D01*
X100302800Y-41364000D02*
X100965000Y-42026200D01*
X100965000Y-42545000D02*
X100965000Y-42026200D01*
X107950000Y-35560000D02*
X107950000Y-29210000D01*
X100965000Y-42545000D02*
X107950000Y-35560000D01*
X87934600Y-72720400D02*
X88826500Y-72720400D01*
X81915000Y-78740000D02*
X87934600Y-72720400D01*
%TO.N,/AD0*%
X99839900Y-40005000D02*
X98534600Y-38699700D01*
X98534600Y-38699700D02*
X86431500Y-38699700D01*
X86431500Y-38699700D02*
X85983100Y-38251300D01*
X110490000Y-26670000D02*
X109220000Y-27940000D01*
X109220000Y-27940000D02*
X107680600Y-27940000D01*
X107680600Y-27940000D02*
X106705500Y-28915100D01*
X100965000Y-40005000D02*
X99839900Y-40005000D01*
X106705500Y-34264500D02*
X106705500Y-28915100D01*
X100965000Y-40005000D02*
X106705500Y-34264500D01*
X87765999Y-87835001D02*
X86990600Y-87059602D01*
X94774999Y-87835001D02*
X87765999Y-87835001D01*
X86990600Y-87059602D02*
X86990600Y-85258000D01*
X95950000Y-86660000D02*
X94774999Y-87835001D01*
%TO.N,/AA15*%
X100500700Y-60659500D02*
X93401000Y-60659500D01*
X93401000Y-60659500D02*
X86381300Y-53639800D01*
X86381300Y-53639800D02*
X86309900Y-53639800D01*
X116919000Y-85167400D02*
X116919000Y-63333700D01*
X110744100Y-91342300D02*
X116919000Y-85167400D01*
X116919000Y-63333700D02*
X111443400Y-57858100D01*
X110744100Y-104815900D02*
X110744100Y-91342300D01*
X106830000Y-108730000D02*
X110744100Y-104815900D01*
X97580000Y-108730000D02*
X106830000Y-108730000D01*
X111443400Y-57858100D02*
X103333600Y-57858100D01*
X96430000Y-109880000D02*
X97580000Y-108730000D01*
%TO.N,/AA14*%
X92745300Y-51470300D02*
X84455000Y-43180000D01*
X93733900Y-51470300D02*
X92745300Y-51470300D01*
X112732900Y-62177600D02*
X103695410Y-62177600D01*
X113563600Y-79162800D02*
X113563600Y-63008300D01*
X101519000Y-85484900D02*
X102300000Y-86265900D01*
X107354999Y-87154003D02*
X107354999Y-83498399D01*
X112803200Y-79923200D02*
X113563600Y-79162800D01*
X103695410Y-62177600D02*
X97289300Y-55771490D01*
X107354999Y-83498399D02*
X110930198Y-79923200D01*
X97289300Y-55025700D02*
X93733900Y-51470300D01*
X102986500Y-87835200D02*
X106673802Y-87835200D01*
X113563600Y-63008300D02*
X112732900Y-62177600D01*
X102300000Y-87148700D02*
X102986500Y-87835200D01*
X106673802Y-87835200D02*
X107354999Y-87154003D01*
X94585100Y-85484900D02*
X101519000Y-85484900D01*
X110930198Y-79923200D02*
X112803200Y-79923200D01*
X97289300Y-55771490D02*
X97289300Y-55025700D01*
X102300000Y-86265900D02*
X102300000Y-87148700D01*
X93410000Y-86660000D02*
X94585100Y-85484900D01*
%TO.N,/AA13*%
X74930000Y-19050000D02*
X76420700Y-17559300D01*
X76420700Y-17559300D02*
X96342000Y-17559300D01*
X96342000Y-17559300D02*
X96792100Y-18009400D01*
X96792100Y-18009400D02*
X99289400Y-18009400D01*
X99289400Y-18009400D02*
X100330000Y-19050000D01*
X81915000Y-40640000D02*
X83185000Y-41910000D01*
X83185000Y-41910000D02*
X84664800Y-41910000D01*
X84664800Y-41910000D02*
X86499100Y-43744300D01*
X86499100Y-43744300D02*
X92159700Y-43744300D01*
X104775000Y-64625100D02*
X104775000Y-64870000D01*
X104775000Y-63500000D02*
X104775000Y-64625100D01*
X104381400Y-63500000D02*
X104775000Y-63500000D01*
X94688800Y-53807400D02*
X104381400Y-63500000D01*
X104285000Y-65360000D02*
X97940000Y-65360000D01*
X104775000Y-64870000D02*
X104285000Y-65360000D01*
%TO.N,/AA12*%
X82550000Y-13970000D02*
X86085400Y-13970000D01*
X106856400Y-12876400D02*
X107950000Y-13970000D01*
X103110200Y-82944800D02*
X107315000Y-78740000D01*
X90870000Y-86660000D02*
X92045100Y-85484900D01*
X94774999Y-84494003D02*
X94774999Y-83555999D01*
X95385999Y-82944999D02*
X103110001Y-82944999D01*
X94774999Y-83555999D02*
X95385999Y-82944999D01*
X93784102Y-85484900D02*
X94774999Y-84494003D01*
X103110001Y-82944999D02*
X103110200Y-82944800D01*
X92045100Y-85484900D02*
X93784102Y-85484900D01*
X86499200Y-13556200D02*
X99273800Y-13556200D01*
X86085400Y-13970000D02*
X86499200Y-13556200D01*
X99273800Y-13556200D02*
X99953600Y-12876400D01*
X99953600Y-12876400D02*
X106856400Y-12876400D01*
%TO.N,/AA11*%
X97790000Y-21590000D02*
X93878800Y-21590000D01*
X93878800Y-21590000D02*
X92831400Y-20542600D01*
X92831400Y-20542600D02*
X79889100Y-20542600D01*
X79889100Y-20542600D02*
X79681700Y-20335200D01*
X79681700Y-20335200D02*
X77782900Y-20335200D01*
X77782900Y-20335200D02*
X75491700Y-22626400D01*
X75491700Y-22626400D02*
X73426400Y-22626400D01*
X73426400Y-22626400D02*
X72390000Y-21590000D01*
%TO.N,/AA10*%
X97790000Y-24130000D02*
X90419600Y-24130000D01*
X90419600Y-24130000D02*
X90204900Y-24344700D01*
X90204900Y-30324200D02*
X89359700Y-30324200D01*
X89359700Y-30324200D02*
X88904100Y-30779800D01*
X88904100Y-30779800D02*
X75018600Y-30779800D01*
X75018600Y-30779800D02*
X71327300Y-27088500D01*
X71327300Y-27088500D02*
X71327300Y-25192700D01*
X71327300Y-25192700D02*
X72390000Y-24130000D01*
%TO.N,/AA9*%
X88257600Y-77351100D02*
X92163200Y-73445500D01*
X92163200Y-73445500D02*
X98048300Y-73445500D01*
X98048300Y-73445500D02*
X99386000Y-72107800D01*
X100330000Y-21590000D02*
X99738500Y-21590000D01*
X99738500Y-21590000D02*
X98695600Y-20547100D01*
X98695600Y-20547100D02*
X93472500Y-20547100D01*
X93472500Y-20547100D02*
X93017900Y-20092500D01*
X93017900Y-20092500D02*
X80097000Y-20092500D01*
X80097000Y-20092500D02*
X79889600Y-19885100D01*
X79889600Y-19885100D02*
X76634900Y-19885100D01*
X76634900Y-19885100D02*
X74930000Y-21590000D01*
%TO.N,/AA8*%
X72390000Y-19050000D02*
X73431700Y-20091700D01*
X73431700Y-20091700D02*
X75791600Y-20091700D01*
X75791600Y-20091700D02*
X77873900Y-18009400D01*
X77873900Y-18009400D02*
X96155500Y-18009400D01*
X96155500Y-18009400D02*
X97196100Y-19050000D01*
X97196100Y-19050000D02*
X97790000Y-19050000D01*
X103810000Y-60640000D02*
X104397099Y-60052901D01*
X103747100Y-94761500D02*
X107916700Y-90591900D01*
X85791500Y-94761500D02*
X103747100Y-94761500D01*
X101509300Y-56609800D02*
X102384300Y-57484800D01*
X100674000Y-56609800D02*
X101509300Y-56609800D01*
X102384300Y-57484800D02*
X102384300Y-57960200D01*
X99839000Y-55774800D02*
X100674000Y-56609800D01*
X100637100Y-43815000D02*
X99839000Y-44613100D01*
X101360002Y-43815000D02*
X100637100Y-43815000D01*
X111548500Y-18637800D02*
X111548500Y-33626502D01*
X99839000Y-44613100D02*
X99839000Y-55774800D01*
X110924300Y-18013600D02*
X111548500Y-18637800D01*
X109992822Y-18013600D02*
X110924300Y-18013600D01*
X109453799Y-19079779D02*
X109453799Y-18552623D01*
X108436778Y-20096800D02*
X109453799Y-19079779D01*
X102384300Y-57960200D02*
X106111500Y-61687400D01*
X111548500Y-33626502D02*
X101360002Y-43815000D01*
X99743700Y-20096800D02*
X108436778Y-20096800D01*
X109453799Y-18552623D02*
X109992822Y-18013600D01*
X98696900Y-19050000D02*
X99743700Y-20096800D01*
X97790000Y-19050000D02*
X98696900Y-19050000D01*
X111100000Y-87403284D02*
X107916700Y-90586584D01*
X107916700Y-90586584D02*
X107916700Y-90591900D01*
X113268006Y-61687400D02*
X113270303Y-61689697D01*
X106111500Y-61687400D02*
X113268006Y-61687400D01*
X111100000Y-85760000D02*
X111100000Y-87403284D01*
%TO.N,/AA7*%
X95174790Y-82494790D02*
X101020210Y-82494790D01*
X94905450Y-82764130D02*
X95174790Y-82494790D01*
X101020210Y-82494790D02*
X104775000Y-78740000D01*
X87145870Y-82764130D02*
X94905450Y-82764130D01*
X85790000Y-84120000D02*
X87145870Y-82764130D01*
X109440700Y-17559300D02*
X110490000Y-16510000D01*
X105591810Y-19646790D02*
X107679300Y-17559300D01*
X102460368Y-19646790D02*
X105591810Y-19646790D01*
X97203800Y-17559300D02*
X100372878Y-17559300D01*
X96154500Y-16510000D02*
X97203800Y-17559300D01*
X107679300Y-17559300D02*
X109440700Y-17559300D01*
X100372878Y-17559300D02*
X102460368Y-19646790D01*
X85090000Y-16510000D02*
X96154500Y-16510000D01*
%TO.N,/AA6*%
X98930220Y-82044780D02*
X102235000Y-78740000D01*
X94988390Y-82044780D02*
X98930220Y-82044780D01*
X85404982Y-82925018D02*
X86053812Y-82925018D01*
X84425100Y-83818300D02*
X85318200Y-82925200D01*
X94719050Y-82314120D02*
X94988390Y-82044780D01*
X85404800Y-82925200D02*
X85404982Y-82925018D01*
X86664710Y-82314120D02*
X94719050Y-82314120D01*
X84425100Y-85484900D02*
X84425100Y-83818300D01*
X86053812Y-82925018D02*
X86664710Y-82314120D01*
X85318200Y-82925200D02*
X85404800Y-82925200D01*
X83250000Y-86660000D02*
X84425100Y-85484900D01*
X83592900Y-15467100D02*
X100820678Y-15467100D01*
X82550000Y-16510000D02*
X83592900Y-15467100D01*
X100820678Y-15467100D02*
X101594994Y-16241416D01*
X101594994Y-16241416D02*
X101594994Y-18145006D01*
X101594994Y-18145006D02*
X102646768Y-19196780D01*
X105263220Y-19196780D02*
X107950000Y-16510000D01*
X102646768Y-19196780D02*
X105263220Y-19196780D01*
%TO.N,/AA5*%
X110490000Y-19050000D02*
X108993000Y-20547000D01*
X108993000Y-20547000D02*
X99332100Y-20547000D01*
X99332100Y-20547000D02*
X98882000Y-20096900D01*
X98882000Y-20096900D02*
X93658900Y-20096900D01*
X93658900Y-20096900D02*
X92612000Y-19050000D01*
X92612000Y-19050000D02*
X85090000Y-19050000D01*
X94532650Y-81864110D02*
X94801990Y-81594770D01*
X83250000Y-84120000D02*
X84894990Y-82475010D01*
X85867411Y-82475009D02*
X86478310Y-81864110D01*
X96840230Y-81594770D02*
X99695000Y-78740000D01*
X84894990Y-82475010D02*
X85867411Y-82475009D01*
X94801990Y-81594770D02*
X96840230Y-81594770D01*
X86478310Y-81864110D02*
X94532650Y-81864110D01*
%TO.N,/AA4*%
X96780300Y-78740000D02*
X97155000Y-78740000D01*
X92682400Y-74642100D02*
X96780300Y-78740000D01*
X86973800Y-81414100D02*
X94346250Y-81414100D01*
X86973610Y-81413910D02*
X86973800Y-81414100D01*
X86292100Y-81413910D02*
X86973610Y-81413910D01*
X85681010Y-82025000D02*
X86292100Y-81413910D01*
X83679200Y-82025000D02*
X85681010Y-82025000D01*
X81980000Y-83724200D02*
X83679200Y-82025000D01*
X97020350Y-78740000D02*
X97155000Y-78740000D01*
X94346250Y-81414100D02*
X97020350Y-78740000D01*
X81980000Y-85390000D02*
X81980000Y-83724200D01*
X80710000Y-86660000D02*
X81980000Y-85390000D01*
%TO.N,/AA3*%
X91929900Y-74368500D02*
X92394600Y-73903800D01*
X92394600Y-73903800D02*
X99967800Y-73903800D01*
X99967800Y-73903800D02*
X100574900Y-73296700D01*
X110490000Y-21590000D02*
X109453600Y-22626400D01*
X109453600Y-22626400D02*
X94053700Y-22626400D01*
X94053700Y-22626400D02*
X93017300Y-21590000D01*
X93017300Y-21590000D02*
X85090000Y-21590000D01*
X91929900Y-76054900D02*
X91929900Y-74368500D01*
X94615000Y-78740000D02*
X91929900Y-76054900D01*
X86105700Y-80963900D02*
X92391100Y-80963900D01*
X85494800Y-81574800D02*
X86105700Y-80963900D01*
X92391100Y-80963900D02*
X94615000Y-78740000D01*
X83255200Y-81574800D02*
X85494800Y-81574800D01*
X80710000Y-84120000D02*
X83255200Y-81574800D01*
%TO.N,/AA2*%
X82550000Y-21590000D02*
X79295200Y-21590000D01*
X79295200Y-21590000D02*
X78765500Y-21060300D01*
X82039600Y-81124600D02*
X85077100Y-81124600D01*
X79345100Y-83819100D02*
X82039600Y-81124600D01*
X79345100Y-85484900D02*
X79345100Y-83819100D01*
X78170000Y-86660000D02*
X79345100Y-85484900D01*
X90301110Y-80513890D02*
X85919299Y-80513891D01*
X92075000Y-78740000D02*
X90301110Y-80513890D01*
X85308590Y-81124600D02*
X85077100Y-81124600D01*
X85919299Y-80513891D02*
X85308590Y-81124600D01*
X90203100Y-76868100D02*
X90201900Y-76868100D01*
X92075000Y-78740000D02*
X90203100Y-76868100D01*
%TO.N,/AA1*%
X85090000Y-24130000D02*
X87534400Y-24130000D01*
X87534400Y-24130000D02*
X88587800Y-25183400D01*
X88587800Y-25183400D02*
X103674700Y-25183400D01*
X103674700Y-25183400D02*
X105781500Y-23076600D01*
X105781500Y-23076600D02*
X109436600Y-23076600D01*
X109436600Y-23076600D02*
X110490000Y-24130000D01*
X81615500Y-80674500D02*
X78170000Y-84120000D01*
X85732898Y-80063882D02*
X85122280Y-80674500D01*
X85122280Y-80674500D02*
X81615500Y-80674500D01*
X88211118Y-80063882D02*
X85732898Y-80063882D01*
X89535000Y-78740000D02*
X88211118Y-80063882D01*
%TO.N,/AA0*%
X82550000Y-24130000D02*
X83186600Y-24130000D01*
X83186600Y-24130000D02*
X84240100Y-25183500D01*
X84240100Y-25183500D02*
X87314600Y-25183500D01*
X87314600Y-25183500D02*
X87764700Y-25633600D01*
X87764700Y-25633600D02*
X106446400Y-25633600D01*
X106446400Y-25633600D02*
X107950000Y-24130000D01*
X76805100Y-83802100D02*
X76805100Y-85484900D01*
X84956470Y-80203900D02*
X80403300Y-80203900D01*
X80403300Y-80203900D02*
X76805100Y-83802100D01*
X76805100Y-85484900D02*
X75630000Y-86660000D01*
X86420370Y-78740000D02*
X84956470Y-80203900D01*
X86995000Y-78740000D02*
X86420370Y-78740000D01*
%TO.N,/~ARD*%
X100330000Y-24130000D02*
X99293600Y-23093600D01*
X99293600Y-23093600D02*
X92004600Y-23093600D01*
X92004600Y-23093600D02*
X91789400Y-23308800D01*
X91789400Y-23308800D02*
X90326900Y-23308800D01*
X90326900Y-23308800D02*
X90111400Y-23093300D01*
X90111400Y-23093300D02*
X75966700Y-23093300D01*
X75966700Y-23093300D02*
X74930000Y-24130000D01*
X73184600Y-61444500D02*
X73184600Y-60939800D01*
X77276600Y-65536500D02*
X73184600Y-61444500D01*
X92578500Y-65536500D02*
X77276600Y-65536500D01*
X94615000Y-63500000D02*
X92578500Y-65536500D01*
%TO.N,/~AWR*%
X107315000Y-57105300D02*
X103659300Y-53449600D01*
X103659300Y-53449600D02*
X103659300Y-48189300D01*
X73258700Y-40640000D02*
X74295000Y-40640000D01*
X69608000Y-44290700D02*
X73258700Y-40640000D01*
X66541600Y-44290700D02*
X69608000Y-44290700D01*
X62769400Y-48062900D02*
X66541600Y-44290700D01*
X62769400Y-84109400D02*
X62769400Y-48062900D01*
X69380000Y-90720000D02*
X62769400Y-84109400D01*
X99340810Y-11526370D02*
X108988081Y-11526371D01*
X113379600Y-38469000D02*
X103659300Y-48189300D01*
X85940000Y-12206170D02*
X98661010Y-12206170D01*
X98661010Y-12206170D02*
X99340810Y-11526370D01*
X113379600Y-15917600D02*
X113379600Y-38469000D01*
X77376032Y-11819980D02*
X83222801Y-11819981D01*
X85526200Y-12619970D02*
X85940000Y-12206170D01*
X83222801Y-11819981D02*
X84022790Y-12619970D01*
X76548312Y-12647700D02*
X77376032Y-11819980D01*
X113379310Y-15917600D02*
X113379600Y-15917600D01*
X74762500Y-12647700D02*
X76548312Y-12647700D01*
X73844900Y-13565300D02*
X74762500Y-12647700D01*
X108988081Y-11526371D02*
X113379310Y-15917600D01*
X84022790Y-12619970D02*
X85526200Y-12619970D01*
X73844900Y-15424900D02*
X73844900Y-13565300D01*
X74930000Y-16510000D02*
X73844900Y-15424900D01*
%TO.N,/AA15_T*%
X76725500Y-99245500D02*
X77201800Y-99245500D01*
X77201800Y-99245500D02*
X96173700Y-99245500D01*
X62239400Y-84759400D02*
X76725500Y-99245500D01*
X62239400Y-45090500D02*
X62239400Y-84759400D01*
X69215000Y-40640000D02*
X68178600Y-41676400D01*
X65653500Y-41676400D02*
X62239400Y-45090500D01*
X68178600Y-41676400D02*
X65653500Y-41676400D01*
%TO.N,/TMS*%
X67310000Y-71120000D02*
X68485100Y-71120000D01*
X68485100Y-71120000D02*
X73121100Y-66484000D01*
X73121100Y-66484000D02*
X75275200Y-66484000D01*
%TO.N,/TDI*%
X69064800Y-34229100D02*
X68935900Y-34100200D01*
X72628599Y-32274799D02*
X72628599Y-33000101D01*
X71399600Y-34229100D02*
X69064800Y-34229100D01*
X73005798Y-31897600D02*
X72628599Y-32274799D01*
X72628599Y-33000101D02*
X71399600Y-34229100D01*
X82188400Y-31897600D02*
X73005798Y-31897600D01*
%TO.N,/F010_A14*%
X94642500Y-31897500D02*
X89725500Y-31897500D01*
X89725500Y-31897500D02*
X88550000Y-33073000D01*
X88550000Y-33073000D02*
X75948600Y-33073000D01*
X75948600Y-33073000D02*
X73573000Y-35448600D01*
X73573000Y-35448600D02*
X70273000Y-35448600D01*
%TO.N,/~F_CE_010*%
X99310800Y-30776300D02*
X98914700Y-31172400D01*
X98914700Y-31172400D02*
X89776800Y-31172400D01*
X89776800Y-31172400D02*
X88326400Y-32622800D01*
X88326400Y-32622800D02*
X73353600Y-32622800D01*
%TO.N,/F040_A17*%
X102569500Y-53640500D02*
X100965000Y-55245000D01*
X102569500Y-48140500D02*
X102569500Y-53640500D01*
X112929400Y-37780600D02*
X102569500Y-48140500D01*
X112929400Y-16104100D02*
X112929400Y-37780600D01*
X85712600Y-13069980D02*
X86126400Y-12656180D01*
X108801680Y-11976380D02*
X112929400Y-16104100D01*
X98847410Y-12656180D02*
X99527210Y-11976380D01*
X77562432Y-12269990D02*
X83036400Y-12269990D01*
X86126400Y-12656180D02*
X98847410Y-12656180D01*
X83836390Y-13069980D02*
X85712600Y-13069980D01*
X99527210Y-11976380D02*
X108801680Y-11976380D01*
X74930000Y-13970000D02*
X75862422Y-13970000D01*
X83036400Y-12269990D02*
X83836390Y-13069980D01*
X75862422Y-13970000D02*
X77562432Y-12269990D01*
%TO.N,/F040_A14*%
X74936600Y-36320200D02*
X77281800Y-33975000D01*
X77281800Y-33975000D02*
X89146100Y-33975000D01*
X89146100Y-33975000D02*
X89372900Y-33748200D01*
X89372900Y-33748200D02*
X95602900Y-33748200D01*
X95602900Y-33748200D02*
X99319700Y-37465000D01*
X99319700Y-37465000D02*
X100965000Y-37465000D01*
%TO.N,/~F_CE_040*%
X71935900Y-23054100D02*
X72790100Y-23054100D01*
X70877100Y-24112900D02*
X71935900Y-23054100D01*
X73893600Y-24157600D02*
X73893600Y-25633600D01*
X70877100Y-27717500D02*
X70877100Y-24112900D01*
X72066300Y-32925990D02*
X72066300Y-28906700D01*
X73893600Y-25633600D02*
X74930000Y-26670000D01*
X72066300Y-28906700D02*
X70877100Y-27717500D01*
X72790100Y-23054100D02*
X73893600Y-24157600D01*
X71488290Y-33504000D02*
X72066300Y-32925990D01*
X71081600Y-33504000D02*
X71488290Y-33504000D01*
%TO.N,/F040_A15*%
X111998700Y-34051300D02*
X100965000Y-45085000D01*
X111998700Y-16498200D02*
X111998700Y-34051300D01*
X110974299Y-15473799D02*
X111998700Y-16498200D01*
X102766221Y-15473799D02*
X110974299Y-15473799D01*
X102298623Y-15006201D02*
X102766221Y-15473799D01*
X81513799Y-15006201D02*
X102298623Y-15006201D01*
X80010000Y-16510000D02*
X81513799Y-15006201D01*
%TO.N,/F040_A16*%
X112479300Y-36110700D02*
X112479300Y-16342100D01*
X100965000Y-47625000D02*
X112479300Y-36110700D01*
X108563590Y-12426390D02*
X112479300Y-16342100D01*
X99713610Y-12426390D02*
X108563590Y-12426390D01*
X83063799Y-12933799D02*
X83649990Y-13519990D01*
X81046201Y-12933799D02*
X83063799Y-12933799D01*
X80010000Y-13970000D02*
X81046201Y-12933799D01*
X85899000Y-13519990D02*
X86312800Y-13106190D01*
X83649990Y-13519990D02*
X85899000Y-13519990D01*
X99033810Y-13106190D02*
X99713610Y-12426390D01*
X86312800Y-13106190D02*
X99033810Y-13106190D01*
%TO.N,/F040_A18*%
X91489000Y-22583700D02*
X91429500Y-22643200D01*
X91429500Y-22643200D02*
X78322900Y-22643200D01*
X78322900Y-22643200D02*
X77470000Y-21790300D01*
D20*
%TO.N,Net-(BT1-Pad1)*%
X75720000Y-100220000D02*
X98770000Y-100220000D01*
X98770000Y-100220000D02*
X101120000Y-102570000D01*
X101120000Y-102570000D02*
X101120000Y-105407400D01*
X102262600Y-106550000D02*
X101120000Y-105407400D01*
X103550000Y-106550000D02*
X102262600Y-106550000D01*
%TO.N,VMEM*%
X114935000Y-63500000D02*
X114935000Y-64800100D01*
X114935000Y-64800100D02*
X116235200Y-66100300D01*
X116235200Y-66100300D02*
X116235200Y-82669800D01*
X116235200Y-84324800D02*
X116235200Y-82669800D01*
X116235200Y-84334800D02*
X114980000Y-85590000D01*
X116235200Y-84324800D02*
X116235200Y-84334800D01*
D21*
%TO.N,/F010_A17*%
X75372900Y-10764100D02*
X69976900Y-16160100D01*
X69976900Y-16160100D02*
X69976900Y-31200500D01*
X69976900Y-31200500D02*
X71280100Y-32503700D01*
X100018799Y-14281201D02*
X100330000Y-13970000D01*
X76755900Y-10764100D02*
X75372900Y-10764100D01*
X83359130Y-10764100D02*
X84490000Y-11894970D01*
X76755900Y-10764100D02*
X83359130Y-10764100D01*
X100018800Y-14281200D02*
X100330000Y-13970000D01*
X86880000Y-14281200D02*
X100018800Y-14281200D01*
%TO.N,/F010_A16*%
X69215000Y-45720000D02*
X71122000Y-45720000D01*
X71122000Y-45720000D02*
X75742400Y-41099600D01*
X75742400Y-41099600D02*
X75742400Y-37675500D01*
X75742400Y-37675500D02*
X78139700Y-35278200D01*
X78139700Y-35278200D02*
X79413100Y-35278200D01*
%TO.N,/F010_A15*%
X71314300Y-31480000D02*
X70427000Y-30592700D01*
X70427000Y-30592700D02*
X70427000Y-16346600D01*
X69610500Y-47864500D02*
X69215000Y-48260000D01*
X71430000Y-48260000D02*
X69215000Y-48260000D01*
X74963600Y-11810000D02*
X76347900Y-11810000D01*
X70427000Y-16346600D02*
X74963600Y-11810000D01*
%TO.N,/F010_A18*%
X95667000Y-31942800D02*
X94536700Y-33073100D01*
X94536700Y-33073100D02*
X89186600Y-33073100D01*
X89186600Y-33073100D02*
X88736500Y-33523200D01*
X88736500Y-33523200D02*
X76708200Y-33523200D01*
X76708200Y-33523200D02*
X73050500Y-37180900D01*
X73050500Y-37180900D02*
X73050500Y-38351600D01*
X73050500Y-38351600D02*
X72032100Y-39370000D01*
X72032100Y-39370000D02*
X67945000Y-39370000D01*
X67945000Y-39370000D02*
X66675000Y-40640000D01*
%TO.N,/RAM_A14*%
X109855000Y-77547800D02*
X109855000Y-78740000D01*
X76828800Y-66998600D02*
X99305800Y-66998600D01*
X99305800Y-66998600D02*
X109855000Y-77547800D01*
X70259800Y-60429600D02*
X76828800Y-66998600D01*
X70510500Y-54376400D02*
X70259800Y-54627100D01*
X73256700Y-52301700D02*
X71300300Y-52301700D01*
X70510500Y-53091500D02*
X70510500Y-54376400D01*
X70259800Y-54627100D02*
X70259800Y-60429600D01*
X71300300Y-52301700D02*
X70510500Y-53091500D01*
X74295000Y-53340000D02*
X73256700Y-52301700D01*
%TO.N,/HC373_040_LE*%
X73245700Y-72297000D02*
X66786100Y-72297000D01*
X66786100Y-72297000D02*
X66134800Y-71645700D01*
X66134800Y-71645700D02*
X66134800Y-58960200D01*
X66134800Y-58960200D02*
X69215000Y-55880000D01*
X77692200Y-67850500D02*
X73245700Y-72297000D01*
X93213600Y-67850500D02*
X77692200Y-67850500D01*
%TO.N,/RAM_A15*%
X109796600Y-66098400D02*
X112395000Y-63500000D01*
X77201900Y-66098400D02*
X109796600Y-66098400D01*
X71755000Y-60651500D02*
X77201900Y-66098400D01*
X71755000Y-55880000D02*
X71755000Y-60651500D01*
%TO.N,/RAM_A16*%
X100551500Y-66896500D02*
X112395000Y-78740000D01*
X100203500Y-66548500D02*
X100551500Y-66896500D01*
X77015400Y-66548500D02*
X100203500Y-66548500D01*
X70710000Y-60243100D02*
X77015400Y-66548500D01*
X71755000Y-53340000D02*
X71755000Y-54370800D01*
X70710000Y-55415800D02*
X70710000Y-60243100D01*
X71755000Y-54370800D02*
X70710000Y-55415800D01*
%TO.N,/~RAM_CE*%
X80645000Y-63876700D02*
X80645000Y-62230000D01*
X80645000Y-62230000D02*
X74295000Y-55880000D01*
X88398900Y-64636100D02*
X81404400Y-64636100D01*
X81404400Y-64636100D02*
X80645000Y-63876700D01*
X89535000Y-63500000D02*
X88398900Y-64636100D01*
%TD*%
D22*
%TO.N,GND*%
X112470000Y-83774802D02*
X112470001Y-87735483D01*
X109434004Y-90771481D01*
X109405000Y-90795284D01*
X109349872Y-90862459D01*
X109310027Y-90911009D01*
X109256655Y-91010860D01*
X109239455Y-91043039D01*
X109195998Y-91186300D01*
X109185001Y-91297953D01*
X109185001Y-91297963D01*
X109181325Y-91335285D01*
X109185001Y-91372607D01*
X109185002Y-101195196D01*
X105209003Y-105171196D01*
X105179999Y-105194999D01*
X105142924Y-105240176D01*
X105085026Y-105310724D01*
X105033351Y-105407400D01*
X105014454Y-105442754D01*
X104970997Y-105586015D01*
X104960000Y-105697668D01*
X104960000Y-105697678D01*
X104956324Y-105735000D01*
X104960000Y-105772322D01*
X104960000Y-105786289D01*
X104916063Y-105830226D01*
X104802795Y-105999744D01*
X104724774Y-106188102D01*
X104685000Y-106388061D01*
X104685000Y-106591939D01*
X104724774Y-106791898D01*
X104802795Y-106980256D01*
X104916063Y-107149774D01*
X105060226Y-107293937D01*
X105229744Y-107407205D01*
X105418102Y-107485226D01*
X105618061Y-107525000D01*
X105821939Y-107525000D01*
X106021898Y-107485226D01*
X106210256Y-107407205D01*
X106379774Y-107293937D01*
X106523937Y-107149774D01*
X106637205Y-106980256D01*
X106715226Y-106791898D01*
X106755000Y-106591939D01*
X106755000Y-106388061D01*
X106715226Y-106188102D01*
X106637205Y-105999744D01*
X106594288Y-105935513D01*
X109984100Y-102545702D01*
X109984100Y-104501098D01*
X106515199Y-107970000D01*
X97617333Y-107970000D01*
X97580000Y-107966323D01*
X97542667Y-107970000D01*
X97431014Y-107980997D01*
X97287753Y-108024454D01*
X97155724Y-108095026D01*
X97039999Y-108189999D01*
X97016201Y-108218997D01*
X96390199Y-108845000D01*
X96328061Y-108845000D01*
X96128102Y-108884774D01*
X95939744Y-108962795D01*
X95770226Y-109076063D01*
X95626063Y-109220226D01*
X95512795Y-109389744D01*
X95434774Y-109578102D01*
X95395000Y-109778061D01*
X95395000Y-109981939D01*
X95434774Y-110181898D01*
X95512795Y-110370256D01*
X95626063Y-110539774D01*
X95770226Y-110683937D01*
X95939744Y-110797205D01*
X96128102Y-110875226D01*
X96328061Y-110915000D01*
X96531939Y-110915000D01*
X96731898Y-110875226D01*
X96920256Y-110797205D01*
X97089774Y-110683937D01*
X97233937Y-110539774D01*
X97347205Y-110370256D01*
X97425226Y-110181898D01*
X97465000Y-109981939D01*
X97465000Y-109919801D01*
X97894802Y-109490000D01*
X106792678Y-109490000D01*
X106830000Y-109493676D01*
X106867322Y-109490000D01*
X106867333Y-109490000D01*
X106978986Y-109479003D01*
X107122247Y-109435546D01*
X107254276Y-109364974D01*
X107370001Y-109270001D01*
X107393804Y-109240997D01*
X111255104Y-105379698D01*
X111284101Y-105355901D01*
X111379074Y-105240176D01*
X111449646Y-105108147D01*
X111493103Y-104964886D01*
X111504100Y-104853233D01*
X111504100Y-104853224D01*
X111507776Y-104815901D01*
X111504100Y-104778578D01*
X111504100Y-97285000D01*
X115415000Y-97285000D01*
X115415001Y-143815000D01*
X115333647Y-143815000D01*
X115300000Y-143811686D01*
X115266353Y-143815000D01*
X115165717Y-143824912D01*
X115036594Y-143864081D01*
X114917593Y-143927688D01*
X114813289Y-144013289D01*
X114727688Y-144117593D01*
X114664081Y-144236594D01*
X114624912Y-144365717D01*
X114611686Y-144500000D01*
X114615001Y-144533657D01*
X114615000Y-146215000D01*
X114233647Y-146215000D01*
X114200000Y-146211686D01*
X114166353Y-146215000D01*
X114065717Y-146224912D01*
X113936594Y-146264081D01*
X113817593Y-146327688D01*
X113713289Y-146413289D01*
X113627688Y-146517593D01*
X113594733Y-146579248D01*
X113594443Y-146579403D01*
X113575197Y-146595197D01*
X113559403Y-146614443D01*
X113547667Y-146636399D01*
X113540440Y-146660224D01*
X113538000Y-146685000D01*
X113538000Y-146722572D01*
X113524912Y-146765717D01*
X113511686Y-146900000D01*
X113515001Y-146933657D01*
X113515000Y-154566497D01*
X113507683Y-154641121D01*
X113495741Y-154680676D01*
X113476340Y-154717163D01*
X113450225Y-154749184D01*
X113418391Y-154775519D01*
X113382042Y-154795173D01*
X113342573Y-154807390D01*
X113289199Y-154813000D01*
X65913105Y-154813000D01*
X65858879Y-154807683D01*
X65819324Y-154795741D01*
X65782837Y-154776340D01*
X65750816Y-154750225D01*
X65724481Y-154718391D01*
X65704827Y-154682042D01*
X65692610Y-154642573D01*
X65685000Y-154570171D01*
X65685000Y-146933646D01*
X65688314Y-146900000D01*
X65675088Y-146765717D01*
X65635919Y-146636594D01*
X65572312Y-146517593D01*
X65486711Y-146413289D01*
X65382407Y-146327688D01*
X65263406Y-146264081D01*
X65134283Y-146224912D01*
X65033647Y-146215000D01*
X65000000Y-146211686D01*
X64966353Y-146215000D01*
X64585000Y-146215000D01*
X64585000Y-144533646D01*
X64588314Y-144500000D01*
X64575088Y-144365717D01*
X64535919Y-144236594D01*
X64472312Y-144117593D01*
X64386711Y-144013289D01*
X64282407Y-143927688D01*
X64163406Y-143864081D01*
X64034283Y-143824912D01*
X63933647Y-143815000D01*
X63900000Y-143811686D01*
X63866353Y-143815000D01*
X63785000Y-143815000D01*
X63785000Y-139478036D01*
X85315730Y-139478036D01*
X85315730Y-140321964D01*
X85480372Y-141149676D01*
X85803329Y-141929363D01*
X86272190Y-142631063D01*
X86868937Y-143227810D01*
X87570637Y-143696671D01*
X88350324Y-144019628D01*
X89178036Y-144184270D01*
X90021964Y-144184270D01*
X90849676Y-144019628D01*
X91629363Y-143696671D01*
X92331063Y-143227810D01*
X92927810Y-142631063D01*
X93396671Y-141929363D01*
X93719628Y-141149676D01*
X93884270Y-140321964D01*
X93884270Y-139478036D01*
X93719628Y-138650324D01*
X93396671Y-137870637D01*
X92927810Y-137168937D01*
X92331063Y-136572190D01*
X91629363Y-136103329D01*
X90849676Y-135780372D01*
X90021964Y-135615730D01*
X89178036Y-135615730D01*
X88350324Y-135780372D01*
X87570637Y-136103329D01*
X86868937Y-136572190D01*
X86272190Y-137168937D01*
X85803329Y-137870637D01*
X85480372Y-138650324D01*
X85315730Y-139478036D01*
X63785000Y-139478036D01*
X63785000Y-114732881D01*
X87903210Y-114732881D01*
X87903210Y-115067119D01*
X87968417Y-115394935D01*
X88096324Y-115703731D01*
X88282017Y-115981641D01*
X88518359Y-116217983D01*
X88796269Y-116403676D01*
X89105065Y-116531583D01*
X89432881Y-116596790D01*
X89767119Y-116596790D01*
X90094935Y-116531583D01*
X90403731Y-116403676D01*
X90681641Y-116217983D01*
X90917983Y-115981641D01*
X91103676Y-115703731D01*
X91231583Y-115394935D01*
X91296790Y-115067119D01*
X91296790Y-114732881D01*
X91231583Y-114405065D01*
X91103676Y-114096269D01*
X90917983Y-113818359D01*
X90681641Y-113582017D01*
X90403731Y-113396324D01*
X90094935Y-113268417D01*
X89767119Y-113203210D01*
X89432881Y-113203210D01*
X89105065Y-113268417D01*
X88796269Y-113396324D01*
X88518359Y-113582017D01*
X88282017Y-113818359D01*
X88096324Y-114096269D01*
X87968417Y-114405065D01*
X87903210Y-114732881D01*
X63785000Y-114732881D01*
X63785000Y-91633646D01*
X63788314Y-91600000D01*
X63775088Y-91465717D01*
X63735919Y-91336594D01*
X63672312Y-91217593D01*
X63586711Y-91113289D01*
X63482407Y-91027688D01*
X63363406Y-90964081D01*
X63234283Y-90924912D01*
X63133647Y-90915000D01*
X63100000Y-90911686D01*
X63066353Y-90915000D01*
X62535000Y-90915000D01*
X62535000Y-86129801D01*
X75594821Y-99189623D01*
X75418102Y-99224774D01*
X75229744Y-99302795D01*
X75060226Y-99416063D01*
X74916063Y-99560226D01*
X74802795Y-99729744D01*
X74724774Y-99918102D01*
X74685000Y-100118061D01*
X74685000Y-100321939D01*
X74724774Y-100521898D01*
X74802795Y-100710256D01*
X74916063Y-100879774D01*
X75060226Y-101023937D01*
X75229744Y-101137205D01*
X75418102Y-101215226D01*
X75618061Y-101255000D01*
X75821939Y-101255000D01*
X76021898Y-101215226D01*
X76210256Y-101137205D01*
X76258454Y-101105000D01*
X98403422Y-101105000D01*
X100235000Y-102936579D01*
X100235001Y-105363921D01*
X100230719Y-105407400D01*
X100247805Y-105580890D01*
X100298412Y-105747713D01*
X100380590Y-105901459D01*
X100463468Y-106002446D01*
X100463471Y-106002449D01*
X100491184Y-106036217D01*
X100524951Y-106063929D01*
X101606070Y-107145049D01*
X101633783Y-107178817D01*
X101667551Y-107206530D01*
X101667553Y-107206532D01*
X101707119Y-107239003D01*
X101768541Y-107289411D01*
X101922287Y-107371589D01*
X102089110Y-107422195D01*
X102219123Y-107435000D01*
X102219133Y-107435000D01*
X102262599Y-107439281D01*
X102306065Y-107435000D01*
X103011546Y-107435000D01*
X103059744Y-107467205D01*
X103248102Y-107545226D01*
X103448061Y-107585000D01*
X103651939Y-107585000D01*
X103851898Y-107545226D01*
X104040256Y-107467205D01*
X104209774Y-107353937D01*
X104353937Y-107209774D01*
X104467205Y-107040256D01*
X104545226Y-106851898D01*
X104585000Y-106651939D01*
X104585000Y-106448061D01*
X104545226Y-106248102D01*
X104467205Y-106059744D01*
X104353937Y-105890226D01*
X104209774Y-105746063D01*
X104040256Y-105632795D01*
X103851898Y-105554774D01*
X103651939Y-105515000D01*
X103448061Y-105515000D01*
X103248102Y-105554774D01*
X103059744Y-105632795D01*
X103011546Y-105665000D01*
X102629179Y-105665000D01*
X102005000Y-105040822D01*
X102005000Y-102613469D01*
X102009281Y-102570000D01*
X102005000Y-102526531D01*
X102005000Y-102526523D01*
X101992195Y-102396510D01*
X101941589Y-102229687D01*
X101859411Y-102075941D01*
X101838122Y-102050000D01*
X101776532Y-101974953D01*
X101776530Y-101974951D01*
X101748817Y-101941183D01*
X101715050Y-101913471D01*
X99426534Y-99624956D01*
X99398817Y-99591183D01*
X99264059Y-99480589D01*
X99110313Y-99398411D01*
X98943490Y-99347805D01*
X98813477Y-99335000D01*
X98813469Y-99335000D01*
X98770000Y-99330719D01*
X98726531Y-99335000D01*
X97208700Y-99335000D01*
X97208700Y-99143561D01*
X97187026Y-99034600D01*
X100779099Y-99034600D01*
X100779700Y-99035201D01*
X100779700Y-99097339D01*
X100819474Y-99297298D01*
X100897495Y-99485656D01*
X101010763Y-99655174D01*
X101154926Y-99799337D01*
X101324444Y-99912605D01*
X101512802Y-99990626D01*
X101712761Y-100030400D01*
X101916639Y-100030400D01*
X102116598Y-99990626D01*
X102304956Y-99912605D01*
X102474474Y-99799337D01*
X102618637Y-99655174D01*
X102731905Y-99485656D01*
X102809926Y-99297298D01*
X102849700Y-99097339D01*
X102849700Y-98893461D01*
X102809926Y-98693502D01*
X102731905Y-98505144D01*
X102618637Y-98335626D01*
X102474474Y-98191463D01*
X102304956Y-98078195D01*
X102116598Y-98000174D01*
X101916639Y-97960400D01*
X101854501Y-97960400D01*
X101657703Y-97763602D01*
X101633901Y-97734599D01*
X101518176Y-97639626D01*
X101386147Y-97569054D01*
X101242886Y-97525597D01*
X101131233Y-97514600D01*
X101131222Y-97514600D01*
X101093900Y-97510924D01*
X101056578Y-97514600D01*
X78463902Y-97514600D01*
X77595402Y-96646100D01*
X103848222Y-96646100D01*
X105988465Y-98786344D01*
X105999774Y-98843198D01*
X106077795Y-99031556D01*
X106191063Y-99201074D01*
X106335226Y-99345237D01*
X106504744Y-99458505D01*
X106693102Y-99536526D01*
X106893061Y-99576300D01*
X107096939Y-99576300D01*
X107296898Y-99536526D01*
X107485256Y-99458505D01*
X107654774Y-99345237D01*
X107798937Y-99201074D01*
X107912205Y-99031556D01*
X107990226Y-98843198D01*
X108030000Y-98643239D01*
X108030000Y-98439361D01*
X107990226Y-98239402D01*
X107912205Y-98051044D01*
X107798937Y-97881526D01*
X107654774Y-97737363D01*
X107485256Y-97624095D01*
X107296898Y-97546074D01*
X107240044Y-97534765D01*
X104871334Y-95166056D01*
X104843617Y-95132283D01*
X104708859Y-95021689D01*
X104612967Y-94970434D01*
X108427703Y-91155699D01*
X108456701Y-91131901D01*
X108480499Y-91102903D01*
X108504833Y-91073252D01*
X111611003Y-87967083D01*
X111640001Y-87943285D01*
X111695776Y-87875323D01*
X111734974Y-87827561D01*
X111805546Y-87695531D01*
X111826634Y-87626011D01*
X111849003Y-87552270D01*
X111860000Y-87440617D01*
X111860000Y-87440608D01*
X111863676Y-87403285D01*
X111860000Y-87365962D01*
X111860000Y-86463711D01*
X111903937Y-86419774D01*
X112017205Y-86250256D01*
X112095226Y-86061898D01*
X112135000Y-85861939D01*
X112135000Y-85658061D01*
X112095226Y-85458102D01*
X112017205Y-85269744D01*
X111903937Y-85100226D01*
X111759774Y-84956063D01*
X111590256Y-84842795D01*
X111401898Y-84764774D01*
X111201939Y-84725000D01*
X110998061Y-84725000D01*
X110798102Y-84764774D01*
X110609744Y-84842795D01*
X110440226Y-84956063D01*
X110296063Y-85100226D01*
X110182795Y-85269744D01*
X110104774Y-85458102D01*
X110065000Y-85658061D01*
X110065000Y-85861939D01*
X110104774Y-86061898D01*
X110182795Y-86250256D01*
X110296063Y-86419774D01*
X110340000Y-86463711D01*
X110340001Y-87088481D01*
X107405703Y-90022780D01*
X107376699Y-90046583D01*
X107328574Y-90105224D01*
X103432299Y-94001500D01*
X86495211Y-94001500D01*
X86451274Y-93957563D01*
X86281756Y-93844295D01*
X86093398Y-93766274D01*
X85893439Y-93726500D01*
X85689561Y-93726500D01*
X85489602Y-93766274D01*
X85301244Y-93844295D01*
X85131726Y-93957563D01*
X84987563Y-94101726D01*
X84874295Y-94271244D01*
X84796274Y-94459602D01*
X84756500Y-94659561D01*
X84756500Y-94863439D01*
X84759018Y-94876100D01*
X76886779Y-94876100D01*
X70085718Y-88075040D01*
X70116842Y-88087932D01*
X70403740Y-88145000D01*
X70696260Y-88145000D01*
X70983158Y-88087932D01*
X71253411Y-87975990D01*
X71490842Y-87817343D01*
X72945501Y-89272003D01*
X72969299Y-89301001D01*
X72998297Y-89324799D01*
X73085024Y-89395974D01*
X73217053Y-89466546D01*
X73360314Y-89510003D01*
X73509300Y-89524677D01*
X73546633Y-89521000D01*
X98891678Y-89521000D01*
X98929000Y-89524676D01*
X98966322Y-89521000D01*
X98966333Y-89521000D01*
X99077986Y-89510003D01*
X99221247Y-89466546D01*
X99353276Y-89395974D01*
X99469001Y-89301001D01*
X99492804Y-89271997D01*
X100663592Y-88101210D01*
X100883740Y-88145000D01*
X101176260Y-88145000D01*
X101463158Y-88087932D01*
X101733411Y-87975990D01*
X101924684Y-87848185D01*
X102422701Y-88346202D01*
X102446499Y-88375201D01*
X102475497Y-88398999D01*
X102562224Y-88470174D01*
X102694253Y-88540746D01*
X102837514Y-88584203D01*
X102986500Y-88598877D01*
X103023833Y-88595200D01*
X106636480Y-88595200D01*
X106673802Y-88598876D01*
X106711124Y-88595200D01*
X106711135Y-88595200D01*
X106822788Y-88584203D01*
X106966049Y-88540746D01*
X107098078Y-88470174D01*
X107213803Y-88375201D01*
X107237605Y-88346198D01*
X107750817Y-87832987D01*
X107883080Y-87931641D01*
X108145901Y-88056825D01*
X108293110Y-88101476D01*
X108523000Y-87980155D01*
X108523000Y-86787000D01*
X108777000Y-86787000D01*
X108777000Y-87980155D01*
X109006890Y-88101476D01*
X109154099Y-88056825D01*
X109416920Y-87931641D01*
X109650269Y-87757588D01*
X109845178Y-87541355D01*
X109994157Y-87291252D01*
X110091481Y-87016891D01*
X109970814Y-86787000D01*
X108777000Y-86787000D01*
X108523000Y-86787000D01*
X108503000Y-86787000D01*
X108503000Y-86533000D01*
X108523000Y-86533000D01*
X108523000Y-86513000D01*
X108777000Y-86513000D01*
X108777000Y-86533000D01*
X109970814Y-86533000D01*
X110091481Y-86303109D01*
X109994157Y-86028748D01*
X109845178Y-85778645D01*
X109650269Y-85562412D01*
X109420594Y-85391100D01*
X109596632Y-85273475D01*
X109803475Y-85066632D01*
X109965990Y-84823411D01*
X110077932Y-84553158D01*
X110135000Y-84266260D01*
X110135000Y-83973740D01*
X110091210Y-83753592D01*
X110724802Y-83120000D01*
X111815199Y-83120000D01*
X112470000Y-83774802D01*
%TA.AperFunction,Conductor*%
D23*
G36*
X112470000Y-83774802D02*
G01*
X112470001Y-87735483D01*
X109434004Y-90771481D01*
X109405000Y-90795284D01*
X109349872Y-90862459D01*
X109310027Y-90911009D01*
X109256655Y-91010860D01*
X109239455Y-91043039D01*
X109195998Y-91186300D01*
X109185001Y-91297953D01*
X109185001Y-91297963D01*
X109181325Y-91335285D01*
X109185001Y-91372607D01*
X109185002Y-101195196D01*
X105209003Y-105171196D01*
X105179999Y-105194999D01*
X105142924Y-105240176D01*
X105085026Y-105310724D01*
X105033351Y-105407400D01*
X105014454Y-105442754D01*
X104970997Y-105586015D01*
X104960000Y-105697668D01*
X104960000Y-105697678D01*
X104956324Y-105735000D01*
X104960000Y-105772322D01*
X104960000Y-105786289D01*
X104916063Y-105830226D01*
X104802795Y-105999744D01*
X104724774Y-106188102D01*
X104685000Y-106388061D01*
X104685000Y-106591939D01*
X104724774Y-106791898D01*
X104802795Y-106980256D01*
X104916063Y-107149774D01*
X105060226Y-107293937D01*
X105229744Y-107407205D01*
X105418102Y-107485226D01*
X105618061Y-107525000D01*
X105821939Y-107525000D01*
X106021898Y-107485226D01*
X106210256Y-107407205D01*
X106379774Y-107293937D01*
X106523937Y-107149774D01*
X106637205Y-106980256D01*
X106715226Y-106791898D01*
X106755000Y-106591939D01*
X106755000Y-106388061D01*
X106715226Y-106188102D01*
X106637205Y-105999744D01*
X106594288Y-105935513D01*
X109984100Y-102545702D01*
X109984100Y-104501098D01*
X106515199Y-107970000D01*
X97617333Y-107970000D01*
X97580000Y-107966323D01*
X97542667Y-107970000D01*
X97431014Y-107980997D01*
X97287753Y-108024454D01*
X97155724Y-108095026D01*
X97039999Y-108189999D01*
X97016201Y-108218997D01*
X96390199Y-108845000D01*
X96328061Y-108845000D01*
X96128102Y-108884774D01*
X95939744Y-108962795D01*
X95770226Y-109076063D01*
X95626063Y-109220226D01*
X95512795Y-109389744D01*
X95434774Y-109578102D01*
X95395000Y-109778061D01*
X95395000Y-109981939D01*
X95434774Y-110181898D01*
X95512795Y-110370256D01*
X95626063Y-110539774D01*
X95770226Y-110683937D01*
X95939744Y-110797205D01*
X96128102Y-110875226D01*
X96328061Y-110915000D01*
X96531939Y-110915000D01*
X96731898Y-110875226D01*
X96920256Y-110797205D01*
X97089774Y-110683937D01*
X97233937Y-110539774D01*
X97347205Y-110370256D01*
X97425226Y-110181898D01*
X97465000Y-109981939D01*
X97465000Y-109919801D01*
X97894802Y-109490000D01*
X106792678Y-109490000D01*
X106830000Y-109493676D01*
X106867322Y-109490000D01*
X106867333Y-109490000D01*
X106978986Y-109479003D01*
X107122247Y-109435546D01*
X107254276Y-109364974D01*
X107370001Y-109270001D01*
X107393804Y-109240997D01*
X111255104Y-105379698D01*
X111284101Y-105355901D01*
X111379074Y-105240176D01*
X111449646Y-105108147D01*
X111493103Y-104964886D01*
X111504100Y-104853233D01*
X111504100Y-104853224D01*
X111507776Y-104815901D01*
X111504100Y-104778578D01*
X111504100Y-97285000D01*
X115415000Y-97285000D01*
X115415001Y-143815000D01*
X115333647Y-143815000D01*
X115300000Y-143811686D01*
X115266353Y-143815000D01*
X115165717Y-143824912D01*
X115036594Y-143864081D01*
X114917593Y-143927688D01*
X114813289Y-144013289D01*
X114727688Y-144117593D01*
X114664081Y-144236594D01*
X114624912Y-144365717D01*
X114611686Y-144500000D01*
X114615001Y-144533657D01*
X114615000Y-146215000D01*
X114233647Y-146215000D01*
X114200000Y-146211686D01*
X114166353Y-146215000D01*
X114065717Y-146224912D01*
X113936594Y-146264081D01*
X113817593Y-146327688D01*
X113713289Y-146413289D01*
X113627688Y-146517593D01*
X113594733Y-146579248D01*
X113594443Y-146579403D01*
X113575197Y-146595197D01*
X113559403Y-146614443D01*
X113547667Y-146636399D01*
X113540440Y-146660224D01*
X113538000Y-146685000D01*
X113538000Y-146722572D01*
X113524912Y-146765717D01*
X113511686Y-146900000D01*
X113515001Y-146933657D01*
X113515000Y-154566497D01*
X113507683Y-154641121D01*
X113495741Y-154680676D01*
X113476340Y-154717163D01*
X113450225Y-154749184D01*
X113418391Y-154775519D01*
X113382042Y-154795173D01*
X113342573Y-154807390D01*
X113289199Y-154813000D01*
X65913105Y-154813000D01*
X65858879Y-154807683D01*
X65819324Y-154795741D01*
X65782837Y-154776340D01*
X65750816Y-154750225D01*
X65724481Y-154718391D01*
X65704827Y-154682042D01*
X65692610Y-154642573D01*
X65685000Y-154570171D01*
X65685000Y-146933646D01*
X65688314Y-146900000D01*
X65675088Y-146765717D01*
X65635919Y-146636594D01*
X65572312Y-146517593D01*
X65486711Y-146413289D01*
X65382407Y-146327688D01*
X65263406Y-146264081D01*
X65134283Y-146224912D01*
X65033647Y-146215000D01*
X65000000Y-146211686D01*
X64966353Y-146215000D01*
X64585000Y-146215000D01*
X64585000Y-144533646D01*
X64588314Y-144500000D01*
X64575088Y-144365717D01*
X64535919Y-144236594D01*
X64472312Y-144117593D01*
X64386711Y-144013289D01*
X64282407Y-143927688D01*
X64163406Y-143864081D01*
X64034283Y-143824912D01*
X63933647Y-143815000D01*
X63900000Y-143811686D01*
X63866353Y-143815000D01*
X63785000Y-143815000D01*
X63785000Y-139478036D01*
X85315730Y-139478036D01*
X85315730Y-140321964D01*
X85480372Y-141149676D01*
X85803329Y-141929363D01*
X86272190Y-142631063D01*
X86868937Y-143227810D01*
X87570637Y-143696671D01*
X88350324Y-144019628D01*
X89178036Y-144184270D01*
X90021964Y-144184270D01*
X90849676Y-144019628D01*
X91629363Y-143696671D01*
X92331063Y-143227810D01*
X92927810Y-142631063D01*
X93396671Y-141929363D01*
X93719628Y-141149676D01*
X93884270Y-140321964D01*
X93884270Y-139478036D01*
X93719628Y-138650324D01*
X93396671Y-137870637D01*
X92927810Y-137168937D01*
X92331063Y-136572190D01*
X91629363Y-136103329D01*
X90849676Y-135780372D01*
X90021964Y-135615730D01*
X89178036Y-135615730D01*
X88350324Y-135780372D01*
X87570637Y-136103329D01*
X86868937Y-136572190D01*
X86272190Y-137168937D01*
X85803329Y-137870637D01*
X85480372Y-138650324D01*
X85315730Y-139478036D01*
X63785000Y-139478036D01*
X63785000Y-114732881D01*
X87903210Y-114732881D01*
X87903210Y-115067119D01*
X87968417Y-115394935D01*
X88096324Y-115703731D01*
X88282017Y-115981641D01*
X88518359Y-116217983D01*
X88796269Y-116403676D01*
X89105065Y-116531583D01*
X89432881Y-116596790D01*
X89767119Y-116596790D01*
X90094935Y-116531583D01*
X90403731Y-116403676D01*
X90681641Y-116217983D01*
X90917983Y-115981641D01*
X91103676Y-115703731D01*
X91231583Y-115394935D01*
X91296790Y-115067119D01*
X91296790Y-114732881D01*
X91231583Y-114405065D01*
X91103676Y-114096269D01*
X90917983Y-113818359D01*
X90681641Y-113582017D01*
X90403731Y-113396324D01*
X90094935Y-113268417D01*
X89767119Y-113203210D01*
X89432881Y-113203210D01*
X89105065Y-113268417D01*
X88796269Y-113396324D01*
X88518359Y-113582017D01*
X88282017Y-113818359D01*
X88096324Y-114096269D01*
X87968417Y-114405065D01*
X87903210Y-114732881D01*
X63785000Y-114732881D01*
X63785000Y-91633646D01*
X63788314Y-91600000D01*
X63775088Y-91465717D01*
X63735919Y-91336594D01*
X63672312Y-91217593D01*
X63586711Y-91113289D01*
X63482407Y-91027688D01*
X63363406Y-90964081D01*
X63234283Y-90924912D01*
X63133647Y-90915000D01*
X63100000Y-90911686D01*
X63066353Y-90915000D01*
X62535000Y-90915000D01*
X62535000Y-86129801D01*
X75594821Y-99189623D01*
X75418102Y-99224774D01*
X75229744Y-99302795D01*
X75060226Y-99416063D01*
X74916063Y-99560226D01*
X74802795Y-99729744D01*
X74724774Y-99918102D01*
X74685000Y-100118061D01*
X74685000Y-100321939D01*
X74724774Y-100521898D01*
X74802795Y-100710256D01*
X74916063Y-100879774D01*
X75060226Y-101023937D01*
X75229744Y-101137205D01*
X75418102Y-101215226D01*
X75618061Y-101255000D01*
X75821939Y-101255000D01*
X76021898Y-101215226D01*
X76210256Y-101137205D01*
X76258454Y-101105000D01*
X98403422Y-101105000D01*
X100235000Y-102936579D01*
X100235001Y-105363921D01*
X100230719Y-105407400D01*
X100247805Y-105580890D01*
X100298412Y-105747713D01*
X100380590Y-105901459D01*
X100463468Y-106002446D01*
X100463471Y-106002449D01*
X100491184Y-106036217D01*
X100524951Y-106063929D01*
X101606070Y-107145049D01*
X101633783Y-107178817D01*
X101667551Y-107206530D01*
X101667553Y-107206532D01*
X101707119Y-107239003D01*
X101768541Y-107289411D01*
X101922287Y-107371589D01*
X102089110Y-107422195D01*
X102219123Y-107435000D01*
X102219133Y-107435000D01*
X102262599Y-107439281D01*
X102306065Y-107435000D01*
X103011546Y-107435000D01*
X103059744Y-107467205D01*
X103248102Y-107545226D01*
X103448061Y-107585000D01*
X103651939Y-107585000D01*
X103851898Y-107545226D01*
X104040256Y-107467205D01*
X104209774Y-107353937D01*
X104353937Y-107209774D01*
X104467205Y-107040256D01*
X104545226Y-106851898D01*
X104585000Y-106651939D01*
X104585000Y-106448061D01*
X104545226Y-106248102D01*
X104467205Y-106059744D01*
X104353937Y-105890226D01*
X104209774Y-105746063D01*
X104040256Y-105632795D01*
X103851898Y-105554774D01*
X103651939Y-105515000D01*
X103448061Y-105515000D01*
X103248102Y-105554774D01*
X103059744Y-105632795D01*
X103011546Y-105665000D01*
X102629179Y-105665000D01*
X102005000Y-105040822D01*
X102005000Y-102613469D01*
X102009281Y-102570000D01*
X102005000Y-102526531D01*
X102005000Y-102526523D01*
X101992195Y-102396510D01*
X101941589Y-102229687D01*
X101859411Y-102075941D01*
X101838122Y-102050000D01*
X101776532Y-101974953D01*
X101776530Y-101974951D01*
X101748817Y-101941183D01*
X101715050Y-101913471D01*
X99426534Y-99624956D01*
X99398817Y-99591183D01*
X99264059Y-99480589D01*
X99110313Y-99398411D01*
X98943490Y-99347805D01*
X98813477Y-99335000D01*
X98813469Y-99335000D01*
X98770000Y-99330719D01*
X98726531Y-99335000D01*
X97208700Y-99335000D01*
X97208700Y-99143561D01*
X97187026Y-99034600D01*
X100779099Y-99034600D01*
X100779700Y-99035201D01*
X100779700Y-99097339D01*
X100819474Y-99297298D01*
X100897495Y-99485656D01*
X101010763Y-99655174D01*
X101154926Y-99799337D01*
X101324444Y-99912605D01*
X101512802Y-99990626D01*
X101712761Y-100030400D01*
X101916639Y-100030400D01*
X102116598Y-99990626D01*
X102304956Y-99912605D01*
X102474474Y-99799337D01*
X102618637Y-99655174D01*
X102731905Y-99485656D01*
X102809926Y-99297298D01*
X102849700Y-99097339D01*
X102849700Y-98893461D01*
X102809926Y-98693502D01*
X102731905Y-98505144D01*
X102618637Y-98335626D01*
X102474474Y-98191463D01*
X102304956Y-98078195D01*
X102116598Y-98000174D01*
X101916639Y-97960400D01*
X101854501Y-97960400D01*
X101657703Y-97763602D01*
X101633901Y-97734599D01*
X101518176Y-97639626D01*
X101386147Y-97569054D01*
X101242886Y-97525597D01*
X101131233Y-97514600D01*
X101131222Y-97514600D01*
X101093900Y-97510924D01*
X101056578Y-97514600D01*
X78463902Y-97514600D01*
X77595402Y-96646100D01*
X103848222Y-96646100D01*
X105988465Y-98786344D01*
X105999774Y-98843198D01*
X106077795Y-99031556D01*
X106191063Y-99201074D01*
X106335226Y-99345237D01*
X106504744Y-99458505D01*
X106693102Y-99536526D01*
X106893061Y-99576300D01*
X107096939Y-99576300D01*
X107296898Y-99536526D01*
X107485256Y-99458505D01*
X107654774Y-99345237D01*
X107798937Y-99201074D01*
X107912205Y-99031556D01*
X107990226Y-98843198D01*
X108030000Y-98643239D01*
X108030000Y-98439361D01*
X107990226Y-98239402D01*
X107912205Y-98051044D01*
X107798937Y-97881526D01*
X107654774Y-97737363D01*
X107485256Y-97624095D01*
X107296898Y-97546074D01*
X107240044Y-97534765D01*
X104871334Y-95166056D01*
X104843617Y-95132283D01*
X104708859Y-95021689D01*
X104612967Y-94970434D01*
X108427703Y-91155699D01*
X108456701Y-91131901D01*
X108480499Y-91102903D01*
X108504833Y-91073252D01*
X111611003Y-87967083D01*
X111640001Y-87943285D01*
X111695776Y-87875323D01*
X111734974Y-87827561D01*
X111805546Y-87695531D01*
X111826634Y-87626011D01*
X111849003Y-87552270D01*
X111860000Y-87440617D01*
X111860000Y-87440608D01*
X111863676Y-87403285D01*
X111860000Y-87365962D01*
X111860000Y-86463711D01*
X111903937Y-86419774D01*
X112017205Y-86250256D01*
X112095226Y-86061898D01*
X112135000Y-85861939D01*
X112135000Y-85658061D01*
X112095226Y-85458102D01*
X112017205Y-85269744D01*
X111903937Y-85100226D01*
X111759774Y-84956063D01*
X111590256Y-84842795D01*
X111401898Y-84764774D01*
X111201939Y-84725000D01*
X110998061Y-84725000D01*
X110798102Y-84764774D01*
X110609744Y-84842795D01*
X110440226Y-84956063D01*
X110296063Y-85100226D01*
X110182795Y-85269744D01*
X110104774Y-85458102D01*
X110065000Y-85658061D01*
X110065000Y-85861939D01*
X110104774Y-86061898D01*
X110182795Y-86250256D01*
X110296063Y-86419774D01*
X110340000Y-86463711D01*
X110340001Y-87088481D01*
X107405703Y-90022780D01*
X107376699Y-90046583D01*
X107328574Y-90105224D01*
X103432299Y-94001500D01*
X86495211Y-94001500D01*
X86451274Y-93957563D01*
X86281756Y-93844295D01*
X86093398Y-93766274D01*
X85893439Y-93726500D01*
X85689561Y-93726500D01*
X85489602Y-93766274D01*
X85301244Y-93844295D01*
X85131726Y-93957563D01*
X84987563Y-94101726D01*
X84874295Y-94271244D01*
X84796274Y-94459602D01*
X84756500Y-94659561D01*
X84756500Y-94863439D01*
X84759018Y-94876100D01*
X76886779Y-94876100D01*
X70085718Y-88075040D01*
X70116842Y-88087932D01*
X70403740Y-88145000D01*
X70696260Y-88145000D01*
X70983158Y-88087932D01*
X71253411Y-87975990D01*
X71490842Y-87817343D01*
X72945501Y-89272003D01*
X72969299Y-89301001D01*
X72998297Y-89324799D01*
X73085024Y-89395974D01*
X73217053Y-89466546D01*
X73360314Y-89510003D01*
X73509300Y-89524677D01*
X73546633Y-89521000D01*
X98891678Y-89521000D01*
X98929000Y-89524676D01*
X98966322Y-89521000D01*
X98966333Y-89521000D01*
X99077986Y-89510003D01*
X99221247Y-89466546D01*
X99353276Y-89395974D01*
X99469001Y-89301001D01*
X99492804Y-89271997D01*
X100663592Y-88101210D01*
X100883740Y-88145000D01*
X101176260Y-88145000D01*
X101463158Y-88087932D01*
X101733411Y-87975990D01*
X101924684Y-87848185D01*
X102422701Y-88346202D01*
X102446499Y-88375201D01*
X102475497Y-88398999D01*
X102562224Y-88470174D01*
X102694253Y-88540746D01*
X102837514Y-88584203D01*
X102986500Y-88598877D01*
X103023833Y-88595200D01*
X106636480Y-88595200D01*
X106673802Y-88598876D01*
X106711124Y-88595200D01*
X106711135Y-88595200D01*
X106822788Y-88584203D01*
X106966049Y-88540746D01*
X107098078Y-88470174D01*
X107213803Y-88375201D01*
X107237605Y-88346198D01*
X107750817Y-87832987D01*
X107883080Y-87931641D01*
X108145901Y-88056825D01*
X108293110Y-88101476D01*
X108523000Y-87980155D01*
X108523000Y-86787000D01*
X108777000Y-86787000D01*
X108777000Y-87980155D01*
X109006890Y-88101476D01*
X109154099Y-88056825D01*
X109416920Y-87931641D01*
X109650269Y-87757588D01*
X109845178Y-87541355D01*
X109994157Y-87291252D01*
X110091481Y-87016891D01*
X109970814Y-86787000D01*
X108777000Y-86787000D01*
X108523000Y-86787000D01*
X108503000Y-86787000D01*
X108503000Y-86533000D01*
X108523000Y-86533000D01*
X108523000Y-86513000D01*
X108777000Y-86513000D01*
X108777000Y-86533000D01*
X109970814Y-86533000D01*
X110091481Y-86303109D01*
X109994157Y-86028748D01*
X109845178Y-85778645D01*
X109650269Y-85562412D01*
X109420594Y-85391100D01*
X109596632Y-85273475D01*
X109803475Y-85066632D01*
X109965990Y-84823411D01*
X110077932Y-84553158D01*
X110135000Y-84266260D01*
X110135000Y-83973740D01*
X110091210Y-83753592D01*
X110724802Y-83120000D01*
X111815199Y-83120000D01*
X112470000Y-83774802D01*
G37*
%TD.AperFunction*%
D22*
X80924774Y-68798102D02*
X80885000Y-68998061D01*
X80885000Y-69201939D01*
X80924774Y-69401898D01*
X81002795Y-69590256D01*
X81116063Y-69759774D01*
X81260226Y-69903937D01*
X81429744Y-70017205D01*
X81618102Y-70095226D01*
X81818061Y-70135000D01*
X81880199Y-70135000D01*
X83248700Y-71503502D01*
X83272499Y-71532501D01*
X83388224Y-71627474D01*
X83520253Y-71698046D01*
X83663514Y-71741503D01*
X83775167Y-71752500D01*
X83775176Y-71752500D01*
X83812499Y-71756176D01*
X83849822Y-71752500D01*
X97355832Y-71752500D01*
X97233444Y-71803195D01*
X97063926Y-71916463D01*
X97019989Y-71960400D01*
X87971923Y-71960400D01*
X87934600Y-71956724D01*
X87897277Y-71960400D01*
X87897267Y-71960400D01*
X87785614Y-71971397D01*
X87642353Y-72014854D01*
X87510323Y-72085426D01*
X87434061Y-72148013D01*
X87394599Y-72180399D01*
X87370801Y-72209397D01*
X82238887Y-77341312D01*
X82056335Y-77305000D01*
X81773665Y-77305000D01*
X81496426Y-77360147D01*
X81235273Y-77468320D01*
X81000241Y-77625363D01*
X80800363Y-77825241D01*
X80645000Y-78057759D01*
X80489637Y-77825241D01*
X80289759Y-77625363D01*
X80054727Y-77468320D01*
X79793574Y-77360147D01*
X79516335Y-77305000D01*
X79233665Y-77305000D01*
X78956426Y-77360147D01*
X78695273Y-77468320D01*
X78460241Y-77625363D01*
X78260363Y-77825241D01*
X78103320Y-78060273D01*
X78098933Y-78070865D01*
X77987385Y-77884869D01*
X77798414Y-77676481D01*
X77572420Y-77508963D01*
X77318087Y-77388754D01*
X77184039Y-77348096D01*
X76962000Y-77470085D01*
X76962000Y-78613000D01*
X76982000Y-78613000D01*
X76982000Y-78867000D01*
X76962000Y-78867000D01*
X76962000Y-78887000D01*
X76708000Y-78887000D01*
X76708000Y-78867000D01*
X76688000Y-78867000D01*
X76688000Y-78613000D01*
X76708000Y-78613000D01*
X76708000Y-77470085D01*
X76485961Y-77348096D01*
X76351913Y-77388754D01*
X76097580Y-77508963D01*
X75871586Y-77676481D01*
X75682615Y-77884869D01*
X75537930Y-78126119D01*
X75443091Y-78390960D01*
X75564375Y-78612998D01*
X75400000Y-78612998D01*
X75400000Y-78637566D01*
X75389398Y-78633174D01*
X75189439Y-78593400D01*
X74985561Y-78593400D01*
X74785602Y-78633174D01*
X74597244Y-78711195D01*
X74427726Y-78824463D01*
X74283563Y-78968626D01*
X74170295Y-79138144D01*
X74092274Y-79326502D01*
X74052500Y-79526461D01*
X74052500Y-79588598D01*
X71403798Y-82237301D01*
X71374800Y-82261099D01*
X71351002Y-82290097D01*
X71351001Y-82290098D01*
X71279826Y-82376824D01*
X71209254Y-82508854D01*
X71190811Y-82569656D01*
X71171921Y-82631928D01*
X69700000Y-82631928D01*
X69575518Y-82644188D01*
X69455820Y-82680498D01*
X69345506Y-82739463D01*
X69248815Y-82818815D01*
X69169463Y-82915506D01*
X69110498Y-83025820D01*
X69074188Y-83145518D01*
X69061928Y-83270000D01*
X69061928Y-84970000D01*
X69074188Y-85094482D01*
X69110498Y-85214180D01*
X69169463Y-85324494D01*
X69248815Y-85421185D01*
X69345506Y-85500537D01*
X69455820Y-85559502D01*
X69528380Y-85581513D01*
X69396525Y-85713368D01*
X69234010Y-85956589D01*
X69122068Y-86226842D01*
X69065000Y-86513740D01*
X69065000Y-86806260D01*
X69122068Y-87093158D01*
X69134960Y-87124282D01*
X68976900Y-86966222D01*
X68976900Y-82787754D01*
X69009105Y-82739556D01*
X69087126Y-82551198D01*
X69126900Y-82351239D01*
X69126900Y-82147361D01*
X69087126Y-81947402D01*
X69009105Y-81759044D01*
X68895837Y-81589526D01*
X68751674Y-81445363D01*
X68582156Y-81332095D01*
X68393798Y-81254074D01*
X68336944Y-81242765D01*
X64779178Y-77685000D01*
X64897002Y-77685000D01*
X64897002Y-77520815D01*
X65126891Y-77641481D01*
X65401252Y-77544157D01*
X65651355Y-77395178D01*
X65867588Y-77200269D01*
X66038900Y-76970594D01*
X66156525Y-77146632D01*
X66363368Y-77353475D01*
X66606589Y-77515990D01*
X66876842Y-77627932D01*
X67163740Y-77685000D01*
X67456260Y-77685000D01*
X67743158Y-77627932D01*
X68013411Y-77515990D01*
X68256632Y-77353475D01*
X68463475Y-77146632D01*
X68625990Y-76903411D01*
X68737932Y-76633158D01*
X68795000Y-76346260D01*
X68795000Y-76053740D01*
X68737932Y-75766842D01*
X68625990Y-75496589D01*
X68463475Y-75253368D01*
X68256632Y-75046525D01*
X68082240Y-74930000D01*
X68256632Y-74813475D01*
X68463475Y-74606632D01*
X68625990Y-74363411D01*
X68737932Y-74093158D01*
X68795000Y-73806260D01*
X68795000Y-73513740D01*
X68737932Y-73226842D01*
X68667581Y-73057000D01*
X73208378Y-73057000D01*
X73245700Y-73060676D01*
X73283022Y-73057000D01*
X73283033Y-73057000D01*
X73394686Y-73046003D01*
X73537947Y-73002546D01*
X73669976Y-72931974D01*
X73785701Y-72837001D01*
X73809504Y-72807997D01*
X78007002Y-68610500D01*
X81002482Y-68610500D01*
X80924774Y-68798102D01*
%TA.AperFunction,Conductor*%
D23*
G36*
X80924774Y-68798102D02*
G01*
X80885000Y-68998061D01*
X80885000Y-69201939D01*
X80924774Y-69401898D01*
X81002795Y-69590256D01*
X81116063Y-69759774D01*
X81260226Y-69903937D01*
X81429744Y-70017205D01*
X81618102Y-70095226D01*
X81818061Y-70135000D01*
X81880199Y-70135000D01*
X83248700Y-71503502D01*
X83272499Y-71532501D01*
X83388224Y-71627474D01*
X83520253Y-71698046D01*
X83663514Y-71741503D01*
X83775167Y-71752500D01*
X83775176Y-71752500D01*
X83812499Y-71756176D01*
X83849822Y-71752500D01*
X97355832Y-71752500D01*
X97233444Y-71803195D01*
X97063926Y-71916463D01*
X97019989Y-71960400D01*
X87971923Y-71960400D01*
X87934600Y-71956724D01*
X87897277Y-71960400D01*
X87897267Y-71960400D01*
X87785614Y-71971397D01*
X87642353Y-72014854D01*
X87510323Y-72085426D01*
X87434061Y-72148013D01*
X87394599Y-72180399D01*
X87370801Y-72209397D01*
X82238887Y-77341312D01*
X82056335Y-77305000D01*
X81773665Y-77305000D01*
X81496426Y-77360147D01*
X81235273Y-77468320D01*
X81000241Y-77625363D01*
X80800363Y-77825241D01*
X80645000Y-78057759D01*
X80489637Y-77825241D01*
X80289759Y-77625363D01*
X80054727Y-77468320D01*
X79793574Y-77360147D01*
X79516335Y-77305000D01*
X79233665Y-77305000D01*
X78956426Y-77360147D01*
X78695273Y-77468320D01*
X78460241Y-77625363D01*
X78260363Y-77825241D01*
X78103320Y-78060273D01*
X78098933Y-78070865D01*
X77987385Y-77884869D01*
X77798414Y-77676481D01*
X77572420Y-77508963D01*
X77318087Y-77388754D01*
X77184039Y-77348096D01*
X76962000Y-77470085D01*
X76962000Y-78613000D01*
X76982000Y-78613000D01*
X76982000Y-78867000D01*
X76962000Y-78867000D01*
X76962000Y-78887000D01*
X76708000Y-78887000D01*
X76708000Y-78867000D01*
X76688000Y-78867000D01*
X76688000Y-78613000D01*
X76708000Y-78613000D01*
X76708000Y-77470085D01*
X76485961Y-77348096D01*
X76351913Y-77388754D01*
X76097580Y-77508963D01*
X75871586Y-77676481D01*
X75682615Y-77884869D01*
X75537930Y-78126119D01*
X75443091Y-78390960D01*
X75564375Y-78612998D01*
X75400000Y-78612998D01*
X75400000Y-78637566D01*
X75389398Y-78633174D01*
X75189439Y-78593400D01*
X74985561Y-78593400D01*
X74785602Y-78633174D01*
X74597244Y-78711195D01*
X74427726Y-78824463D01*
X74283563Y-78968626D01*
X74170295Y-79138144D01*
X74092274Y-79326502D01*
X74052500Y-79526461D01*
X74052500Y-79588598D01*
X71403798Y-82237301D01*
X71374800Y-82261099D01*
X71351002Y-82290097D01*
X71351001Y-82290098D01*
X71279826Y-82376824D01*
X71209254Y-82508854D01*
X71190811Y-82569656D01*
X71171921Y-82631928D01*
X69700000Y-82631928D01*
X69575518Y-82644188D01*
X69455820Y-82680498D01*
X69345506Y-82739463D01*
X69248815Y-82818815D01*
X69169463Y-82915506D01*
X69110498Y-83025820D01*
X69074188Y-83145518D01*
X69061928Y-83270000D01*
X69061928Y-84970000D01*
X69074188Y-85094482D01*
X69110498Y-85214180D01*
X69169463Y-85324494D01*
X69248815Y-85421185D01*
X69345506Y-85500537D01*
X69455820Y-85559502D01*
X69528380Y-85581513D01*
X69396525Y-85713368D01*
X69234010Y-85956589D01*
X69122068Y-86226842D01*
X69065000Y-86513740D01*
X69065000Y-86806260D01*
X69122068Y-87093158D01*
X69134960Y-87124282D01*
X68976900Y-86966222D01*
X68976900Y-82787754D01*
X69009105Y-82739556D01*
X69087126Y-82551198D01*
X69126900Y-82351239D01*
X69126900Y-82147361D01*
X69087126Y-81947402D01*
X69009105Y-81759044D01*
X68895837Y-81589526D01*
X68751674Y-81445363D01*
X68582156Y-81332095D01*
X68393798Y-81254074D01*
X68336944Y-81242765D01*
X64779178Y-77685000D01*
X64897002Y-77685000D01*
X64897002Y-77520815D01*
X65126891Y-77641481D01*
X65401252Y-77544157D01*
X65651355Y-77395178D01*
X65867588Y-77200269D01*
X66038900Y-76970594D01*
X66156525Y-77146632D01*
X66363368Y-77353475D01*
X66606589Y-77515990D01*
X66876842Y-77627932D01*
X67163740Y-77685000D01*
X67456260Y-77685000D01*
X67743158Y-77627932D01*
X68013411Y-77515990D01*
X68256632Y-77353475D01*
X68463475Y-77146632D01*
X68625990Y-76903411D01*
X68737932Y-76633158D01*
X68795000Y-76346260D01*
X68795000Y-76053740D01*
X68737932Y-75766842D01*
X68625990Y-75496589D01*
X68463475Y-75253368D01*
X68256632Y-75046525D01*
X68082240Y-74930000D01*
X68256632Y-74813475D01*
X68463475Y-74606632D01*
X68625990Y-74363411D01*
X68737932Y-74093158D01*
X68795000Y-73806260D01*
X68795000Y-73513740D01*
X68737932Y-73226842D01*
X68667581Y-73057000D01*
X73208378Y-73057000D01*
X73245700Y-73060676D01*
X73283022Y-73057000D01*
X73283033Y-73057000D01*
X73394686Y-73046003D01*
X73537947Y-73002546D01*
X73669976Y-72931974D01*
X73785701Y-72837001D01*
X73809504Y-72807997D01*
X78007002Y-68610500D01*
X81002482Y-68610500D01*
X80924774Y-68798102D01*
G37*
%TD.AperFunction*%
D22*
X64897000Y-76073000D02*
X64917000Y-76073000D01*
X64917000Y-76327000D01*
X64897000Y-76327000D01*
X64897000Y-76347000D01*
X64643000Y-76347000D01*
X64643000Y-76327000D01*
X64623000Y-76327000D01*
X64623000Y-76073000D01*
X64643000Y-76073000D01*
X64643000Y-76053000D01*
X64897000Y-76053000D01*
X64897000Y-76073000D01*
%TA.AperFunction,Conductor*%
D23*
G36*
X64897000Y-76073000D02*
G01*
X64917000Y-76073000D01*
X64917000Y-76327000D01*
X64897000Y-76327000D01*
X64897000Y-76347000D01*
X64643000Y-76347000D01*
X64643000Y-76327000D01*
X64623000Y-76327000D01*
X64623000Y-76073000D01*
X64643000Y-76073000D01*
X64643000Y-76053000D01*
X64897000Y-76053000D01*
X64897000Y-76073000D01*
G37*
%TD.AperFunction*%
D22*
X68022013Y-51437665D02*
X68169338Y-51658153D01*
X68356847Y-51845662D01*
X68577335Y-51992987D01*
X68765600Y-52070969D01*
X68629720Y-52120458D01*
X68526152Y-52175817D01*
X68465332Y-52410727D01*
X69215000Y-53160395D01*
X69229143Y-53146253D01*
X69408748Y-53325858D01*
X69394605Y-53340000D01*
X69408748Y-53354143D01*
X69229143Y-53533748D01*
X69215000Y-53519605D01*
X68465332Y-54269273D01*
X68526152Y-54504183D01*
X68757934Y-54612206D01*
X68577335Y-54687013D01*
X68356847Y-54834338D01*
X68169338Y-55021847D01*
X68022013Y-55242335D01*
X67920533Y-55487328D01*
X67868800Y-55747411D01*
X67868800Y-56012589D01*
X67891830Y-56128369D01*
X65623798Y-58396401D01*
X65594800Y-58420199D01*
X65571002Y-58449197D01*
X65571001Y-58449198D01*
X65499826Y-58535924D01*
X65429254Y-58667954D01*
X65416742Y-58709203D01*
X65385798Y-58811214D01*
X65374801Y-58922867D01*
X65371124Y-58960200D01*
X65374801Y-58997532D01*
X65374801Y-64686460D01*
X65126891Y-64598519D01*
X64897000Y-64719186D01*
X64897000Y-65913000D01*
X64917000Y-65913000D01*
X64917000Y-66167000D01*
X64897000Y-66167000D01*
X64897000Y-66187000D01*
X64643000Y-66187000D01*
X64643000Y-66167000D01*
X64623000Y-66167000D01*
X64623000Y-65913000D01*
X64643000Y-65913000D01*
X64643000Y-64719186D01*
X64413109Y-64598519D01*
X64279600Y-64645879D01*
X64279600Y-52727478D01*
X65517021Y-51490058D01*
X65629338Y-51658153D01*
X65816847Y-51845662D01*
X66037335Y-51992987D01*
X66223260Y-52070000D01*
X66037335Y-52147013D01*
X65816847Y-52294338D01*
X65629338Y-52481847D01*
X65482013Y-52702335D01*
X65380533Y-52947328D01*
X65328800Y-53207411D01*
X65328800Y-53472589D01*
X65380533Y-53732672D01*
X65482013Y-53977665D01*
X65629338Y-54198153D01*
X65816847Y-54385662D01*
X66037335Y-54532987D01*
X66282328Y-54634467D01*
X66542411Y-54686200D01*
X66807589Y-54686200D01*
X67067672Y-54634467D01*
X67312665Y-54532987D01*
X67533153Y-54385662D01*
X67720662Y-54198153D01*
X67867987Y-53977665D01*
X67945969Y-53789400D01*
X67995458Y-53925280D01*
X68050817Y-54028848D01*
X68285727Y-54089668D01*
X69035395Y-53340000D01*
X68285727Y-52590332D01*
X68050817Y-52651152D01*
X67942794Y-52882934D01*
X67867987Y-52702335D01*
X67720662Y-52481847D01*
X67533153Y-52294338D01*
X67312665Y-52147013D01*
X67126740Y-52070000D01*
X67312665Y-51992987D01*
X67533153Y-51845662D01*
X67720662Y-51658153D01*
X67867987Y-51437665D01*
X67945000Y-51251740D01*
X68022013Y-51437665D01*
%TA.AperFunction,Conductor*%
D23*
G36*
X68022013Y-51437665D02*
G01*
X68169338Y-51658153D01*
X68356847Y-51845662D01*
X68577335Y-51992987D01*
X68765600Y-52070969D01*
X68629720Y-52120458D01*
X68526152Y-52175817D01*
X68465332Y-52410727D01*
X69215000Y-53160395D01*
X69229143Y-53146253D01*
X69408748Y-53325858D01*
X69394605Y-53340000D01*
X69408748Y-53354143D01*
X69229143Y-53533748D01*
X69215000Y-53519605D01*
X68465332Y-54269273D01*
X68526152Y-54504183D01*
X68757934Y-54612206D01*
X68577335Y-54687013D01*
X68356847Y-54834338D01*
X68169338Y-55021847D01*
X68022013Y-55242335D01*
X67920533Y-55487328D01*
X67868800Y-55747411D01*
X67868800Y-56012589D01*
X67891830Y-56128369D01*
X65623798Y-58396401D01*
X65594800Y-58420199D01*
X65571002Y-58449197D01*
X65571001Y-58449198D01*
X65499826Y-58535924D01*
X65429254Y-58667954D01*
X65416742Y-58709203D01*
X65385798Y-58811214D01*
X65374801Y-58922867D01*
X65371124Y-58960200D01*
X65374801Y-58997532D01*
X65374801Y-64686460D01*
X65126891Y-64598519D01*
X64897000Y-64719186D01*
X64897000Y-65913000D01*
X64917000Y-65913000D01*
X64917000Y-66167000D01*
X64897000Y-66167000D01*
X64897000Y-66187000D01*
X64643000Y-66187000D01*
X64643000Y-66167000D01*
X64623000Y-66167000D01*
X64623000Y-65913000D01*
X64643000Y-65913000D01*
X64643000Y-64719186D01*
X64413109Y-64598519D01*
X64279600Y-64645879D01*
X64279600Y-52727478D01*
X65517021Y-51490058D01*
X65629338Y-51658153D01*
X65816847Y-51845662D01*
X66037335Y-51992987D01*
X66223260Y-52070000D01*
X66037335Y-52147013D01*
X65816847Y-52294338D01*
X65629338Y-52481847D01*
X65482013Y-52702335D01*
X65380533Y-52947328D01*
X65328800Y-53207411D01*
X65328800Y-53472589D01*
X65380533Y-53732672D01*
X65482013Y-53977665D01*
X65629338Y-54198153D01*
X65816847Y-54385662D01*
X66037335Y-54532987D01*
X66282328Y-54634467D01*
X66542411Y-54686200D01*
X66807589Y-54686200D01*
X67067672Y-54634467D01*
X67312665Y-54532987D01*
X67533153Y-54385662D01*
X67720662Y-54198153D01*
X67867987Y-53977665D01*
X67945969Y-53789400D01*
X67995458Y-53925280D01*
X68050817Y-54028848D01*
X68285727Y-54089668D01*
X69035395Y-53340000D01*
X68285727Y-52590332D01*
X68050817Y-52651152D01*
X67942794Y-52882934D01*
X67867987Y-52702335D01*
X67720662Y-52481847D01*
X67533153Y-52294338D01*
X67312665Y-52147013D01*
X67126740Y-52070000D01*
X67312665Y-51992987D01*
X67533153Y-51845662D01*
X67720662Y-51658153D01*
X67867987Y-51437665D01*
X67945000Y-51251740D01*
X68022013Y-51437665D01*
G37*
%TD.AperFunction*%
D22*
X116665001Y-62004899D02*
X112007204Y-57347103D01*
X111983401Y-57318099D01*
X111867676Y-57223126D01*
X111735647Y-57152554D01*
X111592386Y-57109097D01*
X111480733Y-57098100D01*
X111480722Y-57098100D01*
X111443400Y-57094424D01*
X111406078Y-57098100D01*
X108350000Y-57098100D01*
X108350000Y-57003361D01*
X108310226Y-56803402D01*
X108232205Y-56615044D01*
X108118937Y-56445526D01*
X107974774Y-56301363D01*
X107805256Y-56188095D01*
X107616898Y-56110074D01*
X107416939Y-56070300D01*
X107354802Y-56070300D01*
X104419300Y-53134799D01*
X104419300Y-48893011D01*
X104463237Y-48849074D01*
X104576505Y-48679556D01*
X104654526Y-48491198D01*
X104694300Y-48291239D01*
X104694300Y-48229101D01*
X113890603Y-39032799D01*
X113919601Y-39009001D01*
X113961331Y-38958153D01*
X114014574Y-38893277D01*
X114085146Y-38761247D01*
X114092598Y-38736680D01*
X114128603Y-38617986D01*
X114139600Y-38506333D01*
X114139600Y-38506324D01*
X114143276Y-38469001D01*
X114139600Y-38431678D01*
X114139600Y-15954933D01*
X114143277Y-15917600D01*
X114128603Y-15768614D01*
X114085146Y-15625353D01*
X114014574Y-15493324D01*
X113919601Y-15377599D01*
X113888986Y-15352474D01*
X109551880Y-11015369D01*
X109528082Y-10986371D01*
X109499082Y-10962571D01*
X109412357Y-10891397D01*
X109280327Y-10820825D01*
X109180523Y-10790551D01*
X109137067Y-10777369D01*
X109025414Y-10766372D01*
X108988081Y-10762695D01*
X108950749Y-10766372D01*
X99378132Y-10766370D01*
X99340809Y-10762694D01*
X99303486Y-10766370D01*
X99303478Y-10766370D01*
X99191825Y-10777367D01*
X99048564Y-10820824D01*
X98975328Y-10859970D01*
X98916533Y-10891397D01*
X98829806Y-10962571D01*
X98829797Y-10962580D01*
X98800810Y-10986369D01*
X98777020Y-11015357D01*
X98346208Y-11446170D01*
X85977333Y-11446170D01*
X85940000Y-11442493D01*
X85902667Y-11446170D01*
X85791014Y-11457167D01*
X85647753Y-11500624D01*
X85515724Y-11571196D01*
X85485765Y-11595783D01*
X85485226Y-11593072D01*
X85407205Y-11404714D01*
X85293937Y-11235196D01*
X85149774Y-11091033D01*
X84980256Y-10977765D01*
X84791898Y-10899744D01*
X84591939Y-10859970D01*
X84529802Y-10859970D01*
X83922934Y-10253102D01*
X83899131Y-10224099D01*
X83783406Y-10129126D01*
X83651377Y-10058554D01*
X83508116Y-10015097D01*
X83396463Y-10004100D01*
X83396452Y-10004100D01*
X83359130Y-10000424D01*
X83321808Y-10004100D01*
X75410222Y-10004100D01*
X75372899Y-10000424D01*
X75335576Y-10004100D01*
X75335567Y-10004100D01*
X75223914Y-10015097D01*
X75080653Y-10058554D01*
X74948624Y-10129126D01*
X74948622Y-10129127D01*
X74948623Y-10129127D01*
X74861896Y-10200301D01*
X74861892Y-10200305D01*
X74832899Y-10224099D01*
X74809105Y-10253092D01*
X69465903Y-15596296D01*
X69436899Y-15620099D01*
X69387884Y-15679825D01*
X69341926Y-15735824D01*
X69298461Y-15817141D01*
X69271354Y-15867854D01*
X69227897Y-16011115D01*
X69216900Y-16122768D01*
X69216900Y-16122778D01*
X69213224Y-16160100D01*
X69216900Y-16197422D01*
X69216901Y-31163167D01*
X69213224Y-31200500D01*
X69216901Y-31237833D01*
X69227898Y-31349486D01*
X69230329Y-31357499D01*
X69271354Y-31492746D01*
X69341926Y-31624776D01*
X69398331Y-31693505D01*
X69436900Y-31740501D01*
X69465898Y-31764299D01*
X70245100Y-32543502D01*
X70245100Y-32605639D01*
X70284874Y-32805598D01*
X70294076Y-32827813D01*
X70277663Y-32844226D01*
X70164395Y-33013744D01*
X70086374Y-33202102D01*
X70046600Y-33402061D01*
X70046600Y-33469100D01*
X69758996Y-33469100D01*
X69739837Y-33440426D01*
X69595674Y-33296263D01*
X69426156Y-33182995D01*
X69237798Y-33104974D01*
X69037839Y-33065200D01*
X68833961Y-33065200D01*
X68634002Y-33104974D01*
X68445644Y-33182995D01*
X68276126Y-33296263D01*
X68131963Y-33440426D01*
X68018695Y-33609944D01*
X67940674Y-33798302D01*
X67900900Y-33998261D01*
X67900900Y-34202139D01*
X67940674Y-34402098D01*
X68018695Y-34590456D01*
X68131963Y-34759974D01*
X68276126Y-34904137D01*
X68445644Y-35017405D01*
X68634002Y-35095426D01*
X68833961Y-35135200D01*
X69037839Y-35135200D01*
X69237798Y-35095426D01*
X69311692Y-35064818D01*
X69277774Y-35146702D01*
X69238000Y-35346661D01*
X69238000Y-35550539D01*
X69277774Y-35750498D01*
X69355795Y-35938856D01*
X69469063Y-36108374D01*
X69613226Y-36252537D01*
X69782744Y-36365805D01*
X69971102Y-36443826D01*
X70171061Y-36483600D01*
X70374939Y-36483600D01*
X70574898Y-36443826D01*
X70763256Y-36365805D01*
X70932774Y-36252537D01*
X70976711Y-36208600D01*
X72947999Y-36208600D01*
X72539503Y-36617096D01*
X72510499Y-36640899D01*
X72457893Y-36705000D01*
X72415526Y-36756624D01*
X72367926Y-36845677D01*
X72344954Y-36888654D01*
X72344669Y-36889594D01*
X72203491Y-36823798D01*
X71945898Y-36760824D01*
X71680970Y-36749313D01*
X71418887Y-36789709D01*
X71169720Y-36880458D01*
X71066152Y-36935817D01*
X71005332Y-37170727D01*
X71755000Y-37920395D01*
X71769143Y-37906253D01*
X71948748Y-38085858D01*
X71934605Y-38100000D01*
X71948748Y-38114143D01*
X71769143Y-38293748D01*
X71755000Y-38279605D01*
X71740858Y-38293748D01*
X71561253Y-38114143D01*
X71575395Y-38100000D01*
X70825727Y-37350332D01*
X70590817Y-37411152D01*
X70482794Y-37642934D01*
X70407987Y-37462335D01*
X70260662Y-37241847D01*
X70073153Y-37054338D01*
X69852665Y-36907013D01*
X69607672Y-36805533D01*
X69347589Y-36753800D01*
X69082411Y-36753800D01*
X68822328Y-36805533D01*
X68577335Y-36907013D01*
X68356847Y-37054338D01*
X68169338Y-37241847D01*
X68022013Y-37462335D01*
X67920533Y-37707328D01*
X67868800Y-37967411D01*
X67868800Y-38232589D01*
X67920533Y-38492672D01*
X67968571Y-38608646D01*
X67944999Y-38606324D01*
X67907676Y-38610000D01*
X67907667Y-38610000D01*
X67796014Y-38620997D01*
X67652753Y-38664454D01*
X67520724Y-38735026D01*
X67404999Y-38829999D01*
X67381201Y-38858997D01*
X66923369Y-39316830D01*
X66807589Y-39293800D01*
X66542411Y-39293800D01*
X66282328Y-39345533D01*
X66037335Y-39447013D01*
X65816847Y-39594338D01*
X65629338Y-39781847D01*
X65482013Y-40002335D01*
X65380533Y-40247328D01*
X65328800Y-40507411D01*
X65328800Y-40772589D01*
X65367839Y-40968856D01*
X65361253Y-40970854D01*
X65229224Y-41041426D01*
X65113499Y-41136399D01*
X65089701Y-41165397D01*
X62535000Y-43720099D01*
X62535000Y-28915000D01*
X62627089Y-28915000D01*
X62658657Y-29235516D01*
X62752148Y-29543715D01*
X62903969Y-29827752D01*
X63108286Y-30076714D01*
X63357248Y-30281031D01*
X63641285Y-30432852D01*
X63949484Y-30526343D01*
X64189678Y-30550000D01*
X65350322Y-30550000D01*
X65590516Y-30526343D01*
X65898715Y-30432852D01*
X66182752Y-30281031D01*
X66431714Y-30076714D01*
X66636031Y-29827752D01*
X66787852Y-29543715D01*
X66881343Y-29235516D01*
X66912911Y-28915000D01*
X66881343Y-28594484D01*
X66787852Y-28286285D01*
X66636031Y-28002248D01*
X66557471Y-27906522D01*
X66609502Y-27809180D01*
X66645812Y-27689482D01*
X66658072Y-27565000D01*
X66655000Y-27050750D01*
X66496250Y-26892000D01*
X64897000Y-26892000D01*
X64897000Y-26912000D01*
X64643000Y-26912000D01*
X64643000Y-26892000D01*
X63043750Y-26892000D01*
X62885000Y-27050750D01*
X62881928Y-27565000D01*
X62894188Y-27689482D01*
X62930498Y-27809180D01*
X62982529Y-27906522D01*
X62903969Y-28002248D01*
X62752148Y-28286285D01*
X62658657Y-28594484D01*
X62627089Y-28915000D01*
X62535000Y-28915000D01*
X62535000Y-20615000D01*
X62627089Y-20615000D01*
X62658657Y-20935516D01*
X62752148Y-21243715D01*
X62903969Y-21527752D01*
X63108286Y-21776714D01*
X63207718Y-21858315D01*
X63121068Y-21963899D01*
X62987818Y-22213192D01*
X62905764Y-22483691D01*
X62878057Y-22765000D01*
X62905764Y-23046309D01*
X62987818Y-23316808D01*
X63121068Y-23566101D01*
X63284300Y-23765000D01*
X63121068Y-23963899D01*
X62987818Y-24213192D01*
X62905764Y-24483691D01*
X62878057Y-24765000D01*
X62905764Y-25046309D01*
X62987818Y-25316808D01*
X63085710Y-25499950D01*
X63068815Y-25513815D01*
X62989463Y-25610506D01*
X62930498Y-25720820D01*
X62894188Y-25840518D01*
X62881928Y-25965000D01*
X62885000Y-26479250D01*
X63043750Y-26638000D01*
X64643000Y-26638000D01*
X64643000Y-26618000D01*
X64897000Y-26618000D01*
X64897000Y-26638000D01*
X66496250Y-26638000D01*
X66655000Y-26479250D01*
X66658072Y-25965000D01*
X66645812Y-25840518D01*
X66609502Y-25720820D01*
X66550537Y-25610506D01*
X66471185Y-25513815D01*
X66454290Y-25499950D01*
X66552182Y-25316808D01*
X66634236Y-25046309D01*
X66661943Y-24765000D01*
X66634236Y-24483691D01*
X66552182Y-24213192D01*
X66418932Y-23963899D01*
X66255700Y-23765000D01*
X66418932Y-23566101D01*
X66552182Y-23316808D01*
X66634236Y-23046309D01*
X66661943Y-22765000D01*
X66634236Y-22483691D01*
X66552182Y-22213192D01*
X66418932Y-21963899D01*
X66332282Y-21858315D01*
X66431714Y-21776714D01*
X66636031Y-21527752D01*
X66787852Y-21243715D01*
X66881343Y-20935516D01*
X66912911Y-20615000D01*
X66881343Y-20294484D01*
X66787852Y-19986285D01*
X66636031Y-19702248D01*
X66431714Y-19453286D01*
X66182752Y-19248969D01*
X65898715Y-19097148D01*
X65590516Y-19003657D01*
X65350322Y-18980000D01*
X64189678Y-18980000D01*
X63949484Y-19003657D01*
X63641285Y-19097148D01*
X63357248Y-19248969D01*
X63108286Y-19453286D01*
X62903969Y-19702248D01*
X62752148Y-19986285D01*
X62658657Y-20294484D01*
X62627089Y-20615000D01*
X62535000Y-20615000D01*
X62535000Y-9685000D01*
X116665000Y-9685000D01*
X116665001Y-62004899D01*
%TA.AperFunction,Conductor*%
D23*
G36*
X116665001Y-62004899D02*
G01*
X112007204Y-57347103D01*
X111983401Y-57318099D01*
X111867676Y-57223126D01*
X111735647Y-57152554D01*
X111592386Y-57109097D01*
X111480733Y-57098100D01*
X111480722Y-57098100D01*
X111443400Y-57094424D01*
X111406078Y-57098100D01*
X108350000Y-57098100D01*
X108350000Y-57003361D01*
X108310226Y-56803402D01*
X108232205Y-56615044D01*
X108118937Y-56445526D01*
X107974774Y-56301363D01*
X107805256Y-56188095D01*
X107616898Y-56110074D01*
X107416939Y-56070300D01*
X107354802Y-56070300D01*
X104419300Y-53134799D01*
X104419300Y-48893011D01*
X104463237Y-48849074D01*
X104576505Y-48679556D01*
X104654526Y-48491198D01*
X104694300Y-48291239D01*
X104694300Y-48229101D01*
X113890603Y-39032799D01*
X113919601Y-39009001D01*
X113961331Y-38958153D01*
X114014574Y-38893277D01*
X114085146Y-38761247D01*
X114092598Y-38736680D01*
X114128603Y-38617986D01*
X114139600Y-38506333D01*
X114139600Y-38506324D01*
X114143276Y-38469001D01*
X114139600Y-38431678D01*
X114139600Y-15954933D01*
X114143277Y-15917600D01*
X114128603Y-15768614D01*
X114085146Y-15625353D01*
X114014574Y-15493324D01*
X113919601Y-15377599D01*
X113888986Y-15352474D01*
X109551880Y-11015369D01*
X109528082Y-10986371D01*
X109499082Y-10962571D01*
X109412357Y-10891397D01*
X109280327Y-10820825D01*
X109180523Y-10790551D01*
X109137067Y-10777369D01*
X109025414Y-10766372D01*
X108988081Y-10762695D01*
X108950749Y-10766372D01*
X99378132Y-10766370D01*
X99340809Y-10762694D01*
X99303486Y-10766370D01*
X99303478Y-10766370D01*
X99191825Y-10777367D01*
X99048564Y-10820824D01*
X98975328Y-10859970D01*
X98916533Y-10891397D01*
X98829806Y-10962571D01*
X98829797Y-10962580D01*
X98800810Y-10986369D01*
X98777020Y-11015357D01*
X98346208Y-11446170D01*
X85977333Y-11446170D01*
X85940000Y-11442493D01*
X85902667Y-11446170D01*
X85791014Y-11457167D01*
X85647753Y-11500624D01*
X85515724Y-11571196D01*
X85485765Y-11595783D01*
X85485226Y-11593072D01*
X85407205Y-11404714D01*
X85293937Y-11235196D01*
X85149774Y-11091033D01*
X84980256Y-10977765D01*
X84791898Y-10899744D01*
X84591939Y-10859970D01*
X84529802Y-10859970D01*
X83922934Y-10253102D01*
X83899131Y-10224099D01*
X83783406Y-10129126D01*
X83651377Y-10058554D01*
X83508116Y-10015097D01*
X83396463Y-10004100D01*
X83396452Y-10004100D01*
X83359130Y-10000424D01*
X83321808Y-10004100D01*
X75410222Y-10004100D01*
X75372899Y-10000424D01*
X75335576Y-10004100D01*
X75335567Y-10004100D01*
X75223914Y-10015097D01*
X75080653Y-10058554D01*
X74948624Y-10129126D01*
X74948622Y-10129127D01*
X74948623Y-10129127D01*
X74861896Y-10200301D01*
X74861892Y-10200305D01*
X74832899Y-10224099D01*
X74809105Y-10253092D01*
X69465903Y-15596296D01*
X69436899Y-15620099D01*
X69387884Y-15679825D01*
X69341926Y-15735824D01*
X69298461Y-15817141D01*
X69271354Y-15867854D01*
X69227897Y-16011115D01*
X69216900Y-16122768D01*
X69216900Y-16122778D01*
X69213224Y-16160100D01*
X69216900Y-16197422D01*
X69216901Y-31163167D01*
X69213224Y-31200500D01*
X69216901Y-31237833D01*
X69227898Y-31349486D01*
X69230329Y-31357499D01*
X69271354Y-31492746D01*
X69341926Y-31624776D01*
X69398331Y-31693505D01*
X69436900Y-31740501D01*
X69465898Y-31764299D01*
X70245100Y-32543502D01*
X70245100Y-32605639D01*
X70284874Y-32805598D01*
X70294076Y-32827813D01*
X70277663Y-32844226D01*
X70164395Y-33013744D01*
X70086374Y-33202102D01*
X70046600Y-33402061D01*
X70046600Y-33469100D01*
X69758996Y-33469100D01*
X69739837Y-33440426D01*
X69595674Y-33296263D01*
X69426156Y-33182995D01*
X69237798Y-33104974D01*
X69037839Y-33065200D01*
X68833961Y-33065200D01*
X68634002Y-33104974D01*
X68445644Y-33182995D01*
X68276126Y-33296263D01*
X68131963Y-33440426D01*
X68018695Y-33609944D01*
X67940674Y-33798302D01*
X67900900Y-33998261D01*
X67900900Y-34202139D01*
X67940674Y-34402098D01*
X68018695Y-34590456D01*
X68131963Y-34759974D01*
X68276126Y-34904137D01*
X68445644Y-35017405D01*
X68634002Y-35095426D01*
X68833961Y-35135200D01*
X69037839Y-35135200D01*
X69237798Y-35095426D01*
X69311692Y-35064818D01*
X69277774Y-35146702D01*
X69238000Y-35346661D01*
X69238000Y-35550539D01*
X69277774Y-35750498D01*
X69355795Y-35938856D01*
X69469063Y-36108374D01*
X69613226Y-36252537D01*
X69782744Y-36365805D01*
X69971102Y-36443826D01*
X70171061Y-36483600D01*
X70374939Y-36483600D01*
X70574898Y-36443826D01*
X70763256Y-36365805D01*
X70932774Y-36252537D01*
X70976711Y-36208600D01*
X72947999Y-36208600D01*
X72539503Y-36617096D01*
X72510499Y-36640899D01*
X72457893Y-36705000D01*
X72415526Y-36756624D01*
X72367926Y-36845677D01*
X72344954Y-36888654D01*
X72344669Y-36889594D01*
X72203491Y-36823798D01*
X71945898Y-36760824D01*
X71680970Y-36749313D01*
X71418887Y-36789709D01*
X71169720Y-36880458D01*
X71066152Y-36935817D01*
X71005332Y-37170727D01*
X71755000Y-37920395D01*
X71769143Y-37906253D01*
X71948748Y-38085858D01*
X71934605Y-38100000D01*
X71948748Y-38114143D01*
X71769143Y-38293748D01*
X71755000Y-38279605D01*
X71740858Y-38293748D01*
X71561253Y-38114143D01*
X71575395Y-38100000D01*
X70825727Y-37350332D01*
X70590817Y-37411152D01*
X70482794Y-37642934D01*
X70407987Y-37462335D01*
X70260662Y-37241847D01*
X70073153Y-37054338D01*
X69852665Y-36907013D01*
X69607672Y-36805533D01*
X69347589Y-36753800D01*
X69082411Y-36753800D01*
X68822328Y-36805533D01*
X68577335Y-36907013D01*
X68356847Y-37054338D01*
X68169338Y-37241847D01*
X68022013Y-37462335D01*
X67920533Y-37707328D01*
X67868800Y-37967411D01*
X67868800Y-38232589D01*
X67920533Y-38492672D01*
X67968571Y-38608646D01*
X67944999Y-38606324D01*
X67907676Y-38610000D01*
X67907667Y-38610000D01*
X67796014Y-38620997D01*
X67652753Y-38664454D01*
X67520724Y-38735026D01*
X67404999Y-38829999D01*
X67381201Y-38858997D01*
X66923369Y-39316830D01*
X66807589Y-39293800D01*
X66542411Y-39293800D01*
X66282328Y-39345533D01*
X66037335Y-39447013D01*
X65816847Y-39594338D01*
X65629338Y-39781847D01*
X65482013Y-40002335D01*
X65380533Y-40247328D01*
X65328800Y-40507411D01*
X65328800Y-40772589D01*
X65367839Y-40968856D01*
X65361253Y-40970854D01*
X65229224Y-41041426D01*
X65113499Y-41136399D01*
X65089701Y-41165397D01*
X62535000Y-43720099D01*
X62535000Y-28915000D01*
X62627089Y-28915000D01*
X62658657Y-29235516D01*
X62752148Y-29543715D01*
X62903969Y-29827752D01*
X63108286Y-30076714D01*
X63357248Y-30281031D01*
X63641285Y-30432852D01*
X63949484Y-30526343D01*
X64189678Y-30550000D01*
X65350322Y-30550000D01*
X65590516Y-30526343D01*
X65898715Y-30432852D01*
X66182752Y-30281031D01*
X66431714Y-30076714D01*
X66636031Y-29827752D01*
X66787852Y-29543715D01*
X66881343Y-29235516D01*
X66912911Y-28915000D01*
X66881343Y-28594484D01*
X66787852Y-28286285D01*
X66636031Y-28002248D01*
X66557471Y-27906522D01*
X66609502Y-27809180D01*
X66645812Y-27689482D01*
X66658072Y-27565000D01*
X66655000Y-27050750D01*
X66496250Y-26892000D01*
X64897000Y-26892000D01*
X64897000Y-26912000D01*
X64643000Y-26912000D01*
X64643000Y-26892000D01*
X63043750Y-26892000D01*
X62885000Y-27050750D01*
X62881928Y-27565000D01*
X62894188Y-27689482D01*
X62930498Y-27809180D01*
X62982529Y-27906522D01*
X62903969Y-28002248D01*
X62752148Y-28286285D01*
X62658657Y-28594484D01*
X62627089Y-28915000D01*
X62535000Y-28915000D01*
X62535000Y-20615000D01*
X62627089Y-20615000D01*
X62658657Y-20935516D01*
X62752148Y-21243715D01*
X62903969Y-21527752D01*
X63108286Y-21776714D01*
X63207718Y-21858315D01*
X63121068Y-21963899D01*
X62987818Y-22213192D01*
X62905764Y-22483691D01*
X62878057Y-22765000D01*
X62905764Y-23046309D01*
X62987818Y-23316808D01*
X63121068Y-23566101D01*
X63284300Y-23765000D01*
X63121068Y-23963899D01*
X62987818Y-24213192D01*
X62905764Y-24483691D01*
X62878057Y-24765000D01*
X62905764Y-25046309D01*
X62987818Y-25316808D01*
X63085710Y-25499950D01*
X63068815Y-25513815D01*
X62989463Y-25610506D01*
X62930498Y-25720820D01*
X62894188Y-25840518D01*
X62881928Y-25965000D01*
X62885000Y-26479250D01*
X63043750Y-26638000D01*
X64643000Y-26638000D01*
X64643000Y-26618000D01*
X64897000Y-26618000D01*
X64897000Y-26638000D01*
X66496250Y-26638000D01*
X66655000Y-26479250D01*
X66658072Y-25965000D01*
X66645812Y-25840518D01*
X66609502Y-25720820D01*
X66550537Y-25610506D01*
X66471185Y-25513815D01*
X66454290Y-25499950D01*
X66552182Y-25316808D01*
X66634236Y-25046309D01*
X66661943Y-24765000D01*
X66634236Y-24483691D01*
X66552182Y-24213192D01*
X66418932Y-23963899D01*
X66255700Y-23765000D01*
X66418932Y-23566101D01*
X66552182Y-23316808D01*
X66634236Y-23046309D01*
X66661943Y-22765000D01*
X66634236Y-22483691D01*
X66552182Y-22213192D01*
X66418932Y-21963899D01*
X66332282Y-21858315D01*
X66431714Y-21776714D01*
X66636031Y-21527752D01*
X66787852Y-21243715D01*
X66881343Y-20935516D01*
X66912911Y-20615000D01*
X66881343Y-20294484D01*
X66787852Y-19986285D01*
X66636031Y-19702248D01*
X66431714Y-19453286D01*
X66182752Y-19248969D01*
X65898715Y-19097148D01*
X65590516Y-19003657D01*
X65350322Y-18980000D01*
X64189678Y-18980000D01*
X63949484Y-19003657D01*
X63641285Y-19097148D01*
X63357248Y-19248969D01*
X63108286Y-19453286D01*
X62903969Y-19702248D01*
X62752148Y-19986285D01*
X62658657Y-20294484D01*
X62627089Y-20615000D01*
X62535000Y-20615000D01*
X62535000Y-9685000D01*
X116665000Y-9685000D01*
X116665001Y-62004899D01*
G37*
%TD.AperFunction*%
D22*
X78182013Y-53977665D02*
X78329338Y-54198153D01*
X78516847Y-54385662D01*
X78737335Y-54532987D01*
X78923260Y-54610000D01*
X78737335Y-54687013D01*
X78516847Y-54834338D01*
X78329338Y-55021847D01*
X78182013Y-55242335D01*
X78104031Y-55430600D01*
X78054542Y-55294720D01*
X77999183Y-55191152D01*
X77764273Y-55130332D01*
X77014605Y-55880000D01*
X77764273Y-56629668D01*
X77999183Y-56568848D01*
X78107206Y-56337066D01*
X78182013Y-56517665D01*
X78329338Y-56738153D01*
X78516847Y-56925662D01*
X78737335Y-57072987D01*
X78982328Y-57174467D01*
X79242411Y-57226200D01*
X79507589Y-57226200D01*
X79767672Y-57174467D01*
X79800195Y-57160996D01*
X80877344Y-58238145D01*
X80823963Y-58291526D01*
X80710695Y-58461044D01*
X80632674Y-58649402D01*
X80592900Y-58849361D01*
X80592900Y-59053239D01*
X80632674Y-59253198D01*
X80710695Y-59441556D01*
X80823963Y-59611074D01*
X80867900Y-59655011D01*
X80867901Y-60494768D01*
X80864224Y-60532100D01*
X80867901Y-60569433D01*
X80878898Y-60681086D01*
X80891262Y-60721846D01*
X80922354Y-60824346D01*
X80992926Y-60956376D01*
X81063300Y-61042126D01*
X81087900Y-61072101D01*
X81116898Y-61095899D01*
X81155001Y-61134002D01*
X81155001Y-61665199D01*
X76711924Y-57222123D01*
X76909030Y-57230687D01*
X77171113Y-57190291D01*
X77420280Y-57099542D01*
X77523848Y-57044183D01*
X77584668Y-56809273D01*
X76835000Y-56059605D01*
X76820858Y-56073748D01*
X76641253Y-55894143D01*
X76655395Y-55880000D01*
X75905727Y-55130332D01*
X75670817Y-55191152D01*
X75562794Y-55422934D01*
X75487987Y-55242335D01*
X75340662Y-55021847D01*
X75153153Y-54834338D01*
X74932665Y-54687013D01*
X74746740Y-54610000D01*
X74932665Y-54532987D01*
X75153153Y-54385662D01*
X75340662Y-54198153D01*
X75487987Y-53977665D01*
X75565000Y-53791740D01*
X75642013Y-53977665D01*
X75789338Y-54198153D01*
X75976847Y-54385662D01*
X76197335Y-54532987D01*
X76385600Y-54610969D01*
X76249720Y-54660458D01*
X76146152Y-54715817D01*
X76085332Y-54950727D01*
X76835000Y-55700395D01*
X77584668Y-54950727D01*
X77523848Y-54715817D01*
X77292066Y-54607794D01*
X77472665Y-54532987D01*
X77693153Y-54385662D01*
X77880662Y-54198153D01*
X78027987Y-53977665D01*
X78105000Y-53791740D01*
X78182013Y-53977665D01*
%TA.AperFunction,Conductor*%
D23*
G36*
X78182013Y-53977665D02*
G01*
X78329338Y-54198153D01*
X78516847Y-54385662D01*
X78737335Y-54532987D01*
X78923260Y-54610000D01*
X78737335Y-54687013D01*
X78516847Y-54834338D01*
X78329338Y-55021847D01*
X78182013Y-55242335D01*
X78104031Y-55430600D01*
X78054542Y-55294720D01*
X77999183Y-55191152D01*
X77764273Y-55130332D01*
X77014605Y-55880000D01*
X77764273Y-56629668D01*
X77999183Y-56568848D01*
X78107206Y-56337066D01*
X78182013Y-56517665D01*
X78329338Y-56738153D01*
X78516847Y-56925662D01*
X78737335Y-57072987D01*
X78982328Y-57174467D01*
X79242411Y-57226200D01*
X79507589Y-57226200D01*
X79767672Y-57174467D01*
X79800195Y-57160996D01*
X80877344Y-58238145D01*
X80823963Y-58291526D01*
X80710695Y-58461044D01*
X80632674Y-58649402D01*
X80592900Y-58849361D01*
X80592900Y-59053239D01*
X80632674Y-59253198D01*
X80710695Y-59441556D01*
X80823963Y-59611074D01*
X80867900Y-59655011D01*
X80867901Y-60494768D01*
X80864224Y-60532100D01*
X80867901Y-60569433D01*
X80878898Y-60681086D01*
X80891262Y-60721846D01*
X80922354Y-60824346D01*
X80992926Y-60956376D01*
X81063300Y-61042126D01*
X81087900Y-61072101D01*
X81116898Y-61095899D01*
X81155001Y-61134002D01*
X81155001Y-61665199D01*
X76711924Y-57222123D01*
X76909030Y-57230687D01*
X77171113Y-57190291D01*
X77420280Y-57099542D01*
X77523848Y-57044183D01*
X77584668Y-56809273D01*
X76835000Y-56059605D01*
X76820858Y-56073748D01*
X76641253Y-55894143D01*
X76655395Y-55880000D01*
X75905727Y-55130332D01*
X75670817Y-55191152D01*
X75562794Y-55422934D01*
X75487987Y-55242335D01*
X75340662Y-55021847D01*
X75153153Y-54834338D01*
X74932665Y-54687013D01*
X74746740Y-54610000D01*
X74932665Y-54532987D01*
X75153153Y-54385662D01*
X75340662Y-54198153D01*
X75487987Y-53977665D01*
X75565000Y-53791740D01*
X75642013Y-53977665D01*
X75789338Y-54198153D01*
X75976847Y-54385662D01*
X76197335Y-54532987D01*
X76385600Y-54610969D01*
X76249720Y-54660458D01*
X76146152Y-54715817D01*
X76085332Y-54950727D01*
X76835000Y-55700395D01*
X77584668Y-54950727D01*
X77523848Y-54715817D01*
X77292066Y-54607794D01*
X77472665Y-54532987D01*
X77693153Y-54385662D01*
X77880662Y-54198153D01*
X78027987Y-53977665D01*
X78105000Y-53791740D01*
X78182013Y-53977665D01*
G37*
%TD.AperFunction*%
D22*
X101092000Y-57658000D02*
X101112000Y-57658000D01*
X101112000Y-57912000D01*
X101092000Y-57912000D01*
X101092000Y-57932000D01*
X100838000Y-57932000D01*
X100838000Y-57912000D01*
X100818000Y-57912000D01*
X100818000Y-57658000D01*
X100838000Y-57658000D01*
X100838000Y-57638000D01*
X101092000Y-57638000D01*
X101092000Y-57658000D01*
%TA.AperFunction,Conductor*%
D23*
G36*
X101092000Y-57658000D02*
G01*
X101112000Y-57658000D01*
X101112000Y-57912000D01*
X101092000Y-57912000D01*
X101092000Y-57932000D01*
X100838000Y-57932000D01*
X100838000Y-57912000D01*
X100818000Y-57912000D01*
X100818000Y-57658000D01*
X100838000Y-57658000D01*
X100838000Y-57638000D01*
X101092000Y-57638000D01*
X101092000Y-57658000D01*
G37*
%TD.AperFunction*%
D22*
X91953096Y-42195961D02*
X92075085Y-42418000D01*
X93218000Y-42418000D01*
X93218000Y-42398000D01*
X93472000Y-42398000D01*
X93472000Y-42418000D01*
X94614915Y-42418000D01*
X94736904Y-42195961D01*
X94715078Y-42124000D01*
X99586152Y-42124000D01*
X99585147Y-42126426D01*
X99530000Y-42403665D01*
X99530000Y-42686335D01*
X99585147Y-42963574D01*
X99693320Y-43224727D01*
X99850363Y-43459759D01*
X99883951Y-43493347D01*
X99328002Y-44049297D01*
X99298999Y-44073099D01*
X99243871Y-44140274D01*
X99204026Y-44188824D01*
X99184336Y-44225662D01*
X99133454Y-44320854D01*
X99089997Y-44464115D01*
X99079000Y-44575768D01*
X99079000Y-44575778D01*
X99075324Y-44613100D01*
X99079000Y-44650422D01*
X99079001Y-55737468D01*
X99075324Y-55774800D01*
X99079001Y-55812133D01*
X99089998Y-55923786D01*
X99103180Y-55967242D01*
X99133454Y-56067046D01*
X99204026Y-56199076D01*
X99272485Y-56282492D01*
X99299000Y-56314801D01*
X99327998Y-56338599D01*
X99862957Y-56873558D01*
X99733963Y-57047580D01*
X99703867Y-57111256D01*
X98049300Y-55456689D01*
X98049300Y-55063023D01*
X98052976Y-55025700D01*
X98049300Y-54988377D01*
X98049300Y-54988367D01*
X98038303Y-54876714D01*
X97994846Y-54733453D01*
X97970023Y-54687013D01*
X97924274Y-54601423D01*
X97853099Y-54514697D01*
X97829301Y-54485699D01*
X97800303Y-54461901D01*
X94433336Y-51094935D01*
X94576037Y-50902420D01*
X94696246Y-50648087D01*
X94736904Y-50514039D01*
X94614915Y-50292000D01*
X93472000Y-50292000D01*
X93472000Y-50312000D01*
X93218000Y-50312000D01*
X93218000Y-50292000D01*
X93198000Y-50292000D01*
X93198000Y-50038000D01*
X93218000Y-50038000D01*
X93218000Y-50018000D01*
X93472000Y-50018000D01*
X93472000Y-50038000D01*
X94614915Y-50038000D01*
X94736904Y-49815961D01*
X94696246Y-49681913D01*
X94576037Y-49427580D01*
X94408519Y-49201586D01*
X94200131Y-49012615D01*
X94014135Y-48901067D01*
X94024727Y-48896680D01*
X94259759Y-48739637D01*
X94459637Y-48539759D01*
X94616680Y-48304727D01*
X94724853Y-48043574D01*
X94780000Y-47766335D01*
X94780000Y-47483665D01*
X94724853Y-47206426D01*
X94616680Y-46945273D01*
X94459637Y-46710241D01*
X94259759Y-46510363D01*
X94027241Y-46355000D01*
X94259759Y-46199637D01*
X94459637Y-45999759D01*
X94616680Y-45764727D01*
X94724853Y-45503574D01*
X94780000Y-45226335D01*
X94780000Y-44943665D01*
X94724853Y-44666426D01*
X94616680Y-44405273D01*
X94459637Y-44170241D01*
X94259759Y-43970363D01*
X94024727Y-43813320D01*
X94014135Y-43808933D01*
X94200131Y-43697385D01*
X94408519Y-43508414D01*
X94576037Y-43282420D01*
X94696246Y-43028087D01*
X94736904Y-42894039D01*
X94614915Y-42672000D01*
X93472000Y-42672000D01*
X93472000Y-42692000D01*
X93218000Y-42692000D01*
X93218000Y-42672000D01*
X92075085Y-42672000D01*
X92054203Y-42710008D01*
X91857802Y-42749074D01*
X91669444Y-42827095D01*
X91499926Y-42940363D01*
X91455989Y-42984300D01*
X86813902Y-42984300D01*
X86104498Y-42274896D01*
X86264574Y-42167937D01*
X86308511Y-42124000D01*
X91974922Y-42124000D01*
X91953096Y-42195961D01*
%TA.AperFunction,Conductor*%
D23*
G36*
X91953096Y-42195961D02*
G01*
X92075085Y-42418000D01*
X93218000Y-42418000D01*
X93218000Y-42398000D01*
X93472000Y-42398000D01*
X93472000Y-42418000D01*
X94614915Y-42418000D01*
X94736904Y-42195961D01*
X94715078Y-42124000D01*
X99586152Y-42124000D01*
X99585147Y-42126426D01*
X99530000Y-42403665D01*
X99530000Y-42686335D01*
X99585147Y-42963574D01*
X99693320Y-43224727D01*
X99850363Y-43459759D01*
X99883951Y-43493347D01*
X99328002Y-44049297D01*
X99298999Y-44073099D01*
X99243871Y-44140274D01*
X99204026Y-44188824D01*
X99184336Y-44225662D01*
X99133454Y-44320854D01*
X99089997Y-44464115D01*
X99079000Y-44575768D01*
X99079000Y-44575778D01*
X99075324Y-44613100D01*
X99079000Y-44650422D01*
X99079001Y-55737468D01*
X99075324Y-55774800D01*
X99079001Y-55812133D01*
X99089998Y-55923786D01*
X99103180Y-55967242D01*
X99133454Y-56067046D01*
X99204026Y-56199076D01*
X99272485Y-56282492D01*
X99299000Y-56314801D01*
X99327998Y-56338599D01*
X99862957Y-56873558D01*
X99733963Y-57047580D01*
X99703867Y-57111256D01*
X98049300Y-55456689D01*
X98049300Y-55063023D01*
X98052976Y-55025700D01*
X98049300Y-54988377D01*
X98049300Y-54988367D01*
X98038303Y-54876714D01*
X97994846Y-54733453D01*
X97970023Y-54687013D01*
X97924274Y-54601423D01*
X97853099Y-54514697D01*
X97829301Y-54485699D01*
X97800303Y-54461901D01*
X94433336Y-51094935D01*
X94576037Y-50902420D01*
X94696246Y-50648087D01*
X94736904Y-50514039D01*
X94614915Y-50292000D01*
X93472000Y-50292000D01*
X93472000Y-50312000D01*
X93218000Y-50312000D01*
X93218000Y-50292000D01*
X93198000Y-50292000D01*
X93198000Y-50038000D01*
X93218000Y-50038000D01*
X93218000Y-50018000D01*
X93472000Y-50018000D01*
X93472000Y-50038000D01*
X94614915Y-50038000D01*
X94736904Y-49815961D01*
X94696246Y-49681913D01*
X94576037Y-49427580D01*
X94408519Y-49201586D01*
X94200131Y-49012615D01*
X94014135Y-48901067D01*
X94024727Y-48896680D01*
X94259759Y-48739637D01*
X94459637Y-48539759D01*
X94616680Y-48304727D01*
X94724853Y-48043574D01*
X94780000Y-47766335D01*
X94780000Y-47483665D01*
X94724853Y-47206426D01*
X94616680Y-46945273D01*
X94459637Y-46710241D01*
X94259759Y-46510363D01*
X94027241Y-46355000D01*
X94259759Y-46199637D01*
X94459637Y-45999759D01*
X94616680Y-45764727D01*
X94724853Y-45503574D01*
X94780000Y-45226335D01*
X94780000Y-44943665D01*
X94724853Y-44666426D01*
X94616680Y-44405273D01*
X94459637Y-44170241D01*
X94259759Y-43970363D01*
X94024727Y-43813320D01*
X94014135Y-43808933D01*
X94200131Y-43697385D01*
X94408519Y-43508414D01*
X94576037Y-43282420D01*
X94696246Y-43028087D01*
X94736904Y-42894039D01*
X94614915Y-42672000D01*
X93472000Y-42672000D01*
X93472000Y-42692000D01*
X93218000Y-42692000D01*
X93218000Y-42672000D01*
X92075085Y-42672000D01*
X92054203Y-42710008D01*
X91857802Y-42749074D01*
X91669444Y-42827095D01*
X91499926Y-42940363D01*
X91455989Y-42984300D01*
X86813902Y-42984300D01*
X86104498Y-42274896D01*
X86264574Y-42167937D01*
X86308511Y-42124000D01*
X91974922Y-42124000D01*
X91953096Y-42195961D01*
G37*
%TD.AperFunction*%
D22*
X75920003Y-52351182D02*
X75789338Y-52481847D01*
X75642013Y-52702335D01*
X75565000Y-52888260D01*
X75487987Y-52702335D01*
X75340662Y-52481847D01*
X75153153Y-52294338D01*
X74932665Y-52147013D01*
X74687672Y-52045533D01*
X74427589Y-51993800D01*
X74162411Y-51993800D01*
X74046631Y-52016830D01*
X73820504Y-51790702D01*
X73796701Y-51761699D01*
X73680976Y-51666726D01*
X73548947Y-51596154D01*
X73405686Y-51552697D01*
X73294033Y-51541700D01*
X73294022Y-51541700D01*
X73256700Y-51538024D01*
X73219378Y-51541700D01*
X71337623Y-51541700D01*
X71300300Y-51538024D01*
X71262977Y-51541700D01*
X71262967Y-51541700D01*
X71151314Y-51552697D01*
X71008053Y-51596154D01*
X70876024Y-51666726D01*
X70760299Y-51761699D01*
X70736501Y-51790698D01*
X70157178Y-52370022D01*
X70081274Y-52294118D01*
X69964667Y-52410725D01*
X69903848Y-52175817D01*
X69672066Y-52067794D01*
X69852665Y-51992987D01*
X70073153Y-51845662D01*
X70260662Y-51658153D01*
X70407987Y-51437665D01*
X70509467Y-51192672D01*
X70561200Y-50932589D01*
X70561200Y-50667411D01*
X70509467Y-50407328D01*
X70407987Y-50162335D01*
X70260662Y-49941847D01*
X70073153Y-49754338D01*
X69852665Y-49607013D01*
X69666740Y-49530000D01*
X69852665Y-49452987D01*
X70073153Y-49305662D01*
X70260662Y-49118153D01*
X70326246Y-49020000D01*
X70726289Y-49020000D01*
X70770226Y-49063937D01*
X70939744Y-49177205D01*
X71128102Y-49255226D01*
X71328061Y-49295000D01*
X71531939Y-49295000D01*
X71731898Y-49255226D01*
X71920256Y-49177205D01*
X72089774Y-49063937D01*
X72233937Y-48919774D01*
X72335939Y-48767117D01*
X75920003Y-52351182D01*
%TA.AperFunction,Conductor*%
D23*
G36*
X75920003Y-52351182D02*
G01*
X75789338Y-52481847D01*
X75642013Y-52702335D01*
X75565000Y-52888260D01*
X75487987Y-52702335D01*
X75340662Y-52481847D01*
X75153153Y-52294338D01*
X74932665Y-52147013D01*
X74687672Y-52045533D01*
X74427589Y-51993800D01*
X74162411Y-51993800D01*
X74046631Y-52016830D01*
X73820504Y-51790702D01*
X73796701Y-51761699D01*
X73680976Y-51666726D01*
X73548947Y-51596154D01*
X73405686Y-51552697D01*
X73294033Y-51541700D01*
X73294022Y-51541700D01*
X73256700Y-51538024D01*
X73219378Y-51541700D01*
X71337623Y-51541700D01*
X71300300Y-51538024D01*
X71262977Y-51541700D01*
X71262967Y-51541700D01*
X71151314Y-51552697D01*
X71008053Y-51596154D01*
X70876024Y-51666726D01*
X70760299Y-51761699D01*
X70736501Y-51790698D01*
X70157178Y-52370022D01*
X70081274Y-52294118D01*
X69964667Y-52410725D01*
X69903848Y-52175817D01*
X69672066Y-52067794D01*
X69852665Y-51992987D01*
X70073153Y-51845662D01*
X70260662Y-51658153D01*
X70407987Y-51437665D01*
X70509467Y-51192672D01*
X70561200Y-50932589D01*
X70561200Y-50667411D01*
X70509467Y-50407328D01*
X70407987Y-50162335D01*
X70260662Y-49941847D01*
X70073153Y-49754338D01*
X69852665Y-49607013D01*
X69666740Y-49530000D01*
X69852665Y-49452987D01*
X70073153Y-49305662D01*
X70260662Y-49118153D01*
X70326246Y-49020000D01*
X70726289Y-49020000D01*
X70770226Y-49063937D01*
X70939744Y-49177205D01*
X71128102Y-49255226D01*
X71328061Y-49295000D01*
X71531939Y-49295000D01*
X71731898Y-49255226D01*
X71920256Y-49177205D01*
X72089774Y-49063937D01*
X72233937Y-48919774D01*
X72335939Y-48767117D01*
X75920003Y-52351182D01*
G37*
%TD.AperFunction*%
D22*
X80722013Y-41277665D02*
X80869338Y-41498153D01*
X81056847Y-41685662D01*
X81277335Y-41832987D01*
X81465600Y-41910969D01*
X81329720Y-41960458D01*
X81226152Y-42015817D01*
X81165332Y-42250727D01*
X81915000Y-43000395D01*
X81929143Y-42986253D01*
X82108748Y-43165858D01*
X82094605Y-43180000D01*
X82844273Y-43929668D01*
X83079183Y-43868848D01*
X83187206Y-43637066D01*
X83262013Y-43817665D01*
X83409338Y-44038153D01*
X83596847Y-44225662D01*
X83817335Y-44372987D01*
X84003260Y-44450000D01*
X83817335Y-44527013D01*
X83596847Y-44674338D01*
X83409338Y-44861847D01*
X83262013Y-45082335D01*
X83185000Y-45268260D01*
X83107987Y-45082335D01*
X82960662Y-44861847D01*
X82773153Y-44674338D01*
X82552665Y-44527013D01*
X82364400Y-44449031D01*
X82500280Y-44399542D01*
X82603848Y-44344183D01*
X82664668Y-44109273D01*
X81915000Y-43359605D01*
X81165332Y-44109273D01*
X81226152Y-44344183D01*
X81457934Y-44452206D01*
X81277335Y-44527013D01*
X81056847Y-44674338D01*
X80869338Y-44861847D01*
X80722013Y-45082335D01*
X80620533Y-45327328D01*
X80568800Y-45587411D01*
X80568800Y-45852589D01*
X80620533Y-46112672D01*
X80722013Y-46357665D01*
X80869338Y-46578153D01*
X81056847Y-46765662D01*
X81277335Y-46912987D01*
X81463260Y-46990000D01*
X81277335Y-47067013D01*
X81056847Y-47214338D01*
X80869338Y-47401847D01*
X80722013Y-47622335D01*
X80620533Y-47867328D01*
X80568800Y-48127411D01*
X80568800Y-48378998D01*
X79082700Y-46892899D01*
X79082700Y-43254030D01*
X80564313Y-43254030D01*
X80604709Y-43516113D01*
X80695458Y-43765280D01*
X80750817Y-43868848D01*
X80985727Y-43929668D01*
X81735395Y-43180000D01*
X80985727Y-42430332D01*
X80750817Y-42491152D01*
X80638798Y-42731509D01*
X80575824Y-42989102D01*
X80564313Y-43254030D01*
X79082700Y-43254030D01*
X79082700Y-41954432D01*
X79242411Y-41986200D01*
X79507589Y-41986200D01*
X79767672Y-41934467D01*
X80012665Y-41832987D01*
X80233153Y-41685662D01*
X80420662Y-41498153D01*
X80567987Y-41277665D01*
X80645000Y-41091740D01*
X80722013Y-41277665D01*
%TA.AperFunction,Conductor*%
D23*
G36*
X80722013Y-41277665D02*
G01*
X80869338Y-41498153D01*
X81056847Y-41685662D01*
X81277335Y-41832987D01*
X81465600Y-41910969D01*
X81329720Y-41960458D01*
X81226152Y-42015817D01*
X81165332Y-42250727D01*
X81915000Y-43000395D01*
X81929143Y-42986253D01*
X82108748Y-43165858D01*
X82094605Y-43180000D01*
X82844273Y-43929668D01*
X83079183Y-43868848D01*
X83187206Y-43637066D01*
X83262013Y-43817665D01*
X83409338Y-44038153D01*
X83596847Y-44225662D01*
X83817335Y-44372987D01*
X84003260Y-44450000D01*
X83817335Y-44527013D01*
X83596847Y-44674338D01*
X83409338Y-44861847D01*
X83262013Y-45082335D01*
X83185000Y-45268260D01*
X83107987Y-45082335D01*
X82960662Y-44861847D01*
X82773153Y-44674338D01*
X82552665Y-44527013D01*
X82364400Y-44449031D01*
X82500280Y-44399542D01*
X82603848Y-44344183D01*
X82664668Y-44109273D01*
X81915000Y-43359605D01*
X81165332Y-44109273D01*
X81226152Y-44344183D01*
X81457934Y-44452206D01*
X81277335Y-44527013D01*
X81056847Y-44674338D01*
X80869338Y-44861847D01*
X80722013Y-45082335D01*
X80620533Y-45327328D01*
X80568800Y-45587411D01*
X80568800Y-45852589D01*
X80620533Y-46112672D01*
X80722013Y-46357665D01*
X80869338Y-46578153D01*
X81056847Y-46765662D01*
X81277335Y-46912987D01*
X81463260Y-46990000D01*
X81277335Y-47067013D01*
X81056847Y-47214338D01*
X80869338Y-47401847D01*
X80722013Y-47622335D01*
X80620533Y-47867328D01*
X80568800Y-48127411D01*
X80568800Y-48378998D01*
X79082700Y-46892899D01*
X79082700Y-43254030D01*
X80564313Y-43254030D01*
X80604709Y-43516113D01*
X80695458Y-43765280D01*
X80750817Y-43868848D01*
X80985727Y-43929668D01*
X81735395Y-43180000D01*
X80985727Y-42430332D01*
X80750817Y-42491152D01*
X80638798Y-42731509D01*
X80575824Y-42989102D01*
X80564313Y-43254030D01*
X79082700Y-43254030D01*
X79082700Y-41954432D01*
X79242411Y-41986200D01*
X79507589Y-41986200D01*
X79767672Y-41934467D01*
X80012665Y-41832987D01*
X80233153Y-41685662D01*
X80420662Y-41498153D01*
X80567987Y-41277665D01*
X80645000Y-41091740D01*
X80722013Y-41277665D01*
G37*
%TD.AperFunction*%
D22*
X92230363Y-35839759D02*
X92430241Y-36039637D01*
X92662759Y-36195000D01*
X92430241Y-36350363D01*
X92230363Y-36550241D01*
X92073320Y-36785273D01*
X91965147Y-37046426D01*
X91910000Y-37323665D01*
X91910000Y-37606335D01*
X91965147Y-37883574D01*
X91988395Y-37939700D01*
X86974307Y-37939700D01*
X86900305Y-37761044D01*
X86787037Y-37591526D01*
X86642874Y-37447363D01*
X86473356Y-37334095D01*
X86284998Y-37256074D01*
X86085039Y-37216300D01*
X85881161Y-37216300D01*
X85681202Y-37256074D01*
X85492844Y-37334095D01*
X85323326Y-37447363D01*
X85179163Y-37591526D01*
X85065895Y-37761044D01*
X84987874Y-37949402D01*
X84948100Y-38149361D01*
X84948100Y-38353239D01*
X84987874Y-38553198D01*
X85065895Y-38741556D01*
X85179163Y-38911074D01*
X85323326Y-39055237D01*
X85492844Y-39168505D01*
X85681202Y-39246526D01*
X85881161Y-39286300D01*
X85948280Y-39286300D01*
X86007224Y-39334674D01*
X86139253Y-39405246D01*
X86282514Y-39448703D01*
X86394167Y-39459700D01*
X86394176Y-39459700D01*
X86431499Y-39463376D01*
X86468822Y-39459700D01*
X92023159Y-39459700D01*
X91993754Y-39521913D01*
X91953096Y-39655961D01*
X92075085Y-39878000D01*
X93218000Y-39878000D01*
X93218000Y-39858000D01*
X93472000Y-39858000D01*
X93472000Y-39878000D01*
X94614915Y-39878000D01*
X94736904Y-39655961D01*
X94696246Y-39521913D01*
X94666841Y-39459700D01*
X98219799Y-39459700D01*
X99276101Y-40516003D01*
X99299899Y-40545001D01*
X99328897Y-40568799D01*
X99371789Y-40604000D01*
X94641460Y-40604000D01*
X94696246Y-40488087D01*
X94736904Y-40354039D01*
X94614915Y-40132000D01*
X93472000Y-40132000D01*
X93472000Y-40152000D01*
X93218000Y-40152000D01*
X93218000Y-40132000D01*
X92075085Y-40132000D01*
X91953096Y-40354039D01*
X91993754Y-40488087D01*
X92048540Y-40604000D01*
X86308511Y-40604000D01*
X86264574Y-40560063D01*
X86095056Y-40446795D01*
X85906698Y-40368774D01*
X85768142Y-40341214D01*
X85749467Y-40247328D01*
X85647987Y-40002335D01*
X85500662Y-39781847D01*
X85313153Y-39594338D01*
X85092665Y-39447013D01*
X84847672Y-39345533D01*
X84587589Y-39293800D01*
X84322411Y-39293800D01*
X84062328Y-39345533D01*
X83817335Y-39447013D01*
X83596847Y-39594338D01*
X83409338Y-39781847D01*
X83262013Y-40002335D01*
X83185000Y-40188260D01*
X83107987Y-40002335D01*
X82960662Y-39781847D01*
X82773153Y-39594338D01*
X82552665Y-39447013D01*
X82366740Y-39370000D01*
X82552665Y-39292987D01*
X82773153Y-39145662D01*
X82960662Y-38958153D01*
X83107987Y-38737665D01*
X83209467Y-38492672D01*
X83261200Y-38232589D01*
X83261200Y-37967411D01*
X83209467Y-37707328D01*
X83107987Y-37462335D01*
X82960662Y-37241847D01*
X82773153Y-37054338D01*
X82648952Y-36971350D01*
X82946303Y-36674000D01*
X83437989Y-36674000D01*
X83481926Y-36717937D01*
X83651444Y-36831205D01*
X83839802Y-36909226D01*
X84039761Y-36949000D01*
X84243639Y-36949000D01*
X84443598Y-36909226D01*
X84631956Y-36831205D01*
X84801474Y-36717937D01*
X84945637Y-36573774D01*
X85058905Y-36404256D01*
X85136926Y-36215898D01*
X85176700Y-36015939D01*
X85176700Y-35812061D01*
X85176290Y-35810000D01*
X92210479Y-35810000D01*
X92230363Y-35839759D01*
%TA.AperFunction,Conductor*%
D23*
G36*
X92230363Y-35839759D02*
G01*
X92430241Y-36039637D01*
X92662759Y-36195000D01*
X92430241Y-36350363D01*
X92230363Y-36550241D01*
X92073320Y-36785273D01*
X91965147Y-37046426D01*
X91910000Y-37323665D01*
X91910000Y-37606335D01*
X91965147Y-37883574D01*
X91988395Y-37939700D01*
X86974307Y-37939700D01*
X86900305Y-37761044D01*
X86787037Y-37591526D01*
X86642874Y-37447363D01*
X86473356Y-37334095D01*
X86284998Y-37256074D01*
X86085039Y-37216300D01*
X85881161Y-37216300D01*
X85681202Y-37256074D01*
X85492844Y-37334095D01*
X85323326Y-37447363D01*
X85179163Y-37591526D01*
X85065895Y-37761044D01*
X84987874Y-37949402D01*
X84948100Y-38149361D01*
X84948100Y-38353239D01*
X84987874Y-38553198D01*
X85065895Y-38741556D01*
X85179163Y-38911074D01*
X85323326Y-39055237D01*
X85492844Y-39168505D01*
X85681202Y-39246526D01*
X85881161Y-39286300D01*
X85948280Y-39286300D01*
X86007224Y-39334674D01*
X86139253Y-39405246D01*
X86282514Y-39448703D01*
X86394167Y-39459700D01*
X86394176Y-39459700D01*
X86431499Y-39463376D01*
X86468822Y-39459700D01*
X92023159Y-39459700D01*
X91993754Y-39521913D01*
X91953096Y-39655961D01*
X92075085Y-39878000D01*
X93218000Y-39878000D01*
X93218000Y-39858000D01*
X93472000Y-39858000D01*
X93472000Y-39878000D01*
X94614915Y-39878000D01*
X94736904Y-39655961D01*
X94696246Y-39521913D01*
X94666841Y-39459700D01*
X98219799Y-39459700D01*
X99276101Y-40516003D01*
X99299899Y-40545001D01*
X99328897Y-40568799D01*
X99371789Y-40604000D01*
X94641460Y-40604000D01*
X94696246Y-40488087D01*
X94736904Y-40354039D01*
X94614915Y-40132000D01*
X93472000Y-40132000D01*
X93472000Y-40152000D01*
X93218000Y-40152000D01*
X93218000Y-40132000D01*
X92075085Y-40132000D01*
X91953096Y-40354039D01*
X91993754Y-40488087D01*
X92048540Y-40604000D01*
X86308511Y-40604000D01*
X86264574Y-40560063D01*
X86095056Y-40446795D01*
X85906698Y-40368774D01*
X85768142Y-40341214D01*
X85749467Y-40247328D01*
X85647987Y-40002335D01*
X85500662Y-39781847D01*
X85313153Y-39594338D01*
X85092665Y-39447013D01*
X84847672Y-39345533D01*
X84587589Y-39293800D01*
X84322411Y-39293800D01*
X84062328Y-39345533D01*
X83817335Y-39447013D01*
X83596847Y-39594338D01*
X83409338Y-39781847D01*
X83262013Y-40002335D01*
X83185000Y-40188260D01*
X83107987Y-40002335D01*
X82960662Y-39781847D01*
X82773153Y-39594338D01*
X82552665Y-39447013D01*
X82366740Y-39370000D01*
X82552665Y-39292987D01*
X82773153Y-39145662D01*
X82960662Y-38958153D01*
X83107987Y-38737665D01*
X83209467Y-38492672D01*
X83261200Y-38232589D01*
X83261200Y-37967411D01*
X83209467Y-37707328D01*
X83107987Y-37462335D01*
X82960662Y-37241847D01*
X82773153Y-37054338D01*
X82648952Y-36971350D01*
X82946303Y-36674000D01*
X83437989Y-36674000D01*
X83481926Y-36717937D01*
X83651444Y-36831205D01*
X83839802Y-36909226D01*
X84039761Y-36949000D01*
X84243639Y-36949000D01*
X84443598Y-36909226D01*
X84631956Y-36831205D01*
X84801474Y-36717937D01*
X84945637Y-36573774D01*
X85058905Y-36404256D01*
X85136926Y-36215898D01*
X85176700Y-36015939D01*
X85176700Y-35812061D01*
X85176290Y-35810000D01*
X92210479Y-35810000D01*
X92230363Y-35839759D01*
G37*
%TD.AperFunction*%
D22*
X81056847Y-39145662D02*
X81277335Y-39292987D01*
X81463260Y-39370000D01*
X81277335Y-39447013D01*
X81056847Y-39594338D01*
X80869338Y-39781847D01*
X80722013Y-40002335D01*
X80645000Y-40188260D01*
X80567987Y-40002335D01*
X80420662Y-39781847D01*
X80331758Y-39692943D01*
X80967943Y-39056758D01*
X81056847Y-39145662D01*
%TA.AperFunction,Conductor*%
D23*
G36*
X81056847Y-39145662D02*
G01*
X81277335Y-39292987D01*
X81463260Y-39370000D01*
X81277335Y-39447013D01*
X81056847Y-39594338D01*
X80869338Y-39781847D01*
X80722013Y-40002335D01*
X80645000Y-40188260D01*
X80567987Y-40002335D01*
X80420662Y-39781847D01*
X80331758Y-39692943D01*
X80967943Y-39056758D01*
X81056847Y-39145662D01*
G37*
%TD.AperFunction*%
D22*
X105603748Y-29195858D02*
X105589605Y-29210000D01*
X105603748Y-29224143D01*
X105424143Y-29403748D01*
X105410000Y-29389605D01*
X104660332Y-30139273D01*
X104721152Y-30374183D01*
X104961509Y-30486202D01*
X105219102Y-30549176D01*
X105484030Y-30560687D01*
X105746113Y-30520291D01*
X105945501Y-30447672D01*
X105945500Y-33949698D01*
X102400000Y-37495199D01*
X102400000Y-37323665D01*
X102344853Y-37046426D01*
X102236680Y-36785273D01*
X102079637Y-36550241D01*
X101881039Y-36351643D01*
X101889482Y-36350812D01*
X102009180Y-36314502D01*
X102119494Y-36255537D01*
X102216185Y-36176185D01*
X102295537Y-36079494D01*
X102354502Y-35969180D01*
X102390812Y-35849482D01*
X102403072Y-35725000D01*
X102400000Y-35210750D01*
X102241250Y-35052000D01*
X101092000Y-35052000D01*
X101092000Y-35072000D01*
X100838000Y-35072000D01*
X100838000Y-35052000D01*
X100818000Y-35052000D01*
X100818000Y-34798000D01*
X100838000Y-34798000D01*
X100838000Y-33648750D01*
X101092000Y-33648750D01*
X101092000Y-34798000D01*
X102241250Y-34798000D01*
X102400000Y-34639250D01*
X102403072Y-34125000D01*
X102390812Y-34000518D01*
X102354502Y-33880820D01*
X102295537Y-33770506D01*
X102216185Y-33673815D01*
X102119494Y-33594463D01*
X102009180Y-33535498D01*
X101889482Y-33499188D01*
X101765000Y-33486928D01*
X101250750Y-33490000D01*
X101092000Y-33648750D01*
X100838000Y-33648750D01*
X100679250Y-33490000D01*
X100165000Y-33486928D01*
X100040518Y-33499188D01*
X99920820Y-33535498D01*
X99810506Y-33594463D01*
X99742100Y-33650602D01*
X99742100Y-33412701D01*
X101478899Y-31675903D01*
X101478903Y-31675898D01*
X102621631Y-30533170D01*
X102737411Y-30556200D01*
X103002589Y-30556200D01*
X103262672Y-30504467D01*
X103507665Y-30402987D01*
X103728153Y-30255662D01*
X103915662Y-30068153D01*
X104062987Y-29847665D01*
X104140969Y-29659400D01*
X104190458Y-29795280D01*
X104245817Y-29898848D01*
X104480727Y-29959668D01*
X105230395Y-29210000D01*
X105216253Y-29195858D01*
X105395858Y-29016253D01*
X105410000Y-29030395D01*
X105424143Y-29016253D01*
X105603748Y-29195858D01*
%TA.AperFunction,Conductor*%
D23*
G36*
X105603748Y-29195858D02*
G01*
X105589605Y-29210000D01*
X105603748Y-29224143D01*
X105424143Y-29403748D01*
X105410000Y-29389605D01*
X104660332Y-30139273D01*
X104721152Y-30374183D01*
X104961509Y-30486202D01*
X105219102Y-30549176D01*
X105484030Y-30560687D01*
X105746113Y-30520291D01*
X105945501Y-30447672D01*
X105945500Y-33949698D01*
X102400000Y-37495199D01*
X102400000Y-37323665D01*
X102344853Y-37046426D01*
X102236680Y-36785273D01*
X102079637Y-36550241D01*
X101881039Y-36351643D01*
X101889482Y-36350812D01*
X102009180Y-36314502D01*
X102119494Y-36255537D01*
X102216185Y-36176185D01*
X102295537Y-36079494D01*
X102354502Y-35969180D01*
X102390812Y-35849482D01*
X102403072Y-35725000D01*
X102400000Y-35210750D01*
X102241250Y-35052000D01*
X101092000Y-35052000D01*
X101092000Y-35072000D01*
X100838000Y-35072000D01*
X100838000Y-35052000D01*
X100818000Y-35052000D01*
X100818000Y-34798000D01*
X100838000Y-34798000D01*
X100838000Y-33648750D01*
X101092000Y-33648750D01*
X101092000Y-34798000D01*
X102241250Y-34798000D01*
X102400000Y-34639250D01*
X102403072Y-34125000D01*
X102390812Y-34000518D01*
X102354502Y-33880820D01*
X102295537Y-33770506D01*
X102216185Y-33673815D01*
X102119494Y-33594463D01*
X102009180Y-33535498D01*
X101889482Y-33499188D01*
X101765000Y-33486928D01*
X101250750Y-33490000D01*
X101092000Y-33648750D01*
X100838000Y-33648750D01*
X100679250Y-33490000D01*
X100165000Y-33486928D01*
X100040518Y-33499188D01*
X99920820Y-33535498D01*
X99810506Y-33594463D01*
X99742100Y-33650602D01*
X99742100Y-33412701D01*
X101478899Y-31675903D01*
X101478903Y-31675898D01*
X102621631Y-30533170D01*
X102737411Y-30556200D01*
X103002589Y-30556200D01*
X103262672Y-30504467D01*
X103507665Y-30402987D01*
X103728153Y-30255662D01*
X103915662Y-30068153D01*
X104062987Y-29847665D01*
X104140969Y-29659400D01*
X104190458Y-29795280D01*
X104245817Y-29898848D01*
X104480727Y-29959668D01*
X105230395Y-29210000D01*
X105216253Y-29195858D01*
X105395858Y-29016253D01*
X105410000Y-29030395D01*
X105424143Y-29016253D01*
X105603748Y-29195858D01*
G37*
%TD.AperFunction*%
D22*
X80203748Y-29195858D02*
X80189605Y-29210000D01*
X80203748Y-29224143D01*
X80024143Y-29403748D01*
X80010000Y-29389605D01*
X79995858Y-29403748D01*
X79816253Y-29224143D01*
X79830395Y-29210000D01*
X79816253Y-29195858D01*
X79995858Y-29016253D01*
X80010000Y-29030395D01*
X80024143Y-29016253D01*
X80203748Y-29195858D01*
%TA.AperFunction,Conductor*%
D23*
G36*
X80203748Y-29195858D02*
G01*
X80189605Y-29210000D01*
X80203748Y-29224143D01*
X80024143Y-29403748D01*
X80010000Y-29389605D01*
X79995858Y-29403748D01*
X79816253Y-29224143D01*
X79830395Y-29210000D01*
X79816253Y-29195858D01*
X79995858Y-29016253D01*
X80010000Y-29030395D01*
X80024143Y-29016253D01*
X80203748Y-29195858D01*
G37*
%TD.AperFunction*%
%TD*%
M02*
